<svg width="1226" height="766" viewBox="0 0 1226 766" fill="none" xmlns="http://www.w3.org/2000/svg">
<path opacity="0.43" d="M620.225 431.017C618.685 431.017 617.449 429.769 617.449 428.241C617.449 426.713 618.697 425.465 620.225 425.465C621.753 425.465 623.001 426.713 623.001 428.241C623.001 429.769 621.753 431.017 620.225 431.017ZM800.378 423.785C800.378 422.246 799.13 421.01 797.602 421.01C796.074 421.01 794.826 422.258 794.826 423.785C794.826 425.313 796.074 426.561 797.602 426.561C799.13 426.561 800.378 425.313 800.378 423.785ZM442.918 263.915C442.918 262.376 441.67 261.139 440.142 261.139C438.614 261.139 437.366 262.387 437.366 263.915C437.366 265.443 438.614 266.691 440.142 266.691C441.67 266.691 442.918 265.443 442.918 263.915ZM497.864 533.293C497.864 532.523 497.246 531.905 496.476 531.905C495.706 531.905 495.088 532.523 495.088 533.293C495.088 534.063 495.706 534.681 496.476 534.681C497.246 534.681 497.864 534.063 497.864 533.293ZM412.558 565.752C412.558 564.983 411.94 564.364 411.17 564.364C410.4 564.364 409.782 564.983 409.782 565.752C409.782 566.522 410.4 567.14 411.17 567.14C411.94 567.14 412.558 566.522 412.558 565.752ZM516.84 619.241C516.957 618.483 516.432 617.771 515.674 617.654C514.916 617.538 514.204 618.063 514.088 618.821C513.971 619.579 514.496 620.29 515.254 620.407C516.012 620.524 516.724 619.999 516.84 619.241ZM543.561 224.131C544.296 223.921 544.716 223.14 544.506 222.405C544.296 221.67 543.515 221.25 542.78 221.46C542.045 221.67 541.625 222.452 541.835 223.187C542.045 223.921 542.826 224.341 543.561 224.131ZM574.049 205.295C574.784 205.085 575.204 204.304 574.994 203.569C574.784 202.834 574.003 202.414 573.268 202.624C572.533 202.834 572.113 203.615 572.323 204.35C572.533 205.085 573.315 205.505 574.049 205.295ZM580.359 573.59C581.094 573.38 581.514 572.599 581.304 571.864C581.094 571.129 580.313 570.709 579.578 570.919C578.843 571.129 578.423 571.911 578.633 572.645C578.843 573.38 579.624 573.8 580.359 573.59ZM611.92 478.195C612.655 477.985 613.075 477.204 612.865 476.469C612.655 475.734 611.874 475.314 611.139 475.524C610.404 475.734 609.984 476.516 610.194 477.25C610.404 477.985 611.186 478.405 611.92 478.195ZM562.969 569.018C563.704 568.808 564.124 568.027 563.914 567.292C563.704 566.557 562.922 566.137 562.188 566.347C561.453 566.557 561.033 567.339 561.243 568.073C561.453 568.808 562.234 569.228 562.969 569.018ZM555.166 542.332C555.901 542.122 556.321 541.341 556.111 540.606C555.901 539.871 555.12 539.451 554.385 539.661C553.65 539.871 553.23 540.653 553.44 541.388C553.65 542.122 554.431 542.542 555.166 542.332ZM297.23 623.661C297.23 622.891 296.612 622.273 295.842 622.273C295.072 622.273 294.454 622.891 294.454 623.661C294.454 624.431 295.072 625.049 295.842 625.049C296.612 625.049 297.23 624.431 297.23 623.661ZM270.346 589.826C270.346 589.056 269.728 588.438 268.958 588.438C268.188 588.438 267.57 589.056 267.57 589.826C267.57 590.595 268.188 591.214 268.958 591.214C269.728 591.214 270.346 590.595 270.346 589.826ZM316.16 658.418C316.16 657.648 315.542 657.03 314.772 657.03C314.002 657.03 313.384 657.648 313.384 658.418C313.384 659.188 314.002 659.806 314.772 659.806C315.542 659.806 316.16 659.188 316.16 658.418ZM260.152 639.068C260.152 638.299 259.534 637.68 258.764 637.68C257.994 637.68 257.376 638.299 257.376 639.068C257.376 639.838 257.994 640.456 258.764 640.456C259.534 640.456 260.152 639.838 260.152 639.068ZM199.899 608.359C199.899 607.589 199.281 606.971 198.511 606.971C197.741 606.971 197.123 607.589 197.123 608.359C197.123 609.129 197.741 609.747 198.511 609.747C199.281 609.747 199.899 609.129 199.899 608.359ZM292.063 682.305C292.203 681.547 291.713 680.823 290.955 680.683C290.197 680.544 289.474 681.033 289.334 681.792C289.194 682.55 289.684 683.273 290.442 683.413C291.2 683.553 291.923 683.063 292.063 682.305ZM267.104 700.126C267.104 699.357 266.485 698.738 265.716 698.738C264.946 698.738 264.328 699.357 264.328 700.126C264.328 700.896 264.946 701.514 265.716 701.514C266.485 701.514 267.104 700.896 267.104 700.126ZM280.307 659.806C280.307 659.036 279.688 658.418 278.919 658.418C278.149 658.418 277.531 659.036 277.531 659.806C277.531 660.576 278.149 661.194 278.919 661.194C279.688 661.194 280.307 660.576 280.307 659.806ZM254.589 666.407C254.589 665.638 253.971 665.02 253.201 665.02C252.431 665.02 251.813 665.638 251.813 666.407C251.813 667.177 252.431 667.795 253.201 667.795C253.971 667.795 254.589 667.177 254.589 666.407ZM920.254 329.673C919.927 330.362 920.219 331.201 920.907 331.528C921.595 331.854 922.435 331.563 922.762 330.875C923.088 330.187 922.797 329.347 922.109 329.02C921.421 328.694 920.581 328.985 920.254 329.673ZM943.698 479.536C943.371 480.225 943.663 481.064 944.351 481.391C945.039 481.718 945.879 481.426 946.205 480.738C946.532 480.05 946.24 479.21 945.552 478.883C944.864 478.557 944.024 478.848 943.698 479.536ZM900.625 403.596C900.298 404.284 900.59 405.124 901.278 405.451C901.966 405.777 902.806 405.486 903.132 404.797C903.459 404.109 903.167 403.27 902.479 402.943C901.791 402.616 900.951 402.908 900.625 403.596ZM371.025 718.683C371.025 717.913 370.406 717.295 369.637 717.295C368.867 717.295 368.249 717.913 368.249 718.683C368.249 719.453 368.867 720.071 369.637 720.071C370.406 720.071 371.025 719.453 371.025 718.683ZM891.947 393.519C891.492 394.137 891.632 395.012 892.25 395.467C892.868 395.922 893.743 395.782 894.198 395.163C894.653 394.545 894.513 393.671 893.895 393.216C893.277 392.761 892.402 392.901 891.947 393.519ZM399.028 724.899C399.716 725.226 400.556 724.934 400.883 724.246C401.209 723.558 400.918 722.718 400.23 722.392C399.542 722.065 398.702 722.357 398.375 723.045C398.049 723.733 398.34 724.573 399.028 724.899ZM938.041 372.968C937.714 373.656 938.006 374.496 938.694 374.822C939.382 375.149 940.222 374.857 940.548 374.169C940.875 373.481 940.583 372.641 939.895 372.315C939.207 371.988 938.367 372.28 938.041 372.968ZM900.846 309.706C900.52 310.394 900.811 311.234 901.499 311.56C902.187 311.887 903.027 311.595 903.354 310.907C903.68 310.219 903.389 309.379 902.701 309.053C902.013 308.726 901.173 309.018 900.846 309.706ZM167.288 640.48C167.288 639.71 166.67 639.092 165.9 639.092C165.13 639.092 164.512 639.71 164.512 640.48C164.512 641.25 165.13 641.868 165.9 641.868C166.67 641.868 167.288 641.25 167.288 640.48ZM337.002 316.984C337.772 317.007 338.414 316.4 338.437 315.631C338.46 314.861 337.854 314.219 337.084 314.196C336.314 314.173 335.673 314.779 335.649 315.549C335.626 316.319 336.233 316.96 337.002 316.984ZM290.652 348.428C291.422 348.452 292.063 347.845 292.087 347.075C292.11 346.305 291.503 345.664 290.734 345.641C289.964 345.617 289.322 346.224 289.299 346.994C289.276 347.763 289.882 348.405 290.652 348.428ZM270.824 392.679C271.582 392.819 272.305 392.318 272.445 391.559C272.585 390.801 272.084 390.078 271.326 389.938C270.568 389.798 269.844 390.3 269.705 391.058C269.565 391.816 270.066 392.539 270.824 392.679ZM247.136 369.749C247.906 369.772 248.547 369.166 248.57 368.396C248.594 367.626 247.987 366.985 247.217 366.961C246.448 366.938 245.806 367.544 245.783 368.314C245.76 369.084 246.366 369.726 247.136 369.749ZM287.048 384.142C287.818 384.165 288.459 383.558 288.483 382.789C288.506 382.019 287.899 381.377 287.13 381.354C286.36 381.331 285.718 381.937 285.695 382.707C285.672 383.477 286.278 384.118 287.048 384.142ZM281.205 358.237C281.974 358.26 282.616 357.654 282.639 356.884C282.663 356.114 282.056 355.473 281.286 355.45C280.517 355.426 279.875 356.033 279.852 356.803C279.828 357.572 280.435 358.214 281.205 358.237ZM260.071 335.925C260.84 335.948 261.482 335.342 261.505 334.572C261.528 333.802 260.922 333.161 260.152 333.137C259.382 333.114 258.741 333.721 258.718 334.49C258.694 335.26 259.301 335.902 260.071 335.925ZM360.831 419.307C361.6 419.33 362.242 418.723 362.265 417.954C362.289 417.184 361.682 416.542 360.912 416.519C360.143 416.496 359.501 417.102 359.478 417.872C359.454 418.642 360.061 419.283 360.831 419.307ZM350.182 432.416C350.952 432.44 351.593 431.833 351.617 431.063C351.64 430.294 351.033 429.652 350.264 429.629C349.494 429.605 348.852 430.212 348.829 430.982C348.806 431.752 349.412 432.393 350.182 432.416ZM343.93 418.444C344.7 418.467 345.342 417.86 345.365 417.091C345.388 416.321 344.782 415.679 344.012 415.656C343.242 415.633 342.601 416.239 342.577 417.009C342.554 417.779 343.161 418.42 343.93 418.444ZM355.909 375.93C356.667 376.07 357.39 375.569 357.53 374.811C357.67 374.053 357.168 373.33 356.41 373.19C355.652 373.05 354.929 373.551 354.789 374.309C354.649 375.067 355.151 375.791 355.909 375.93ZM12.3282 397.135C13.098 397.158 13.7395 396.551 13.7628 395.782C13.7861 395.012 13.1796 394.37 12.4099 394.347C11.6401 394.324 10.9986 394.93 10.9753 395.7C10.9519 396.47 11.5584 397.111 12.3282 397.135ZM23.5601 360.85C24.3299 360.873 24.9713 360.267 24.9947 359.497C25.018 358.727 24.4115 358.085 23.6417 358.062C22.8719 358.039 22.2304 358.645 22.2071 359.415C22.1838 360.185 22.7903 360.826 23.5601 360.85ZM13.7162 343.133C14.4859 343.156 15.1274 342.55 15.1508 341.78C15.1741 341.01 14.5676 340.369 13.7978 340.345C13.028 340.322 12.3865 340.929 12.3632 341.698C12.3399 342.468 12.9464 343.11 13.7162 343.133ZM88.4202 360.826C89.1784 360.966 89.9015 360.465 90.0415 359.707C90.1814 358.949 89.6799 358.225 88.9218 358.085C88.1637 357.946 87.4405 358.447 87.3006 359.205C87.1606 359.963 87.6621 360.686 88.4202 360.826ZM300.391 439.764C301.161 439.788 301.802 439.181 301.826 438.411C301.849 437.642 301.242 437 300.473 436.977C299.703 436.953 299.061 437.56 299.038 438.33C299.015 439.099 299.621 439.741 300.391 439.764ZM306.141 479.665C306.911 479.688 307.552 479.082 307.576 478.312C307.599 477.542 306.992 476.901 306.223 476.877C305.453 476.854 304.811 477.46 304.788 478.23C304.765 479 305.371 479.641 306.141 479.665ZM301.779 405.929C302.549 405.952 303.19 405.346 303.213 404.576C303.237 403.806 302.63 403.165 301.861 403.141C301.091 403.118 300.449 403.724 300.426 404.494C300.403 405.264 301.009 405.905 301.779 405.929ZM725.277 216.375C726.047 216.398 726.688 215.792 726.712 215.022C726.735 214.252 726.128 213.611 725.359 213.588C724.589 213.564 723.947 214.171 723.924 214.941C723.901 215.71 724.507 216.352 725.277 216.375ZM722.501 236.833C723.271 236.856 723.912 236.25 723.936 235.48C723.959 234.71 723.353 234.069 722.583 234.045C721.813 234.022 721.171 234.628 721.148 235.398C721.125 236.168 721.731 236.809 722.501 236.833ZM708.377 215.512C709.147 215.535 709.788 214.929 709.811 214.159C709.835 213.389 709.228 212.748 708.458 212.725C707.689 212.701 707.047 213.308 707.024 214.077C707 214.847 707.607 215.489 708.377 215.512ZM664.861 236.833C665.63 236.856 666.272 236.25 666.295 235.48C666.319 234.71 665.712 234.069 664.942 234.045C664.172 234.022 663.531 234.628 663.508 235.398C663.484 236.168 664.091 236.809 664.861 236.833ZM677.795 202.997C678.565 203.021 679.207 202.414 679.23 201.644C679.253 200.874 678.647 200.233 677.877 200.21C677.107 200.186 676.466 200.793 676.442 201.563C676.419 202.332 677.026 202.974 677.795 202.997ZM123.69 532.36C124.46 532.383 125.102 531.777 125.125 531.007C125.148 530.237 124.542 529.596 123.772 529.572C123.002 529.549 122.361 530.156 122.337 530.925C122.314 531.695 122.921 532.337 123.69 532.36ZM89.7382 555.29C90.4963 555.43 91.2195 554.929 91.3594 554.171C91.4994 553.412 90.9979 552.689 90.2397 552.549C89.4816 552.409 88.7585 552.911 88.6185 553.669C88.4786 554.427 88.9801 555.15 89.7382 555.29ZM105.962 546.741C106.732 546.764 107.373 546.158 107.397 545.388C107.42 544.618 106.813 543.977 106.044 543.953C105.274 543.93 104.632 544.537 104.609 545.306C104.586 546.076 105.192 546.718 105.962 546.741ZM100.119 520.837C100.888 520.86 101.53 520.253 101.553 519.484C101.577 518.714 100.97 518.072 100.2 518.049C99.4305 518.026 98.789 518.632 98.7657 519.402C98.7424 520.172 99.3489 520.813 100.119 520.837ZM174.823 538.53C175.581 538.67 176.304 538.168 176.444 537.41C176.584 536.652 176.082 535.929 175.324 535.789C174.566 535.649 173.843 536.151 173.703 536.909C173.563 537.667 174.065 538.39 174.823 538.53ZM132.251 568.528C133.021 568.552 133.663 567.945 133.686 567.175C133.709 566.406 133.103 565.764 132.333 565.741C131.563 565.717 130.922 566.324 130.898 567.094C130.875 567.863 131.482 568.505 132.251 568.528ZM396.287 196.279C397.057 196.302 397.699 195.696 397.722 194.926C397.745 194.156 397.139 193.515 396.369 193.492C395.599 193.468 394.958 194.075 394.934 194.844C394.911 195.614 395.518 196.256 396.287 196.279ZM393.512 216.737C394.281 216.76 394.923 216.154 394.946 215.384C394.969 214.614 394.363 213.972 393.593 213.949C392.823 213.926 392.182 214.532 392.159 215.302C392.135 216.072 392.742 216.713 393.512 216.737ZM33.9055 239.9C34.6753 239.924 35.3168 239.317 35.3401 238.547C35.3634 237.777 34.7569 237.136 33.9872 237.113C33.2174 237.089 32.5759 237.696 32.5526 238.466C32.5292 239.235 33.1357 239.877 33.9055 239.9ZM5.23687 188.138C5.99499 188.278 6.71812 187.776 6.85808 187.018C6.99804 186.26 6.49652 185.537 5.7384 185.397C4.98028 185.257 4.25714 185.759 4.11718 186.517C3.97722 187.275 4.47875 187.998 5.23687 188.138ZM348.806 182.901C349.575 182.924 350.217 182.318 350.24 181.548C350.264 180.778 349.657 180.137 348.887 180.114C348.118 180.09 347.476 180.697 347.453 181.467C347.429 182.236 348.036 182.878 348.806 182.901ZM723.353 690.294C723.982 690.737 724.845 690.586 725.289 689.956C725.732 689.326 725.58 688.463 724.95 688.02C724.321 687.577 723.458 687.728 723.014 688.358C722.571 688.988 722.723 689.851 723.353 690.294ZM722.758 588.438C722.758 587.668 722.14 587.05 721.37 587.05C720.6 587.05 719.982 587.668 719.982 588.438C719.982 589.207 720.6 589.826 721.37 589.826C722.14 589.826 722.758 589.207 722.758 588.438ZM684.012 685.885C684.642 686.329 685.505 686.177 685.948 685.547C686.391 684.917 686.24 684.054 685.61 683.611C684.98 683.168 684.117 683.319 683.674 683.949C683.23 684.579 683.382 685.442 684.012 685.885ZM731.972 651.07C732.602 651.513 733.465 651.362 733.908 650.732C734.351 650.102 734.2 649.239 733.57 648.796C732.94 648.353 732.077 648.504 731.634 649.134C731.19 649.764 731.342 650.627 731.972 651.07ZM678.25 652.435C678.787 652.983 679.673 652.995 680.221 652.458C680.769 651.922 680.781 651.035 680.245 650.487C679.708 649.939 678.822 649.927 678.274 650.464C677.725 651 677.714 651.887 678.25 652.435ZM690.135 709.97C690.135 709.201 689.517 708.582 688.747 708.582C687.977 708.582 687.359 709.201 687.359 709.97C687.359 710.74 687.977 711.358 688.747 711.358C689.517 711.358 690.135 710.74 690.135 709.97ZM692.958 666.151C693.588 666.594 694.451 666.442 694.894 665.813C695.337 665.183 695.185 664.32 694.556 663.877C693.926 663.433 693.063 663.585 692.62 664.215C692.176 664.845 692.328 665.708 692.958 666.151ZM729.266 599.18C729.896 599.623 730.759 599.471 731.202 598.841C731.645 598.212 731.494 597.349 730.864 596.905C730.234 596.462 729.371 596.614 728.928 597.244C728.484 597.873 728.636 598.736 729.266 599.18ZM774.637 419.622C774.637 418.852 774.018 418.234 773.249 418.234C772.479 418.234 771.861 418.852 771.861 419.622C771.861 420.391 772.479 421.01 773.249 421.01C774.018 421.01 774.637 420.391 774.637 419.622ZM813.231 471.022C813.861 471.465 814.724 471.314 815.167 470.684C815.61 470.054 815.458 469.191 814.829 468.748C814.199 468.305 813.336 468.456 812.893 469.086C812.449 469.716 812.601 470.579 813.231 471.022ZM759.509 472.387C760.046 472.935 760.932 472.947 761.48 472.41C762.028 471.874 762.04 470.987 761.504 470.439C760.967 469.891 760.081 469.879 759.532 470.416C758.984 470.952 758.973 471.839 759.509 472.387ZM773.622 465.26C774.252 465.704 775.115 465.552 775.558 464.922C776.001 464.292 775.85 463.429 775.22 462.986C774.59 462.543 773.727 462.695 773.284 463.324C772.84 463.954 772.992 464.817 773.622 465.26ZM721.953 497.79C722.583 498.233 723.446 498.081 723.889 497.451C724.332 496.822 724.181 495.959 723.551 495.515C722.921 495.072 722.058 495.224 721.615 495.854C721.172 496.483 721.323 497.346 721.953 497.79ZM891.725 416.694C891.55 417.441 892.017 418.187 892.763 418.362C893.51 418.537 894.256 418.07 894.431 417.324C894.606 416.577 894.14 415.831 893.393 415.656C892.647 415.481 891.9 415.948 891.725 416.694ZM733.71 357.514C733.418 358.225 733.768 359.042 734.479 359.322C735.191 359.602 736.007 359.263 736.287 358.552C736.579 357.841 736.229 357.024 735.517 356.744C734.806 356.453 733.99 356.803 733.71 357.514ZM765.376 374.601C765.201 375.347 765.667 376.094 766.414 376.269C767.16 376.444 767.907 375.977 768.082 375.231C768.257 374.484 767.79 373.738 767.044 373.563C766.297 373.388 765.551 373.854 765.376 374.601ZM809.872 252.882C809.872 252.112 809.253 251.494 808.484 251.494C807.714 251.494 807.096 252.112 807.096 252.882C807.096 253.651 807.714 254.27 808.484 254.27C809.253 254.27 809.872 253.651 809.872 252.882ZM776.561 259.005C776.386 259.751 776.853 260.498 777.599 260.673C778.346 260.848 779.092 260.381 779.267 259.635C779.442 258.888 778.975 258.142 778.229 257.967C777.482 257.792 776.736 258.258 776.561 259.005ZM786.242 227.747C786.067 228.493 786.533 229.24 787.28 229.415C788.026 229.59 788.773 229.123 788.948 228.377C789.122 227.63 788.656 226.884 787.91 226.709C787.163 226.534 786.417 227 786.242 227.747ZM473.371 245.3C473.196 246.047 473.662 246.793 474.409 246.968C475.155 247.143 475.902 246.677 476.077 245.93C476.252 245.184 475.785 244.437 475.039 244.262C474.292 244.087 473.546 244.554 473.371 245.3ZM506.227 305.658C506.052 306.405 506.518 307.151 507.265 307.326C508.011 307.501 508.758 307.035 508.933 306.288C509.108 305.542 508.641 304.795 507.895 304.62C507.148 304.445 506.402 304.912 506.227 305.658ZM471.971 294.951C471.796 295.698 472.263 296.444 473.009 296.619C473.756 296.794 474.502 296.328 474.677 295.581C474.852 294.835 474.386 294.088 473.639 293.913C472.893 293.738 472.146 294.205 471.971 294.951ZM493.304 299.652C493.129 300.398 493.595 301.145 494.342 301.32C495.088 301.495 495.835 301.028 496.01 300.282C496.184 299.535 495.718 298.789 494.971 298.614C494.225 298.439 493.479 298.905 493.304 299.652ZM701.717 625.994C701.542 626.74 702.009 627.487 702.755 627.662C703.501 627.837 704.248 627.37 704.423 626.624C704.598 625.877 704.131 625.131 703.385 624.956C702.638 624.781 701.892 625.247 701.717 625.994ZM725.44 616.442C725.265 617.188 725.732 617.934 726.478 618.109C727.225 618.284 727.971 617.818 728.146 617.071C728.321 616.325 727.855 615.578 727.108 615.403C726.362 615.229 725.615 615.695 725.44 616.442ZM717.742 605.21C717.568 605.956 718.034 606.703 718.781 606.878C719.527 607.052 720.273 606.586 720.448 605.839C720.623 605.093 720.157 604.346 719.41 604.172C718.664 603.997 717.917 604.463 717.742 605.21ZM199.386 705.41C199.211 706.156 199.677 706.903 200.424 707.078C201.17 707.253 201.917 706.786 202.092 706.04C202.267 705.293 201.8 704.547 201.054 704.372C200.307 704.197 199.561 704.663 199.386 705.41ZM791.479 358.377C791.304 359.124 791.77 359.87 792.517 360.045C793.263 360.22 794.009 359.753 794.184 359.007C794.359 358.26 793.893 357.514 793.146 357.339C792.4 357.164 791.653 357.631 791.479 358.377ZM671.45 355.088C671.276 355.834 671.742 356.581 672.488 356.756C673.235 356.931 673.981 356.464 674.156 355.718C674.331 354.971 673.865 354.225 673.118 354.05C672.372 353.875 671.625 354.342 671.45 355.088ZM670.062 433.489C669.888 434.236 670.354 434.982 671.101 435.157C671.847 435.332 672.593 434.866 672.768 434.119C672.943 433.373 672.477 432.626 671.73 432.451C670.984 432.276 670.237 432.743 670.062 433.489ZM695.174 409.183C694.999 409.929 695.465 410.676 696.212 410.851C696.958 411.026 697.705 410.559 697.88 409.813C698.055 409.066 697.588 408.32 696.842 408.145C696.095 407.97 695.349 408.436 695.174 409.183ZM732.648 464.992C732.357 465.704 732.707 466.52 733.418 466.8C734.13 467.092 734.946 466.742 735.226 466.03C735.517 465.319 735.168 464.502 734.456 464.222C733.745 463.931 732.928 464.281 732.648 464.992ZM407.158 429.582C407.158 428.812 406.54 428.194 405.77 428.194C405 428.194 404.382 428.812 404.382 429.582C404.382 430.352 405 430.97 405.77 430.97C406.54 430.97 407.158 430.352 407.158 429.582ZM522.917 425.068C523.453 425.617 524.34 425.628 524.888 425.092C525.436 424.555 525.448 423.669 524.911 423.121C524.375 422.572 523.488 422.561 522.94 423.097C522.392 423.634 522.38 424.52 522.917 425.068ZM543.783 427.938C544.413 428.381 545.276 428.229 545.719 427.599C546.162 426.97 546.011 426.106 545.381 425.663C544.751 425.22 543.888 425.372 543.445 426.001C543.001 426.631 543.153 427.494 543.783 427.938ZM624.05 475.571C623.759 476.282 624.109 477.099 624.82 477.379C625.532 477.659 626.348 477.32 626.628 476.609C626.908 475.898 626.57 475.081 625.858 474.801C625.147 474.51 624.33 474.859 624.05 475.571ZM681.656 368.431C681.481 369.177 681.948 369.924 682.694 370.099C683.44 370.274 684.187 369.807 684.362 369.061C684.537 368.314 684.07 367.568 683.324 367.393C682.577 367.218 681.831 367.684 681.656 368.431ZM714.967 319.398C714.792 320.144 715.258 320.891 716.005 321.066C716.751 321.241 717.498 320.774 717.672 320.028C717.847 319.281 717.381 318.535 716.634 318.36C715.888 318.185 715.141 318.652 714.967 319.398ZM368.19 623.463C368.015 624.209 368.482 624.956 369.228 625.131C369.975 625.306 370.721 624.839 370.896 624.093C371.071 623.346 370.605 622.6 369.858 622.425C369.112 622.25 368.365 622.716 368.19 623.463ZM352.55 585.592C352.258 586.303 352.608 587.12 353.319 587.4C354.031 587.691 354.847 587.341 355.127 586.63C355.419 585.918 355.069 585.102 354.357 584.822C353.646 584.53 352.83 584.88 352.55 585.592ZM357.658 603.203C357.483 603.95 357.95 604.696 358.696 604.871C359.443 605.046 360.189 604.58 360.364 603.833C360.539 603.087 360.073 602.34 359.326 602.166C358.58 601.991 357.833 602.457 357.658 603.203ZM331.031 624.583C330.856 625.329 331.322 626.075 332.069 626.25C332.815 626.425 333.562 625.959 333.737 625.212C333.912 624.466 333.445 623.719 332.699 623.544C331.952 623.37 331.206 623.836 331.031 624.583ZM941.855 269.479C942.986 268.825 943.371 267.391 942.718 266.259C942.065 265.128 940.63 264.743 939.499 265.396C938.367 266.05 937.983 267.484 938.636 268.616C939.289 269.747 940.723 270.132 941.855 269.479ZM969.637 319.876C968.389 320.249 967.689 321.567 968.062 322.804C968.436 324.04 969.754 324.751 970.99 324.378C972.238 324.005 972.938 322.687 972.564 321.451C972.191 320.203 970.873 319.503 969.637 319.876ZM954.894 292.316C953.646 292.689 952.947 294.007 953.32 295.243C953.693 296.491 955.011 297.191 956.247 296.818C957.484 296.444 958.195 295.126 957.822 293.89C957.449 292.642 956.131 291.942 954.894 292.316ZM73.1529 442.307C73.5261 443.555 74.844 444.255 76.0804 443.881C77.3284 443.508 78.0282 442.19 77.6549 440.954C77.2817 439.706 75.9637 439.006 74.7274 439.379C73.4794 439.753 72.7796 441.071 73.1529 442.307ZM44.6708 433.139C45.0441 434.387 46.362 435.087 47.5983 434.714C48.8463 434.341 49.5461 433.023 49.1729 431.787C48.7997 430.539 47.4817 429.839 46.2454 430.212C44.9974 430.585 44.2976 431.903 44.6708 433.139ZM116.751 453.27C117.124 454.518 118.442 455.218 119.678 454.845C120.926 454.472 121.626 453.154 121.253 451.918C120.879 450.67 119.562 449.97 118.325 450.343C117.077 450.716 116.377 452.034 116.751 453.27ZM652.229 641.086C652.229 640.317 651.611 639.698 650.841 639.698C650.071 639.698 649.453 640.317 649.453 641.086C649.453 641.856 650.071 642.474 650.841 642.474C651.611 642.474 652.229 641.856 652.229 641.086ZM648.45 667.341C648.987 667.889 649.873 667.9 650.421 667.364C650.969 666.827 650.981 665.941 650.445 665.393C649.908 664.845 649.022 664.833 648.474 665.369C647.925 665.906 647.914 666.792 648.45 667.341ZM633.731 331.423C634.361 331.866 635.224 331.715 635.667 331.085C636.11 330.455 635.959 329.592 635.329 329.149C634.699 328.705 633.836 328.857 633.393 329.487C632.949 330.117 633.101 330.98 633.731 331.423ZM580.009 332.788C580.546 333.336 581.432 333.347 581.98 332.811C582.529 332.274 582.54 331.388 582.004 330.84C581.467 330.292 580.581 330.28 580.033 330.816C579.484 331.353 579.473 332.239 580.009 332.788ZM594.717 346.504C595.347 346.947 596.21 346.795 596.653 346.165C597.096 345.536 596.945 344.673 596.315 344.229C595.685 343.786 594.822 343.938 594.379 344.568C593.935 345.197 594.087 346.061 594.717 346.504ZM550.233 347.658C550.769 348.207 551.656 348.218 552.204 347.682C552.752 347.145 552.764 346.259 552.227 345.711C551.691 345.162 550.804 345.151 550.256 345.687C549.708 346.224 549.696 347.11 550.233 347.658ZM609.518 666.116C610.148 666.559 611.011 666.407 611.454 665.778C611.897 665.148 611.745 664.285 611.116 663.841C610.486 663.398 609.623 663.55 609.18 664.18C608.736 664.81 608.888 665.673 609.518 666.116ZM610.906 692.743C611.536 693.187 612.399 693.035 612.842 692.405C613.285 691.775 613.133 690.912 612.504 690.469C611.874 690.026 611.011 690.178 610.567 690.807C610.124 691.437 610.276 692.3 610.906 692.743ZM611.745 633.89C611.57 634.636 612.037 635.383 612.784 635.558C613.53 635.733 614.276 635.266 614.451 634.52C614.626 633.773 614.16 633.027 613.413 632.852C612.667 632.677 611.92 633.143 611.745 633.89ZM641.779 591.447C641.604 592.193 642.07 592.94 642.817 593.115C643.563 593.29 644.31 592.823 644.485 592.077C644.66 591.33 644.193 590.584 643.447 590.409C642.7 590.234 641.954 590.7 641.779 591.447ZM939.627 573.369C938.881 573.194 938.134 573.66 937.959 574.407C937.784 575.153 938.251 575.899 938.997 576.074C939.744 576.249 940.49 575.783 940.665 575.036C940.84 574.29 940.373 573.544 939.627 573.369ZM947.628 391.664C946.882 391.489 946.135 391.956 945.96 392.702C945.785 393.449 946.252 394.195 946.998 394.37C947.745 394.545 948.491 394.079 948.666 393.332C948.841 392.586 948.375 391.839 947.628 391.664ZM951.092 535.241C951.862 535.241 952.48 534.623 952.48 533.853C952.48 533.083 951.862 532.465 951.092 532.465C950.322 532.465 949.704 533.083 949.704 533.853C949.704 534.623 950.322 535.241 951.092 535.241ZM551.387 734.09C551.212 734.837 551.679 735.583 552.425 735.758C553.172 735.933 553.918 735.466 554.093 734.72C554.268 733.974 553.802 733.227 553.055 733.052C552.309 732.877 551.562 733.344 551.387 734.09ZM622.674 552.468C622.383 553.179 622.732 553.996 623.444 554.276C624.155 554.567 624.972 554.217 625.252 553.506C625.532 552.794 625.193 551.978 624.482 551.698C623.77 551.418 622.954 551.756 622.674 552.468ZM627.783 570.079C627.608 570.826 628.074 571.572 628.821 571.747C629.567 571.922 630.314 571.456 630.489 570.709C630.663 569.963 630.197 569.216 629.451 569.041C628.704 568.867 627.958 569.333 627.783 570.079ZM902.514 670.7C903.284 670.7 903.902 670.081 903.902 669.312C903.902 668.542 903.284 667.924 902.514 667.924C901.744 667.924 901.126 668.542 901.126 669.312C901.126 670.081 901.744 670.7 902.514 670.7ZM862.415 683.191C862.625 683.926 863.407 684.346 864.141 684.136C864.876 683.926 865.296 683.144 865.086 682.41C864.876 681.675 864.095 681.255 863.36 681.465C862.625 681.675 862.205 682.456 862.415 683.191ZM917.408 697.817C917.618 698.552 918.4 698.972 919.134 698.762C919.869 698.552 920.289 697.77 920.079 697.036C919.869 696.301 919.088 695.881 918.353 696.091C917.618 696.301 917.198 697.082 917.408 697.817ZM944.094 690.014C944.304 690.749 945.085 691.169 945.82 690.959C946.555 690.749 946.975 689.968 946.765 689.233C946.555 688.498 945.774 688.078 945.039 688.288C944.304 688.498 943.884 689.279 944.094 690.014ZM933.982 757.487C933.271 757.195 932.454 757.545 932.174 758.257C931.883 758.968 932.232 759.785 932.944 760.065C933.655 760.344 934.472 760.006 934.752 759.295C935.032 758.583 934.693 757.767 933.982 757.487ZM916.37 762.596C915.624 762.421 914.877 762.887 914.702 763.634C914.527 764.38 914.994 765.127 915.74 765.302C916.487 765.476 917.233 765.01 917.408 764.263C917.583 763.517 917.117 762.771 916.37 762.596ZM623.98 609.467C623.805 610.213 624.272 610.96 625.018 611.135C625.765 611.31 626.511 610.843 626.686 610.097C626.861 609.35 626.395 608.604 625.648 608.429C624.902 608.254 624.155 608.72 623.98 609.467ZM575.321 627.428C575.146 628.175 575.612 628.921 576.359 629.096C577.105 629.271 577.852 628.805 578.027 628.058C578.202 627.312 577.735 626.565 576.989 626.39C576.242 626.215 575.496 626.682 575.321 627.428ZM582.727 618.914C582.552 619.661 583.018 620.407 583.765 620.582C584.511 620.757 585.258 620.29 585.433 619.544C585.608 618.797 585.141 618.051 584.395 617.876C583.648 617.701 582.902 618.168 582.727 618.914ZM621.963 639.197C621.671 639.908 622.021 640.725 622.732 641.005C623.444 641.296 624.26 640.946 624.54 640.235C624.82 639.523 624.482 638.707 623.77 638.427C623.059 638.135 622.242 638.485 621.963 639.197ZM869.857 747.76C869.145 747.468 868.329 747.818 868.049 748.53C867.757 749.241 868.107 750.057 868.819 750.337C869.53 750.617 870.346 750.279 870.626 749.568C870.906 748.856 870.568 748.04 869.857 747.76ZM927.369 626.845C928.139 626.845 928.757 626.227 928.757 625.457C928.757 624.688 928.139 624.069 927.369 624.069C926.599 624.069 925.981 624.688 925.981 625.457C925.981 626.227 926.599 626.845 927.369 626.845ZM946.8 621.713C946.054 621.538 945.307 622.005 945.132 622.751C944.957 623.498 945.424 624.244 946.17 624.419C946.917 624.594 947.663 624.128 947.838 623.381C948.013 622.635 947.547 621.888 946.8 621.713ZM820.73 554.054C820.019 553.762 819.202 554.112 818.922 554.824C818.643 555.535 818.981 556.352 819.692 556.632C820.404 556.923 821.22 556.573 821.5 555.862C821.792 555.15 821.442 554.334 820.73 554.054ZM601.132 591.47C600.957 592.217 601.423 592.963 602.17 593.138C602.916 593.313 603.663 592.846 603.838 592.1C604.013 591.354 603.546 590.607 602.8 590.432C602.053 590.257 601.307 590.724 601.132 591.47ZM440.83 653.274C440.83 652.505 440.212 651.887 439.442 651.887C438.672 651.887 438.054 652.505 438.054 653.274C438.054 654.044 438.672 654.662 439.442 654.662C440.212 654.662 440.83 654.044 440.83 653.274ZM431.558 668.682C431.558 667.912 430.939 667.294 430.17 667.294C429.4 667.294 428.782 667.912 428.782 668.682C428.782 669.452 429.4 670.07 430.17 670.07C430.939 670.07 431.558 669.452 431.558 668.682ZM432.934 705.387C433.05 704.628 432.526 703.917 431.767 703.8C431.009 703.684 430.298 704.209 430.181 704.967C430.065 705.725 430.59 706.436 431.348 706.553C432.106 706.67 432.817 706.145 432.934 705.387ZM451.957 670.07C451.957 669.3 451.339 668.682 450.569 668.682C449.799 668.682 449.181 669.3 449.181 670.07C449.181 670.84 449.799 671.458 450.569 671.458C451.339 671.458 451.957 670.84 451.957 670.07ZM413.957 667.294C413.957 666.524 413.339 665.906 412.57 665.906C411.8 665.906 411.182 666.524 411.182 667.294C411.182 668.064 411.8 668.682 412.57 668.682C413.339 668.682 413.957 668.064 413.957 667.294ZM496.464 659.748C497.199 659.538 497.619 658.756 497.409 658.021C497.199 657.287 496.418 656.867 495.683 657.077C494.948 657.287 494.528 658.068 494.738 658.803C494.948 659.538 495.73 659.958 496.464 659.748ZM531.128 705.037C530.953 705.783 531.42 706.53 532.166 706.705C532.913 706.879 533.659 706.413 533.834 705.667C534.009 704.92 533.542 704.174 532.796 703.999C532.049 703.824 531.303 704.29 531.128 705.037ZM578.108 666.921C577.933 667.667 578.4 668.414 579.146 668.589C579.893 668.763 580.639 668.297 580.814 667.551C580.989 666.804 580.523 666.058 579.776 665.883C579.03 665.708 578.283 666.174 578.108 666.921ZM473.359 734.114C473.184 734.86 473.651 735.607 474.397 735.781C475.144 735.956 475.89 735.49 476.065 734.743C476.24 733.997 475.773 733.25 475.027 733.076C474.281 732.901 473.534 733.367 473.359 734.114ZM531.735 648.271C531.56 649.017 532.026 649.764 532.773 649.939C533.519 650.114 534.266 649.647 534.44 648.901C534.615 648.154 534.149 647.408 533.402 647.233C532.656 647.058 531.909 647.524 531.735 648.271ZM498.82 705.037C498.645 705.783 499.112 706.53 499.858 706.705C500.605 706.879 501.351 706.413 501.526 705.667C501.701 704.92 501.235 704.174 500.488 703.999C499.742 703.824 498.995 704.29 498.82 705.037ZM804.53 578.372C803.783 578.197 803.037 578.664 802.862 579.41C802.687 580.157 803.154 580.903 803.9 581.078C804.646 581.253 805.393 580.786 805.568 580.04C805.743 579.294 805.276 578.547 804.53 578.372ZM884.681 464.164C885.439 464.281 886.15 463.756 886.267 462.998C886.384 462.24 885.859 461.528 885.101 461.412C884.342 461.295 883.631 461.82 883.514 462.578C883.398 463.336 883.923 464.047 884.681 464.164ZM898.525 598.2C899.295 598.2 899.913 597.582 899.913 596.812C899.913 596.042 899.295 595.424 898.525 595.424C897.755 595.424 897.137 596.042 897.137 596.812C897.137 597.582 897.755 598.2 898.525 598.2ZM886.594 548.572C885.847 548.397 885.101 548.864 884.926 549.61C884.751 550.357 885.217 551.103 885.964 551.278C886.71 551.453 887.457 550.987 887.632 550.24C887.807 549.494 887.34 548.747 886.594 548.572ZM857.528 490.803C856.782 490.628 856.035 491.095 855.86 491.841C855.686 492.588 856.152 493.334 856.898 493.509C857.645 493.684 858.391 493.218 858.566 492.471C858.741 491.725 858.275 490.978 857.528 490.803ZM886.594 516.253C885.847 516.078 885.101 516.544 884.926 517.291C884.751 518.037 885.217 518.784 885.964 518.959C886.71 519.134 887.457 518.667 887.632 517.921C887.807 517.174 887.34 516.428 886.594 516.253ZM517.214 677.581C517.039 678.328 517.505 679.074 518.252 679.249C518.998 679.424 519.745 678.957 519.919 678.211C520.094 677.464 519.628 676.718 518.881 676.543C518.135 676.368 517.388 676.835 517.214 677.581ZM818.748 661.171C818.748 660.401 818.129 659.783 817.36 659.783C816.59 659.783 815.972 660.401 815.972 661.171C815.972 661.94 816.59 662.559 817.36 662.559C818.129 662.559 818.748 661.94 818.748 661.171ZM820.59 677.289C821.325 677.079 821.745 676.298 821.535 675.563C821.325 674.828 820.544 674.409 819.809 674.619C819.074 674.828 818.654 675.61 818.864 676.345C819.074 677.08 819.856 677.499 820.59 677.289ZM803.2 672.717C803.935 672.507 804.355 671.726 804.145 670.991C803.935 670.256 803.154 669.836 802.419 670.046C801.684 670.256 801.264 671.038 801.474 671.773C801.684 672.508 802.465 672.927 803.2 672.717ZM968.692 670.035C967.946 669.86 967.199 670.326 967.024 671.073C966.849 671.819 967.316 672.566 968.062 672.741C968.809 672.916 969.555 672.449 969.73 671.703C969.905 670.956 969.439 670.21 968.692 670.035ZM812.671 709.702C812.496 710.448 812.963 711.195 813.709 711.37C814.455 711.545 815.202 711.078 815.377 710.332C815.552 709.585 815.085 708.839 814.339 708.664C813.592 708.489 812.846 708.956 812.671 709.702ZM841.351 695.134C841.176 695.881 841.643 696.627 842.389 696.802C843.136 696.977 843.882 696.511 844.057 695.764C844.232 695.018 843.766 694.271 843.019 694.096C842.273 693.921 841.526 694.388 841.351 695.134ZM67.5661 673.849C67.5661 673.079 66.9479 672.461 66.1781 672.461C65.4084 672.461 64.7902 673.079 64.7902 673.849C64.7902 674.619 65.4084 675.237 66.1781 675.237C66.9479 675.237 67.5661 674.619 67.5661 673.849ZM42.1515 647.011C42.1515 646.241 41.5334 645.623 40.7636 645.623C39.9938 645.623 39.3756 646.241 39.3756 647.011C39.3756 647.781 39.9938 648.399 40.7636 648.399C41.5334 648.399 42.1515 647.781 42.1515 647.011ZM2.77589 652.89C2.77589 652.12 2.15773 651.502 1.38794 651.502C0.618159 651.502 0 652.12 0 652.89C0 653.659 0.618159 654.278 1.38794 654.278C2.15773 654.278 2.77589 653.659 2.77589 652.89ZM61.1396 732.959C61.2562 732.201 60.7313 731.489 59.9732 731.373C59.2151 731.256 58.5036 731.781 58.387 732.539C58.2704 733.297 58.7952 734.009 59.5533 734.125C60.3115 734.242 61.0229 733.717 61.1396 732.959ZM961.636 21.2115C962.406 21.2115 963.024 20.5933 963.024 19.8235C963.024 19.0537 962.406 18.4356 961.636 18.4356C960.866 18.4356 960.248 19.0537 960.248 19.8235C960.248 20.5933 960.866 21.2115 961.636 21.2115ZM80.1509 697.63C80.1509 696.861 79.5327 696.242 78.763 696.242C77.9932 696.242 77.375 696.861 77.375 697.63C77.375 698.4 77.9932 699.018 78.763 699.018C79.5327 699.018 80.1509 698.4 80.1509 697.63ZM26.3943 723.581C26.3943 722.812 25.7761 722.194 25.0063 722.194C24.2365 722.194 23.6184 722.812 23.6184 723.581C23.6184 724.351 24.2365 724.969 25.0063 724.969C25.7761 724.969 26.3943 724.351 26.3943 723.581ZM124.658 687.297C125.393 687.087 125.813 686.305 125.603 685.57C125.393 684.836 124.612 684.416 123.877 684.626C123.142 684.836 122.722 685.617 122.932 686.352C123.142 687.087 123.924 687.507 124.658 687.297ZM107.268 682.725C108.003 682.515 108.423 681.733 108.213 680.998C108.003 680.264 107.222 679.844 106.487 680.054C105.752 680.264 105.332 681.045 105.542 681.78C105.752 682.515 106.534 682.935 107.268 682.725ZM99.4655 656.039C100.2 655.829 100.62 655.047 100.41 654.313C100.2 653.578 99.4188 653.158 98.6841 653.368C97.9493 653.578 97.5294 654.359 97.7393 655.094C97.9492 655.829 98.7307 656.249 99.4655 656.039ZM61.1862 608.242C61.1862 607.472 60.568 606.854 59.7983 606.854C59.0285 606.854 58.4103 607.472 58.4103 608.242C58.4103 609.012 59.0285 609.63 59.7983 609.63C60.568 609.63 61.1862 609.012 61.1862 608.242ZM125.522 631.686C126.256 631.476 126.676 630.694 126.466 629.959C126.256 629.225 125.475 628.805 124.74 629.015C124.005 629.225 123.585 630.006 123.795 630.741C124.005 631.476 124.787 631.896 125.522 631.686ZM91.616 583.457C92.3508 583.247 92.7707 582.466 92.5608 581.731C92.3508 580.996 91.5694 580.577 90.8346 580.786C90.0998 580.996 89.6799 581.778 89.8898 582.513C90.0998 583.247 90.8812 583.667 91.616 583.457ZM963.479 148.797C963.035 149.427 963.187 150.29 963.817 150.734C964.447 151.177 965.31 151.025 965.753 150.395C966.196 149.765 966.045 148.902 965.415 148.459C964.785 148.016 963.922 148.168 963.479 148.797ZM951.675 146.022C951.232 146.651 951.384 147.514 952.014 147.958C952.643 148.401 953.506 148.249 953.95 147.619C954.393 146.99 954.241 146.126 953.611 145.683C952.982 145.24 952.119 145.392 951.675 146.022ZM122.781 748.961C122.606 749.708 123.072 750.454 123.819 750.629C124.565 750.804 125.312 750.337 125.487 749.591C125.661 748.844 125.195 748.098 124.449 747.923C123.702 747.748 122.956 748.215 122.781 748.961ZM127.014 732.574C126.839 733.32 127.306 734.067 128.052 734.242C128.799 734.417 129.545 733.95 129.72 733.204C129.895 732.457 129.429 731.711 128.682 731.536C127.936 731.361 127.189 731.828 127.014 732.574ZM145.419 705.13C145.244 705.876 145.711 706.623 146.457 706.798C147.204 706.973 147.95 706.506 148.125 705.76C148.3 705.013 147.834 704.267 147.087 704.092C146.341 703.917 145.594 704.384 145.419 705.13ZM945.517 53.3558C945.727 54.0906 946.508 54.5105 947.243 54.3005C947.978 54.0906 948.398 53.3091 948.188 52.5743C947.978 51.8395 947.197 51.4197 946.462 51.6296C945.727 51.8395 945.307 52.621 945.517 53.3558ZM950.089 5.66414C950.299 6.39893 951.081 6.81881 951.815 6.60887C952.55 6.39893 952.97 5.61748 952.76 4.88269C952.55 4.1479 951.769 3.72801 951.034 3.93796C950.299 4.1479 949.879 4.92934 950.089 5.66414ZM904.555 106.273C905.325 106.273 905.943 105.654 905.943 104.885C905.943 104.115 905.325 103.497 904.555 103.497C903.785 103.497 903.167 104.115 903.167 104.885C903.167 105.654 903.785 106.273 904.555 106.273ZM878.534 12.5222C877.788 12.3473 877.041 12.8138 876.866 13.5603C876.691 14.3067 877.158 15.0532 877.904 15.2281C878.651 15.4031 879.397 14.9365 879.572 14.1901C879.747 13.4436 879.281 12.6972 878.534 12.5222ZM925.491 97.6067C924.745 97.4318 923.998 97.8983 923.823 98.6448C923.648 99.3912 924.115 100.138 924.861 100.313C925.608 100.488 926.354 100.021 926.529 99.2746C926.704 98.5281 926.237 97.7817 925.491 97.6067ZM900.24 25.4103C899.493 25.2353 898.747 25.7019 898.572 26.4483C898.397 27.1948 898.863 27.9412 899.61 28.1162C900.356 28.2911 901.103 27.8246 901.278 27.0781C901.453 26.3317 900.986 25.5852 900.24 25.4103ZM427.487 366.157C427.93 366.786 428.793 366.938 429.423 366.495C430.053 366.052 430.205 365.188 429.761 364.559C429.318 363.929 428.455 363.777 427.825 364.22C427.195 364.664 427.044 365.527 427.487 366.157ZM426.251 348.218C426.694 348.848 427.557 349 428.187 348.556C428.817 348.113 428.968 347.25 428.525 346.62C428.082 345.991 427.219 345.839 426.589 346.282C425.959 346.725 425.808 347.588 426.251 348.218ZM404.627 309.577C405.07 310.207 405.933 310.359 406.563 309.916C407.193 309.472 407.344 308.609 406.901 307.979C406.458 307.35 405.595 307.198 404.965 307.641C404.335 308.085 404.184 308.948 404.627 309.577ZM437.961 456.058C438.299 456.746 439.139 457.026 439.827 456.688C440.515 456.35 440.795 455.51 440.457 454.822C440.119 454.134 439.279 453.854 438.591 454.192C437.902 454.53 437.623 455.37 437.961 456.058ZM442.218 423.354C442.661 423.984 443.524 424.135 444.154 423.692C444.784 423.249 444.935 422.386 444.492 421.756C444.049 421.126 443.186 420.975 442.556 421.418C441.926 421.861 441.775 422.724 442.218 423.354ZM371.456 382.019C371.899 382.649 372.762 382.8 373.392 382.357C374.022 381.914 374.174 381.051 373.73 380.421C373.287 379.791 372.424 379.639 371.794 380.083C371.164 380.526 371.013 381.389 371.456 382.019ZM471.796 443.8C472.24 444.43 473.103 444.581 473.732 444.138C474.362 443.695 474.514 442.832 474.071 442.202C473.627 441.572 472.764 441.42 472.135 441.864C471.505 442.307 471.353 443.17 471.796 443.8ZM441.483 339.249C441.926 339.879 442.789 340.031 443.419 339.587C444.049 339.144 444.201 338.281 443.757 337.651C443.314 337.021 442.451 336.87 441.821 337.313C441.192 337.756 441.04 338.619 441.483 339.249ZM387.12 470.556C386.642 471.151 386.735 472.025 387.33 472.515C387.925 472.993 388.8 472.9 389.289 472.305C389.768 471.71 389.674 470.836 389.079 470.346C388.485 469.868 387.61 469.961 387.12 470.556ZM428.945 523.624C428.467 524.219 428.56 525.094 429.155 525.584C429.75 526.062 430.624 525.969 431.114 525.374C431.593 524.779 431.499 523.904 430.904 523.414C430.31 522.936 429.435 523.029 428.945 523.624ZM450.639 541.014C450.161 541.609 450.254 542.484 450.849 542.974C451.444 543.452 452.318 543.359 452.808 542.764C453.286 542.169 453.193 541.294 452.598 540.804C452.004 540.326 451.129 540.419 450.639 541.014ZM335.171 470.754C334.401 470.754 333.783 471.372 333.783 472.142C333.783 472.912 334.401 473.53 335.171 473.53C335.941 473.53 336.559 472.912 336.559 472.142C336.559 471.372 335.941 470.754 335.171 470.754ZM343.884 522.586C343.604 521.875 342.787 521.525 342.076 521.805C341.364 522.085 341.015 522.901 341.294 523.612C341.574 524.324 342.391 524.674 343.102 524.394C343.814 524.114 344.164 523.298 343.884 522.586ZM389.558 571.409C389.383 570.663 388.636 570.196 387.89 570.371C387.143 570.546 386.677 571.292 386.852 572.039C387.027 572.785 387.773 573.252 388.52 573.077C389.266 572.902 389.733 572.156 389.558 571.409ZM375.27 559.909C374.99 559.197 374.174 558.848 373.462 559.128C372.751 559.407 372.401 560.224 372.681 560.935C372.961 561.647 373.777 561.997 374.489 561.717C375.2 561.437 375.55 560.62 375.27 559.909ZM951.78 215.594C951.034 215.419 950.287 215.885 950.112 216.632C949.938 217.378 950.404 218.125 951.15 218.3C951.897 218.475 952.643 218.008 952.818 217.262C952.993 216.515 952.527 215.769 951.78 215.594ZM222.759 746.908C222.584 747.655 223.051 748.401 223.797 748.576C224.544 748.751 225.29 748.285 225.465 747.538C225.64 746.792 225.174 746.045 224.427 745.87C223.681 745.695 222.934 746.162 222.759 746.908ZM254.67 715.091C254.495 714.344 253.749 713.878 253.003 714.052C252.256 714.227 251.79 714.974 251.964 715.72C252.139 716.467 252.886 716.933 253.632 716.758C254.379 716.583 254.845 715.837 254.67 715.091ZM240.383 703.59C240.103 702.879 239.286 702.529 238.575 702.809C237.863 703.089 237.514 703.905 237.793 704.617C238.073 705.328 238.89 705.678 239.601 705.398C240.313 705.118 240.663 704.302 240.383 703.59ZM863.733 208.631C864.503 208.631 865.121 208.012 865.121 207.243C865.121 206.473 864.503 205.855 863.733 205.855C862.963 205.855 862.345 206.473 862.345 207.243C862.345 208.012 862.963 208.631 863.733 208.631ZM920.126 179.006C920.896 179.006 921.514 178.387 921.514 177.618C921.514 176.848 920.896 176.23 920.126 176.23C919.356 176.23 918.738 176.848 918.738 177.618C918.738 178.387 919.356 179.006 920.126 179.006ZM875.7 144.727C875.257 145.357 875.408 146.22 876.038 146.663C876.668 147.106 877.531 146.955 877.974 146.325C878.418 145.695 878.266 144.832 877.636 144.389C877.006 143.945 876.143 144.097 875.7 144.727ZM871.058 83.9022C870.311 83.7273 869.565 84.1938 869.39 84.9403C869.215 85.6867 869.682 86.4332 870.428 86.6081C871.175 86.7831 871.921 86.3166 872.096 85.5701C872.271 84.8236 871.804 84.0772 871.058 83.9022ZM883.818 180.359C884.564 180.184 885.031 179.437 884.856 178.691C884.681 177.944 883.934 177.478 883.188 177.653C882.441 177.828 881.975 178.574 882.15 179.321C882.325 180.067 883.071 180.534 883.818 180.359ZM860.293 181.91C861.004 181.63 861.354 180.813 861.074 180.102C860.794 179.39 859.978 179.041 859.266 179.321C858.555 179.6 858.205 180.417 858.485 181.128C858.765 181.84 859.581 182.19 860.293 181.91ZM132.275 164.088C132.415 163.33 131.925 162.607 131.167 162.467C130.408 162.327 129.685 162.817 129.545 163.575C129.405 164.333 129.895 165.056 130.653 165.196C131.412 165.336 132.135 164.846 132.275 164.088ZM66.9246 297.902C66.9246 297.133 66.3064 296.514 65.5367 296.514C64.7669 296.514 64.1487 297.133 64.1487 297.902C64.1487 298.672 64.7669 299.29 65.5367 299.29C66.3064 299.29 66.9246 298.672 66.9246 297.902ZM76.7918 250.187C76.7918 249.418 76.1737 248.799 75.4039 248.799C74.6341 248.799 74.016 249.418 74.016 250.187C74.016 250.957 74.6341 251.575 75.4039 251.575C76.1737 251.575 76.7918 250.957 76.7918 250.187ZM54.4098 264.183C54.4098 263.414 53.7916 262.795 53.0218 262.795C52.252 262.795 51.6339 263.414 51.6339 264.183C51.6339 264.953 52.252 265.571 53.0218 265.571C53.7916 265.571 54.4098 264.953 54.4098 264.183ZM54.4798 312.843C54.3048 312.097 53.5583 311.63 52.8119 311.805C52.0654 311.98 51.5989 312.727 51.7738 313.473C51.9488 314.219 52.6953 314.686 53.4417 314.511C54.1882 314.336 54.6547 313.59 54.4798 312.843ZM40.1921 301.343C39.9122 300.632 39.0957 300.282 38.3843 300.562C37.6728 300.841 37.3229 301.658 37.6028 302.369C37.8827 303.081 38.6992 303.431 39.4106 303.151C40.1221 302.871 40.472 302.054 40.1921 301.343ZM332.255 535.346C331.975 534.634 331.159 534.284 330.448 534.564C329.736 534.844 329.386 535.661 329.666 536.372C329.946 537.084 330.762 537.434 331.474 537.154C332.185 536.874 332.535 536.057 332.255 535.346ZM378.244 478.277C377.964 477.565 377.148 477.215 376.436 477.495C375.725 477.775 375.375 478.592 375.655 479.303C375.935 480.015 376.751 480.365 377.463 480.085C378.174 479.805 378.524 478.988 378.244 478.277ZM389.476 479.665C389.196 478.953 388.38 478.603 387.668 478.883C386.957 479.163 386.607 479.98 386.887 480.691C387.167 481.403 387.983 481.753 388.695 481.473C389.406 481.193 389.756 480.376 389.476 479.665ZM317.513 506.082C317.338 505.336 316.591 504.869 315.845 505.044C315.099 505.219 314.632 505.966 314.807 506.712C314.982 507.459 315.728 507.925 316.475 507.75C317.221 507.575 317.688 506.829 317.513 506.082ZM339.72 540.501C339.44 539.79 338.624 539.44 337.912 539.72C337.201 540 336.851 540.816 337.131 541.527C337.411 542.239 338.227 542.589 338.938 542.309C339.65 542.029 340 541.213 339.72 540.501ZM680.525 272.068C680.245 271.356 679.428 271.007 678.717 271.286C678.005 271.566 677.655 272.383 677.935 273.094C678.215 273.806 679.032 274.156 679.743 273.876C680.455 273.596 680.805 272.779 680.525 272.068ZM613.74 301.775C613.565 301.028 612.819 300.562 612.072 300.737C611.326 300.911 610.859 301.658 611.034 302.404C611.209 303.151 611.955 303.617 612.702 303.442C613.448 303.267 613.915 302.521 613.74 301.775ZM602.007 266.201C601.727 265.49 600.91 265.14 600.199 265.42C599.487 265.7 599.137 266.516 599.417 267.228C599.697 267.939 600.514 268.289 601.225 268.009C601.937 267.729 602.286 266.913 602.007 266.201ZM854.169 404.296C854.799 404.739 855.662 404.587 856.105 403.958C856.549 403.328 856.397 402.465 855.767 402.022C855.137 401.578 854.274 401.73 853.831 402.36C853.388 402.99 853.539 403.853 854.169 404.296ZM648.299 26.7282C648.928 27.1714 649.791 27.0198 650.235 26.39C650.678 25.7602 650.526 24.8971 649.896 24.4539C649.267 24.0107 648.404 24.1623 647.96 24.7921C647.517 25.4219 647.669 26.285 648.299 26.7282ZM850.775 296.538C850.6 295.791 849.854 295.325 849.107 295.5C848.361 295.675 847.894 296.421 848.069 297.168C848.244 297.914 848.991 298.381 849.737 298.206C850.484 298.031 850.95 297.284 850.775 296.538ZM854.881 287.627C854.601 286.915 853.784 286.565 853.073 286.845C852.361 287.125 852.012 287.942 852.291 288.653C852.571 289.365 853.388 289.715 854.099 289.435C854.811 289.155 855.161 288.338 854.881 287.627ZM589.352 259.226C589.072 258.515 588.255 258.165 587.544 258.445C586.832 258.725 586.483 259.541 586.762 260.253C587.042 260.964 587.859 261.314 588.57 261.034C589.282 260.754 589.632 259.938 589.352 259.226ZM616.201 216.62C615.921 215.909 615.105 215.559 614.393 215.839C613.682 216.119 613.332 216.935 613.612 217.646C613.892 218.358 614.708 218.708 615.419 218.428C616.131 218.148 616.481 217.332 616.201 216.62ZM572.428 222.498C572.253 221.752 571.507 221.285 570.76 221.46C570.014 221.635 569.547 222.382 569.722 223.128C569.897 223.875 570.644 224.341 571.39 224.166C572.137 223.991 572.603 223.245 572.428 222.498ZM660.895 297.377C660.615 296.666 659.799 296.316 659.087 296.596C658.376 296.876 658.026 297.692 658.306 298.404C658.586 299.115 659.402 299.465 660.114 299.185C660.825 298.905 661.175 298.089 660.895 297.377ZM634.279 83.3424C635.014 83.1324 635.434 82.351 635.224 81.6162C635.014 80.8814 634.233 80.4615 633.498 80.6715C632.763 80.8814 632.343 81.6629 632.553 82.3977C632.763 83.1324 633.544 83.5523 634.279 83.3424ZM205.334 113.691C206.104 113.714 206.745 113.107 206.769 112.338C206.792 111.568 206.186 110.926 205.416 110.903C204.646 110.88 204.005 111.486 203.981 112.256C203.958 113.026 204.564 113.667 205.334 113.691ZM602.916 56.5866C603.686 56.6099 604.328 56.0034 604.351 55.2336C604.374 54.4638 603.768 53.8223 602.998 53.799C602.228 53.7757 601.587 54.3822 601.563 55.152C601.54 55.9217 602.146 56.5632 602.916 56.5866ZM383.656 38.2983C384.426 38.3217 385.067 37.7152 385.091 36.9454C385.114 36.1756 384.507 35.5341 383.738 35.5108C382.968 35.4875 382.326 36.094 382.303 36.8637C382.28 37.6335 382.886 38.275 383.656 38.2983ZM649.943 113.177C649.663 112.466 648.847 112.116 648.135 112.396C647.424 112.676 647.074 113.492 647.354 114.204C647.634 114.915 648.45 115.265 649.162 114.985C649.873 114.705 650.223 113.889 649.943 113.177ZM649.57 137.262C649.29 136.551 648.474 136.201 647.762 136.481C647.051 136.761 646.701 137.577 646.981 138.289C647.26 139 648.077 139.35 648.788 139.07C649.5 138.79 649.85 137.974 649.57 137.262ZM676.419 94.6559C676.139 93.9444 675.323 93.5945 674.611 93.8744C673.9 94.1544 673.55 94.9708 673.83 95.6823C674.11 96.3937 674.926 96.7436 675.638 96.4637C676.349 96.1838 676.699 95.3674 676.419 94.6559ZM632.646 100.534C632.471 99.7878 631.725 99.3213 630.978 99.4962C630.232 99.6712 629.766 100.418 629.94 101.164C630.115 101.911 630.862 102.377 631.608 102.202C632.355 102.027 632.821 101.281 632.646 100.534ZM677.072 127.698C676.792 126.987 675.976 126.637 675.264 126.917C674.553 127.197 674.203 128.013 674.483 128.725C674.763 129.436 675.579 129.786 676.291 129.506C677.002 129.226 677.352 128.41 677.072 127.698ZM819.039 298.241C819.809 298.264 820.45 297.657 820.474 296.888C820.497 296.118 819.891 295.476 819.121 295.453C818.351 295.43 817.709 296.036 817.686 296.806C817.663 297.576 818.269 298.217 819.039 298.241ZM817.651 265.571C818.421 265.595 819.062 264.988 819.086 264.218C819.109 263.449 818.503 262.807 817.733 262.784C816.963 262.76 816.322 263.367 816.298 264.137C816.275 264.907 816.881 265.548 817.651 265.571ZM849.247 180.499C850.017 180.522 850.659 179.915 850.682 179.146C850.705 178.376 850.099 177.734 849.329 177.711C848.559 177.688 847.918 178.294 847.894 179.064C847.871 179.834 848.478 180.475 849.247 180.499ZM820.427 174.294C821.197 174.317 821.838 173.71 821.862 172.941C821.885 172.171 821.278 171.529 820.509 171.506C819.739 171.483 819.097 172.089 819.074 172.859C819.051 173.629 819.657 174.27 820.427 174.294ZM831.251 189.106C830.971 188.395 830.154 188.045 829.443 188.325C828.731 188.605 828.382 189.421 828.661 190.132C828.941 190.844 829.758 191.194 830.469 190.914C831.181 190.634 831.531 189.818 831.251 189.106ZM260.817 175.192C261.587 175.215 262.228 174.609 262.252 173.839C262.275 173.069 261.668 172.427 260.899 172.404C260.129 172.381 259.487 172.987 259.464 173.757C259.441 174.527 260.047 175.168 260.817 175.192ZM246.693 153.871C247.462 153.894 248.104 153.288 248.127 152.518C248.151 151.748 247.544 151.107 246.774 151.083C246.004 151.06 245.363 151.667 245.34 152.436C245.316 153.206 245.923 153.848 246.693 153.871ZM226.865 198.122C227.623 198.262 228.346 197.76 228.486 197.002C228.626 196.244 228.124 195.521 227.366 195.381C226.608 195.241 225.885 195.743 225.745 196.501C225.605 197.259 226.107 197.982 226.865 198.122ZM203.176 175.192C203.946 175.215 204.588 174.609 204.611 173.839C204.634 173.069 204.028 172.427 203.258 172.404C202.488 172.381 201.847 172.987 201.824 173.757C201.8 174.527 202.407 175.168 203.176 175.192ZM201.789 200.933C202.558 200.956 203.2 200.35 203.223 199.58C203.246 198.81 202.64 198.169 201.87 198.145C201.1 198.122 200.459 198.728 200.436 199.498C200.412 200.268 201.019 200.909 201.789 200.933ZM157.771 322.57C158.541 322.594 159.182 321.987 159.205 321.217C159.229 320.448 158.622 319.806 157.852 319.783C157.083 319.76 156.441 320.366 156.418 321.136C156.395 321.906 157.001 322.547 157.771 322.57ZM178.158 392.691C178.917 392.831 179.64 392.329 179.78 391.571C179.92 390.813 179.418 390.09 178.66 389.95C177.902 389.81 177.179 390.311 177.039 391.07C176.899 391.828 177.4 392.551 178.158 392.691ZM122.314 369.761C123.084 369.784 123.725 369.177 123.749 368.408C123.772 367.638 123.166 366.996 122.396 366.973C121.626 366.95 120.984 367.556 120.961 368.326C120.938 369.096 121.544 369.737 122.314 369.761ZM176.98 335.925C177.75 335.948 178.392 335.342 178.415 334.572C178.438 333.802 177.832 333.161 177.062 333.137C176.292 333.114 175.651 333.721 175.628 334.49C175.604 335.26 176.211 335.902 176.98 335.925ZM156.383 358.237C157.153 358.26 157.794 357.654 157.817 356.884C157.841 356.114 157.234 355.473 156.465 355.45C155.695 355.426 155.053 356.033 155.03 356.803C155.007 357.572 155.613 358.214 156.383 358.237ZM219.109 418.444C219.878 418.467 220.52 417.86 220.543 417.091C220.567 416.321 219.96 415.679 219.19 415.656C218.421 415.633 217.779 416.239 217.756 417.009C217.732 417.779 218.339 418.42 219.109 418.444ZM175.593 439.764C176.362 439.788 177.004 439.181 177.027 438.411C177.05 437.642 176.444 437 175.674 436.977C174.904 436.953 174.263 437.56 174.24 438.33C174.216 439.099 174.823 439.741 175.593 439.764ZM132.473 429.64C133.243 429.664 133.884 429.057 133.908 428.288C133.931 427.518 133.324 426.876 132.555 426.853C131.785 426.83 131.143 427.436 131.12 428.206C131.097 428.976 131.703 429.617 132.473 429.64ZM187.139 366.973C187.909 366.996 188.551 366.39 188.574 365.62C188.597 364.85 187.991 364.209 187.221 364.185C186.451 364.162 185.81 364.769 185.786 365.538C185.763 366.308 186.369 366.95 187.139 366.973ZM560.858 83.2141C561.628 83.2374 562.269 82.6309 562.293 81.8611C562.316 81.0914 561.709 80.4499 560.94 80.4265C560.17 80.4032 559.528 81.0097 559.505 81.7795C559.482 82.5493 560.088 83.1908 560.858 83.2141ZM531.735 98.1666C532.504 98.1899 533.146 97.5834 533.169 96.8136C533.192 96.0438 532.586 95.4023 531.816 95.379C531.046 95.3557 530.405 95.9622 530.382 96.732C530.358 97.5018 530.965 98.1432 531.735 98.1666ZM495.496 175.973C496.254 176.113 496.978 175.612 497.118 174.853C497.257 174.095 496.756 173.372 495.998 173.232C495.24 173.092 494.517 173.594 494.377 174.352C494.237 175.11 494.738 175.833 495.496 175.973ZM194.277 263.868C195.012 263.659 195.432 262.877 195.222 262.142C195.012 261.408 194.231 260.988 193.496 261.198C192.761 261.408 192.341 262.189 192.551 262.924C192.761 263.659 193.542 264.078 194.277 263.868ZM318.423 89.4074C319.157 89.1974 319.577 88.416 319.367 87.6812C319.157 86.9464 318.376 86.5265 317.641 86.7364C316.906 86.9464 316.486 87.7278 316.696 88.4626C316.906 89.1974 317.688 89.6173 318.423 89.4074ZM319.811 66.2438C320.545 66.0339 320.965 65.2525 320.755 64.5177C320.545 63.7829 319.764 63.363 319.029 63.5729C318.294 63.7829 317.874 64.5643 318.084 65.2991C318.306 66.0339 319.076 66.4538 319.811 66.2438ZM290.617 91.7517C291.352 91.5418 291.772 90.7603 291.562 90.0255C291.352 89.2907 290.57 88.8708 289.836 89.0808C289.101 89.2907 288.681 90.0722 288.891 90.807C289.101 91.5418 289.882 91.9616 290.617 91.7517ZM143.402 262.481C144.136 262.271 144.556 261.489 144.346 260.754C144.136 260.02 143.355 259.6 142.62 259.81C141.885 260.02 141.465 260.801 141.675 261.536C141.885 262.271 142.667 262.69 143.402 262.481ZM234.878 258.41C234.598 257.699 233.781 257.349 233.07 257.629C232.358 257.909 232.008 258.725 232.288 259.436C232.568 260.148 233.385 260.498 234.096 260.218C234.808 259.938 235.158 259.121 234.878 258.41ZM261.354 239.889C261.074 239.177 260.257 238.827 259.546 239.107C258.834 239.387 258.484 240.203 258.764 240.915C259.044 241.626 259.861 241.976 260.572 241.696C261.284 241.416 261.633 240.6 261.354 239.889ZM217.581 245.767C217.406 245.02 216.659 244.554 215.913 244.729C215.166 244.904 214.7 245.65 214.875 246.397C215.05 247.143 215.796 247.61 216.543 247.435C217.289 247.26 217.756 246.513 217.581 245.767ZM525.53 128.666C526.299 128.69 526.941 128.083 526.964 127.313C526.987 126.544 526.381 125.902 525.611 125.879C524.841 125.855 524.2 126.462 524.177 127.232C524.153 128.002 524.76 128.643 525.53 128.666ZM501.153 85.6634C501.923 85.6867 502.564 85.0802 502.588 84.3104C502.611 83.5407 502.004 82.8992 501.235 82.8759C500.465 82.8525 499.823 83.459 499.8 84.2288C499.777 84.9986 500.383 85.6401 501.153 85.6634ZM599.312 163.832C600.082 163.855 600.724 163.248 600.747 162.479C600.77 161.709 600.164 161.067 599.394 161.044C598.624 161.021 597.983 161.627 597.959 162.397C597.936 163.167 598.543 163.808 599.312 163.832ZM594.39 120.455C595.148 120.595 595.872 120.094 596.012 119.336C596.151 118.578 595.65 117.854 594.892 117.714C594.134 117.574 593.411 118.076 593.271 118.834C593.131 119.592 593.632 120.315 594.39 120.455ZM482.433 88.346C483.203 88.3693 483.845 87.7628 483.868 86.993C483.891 86.2233 483.285 85.5818 482.515 85.5584C481.745 85.5351 481.104 86.1416 481.08 86.9114C481.057 87.6812 481.664 88.3227 482.433 88.346ZM274.941 43.4885C275.711 43.5119 276.353 42.9054 276.376 42.1356C276.399 41.3658 275.793 40.7243 275.023 40.701C274.253 40.6777 273.612 41.2842 273.588 42.054C273.565 42.8237 274.172 43.4652 274.941 43.4885ZM195.245 84.6137C196.015 84.637 196.657 84.0305 196.68 83.2607C196.703 82.491 196.097 81.8495 195.327 81.8261C194.557 81.8028 193.916 82.4093 193.892 83.1791C193.869 83.9489 194.476 84.5904 195.245 84.6137ZM217.394 25.4219C218.164 25.4453 218.805 24.8388 218.829 24.069C218.852 23.2992 218.246 22.6577 217.476 22.6344C216.706 22.6111 216.065 23.2176 216.041 23.9873C216.018 24.7571 216.624 25.3986 217.394 25.4219ZM551.831 150.454C552.6 150.477 553.242 149.87 553.265 149.101C553.288 148.331 552.682 147.689 551.912 147.666C551.142 147.643 550.501 148.249 550.478 149.019C550.454 149.789 551.061 150.43 551.831 150.454ZM484.229 140.015C484.999 140.038 485.641 139.432 485.664 138.662C485.687 137.892 485.081 137.251 484.311 137.227C483.541 137.204 482.9 137.81 482.877 138.58C482.853 139.35 483.46 139.992 484.229 140.015ZM444.597 112.886C445.367 112.909 446.009 112.303 446.032 111.533C446.055 110.763 445.449 110.122 444.679 110.098C443.909 110.075 443.268 110.681 443.244 111.451C443.221 112.221 443.827 112.862 444.597 112.886ZM394.888 102.762C395.658 102.785 396.299 102.179 396.322 101.409C396.346 100.639 395.739 99.9977 394.969 99.9744C394.2 99.9511 393.558 100.558 393.535 101.327C393.512 102.097 394.118 102.739 394.888 102.762ZM457.614 162.968C458.383 162.992 459.025 162.385 459.048 161.615C459.072 160.846 458.465 160.204 457.695 160.181C456.925 160.158 456.284 160.764 456.261 161.534C456.237 162.304 456.844 162.945 457.614 162.968ZM665.175 514.305C665.175 512.766 663.927 511.529 662.4 511.529C660.872 511.529 659.624 512.777 659.624 514.305C659.624 515.833 660.872 517.081 662.4 517.081C663.927 517.081 665.175 515.833 665.175 514.305ZM529.845 473.367C529.845 471.827 528.597 470.591 527.069 470.591C525.541 470.591 524.293 471.839 524.293 473.367C524.293 474.894 525.541 476.142 527.069 476.142C528.597 476.142 529.845 474.894 529.845 473.367ZM535.945 247.47C535.945 245.93 534.697 244.694 533.169 244.694C531.641 244.694 530.393 245.942 530.393 247.47C530.393 248.998 531.641 250.246 533.169 250.246C534.697 250.246 535.945 248.998 535.945 247.47ZM426.029 255.704C426.029 254.165 424.781 252.928 423.253 252.928C421.725 252.928 420.477 254.176 420.477 255.704C420.477 257.232 421.725 258.48 423.253 258.48C424.781 258.48 426.029 257.232 426.029 255.704ZM339.825 136.131C339.825 134.591 338.577 133.355 337.049 133.355C335.521 133.355 334.273 134.603 334.273 136.131C334.273 137.659 335.521 138.907 337.049 138.907C338.577 138.907 339.825 137.659 339.825 136.131ZM97.6343 186.237C98.4041 186.26 99.0456 185.654 99.0689 184.884C99.0923 184.114 98.4858 183.473 97.716 183.449C96.9462 183.426 96.3047 184.033 96.2814 184.802C96.2581 185.572 96.8645 186.214 97.6343 186.237ZM132.508 130.964C133.278 130.987 133.919 130.381 133.943 129.611C133.966 128.841 133.359 128.2 132.59 128.176C131.82 128.153 131.178 128.76 131.155 129.529C131.132 130.299 131.738 130.941 132.508 130.964ZM138.141 25.8535C138.911 25.8768 139.553 25.2703 139.576 24.5005C139.599 23.7307 138.993 23.0893 138.223 23.0659C137.453 23.0426 136.812 23.6491 136.788 24.4189C136.765 25.1887 137.372 25.8302 138.141 25.8535ZM44.5659 123.231C45.3356 123.255 45.9771 122.648 46.0005 121.878C46.0238 121.108 45.4173 120.467 44.6475 120.444C43.8777 120.42 43.2362 121.027 43.2129 121.797C43.1896 122.566 43.7961 123.208 44.5659 123.231ZM19.7811 73.6384C20.5509 73.6618 21.1924 73.0553 21.2157 72.2855C21.2391 71.5157 20.6326 70.8742 19.8628 70.8509C19.093 70.8276 18.4515 71.4341 18.4282 72.2038C18.4048 72.9736 19.0113 73.6151 19.7811 73.6384ZM26.8375 137.624C27.6073 137.647 28.2488 137.041 28.2721 136.271C28.2954 135.501 27.6889 134.86 26.9191 134.836C26.1493 134.813 25.5079 135.419 25.4845 136.189C25.4612 136.959 26.0677 137.601 26.8375 137.624ZM102.125 24.4072C102.86 24.1973 103.279 23.4158 103.069 22.681C102.86 21.9462 102.078 21.5264 101.343 21.7363C100.609 21.9462 100.189 22.7277 100.399 23.4625C100.609 24.1973 101.39 24.6172 102.125 24.4072ZM74.3192 26.7399C75.054 26.53 75.4739 25.7485 75.2639 25.0137C75.054 24.2789 74.2725 23.859 73.5378 24.069C72.803 24.2789 72.3831 25.0604 72.593 25.7952C72.803 26.53 73.5844 26.9498 74.3192 26.7399ZM123.539 84.1588C123.539 82.6193 122.291 81.3829 120.763 81.3829C119.235 81.3829 117.987 82.6309 117.987 84.1588C117.987 85.6867 119.235 86.9347 120.763 86.9347C122.291 86.9347 123.539 85.6867 123.539 84.1588ZM761.888 175.996C761.888 174.457 760.641 173.221 759.113 173.221C757.585 173.221 756.337 174.469 756.337 175.996C756.337 177.524 757.585 178.772 759.113 178.772C760.641 178.772 761.888 177.524 761.888 175.996ZM149.956 153.859C149.956 152.32 148.708 151.083 147.18 151.083C145.653 151.083 144.405 152.331 144.405 153.859C144.405 155.387 145.653 156.635 147.18 156.635C148.708 156.635 149.956 155.387 149.956 153.859ZM645.896 381.226C645.896 379.686 644.648 378.45 643.12 378.45C641.592 378.45 640.344 379.698 640.344 381.226C640.344 382.754 641.592 384.002 643.12 384.002C644.648 384.002 645.896 382.754 645.896 381.226ZM350.94 682.06C350.94 680.52 349.692 679.284 348.164 679.284C346.636 679.284 345.388 680.532 345.388 682.06C345.388 683.588 346.636 684.836 348.164 684.836C349.692 684.836 350.94 683.588 350.94 682.06ZM929.34 522.329C930.879 522.329 932.116 521.082 932.116 519.554C932.116 518.026 930.868 516.778 929.34 516.778C927.812 516.778 926.564 518.026 926.564 519.554C926.564 521.082 927.812 522.329 929.34 522.329ZM328.313 245.65C328.313 243.306 326.412 241.405 324.068 241.405C321.723 241.405 319.822 243.306 319.822 245.65C319.822 247.995 321.723 249.896 324.068 249.896C326.412 249.896 328.313 247.995 328.313 245.65ZM463.107 232.984C463.107 231.444 461.859 230.208 460.331 230.208C458.803 230.208 457.555 231.456 457.555 232.984C457.555 234.512 458.803 235.76 460.331 235.76C461.859 235.76 463.107 234.512 463.107 232.984ZM595.51 481.566C595.51 480.026 594.262 478.79 592.734 478.79C591.206 478.79 589.958 480.038 589.958 481.566C589.958 483.094 591.206 484.342 592.734 484.342C594.262 484.342 595.51 483.094 595.51 481.566ZM262.893 470.276C262.893 468.736 261.645 467.5 260.117 467.5C258.589 467.5 257.341 468.748 257.341 470.276C257.341 471.804 258.589 473.052 260.117 473.052C261.645 473.052 262.893 471.804 262.893 470.276ZM268.457 514.305C268.457 512.766 267.209 511.529 265.681 511.529C264.153 511.529 262.905 512.777 262.905 514.305C262.905 515.833 264.153 517.081 265.681 517.081C267.209 517.081 268.457 515.833 268.457 514.305ZM290.699 238.547C290.699 237.008 289.451 235.771 287.923 235.771C286.395 235.771 285.147 237.019 285.147 238.547C285.147 240.075 286.395 241.323 287.923 241.323C289.451 241.323 290.699 240.075 290.699 238.547ZM563.669 128.655C563.669 127.115 562.421 125.879 560.893 125.879C559.365 125.879 558.117 127.127 558.117 128.655C558.117 130.183 559.365 131.431 560.893 131.431C562.421 131.431 563.669 130.183 563.669 128.655ZM491.671 2.72496C492.406 2.51502 492.825 1.73357 492.615 0.998778C492.406 0.263983 491.624 -0.155898 490.889 0.0540428C490.154 0.263984 489.735 1.04543 489.945 1.78023C490.154 2.51502 490.936 2.9349 491.671 2.72496ZM550.081 28.1512C550.851 28.1745 551.492 27.568 551.516 26.7982C551.539 26.0284 550.932 25.387 550.163 25.3636C549.393 25.3403 548.751 25.9468 548.728 26.7166C548.705 27.4864 549.311 28.1278 550.081 28.1512ZM618.825 58.4993C618.545 57.7879 617.729 57.438 617.017 57.7179C616.306 57.9978 615.956 58.8143 616.236 59.5257C616.516 60.2372 617.332 60.5871 618.044 60.3072C618.755 60.0272 619.105 59.2108 618.825 58.4993ZM490.038 19.9168C489.863 19.1704 489.116 18.7038 488.37 18.8788C487.624 19.0537 487.157 19.8002 487.332 20.5466C487.507 21.2931 488.253 21.7596 489 21.5847C489.746 21.4097 490.213 20.6633 490.038 19.9168ZM451.759 39.8379C452.517 39.9779 453.24 39.4763 453.38 38.7182C453.52 37.9601 453.018 37.237 452.26 37.097C451.502 36.957 450.779 37.4586 450.639 38.2167C450.499 38.9748 451 39.6979 451.759 39.8379ZM415.929 30.8804C415.929 29.3408 414.681 28.1045 413.153 28.1045C411.625 28.1045 410.377 29.3525 410.377 30.8804C410.377 32.4083 411.625 33.6563 413.153 33.6563C414.681 33.6563 415.929 32.4083 415.929 30.8804ZM778.87 198.087C779.605 197.877 780.025 197.096 779.815 196.361C779.605 195.626 778.824 195.206 778.089 195.416C777.354 195.626 776.934 196.407 777.144 197.142C777.354 197.877 778.136 198.297 778.87 198.087ZM722.828 166.549C723.562 166.339 723.982 165.558 723.772 164.823C723.562 164.088 722.781 163.668 722.046 163.878C721.311 164.088 720.892 164.87 721.102 165.604C721.311 166.339 722.093 166.759 722.828 166.549ZM763.51 132.55C764.244 132.34 764.664 131.559 764.454 130.824C764.244 130.089 763.463 129.669 762.728 129.879C761.993 130.089 761.573 130.871 761.783 131.606C761.993 132.34 762.775 132.76 763.51 132.55ZM734.316 158.058C735.051 157.848 735.471 157.067 735.261 156.332C735.051 155.597 734.269 155.177 733.535 155.387C732.8 155.597 732.38 156.379 732.59 157.113C732.8 157.848 733.581 158.268 734.316 158.058ZM815.039 5.5475C815.808 5.57083 816.45 4.96433 816.473 4.19455C816.497 3.42477 815.89 2.78328 815.12 2.75995C814.35 2.73662 813.709 3.34312 813.686 4.11291C813.662 4.88269 814.269 5.52418 815.039 5.5475ZM799.048 29.5741C799.818 29.5974 800.459 28.9909 800.483 28.2212C800.506 27.4514 799.899 26.8099 799.13 26.7866C798.36 26.7632 797.718 27.3697 797.695 28.1395C797.672 28.9093 798.278 29.5508 799.048 29.5741ZM767.324 39.3014C768.093 39.3247 768.735 38.7182 768.758 37.9484C768.781 37.1786 768.175 36.5372 767.405 36.5138C766.635 36.4905 765.994 37.097 765.971 37.8668C765.947 38.6366 766.554 39.2781 767.324 39.3014ZM733.686 122.333C734.444 122.473 735.168 121.972 735.308 121.213C735.448 120.455 734.946 119.732 734.188 119.592C733.43 119.452 732.707 119.954 732.567 120.712C732.427 121.47 732.928 122.193 733.686 122.333ZM763.72 75.0031C764.489 75.0264 765.131 74.4199 765.154 73.6501C765.178 72.8803 764.571 72.2388 763.801 72.2155C763.031 72.1922 762.39 72.7987 762.367 73.5685C762.343 74.3382 762.95 74.9797 763.72 75.0031ZM709.461 33.493C710.231 33.5163 710.873 32.9098 710.896 32.1401C710.919 31.3703 710.313 30.7288 709.543 30.7055C708.773 30.6821 708.132 31.2886 708.108 32.0584C708.085 32.8282 708.692 33.4697 709.461 33.493ZM837.491 110.168C838.26 110.192 838.902 109.585 838.925 108.815C838.949 108.045 838.342 107.404 837.572 107.381C836.802 107.357 836.161 107.964 836.138 108.734C836.114 109.503 836.721 110.145 837.491 110.168ZM820.59 109.317C821.36 109.34 822.002 108.734 822.025 107.964C822.048 107.194 821.442 106.553 820.672 106.529C819.902 106.506 819.261 107.112 819.237 107.882C819.214 108.652 819.821 109.293 820.59 109.317ZM832.569 66.8037C833.327 66.9436 834.05 66.4421 834.19 65.684C834.33 64.9259 833.828 64.2028 833.07 64.0628C832.312 63.9228 831.589 64.4244 831.449 65.1825C831.309 65.9406 831.811 66.6637 832.569 66.8037ZM722.396 86.3632C723.166 86.3865 723.807 85.78 723.831 85.0102C723.854 84.2405 723.248 83.599 722.478 83.5757C721.708 83.5523 721.067 84.1588 721.043 84.9286C721.02 85.6984 721.626 86.3399 722.396 86.3632ZM801.859 75.0147C801.859 73.4752 800.611 72.2388 799.083 72.2388C797.555 72.2388 796.307 73.4868 796.307 75.0147C796.307 76.5426 797.555 77.7906 799.083 77.7906C800.611 77.7906 801.859 76.5426 801.859 75.0147ZM262.881 288.128C262.881 286.589 261.633 285.352 260.106 285.352C258.578 285.352 257.33 286.6 257.33 288.128C257.33 289.656 258.578 290.904 260.106 290.904C261.633 290.904 262.881 289.656 262.881 288.128ZM165.55 499.469C165.55 497.93 164.302 496.693 162.774 496.693C161.247 496.693 159.999 497.941 159.999 499.469C159.999 500.997 161.247 502.245 162.774 502.245C164.302 502.245 165.55 500.997 165.55 499.469ZM234.143 551.838C234.143 550.298 232.895 549.062 231.367 549.062C229.839 549.062 228.591 550.31 228.591 551.838C228.591 553.366 229.839 554.614 231.367 554.614C232.895 554.614 234.143 553.366 234.143 551.838ZM1112.2 587.166C1112.2 586.397 1111.58 585.778 1110.81 585.778C1110.04 585.778 1109.42 586.397 1109.42 587.166C1109.42 587.936 1110.04 588.554 1110.81 588.554C1111.58 588.554 1112.2 587.936 1112.2 587.166ZM1177.06 608.382C1177.06 607.612 1176.44 606.994 1175.67 606.994C1174.9 606.994 1174.28 607.612 1174.28 608.382C1174.28 609.152 1174.9 609.77 1175.67 609.77C1176.44 609.77 1177.06 609.152 1177.06 608.382ZM1096.39 623.043C1096.39 622.273 1095.78 621.655 1095.01 621.655C1094.24 621.655 1093.62 622.273 1093.62 623.043C1093.62 623.813 1094.24 624.431 1095.01 624.431C1095.78 624.431 1096.39 623.813 1096.39 623.043ZM989.5 397.123C990.27 397.146 990.911 396.54 990.934 395.77C990.958 395 990.351 394.359 989.581 394.335C988.812 394.312 988.17 394.919 988.147 395.688C988.123 396.458 988.73 397.1 989.5 397.123ZM1000.73 360.838C1001.5 360.861 1002.14 360.255 1002.17 359.485C1002.19 358.715 1001.58 358.074 1000.81 358.051C1000.04 358.027 999.402 358.634 999.379 359.403C999.355 360.173 999.962 360.815 1000.73 360.838ZM990.888 343.121C991.657 343.145 992.299 342.538 992.322 341.768C992.346 340.999 991.739 340.357 990.969 340.334C990.2 340.31 989.558 340.917 989.535 341.687C989.511 342.457 990.118 343.098 990.888 343.121ZM1065.59 360.815C1066.35 360.955 1067.07 360.453 1067.21 359.695C1067.35 358.937 1066.85 358.214 1066.09 358.074C1065.34 357.934 1064.61 358.435 1064.47 359.193C1064.33 359.952 1064.83 360.675 1065.59 360.815ZM1202.67 472.13C1203.44 472.154 1204.08 471.547 1204.11 470.777C1204.13 470.008 1203.52 469.366 1202.75 469.343C1201.98 469.319 1201.34 469.926 1201.32 470.696C1201.3 471.465 1201.9 472.107 1202.67 472.13ZM1052.8 514.935C1053.57 514.958 1054.21 514.352 1054.23 513.582C1054.25 512.812 1053.65 512.171 1052.88 512.147C1052.11 512.124 1051.47 512.731 1051.44 513.5C1051.42 514.27 1052.03 514.912 1052.8 514.935ZM1018.84 537.865C1019.6 538.005 1020.33 537.504 1020.47 536.745C1020.61 535.987 1020.1 535.264 1019.35 535.124C1018.59 534.984 1017.87 535.486 1017.73 536.244C1017.59 537.002 1018.09 537.725 1018.84 537.865ZM1035.07 529.316C1035.84 529.339 1036.48 528.733 1036.5 527.963C1036.53 527.193 1035.92 526.552 1035.15 526.528C1034.38 526.505 1033.74 527.112 1033.72 527.881C1033.69 528.651 1034.3 529.293 1035.07 529.316ZM1029.23 503.411C1029.99 503.435 1030.64 502.828 1030.66 502.059C1030.68 501.289 1030.08 500.647 1029.31 500.624C1028.54 500.601 1027.9 501.207 1027.87 501.977C1027.85 502.747 1028.46 503.388 1029.23 503.411ZM1151.99 538.542C1152.75 538.682 1153.48 538.18 1153.62 537.422C1153.76 536.664 1153.25 535.941 1152.5 535.801C1151.74 535.661 1151.01 536.162 1150.87 536.92C1150.73 537.679 1151.24 538.402 1151.99 538.542ZM1061.37 551.103C1062.14 551.126 1062.78 550.52 1062.8 549.75C1062.83 548.98 1062.22 548.339 1061.45 548.316C1060.68 548.292 1060.04 548.899 1060.02 549.669C1059.99 550.438 1060.6 551.08 1061.37 551.103ZM1011.07 239.912C1011.84 239.935 1012.48 239.329 1012.5 238.559C1012.52 237.789 1011.92 237.148 1011.15 237.124C1010.38 237.101 1009.74 237.708 1009.71 238.477C1009.69 239.247 1010.3 239.889 1011.07 239.912ZM982.397 188.15C983.155 188.29 983.878 187.788 984.018 187.03C984.158 186.272 983.656 185.549 982.898 185.409C982.14 185.269 981.417 185.77 981.277 186.528C981.137 187.287 981.639 188.01 982.397 188.15ZM1183.16 587.003C1182.98 587.75 1183.45 588.496 1184.2 588.671C1184.94 588.846 1185.69 588.379 1185.86 587.633C1186.04 586.886 1185.57 586.14 1184.83 585.965C1184.08 585.79 1183.33 586.257 1183.16 587.003ZM1167.52 549.132C1167.23 549.844 1167.58 550.66 1168.29 550.94C1169 551.231 1169.82 550.882 1170.1 550.17C1170.39 549.459 1170.04 548.642 1169.33 548.362C1168.61 548.071 1167.8 548.421 1167.52 549.132ZM1172.63 566.744C1172.45 567.49 1172.92 568.237 1173.66 568.412C1174.41 568.587 1175.16 568.12 1175.33 567.374C1175.51 566.627 1175.04 565.881 1174.29 565.706C1173.55 565.531 1172.8 565.997 1172.63 566.744ZM1146 588.123C1145.82 588.869 1146.29 589.616 1147.04 589.791C1147.78 589.966 1148.53 589.499 1148.71 588.753C1148.88 588.006 1148.41 587.26 1147.67 587.085C1146.92 586.91 1146.17 587.376 1146 588.123ZM1050.32 442.295C1050.7 443.543 1052.02 444.243 1053.25 443.87C1054.5 443.497 1055.2 442.179 1054.83 440.942C1054.45 439.694 1053.14 438.995 1051.9 439.368C1050.65 439.741 1049.95 441.059 1050.32 442.295ZM1021.84 433.128C1022.22 434.376 1023.53 435.076 1024.77 434.702C1026.02 434.329 1026.72 433.011 1026.34 431.775C1025.97 430.527 1024.65 429.827 1023.42 430.2C1022.17 430.574 1021.47 431.891 1021.84 433.128ZM1093.92 453.259C1094.3 454.507 1095.61 455.207 1096.85 454.833C1098.1 454.46 1098.8 453.142 1098.42 451.906C1098.05 450.658 1096.73 449.958 1095.5 450.331C1094.25 450.705 1093.55 452.022 1093.92 453.259ZM1044.74 673.825C1044.74 673.056 1044.12 672.438 1043.35 672.438C1042.58 672.438 1041.96 673.056 1041.96 673.825C1041.96 674.595 1042.58 675.213 1043.35 675.213C1044.12 675.213 1044.74 674.595 1044.74 673.825ZM1019.32 646.988C1019.32 646.218 1018.7 645.6 1017.94 645.6C1017.17 645.6 1016.55 646.218 1016.55 646.988C1016.55 647.758 1017.17 648.376 1017.94 648.376C1018.7 648.376 1019.32 647.758 1019.32 646.988ZM979.947 652.866C979.947 652.096 979.329 651.478 978.559 651.478C977.79 651.478 977.172 652.096 977.172 652.866C977.172 653.636 977.79 654.254 978.559 654.254C979.329 654.254 979.947 653.636 979.947 652.866ZM1057.33 697.619C1057.33 696.849 1056.72 696.231 1055.95 696.231C1055.18 696.231 1054.56 696.849 1054.56 697.619C1054.56 698.389 1055.18 699.007 1055.95 699.007C1056.72 699.007 1057.33 698.389 1057.33 697.619ZM1003.58 723.57C1003.58 722.8 1002.96 722.182 1002.19 722.182C1001.42 722.182 1000.8 722.8 1000.8 723.57C1000.8 724.34 1001.42 724.958 1002.19 724.958C1002.96 724.958 1003.58 724.34 1003.58 723.57ZM1101.84 687.285C1102.58 687.075 1103 686.294 1102.79 685.559C1102.58 684.824 1101.79 684.404 1101.06 684.614C1100.33 684.824 1099.91 685.605 1100.12 686.34C1100.33 687.075 1101.11 687.495 1101.84 687.285ZM1084.45 682.713C1085.19 682.503 1085.61 681.721 1085.4 680.987C1085.19 680.252 1084.4 679.832 1083.67 680.042C1082.94 680.252 1082.52 681.033 1082.73 681.768C1082.94 682.503 1083.72 682.923 1084.45 682.713ZM1076.65 656.027C1077.38 655.817 1077.8 655.036 1077.59 654.301C1077.38 653.566 1076.6 653.146 1075.87 653.356C1075.13 653.566 1074.71 654.348 1074.92 655.082C1075.13 655.817 1075.91 656.237 1076.65 656.027ZM990.316 590.794C990.316 590.024 989.698 589.406 988.928 589.406C988.158 589.406 987.54 590.024 987.54 590.794C987.54 591.563 988.158 592.182 988.928 592.182C989.698 592.182 990.316 591.563 990.316 590.794ZM1054.65 614.237C1055.39 614.027 1055.81 613.246 1055.6 612.511C1055.39 611.776 1054.6 611.356 1053.87 611.566C1053.14 611.776 1052.72 612.558 1052.93 613.292C1053.14 614.027 1053.92 614.447 1054.65 614.237ZM1020.75 566.009C1021.48 565.799 1021.9 565.018 1021.69 564.283C1021.48 563.548 1020.7 563.128 1019.96 563.338C1019.23 563.548 1018.81 564.329 1019.02 565.064C1019.23 565.799 1020.01 566.219 1020.75 566.009ZM1204.56 534.926C1204.39 534.18 1203.64 533.713 1202.89 533.888C1202.15 534.063 1201.68 534.809 1201.86 535.556C1202.03 536.302 1202.78 536.769 1203.52 536.594C1204.27 536.419 1204.74 535.672 1204.56 534.926ZM1109.48 164.065C1109.62 163.307 1109.13 162.584 1108.37 162.444C1107.61 162.304 1106.89 162.793 1106.75 163.552C1106.61 164.31 1107.1 165.033 1107.86 165.173C1108.62 165.313 1109.34 164.823 1109.48 164.065ZM1057.18 297.879C1057.18 297.109 1056.56 296.491 1055.79 296.491C1055.02 296.491 1054.41 297.109 1054.41 297.879C1054.41 298.649 1055.02 299.267 1055.79 299.267C1056.56 299.267 1057.18 298.649 1057.18 297.879ZM1054 250.164C1054 249.394 1053.38 248.776 1052.61 248.776C1051.84 248.776 1051.22 249.394 1051.22 250.164C1051.22 250.934 1051.84 251.552 1052.61 251.552C1053.38 251.552 1054 250.934 1054 250.164ZM1044.67 264.16C1044.67 263.39 1044.05 262.772 1043.28 262.772C1042.51 262.772 1041.89 263.39 1041.89 264.16C1041.89 264.93 1042.51 265.548 1043.28 265.548C1044.05 265.548 1044.67 264.93 1044.67 264.16ZM1044.74 312.82C1044.56 312.073 1043.82 311.607 1043.07 311.782C1042.32 311.957 1041.86 312.703 1042.03 313.45C1042.21 314.196 1042.95 314.663 1043.7 314.488C1044.45 314.313 1044.91 313.566 1044.74 312.82ZM1030.45 301.32C1030.17 300.608 1029.35 300.258 1028.64 300.538C1027.93 300.818 1027.58 301.635 1027.86 302.346C1028.14 303.058 1028.96 303.407 1029.67 303.128C1030.38 302.848 1030.73 302.031 1030.45 301.32ZM1182.55 113.679C1183.32 113.702 1183.96 113.096 1183.99 112.326C1184.01 111.556 1183.4 110.915 1182.63 110.891C1181.86 110.868 1181.22 111.475 1181.2 112.244C1181.18 113.014 1181.78 113.656 1182.55 113.679ZM1223.93 153.859C1224.7 153.883 1225.35 153.276 1225.37 152.506C1225.39 151.737 1224.79 151.095 1224.02 151.072C1223.25 151.048 1222.6 151.655 1222.58 152.425C1222.56 153.194 1223.16 153.836 1223.93 153.859ZM1204.11 198.11C1204.86 198.25 1205.59 197.749 1205.73 196.991C1205.87 196.232 1205.37 195.509 1204.61 195.369C1203.85 195.229 1203.13 195.731 1202.99 196.489C1202.85 197.247 1203.35 197.97 1204.11 198.11ZM1180.42 175.18C1181.19 175.203 1181.83 174.597 1181.85 173.827C1181.88 173.057 1181.27 172.416 1180.5 172.392C1179.73 172.369 1179.09 172.976 1179.06 173.745C1179.04 174.515 1179.65 175.157 1180.42 175.18ZM1179.03 200.921C1179.8 200.944 1180.44 200.338 1180.46 199.568C1180.49 198.798 1179.88 198.157 1179.11 198.134C1178.34 198.11 1177.7 198.717 1177.68 199.487C1177.65 200.256 1178.26 200.898 1179.03 200.921ZM1143.07 348.428C1143.84 348.452 1144.48 347.845 1144.51 347.075C1144.53 346.305 1143.92 345.664 1143.15 345.641C1142.38 345.617 1141.74 346.224 1141.72 346.994C1141.7 347.763 1142.3 348.405 1143.07 348.428ZM1155.4 392.679C1156.16 392.819 1156.88 392.318 1157.02 391.559C1157.16 390.801 1156.66 390.078 1155.9 389.938C1155.14 389.798 1154.42 390.3 1154.28 391.058C1154.14 391.816 1154.64 392.539 1155.4 392.679ZM1099.56 369.749C1100.33 369.772 1100.97 369.166 1100.99 368.396C1101.01 367.626 1100.41 366.985 1099.64 366.961C1098.87 366.938 1098.23 367.544 1098.2 368.314C1098.18 369.084 1098.79 369.726 1099.56 369.749ZM1183.33 368.361C1184.1 368.384 1184.75 367.778 1184.77 367.008C1184.79 366.238 1184.19 365.597 1183.42 365.573C1182.65 365.55 1182 366.157 1181.98 366.926C1181.96 367.696 1182.56 368.338 1183.33 368.361ZM1133.62 358.237C1134.39 358.26 1135.04 357.654 1135.06 356.884C1135.08 356.114 1134.48 355.473 1133.71 355.45C1132.94 355.426 1132.29 356.033 1132.27 356.803C1132.25 357.572 1132.85 358.214 1133.62 358.237ZM1196.35 418.444C1197.12 418.467 1197.76 417.86 1197.78 417.091C1197.81 416.321 1197.2 415.679 1196.43 415.656C1195.66 415.633 1195.02 416.239 1195 417.009C1194.97 417.779 1195.58 418.42 1196.35 418.444ZM1152.83 439.764C1153.6 439.788 1154.25 439.181 1154.27 438.411C1154.29 437.642 1153.69 437 1152.92 436.977C1152.15 436.953 1151.5 437.56 1151.48 438.33C1151.46 439.099 1152.06 439.741 1152.83 439.764ZM1109.71 429.64C1110.48 429.664 1111.13 429.057 1111.15 428.288C1111.17 427.518 1110.57 426.876 1109.8 426.853C1109.03 426.83 1108.38 427.436 1108.36 428.206C1108.34 428.976 1108.94 429.617 1109.71 429.64ZM1164.38 366.973C1165.15 366.996 1165.79 366.39 1165.82 365.62C1165.84 364.85 1165.23 364.209 1164.46 364.185C1163.69 364.162 1163.05 364.769 1163.03 365.538C1163 366.308 1163.61 366.95 1164.38 366.973ZM1171.5 263.88C1172.23 263.67 1172.65 262.889 1172.44 262.154C1172.23 261.419 1171.45 260.999 1170.71 261.209C1169.98 261.419 1169.56 262.201 1169.77 262.935C1169.98 263.67 1170.76 264.09 1171.5 263.88ZM1120.62 262.492C1121.35 262.282 1121.77 261.501 1121.56 260.766C1121.35 260.031 1120.57 259.611 1119.84 259.821C1119.1 260.031 1118.68 260.813 1118.89 261.547C1119.1 262.282 1119.88 262.702 1120.62 262.492ZM1212.1 258.422C1211.82 257.71 1211 257.36 1210.29 257.64C1209.58 257.92 1209.23 258.737 1209.51 259.448C1209.79 260.16 1210.6 260.509 1211.31 260.23C1212.03 259.95 1212.38 259.133 1212.1 258.422ZM1194.8 245.779C1194.62 245.032 1193.88 244.566 1193.13 244.741C1192.38 244.915 1191.92 245.662 1192.09 246.408C1192.27 247.155 1193.01 247.621 1193.76 247.446C1194.51 247.271 1194.97 246.525 1194.8 245.779ZM1196.36 97.9683C1197.13 97.9916 1197.77 97.3851 1197.8 96.6153C1197.82 95.8456 1197.21 95.2041 1196.44 95.1807C1195.67 95.1574 1195.03 95.7639 1195.01 96.5337C1194.99 97.3035 1195.59 97.945 1196.36 97.9683ZM1194.6 25.4336C1195.37 25.4569 1196.01 24.8504 1196.04 24.0806C1196.06 23.3109 1195.45 22.6694 1194.68 22.646C1193.91 22.6227 1193.27 23.2292 1193.25 23.999C1193.22 24.7688 1193.83 25.4103 1194.6 25.4336ZM1074.85 186.249C1075.62 186.272 1076.26 185.665 1076.29 184.896C1076.31 184.126 1075.7 183.484 1074.93 183.461C1074.16 183.438 1073.52 184.044 1073.5 184.814C1073.48 185.584 1074.08 186.225 1074.85 186.249ZM1109.73 130.976C1110.5 130.999 1111.14 130.393 1111.16 129.623C1111.18 128.853 1110.58 128.211 1109.81 128.188C1109.04 128.165 1108.4 128.771 1108.37 129.541C1108.35 130.311 1108.96 130.952 1109.73 130.976ZM1115.36 38.9165C1116.13 38.9398 1116.77 38.3333 1116.79 37.5635C1116.82 36.7938 1116.21 36.1523 1115.44 36.1289C1114.67 36.1056 1114.03 36.7121 1114.01 37.4819C1113.98 38.2517 1114.59 38.8932 1115.36 38.9165ZM1021.78 123.243C1022.55 123.266 1023.2 122.66 1023.22 121.89C1023.24 121.12 1022.64 120.479 1021.87 120.455C1021.1 120.432 1020.45 121.038 1020.43 121.808C1020.41 122.578 1021.01 123.22 1021.78 123.243ZM996.999 73.6501C997.769 73.6734 998.411 73.0669 998.434 72.2972C998.457 71.5274 997.851 70.8859 997.081 70.8625C996.311 70.8392 995.67 71.4457 995.646 72.2155C995.623 72.9853 996.229 73.6268 996.999 73.6501ZM1004.06 137.636C1004.83 137.659 1005.47 137.052 1005.49 136.283C1005.51 135.513 1004.91 134.871 1004.14 134.848C1003.37 134.825 1002.73 135.431 1002.7 136.201C1002.68 136.971 1003.29 137.612 1004.06 137.636ZM1067.76 21.1765C1068.5 20.9665 1068.92 20.1851 1068.71 19.4503C1068.5 18.7155 1067.71 18.2956 1066.98 18.5055C1066.24 18.7155 1065.82 19.4969 1066.03 20.2317C1066.24 20.9665 1067.03 21.3864 1067.76 21.1765ZM1050.15 16.6161C1050.88 16.4061 1051.3 15.6247 1051.09 14.8899C1050.88 14.1551 1050.1 13.7352 1049.37 13.9452C1048.63 14.1551 1048.21 14.9365 1048.42 15.6713C1048.63 16.4061 1049.41 16.826 1050.15 16.6161ZM1100.76 84.1938C1100.76 82.6543 1099.51 81.4179 1097.98 81.4179C1096.45 81.4179 1095.21 82.6659 1095.21 84.1938C1095.21 85.7217 1096.45 86.9697 1097.98 86.9697C1099.51 86.9697 1100.76 85.7217 1100.76 84.1938ZM1127.17 153.894C1127.17 152.355 1125.93 151.118 1124.4 151.118C1122.87 151.118 1121.62 152.366 1121.62 153.894C1121.62 155.422 1122.87 156.67 1124.4 156.67C1125.93 156.67 1127.17 155.422 1127.17 153.894ZM1159.46 462.765C1159.46 461.225 1158.21 459.989 1156.68 459.989C1155.16 459.989 1153.91 461.237 1153.91 462.765C1153.91 464.292 1155.16 465.54 1156.68 465.54C1158.21 465.54 1159.46 464.292 1159.46 462.765ZM1165.02 506.794C1165.02 505.254 1163.77 504.018 1162.25 504.018C1160.72 504.018 1159.47 505.266 1159.47 506.794C1159.47 508.322 1160.72 509.57 1162.25 509.57C1163.77 509.57 1165.02 508.322 1165.02 506.794ZM1094.73 482.056C1094.73 480.516 1093.48 479.28 1091.95 479.28C1090.42 479.28 1089.18 480.528 1089.18 482.056C1089.18 483.584 1090.42 484.832 1091.95 484.832C1093.48 484.832 1094.73 483.584 1094.73 482.056ZM1211.37 551.861C1211.37 550.322 1210.12 549.085 1208.6 549.085C1207.07 549.085 1205.82 550.333 1205.82 551.861C1205.82 553.389 1207.07 554.637 1208.6 554.637C1210.12 554.637 1211.37 553.389 1211.37 551.861ZM897.196 155.107C899.47 155.107 901.313 153.264 901.313 150.99C901.313 148.716 899.47 146.873 897.196 146.873C894.921 146.873 893.078 148.716 893.078 150.99C893.078 153.264 894.921 155.107 897.196 155.107Z" fill="url(#paint0_linear_289_727)"/>
<defs>
<linearGradient id="paint0_linear_289_727" x1="612.685" y1="0" x2="612.685" y2="765.338" gradientUnits="userSpaceOnUse">
<stop stop-color="white"/>
<stop offset="0.605208" stop-color="white" stop-opacity="0.67"/>
<stop offset="1" stop-color="white" stop-opacity="0.36"/>
</linearGradient>
</defs>
</svg>
