<svg width="21" height="21" viewBox="0 0 21 21" fill="none" xmlns="http://www.w3.org/2000/svg">
<g clip-path="url(#clip0_3_2921)">
<path d="M0 1.43464C0 0.642207 0.658481 0 1.47094 0H18.5589C19.3714 0 20.0299 0.642207 20.0299 1.43464V18.5952C20.0299 19.3876 19.3714 20.0299 18.5589 20.0299H1.47094C0.658481 20.0299 0 19.3876 0 18.5952V1.43464ZM6.18797 16.7675V7.72276H3.18224V16.7675H6.18797ZM4.68573 6.48717C5.73354 6.48717 6.38577 5.79363 6.38577 4.92484C6.36699 4.03727 5.7348 3.36251 4.70576 3.36251C3.67673 3.36251 3.00448 4.03852 3.00448 4.92484C3.00448 5.79363 3.6567 6.48717 4.6657 6.48717H4.68573ZM10.8299 16.7675V11.7162C10.8299 11.4458 10.8499 11.1754 10.93 10.9826C11.1466 10.4431 11.6411 9.88348 12.4723 9.88348C13.5602 9.88348 13.9946 10.7122 13.9946 11.929V16.7675H17.0003V11.5798C17.0003 8.80062 15.5181 7.50869 13.5402 7.50869C11.9453 7.50869 11.2305 8.385 10.8299 9.00217V9.03346H10.8099C10.8165 9.02301 10.8232 9.01258 10.8299 9.00217V7.72276H7.82541C7.86297 8.57152 7.82541 16.7675 7.82541 16.7675H10.8299Z" fill="white"/>
</g>
<defs>
<clipPath id="clip0_3_2921">
<rect width="20.0299" height="20.0299" fill="white"/>
</clipPath>
</defs>
</svg>
