<svg width="466" height="241" viewBox="0 0 466 241" fill="none" xmlns="http://www.w3.org/2000/svg">
<g filter="url(#filter0_d_138_1194)">
<path d="M63.6024 15.0907V33.4656H60.821V17.8721H60.7134L56.317 20.7431V18.0874L60.9018 15.0907H63.6024ZM75.5442 15.0907V33.4656H72.7629V17.8721H72.6552L68.2589 20.7431V18.0874L72.8436 15.0907H75.5442ZM87.4525 33.4656V15.0907H98.847V17.4773H90.2248V23.0759H98.0306V25.4535H90.2248V33.4656H87.4525ZM106.969 33.7437C105.611 33.7437 104.442 33.4536 103.461 32.8734C102.486 32.2872 101.732 31.4648 101.2 30.4061C100.674 29.3414 100.41 28.0943 100.41 26.6647C100.41 25.2531 100.674 24.009 101.2 22.9323C101.732 21.8557 102.474 21.0153 103.425 20.4112C104.382 19.8071 105.501 19.505 106.781 19.505C107.558 19.505 108.312 19.6336 109.042 19.8908C109.771 20.148 110.426 20.5517 111.006 21.102C111.587 21.6523 112.044 22.3671 112.379 23.2464C112.714 24.1196 112.882 25.1813 112.882 26.4315V27.3825H101.927V25.3727H110.253C110.253 24.6669 110.109 24.0419 109.822 23.4976C109.535 22.9473 109.131 22.5136 108.611 22.1966C108.097 21.8796 107.492 21.7211 106.799 21.7211C106.045 21.7211 105.387 21.9065 104.825 22.2774C104.268 22.6422 103.838 23.1207 103.533 23.7129C103.234 24.2991 103.084 24.9361 103.084 25.624V27.1941C103.084 28.1152 103.246 28.8988 103.569 29.5448C103.898 30.1908 104.355 30.6842 104.941 31.0252C105.527 31.3601 106.212 31.5276 106.996 31.5276C107.504 31.5276 107.968 31.4558 108.387 31.3123C108.805 31.1627 109.167 30.9414 109.472 30.6483C109.777 30.3552 110.011 29.9934 110.172 29.5627L112.711 30.0203C112.508 30.768 112.143 31.4229 111.617 31.9852C111.096 32.5415 110.441 32.9751 109.652 33.2861C108.868 33.5912 107.974 33.7437 106.969 33.7437ZM116.073 33.4656V15.0907H118.756V21.9185H118.918C119.073 21.6314 119.297 21.2994 119.591 20.9226C119.884 20.5458 120.29 20.2168 120.811 19.9357C121.331 19.6485 122.019 19.505 122.874 19.505C123.987 19.505 124.98 19.7861 125.853 20.3484C126.726 20.9106 127.411 21.7211 127.908 22.7798C128.41 23.8385 128.661 25.1126 128.661 26.6019C128.661 28.0913 128.413 29.3683 127.917 30.433C127.42 31.4917 126.738 32.3082 125.871 32.8824C125.004 33.4506 124.014 33.7347 122.901 33.7347C122.064 33.7347 121.379 33.5942 120.847 33.3131C120.32 33.0319 119.908 32.7029 119.608 32.3261C119.309 31.9493 119.079 31.6143 118.918 31.3212H118.693V33.4656H116.073ZM118.702 26.575C118.702 27.544 118.843 28.3934 119.124 29.1231C119.405 29.8528 119.812 30.424 120.344 30.8368C120.877 31.2435 121.528 31.4469 122.3 31.4469C123.102 31.4469 123.772 31.2345 124.31 30.8098C124.848 30.3792 125.255 29.796 125.53 29.0603C125.811 28.3246 125.952 27.4961 125.952 26.575C125.952 25.6658 125.814 24.8494 125.539 24.1256C125.27 23.4019 124.863 22.8307 124.319 22.412C123.78 21.9933 123.108 21.7839 122.3 21.7839C121.522 21.7839 120.865 21.9843 120.326 22.385C119.794 22.7858 119.39 23.3451 119.115 24.0628C118.84 24.7806 118.702 25.618 118.702 26.575ZM131.674 33.4656V19.6844H134.267V21.8736H134.41C134.661 21.1319 135.104 20.5487 135.738 20.1241C136.378 19.6934 137.102 19.4781 137.909 19.4781C138.077 19.4781 138.274 19.4841 138.501 19.496C138.735 19.508 138.917 19.5229 139.049 19.5409V22.1069C138.941 22.077 138.75 22.0441 138.475 22.0082C138.199 21.9663 137.924 21.9454 137.649 21.9454C137.015 21.9454 136.45 22.08 135.953 22.3491C135.463 22.6123 135.074 22.9802 134.787 23.4527C134.5 23.9193 134.356 24.4516 134.356 25.0498V33.4656H131.674ZM150.1 27.7504V19.6844H152.792V33.4656H150.154V31.079H150.01C149.693 31.8147 149.185 32.4278 148.485 32.9183C147.791 33.4028 146.927 33.645 145.892 33.645C145.007 33.645 144.223 33.4506 143.542 33.0618C142.866 32.6671 142.333 32.0839 141.944 31.3123C141.562 30.5407 141.37 29.5866 141.37 28.4502V19.6844H144.053V28.1272C144.053 29.0663 144.313 29.8139 144.833 30.3702C145.354 30.9265 146.03 31.2046 146.861 31.2046C147.364 31.2046 147.863 31.079 148.36 30.8278C148.862 30.5766 149.278 30.1967 149.607 29.6883C149.942 29.1799 150.106 28.5339 150.1 27.7504ZM160.407 33.7706C159.534 33.7706 158.744 33.6091 158.038 33.2861C157.332 32.9572 156.773 32.4816 156.36 31.8596C155.954 31.2375 155.75 30.4749 155.75 29.5717C155.75 28.7941 155.9 28.1541 156.199 27.6517C156.498 27.1492 156.902 26.7515 157.41 26.4584C157.919 26.1653 158.487 25.944 159.115 25.7944C159.743 25.6449 160.383 25.5313 161.035 25.4535C161.86 25.3578 162.53 25.28 163.045 25.2202C163.559 25.1544 163.933 25.0498 164.166 24.9062C164.399 24.7626 164.516 24.5294 164.516 24.2064V24.1436C164.516 23.36 164.295 22.7529 163.852 22.3222C163.415 21.8916 162.763 21.6762 161.896 21.6762C160.993 21.6762 160.281 21.8766 159.761 22.2774C159.246 22.6721 158.891 23.1118 158.693 23.5963L156.172 23.0221C156.471 22.1847 156.908 21.5088 157.482 20.9944C158.062 20.474 158.729 20.0972 159.483 19.8639C160.236 19.6246 161.029 19.505 161.86 19.505C162.411 19.505 162.994 19.5708 163.61 19.7024C164.232 19.828 164.812 20.0613 165.35 20.4022C165.895 20.7431 166.34 21.2306 166.687 21.8647C167.034 22.4927 167.208 23.3092 167.208 24.314V33.4656H164.588V31.5814H164.48C164.307 31.9284 164.046 32.2693 163.7 32.6043C163.353 32.9392 162.907 33.2173 162.363 33.4387C161.818 33.66 161.166 33.7706 160.407 33.7706ZM160.99 31.6173C161.732 31.6173 162.366 31.4708 162.892 31.1777C163.424 30.8846 163.828 30.5018 164.103 30.0293C164.384 29.5508 164.525 29.0393 164.525 28.495V26.7186C164.429 26.8143 164.244 26.904 163.969 26.9877C163.7 27.0655 163.392 27.1343 163.045 27.1941C162.698 27.2479 162.36 27.2988 162.031 27.3466C161.702 27.3885 161.427 27.4244 161.205 27.4543C160.685 27.5201 160.209 27.6307 159.779 27.7862C159.354 27.9418 159.013 28.1661 158.756 28.4591C158.505 28.7463 158.379 29.1291 158.379 29.6076C158.379 30.2715 158.624 30.7739 159.115 31.1149C159.605 31.4498 160.23 31.6173 160.99 31.6173ZM170.781 33.4656V19.6844H173.374V21.8736H173.517C173.769 21.1319 174.211 20.5487 174.845 20.1241C175.485 19.6934 176.209 19.4781 177.016 19.4781C177.184 19.4781 177.381 19.4841 177.609 19.496C177.842 19.508 178.024 19.5229 178.156 19.5409V22.1069C178.048 22.077 177.857 22.0441 177.582 22.0082C177.306 21.9663 177.031 21.9454 176.756 21.9454C176.122 21.9454 175.557 22.08 175.06 22.3491C174.57 22.6123 174.181 22.9802 173.894 23.4527C173.607 23.9193 173.463 24.4516 173.463 25.0498V33.4656H170.781ZM182.593 38.6335C182.192 38.6335 181.827 38.6006 181.498 38.5348C181.169 38.475 180.924 38.4092 180.762 38.3374L181.408 36.1393C181.899 36.2709 182.335 36.3277 182.718 36.3097C183.101 36.2918 183.439 36.1482 183.732 35.8791C184.031 35.6099 184.294 35.1703 184.522 34.5602L184.854 33.645L179.811 19.6844H182.682L186.172 30.3792H186.316L189.806 19.6844H192.686L187.007 35.3049C186.744 36.0226 186.409 36.6297 186.002 37.1262C185.595 37.6286 185.111 38.0055 184.548 38.2567C183.986 38.5079 183.334 38.6335 182.593 38.6335ZM201.858 33.4656V31.4558L208.076 25.0139C208.739 24.314 209.287 23.7009 209.717 23.1746C210.154 22.6422 210.48 22.1368 210.695 21.6583C210.911 21.1798 211.018 20.6714 211.018 20.133C211.018 19.5229 210.875 18.9966 210.588 18.554C210.301 18.1053 209.909 17.7614 209.412 17.5222C208.916 17.2769 208.357 17.1543 207.735 17.1543C207.077 17.1543 206.502 17.2889 206.012 17.5581C205.522 17.8272 205.145 18.207 204.881 18.6975C204.618 19.188 204.487 19.7622 204.487 20.4201H201.84C201.84 19.3016 202.097 18.3237 202.612 17.4863C203.126 16.6489 203.832 15.9999 204.729 15.5393C205.626 15.0728 206.646 14.8395 207.788 14.8395C208.943 14.8395 209.96 15.0698 210.839 15.5304C211.724 15.9849 212.415 16.607 212.912 17.3966C213.408 18.1801 213.656 19.0654 213.656 20.0523C213.656 20.7342 213.528 21.4011 213.27 22.0531C213.019 22.705 212.58 23.4318 211.952 24.2333C211.323 25.0288 210.45 25.9948 209.332 27.1313L205.68 30.9534V31.088H213.952V33.4656H201.858ZM223.75 33.7706C222.332 33.7646 221.121 33.3908 220.116 32.6491C219.111 31.9074 218.343 30.8278 217.81 29.4102C217.278 27.9926 217.012 26.2849 217.012 24.2871C217.012 22.2953 217.278 20.5936 217.81 19.182C218.349 17.7704 219.12 16.6937 220.125 15.952C221.136 15.2104 222.344 14.8395 223.75 14.8395C225.155 14.8395 226.361 15.2133 227.366 15.961C228.37 16.7027 229.139 17.7794 229.671 19.191C230.21 20.5966 230.479 22.2953 230.479 24.2871C230.479 26.2909 230.213 28.0016 229.68 29.4192C229.148 30.8308 228.379 31.9104 227.375 32.6581C226.37 33.3998 225.161 33.7706 223.75 33.7706ZM223.75 31.3751C224.994 31.3751 225.966 30.768 226.666 29.5537C227.372 28.3395 227.724 26.584 227.724 24.2871C227.724 22.7619 227.563 21.4729 227.24 20.4201C226.923 19.3614 226.465 18.5599 225.867 18.0156C225.275 17.4653 224.569 17.1902 223.75 17.1902C222.512 17.1902 221.54 17.8003 220.834 19.0205C220.128 20.2407 219.772 21.9962 219.766 24.2871C219.766 25.8184 219.925 27.1133 220.242 28.172C220.565 29.2248 221.022 30.0233 221.614 30.5676C222.207 31.1059 222.918 31.3751 223.75 31.3751ZM233.662 33.4656V31.4558L239.879 25.0139C240.543 24.314 241.091 23.7009 241.521 23.1746C241.958 22.6422 242.284 22.1368 242.499 21.6583C242.715 21.1798 242.822 20.6714 242.822 20.133C242.822 19.5229 242.679 18.9966 242.392 18.554C242.104 18.1053 241.713 17.7614 241.216 17.5222C240.72 17.2769 240.161 17.1543 239.538 17.1543C238.88 17.1543 238.306 17.2889 237.816 17.5581C237.325 17.8272 236.949 18.207 236.685 18.6975C236.422 19.188 236.291 19.7622 236.291 20.4201H233.644C233.644 19.3016 233.901 18.3237 234.415 17.4863C234.93 16.6489 235.636 15.9999 236.533 15.5393C237.43 15.0728 238.45 14.8395 239.592 14.8395C240.747 14.8395 241.764 15.0698 242.643 15.5304C243.528 15.9849 244.219 16.607 244.715 17.3966C245.212 18.1801 245.46 19.0654 245.46 20.0523C245.46 20.7342 245.331 21.4011 245.074 22.0531C244.823 22.705 244.383 23.4318 243.755 24.2333C243.127 25.0288 242.254 25.9948 241.135 27.1313L237.484 30.9534V31.088H245.756V33.4656H233.662ZM248.376 29.8767V27.6337L256.316 15.0907H258.084V18.3925H256.962L251.283 27.3825V27.526H262.166V29.8767H248.376ZM257.088 33.4656V29.1949L257.106 28.172V15.0907H259.735V33.4656H257.088Z" fill="white"/>
</g>
<g filter="url(#filter1_d_138_1194)">
<path d="M35.3617 11.0127L28.7764 11.0128V8.79624C28.7764 8.18177 28.4084 7.68408 27.954 7.68408C27.4996 7.68408 27.1316 8.18177 27.1316 8.79624V11.0122H20.552V8.79624C20.552 8.18177 20.184 7.68408 19.7296 7.68408C19.2752 7.68408 18.9071 8.18177 18.9071 8.79624V11.0122H12.3334C11.425 11.0122 10.6885 12.0082 10.6885 13.2365V41.0405C10.6885 42.2688 11.425 43.2648 12.3334 43.2648H35.3617C36.2701 43.2648 37.0066 42.2688 37.0066 41.0405V13.2365C37.0066 12.0087 36.2701 11.0127 35.3617 11.0127ZM35.3617 41.0405H12.3334V13.2365H18.9071V14.357C18.9071 14.9715 19.2752 15.4692 19.7296 15.4692C20.184 15.4692 20.552 14.9715 20.552 14.357V13.2371H27.1316V14.3576C27.1316 14.9721 27.4996 15.4697 27.954 15.4697C28.4084 15.4697 28.7764 14.9721 28.7764 14.3576V13.2371H35.3617V41.0405ZM29.6046 25.4708H31.2495C31.7035 25.4708 32.072 24.9726 32.072 24.3586V22.1343C32.072 21.5204 31.7035 21.0222 31.2495 21.0222H29.6046C29.1507 21.0222 28.7822 21.5204 28.7822 22.1343V24.3586C28.7822 24.9726 29.1507 25.4708 29.6046 25.4708ZM29.6046 34.3675H31.2495C31.7035 34.3675 32.072 33.8698 32.072 33.2554V31.031C32.072 30.4171 31.7035 29.9189 31.2495 29.9189H29.6046C29.1507 29.9189 28.7822 30.4171 28.7822 31.031V33.2554C28.7822 33.8704 29.1507 34.3675 29.6046 34.3675ZM24.67 29.9189H23.0251C22.5711 29.9189 22.2027 30.4171 22.2027 31.031V33.2554C22.2027 33.8698 22.5711 34.3675 23.0251 34.3675H24.67C25.124 34.3675 25.4924 33.8698 25.4924 33.2554V31.031C25.4924 30.4177 25.124 29.9189 24.67 29.9189ZM24.67 21.0222H23.0251C22.5711 21.0222 22.2027 21.5204 22.2027 22.1343V24.3586C22.2027 24.9726 22.5711 25.4708 23.0251 25.4708H24.67C25.124 25.4708 25.4924 24.9726 25.4924 24.3586V22.1343C25.4924 21.5199 25.124 21.0222 24.67 21.0222ZM18.0905 21.0222H16.4456C15.9916 21.0222 15.6231 21.5204 15.6231 22.1343V24.3586C15.6231 24.9726 15.9916 25.4708 16.4456 25.4708H18.0905C18.5444 25.4708 18.9129 24.9726 18.9129 24.3586V22.1343C18.9129 21.5199 18.5444 21.0222 18.0905 21.0222ZM18.0905 29.9189H16.4456C15.9916 29.9189 15.6231 30.4171 15.6231 31.031V33.2554C15.6231 33.8698 15.9916 34.3675 16.4456 34.3675H18.0905C18.5444 34.3675 18.9129 33.8698 18.9129 33.2554V31.031C18.9129 30.4177 18.5444 29.9189 18.0905 29.9189Z" fill="#D3DCE6"/>
</g>
<g filter="url(#filter2_d_138_1194)">
<path d="M63.3842 94.2512C62.0982 94.2512 60.9617 94.0299 59.9748 93.5873C58.9939 93.1447 58.2253 92.5346 57.669 91.757C57.1127 90.9794 56.8376 90.0941 56.8436 89.1012C56.8376 88.3237 56.9961 87.6089 57.3191 86.9569C57.6481 86.299 58.0937 85.7517 58.6559 85.315C59.2182 84.8724 59.8462 84.5913 60.5401 84.4716V84.364C59.6249 84.1427 58.8922 83.6522 58.3419 82.8925C57.7916 82.1329 57.5195 81.2596 57.5254 80.2727C57.5195 79.3336 57.7677 78.4962 58.2701 77.7605C58.7785 77.0188 59.4754 76.4356 60.3606 76.0109C61.2459 75.5863 62.2537 75.3739 63.3842 75.3739C64.5027 75.3739 65.5016 75.5893 66.3809 76.0199C67.2661 76.4446 67.963 77.0278 68.4714 77.7695C68.9798 78.5052 69.237 79.3396 69.243 80.2727C69.237 81.2596 68.9559 82.1329 68.3996 82.8925C67.8433 83.6522 67.1196 84.1427 66.2284 84.364V84.4716C66.9162 84.5913 67.5353 84.8724 68.0856 85.315C68.6419 85.7517 69.0845 86.299 69.4135 86.9569C69.7484 87.6089 69.9189 88.3237 69.9249 89.1012C69.9189 90.0941 69.6378 90.9794 69.0815 91.757C68.5252 92.5346 67.7536 93.1447 66.7667 93.5873C65.7857 94.0299 64.6583 94.2512 63.3842 94.2512ZM63.3842 91.9813C64.1439 91.9813 64.8018 91.8557 65.3581 91.6045C65.9143 91.3473 66.345 90.9914 66.6501 90.5368C66.9551 90.0762 67.1106 89.5379 67.1166 88.9218C67.1106 88.2818 66.9431 87.7165 66.6142 87.2261C66.2912 86.7356 65.8515 86.3498 65.2953 86.0687C64.739 85.7875 64.102 85.647 63.3842 85.647C62.6605 85.647 62.0175 85.7875 61.4552 86.0687C60.893 86.3498 60.4503 86.7356 60.1273 87.2261C59.8043 87.7165 59.6458 88.2818 59.6518 88.9218C59.6458 89.5379 59.7924 90.0762 60.0915 90.5368C60.3965 90.9914 60.8302 91.3473 61.3924 91.6045C61.9547 91.8557 62.6186 91.9813 63.3842 91.9813ZM63.3842 83.4309C63.9943 83.4309 64.5356 83.3083 65.0082 83.063C65.4807 82.8178 65.8515 82.4768 66.1207 82.0402C66.3958 81.6036 66.5364 81.0921 66.5424 80.506C66.5364 79.9318 66.3988 79.4293 66.1297 78.9987C65.8665 78.568 65.4986 78.236 65.0261 78.0028C64.5536 77.7635 64.0063 77.6439 63.3842 77.6439C62.7502 77.6439 62.1939 77.7635 61.7154 78.0028C61.2429 78.236 60.875 78.568 60.6118 78.9987C60.3487 79.4293 60.2201 79.9318 60.226 80.506C60.2201 81.0921 60.3516 81.6036 60.6208 82.0402C60.89 82.4768 61.2608 82.8178 61.7333 83.063C62.2119 83.3083 62.7621 83.4309 63.3842 83.4309ZM74.9425 91.7211C74.452 91.7211 74.0304 91.5476 73.6774 91.2007C73.3245 90.8478 73.1481 90.4231 73.1481 89.9267C73.1481 89.4362 73.3245 89.0175 73.6774 88.6706C74.0304 88.3177 74.452 88.1412 74.9425 88.1412C75.433 88.1412 75.8547 88.3177 76.2076 88.6706C76.5605 89.0175 76.7369 89.4362 76.7369 89.9267C76.7369 90.2556 76.6532 90.5577 76.4857 90.8329C76.3242 91.102 76.1089 91.3173 75.8397 91.4788C75.5706 91.6403 75.2715 91.7211 74.9425 91.7211ZM74.9425 82.5157C74.452 82.5157 74.0304 82.3423 73.6774 81.9953C73.3245 81.6424 73.1481 81.2178 73.1481 80.7213C73.1481 80.2308 73.3245 79.8121 73.6774 79.4652C74.0304 79.1123 74.452 78.9359 74.9425 78.9359C75.433 78.9359 75.8547 79.1123 76.2076 79.4652C76.5605 79.8121 76.7369 80.2308 76.7369 80.7213C76.7369 81.0503 76.6532 81.3523 76.4857 81.6275C76.3242 81.8966 76.1089 82.112 75.8397 82.2735C75.5706 82.435 75.2715 82.5157 74.9425 82.5157ZM86.6915 94.3051C85.2739 94.2991 84.0626 93.9252 83.0578 93.1835C82.0529 92.4418 81.2843 91.3622 80.7519 89.9446C80.2196 88.527 79.9534 86.8193 79.9534 84.8215C79.9534 82.8297 80.2196 81.128 80.7519 79.7164C81.2903 78.3048 82.0619 77.2282 83.0667 76.4865C84.0776 75.7448 85.2858 75.3739 86.6915 75.3739C88.0971 75.3739 89.3024 75.7478 90.3072 76.4954C91.3121 77.2371 92.0807 78.3138 92.6131 79.7254C93.1514 81.131 93.4205 82.8297 93.4205 84.8215C93.4205 86.8253 93.1544 88.536 92.622 89.9536C92.0897 91.3652 91.3211 92.4448 90.3162 93.1925C89.3113 93.9342 88.1031 94.3051 86.6915 94.3051ZM86.6915 91.9095C87.9356 91.9095 88.9076 91.3024 89.6074 90.0882C90.3132 88.8739 90.6661 87.1184 90.6661 84.8215C90.6661 83.2963 90.5046 82.0073 90.1816 80.9546C89.8646 79.8959 89.407 79.0944 88.8089 78.5501C88.2167 77.9998 87.5109 77.7246 86.6915 77.7246C85.4533 77.7246 84.4813 78.3347 83.7755 79.5549C83.0697 80.7751 82.7138 82.5307 82.7079 84.8215C82.7079 86.3528 82.8664 87.6478 83.1834 88.7065C83.5064 89.7592 83.964 90.5577 84.5561 91.102C85.1483 91.6403 85.8601 91.9095 86.6915 91.9095ZM103.001 94.3051C101.583 94.2991 100.372 93.9252 99.3668 93.1835C98.3619 92.4418 97.5933 91.3622 97.061 89.9446C96.5286 88.527 96.2625 86.8193 96.2625 84.8215C96.2625 82.8297 96.5286 81.128 97.061 79.7164C97.5993 78.3048 98.3709 77.2282 99.3758 76.4865C100.387 75.7448 101.595 75.3739 103.001 75.3739C104.406 75.3739 105.611 75.7478 106.616 76.4954C107.621 77.2371 108.39 78.3138 108.922 79.7254C109.46 81.131 109.73 82.8297 109.73 84.8215C109.73 86.8253 109.463 88.536 108.931 89.9536C108.399 91.3652 107.63 92.4448 106.625 93.1925C105.62 93.9342 104.412 94.3051 103.001 94.3051ZM103.001 91.9095C104.245 91.9095 105.217 91.3024 105.916 90.0882C106.622 88.8739 106.975 87.1184 106.975 84.8215C106.975 83.2963 106.814 82.0073 106.491 80.9546C106.174 79.8959 105.716 79.0944 105.118 78.5501C104.526 77.9998 103.82 77.7246 103.001 77.7246C101.762 77.7246 100.79 78.3347 100.085 79.5549C99.3788 80.7751 99.0229 82.5307 99.0169 84.8215C99.0169 86.3528 99.1754 87.6478 99.4924 88.7065C99.8154 89.7592 100.273 90.5577 100.865 91.102C101.457 91.6403 102.169 91.9095 103.001 91.9095ZM121.402 94H118.459L125.072 75.6251H128.275L134.887 94H131.944L126.75 78.9628H126.606L121.402 94ZM121.896 86.8044H131.442V89.1371H121.896V86.8044ZM137.541 75.6251H140.905L146.755 89.9087H146.97L152.82 75.6251H156.185V94H153.547V80.7034H153.377L147.957 93.9731H145.768L140.349 80.6944H140.179V94H137.541V75.6251ZM173.12 80.2189V82.3722H165.592V80.2189H173.12ZM167.611 76.9171H170.293V89.9536C170.293 90.474 170.371 90.8657 170.527 91.1289C170.682 91.3861 170.883 91.5626 171.128 91.6583C171.379 91.748 171.651 91.7929 171.944 91.7929C172.16 91.7929 172.348 91.7779 172.51 91.748C172.671 91.7181 172.797 91.6942 172.886 91.6762L173.371 93.8923C173.215 93.9521 172.994 94.012 172.707 94.0718C172.42 94.1376 172.061 94.1735 171.63 94.1794C170.924 94.1914 170.267 94.0658 169.656 93.8026C169.046 93.5394 168.553 93.1327 168.176 92.5824C167.799 92.0321 167.611 91.3413 167.611 90.5099V76.9171ZM181.744 94.2781C180.452 94.2781 179.325 93.9821 178.362 93.3899C177.399 92.7977 176.651 91.9693 176.119 90.9046C175.586 89.8399 175.32 88.5958 175.32 87.1722C175.32 85.7427 175.586 84.4926 176.119 83.4219C176.651 82.3512 177.399 81.5198 178.362 80.9277C179.325 80.3355 180.452 80.0394 181.744 80.0394C183.036 80.0394 184.164 80.3355 185.127 80.9277C186.09 81.5198 186.837 82.3512 187.37 83.4219C187.902 84.4926 188.168 85.7427 188.168 87.1722C188.168 88.5958 187.902 89.8399 187.37 90.9046C186.837 91.9693 186.09 92.7977 185.127 93.3899C184.164 93.9821 183.036 94.2781 181.744 94.2781ZM181.753 92.0261C182.59 92.0261 183.284 91.8048 183.835 91.3622C184.385 90.9196 184.792 90.3304 185.055 89.5947C185.324 88.859 185.459 88.0485 185.459 87.1633C185.459 86.284 185.324 85.4765 185.055 84.7408C184.792 83.9991 184.385 83.404 183.835 82.9553C183.284 82.5067 182.59 82.2824 181.753 82.2824C180.91 82.2824 180.21 82.5067 179.654 82.9553C179.103 83.404 178.694 83.9991 178.424 84.7408C178.161 85.4765 178.03 86.284 178.03 87.1633C178.03 88.0485 178.161 88.859 178.424 89.5947C178.694 90.3304 179.103 90.9196 179.654 91.3622C180.21 91.8048 180.91 92.0261 181.753 92.0261ZM204.784 75.6251V94H202.003V78.4065H201.895L197.499 81.2776V78.6218L202.084 75.6251H204.784ZM216.152 94.3051C214.734 94.2991 213.523 93.9252 212.518 93.1835C211.514 92.4418 210.745 91.3622 210.213 89.9446C209.68 88.527 209.414 86.8193 209.414 84.8215C209.414 82.8297 209.68 81.128 210.213 79.7164C210.751 78.3048 211.522 77.2282 212.527 76.4865C213.538 75.7448 214.746 75.3739 216.152 75.3739C217.558 75.3739 218.763 75.7478 219.768 76.4954C220.773 77.2371 221.541 78.3138 222.074 79.7254C222.612 81.131 222.881 82.8297 222.881 84.8215C222.881 86.8253 222.615 88.536 222.083 89.9536C221.55 91.3652 220.782 92.4448 219.777 93.1925C218.772 93.9342 217.564 94.3051 216.152 94.3051ZM216.152 91.9095C217.396 91.9095 218.368 91.3024 219.068 90.0882C219.774 88.8739 220.127 87.1184 220.127 84.8215C220.127 83.2963 219.965 82.0073 219.642 80.9546C219.325 79.8959 218.868 79.0944 218.269 78.5501C217.677 77.9998 216.972 77.7246 216.152 77.7246C214.914 77.7246 213.942 78.3347 213.236 79.5549C212.53 80.7751 212.174 82.5307 212.168 84.8215C212.168 86.3528 212.327 87.6478 212.644 88.7065C212.967 89.7592 213.425 90.5577 214.017 91.102C214.609 91.6403 215.321 91.9095 216.152 91.9095ZM227.867 91.7211C227.377 91.7211 226.955 91.5476 226.602 91.2007C226.249 90.8478 226.073 90.4231 226.073 89.9267C226.073 89.4362 226.249 89.0175 226.602 88.6706C226.955 88.3177 227.377 88.1412 227.867 88.1412C228.358 88.1412 228.78 88.3177 229.132 88.6706C229.485 89.0175 229.662 89.4362 229.662 89.9267C229.662 90.2556 229.578 90.5577 229.411 90.8329C229.249 91.102 229.034 91.3173 228.765 91.4788C228.495 91.6403 228.196 91.7211 227.867 91.7211ZM227.867 82.5157C227.377 82.5157 226.955 82.3423 226.602 81.9953C226.249 81.6424 226.073 81.2178 226.073 80.7213C226.073 80.2308 226.249 79.8121 226.602 79.4652C226.955 79.1123 227.377 78.9359 227.867 78.9359C228.358 78.9359 228.78 79.1123 229.132 79.4652C229.485 79.8121 229.662 80.2308 229.662 80.7213C229.662 81.0503 229.578 81.3523 229.411 81.6275C229.249 81.8966 229.034 82.112 228.765 82.2735C228.495 82.435 228.196 82.5157 227.867 82.5157ZM239.616 94.3051C238.199 94.2991 236.988 93.9252 235.983 93.1835C234.978 92.4418 234.209 91.3622 233.677 89.9446C233.144 88.527 232.878 86.8193 232.878 84.8215C232.878 82.8297 233.144 81.128 233.677 79.7164C234.215 78.3048 234.987 77.2282 235.992 76.4865C237.002 75.7448 238.211 75.3739 239.616 75.3739C241.022 75.3739 242.227 75.7478 243.232 76.4954C244.237 77.2371 245.006 78.3138 245.538 79.7254C246.076 81.131 246.345 82.8297 246.345 84.8215C246.345 86.8253 246.079 88.536 245.547 89.9536C245.015 91.3652 244.246 92.4448 243.241 93.1925C242.236 93.9342 241.028 94.3051 239.616 94.3051ZM239.616 91.9095C240.86 91.9095 241.832 91.3024 242.532 90.0882C243.238 88.8739 243.591 87.1184 243.591 84.8215C243.591 83.2963 243.429 82.0073 243.107 80.9546C242.789 79.8959 242.332 79.0944 241.734 78.5501C241.142 77.9998 240.436 77.7246 239.616 77.7246C238.378 77.7246 237.406 78.3347 236.7 79.5549C235.995 80.7751 235.639 82.5307 235.633 84.8215C235.633 86.3528 235.791 87.6478 236.108 88.7065C236.431 89.7592 236.889 90.5577 237.481 91.102C238.073 91.6403 238.785 91.9095 239.616 91.9095ZM255.925 94.3051C254.508 94.2991 253.297 93.9252 252.292 93.1835C251.287 92.4418 250.518 91.3622 249.986 89.9446C249.454 88.527 249.187 86.8193 249.187 84.8215C249.187 82.8297 249.454 81.128 249.986 79.7164C250.524 78.3048 251.296 77.2282 252.301 76.4865C253.312 75.7448 254.52 75.3739 255.925 75.3739C257.331 75.3739 258.536 75.7478 259.541 76.4954C260.546 77.2371 261.315 78.3138 261.847 79.7254C262.385 81.131 262.654 82.8297 262.654 84.8215C262.654 86.8253 262.388 88.536 261.856 89.9536C261.324 91.3652 260.555 92.4448 259.55 93.1925C258.545 93.9342 257.337 94.3051 255.925 94.3051ZM255.925 91.9095C257.17 91.9095 258.141 91.3024 258.841 90.0882C259.547 88.8739 259.9 87.1184 259.9 84.8215C259.9 83.2963 259.739 82.0073 259.416 80.9546C259.099 79.8959 258.641 79.0944 258.043 78.5501C257.451 77.9998 256.745 77.7246 255.925 77.7246C254.687 77.7246 253.715 78.3347 253.009 79.5549C252.304 80.7751 251.948 82.5307 251.942 84.8215C251.942 86.3528 252.1 87.6478 252.417 88.7065C252.74 89.7592 253.198 90.5577 253.79 91.102C254.382 91.6403 255.094 91.9095 255.925 91.9095ZM272.775 94V75.6251H279.325C280.754 75.6251 281.938 75.8853 282.878 76.4057C283.817 76.9261 284.519 77.6379 284.986 78.5411C285.453 79.4383 285.686 80.4491 285.686 81.5736C285.686 82.7041 285.45 83.721 284.977 84.6242C284.51 85.5214 283.805 86.2332 282.86 86.7595C281.921 87.2799 280.739 87.5401 279.316 87.5401H274.812V85.1894H279.064C279.968 85.1894 280.7 85.0339 281.263 84.7229C281.825 84.4058 282.238 83.9752 282.501 83.4309C282.764 82.8866 282.896 82.2675 282.896 81.5736C282.896 80.8798 282.764 80.2637 282.501 79.7254C282.238 79.1871 281.822 78.7654 281.254 78.4603C280.691 78.1553 279.95 78.0028 279.029 78.0028H275.547V94H272.775ZM288.936 75.6251H292.301L298.15 89.9087H298.366L304.215 75.6251H307.58V94H304.942V80.7034H304.772L299.353 93.9731H297.163L291.744 80.6944H291.574V94H288.936V75.6251Z" fill="white"/>
</g>
<g filter="url(#filter3_d_138_1194)">
<path d="M56.1037 148.173V129.798H58.8761V145.787H67.2022V148.173H56.1037ZM70.1495 148.173V134.392H72.8322V148.173H70.1495ZM71.5043 132.266C71.0377 132.266 70.637 132.11 70.302 131.799C69.973 131.482 69.8086 131.105 69.8086 130.669C69.8086 130.226 69.973 129.849 70.302 129.538C70.637 129.221 71.0377 129.063 71.5043 129.063C71.9708 129.063 72.3686 129.221 72.6976 129.538C73.0325 129.849 73.2 130.226 73.2 130.669C73.2 131.105 73.0325 131.482 72.6976 131.799C72.3686 132.11 71.9708 132.266 71.5043 132.266ZM76.6565 148.173V129.798H79.3392V136.626H79.5007C79.6562 136.339 79.8805 136.007 80.1736 135.63C80.4667 135.254 80.8734 134.925 81.3938 134.643C81.9142 134.356 82.602 134.213 83.4574 134.213C84.5699 134.213 85.5628 134.494 86.4361 135.056C87.3094 135.618 87.9942 136.429 88.4907 137.488C88.9931 138.546 89.2444 139.82 89.2444 141.31C89.2444 142.799 88.9961 144.076 88.4997 145.141C88.0032 146.199 87.3213 147.016 86.454 147.59C85.5867 148.158 84.5968 148.443 83.4843 148.443C82.6469 148.443 81.962 148.302 81.4297 148.021C80.9033 147.74 80.4906 147.411 80.1915 147.034C79.8924 146.657 79.6622 146.322 79.5007 146.029H79.2764V148.173H76.6565ZM79.2853 141.283C79.2853 142.252 79.4259 143.101 79.707 143.831C79.9881 144.561 80.3949 145.132 80.9272 145.545C81.4596 145.951 82.1115 146.155 82.8831 146.155C83.6847 146.155 84.3546 145.942 84.8929 145.518C85.4312 145.087 85.838 144.504 86.1131 143.768C86.3942 143.032 86.5348 142.204 86.5348 141.283C86.5348 140.374 86.3972 139.557 86.1221 138.833C85.8529 138.11 85.4462 137.538 84.9019 137.12C84.3635 136.701 83.6906 136.492 82.8831 136.492C82.1056 136.492 81.4476 136.692 80.9093 137.093C80.3769 137.494 79.9732 138.053 79.6981 138.771C79.4229 139.488 79.2853 140.326 79.2853 141.283ZM92.2567 148.173V134.392H94.8497V136.581H94.9932C95.2444 135.84 95.6871 135.257 96.3211 134.832C96.9611 134.401 97.6849 134.186 98.4923 134.186C98.6598 134.186 98.8572 134.192 99.0845 134.204C99.3178 134.216 99.5002 134.231 99.6318 134.249V136.815C99.5241 136.785 99.3327 136.752 99.0576 136.716C98.7824 136.674 98.5073 136.653 98.2322 136.653C97.5981 136.653 97.0329 136.788 96.5364 137.057C96.046 137.32 95.6572 137.688 95.3701 138.16C95.083 138.627 94.9394 139.159 94.9394 139.758V148.173H92.2567ZM105.84 148.478C104.967 148.478 104.178 148.317 103.472 147.994C102.766 147.665 102.207 147.189 101.794 146.567C101.387 145.945 101.184 145.183 101.184 144.279C101.184 143.502 101.334 142.862 101.633 142.359C101.932 141.857 102.335 141.459 102.844 141.166C103.352 140.873 103.92 140.652 104.549 140.502C105.177 140.353 105.817 140.239 106.469 140.161C107.294 140.066 107.964 139.988 108.478 139.928C108.993 139.862 109.367 139.758 109.6 139.614C109.833 139.47 109.95 139.237 109.95 138.914V138.851C109.95 138.068 109.728 137.461 109.286 137.03C108.849 136.599 108.197 136.384 107.33 136.384C106.427 136.384 105.715 136.584 105.195 136.985C104.68 137.38 104.324 137.82 104.127 138.304L101.606 137.73C101.905 136.892 102.341 136.217 102.916 135.702C103.496 135.182 104.163 134.805 104.916 134.572C105.67 134.332 106.463 134.213 107.294 134.213C107.844 134.213 108.427 134.279 109.044 134.41C109.666 134.536 110.246 134.769 110.784 135.11C111.328 135.451 111.774 135.938 112.121 136.572C112.468 137.2 112.641 138.017 112.641 139.022V148.173H110.021V146.289H109.914C109.74 146.636 109.48 146.977 109.133 147.312C108.786 147.647 108.341 147.925 107.796 148.146C107.252 148.368 106.6 148.478 105.84 148.478ZM106.424 146.325C107.165 146.325 107.799 146.179 108.326 145.885C108.858 145.592 109.262 145.21 109.537 144.737C109.818 144.259 109.959 143.747 109.959 143.203V141.426C109.863 141.522 109.678 141.612 109.402 141.695C109.133 141.773 108.825 141.842 108.478 141.902C108.131 141.956 107.793 142.007 107.464 142.054C107.135 142.096 106.86 142.132 106.639 142.162C106.119 142.228 105.643 142.338 105.212 142.494C104.788 142.65 104.447 142.874 104.19 143.167C103.938 143.454 103.813 143.837 103.813 144.315C103.813 144.979 104.058 145.482 104.549 145.823C105.039 146.158 105.664 146.325 106.424 146.325ZM116.214 148.173V134.392H118.807V136.581H118.951C119.202 135.84 119.645 135.257 120.279 134.832C120.919 134.401 121.643 134.186 122.45 134.186C122.618 134.186 122.815 134.192 123.042 134.204C123.276 134.216 123.458 134.231 123.59 134.249V136.815C123.482 136.785 123.29 136.752 123.015 136.716C122.74 136.674 122.465 136.653 122.19 136.653C121.556 136.653 120.991 136.788 120.494 137.057C120.004 137.32 119.615 137.688 119.328 138.16C119.041 138.627 118.897 139.159 118.897 139.758V148.173H116.214ZM128.026 153.341C127.625 153.341 127.261 153.308 126.932 153.243C126.603 153.183 126.357 153.117 126.196 153.045L126.842 150.847C127.332 150.979 127.769 151.035 128.152 151.017C128.535 151 128.873 150.856 129.166 150.587C129.465 150.318 129.728 149.878 129.955 149.268L130.287 148.353L125.245 134.392H128.116L131.606 145.087H131.75L135.24 134.392H138.12L132.441 150.013C132.177 150.73 131.842 151.337 131.436 151.834C131.029 152.336 130.544 152.713 129.982 152.964C129.42 153.216 128.768 153.341 128.026 153.341ZM149.095 148.173H146.152L152.765 129.798H155.968L162.58 148.173H159.637L154.442 133.136H154.299L149.095 148.173ZM149.588 140.978H159.135V143.31H149.588V140.978ZM173.748 142.458V134.392H176.44V148.173H173.802V145.787H173.658C173.341 146.522 172.833 147.136 172.133 147.626C171.439 148.111 170.575 148.353 169.54 148.353C168.655 148.353 167.871 148.158 167.189 147.77C166.514 147.375 165.981 146.792 165.592 146.02C165.21 145.248 165.018 144.294 165.018 143.158V134.392H167.701V142.835C167.701 143.774 167.961 144.522 168.481 145.078C169.002 145.634 169.678 145.912 170.509 145.912C171.012 145.912 171.511 145.787 172.007 145.536C172.51 145.284 172.926 144.905 173.255 144.396C173.59 143.888 173.754 143.242 173.748 142.458ZM185.203 148.443C184.091 148.443 183.098 148.158 182.224 147.59C181.357 147.016 180.675 146.199 180.179 145.141C179.688 144.076 179.443 142.799 179.443 141.31C179.443 139.82 179.691 138.546 180.188 137.488C180.69 136.429 181.378 135.618 182.251 135.056C183.125 134.494 184.115 134.213 185.221 134.213C186.076 134.213 186.764 134.356 187.285 134.643C187.811 134.925 188.218 135.254 188.505 135.63C188.798 136.007 189.025 136.339 189.187 136.626H189.348V129.798H192.031V148.173H189.411V146.029H189.187C189.025 146.322 188.792 146.657 188.487 147.034C188.188 147.411 187.775 147.74 187.249 148.021C186.722 148.302 186.041 148.443 185.203 148.443ZM185.795 146.155C186.567 146.155 187.219 145.951 187.751 145.545C188.29 145.132 188.696 144.561 188.971 143.831C189.253 143.101 189.393 142.252 189.393 141.283C189.393 140.326 189.256 139.488 188.98 138.771C188.705 138.053 188.302 137.494 187.769 137.093C187.237 136.692 186.579 136.492 185.795 136.492C184.988 136.492 184.315 136.701 183.777 137.12C183.238 137.538 182.832 138.11 182.556 138.833C182.287 139.557 182.153 140.374 182.153 141.283C182.153 142.204 182.29 143.032 182.565 143.768C182.841 144.504 183.247 145.087 183.786 145.518C184.33 145.942 185 146.155 185.795 146.155ZM195.86 148.173V134.392H198.542V148.173H195.86ZM197.215 132.266C196.748 132.266 196.347 132.11 196.012 131.799C195.683 131.482 195.519 131.105 195.519 130.669C195.519 130.226 195.683 129.849 196.012 129.538C196.347 129.221 196.748 129.063 197.215 129.063C197.681 129.063 198.079 129.221 198.408 129.538C198.743 129.849 198.91 130.226 198.91 130.669C198.91 131.105 198.743 131.482 198.408 131.799C198.079 132.11 197.681 132.266 197.215 132.266ZM208.584 134.392V136.546H201.057V134.392H208.584ZM203.076 131.09H205.758V144.127C205.758 144.647 205.836 145.039 205.992 145.302C206.147 145.559 206.347 145.736 206.593 145.832C206.844 145.921 207.116 145.966 207.409 145.966C207.624 145.966 207.813 145.951 207.974 145.921C208.136 145.891 208.261 145.868 208.351 145.85L208.836 148.066C208.68 148.125 208.459 148.185 208.172 148.245C207.885 148.311 207.526 148.347 207.095 148.353C206.389 148.365 205.731 148.239 205.121 147.976C204.511 147.713 204.018 147.306 203.641 146.756C203.264 146.205 203.076 145.515 203.076 144.683V131.09ZM217.209 148.451C215.917 148.451 214.789 148.155 213.826 147.563C212.863 146.971 212.116 146.143 211.583 145.078C211.051 144.013 210.785 142.769 210.785 141.346C210.785 139.916 211.051 138.666 211.583 137.595C212.116 136.525 212.863 135.693 213.826 135.101C214.789 134.509 215.917 134.213 217.209 134.213C218.501 134.213 219.628 134.509 220.591 135.101C221.554 135.693 222.302 136.525 222.834 137.595C223.367 138.666 223.633 139.916 223.633 141.346C223.633 142.769 223.367 144.013 222.834 145.078C222.302 146.143 221.554 146.971 220.591 147.563C219.628 148.155 218.501 148.451 217.209 148.451ZM217.218 146.199C218.055 146.199 218.749 145.978 219.299 145.536C219.85 145.093 220.256 144.504 220.52 143.768C220.789 143.032 220.923 142.222 220.923 141.337C220.923 140.457 220.789 139.65 220.52 138.914C220.256 138.172 219.85 137.577 219.299 137.129C218.749 136.68 218.055 136.456 217.218 136.456C216.374 136.456 215.675 136.68 215.118 137.129C214.568 137.577 214.158 138.172 213.889 138.914C213.626 139.65 213.494 140.457 213.494 141.337C213.494 142.222 213.626 143.032 213.889 143.768C214.158 144.504 214.568 145.093 215.118 145.536C215.675 145.978 216.374 146.199 217.218 146.199ZM226.627 148.173V134.392H229.22V136.581H229.364C229.615 135.84 230.058 135.257 230.692 134.832C231.332 134.401 232.055 134.186 232.863 134.186C233.03 134.186 233.228 134.192 233.455 134.204C233.688 134.216 233.871 134.231 234.002 134.249V136.815C233.895 136.785 233.703 136.752 233.428 136.716C233.153 136.674 232.878 136.653 232.603 136.653C231.969 136.653 231.403 136.788 230.907 137.057C230.417 137.32 230.028 137.688 229.741 138.16C229.454 138.627 229.31 139.159 229.31 139.758V148.173H226.627ZM236.324 148.173V134.392H239.007V148.173H236.324ZM237.679 132.266C237.212 132.266 236.811 132.11 236.476 131.799C236.147 131.482 235.983 131.105 235.983 130.669C235.983 130.226 236.147 129.849 236.476 129.538C236.811 129.221 237.212 129.063 237.679 129.063C238.145 129.063 238.543 129.221 238.872 129.538C239.207 129.849 239.374 130.226 239.374 130.669C239.374 131.105 239.207 131.482 238.872 131.799C238.543 132.11 238.145 132.266 237.679 132.266ZM251.345 142.458V134.392H254.037V148.173H251.399V145.787H251.256C250.939 146.522 250.43 147.136 249.73 147.626C249.037 148.111 248.172 148.353 247.138 148.353C246.252 148.353 245.469 148.158 244.787 147.77C244.111 147.375 243.579 146.792 243.19 146.02C242.807 145.248 242.616 144.294 242.616 143.158V134.392H245.298V142.835C245.298 143.774 245.558 144.522 246.079 145.078C246.599 145.634 247.275 145.912 248.107 145.912C248.609 145.912 249.108 145.787 249.605 145.536C250.107 145.284 250.523 144.905 250.852 144.396C251.187 143.888 251.351 143.242 251.345 142.458ZM257.642 148.173V134.392H260.217V136.635H260.387C260.674 135.876 261.144 135.283 261.796 134.859C262.448 134.428 263.228 134.213 264.137 134.213C265.059 134.213 265.83 134.428 266.452 134.859C267.08 135.289 267.544 135.882 267.843 136.635H267.986C268.315 135.9 268.839 135.313 269.557 134.877C270.274 134.434 271.13 134.213 272.123 134.213C273.373 134.213 274.393 134.605 275.182 135.388C275.978 136.172 276.375 137.353 276.375 138.932V148.173H273.693V139.183C273.693 138.25 273.438 137.574 272.93 137.156C272.422 136.737 271.815 136.528 271.109 136.528C270.235 136.528 269.557 136.797 269.072 137.335C268.588 137.867 268.345 138.552 268.345 139.39V148.173H265.672V139.013C265.672 138.265 265.438 137.664 264.972 137.209C264.505 136.755 263.898 136.528 263.15 136.528C262.642 136.528 262.173 136.662 261.742 136.931C261.317 137.194 260.973 137.562 260.71 138.035C260.453 138.507 260.324 139.055 260.324 139.677V148.173H257.642ZM283.461 145.661L283.326 146.639C283.237 147.357 283.084 148.105 282.869 148.882C282.66 149.666 282.441 150.392 282.214 151.062C281.993 151.732 281.81 152.265 281.667 152.659H279.765C279.842 152.289 279.95 151.786 280.088 151.152C280.225 150.524 280.36 149.821 280.491 149.044C280.623 148.266 280.722 147.474 280.787 146.666L280.877 145.661H283.461ZM293.855 129.798H297.22L303.07 144.082H303.285L309.135 129.798H312.499V148.173H309.861V134.877H309.691L304.272 148.146H302.083L296.664 134.868H296.493V148.173H293.855V129.798ZM319.302 129.798V148.173H316.53V129.798H319.302ZM322.434 132.185V129.798H336.654V132.185H330.921V148.173H328.158V132.185H322.434ZM346.483 129.798H349.848L355.698 144.082H355.913L361.763 129.798H365.127V148.173H362.49V134.877H362.319L356.9 148.146H354.711L349.292 134.868H349.121V148.173H346.483V129.798ZM372.953 148.478C372.08 148.478 371.29 148.317 370.585 147.994C369.879 147.665 369.32 147.189 368.907 146.567C368.5 145.945 368.297 145.183 368.297 144.279C368.297 143.502 368.446 142.862 368.745 142.359C369.044 141.857 369.448 141.459 369.957 141.166C370.465 140.873 371.033 140.652 371.661 140.502C372.289 140.353 372.929 140.239 373.581 140.161C374.407 140.066 375.077 139.988 375.591 139.928C376.105 139.862 376.479 139.758 376.713 139.614C376.946 139.47 377.062 139.237 377.062 138.914V138.851C377.062 138.068 376.841 137.461 376.399 137.03C375.962 136.599 375.31 136.384 374.443 136.384C373.539 136.384 372.828 136.584 372.307 136.985C371.793 137.38 371.437 137.82 371.24 138.304L368.718 137.73C369.017 136.892 369.454 136.217 370.028 135.702C370.609 135.182 371.275 134.805 372.029 134.572C372.783 134.332 373.575 134.213 374.407 134.213C374.957 134.213 375.54 134.279 376.156 134.41C376.778 134.536 377.359 134.769 377.897 135.11C378.441 135.451 378.887 135.938 379.234 136.572C379.581 137.2 379.754 138.017 379.754 139.022V148.173H377.134V146.289H377.027C376.853 146.636 376.593 146.977 376.246 147.312C375.899 147.647 375.453 147.925 374.909 148.146C374.365 148.368 373.713 148.478 372.953 148.478ZM373.536 146.325C374.278 146.325 374.912 146.179 375.439 145.885C375.971 145.592 376.375 145.21 376.65 144.737C376.931 144.259 377.071 143.747 377.071 143.203V141.426C376.976 141.522 376.79 141.612 376.515 141.695C376.246 141.773 375.938 141.842 375.591 141.902C375.244 141.956 374.906 142.007 374.577 142.054C374.248 142.096 373.973 142.132 373.752 142.162C373.231 142.228 372.756 142.338 372.325 142.494C371.901 142.65 371.56 142.874 371.302 143.167C371.051 143.454 370.926 143.837 370.926 144.315C370.926 144.979 371.171 145.482 371.661 145.823C372.152 146.158 372.777 146.325 373.536 146.325ZM386.01 139.991V148.173H383.327V134.392H385.902V136.635H386.073C386.39 135.905 386.886 135.319 387.562 134.877C388.244 134.434 389.102 134.213 390.137 134.213C391.076 134.213 391.899 134.41 392.604 134.805C393.31 135.194 393.857 135.774 394.246 136.546C394.635 137.317 394.829 138.271 394.829 139.408V148.173H392.147V139.731C392.147 138.732 391.887 137.951 391.366 137.389C390.846 136.821 390.131 136.537 389.222 136.537C388.6 136.537 388.047 136.671 387.562 136.94C387.084 137.209 386.704 137.604 386.423 138.125C386.147 138.639 386.01 139.261 386.01 139.991ZM398.427 148.173V134.392H401.11V148.173H398.427ZM399.782 132.266C399.315 132.266 398.915 132.11 398.58 131.799C398.251 131.482 398.086 131.105 398.086 130.669C398.086 130.226 398.251 129.849 398.58 129.538C398.915 129.221 399.315 129.063 399.782 129.063C400.249 129.063 400.646 129.221 400.975 129.538C401.31 129.849 401.478 130.226 401.478 130.669C401.478 131.105 401.31 131.482 400.975 131.799C400.646 132.11 400.249 132.266 399.782 132.266ZM404.719 153.341V134.392H407.339V136.626H407.563C407.719 136.339 407.943 136.007 408.236 135.63C408.529 135.254 408.936 134.925 409.456 134.643C409.977 134.356 410.664 134.213 411.52 134.213C412.632 134.213 413.625 134.494 414.499 135.056C415.372 135.618 416.057 136.429 416.553 137.488C417.056 138.546 417.307 139.82 417.307 141.31C417.307 142.799 417.059 144.076 416.562 145.141C416.066 146.199 415.384 147.016 414.516 147.59C413.649 148.158 412.659 148.443 411.547 148.443C410.709 148.443 410.024 148.302 409.492 148.021C408.966 147.74 408.553 147.411 408.254 147.034C407.955 146.657 407.725 146.322 407.563 146.029H407.402V153.341H404.719ZM407.348 141.283C407.348 142.252 407.488 143.101 407.769 143.831C408.051 144.561 408.457 145.132 408.99 145.545C409.522 145.951 410.174 146.155 410.946 146.155C411.747 146.155 412.417 145.942 412.955 145.518C413.494 145.087 413.9 144.504 414.176 143.768C414.457 143.032 414.597 142.204 414.597 141.283C414.597 140.374 414.46 139.557 414.185 138.833C413.915 138.11 413.509 137.538 412.964 137.12C412.426 136.701 411.753 136.492 410.946 136.492C410.168 136.492 409.51 136.692 408.972 137.093C408.439 137.494 408.036 138.053 407.76 138.771C407.485 139.488 407.348 140.326 407.348 141.283ZM424.323 148.478C423.45 148.478 422.66 148.317 421.954 147.994C421.249 147.665 420.689 147.189 420.277 146.567C419.87 145.945 419.666 145.183 419.666 144.279C419.666 143.502 419.816 142.862 420.115 142.359C420.414 141.857 420.818 141.459 421.326 141.166C421.835 140.873 422.403 140.652 423.031 140.502C423.659 140.353 424.299 140.239 424.951 140.161C425.776 140.066 426.446 139.988 426.961 139.928C427.475 139.862 427.849 139.758 428.082 139.614C428.316 139.47 428.432 139.237 428.432 138.914V138.851C428.432 138.068 428.211 137.461 427.768 137.03C427.332 136.599 426.68 136.384 425.812 136.384C424.909 136.384 424.197 136.584 423.677 136.985C423.163 137.38 422.807 137.82 422.609 138.304L420.088 137.73C420.387 136.892 420.824 136.217 421.398 135.702C421.978 135.182 422.645 134.805 423.399 134.572C424.152 134.332 424.945 134.213 425.776 134.213C426.327 134.213 426.91 134.279 427.526 134.41C428.148 134.536 428.728 134.769 429.267 135.11C429.811 135.451 430.256 135.938 430.603 136.572C430.95 137.2 431.124 138.017 431.124 139.022V148.173H428.504V146.289H428.396C428.223 146.636 427.963 146.977 427.616 147.312C427.269 147.647 426.823 147.925 426.279 148.146C425.735 148.368 425.083 148.478 424.323 148.478ZM424.906 146.325C425.648 146.325 426.282 146.179 426.808 145.885C427.341 145.592 427.744 145.21 428.019 144.737C428.301 144.259 428.441 143.747 428.441 143.203V141.426C428.345 141.522 428.16 141.612 427.885 141.695C427.616 141.773 427.308 141.842 426.961 141.902C426.614 141.956 426.276 142.007 425.947 142.054C425.618 142.096 425.343 142.132 425.121 142.162C424.601 142.228 424.126 142.338 423.695 142.494C423.27 142.65 422.929 142.874 422.672 143.167C422.421 143.454 422.295 143.837 422.295 144.315C422.295 144.979 422.54 145.482 423.031 145.823C423.521 146.158 424.146 146.325 424.906 146.325ZM437.38 129.798V148.173H434.697V129.798H437.38Z" fill="white"/>
</g>
<g filter="url(#filter4_d_138_1194)">
<path d="M55.1975 181.181V178.794H69.4183V181.181H63.6851V197.169H60.9217V181.181H55.1975ZM76.2864 197.447C74.9286 197.447 73.7593 197.157 72.7783 196.577C71.8034 195.991 71.0497 195.168 70.5174 194.11C69.991 193.045 69.7278 191.798 69.7278 190.368C69.7278 188.957 69.991 187.713 70.5174 186.636C71.0497 185.559 71.7914 184.719 72.7424 184.115C73.6995 183.511 74.818 183.209 76.098 183.209C76.8756 183.209 77.6292 183.337 78.359 183.594C79.0887 183.852 79.7437 184.255 80.3239 184.806C80.9041 185.356 81.3616 186.071 81.6966 186.95C82.0315 187.823 82.199 188.885 82.199 190.135V191.086H71.2441V189.076H79.5702C79.5702 188.371 79.4266 187.745 79.1395 187.201C78.8524 186.651 78.4487 186.217 77.9283 185.9C77.4139 185.583 76.8098 185.425 76.1159 185.425C75.3623 185.425 74.7043 185.61 74.1421 185.981C73.5858 186.346 73.1552 186.824 72.8501 187.417C72.551 188.003 72.4015 188.64 72.4015 189.328V190.898C72.4015 191.819 72.563 192.602 72.886 193.248C73.215 193.894 73.6725 194.388 74.2587 194.729C74.8449 195.064 75.5298 195.231 76.3133 195.231C76.8217 195.231 77.2853 195.159 77.704 195.016C78.1227 194.866 78.4846 194.645 78.7896 194.352C79.0947 194.059 79.328 193.697 79.4895 193.266L82.0286 193.724C81.8252 194.472 81.4603 195.127 80.934 195.689C80.4136 196.245 79.7586 196.679 78.9691 196.99C78.1855 197.295 77.2913 197.447 76.2864 197.447ZM89.186 197.474C88.3128 197.474 87.5232 197.313 86.8174 196.99C86.1116 196.661 85.5523 196.185 85.1396 195.563C84.7329 194.941 84.5295 194.178 84.5295 193.275C84.5295 192.498 84.6791 191.858 84.9781 191.355C85.2772 190.853 85.6809 190.455 86.1894 190.162C86.6978 189.869 87.266 189.648 87.8941 189.498C88.5221 189.349 89.1621 189.235 89.8141 189.157C90.6395 189.061 91.3094 188.984 91.8238 188.924C92.3382 188.858 92.7121 188.753 92.9453 188.61C93.1786 188.466 93.2953 188.233 93.2953 187.91V187.847C93.2953 187.064 93.0739 186.457 92.6313 186.026C92.1947 185.595 91.5427 185.38 90.6754 185.38C89.7722 185.38 89.0604 185.58 88.5401 185.981C88.0257 186.376 87.6698 186.815 87.4724 187.3L84.9512 186.726C85.2503 185.888 85.6869 185.212 86.2611 184.698C86.8413 184.178 87.5083 183.801 88.2619 183.567C89.0156 183.328 89.8081 183.209 90.6395 183.209C91.1898 183.209 91.773 183.274 92.3891 183.406C93.0111 183.532 93.5913 183.765 94.1297 184.106C94.674 184.447 95.1196 184.934 95.4665 185.568C95.8134 186.196 95.9869 187.013 95.9869 188.018V197.169H93.367V195.285H93.2594C93.0859 195.632 92.8257 195.973 92.4788 196.308C92.1319 196.643 91.6863 196.921 91.142 197.142C90.5977 197.364 89.9457 197.474 89.186 197.474ZM89.7692 195.321C90.5109 195.321 91.1449 195.174 91.6713 194.881C92.2037 194.588 92.6074 194.205 92.8825 193.733C93.1637 193.254 93.3042 192.743 93.3042 192.199V190.422C93.2085 190.518 93.0231 190.608 92.748 190.691C92.4788 190.769 92.1708 190.838 91.8238 190.898C91.4769 190.952 91.139 191.002 90.81 191.05C90.481 191.092 90.2059 191.128 89.9846 191.158C89.4642 191.224 88.9887 191.334 88.558 191.49C88.1333 191.645 87.7924 191.87 87.5352 192.163C87.284 192.45 87.1583 192.833 87.1583 193.311C87.1583 193.975 87.4036 194.478 87.8941 194.819C88.3845 195.153 89.0096 195.321 89.7692 195.321ZM99.56 197.169V183.388H102.135V185.631H102.305C102.593 184.871 103.062 184.279 103.714 183.855C104.366 183.424 105.147 183.209 106.056 183.209C106.977 183.209 107.749 183.424 108.371 183.855C108.999 184.285 109.462 184.877 109.761 185.631H109.905C110.234 184.895 110.757 184.309 111.475 183.873C112.193 183.43 113.048 183.209 114.041 183.209C115.291 183.209 116.311 183.6 117.1 184.384C117.896 185.168 118.294 186.349 118.294 187.928V197.169H115.611V188.179C115.611 187.246 115.357 186.57 114.848 186.151C114.34 185.733 113.733 185.523 113.027 185.523C112.154 185.523 111.475 185.793 110.99 186.331C110.506 186.863 110.264 187.548 110.264 188.386V197.169H107.59V188.009C107.59 187.261 107.357 186.66 106.89 186.205C106.424 185.751 105.817 185.523 105.069 185.523C104.56 185.523 104.091 185.658 103.66 185.927C103.236 186.19 102.892 186.558 102.628 187.031C102.371 187.503 102.243 188.051 102.243 188.673V197.169H99.56ZM138.813 183.621C138.717 182.772 138.322 182.114 137.629 181.647C136.935 181.175 136.062 180.939 135.009 180.939C134.255 180.939 133.603 181.058 133.053 181.298C132.503 181.531 132.075 181.854 131.77 182.267C131.471 182.673 131.321 183.137 131.321 183.657C131.321 184.094 131.423 184.471 131.626 184.788C131.836 185.105 132.108 185.371 132.443 185.586C132.784 185.796 133.149 185.972 133.537 186.116C133.926 186.253 134.3 186.367 134.659 186.457L136.453 186.923C137.039 187.067 137.641 187.261 138.257 187.506C138.873 187.751 139.444 188.074 139.97 188.475C140.497 188.876 140.921 189.372 141.244 189.965C141.573 190.557 141.738 191.266 141.738 192.091C141.738 193.132 141.469 194.056 140.93 194.863C140.398 195.671 139.623 196.308 138.607 196.774C137.596 197.241 136.373 197.474 134.937 197.474C133.561 197.474 132.371 197.256 131.366 196.819C130.361 196.383 129.575 195.764 129.006 194.962C128.438 194.155 128.124 193.198 128.064 192.091H130.846C130.9 192.755 131.115 193.308 131.492 193.751C131.875 194.187 132.362 194.513 132.954 194.729C133.552 194.938 134.207 195.043 134.919 195.043C135.703 195.043 136.399 194.92 137.01 194.675C137.626 194.424 138.11 194.077 138.463 193.634C138.816 193.186 138.992 192.662 138.992 192.064C138.992 191.52 138.837 191.074 138.526 190.727C138.221 190.38 137.805 190.093 137.279 189.866C136.758 189.639 136.169 189.438 135.511 189.265L133.34 188.673C131.869 188.272 130.702 187.683 129.841 186.905C128.986 186.128 128.558 185.099 128.558 183.819C128.558 182.76 128.845 181.836 129.419 181.046C129.993 180.257 130.771 179.644 131.752 179.207C132.733 178.764 133.839 178.543 135.072 178.543C136.316 178.543 137.413 178.761 138.364 179.198C139.321 179.635 140.075 180.236 140.625 181.001C141.176 181.761 141.463 182.634 141.487 183.621H138.813ZM144.835 197.169V183.388H147.518V197.169H144.835ZM146.19 181.262C145.724 181.262 145.323 181.106 144.988 180.795C144.659 180.478 144.495 180.101 144.495 179.665C144.495 179.222 144.659 178.845 144.988 178.534C145.323 178.217 145.724 178.059 146.19 178.059C146.657 178.059 147.055 178.217 147.384 178.534C147.718 178.845 147.886 179.222 147.886 179.665C147.886 180.101 147.718 180.478 147.384 180.795C147.055 181.106 146.657 181.262 146.19 181.262ZM150.84 197.169V195.33L158.305 185.846V185.721H151.082V183.388H161.651V185.344L154.474 194.711V194.836H161.903V197.169H150.84ZM170.612 197.447C169.255 197.447 168.085 197.157 167.104 196.577C166.129 195.991 165.376 195.168 164.843 194.11C164.317 193.045 164.054 191.798 164.054 190.368C164.054 188.957 164.317 187.713 164.843 186.636C165.376 185.559 166.117 184.719 167.068 184.115C168.025 183.511 169.144 183.209 170.424 183.209C171.201 183.209 171.955 183.337 172.685 183.594C173.415 183.852 174.07 184.255 174.65 184.806C175.23 185.356 175.688 186.071 176.022 186.95C176.357 187.823 176.525 188.885 176.525 190.135V191.086H165.57V189.076H173.896C173.896 188.371 173.753 187.745 173.465 187.201C173.178 186.651 172.775 186.217 172.254 185.9C171.74 185.583 171.136 185.425 170.442 185.425C169.688 185.425 169.03 185.61 168.468 185.981C167.912 186.346 167.481 186.824 167.176 187.417C166.877 188.003 166.727 188.64 166.727 189.328V190.898C166.727 191.819 166.889 192.602 167.212 193.248C167.541 193.894 167.998 194.388 168.585 194.729C169.171 195.064 169.856 195.231 170.639 195.231C171.148 195.231 171.611 195.159 172.03 195.016C172.449 194.866 172.81 194.645 173.116 194.352C173.421 194.059 173.654 193.697 173.815 193.266L176.354 193.724C176.151 194.472 175.786 195.127 175.26 195.689C174.739 196.245 174.084 196.679 173.295 196.99C172.511 197.295 171.617 197.447 170.612 197.447ZM187.955 194.89C187.465 194.89 187.043 194.717 186.69 194.37C186.337 194.017 186.161 193.592 186.161 193.096C186.161 192.605 186.337 192.187 186.69 191.84C187.043 191.487 187.465 191.31 187.955 191.31C188.446 191.31 188.868 191.487 189.22 191.84C189.573 192.187 189.75 192.605 189.75 193.096C189.75 193.425 189.666 193.727 189.499 194.002C189.337 194.271 189.122 194.487 188.853 194.648C188.583 194.81 188.284 194.89 187.955 194.89ZM187.955 185.685C187.465 185.685 187.043 185.511 186.69 185.165C186.337 184.812 186.161 184.387 186.161 183.89C186.161 183.4 186.337 182.981 186.69 182.634C187.043 182.281 187.465 182.105 187.955 182.105C188.446 182.105 188.868 182.281 189.22 182.634C189.573 182.981 189.75 183.4 189.75 183.89C189.75 184.219 189.666 184.522 189.499 184.797C189.337 185.066 189.122 185.281 188.853 185.443C188.583 185.604 188.284 185.685 187.955 185.685ZM199.994 197.169V195.159L206.211 188.717C206.875 188.018 207.423 187.405 207.853 186.878C208.29 186.346 208.616 185.84 208.831 185.362C209.047 184.883 209.154 184.375 209.154 183.837C209.154 183.227 209.011 182.7 208.724 182.258C208.436 181.809 208.045 181.465 207.548 181.226C207.052 180.981 206.492 180.858 205.87 180.858C205.212 180.858 204.638 180.993 204.148 181.262C203.657 181.531 203.28 181.911 203.017 182.401C202.754 182.892 202.622 183.466 202.622 184.124H199.976C199.976 183.005 200.233 182.027 200.747 181.19C201.262 180.352 201.968 179.704 202.865 179.243C203.762 178.776 204.782 178.543 205.924 178.543C207.079 178.543 208.095 178.773 208.975 179.234C209.86 179.689 210.551 180.311 211.047 181.1C211.544 181.884 211.792 182.769 211.792 183.756C211.792 184.438 211.663 185.105 211.406 185.757C211.155 186.409 210.715 187.135 210.087 187.937C209.459 188.732 208.586 189.698 207.467 190.835L203.816 194.657V194.792H212.088V197.169H199.994ZM223.644 186.815V189.148H215.497V186.815H223.644ZM226.798 193.58V191.337L234.738 178.794H236.506V182.096H235.384L229.705 191.086V191.23H240.588V193.58H226.798ZM235.51 197.169V192.898L235.528 191.876V178.794H238.156V197.169H235.51Z" fill="white"/>
</g>
<g filter="url(#filter5_d_138_1194)">
<path d="M23.9008 136.539C23.0283 136.539 22.1915 136.163 21.5746 135.493C20.9576 134.824 20.611 133.916 20.611 132.969C20.611 132.023 20.9576 131.115 21.5746 130.445C22.1915 129.776 23.0283 129.4 23.9008 129.4C24.7733 129.4 25.6101 129.776 26.227 130.445C26.844 131.115 27.1906 132.023 27.1906 132.969C27.1906 133.438 27.1055 133.902 26.9402 134.335C26.7748 134.768 26.5325 135.162 26.227 135.493C25.9215 135.825 25.5589 136.088 25.1597 136.267C24.7606 136.447 24.3328 136.539 23.9008 136.539ZM23.9008 122.974C21.4578 122.974 19.1149 124.027 17.3874 125.902C15.6599 127.776 14.6895 130.318 14.6895 132.969C14.6895 140.465 23.9008 151.531 23.9008 151.531C23.9008 151.531 33.1122 140.465 33.1122 132.969C33.1122 130.318 32.1417 127.776 30.4142 125.902C28.6868 124.027 26.3438 122.974 23.9008 122.974Z" fill="#D3DCE6"/>
</g>
<g filter="url(#filter6_d_138_1194)">
<path d="M24.0547 70.8728C22.4309 70.8728 20.823 71.2272 19.3227 71.9159C17.8225 72.6045 16.4594 73.6138 15.3112 74.8862C12.9922 77.4559 11.6895 80.9412 11.6895 84.5754C11.6895 88.2096 12.9922 91.6949 15.3112 94.2646C16.4594 95.537 17.8225 96.5463 19.3227 97.235C20.823 97.9236 22.4309 98.278 24.0547 98.278C27.3342 98.278 30.4793 96.8343 32.7983 94.2646C35.1172 91.6949 36.42 88.2096 36.42 84.5754C36.42 82.776 36.1001 80.9941 35.4787 79.3316C34.8573 77.6692 33.9465 76.1586 32.7983 74.8862C31.65 73.6138 30.2869 72.6045 28.7867 71.9159C27.2865 71.2272 25.6785 70.8728 24.0547 70.8728ZM29.2481 90.3305L22.8182 85.9457V77.7241H24.673V84.8495L30.2373 88.5492L29.2481 90.3305Z" fill="#D3DCE6"/>
</g>
<g filter="url(#filter7_d_138_1194)">
<path d="M27.6733 183.993C28.7117 183.993 29.5544 184.836 29.5544 185.874V193.129C29.5544 194.697 28.9314 196.201 27.8225 197.31C26.7136 198.419 25.2096 199.042 23.6413 199.042C22.0731 199.042 20.5691 198.419 19.4602 197.31C18.3513 196.201 17.7283 194.697 17.7283 193.129V185.874C17.7283 184.836 18.5699 183.993 19.6094 183.993H27.6733ZM12.6203 183.993L17.3306 183.991C16.9432 184.458 16.71 185.033 16.6631 185.638L16.6523 185.874V193.129C16.6523 194.347 16.9651 195.493 17.5122 196.49C16.7758 196.811 15.971 196.944 15.1704 196.877C14.3698 196.809 13.5986 196.543 12.9265 196.103C12.2544 195.663 11.7025 195.062 11.3207 194.355C10.9388 193.648 10.739 192.857 10.7393 192.054V185.874C10.7398 185.375 10.9383 184.897 11.2912 184.544C11.6441 184.192 12.1214 183.994 12.6203 183.993ZM29.9532 183.991L34.6559 183.993C35.6942 183.993 36.537 184.836 36.537 185.874V192.055C36.5373 192.858 36.3376 193.649 35.956 194.355C35.5744 195.062 35.0228 195.663 34.3511 196.103C33.6793 196.543 32.9085 196.809 32.1083 196.877C31.308 196.945 30.5035 196.812 29.7672 196.491L29.8274 196.382C30.2885 195.508 30.5691 194.523 30.6207 193.479L30.6293 193.129V185.874C30.6293 185.158 30.3756 184.503 29.9532 183.991ZM23.6381 175.394C24.1322 175.394 24.6214 175.491 25.0778 175.68C25.5343 175.869 25.949 176.147 26.2984 176.496C26.6477 176.845 26.9248 177.26 27.1139 177.716C27.303 178.173 27.4003 178.662 27.4003 179.156C27.4003 179.65 27.303 180.139 27.1139 180.596C26.9248 181.052 26.6477 181.467 26.2984 181.816C25.949 182.166 25.5343 182.443 25.0778 182.632C24.6214 182.821 24.1322 182.918 23.6381 182.918C22.6403 182.918 21.6834 182.522 20.9779 181.816C20.2723 181.111 19.8759 180.154 19.8759 179.156C19.8759 178.158 20.2723 177.201 20.9779 176.496C21.6834 175.79 22.6403 175.394 23.6381 175.394ZM32.2406 176.469C32.6641 176.469 33.0834 176.552 33.4746 176.714C33.8659 176.876 34.2214 177.114 34.5208 177.413C34.8202 177.713 35.0578 178.068 35.2198 178.46C35.3819 178.851 35.4653 179.27 35.4653 179.694C35.4653 180.117 35.3819 180.536 35.2198 180.928C35.0578 181.319 34.8202 181.674 34.5208 181.974C34.2214 182.273 33.8659 182.511 33.4746 182.673C33.0834 182.835 32.6641 182.918 32.2406 182.918C31.3853 182.918 30.5651 182.579 29.9604 181.974C29.3556 181.369 29.0159 180.549 29.0159 179.694C29.0159 178.838 29.3556 178.018 29.9604 177.413C30.5651 176.809 31.3853 176.469 32.2406 176.469ZM15.0357 176.469C15.4591 176.469 15.8785 176.552 16.2697 176.714C16.6609 176.876 17.0164 177.114 17.3159 177.413C17.6153 177.713 17.8528 178.068 18.0149 178.46C18.177 178.851 18.2604 179.27 18.2604 179.694C18.2604 180.117 18.177 180.536 18.0149 180.928C17.8528 181.319 17.6153 181.674 17.3159 181.974C17.0164 182.273 16.6609 182.511 16.2697 182.673C15.8785 182.835 15.4591 182.918 15.0357 182.918C14.1804 182.918 13.3602 182.579 12.7554 181.974C12.1507 181.369 11.8109 180.549 11.8109 179.694C11.8109 178.838 12.1507 178.018 12.7554 177.413C13.3602 176.809 14.1804 176.469 15.0357 176.469Z" fill="#D3DCE6"/>
</g>
<defs>
<filter id="filter0_d_138_1194" x="43.1583" y="3.78598" width="232.167" height="50.1121" filterUnits="userSpaceOnUse" color-interpolation-filters="sRGB">
<feFlood flood-opacity="0" result="BackgroundImageFix"/>
<feColorMatrix in="SourceAlpha" type="matrix" values="0 0 0 0 0 0 0 0 0 0 0 0 0 0 0 0 0 0 127 0" result="hardAlpha"/>
<feOffset dy="2.10545"/>
<feGaussianBlur stdDeviation="6.57954"/>
<feComposite in2="hardAlpha" operator="out"/>
<feColorMatrix type="matrix" values="0 0 0 0 1 0 0 0 0 1 0 0 0 0 1 0 0 0 0.27 0"/>
<feBlend mode="normal" in2="BackgroundImageFix" result="effect1_dropShadow_138_1194"/>
<feBlend mode="normal" in="SourceGraphic" in2="effect1_dropShadow_138_1194" result="shape"/>
</filter>
<filter id="filter1_d_138_1194" x="0.0287695" y="0.435481" width="47.6378" height="56.9002" filterUnits="userSpaceOnUse" color-interpolation-filters="sRGB">
<feFlood flood-opacity="0" result="BackgroundImageFix"/>
<feColorMatrix in="SourceAlpha" type="matrix" values="0 0 0 0 0 0 0 0 0 0 0 0 0 0 0 0 0 0 127 0" result="hardAlpha"/>
<feOffset dy="3.41111"/>
<feGaussianBlur stdDeviation="5.32985"/>
<feComposite in2="hardAlpha" operator="out"/>
<feColorMatrix type="matrix" values="0 0 0 0 0 0 0 0 0 0.439216 0 0 0 0 0.941176 0 0 0 1 0"/>
<feBlend mode="normal" in2="BackgroundImageFix" result="effect1_dropShadow_138_1194"/>
<feBlend mode="normal" in="SourceGraphic" in2="effect1_dropShadow_138_1194" result="shape"/>
</filter>
<filter id="filter2_d_138_1194" x="31.6372" y="52.976" width="301.141" height="69.3264" filterUnits="userSpaceOnUse" color-interpolation-filters="sRGB">
<feFlood flood-opacity="0" result="BackgroundImageFix"/>
<feColorMatrix in="SourceAlpha" type="matrix" values="0 0 0 0 0 0 0 0 0 0 0 0 0 0 0 0 0 0 127 0" result="hardAlpha"/>
<feOffset dy="2.79975"/>
<feGaussianBlur stdDeviation="12.5989"/>
<feComposite in2="hardAlpha" operator="out"/>
<feColorMatrix type="matrix" values="0 0 0 0 0.939297 0 0 0 0 0.860998 0 0 0 0 0.860998 0 0 0 0.57 0"/>
<feBlend mode="normal" in2="BackgroundImageFix" result="effect1_dropShadow_138_1194"/>
<feBlend mode="normal" in="SourceGraphic" in2="effect1_dropShadow_138_1194" result="shape"/>
</filter>
<filter id="filter3_d_138_1194" x="39.305" y="115.064" width="414.873" height="57.8756" filterUnits="userSpaceOnUse" color-interpolation-filters="sRGB">
<feFlood flood-opacity="0" result="BackgroundImageFix"/>
<feColorMatrix in="SourceAlpha" type="matrix" values="0 0 0 0 0 0 0 0 0 0 0 0 0 0 0 0 0 0 127 0" result="hardAlpha"/>
<feOffset dy="2.79975"/>
<feGaussianBlur stdDeviation="8.39925"/>
<feComposite in2="hardAlpha" operator="out"/>
<feColorMatrix type="matrix" values="0 0 0 0 0.949297 0 0 0 0 0.912067 0 0 0 0 0.912067 0 0 0 0.35 0"/>
<feBlend mode="normal" in2="BackgroundImageFix" result="effect1_dropShadow_138_1194"/>
<feBlend mode="normal" in="SourceGraphic" in2="effect1_dropShadow_138_1194" result="shape"/>
</filter>
<filter id="filter4_d_138_1194" x="38.3988" y="164.06" width="218.988" height="53.0125" filterUnits="userSpaceOnUse" color-interpolation-filters="sRGB">
<feFlood flood-opacity="0" result="BackgroundImageFix"/>
<feColorMatrix in="SourceAlpha" type="matrix" values="0 0 0 0 0 0 0 0 0 0 0 0 0 0 0 0 0 0 127 0" result="hardAlpha"/>
<feOffset dy="2.79975"/>
<feGaussianBlur stdDeviation="8.39925"/>
<feComposite in2="hardAlpha" operator="out"/>
<feColorMatrix type="matrix" values="0 0 0 0 0.949297 0 0 0 0 0.912067 0 0 0 0 0.912067 0 0 0 0.35 0"/>
<feBlend mode="normal" in2="BackgroundImageFix" result="effect1_dropShadow_138_1194"/>
<feBlend mode="normal" in="SourceGraphic" in2="effect1_dropShadow_138_1194" result="shape"/>
</filter>
<filter id="filter5_d_138_1194" x="4.02975" y="115.726" width="39.7423" height="49.8763" filterUnits="userSpaceOnUse" color-interpolation-filters="sRGB">
<feFlood flood-opacity="0" result="BackgroundImageFix"/>
<feColorMatrix in="SourceAlpha" type="matrix" values="0 0 0 0 0 0 0 0 0 0 0 0 0 0 0 0 0 0 127 0" result="hardAlpha"/>
<feOffset dy="3.41111"/>
<feGaussianBlur stdDeviation="5.32985"/>
<feComposite in2="hardAlpha" operator="out"/>
<feColorMatrix type="matrix" values="0 0 0 0 0 0 0 0 0 0.439216 0 0 0 0 0.941176 0 0 0 0.62 0"/>
<feBlend mode="normal" in2="BackgroundImageFix" result="effect1_dropShadow_138_1194"/>
<feBlend mode="normal" in="SourceGraphic" in2="effect1_dropShadow_138_1194" result="shape"/>
</filter>
<filter id="filter6_d_138_1194" x="1.02975" y="63.6242" width="46.0499" height="48.7247" filterUnits="userSpaceOnUse" color-interpolation-filters="sRGB">
<feFlood flood-opacity="0" result="BackgroundImageFix"/>
<feColorMatrix in="SourceAlpha" type="matrix" values="0 0 0 0 0 0 0 0 0 0 0 0 0 0 0 0 0 0 127 0" result="hardAlpha"/>
<feOffset dy="3.41111"/>
<feGaussianBlur stdDeviation="5.32985"/>
<feComposite in2="hardAlpha" operator="out"/>
<feColorMatrix type="matrix" values="0 0 0 0 0 0 0 0 0 0.439216 0 0 0 0 0.941176 0 0 0 0.62 0"/>
<feBlend mode="normal" in2="BackgroundImageFix" result="effect1_dropShadow_138_1194"/>
<feBlend mode="normal" in="SourceGraphic" in2="effect1_dropShadow_138_1194" result="shape"/>
</filter>
<filter id="filter7_d_138_1194" x="0.0792055" y="168.143" width="47.118" height="44.9681" filterUnits="userSpaceOnUse" color-interpolation-filters="sRGB">
<feFlood flood-opacity="0" result="BackgroundImageFix"/>
<feColorMatrix in="SourceAlpha" type="matrix" values="0 0 0 0 0 0 0 0 0 0 0 0 0 0 0 0 0 0 127 0" result="hardAlpha"/>
<feOffset dy="3.4087"/>
<feGaussianBlur stdDeviation="5.33003"/>
<feComposite in2="hardAlpha" operator="out"/>
<feColorMatrix type="matrix" values="0 0 0 0 0 0 0 0 0 0.439216 0 0 0 0 0.941176 0 0 0 0.67 0"/>
<feBlend mode="normal" in2="BackgroundImageFix" result="effect1_dropShadow_138_1194"/>
<feBlend mode="normal" in="SourceGraphic" in2="effect1_dropShadow_138_1194" result="shape"/>
</filter>
</defs>
</svg>
