<svg width="177" height="258" viewBox="0 0 177 258" fill="none" xmlns="http://www.w3.org/2000/svg">
<path d="M88.5206 198.831C125.828 198.831 156.072 197.977 156.072 196.924C156.072 195.871 125.828 195.017 88.5206 195.017C51.2127 195.017 20.9688 195.871 20.9688 196.924C20.9688 197.977 51.2127 198.831 88.5206 198.831Z" fill="#D8DFEA"/>
<path d="M176.569 19.6292V38.168C176.569 68.2771 152.166 92.6937 122.073 92.6937H114.443L122.912 83.9586C147.773 83.5114 167.85 63.1409 167.85 38.168V23.9916H135.152L136.242 15.2676H172.21C174.618 15.2668 176.569 17.219 176.569 19.6292Z" fill="#BBB4A4"/>
<path d="M116.623 145.223V154.852H59.9473V145.223C59.9473 144.438 60.3722 143.708 61.0589 143.326L65.3533 140.905C72.7864 136.718 77.386 128.855 77.386 120.316V110.142H99.1845V120.316C99.1845 128.855 103.784 136.717 111.217 140.905L115.512 143.326C116.198 143.708 116.623 144.438 116.623 145.223Z" fill="#BBB4A4"/>
<path d="M116.623 145.223V154.852H111.173V145.223C111.173 144.438 110.748 143.708 110.062 143.326L105.767 140.905C98.334 136.718 93.7344 128.855 93.7344 120.316V110.142H99.1842V120.316C99.1842 128.855 103.784 136.717 111.217 140.905L115.511 143.326C116.198 143.708 116.623 144.438 116.623 145.223Z" fill="#616161"/>
<path d="M105.722 101.636V107.961C105.722 110.97 103.28 113.413 100.272 113.413H76.2936C73.2854 113.413 70.8438 110.97 70.8438 107.961V101.636H105.722Z" fill="#BBB4A4"/>
<path d="M99.1832 113.413H77.3848V116.619H99.1832V113.413Z" fill="#616161"/>
<path d="M125.341 152.672V190.84H51.2266V152.672C51.2266 151.473 52.2077 150.491 53.4064 150.491H123.161C124.361 150.491 125.341 151.473 125.341 152.672Z" fill="#343B49"/>
<path d="M125.34 152.672V190.84H120.981V152.672C120.981 151.473 120 150.491 118.801 150.491H123.16C124.36 150.491 125.34 151.473 125.34 152.672Z" fill="#262D38"/>
<path d="M131.879 189.749V194.111C131.879 195.311 130.898 196.292 129.7 196.292H46.8654C45.6667 196.292 44.6855 195.311 44.6855 194.111V189.749C44.6855 188.55 45.6667 187.568 46.8654 187.568H129.7C130.899 187.568 131.879 188.55 131.879 189.749Z" fill="#262D38"/>
<path d="M131.881 189.749V194.111C131.881 195.311 130.9 196.292 129.701 196.292H125.342C126.541 196.292 127.522 195.311 127.522 194.111V189.749C127.522 188.55 126.541 187.568 125.342 187.568H129.701C130.901 187.568 131.881 188.55 131.881 189.749Z" fill="#171C23"/>
<path d="M114.441 161.395V176.662C114.441 177.861 113.46 178.843 112.261 178.843H64.3048C63.1061 178.843 62.125 177.861 62.125 176.662V161.395C62.125 160.195 63.1061 159.214 64.3048 159.214H112.261C113.461 159.214 114.441 160.195 114.441 161.395Z" fill="#BBB4A4"/>
<path d="M105.724 101.636V107.961C105.724 110.97 103.282 113.413 100.274 113.413H95.9141C98.9222 113.413 101.364 110.97 101.364 107.961V101.636H105.724Z" fill="#616161"/>
<path d="M65.3954 92.6937H54.4961C24.4036 92.6937 0 68.2771 0 38.168V19.6296C0 17.2194 1.95108 15.2676 4.35969 15.2676H40.3273V23.9916H8.71938V38.168C8.71938 63.1409 28.7959 83.5114 53.6571 83.9586L65.3954 92.6937Z" fill="#BBB4A4"/>
<path d="M141.69 6.54297V10.905C141.69 63.9037 117.777 106.87 88.2834 106.87C58.79 106.87 34.877 63.9041 34.877 10.905V6.54297H141.69Z" fill="#BBB4A4"/>
<path d="M35.368 23.9916H31.0083C30.7903 21.1235 30.6487 18.212 30.5723 15.2676H34.932C35.0083 18.2117 35.15 21.1235 35.368 23.9916Z" fill="#616161"/>
<path d="M60.338 92.693H55.9783C53.5478 90.0103 51.2371 86.9787 49.0898 83.6416C50.5941 83.827 52.1088 83.9253 53.6568 83.9579C55.7495 87.1749 57.9839 90.0975 60.338 92.693Z" fill="#616161"/>
<path d="M105.723 101.636V103.817C100.252 107.208 94.388 109.051 88.2845 109.051C82.181 109.051 76.317 107.208 70.8457 103.817V101.636C76.317 105.027 82.181 106.87 88.2845 106.87C94.388 106.87 100.252 105.027 105.723 101.636Z" fill="#616161"/>
<path d="M141.691 6.54297V10.905C141.691 62.2463 119.249 104.177 91.0312 106.75C118.454 104.144 128.612 62.2248 128.612 10.905V6.54297H141.691Z" fill="#616161"/>
<path d="M147.14 5.45249C147.14 6.95754 146.529 8.32057 145.548 9.3128C144.557 10.2943 143.194 10.905 141.69 10.905H34.8775C31.8694 10.905 29.4277 8.46221 29.4277 5.45249C29.4277 3.94744 30.038 2.58442 31.0191 1.59218C32.011 0.610694 33.3733 0 34.8775 0H141.69C144.699 0 147.14 2.44278 147.14 5.45249Z" fill="#BBB4A4"/>
<path d="M141.69 10.9053C141.69 12.3666 141.668 13.8171 141.635 15.2673H34.9315C34.8988 13.8167 34.877 12.3666 34.877 10.9053H141.69Z" fill="#616161"/>
<path d="M147.14 5.45249C147.14 6.95754 146.53 8.32057 145.549 9.3128C144.557 10.2943 143.195 10.905 141.691 10.905H129.701C131.205 10.905 132.568 10.2943 133.56 9.3128C134.541 8.32057 135.151 6.95716 135.151 5.45249C135.151 2.44278 132.71 0 129.701 0H141.691C144.699 0 147.14 2.44278 147.14 5.45249Z" fill="#616161"/>
<path d="M114.442 161.395V176.662C114.442 177.862 113.461 178.843 112.262 178.843H68.9922C77.7987 178.669 106.813 176.793 106.813 159.214H112.262C113.461 159.214 114.442 160.196 114.442 161.395Z" fill="#616161"/>
<path d="M64.3066 171.21V162.288C64.3066 161.795 64.7058 161.396 65.1983 161.396H84.7428C84.7428 161.396 69.2114 163.031 64.3066 171.21Z" fill="#FAFAFA"/>
<path d="M53.6777 162.486V153.564C53.6777 153.071 54.0769 152.672 54.5694 152.672H74.1139C74.1139 152.672 58.5821 154.307 53.6777 162.486Z" fill="#4E5868"/>
<path d="M88.2839 103.598C76.4474 103.598 43.6188 78.6149 39.6406 19.6289H52.5888C55.8476 91.7991 88.2839 103.598 88.2839 103.598Z" fill="#FAFAFA"/>
<path d="M65.3945 146.129C65.3945 146.129 80.6534 136.315 80.6534 122.138V146.129H65.3945Z" fill="#FAFAFA"/>
<path d="M37.0572 2.18066V5.45216H31.6074C31.6074 3.6527 33.0679 2.18066 34.8774 2.18066H37.0572Z" fill="#FAFAFA"/>
<path d="M144.907 15.2666C144.831 18.2111 144.689 21.1225 144.46 23.9906H135.152L136.242 15.2666H144.907Z" fill="#616161"/>
<path d="M126.313 83.7725C124.176 87.0547 121.898 90.0429 119.5 92.693H114.443L118.302 88.7237L122.912 83.9582C124.057 83.936 125.19 83.8707 126.313 83.7725Z" fill="#616161"/>
<path d="M27.6693 251.436V231.917H35.732C37.1933 231.917 38.4545 232.181 39.5155 232.708C40.5829 233.229 41.4057 233.979 41.9839 234.958C42.5621 235.93 42.8512 237.083 42.8512 238.417C42.8512 239.77 42.5557 240.92 41.9648 241.867C41.374 242.807 40.5353 243.525 39.4488 244.021C38.3624 244.51 37.0758 244.755 35.589 244.755H30.4903V241.038H34.7122C35.4238 241.038 36.0179 240.946 36.4944 240.762C36.9773 240.571 37.3426 240.285 37.5904 239.904C37.8382 239.516 37.9621 239.021 37.9621 238.417C37.9621 237.813 37.8382 237.315 37.5904 236.921C37.3426 236.521 36.9773 236.222 36.4944 236.025C36.0116 235.822 35.4175 235.72 34.7122 235.72H32.3868V251.436H27.6693ZM38.6578 242.515L43.5183 251.436H38.3719L33.6067 242.515H38.6578ZM58.2189 241.267L53.9397 241.381C53.8953 241.076 53.7745 240.806 53.5776 240.571C53.3806 240.33 53.1233 240.142 52.8056 240.009C52.4943 239.869 52.1321 239.799 51.7192 239.799C51.1791 239.799 50.7185 239.907 50.3373 240.123C49.9624 240.339 49.7782 240.631 49.7845 241C49.7782 241.286 49.8925 241.534 50.1276 241.743C50.369 241.953 50.7979 242.121 51.4142 242.248L54.2352 242.782C55.6965 243.062 56.783 243.525 57.4946 244.173C58.2125 244.821 58.5747 245.679 58.581 246.747C58.5747 247.75 58.2761 248.624 57.6852 249.367C57.1006 250.111 56.3001 250.689 55.2835 251.102C54.2669 251.509 53.1042 251.712 51.7954 251.712C49.7051 251.712 48.0563 251.283 46.8492 250.425C45.6483 249.561 44.9621 248.405 44.7906 246.956L49.3938 246.842C49.4954 247.376 49.7591 247.782 50.1848 248.062C50.6105 248.341 51.1537 248.481 51.8145 248.481C52.4117 248.481 52.8978 248.37 53.2726 248.148C53.6475 247.925 53.8381 247.63 53.8444 247.261C53.8381 246.931 53.692 246.667 53.406 246.47C53.1201 246.267 52.6722 246.108 52.0623 245.994L49.5081 245.508C48.0404 245.241 46.9476 244.748 46.2297 244.03C45.5117 243.306 45.1559 242.385 45.1623 241.267C45.1559 240.288 45.4164 239.453 45.9438 238.76C46.4711 238.061 47.2208 237.528 48.1929 237.159C49.165 236.791 50.3119 236.606 51.6334 236.606C53.6157 236.606 55.1787 237.022 56.3223 237.855C57.466 238.681 58.0982 239.818 58.2189 241.267ZM63.4963 251.712C62.8101 251.712 62.2224 251.47 61.7332 250.988C61.2503 250.505 61.0121 249.92 61.0184 249.234C61.0121 248.561 61.2503 247.986 61.7332 247.509C62.2224 247.026 62.8101 246.785 63.4963 246.785C64.1444 246.785 64.7162 247.026 65.2118 247.509C65.7137 247.986 65.9678 248.561 65.9742 249.234C65.9678 249.691 65.8471 250.108 65.612 250.483C65.3833 250.857 65.0815 251.156 64.7067 251.378C64.3382 251.601 63.9347 251.712 63.4963 251.712ZM73.3102 248.195V244.517L81.3062 231.917H84.5751V236.911H82.6785L77.9991 244.326V244.478H89.5785V248.195H73.3102ZM82.7357 251.436V247.071L82.831 245.46V231.917H87.2436V251.436H82.7357ZM100.124 251.912C98.4211 251.912 96.9534 251.509 95.7208 250.702C94.4882 249.888 93.5384 248.723 92.8712 247.204C92.2041 245.679 91.8737 243.846 91.8801 241.705C91.8864 239.564 92.22 237.747 92.8808 236.254C93.5479 234.754 94.4946 233.614 95.7208 232.832C96.9534 232.044 98.4211 231.651 100.124 231.651C101.827 231.651 103.294 232.044 104.527 232.832C105.766 233.614 106.719 234.754 107.386 236.254C108.053 237.753 108.383 239.57 108.377 241.705C108.377 243.853 108.044 245.689 107.376 247.214C106.709 248.738 105.759 249.904 104.527 250.711C103.301 251.512 101.833 251.912 100.124 251.912ZM100.124 248.052C101.14 248.052 101.963 247.534 102.592 246.499C103.221 245.457 103.533 243.859 103.526 241.705C103.526 240.295 103.383 239.132 103.097 238.217C102.811 237.296 102.414 236.609 101.906 236.158C101.398 235.707 100.804 235.482 100.124 235.482C99.1136 235.482 98.2972 235.993 97.6745 237.016C97.0519 238.033 96.7374 239.596 96.731 241.705C96.7247 243.135 96.8613 244.32 97.1408 245.26C97.4268 246.2 97.827 246.902 98.3417 247.366C98.8563 247.824 99.4504 248.052 100.124 248.052ZM119.151 251.912C117.448 251.912 115.981 251.509 114.748 250.702C113.516 249.888 112.566 248.723 111.899 247.204C111.231 245.679 110.901 243.846 110.907 241.705C110.914 239.564 111.247 237.747 111.908 236.254C112.575 234.754 113.522 233.614 114.748 232.832C115.981 232.044 117.448 231.651 119.151 231.651C120.854 231.651 122.322 232.044 123.554 232.832C124.793 233.614 125.746 234.754 126.413 236.254C127.08 237.753 127.411 239.57 127.404 241.705C127.404 243.853 127.071 245.689 126.404 247.214C125.737 248.738 124.787 249.904 123.554 250.711C122.328 251.512 120.86 251.912 119.151 251.912ZM119.151 248.052C120.168 248.052 120.991 247.534 121.62 246.499C122.249 245.457 122.56 243.859 122.554 241.705C122.554 240.295 122.411 239.132 122.125 238.217C121.839 237.296 121.442 236.609 120.933 236.158C120.425 235.707 119.831 235.482 119.151 235.482C118.141 235.482 117.325 235.993 116.702 237.016C116.079 238.033 115.765 239.596 115.758 241.705C115.752 243.135 115.889 244.32 116.168 245.26C116.454 246.2 116.854 246.902 117.369 247.366C117.884 247.824 118.478 248.052 119.151 248.052ZM138.179 251.912C136.476 251.912 135.008 251.509 133.776 250.702C132.543 249.888 131.593 248.723 130.926 247.204C130.259 245.679 129.928 243.846 129.935 241.705C129.941 239.564 130.275 237.747 130.935 236.254C131.603 234.754 132.549 233.614 133.776 232.832C135.008 232.044 136.476 231.651 138.179 231.651C139.881 231.651 141.349 232.044 142.582 232.832C143.821 233.614 144.774 234.754 145.441 236.254C146.108 237.753 146.438 239.57 146.432 241.705C146.432 243.853 146.098 245.689 145.431 247.214C144.764 248.738 143.814 249.904 142.582 250.711C141.355 251.512 139.888 251.912 138.179 251.912ZM138.179 248.052C139.195 248.052 140.018 247.534 140.647 246.499C141.276 245.457 141.587 243.859 141.581 241.705C141.581 240.295 141.438 239.132 141.152 238.217C140.866 237.296 140.469 236.609 139.961 236.158C139.452 235.707 138.858 235.482 138.179 235.482C137.168 235.482 136.352 235.993 135.729 237.016C135.107 238.033 134.792 239.596 134.786 241.705C134.779 243.135 134.916 244.32 135.196 245.26C135.481 246.2 135.882 246.902 136.396 247.366C136.911 247.824 137.505 248.052 138.179 248.052Z" fill="#BBB4A4"/>
</svg>
