<svg width="177" height="253" viewBox="0 0 177 253" fill="none" xmlns="http://www.w3.org/2000/svg">
<path d="M88.5206 198.831C125.828 198.831 156.072 197.977 156.072 196.924C156.072 195.871 125.828 195.017 88.5206 195.017C51.2127 195.017 20.9688 195.871 20.9688 196.924C20.9688 197.977 51.2127 198.831 88.5206 198.831Z" fill="#D8DFEA"/>
<path d="M176.569 19.6292V38.168C176.569 68.2771 152.166 92.6937 122.073 92.6937H114.443L122.912 83.9586C147.773 83.5114 167.85 63.1409 167.85 38.168V23.9916H135.152L136.242 15.2676H172.21C174.618 15.2668 176.569 17.219 176.569 19.6292Z" fill="#865058"/>
<path d="M116.621 145.222V154.851H59.9453V145.222C59.9453 144.437 60.3702 143.707 61.0569 143.325L65.3514 140.904C72.7845 136.717 77.3841 128.854 77.3841 120.315V110.141H99.1825V120.315C99.1825 128.854 103.782 136.716 111.215 140.904L115.51 143.325C116.196 143.707 116.621 144.437 116.621 145.222Z" fill="#865058"/>
<path d="M116.623 145.222V154.851H111.173V145.222C111.173 144.437 110.748 143.707 110.062 143.325L105.767 140.904C98.334 136.717 93.7344 128.854 93.7344 120.315V110.141H99.1842V120.315C99.1842 128.854 103.784 136.716 111.217 140.904L115.511 143.325C116.198 143.707 116.623 144.437 116.623 145.222Z" fill="#501921"/>
<path d="M105.722 101.636V107.961C105.722 110.97 103.28 113.413 100.272 113.413H76.2936C73.2854 113.413 70.8438 110.97 70.8438 107.961V101.636H105.722Z" fill="#865058"/>
<path d="M99.1832 113.413H77.3848V116.619H99.1832V113.413Z" fill="#501921"/>
<path d="M125.339 152.671V190.839H51.2246V152.671C51.2246 151.472 52.2057 150.49 53.4045 150.49H123.16C124.359 150.49 125.339 151.472 125.339 152.671Z" fill="#343B49"/>
<path d="M125.34 152.671V190.839H120.981V152.671C120.981 151.472 120 150.49 118.801 150.49H123.16C124.36 150.49 125.34 151.472 125.34 152.671Z" fill="#262D38"/>
<path d="M131.881 189.748V194.11C131.881 195.31 130.9 196.291 129.701 196.291H46.8673C45.6686 196.291 44.6875 195.31 44.6875 194.11V189.748C44.6875 188.549 45.6686 187.567 46.8673 187.567H129.701C130.901 187.567 131.881 188.549 131.881 189.748Z" fill="#262D38"/>
<path d="M131.881 189.748V194.11C131.881 195.31 130.9 196.291 129.701 196.291H125.342C126.541 196.291 127.522 195.31 127.522 194.11V189.748C127.522 188.549 126.541 187.567 125.342 187.567H129.701C130.901 187.567 131.881 188.549 131.881 189.748Z" fill="#171C23"/>
<path d="M114.441 161.395V176.662C114.441 177.861 113.46 178.843 112.261 178.843H64.3048C63.1061 178.843 62.125 177.861 62.125 176.662V161.395C62.125 160.195 63.1061 159.214 64.3048 159.214H112.261C113.461 159.214 114.441 160.195 114.441 161.395Z" fill="#865058"/>
<path d="M105.724 101.636V107.961C105.724 110.97 103.282 113.413 100.274 113.413H95.9141C98.9222 113.413 101.364 110.97 101.364 107.961V101.636H105.724Z" fill="#501921"/>
<path d="M65.3954 92.6937H54.4961C24.4036 92.6937 0 68.2771 0 38.168V19.6296C0 17.2194 1.95108 15.2676 4.35969 15.2676H40.3273V23.9916H8.71938V38.168C8.71938 63.1409 28.7959 83.5114 53.6571 83.9586L65.3954 92.6937Z" fill="#865058"/>
<path d="M141.69 6.54297V10.905C141.69 63.9037 117.777 106.87 88.2834 106.87C58.79 106.87 34.877 63.9041 34.877 10.905V6.54297H141.69Z" fill="#865058"/>
<path d="M35.368 23.9916H31.0083C30.7903 21.1235 30.6487 18.212 30.5723 15.2676H34.932C35.0083 18.2117 35.15 21.1235 35.368 23.9916Z" fill="#501921"/>
<path d="M60.336 92.693H55.9763C53.5458 90.0103 51.2351 86.9787 49.0879 83.6416C50.5922 83.827 52.1068 83.9253 53.6549 83.9579C55.7476 87.1749 57.9819 90.0975 60.336 92.693Z" fill="#501921"/>
<path d="M105.723 101.636V103.817C100.252 107.208 94.388 109.051 88.2845 109.051C82.181 109.051 76.317 107.208 70.8457 103.817V101.636C76.317 105.027 82.181 106.87 88.2845 106.87C94.388 106.87 100.252 105.027 105.723 101.636Z" fill="#501921"/>
<path d="M141.691 6.54297V10.905C141.691 62.2463 119.249 104.177 91.0312 106.75C118.454 104.144 128.612 62.2248 128.612 10.905V6.54297H141.691Z" fill="#501921"/>
<path d="M147.142 5.45249C147.142 6.95754 146.531 8.32057 145.55 9.3128C144.558 10.2943 143.196 10.905 141.692 10.905H34.8795C31.8713 10.905 29.4297 8.46221 29.4297 5.45249C29.4297 3.94744 30.04 2.58442 31.0211 1.59218C32.013 0.610694 33.3752 0 34.8795 0H141.692C144.7 0 147.142 2.44278 147.142 5.45249Z" fill="#865058"/>
<path d="M141.69 10.9053C141.69 12.3666 141.668 13.8171 141.635 15.2673H34.9315C34.8988 13.8167 34.877 12.3666 34.877 10.9053H141.69Z" fill="#501921"/>
<path d="M147.14 5.45249C147.14 6.95754 146.53 8.32057 145.549 9.3128C144.557 10.2943 143.195 10.905 141.691 10.905H129.701C131.205 10.905 132.568 10.2943 133.56 9.3128C134.541 8.32057 135.151 6.95716 135.151 5.45249C135.151 2.44278 132.71 0 129.701 0H141.691C144.699 0 147.14 2.44278 147.14 5.45249Z" fill="#501921"/>
<path d="M114.442 161.395V176.662C114.442 177.862 113.461 178.843 112.262 178.843H68.9922C77.7987 178.669 106.813 176.793 106.813 159.214H112.262C113.461 159.214 114.442 160.196 114.442 161.395Z" fill="#501921"/>
<path d="M64.3066 171.21V162.288C64.3066 161.795 64.7058 161.396 65.1983 161.396H84.7428C84.7428 161.396 69.2114 163.031 64.3066 171.21Z" fill="#A0616A"/>
<path d="M53.6777 162.486V153.564C53.6777 153.071 54.0769 152.672 54.5694 152.672H74.1139C74.1139 152.672 58.5821 154.307 53.6777 162.486Z" fill="#4E5868"/>
<path d="M88.282 103.598C76.4454 103.598 43.6168 78.6149 39.6387 19.6289H52.5869C55.8457 91.7991 88.282 103.598 88.282 103.598Z" fill="#A0616A"/>
<path d="M65.3965 146.129C65.3965 146.129 80.6554 136.315 80.6554 122.138V146.129H65.3965Z" fill="#A0616A"/>
<path d="M37.0572 2.18066V5.45216H31.6074C31.6074 3.6527 33.0679 2.18066 34.8774 2.18066H37.0572Z" fill="#A0616A"/>
<path d="M144.907 15.2666C144.831 18.2111 144.689 21.1225 144.46 23.9906H135.152L136.242 15.2666H144.907Z" fill="#501921"/>
<path d="M126.313 83.7725C124.176 87.0547 121.898 90.0429 119.5 92.693H114.443L118.302 88.7237L122.912 83.9582C124.057 83.936 125.19 83.8707 126.313 83.7725Z" fill="#501921"/>
<path d="M31.442 246.067V226.549H39.5046C40.966 226.549 42.2271 226.813 43.2882 227.34C44.3556 227.861 45.1784 228.611 45.7566 229.589C46.3347 230.561 46.6238 231.715 46.6238 233.049C46.6238 234.402 46.3284 235.552 45.7375 236.499C45.1466 237.439 44.3079 238.157 43.2215 238.653C42.135 239.142 40.8484 239.387 39.3617 239.387H34.2629V235.67H38.4849C39.1965 235.67 39.7906 235.578 40.2671 235.393C40.7499 235.203 41.1153 234.917 41.3631 234.536C41.6109 234.148 41.7347 233.653 41.7347 233.049C41.7347 232.445 41.6109 231.947 41.3631 231.553C41.1153 231.152 40.7499 230.854 40.2671 230.657C39.7842 230.453 39.1901 230.352 38.4849 230.352H36.1595V246.067H31.442ZM42.4305 237.147L47.2909 246.067H42.1446L37.3794 237.147H42.4305ZM61.9915 235.898L57.7124 236.013C57.6679 235.708 57.5472 235.438 57.3502 235.203C57.1533 234.961 56.896 234.774 56.5783 234.64C56.267 234.501 55.9048 234.431 55.4918 234.431C54.9518 234.431 54.4911 234.539 54.1099 234.755C53.7351 234.971 53.5508 235.263 53.5572 235.632C53.5508 235.918 53.6652 236.165 53.9002 236.375C54.1417 236.585 54.5705 236.753 55.1868 236.88L58.0078 237.414C59.4691 237.693 60.5556 238.157 61.2672 238.805C61.9852 239.453 62.3473 240.311 62.3537 241.378C62.3473 242.382 62.0487 243.256 61.4578 243.999C60.8733 244.743 60.0727 245.321 59.0562 245.734C58.0396 246.14 56.8769 246.344 55.5681 246.344C53.4777 246.344 51.829 245.915 50.6218 245.057C49.421 244.193 48.7348 243.037 48.5632 241.588L53.1664 241.474C53.2681 242.007 53.5317 242.414 53.9574 242.694C54.3831 242.973 54.9263 243.113 55.5871 243.113C56.1844 243.113 56.6704 243.002 57.0453 242.779C57.4201 242.557 57.6107 242.262 57.6171 241.893C57.6107 241.563 57.4646 241.299 57.1787 241.102C56.8928 240.899 56.4448 240.74 55.8349 240.626L53.2808 240.14C51.8131 239.873 50.7203 239.38 50.0023 238.662C49.2844 237.938 48.9286 237.017 48.9349 235.898C48.9286 234.92 49.1891 234.085 49.7164 233.392C50.2438 232.693 50.9935 232.159 51.9656 231.791C52.9377 231.422 54.0845 231.238 55.406 231.238C57.3884 231.238 58.9513 231.654 60.095 232.487C61.2386 233.313 61.8708 234.45 61.9915 235.898ZM67.269 246.344C66.5828 246.344 65.9951 246.102 65.5058 245.619C65.023 245.137 64.7847 244.552 64.7911 243.866C64.7847 243.192 65.023 242.617 65.5058 242.141C65.9951 241.658 66.5828 241.417 67.269 241.417C67.917 241.417 68.4888 241.658 68.9844 242.141C69.4863 242.617 69.7405 243.192 69.7468 243.866C69.7405 244.323 69.6198 244.739 69.3847 245.114C69.156 245.489 68.8542 245.788 68.4793 246.01C68.1108 246.233 67.7073 246.344 67.269 246.344ZM77.3211 246.067V242.675L84.4403 236.442C84.974 235.959 85.4283 235.517 85.8031 235.117C86.178 234.71 86.4639 234.304 86.6608 233.897C86.8578 233.484 86.9563 233.036 86.9563 232.553C86.9563 232.013 86.8387 231.553 86.6037 231.171C86.3686 230.784 86.0445 230.485 85.6316 230.276C85.2186 230.066 84.7452 229.961 84.2115 229.961C83.6715 229.961 83.1981 230.072 82.7915 230.295C82.3849 230.511 82.0672 230.825 81.8385 231.238C81.6161 231.651 81.5049 232.153 81.5049 232.744H77.0352C77.0352 231.416 77.3338 230.269 77.931 229.303C78.5283 228.338 79.3669 227.594 80.4471 227.073C81.5335 226.546 82.7947 226.282 84.2306 226.282C85.711 226.282 86.9976 226.53 88.0904 227.026C89.1832 227.521 90.0282 228.214 90.6255 229.103C91.2291 229.986 91.5309 231.013 91.5309 232.182C91.5309 232.925 91.3815 233.662 91.0829 234.393C90.7843 235.123 90.2474 235.93 89.4723 236.813C88.7035 237.697 87.6107 238.754 86.1939 239.987L83.8589 242.141V242.265H91.7691V246.067H77.3211ZM102.507 246.544C100.805 246.544 99.337 246.14 98.1044 245.334C96.8718 244.52 95.922 243.354 95.2548 241.836C94.5877 240.311 94.2573 238.478 94.2637 236.337C94.27 234.196 94.6036 232.379 95.2644 230.886C95.9315 229.386 96.8782 228.246 98.1044 227.464C99.337 226.676 100.805 226.282 102.507 226.282C104.21 226.282 105.678 226.676 106.91 227.464C108.149 228.246 109.102 229.386 109.77 230.886C110.437 232.385 110.767 234.202 110.761 236.337C110.761 238.484 110.427 240.321 109.76 241.845C109.093 243.37 108.143 244.536 106.91 245.343C105.684 246.144 104.217 246.544 102.507 246.544ZM102.507 242.684C103.524 242.684 104.347 242.166 104.976 241.131C105.605 240.089 105.916 238.491 105.91 236.337C105.91 234.926 105.767 233.764 105.481 232.849C105.195 231.928 104.798 231.241 104.29 230.79C103.781 230.339 103.187 230.114 102.507 230.114C101.497 230.114 100.681 230.625 100.058 231.648C99.4355 232.665 99.121 234.228 99.1146 236.337C99.1083 237.766 99.2449 238.951 99.5244 239.892C99.8104 240.832 100.211 241.534 100.725 241.998C101.24 242.455 101.834 242.684 102.507 242.684ZM121.535 246.544C119.832 246.544 118.364 246.14 117.132 245.334C115.899 244.52 114.949 243.354 114.282 241.836C113.615 240.311 113.285 238.478 113.291 236.337C113.297 234.196 113.631 232.379 114.292 230.886C114.959 229.386 115.906 228.246 117.132 227.464C118.364 226.676 119.832 226.282 121.535 226.282C123.238 226.282 124.705 226.676 125.938 227.464C127.177 228.246 128.13 229.386 128.797 230.886C129.464 232.385 129.794 234.202 129.788 236.337C129.788 238.484 129.455 240.321 128.787 241.845C128.12 243.37 127.17 244.536 125.938 245.343C124.712 246.144 123.244 246.544 121.535 246.544ZM121.535 242.684C122.551 242.684 123.374 242.166 124.003 241.131C124.632 240.089 124.943 238.491 124.937 236.337C124.937 234.926 124.794 233.764 124.508 232.849C124.222 231.928 123.825 231.241 123.317 230.79C122.809 230.339 122.215 230.114 121.535 230.114C120.525 230.114 119.708 230.625 119.085 231.648C118.463 232.665 118.148 234.228 118.142 236.337C118.136 237.766 118.272 238.951 118.552 239.892C118.838 240.832 119.238 241.534 119.753 241.998C120.267 242.455 120.861 242.684 121.535 242.684ZM140.562 246.544C138.859 246.544 137.392 246.14 136.159 245.334C134.927 244.52 133.977 243.354 133.31 241.836C132.642 240.311 132.312 238.478 132.318 236.337C132.325 234.196 132.658 232.379 133.319 230.886C133.986 229.386 134.933 228.246 136.159 227.464C137.392 226.676 138.859 226.282 140.562 226.282C142.265 226.282 143.733 226.676 144.965 227.464C146.204 228.246 147.157 229.386 147.824 230.886C148.491 232.385 148.822 234.202 148.815 236.337C148.815 238.484 148.482 240.321 147.815 241.845C147.148 243.37 146.198 244.536 144.965 245.343C143.739 246.144 142.271 246.544 140.562 246.544ZM140.562 242.684C141.579 242.684 142.402 242.166 143.031 241.131C143.66 240.089 143.971 238.491 143.964 236.337C143.964 234.926 143.822 233.764 143.536 232.849C143.25 231.928 142.853 231.241 142.344 230.79C141.836 230.339 141.242 230.114 140.562 230.114C139.552 230.114 138.736 230.625 138.113 231.648C137.49 232.665 137.176 234.228 137.169 236.337C137.163 237.766 137.3 238.951 137.579 239.892C137.865 240.832 138.265 241.534 138.78 241.998C139.295 242.455 139.889 242.684 140.562 242.684Z" fill="#865058"/>
</svg>
