<svg width="564" height="529" viewBox="0 0 564 529" fill="none" xmlns="http://www.w3.org/2000/svg">
<path d="M281.997 198.831C319.305 198.831 349.549 197.977 349.549 196.924C349.549 195.871 319.305 195.017 281.997 195.017C244.689 195.017 214.445 195.871 214.445 196.924C214.445 197.977 244.689 198.831 281.997 198.831Z" fill="#D8DFEA"/>
<path d="M370.046 19.6292V38.168C370.046 68.2771 345.642 92.6937 315.55 92.6937H307.92L316.389 83.9586C341.25 83.5114 361.326 63.1409 361.326 38.168V23.9916H328.629L329.719 15.2676H365.686C368.095 15.2668 370.046 17.219 370.046 19.6292Z" fill="#E8A615"/>
<path d="M310.098 145.223V154.852H253.422V145.223C253.422 144.438 253.847 143.708 254.533 143.326L258.828 140.905C266.261 136.718 270.861 128.855 270.861 120.316V110.142H292.659V120.316C292.659 128.855 297.259 136.717 304.692 140.905L308.986 143.326C309.673 143.708 310.098 144.438 310.098 145.223Z" fill="#E8A615"/>
<path d="M310.099 145.223V154.852H304.65V145.223C304.65 144.438 304.225 143.708 303.538 143.326L299.244 140.905C291.811 136.718 287.211 128.855 287.211 120.316V110.142H292.661V120.316C292.661 128.855 297.26 136.717 304.693 140.905L308.988 143.326C309.674 143.708 310.099 144.438 310.099 145.223Z" fill="#B7791D"/>
<path d="M299.198 101.636V107.961C299.198 110.97 296.757 113.413 293.748 113.413H269.77C266.762 113.413 264.32 110.97 264.32 107.961V101.636H299.198Z" fill="#E8A615"/>
<path d="M292.66 113.413H270.861V116.619H292.66V113.413Z" fill="#B7791D"/>
<path d="M318.816 152.672V190.84H244.701V152.672C244.701 151.473 245.682 150.491 246.881 150.491H316.636C317.835 150.491 318.816 151.473 318.816 152.672Z" fill="#343B49"/>
<path d="M318.817 152.672V190.84H314.457V152.672C314.457 151.473 313.476 150.491 312.277 150.491H316.637C317.836 150.491 318.817 151.473 318.817 152.672Z" fill="#262D38"/>
<path d="M325.358 189.749V194.111C325.358 195.311 324.377 196.292 323.178 196.292H240.344C239.145 196.292 238.164 195.311 238.164 194.111V189.749C238.164 188.55 239.145 187.568 240.344 187.568H323.178C324.377 187.568 325.358 188.55 325.358 189.749Z" fill="#262D38"/>
<path d="M325.358 189.749V194.111C325.358 195.311 324.377 196.292 323.178 196.292H318.818C320.017 196.292 320.998 195.311 320.998 194.111V189.749C320.998 188.55 320.017 187.568 318.818 187.568H323.178C324.377 187.568 325.358 188.55 325.358 189.749Z" fill="#171C23"/>
<path d="M307.918 161.395V176.662C307.918 177.861 306.937 178.843 305.738 178.843H257.781C256.583 178.843 255.602 177.861 255.602 176.662V161.395C255.602 160.195 256.583 159.214 257.781 159.214H305.738C306.937 159.214 307.918 160.195 307.918 161.395Z" fill="#E8A615"/>
<path d="M299.2 101.636V107.961C299.2 110.97 296.759 113.413 293.75 113.413H289.391C292.399 113.413 294.84 110.97 294.84 107.961V101.636H299.2Z" fill="#B7791D"/>
<path d="M258.872 92.6937H247.973C217.88 92.6937 193.477 68.2771 193.477 38.168V19.6296C193.477 17.2194 195.428 15.2676 197.836 15.2676H233.804V23.9916H202.196V38.168C202.196 63.1409 222.272 83.5114 247.134 83.9586L258.872 92.6937Z" fill="#E8A615"/>
<path d="M335.166 6.54297V10.905C335.166 63.9037 311.253 106.87 281.76 106.87C252.267 106.87 228.354 63.9041 228.354 10.905V6.54297H335.166Z" fill="#E8A615"/>
<path d="M228.845 23.9916H224.485C224.267 21.1235 224.125 18.212 224.049 15.2676H228.409C228.485 18.2117 228.627 21.1235 228.845 23.9916Z" fill="#B7791D"/>
<path d="M253.813 92.693H249.453C247.022 90.0103 244.712 86.9787 242.564 83.6416C244.069 83.827 245.583 83.9253 247.131 83.9579C249.224 87.1749 251.458 90.0975 253.813 92.693Z" fill="#B7791D"/>
<path d="M299.2 101.636V103.817C293.728 107.208 287.865 109.051 281.761 109.051C275.658 109.051 269.794 107.208 264.322 103.817V101.636C269.794 105.027 275.658 106.87 281.761 106.87C287.865 106.87 293.728 105.027 299.2 101.636Z" fill="#B7791D"/>
<path d="M335.167 6.54297V10.905C335.167 62.2463 312.726 104.177 284.508 106.75C311.93 104.144 322.088 62.2248 322.088 10.905V6.54297H335.167Z" fill="#B7791D"/>
<path d="M340.616 5.45249C340.616 6.95754 340.006 8.32057 339.025 9.3128C338.033 10.2943 336.671 10.905 335.167 10.905H228.354C225.346 10.905 222.904 8.46221 222.904 5.45249C222.904 3.94744 223.515 2.58442 224.496 1.59218C225.488 0.610694 226.85 0 228.354 0H335.167C338.175 0 340.616 2.44278 340.616 5.45249Z" fill="#E8A615"/>
<path d="M335.166 10.9053C335.166 12.3666 335.144 13.8171 335.112 15.2673H228.408C228.375 13.8167 228.354 12.3666 228.354 10.9053H335.166Z" fill="#B7791D"/>
<path d="M340.617 5.45249C340.617 6.95754 340.007 8.32057 339.025 9.3128C338.034 10.2943 336.671 10.905 335.167 10.905H323.178C324.682 10.905 326.044 10.2943 327.036 9.3128C328.017 8.32057 328.628 6.95716 328.628 5.45249C328.628 2.44278 326.186 0 323.178 0H335.167C338.176 0 340.617 2.44278 340.617 5.45249Z" fill="#B7791D"/>
<path d="M307.917 161.395V176.662C307.917 177.862 306.935 178.843 305.737 178.843H262.467C271.273 178.669 300.287 176.793 300.287 159.214H305.737C306.936 159.214 307.917 160.196 307.917 161.395Z" fill="#B7791D"/>
<path d="M257.783 171.21V162.288C257.783 161.795 258.182 161.396 258.675 161.396H278.219C278.219 161.396 262.688 163.031 257.783 171.21Z" fill="#FFCC66"/>
<path d="M247.154 162.486V153.564C247.154 153.071 247.553 152.672 248.046 152.672H267.59C267.59 152.672 252.059 154.307 247.154 162.486Z" fill="#4E5868"/>
<path d="M281.759 103.598C269.922 103.598 237.093 78.6149 233.115 19.6289H246.063C249.322 91.7991 281.759 103.598 281.759 103.598Z" fill="#FFCC66"/>
<path d="M258.871 146.129C258.871 146.129 274.13 136.315 274.13 122.138V146.129H258.871Z" fill="#FFCC66"/>
<path d="M230.534 2.18066V5.45216H225.084C225.084 3.6527 226.545 2.18066 228.354 2.18066H230.534Z" fill="#FFCC66"/>
<path d="M338.384 15.2666C338.307 18.2111 338.165 21.1225 337.937 23.9906H328.629L329.719 15.2666H338.384Z" fill="#B7791D"/>
<path d="M319.789 83.7725C317.653 87.0547 315.375 90.0429 312.977 92.693H307.92L311.778 88.7237L316.389 83.9582C317.533 83.936 318.667 83.8707 319.789 83.7725Z" fill="#B7791D"/>
<path d="M218.581 246.962V227.444H226.644C228.105 227.444 229.366 227.707 230.427 228.235C231.495 228.756 232.317 229.505 232.896 230.484C233.474 231.456 233.763 232.609 233.763 233.943C233.763 235.297 233.467 236.447 232.876 237.393C232.286 238.334 231.447 239.052 230.36 239.547C229.274 240.037 227.987 240.281 226.501 240.281H221.402V236.564H225.624C226.335 236.564 226.93 236.472 227.406 236.288C227.889 236.097 228.254 235.811 228.502 235.43C228.75 235.043 228.874 234.547 228.874 233.943C228.874 233.34 228.75 232.841 228.502 232.447C228.254 232.047 227.889 231.748 227.406 231.551C226.923 231.348 226.329 231.246 225.624 231.246H223.298V246.962H218.581ZM229.569 238.042L234.43 246.962H229.284L224.518 238.042H229.569ZM249.13 236.793L244.851 236.907C244.807 236.602 244.686 236.332 244.489 236.097C244.292 235.856 244.035 235.668 243.717 235.535C243.406 235.395 243.044 235.325 242.631 235.325C242.091 235.325 241.63 235.433 241.249 235.649C240.874 235.865 240.69 236.158 240.696 236.526C240.69 236.812 240.804 237.06 241.039 237.27C241.281 237.479 241.71 237.648 242.326 237.775L245.147 238.308C246.608 238.588 247.695 239.052 248.406 239.7C249.124 240.348 249.486 241.206 249.493 242.273C249.486 243.277 249.188 244.15 248.597 244.894C248.012 245.637 247.212 246.215 246.195 246.628C245.179 247.035 244.016 247.238 242.707 247.238C240.617 247.238 238.968 246.809 237.761 245.952C236.56 245.088 235.874 243.931 235.702 242.483L240.305 242.368C240.407 242.902 240.671 243.309 241.096 243.588C241.522 243.868 242.065 244.008 242.726 244.008C243.323 244.008 243.809 243.896 244.184 243.674C244.559 243.452 244.75 243.156 244.756 242.788C244.75 242.457 244.604 242.194 244.318 241.997C244.032 241.793 243.584 241.634 242.974 241.52L240.42 241.034C238.952 240.767 237.859 240.275 237.141 239.557C236.423 238.833 236.068 237.911 236.074 236.793C236.068 235.815 236.328 234.979 236.855 234.287C237.383 233.588 238.132 233.054 239.105 232.685C240.077 232.317 241.223 232.133 242.545 232.133C244.527 232.133 246.09 232.549 247.234 233.381C248.378 234.207 249.01 235.344 249.13 236.793ZM254.408 247.238C253.722 247.238 253.134 246.997 252.645 246.514C252.162 246.031 251.924 245.447 251.93 244.76C251.924 244.087 252.162 243.512 252.645 243.035C253.134 242.553 253.722 242.311 254.408 242.311C255.056 242.311 255.628 242.553 256.123 243.035C256.625 243.512 256.879 244.087 256.886 244.76C256.879 245.218 256.759 245.634 256.524 246.009C256.295 246.384 255.993 246.682 255.618 246.905C255.25 247.127 254.846 247.238 254.408 247.238ZM272.284 247.229C271.217 247.229 270.194 247.057 269.216 246.714C268.237 246.365 267.367 245.812 266.604 245.056C265.842 244.293 265.242 243.296 264.803 242.063C264.365 240.824 264.149 239.315 264.155 237.536C264.161 235.929 264.358 234.487 264.746 233.21C265.134 231.926 265.686 230.837 266.404 229.941C267.129 229.045 267.993 228.362 268.997 227.892C270.007 227.415 271.134 227.177 272.38 227.177C273.746 227.177 274.95 227.444 275.992 227.977C277.04 228.505 277.879 229.216 278.508 230.112C279.137 231.002 279.509 231.993 279.623 233.086H274.982C274.842 232.469 274.534 232.002 274.057 231.685C273.587 231.361 273.028 231.199 272.38 231.199C271.185 231.199 270.293 231.717 269.702 232.752C269.117 233.788 268.819 235.173 268.806 236.907H268.93C269.197 236.323 269.581 235.821 270.083 235.402C270.585 234.982 271.16 234.661 271.808 234.439C272.462 234.21 273.155 234.096 273.886 234.096C275.055 234.096 276.087 234.366 276.983 234.906C277.879 235.446 278.581 236.186 279.089 237.127C279.597 238.061 279.848 239.131 279.842 240.338C279.848 241.698 279.531 242.899 278.889 243.941C278.247 244.976 277.358 245.783 276.221 246.362C275.09 246.94 273.778 247.229 272.284 247.229ZM272.256 243.607C272.834 243.607 273.352 243.471 273.809 243.197C274.267 242.924 274.626 242.553 274.886 242.082C275.147 241.612 275.274 241.082 275.267 240.491C275.274 239.894 275.147 239.363 274.886 238.899C274.632 238.435 274.276 238.067 273.819 237.794C273.368 237.521 272.85 237.384 272.265 237.384C271.84 237.384 271.443 237.463 271.074 237.622C270.706 237.781 270.385 238.003 270.112 238.289C269.845 238.569 269.635 238.899 269.483 239.28C269.33 239.655 269.251 240.062 269.244 240.5C269.251 241.079 269.384 241.603 269.645 242.073C269.905 242.543 270.261 242.918 270.712 243.197C271.163 243.471 271.678 243.607 272.256 243.607ZM286.551 244.293L286.466 245.351C286.389 246.228 286.234 247.083 285.999 247.915C285.77 248.754 285.525 249.507 285.265 250.174C285.004 250.841 284.798 251.359 284.645 251.727H281.71C281.812 251.359 281.948 250.841 282.12 250.174C282.298 249.507 282.463 248.754 282.615 247.915C282.768 247.076 282.854 246.225 282.873 245.361L282.892 244.293H286.551ZM297.325 247.438C295.623 247.438 294.155 247.035 292.922 246.228C291.69 245.415 290.74 244.249 290.073 242.73C289.406 241.206 289.075 239.373 289.082 237.231C289.088 235.09 289.422 233.273 290.082 231.78C290.75 230.281 291.696 229.14 292.922 228.359C294.155 227.571 295.623 227.177 297.325 227.177C299.028 227.177 300.496 227.571 301.729 228.359C302.967 229.14 303.921 230.281 304.588 231.78C305.255 233.279 305.585 235.097 305.579 237.231C305.579 239.379 305.245 241.215 304.578 242.74C303.911 244.265 302.961 245.431 301.729 246.238C300.502 247.038 299.035 247.438 297.325 247.438ZM297.325 243.579C298.342 243.579 299.165 243.061 299.794 242.025C300.423 240.983 300.734 239.385 300.728 237.231C300.728 235.821 300.585 234.658 300.299 233.743C300.013 232.822 299.616 232.136 299.108 231.685C298.599 231.234 298.005 231.008 297.325 231.008C296.315 231.008 295.499 231.52 294.876 232.542C294.254 233.559 293.939 235.122 293.933 237.231C293.926 238.661 294.063 239.846 294.342 240.786C294.628 241.727 295.029 242.429 295.543 242.892C296.058 243.35 296.652 243.579 297.325 243.579ZM316.353 247.438C314.65 247.438 313.182 247.035 311.95 246.228C310.717 245.415 309.767 244.249 309.1 242.73C308.433 241.206 308.103 239.373 308.109 237.231C308.115 235.09 308.449 233.273 309.11 231.78C309.777 230.281 310.724 229.14 311.95 228.359C313.182 227.571 314.65 227.177 316.353 227.177C318.056 227.177 319.523 227.571 320.756 228.359C321.995 229.14 322.948 230.281 323.615 231.78C324.282 233.279 324.612 235.097 324.606 237.231C324.606 239.379 324.273 241.215 323.605 242.74C322.938 244.265 321.988 245.431 320.756 246.238C319.53 247.038 318.062 247.438 316.353 247.438ZM316.353 243.579C317.369 243.579 318.192 243.061 318.821 242.025C319.45 240.983 319.762 239.385 319.755 237.231C319.755 235.821 319.612 234.658 319.326 233.743C319.04 232.822 318.643 232.136 318.135 231.685C317.627 231.234 317.033 231.008 316.353 231.008C315.343 231.008 314.526 231.52 313.904 232.542C313.281 233.559 312.966 235.122 312.96 237.231C312.954 238.661 313.09 239.846 313.37 240.786C313.656 241.727 314.056 242.429 314.571 242.892C315.085 243.35 315.679 243.579 316.353 243.579ZM335.38 247.438C333.677 247.438 332.21 247.035 330.977 246.228C329.745 245.415 328.795 244.249 328.128 242.73C327.46 241.206 327.13 239.373 327.136 237.231C327.143 235.09 327.476 233.273 328.137 231.78C328.804 230.281 329.751 229.14 330.977 228.359C332.21 227.571 333.677 227.177 335.38 227.177C337.083 227.177 338.551 227.571 339.783 228.359C341.022 229.14 341.975 230.281 342.642 231.78C343.309 233.279 343.64 235.097 343.633 237.231C343.633 239.379 343.3 241.215 342.633 242.74C341.966 244.265 341.016 245.431 339.783 246.238C338.557 247.038 337.089 247.438 335.38 247.438ZM335.38 243.579C336.397 243.579 337.22 243.061 337.849 242.025C338.478 240.983 338.789 239.385 338.783 237.231C338.783 235.821 338.64 234.658 338.354 233.743C338.068 232.822 337.671 232.136 337.162 231.685C336.654 231.234 336.06 231.008 335.38 231.008C334.37 231.008 333.554 231.52 332.931 232.542C332.308 233.559 331.994 235.122 331.987 237.231C331.981 238.661 332.118 239.846 332.397 240.786C332.683 241.727 333.083 242.429 333.598 242.892C334.113 243.35 334.707 243.579 335.38 243.579Z" fill="#FFB800"/>
<path d="M88.5206 469.831C125.828 469.831 156.072 468.977 156.072 467.924C156.072 466.871 125.828 466.017 88.5206 466.017C51.2127 466.017 20.9688 466.871 20.9688 467.924C20.9688 468.977 51.2127 469.831 88.5206 469.831Z" fill="#D8DFEA"/>
<path d="M176.569 290.629V309.168C176.569 339.277 152.166 363.694 122.073 363.694H114.443L122.912 354.959C147.773 354.511 167.85 334.141 167.85 309.168V294.992H135.152L136.242 286.268H172.21C174.618 286.267 176.569 288.219 176.569 290.629Z" fill="#BBB4A4"/>
<path d="M116.623 416.223V425.852H59.9473V416.223C59.9473 415.438 60.3722 414.708 61.0589 414.326L65.3533 411.905C72.7864 407.718 77.386 399.855 77.386 391.316V381.142H99.1845V391.316C99.1845 399.855 103.784 407.717 111.217 411.905L115.512 414.326C116.198 414.708 116.623 415.438 116.623 416.223Z" fill="#BBB4A4"/>
<path d="M116.623 416.223V425.852H111.173V416.223C111.173 415.438 110.748 414.708 110.062 414.326L105.767 411.905C98.334 407.718 93.7344 399.855 93.7344 391.316V381.142H99.1842V391.316C99.1842 399.855 103.784 407.717 111.217 411.905L115.511 414.326C116.198 414.708 116.623 415.438 116.623 416.223Z" fill="#616161"/>
<path d="M105.722 372.636V378.961C105.722 381.97 103.28 384.413 100.272 384.413H76.2936C73.2854 384.413 70.8438 381.97 70.8438 378.961V372.636H105.722Z" fill="#BBB4A4"/>
<path d="M99.1832 384.413H77.3848V387.619H99.1832V384.413Z" fill="#616161"/>
<path d="M125.341 423.672V461.84H51.2266V423.672C51.2266 422.473 52.2077 421.491 53.4064 421.491H123.161C124.361 421.491 125.341 422.473 125.341 423.672Z" fill="#343B49"/>
<path d="M125.34 423.672V461.84H120.981V423.672C120.981 422.473 120 421.491 118.801 421.491H123.16C124.36 421.491 125.34 422.473 125.34 423.672Z" fill="#262D38"/>
<path d="M131.879 460.749V465.111C131.879 466.311 130.898 467.292 129.7 467.292H46.8654C45.6667 467.292 44.6855 466.311 44.6855 465.111V460.749C44.6855 459.55 45.6667 458.568 46.8654 458.568H129.7C130.899 458.568 131.879 459.55 131.879 460.749Z" fill="#262D38"/>
<path d="M131.881 460.749V465.111C131.881 466.311 130.9 467.292 129.701 467.292H125.342C126.541 467.292 127.522 466.311 127.522 465.111V460.749C127.522 459.55 126.541 458.568 125.342 458.568H129.701C130.901 458.568 131.881 459.55 131.881 460.749Z" fill="#171C23"/>
<path d="M114.441 432.395V447.662C114.441 448.861 113.46 449.843 112.261 449.843H64.3048C63.1061 449.843 62.125 448.861 62.125 447.662V432.395C62.125 431.195 63.1061 430.214 64.3048 430.214H112.261C113.461 430.214 114.441 431.195 114.441 432.395Z" fill="#BBB4A4"/>
<path d="M105.724 372.636V378.961C105.724 381.97 103.282 384.413 100.274 384.413H95.9141C98.9222 384.413 101.364 381.97 101.364 378.961V372.636H105.724Z" fill="#616161"/>
<path d="M65.3954 363.694H54.4961C24.4036 363.694 0 339.277 0 309.168V290.63C0 288.219 1.95108 286.268 4.35969 286.268H40.3273V294.992H8.71938V309.168C8.71938 334.141 28.7959 354.511 53.6571 354.959L65.3954 363.694Z" fill="#BBB4A4"/>
<path d="M141.69 277.543V281.905C141.69 334.904 117.777 377.87 88.2834 377.87C58.79 377.87 34.877 334.904 34.877 281.905V277.543H141.69Z" fill="#BBB4A4"/>
<path d="M35.368 294.992H31.0083C30.7903 292.123 30.6487 289.212 30.5723 286.268H34.932C35.0083 289.212 35.15 292.123 35.368 294.992Z" fill="#616161"/>
<path d="M60.338 363.693H55.9783C53.5478 361.01 51.2371 357.979 49.0898 354.642C50.5941 354.827 52.1088 354.925 53.6568 354.958C55.7495 358.175 57.9839 361.097 60.338 363.693Z" fill="#616161"/>
<path d="M105.723 372.636V374.817C100.252 378.208 94.388 380.051 88.2845 380.051C82.181 380.051 76.317 378.208 70.8457 374.817V372.636C76.317 376.027 82.181 377.87 88.2845 377.87C94.388 377.87 100.252 376.027 105.723 372.636Z" fill="#616161"/>
<path d="M141.691 277.543V281.905C141.691 333.246 119.249 375.177 91.0312 377.75C118.454 375.144 128.612 333.225 128.612 281.905V277.543H141.691Z" fill="#616161"/>
<path d="M147.14 276.452C147.14 277.958 146.529 279.321 145.548 280.313C144.557 281.294 143.194 281.905 141.69 281.905H34.8775C31.8694 281.905 29.4277 279.462 29.4277 276.452C29.4277 274.947 30.038 273.584 31.0191 272.592C32.011 271.611 33.3733 271 34.8775 271H141.69C144.699 271 147.14 273.443 147.14 276.452Z" fill="#BBB4A4"/>
<path d="M141.69 281.905C141.69 283.367 141.668 284.817 141.635 286.267H34.9315C34.8988 284.817 34.877 283.367 34.877 281.905H141.69Z" fill="#616161"/>
<path d="M147.14 276.452C147.14 277.958 146.53 279.321 145.549 280.313C144.557 281.294 143.195 281.905 141.691 281.905H129.701C131.205 281.905 132.568 281.294 133.56 280.313C134.541 279.321 135.151 277.957 135.151 276.452C135.151 273.443 132.71 271 129.701 271H141.691C144.699 271 147.14 273.443 147.14 276.452Z" fill="#616161"/>
<path d="M114.442 432.395V447.662C114.442 448.862 113.461 449.843 112.262 449.843H68.9922C77.7987 449.669 106.813 447.793 106.813 430.214H112.262C113.461 430.214 114.442 431.196 114.442 432.395Z" fill="#616161"/>
<path d="M64.3066 442.21V433.288C64.3066 432.795 64.7058 432.396 65.1983 432.396H84.7428C84.7428 432.396 69.2114 434.031 64.3066 442.21Z" fill="#FAFAFA"/>
<path d="M53.6777 433.486V424.564C53.6777 424.071 54.0769 423.672 54.5694 423.672H74.1139C74.1139 423.672 58.5821 425.307 53.6777 433.486Z" fill="#4E5868"/>
<path d="M88.2839 374.598C76.4474 374.598 43.6188 349.615 39.6406 290.629H52.5888C55.8476 362.799 88.2839 374.598 88.2839 374.598Z" fill="#FAFAFA"/>
<path d="M65.3945 417.129C65.3945 417.129 80.6534 407.315 80.6534 393.138V417.129H65.3945Z" fill="#FAFAFA"/>
<path d="M37.0572 273.181V276.452H31.6074C31.6074 274.653 33.0679 273.181 34.8774 273.181H37.0572Z" fill="#FAFAFA"/>
<path d="M144.907 286.267C144.831 289.211 144.689 292.123 144.46 294.991H135.152L136.242 286.267H144.907Z" fill="#616161"/>
<path d="M126.313 354.772C124.176 358.055 121.898 361.043 119.5 363.693H114.443L118.302 359.724L122.912 354.958C124.057 354.936 125.19 354.871 126.313 354.772Z" fill="#616161"/>
<path d="M27.6693 522.436V502.917H35.732C37.1933 502.917 38.4545 503.181 39.5155 503.708C40.5829 504.229 41.4057 504.979 41.9839 505.958C42.5621 506.93 42.8512 508.083 42.8512 509.417C42.8512 510.77 42.5557 511.92 41.9648 512.867C41.374 513.807 40.5353 514.525 39.4488 515.021C38.3624 515.51 37.0758 515.755 35.589 515.755H30.4903V512.038H34.7122C35.4238 512.038 36.0179 511.946 36.4944 511.762C36.9773 511.571 37.3426 511.285 37.5904 510.904C37.8382 510.516 37.9621 510.021 37.9621 509.417C37.9621 508.813 37.8382 508.315 37.5904 507.921C37.3426 507.521 36.9773 507.222 36.4944 507.025C36.0116 506.822 35.4175 506.72 34.7122 506.72H32.3868V522.436H27.6693ZM38.6578 513.515L43.5183 522.436H38.3719L33.6067 513.515H38.6578ZM58.2189 512.267L53.9397 512.381C53.8953 512.076 53.7745 511.806 53.5776 511.571C53.3806 511.33 53.1233 511.142 52.8056 511.009C52.4943 510.869 52.1321 510.799 51.7192 510.799C51.1791 510.799 50.7185 510.907 50.3373 511.123C49.9624 511.339 49.7782 511.631 49.7845 512C49.7782 512.286 49.8925 512.534 50.1276 512.743C50.369 512.953 50.7979 513.121 51.4142 513.248L54.2352 513.782C55.6965 514.062 56.783 514.525 57.4946 515.173C58.2125 515.821 58.5747 516.679 58.581 517.747C58.5747 518.75 58.2761 519.624 57.6852 520.367C57.1006 521.111 56.3001 521.689 55.2835 522.102C54.2669 522.509 53.1042 522.712 51.7954 522.712C49.7051 522.712 48.0563 522.283 46.8492 521.425C45.6483 520.561 44.9621 519.405 44.7906 517.956L49.3938 517.842C49.4954 518.376 49.7591 518.782 50.1848 519.062C50.6105 519.341 51.1537 519.481 51.8145 519.481C52.4117 519.481 52.8978 519.37 53.2726 519.148C53.6475 518.925 53.8381 518.63 53.8444 518.261C53.8381 517.931 53.692 517.667 53.406 517.47C53.1201 517.267 52.6722 517.108 52.0623 516.994L49.5081 516.508C48.0404 516.241 46.9476 515.748 46.2297 515.03C45.5117 514.306 45.1559 513.385 45.1623 512.267C45.1559 511.288 45.4164 510.453 45.9438 509.76C46.4711 509.061 47.2208 508.528 48.1929 508.159C49.165 507.791 50.3119 507.606 51.6334 507.606C53.6157 507.606 55.1787 508.022 56.3223 508.855C57.466 509.681 58.0982 510.818 58.2189 512.267ZM63.4963 522.712C62.8101 522.712 62.2224 522.47 61.7332 521.988C61.2503 521.505 61.0121 520.92 61.0184 520.234C61.0121 519.561 61.2503 518.986 61.7332 518.509C62.2224 518.026 62.8101 517.785 63.4963 517.785C64.1444 517.785 64.7162 518.026 65.2118 518.509C65.7137 518.986 65.9678 519.561 65.9742 520.234C65.9678 520.691 65.8471 521.108 65.612 521.483C65.3833 521.857 65.0815 522.156 64.7067 522.378C64.3382 522.601 63.9347 522.712 63.4963 522.712ZM73.3102 519.195V515.517L81.3062 502.917H84.5751V507.911H82.6785L77.9991 515.326V515.478H89.5785V519.195H73.3102ZM82.7357 522.436V518.071L82.831 516.46V502.917H87.2436V522.436H82.7357ZM100.124 522.912C98.4211 522.912 96.9534 522.509 95.7208 521.702C94.4882 520.888 93.5384 519.723 92.8712 518.204C92.2041 516.679 91.8737 514.846 91.8801 512.705C91.8864 510.564 92.22 508.747 92.8808 507.254C93.5479 505.754 94.4946 504.614 95.7208 503.832C96.9534 503.044 98.4211 502.651 100.124 502.651C101.827 502.651 103.294 503.044 104.527 503.832C105.766 504.614 106.719 505.754 107.386 507.254C108.053 508.753 108.383 510.57 108.377 512.705C108.377 514.853 108.044 516.689 107.376 518.214C106.709 519.738 105.759 520.904 104.527 521.711C103.301 522.512 101.833 522.912 100.124 522.912ZM100.124 519.052C101.14 519.052 101.963 518.534 102.592 517.499C103.221 516.457 103.533 514.859 103.526 512.705C103.526 511.295 103.383 510.132 103.097 509.217C102.811 508.296 102.414 507.609 101.906 507.158C101.398 506.707 100.804 506.482 100.124 506.482C99.1136 506.482 98.2972 506.993 97.6745 508.016C97.0519 509.033 96.7374 510.596 96.731 512.705C96.7247 514.135 96.8613 515.32 97.1408 516.26C97.4268 517.2 97.827 517.902 98.3417 518.366C98.8563 518.824 99.4504 519.052 100.124 519.052ZM119.151 522.912C117.448 522.912 115.981 522.509 114.748 521.702C113.516 520.888 112.566 519.723 111.899 518.204C111.231 516.679 110.901 514.846 110.907 512.705C110.914 510.564 111.247 508.747 111.908 507.254C112.575 505.754 113.522 504.614 114.748 503.832C115.981 503.044 117.448 502.651 119.151 502.651C120.854 502.651 122.322 503.044 123.554 503.832C124.793 504.614 125.746 505.754 126.413 507.254C127.08 508.753 127.411 510.57 127.404 512.705C127.404 514.853 127.071 516.689 126.404 518.214C125.737 519.738 124.787 520.904 123.554 521.711C122.328 522.512 120.86 522.912 119.151 522.912ZM119.151 519.052C120.168 519.052 120.991 518.534 121.62 517.499C122.249 516.457 122.56 514.859 122.554 512.705C122.554 511.295 122.411 510.132 122.125 509.217C121.839 508.296 121.442 507.609 120.933 507.158C120.425 506.707 119.831 506.482 119.151 506.482C118.141 506.482 117.325 506.993 116.702 508.016C116.079 509.033 115.765 510.596 115.758 512.705C115.752 514.135 115.889 515.32 116.168 516.26C116.454 517.2 116.854 517.902 117.369 518.366C117.884 518.824 118.478 519.052 119.151 519.052ZM138.179 522.912C136.476 522.912 135.008 522.509 133.776 521.702C132.543 520.888 131.593 519.723 130.926 518.204C130.259 516.679 129.928 514.846 129.935 512.705C129.941 510.564 130.275 508.747 130.935 507.254C131.603 505.754 132.549 504.614 133.776 503.832C135.008 503.044 136.476 502.651 138.179 502.651C139.881 502.651 141.349 503.044 142.582 503.832C143.821 504.614 144.774 505.754 145.441 507.254C146.108 508.753 146.438 510.57 146.432 512.705C146.432 514.853 146.098 516.689 145.431 518.214C144.764 519.738 143.814 520.904 142.582 521.711C141.355 522.512 139.888 522.912 138.179 522.912ZM138.179 519.052C139.195 519.052 140.018 518.534 140.647 517.499C141.276 516.457 141.587 514.859 141.581 512.705C141.581 511.295 141.438 510.132 141.152 509.217C140.866 508.296 140.469 507.609 139.961 507.158C139.452 506.707 138.858 506.482 138.179 506.482C137.168 506.482 136.352 506.993 135.729 508.016C135.107 509.033 134.792 510.596 134.786 512.705C134.779 514.135 134.916 515.32 135.196 516.26C135.481 517.2 135.882 517.902 136.396 518.366C136.911 518.824 137.505 519.052 138.179 519.052Z" fill="#BBB4A4"/>
<path d="M475.521 472.831C512.828 472.831 543.072 471.977 543.072 470.924C543.072 469.871 512.828 469.017 475.521 469.017C438.213 469.017 407.969 469.871 407.969 470.924C407.969 471.977 438.213 472.831 475.521 472.831Z" fill="#D8DFEA"/>
<path d="M563.569 293.629V312.168C563.569 342.277 539.166 366.694 509.073 366.694H501.443L509.912 357.959C534.773 357.511 554.85 337.141 554.85 312.168V297.992H522.152L523.242 289.268H559.21C561.618 289.267 563.569 291.219 563.569 293.629Z" fill="#865058"/>
<path d="M503.621 419.222V428.851H446.945V419.222C446.945 418.437 447.37 417.707 448.057 417.325L452.351 414.904C459.784 410.717 464.384 402.854 464.384 394.315V384.141H486.183V394.315C486.183 402.854 490.782 410.716 498.215 414.904L502.51 417.325C503.196 417.707 503.621 418.437 503.621 419.222Z" fill="#865058"/>
<path d="M503.623 419.222V428.851H498.173V419.222C498.173 418.437 497.748 417.707 497.062 417.325L492.767 414.904C485.334 410.717 480.734 402.854 480.734 394.315V384.141H486.184V394.315C486.184 402.854 490.784 410.716 498.217 414.904L502.511 417.325C503.198 417.707 503.623 418.437 503.623 419.222Z" fill="#501921"/>
<path d="M492.722 375.636V381.961C492.722 384.97 490.28 387.413 487.272 387.413H463.294C460.285 387.413 457.844 384.97 457.844 381.961V375.636H492.722Z" fill="#865058"/>
<path d="M486.183 387.413H464.385V390.619H486.183V387.413Z" fill="#501921"/>
<path d="M512.339 426.671V464.839H438.225V426.671C438.225 425.472 439.206 424.49 440.404 424.49H510.16C511.359 424.49 512.339 425.472 512.339 426.671Z" fill="#343B49"/>
<path d="M512.34 426.671V464.839H507.981V426.671C507.981 425.472 507 424.49 505.801 424.49H510.16C511.36 424.49 512.34 425.472 512.34 426.671Z" fill="#262D38"/>
<path d="M518.881 463.748V468.11C518.881 469.31 517.9 470.291 516.701 470.291H433.867C432.669 470.291 431.688 469.31 431.688 468.11V463.748C431.688 462.549 432.669 461.567 433.867 461.567H516.701C517.901 461.567 518.881 462.549 518.881 463.748Z" fill="#262D38"/>
<path d="M518.881 463.748V468.11C518.881 469.31 517.9 470.291 516.701 470.291H512.342C513.541 470.291 514.522 469.31 514.522 468.11V463.748C514.522 462.549 513.541 461.567 512.342 461.567H516.701C517.901 461.567 518.881 462.549 518.881 463.748Z" fill="#171C23"/>
<path d="M501.441 435.395V450.662C501.441 451.861 500.46 452.843 499.261 452.843H451.305C450.106 452.843 449.125 451.861 449.125 450.662V435.395C449.125 434.195 450.106 433.214 451.305 433.214H499.261C500.461 433.214 501.441 434.195 501.441 435.395Z" fill="#865058"/>
<path d="M492.724 375.636V381.961C492.724 384.97 490.282 387.413 487.274 387.413H482.914C485.922 387.413 488.364 384.97 488.364 381.961V375.636H492.724Z" fill="#501921"/>
<path d="M452.395 366.694H441.496C411.404 366.694 387 342.277 387 312.168V293.63C387 291.219 388.951 289.268 391.36 289.268H427.327V297.992H395.719V312.168C395.719 337.141 415.796 357.511 440.657 357.959L452.395 366.694Z" fill="#865058"/>
<path d="M528.69 280.543V284.905C528.69 337.904 504.777 380.87 475.283 380.87C445.79 380.87 421.877 337.904 421.877 284.905V280.543H528.69Z" fill="#865058"/>
<path d="M422.368 297.992H418.008C417.79 295.123 417.649 292.212 417.572 289.268H421.932C422.008 292.212 422.15 295.123 422.368 297.992Z" fill="#501921"/>
<path d="M447.336 366.693H442.976C440.546 364.01 438.235 360.979 436.088 357.642C437.592 357.827 439.107 357.925 440.655 357.958C442.748 361.175 444.982 364.097 447.336 366.693Z" fill="#501921"/>
<path d="M492.723 375.636V377.817C487.252 381.208 481.388 383.051 475.284 383.051C469.181 383.051 463.317 381.208 457.846 377.817V375.636C463.317 379.027 469.181 380.87 475.284 380.87C481.388 380.87 487.252 379.027 492.723 375.636Z" fill="#501921"/>
<path d="M528.691 280.543V284.905C528.691 336.246 506.249 378.177 478.031 380.75C505.454 378.144 515.612 336.225 515.612 284.905V280.543H528.691Z" fill="#501921"/>
<path d="M534.142 279.452C534.142 280.958 533.531 282.321 532.55 283.313C531.558 284.294 530.196 284.905 528.692 284.905H421.879C418.871 284.905 416.43 282.462 416.43 279.452C416.43 277.947 417.04 276.584 418.021 275.592C419.013 274.611 420.375 274 421.879 274H528.692C531.7 274 534.142 276.443 534.142 279.452Z" fill="#865058"/>
<path d="M528.69 284.905C528.69 286.367 528.668 287.817 528.635 289.267H421.931C421.899 287.817 421.877 286.367 421.877 284.905H528.69Z" fill="#501921"/>
<path d="M534.14 279.452C534.14 280.958 533.53 282.321 532.549 283.313C531.557 284.294 530.195 284.905 528.691 284.905H516.701C518.205 284.905 519.568 284.294 520.56 283.313C521.541 282.321 522.151 280.957 522.151 279.452C522.151 276.443 519.71 274 516.701 274H528.691C531.699 274 534.14 276.443 534.14 279.452Z" fill="#501921"/>
<path d="M501.442 435.395V450.662C501.442 451.862 500.461 452.843 499.262 452.843H455.992C464.799 452.669 493.813 450.793 493.813 433.214H499.262C500.461 433.214 501.442 434.196 501.442 435.395Z" fill="#501921"/>
<path d="M451.307 445.21V436.288C451.307 435.795 451.706 435.396 452.198 435.396H471.743C471.743 435.396 456.211 437.031 451.307 445.21Z" fill="#A0616A"/>
<path d="M440.678 436.486V427.564C440.678 427.071 441.077 426.672 441.569 426.672H461.114C461.114 426.672 445.582 428.307 440.678 436.486Z" fill="#4E5868"/>
<path d="M475.282 377.598C463.445 377.598 430.617 352.615 426.639 293.629H439.587C442.846 365.799 475.282 377.598 475.282 377.598Z" fill="#A0616A"/>
<path d="M452.396 420.129C452.396 420.129 467.655 410.315 467.655 396.138V420.129H452.396Z" fill="#A0616A"/>
<path d="M424.057 276.181V279.452H418.607C418.607 277.653 420.068 276.181 421.877 276.181H424.057Z" fill="#A0616A"/>
<path d="M531.907 289.267C531.831 292.211 531.689 295.123 531.46 297.991H522.152L523.242 289.267H531.907Z" fill="#501921"/>
<path d="M513.313 357.772C511.176 361.055 508.898 364.043 506.5 366.693H501.443L505.302 362.724L509.912 357.958C511.057 357.936 512.19 357.871 513.313 357.772Z" fill="#501921"/>
<path d="M418.442 520.067V500.549H426.505C427.966 500.549 429.227 500.813 430.288 501.34C431.356 501.861 432.178 502.611 432.757 503.589C433.335 504.561 433.624 505.715 433.624 507.049C433.624 508.402 433.328 509.552 432.737 510.499C432.147 511.439 431.308 512.157 430.221 512.653C429.135 513.142 427.848 513.387 426.362 513.387H421.263V509.67H425.485C426.196 509.67 426.791 509.578 427.267 509.393C427.75 509.203 428.115 508.917 428.363 508.536C428.611 508.148 428.735 507.653 428.735 507.049C428.735 506.445 428.611 505.947 428.363 505.553C428.115 505.152 427.75 504.854 427.267 504.657C426.784 504.453 426.19 504.352 425.485 504.352H423.159V520.067H418.442ZM429.43 511.147L434.291 520.067H429.145L424.379 511.147H429.43ZM448.992 509.898L444.712 510.013C444.668 509.708 444.547 509.438 444.35 509.203C444.153 508.961 443.896 508.774 443.578 508.64C443.267 508.501 442.905 508.431 442.492 508.431C441.952 508.431 441.491 508.539 441.11 508.755C440.735 508.971 440.551 509.263 440.557 509.632C440.551 509.918 440.665 510.165 440.9 510.375C441.142 510.585 441.571 510.753 442.187 510.88L445.008 511.414C446.469 511.693 447.556 512.157 448.267 512.805C448.985 513.453 449.347 514.311 449.354 515.378C449.347 516.382 449.049 517.256 448.458 517.999C447.873 518.743 447.073 519.321 446.056 519.734C445.04 520.14 443.877 520.344 442.568 520.344C440.478 520.344 438.829 519.915 437.622 519.057C436.421 518.193 435.735 517.037 435.563 515.588L440.166 515.474C440.268 516.007 440.532 516.414 440.957 516.694C441.383 516.973 441.926 517.113 442.587 517.113C443.184 517.113 443.67 517.002 444.045 516.779C444.42 516.557 444.611 516.262 444.617 515.893C444.611 515.563 444.465 515.299 444.179 515.102C443.893 514.899 443.445 514.74 442.835 514.626L440.281 514.14C438.813 513.873 437.72 513.38 437.002 512.662C436.284 511.938 435.929 511.017 435.935 509.898C435.929 508.92 436.189 508.085 436.716 507.392C437.244 506.693 437.993 506.159 438.966 505.791C439.938 505.422 441.084 505.238 442.406 505.238C444.388 505.238 445.951 505.654 447.095 506.487C448.239 507.313 448.871 508.45 448.992 509.898ZM454.269 520.344C453.583 520.344 452.995 520.102 452.506 519.619C452.023 519.137 451.785 518.552 451.791 517.866C451.785 517.192 452.023 516.617 452.506 516.141C452.995 515.658 453.583 515.417 454.269 515.417C454.917 515.417 455.489 515.658 455.984 516.141C456.486 516.617 456.74 517.192 456.747 517.866C456.74 518.323 456.62 518.739 456.385 519.114C456.156 519.489 455.854 519.788 455.479 520.01C455.111 520.233 454.707 520.344 454.269 520.344ZM464.321 520.067V516.675L471.44 510.442C471.974 509.959 472.428 509.517 472.803 509.117C473.178 508.71 473.464 508.304 473.661 507.897C473.858 507.484 473.956 507.036 473.956 506.553C473.956 506.013 473.839 505.553 473.604 505.171C473.369 504.784 473.045 504.485 472.632 504.276C472.219 504.066 471.745 503.961 471.212 503.961C470.671 503.961 470.198 504.072 469.792 504.295C469.385 504.511 469.067 504.825 468.838 505.238C468.616 505.651 468.505 506.153 468.505 506.744H464.035C464.035 505.416 464.334 504.269 464.931 503.303C465.528 502.338 466.367 501.594 467.447 501.073C468.534 500.546 469.795 500.282 471.231 500.282C472.711 500.282 473.998 500.53 475.09 501.026C476.183 501.521 477.028 502.214 477.625 503.103C478.229 503.986 478.531 505.013 478.531 506.182C478.531 506.925 478.382 507.662 478.083 508.393C477.784 509.123 477.247 509.93 476.472 510.813C475.704 511.697 474.611 512.754 473.194 513.987L470.859 516.141V516.265H478.769V520.067H464.321ZM489.507 520.544C487.805 520.544 486.337 520.14 485.104 519.334C483.872 518.52 482.922 517.354 482.255 515.836C481.588 514.311 481.257 512.478 481.264 510.337C481.27 508.196 481.604 506.379 482.264 504.886C482.931 503.386 483.878 502.246 485.104 501.464C486.337 500.676 487.805 500.282 489.507 500.282C491.21 500.282 492.678 500.676 493.91 501.464C495.149 502.246 496.102 503.386 496.77 504.886C497.437 506.385 497.767 508.202 497.761 510.337C497.761 512.484 497.427 514.321 496.76 515.845C496.093 517.37 495.143 518.536 493.91 519.343C492.684 520.144 491.217 520.544 489.507 520.544ZM489.507 516.684C490.524 516.684 491.347 516.166 491.976 515.131C492.605 514.089 492.916 512.491 492.91 510.337C492.91 508.926 492.767 507.764 492.481 506.849C492.195 505.928 491.798 505.241 491.29 504.79C490.781 504.339 490.187 504.114 489.507 504.114C488.497 504.114 487.681 504.625 487.058 505.648C486.435 506.665 486.121 508.228 486.115 510.337C486.108 511.766 486.245 512.951 486.524 513.892C486.81 514.832 487.211 515.534 487.725 515.998C488.24 516.455 488.834 516.684 489.507 516.684ZM508.535 520.544C506.832 520.544 505.364 520.14 504.132 519.334C502.899 518.52 501.949 517.354 501.282 515.836C500.615 514.311 500.285 512.478 500.291 510.337C500.297 508.196 500.631 506.379 501.292 504.886C501.959 503.386 502.906 502.246 504.132 501.464C505.364 500.676 506.832 500.282 508.535 500.282C510.238 500.282 511.705 500.676 512.938 501.464C514.177 502.246 515.13 503.386 515.797 504.886C516.464 506.385 516.794 508.202 516.788 510.337C516.788 512.484 516.455 514.321 515.787 515.845C515.12 517.37 514.17 518.536 512.938 519.343C511.712 520.144 510.244 520.544 508.535 520.544ZM508.535 516.684C509.551 516.684 510.374 516.166 511.003 515.131C511.632 514.089 511.943 512.491 511.937 510.337C511.937 508.926 511.794 507.764 511.508 506.849C511.222 505.928 510.825 505.241 510.317 504.79C509.809 504.339 509.215 504.114 508.535 504.114C507.525 504.114 506.708 504.625 506.085 505.648C505.463 506.665 505.148 508.228 505.142 510.337C505.136 511.766 505.272 512.951 505.552 513.892C505.838 514.832 506.238 515.534 506.753 515.998C507.267 516.455 507.861 516.684 508.535 516.684ZM527.562 520.544C525.859 520.544 524.392 520.14 523.159 519.334C521.927 518.52 520.977 517.354 520.31 515.836C519.642 514.311 519.312 512.478 519.318 510.337C519.325 508.196 519.658 506.379 520.319 504.886C520.986 503.386 521.933 502.246 523.159 501.464C524.392 500.676 525.859 500.282 527.562 500.282C529.265 500.282 530.733 500.676 531.965 501.464C533.204 502.246 534.157 503.386 534.824 504.886C535.491 506.385 535.822 508.202 535.815 510.337C535.815 512.484 535.482 514.321 534.815 515.845C534.148 517.37 533.198 518.536 531.965 519.343C530.739 520.144 529.271 520.544 527.562 520.544ZM527.562 516.684C528.579 516.684 529.402 516.166 530.031 515.131C530.66 514.089 530.971 512.491 530.964 510.337C530.964 508.926 530.822 507.764 530.536 506.849C530.25 505.928 529.853 505.241 529.344 504.79C528.836 504.339 528.242 504.114 527.562 504.114C526.552 504.114 525.736 504.625 525.113 505.648C524.49 506.665 524.176 508.228 524.169 510.337C524.163 511.766 524.3 512.951 524.579 513.892C524.865 514.832 525.265 515.534 525.78 515.998C526.295 516.455 526.889 516.684 527.562 516.684Z" fill="#865058"/>
</svg>
