<svg width="178" height="253" viewBox="0 0 178 253" fill="none" xmlns="http://www.w3.org/2000/svg">
<path d="M88.9971 198.831C126.305 198.831 156.549 197.977 156.549 196.924C156.549 195.871 126.305 195.017 88.9971 195.017C51.6893 195.017 21.4453 195.871 21.4453 196.924C21.4453 197.977 51.6893 198.831 88.9971 198.831Z" fill="#D8DFEA"/>
<path d="M177.046 19.6292V38.168C177.046 68.2771 152.642 92.6937 122.55 92.6937H114.92L123.389 83.9586C148.25 83.5114 168.326 63.1409 168.326 38.168V23.9916H135.629L136.719 15.2676H172.686C175.095 15.2668 177.046 17.219 177.046 19.6292Z" fill="#E8A615"/>
<path d="M117.098 145.223V154.852H60.4219V145.223C60.4219 144.438 60.8468 143.708 61.5335 143.326L65.8279 140.905C73.261 136.718 77.8606 128.855 77.8606 120.316V110.142H99.6591V120.316C99.6591 128.855 104.259 136.717 111.692 140.905L115.986 143.326C116.673 143.708 117.098 144.438 117.098 145.223Z" fill="#E8A615"/>
<path d="M117.099 145.223V154.852H111.65V145.223C111.65 144.438 111.225 143.708 110.538 143.326L106.244 140.905C98.8105 136.718 94.2109 128.855 94.2109 120.316V110.142H99.6607V120.316C99.6607 128.855 104.26 136.717 111.693 140.905L115.988 143.326C116.674 143.708 117.099 144.438 117.099 145.223Z" fill="#B7791D"/>
<path d="M106.198 101.636V107.961C106.198 110.97 103.757 113.413 100.748 113.413H76.7701C73.7619 113.413 71.3203 110.97 71.3203 107.961V101.636H106.198Z" fill="#E8A615"/>
<path d="M99.6598 113.413H77.8613V116.619H99.6598V113.413Z" fill="#B7791D"/>
<path d="M125.816 152.672V190.84H51.7012V152.672C51.7012 151.473 52.6823 150.491 53.881 150.491H123.636C124.835 150.491 125.816 151.473 125.816 152.672Z" fill="#343B49"/>
<path d="M125.817 152.672V190.84H121.457V152.672C121.457 151.473 120.476 150.491 119.277 150.491H123.637C124.836 150.491 125.817 151.473 125.817 152.672Z" fill="#262D38"/>
<path d="M132.358 189.749V194.111C132.358 195.311 131.377 196.292 130.178 196.292H47.3439C46.1452 196.292 45.1641 195.311 45.1641 194.111V189.749C45.1641 188.55 46.1452 187.568 47.3439 187.568H130.178C131.377 187.568 132.358 188.55 132.358 189.749Z" fill="#262D38"/>
<path d="M132.358 189.749V194.111C132.358 195.311 131.377 196.292 130.178 196.292H125.818C127.017 196.292 127.998 195.311 127.998 194.111V189.749C127.998 188.55 127.017 187.568 125.818 187.568H130.178C131.377 187.568 132.358 188.55 132.358 189.749Z" fill="#171C23"/>
<path d="M114.918 161.395V176.662C114.918 177.861 113.937 178.843 112.738 178.843H64.7814C63.5827 178.843 62.6016 177.861 62.6016 176.662V161.395C62.6016 160.195 63.5827 159.214 64.7814 159.214H112.738C113.937 159.214 114.918 160.195 114.918 161.395Z" fill="#E8A615"/>
<path d="M106.2 101.636V107.961C106.2 110.97 103.759 113.413 100.75 113.413H96.3906C99.3988 113.413 101.84 110.97 101.84 107.961V101.636H106.2Z" fill="#B7791D"/>
<path d="M65.8719 92.6937H54.9727C24.8802 92.6937 0.476562 68.2771 0.476562 38.168V19.6296C0.476562 17.2194 2.42764 15.2676 4.83625 15.2676H40.8039V23.9916H9.19595V38.168C9.19595 63.1409 29.2725 83.5114 54.1336 83.9586L65.8719 92.6937Z" fill="#E8A615"/>
<path d="M142.166 6.54297V10.905C142.166 63.9037 118.253 106.87 88.7599 106.87C59.2666 106.87 35.3535 63.9041 35.3535 10.905V6.54297H142.166Z" fill="#E8A615"/>
<path d="M35.8446 23.9916H31.4849C31.2669 21.1235 31.1252 18.212 31.0488 15.2676H35.4085C35.4849 18.2117 35.6265 21.1235 35.8446 23.9916Z" fill="#B7791D"/>
<path d="M60.8126 92.693H56.4529C54.0224 90.0103 51.7117 86.9787 49.5645 83.6416C51.0687 83.827 52.5834 83.9253 54.1314 83.9579C56.2241 87.1749 58.4585 90.0975 60.8126 92.693Z" fill="#B7791D"/>
<path d="M106.2 101.636V103.817C100.728 107.208 94.8645 109.051 88.761 109.051C82.6575 109.051 76.7936 107.208 71.3223 103.817V101.636C76.7936 105.027 82.6575 106.87 88.761 106.87C94.8645 106.87 100.728 105.027 106.2 101.636Z" fill="#B7791D"/>
<path d="M142.167 6.54297V10.905C142.167 62.2463 119.726 104.177 91.5078 106.75C118.93 104.144 129.088 62.2248 129.088 10.905V6.54297H142.167Z" fill="#B7791D"/>
<path d="M147.616 5.45249C147.616 6.95754 147.006 8.32057 146.025 9.3128C145.033 10.2943 143.671 10.905 142.167 10.905H35.3541C32.3459 10.905 29.9043 8.46221 29.9043 5.45249C29.9043 3.94744 30.5146 2.58442 31.4957 1.59218C32.4876 0.610694 33.8498 0 35.3541 0H142.167C145.175 0 147.616 2.44278 147.616 5.45249Z" fill="#E8A615"/>
<path d="M142.166 10.9053C142.166 12.3666 142.144 13.8171 142.112 15.2673H35.408C35.3754 13.8167 35.3535 12.3666 35.3535 10.9053H142.166Z" fill="#B7791D"/>
<path d="M147.617 5.45249C147.617 6.95754 147.007 8.32057 146.025 9.3128C145.034 10.2943 143.671 10.905 142.167 10.905H130.178C131.682 10.905 133.044 10.2943 134.036 9.3128C135.017 8.32057 135.628 6.95716 135.628 5.45249C135.628 2.44278 133.186 0 130.178 0H142.167C145.176 0 147.617 2.44278 147.617 5.45249Z" fill="#B7791D"/>
<path d="M114.917 161.395V176.662C114.917 177.862 113.935 178.843 112.737 178.843H69.4668C78.2733 178.669 107.287 176.793 107.287 159.214H112.737C113.936 159.214 114.917 160.196 114.917 161.395Z" fill="#B7791D"/>
<path d="M64.7832 171.21V162.288C64.7832 161.795 65.1824 161.396 65.6749 161.396H85.2194C85.2194 161.396 69.688 163.031 64.7832 171.21Z" fill="#FFCC66"/>
<path d="M54.1543 162.486V153.564C54.1543 153.071 54.5535 152.672 55.046 152.672H74.5905C74.5905 152.672 59.0587 154.307 54.1543 162.486Z" fill="#4E5868"/>
<path d="M88.7585 103.598C76.922 103.598 44.0934 78.6149 40.1152 19.6289H53.0634C56.3222 91.7991 88.7585 103.598 88.7585 103.598Z" fill="#FFCC66"/>
<path d="M65.8711 146.129C65.8711 146.129 81.13 136.315 81.13 122.138V146.129H65.8711Z" fill="#FFCC66"/>
<path d="M37.5338 2.18066V5.45216H32.084C32.084 3.6527 33.5445 2.18066 35.3539 2.18066H37.5338Z" fill="#FFCC66"/>
<path d="M145.384 15.2666C145.307 18.2111 145.165 21.1225 144.937 23.9906H135.629L136.719 15.2666H145.384Z" fill="#B7791D"/>
<path d="M126.789 83.7725C124.653 87.0547 122.375 90.0429 119.977 92.693H114.92L118.778 88.7237L123.389 83.9582C124.533 83.936 125.667 83.8707 126.789 83.7725Z" fill="#B7791D"/>
<path d="M25.5809 246.962V227.444H33.6436C35.1049 227.444 36.3661 227.707 37.4272 228.235C38.4946 228.756 39.3174 229.505 39.8955 230.484C40.4737 231.456 40.7628 232.609 40.7628 233.943C40.7628 235.297 40.4674 236.447 39.8765 237.393C39.2856 238.334 38.4469 239.052 37.3605 239.547C36.274 240.037 34.9874 240.281 33.5007 240.281H28.4019V236.564H32.6239C33.3355 236.564 33.9295 236.472 34.406 236.288C34.8889 236.097 35.2542 235.811 35.502 235.43C35.7498 235.043 35.8737 234.547 35.8737 233.943C35.8737 233.34 35.7498 232.841 35.502 232.447C35.2542 232.047 34.8889 231.748 34.406 231.551C33.9232 231.348 33.3291 231.246 32.6239 231.246H30.2985V246.962H25.5809ZM36.5694 238.042L41.4299 246.962H36.2835L31.5183 238.042H36.5694ZM56.1305 236.793L51.8514 236.907C51.8069 236.602 51.6862 236.332 51.4892 236.097C51.2922 235.856 51.0349 235.668 50.7172 235.535C50.4059 235.395 50.0438 235.325 49.6308 235.325C49.0907 235.325 48.6301 235.433 48.2489 235.649C47.874 235.865 47.6898 236.158 47.6961 236.526C47.6898 236.812 47.8041 237.06 48.0392 237.27C48.2807 237.479 48.7095 237.648 49.3258 237.775L52.1468 238.308C53.6081 238.588 54.6946 239.052 55.4062 239.7C56.1241 240.348 56.4863 241.206 56.4926 242.273C56.4863 243.277 56.1877 244.15 55.5968 244.894C55.0123 245.637 54.2117 246.215 53.1951 246.628C52.1786 247.035 51.0159 247.238 49.707 247.238C47.6167 247.238 45.968 246.809 44.7608 245.952C43.56 245.088 42.8738 243.931 42.7022 242.483L47.3054 242.368C47.407 242.902 47.6707 243.309 48.0964 243.588C48.5221 243.868 49.0653 244.008 49.7261 244.008C50.3233 244.008 50.8094 243.896 51.1842 243.674C51.5591 243.452 51.7497 243.156 51.7561 242.788C51.7497 242.457 51.6036 242.194 51.3177 241.997C51.0317 241.793 50.5838 241.634 49.9739 241.52L47.4197 241.034C45.9521 240.767 44.8593 240.275 44.1413 239.557C43.4233 238.833 43.0675 237.911 43.0739 236.793C43.0675 235.815 43.328 234.979 43.8554 234.287C44.3827 233.588 45.1325 233.054 46.1046 232.685C47.0767 232.317 48.2235 232.133 49.545 232.133C51.5273 232.133 53.0903 232.549 54.2339 233.381C55.3776 234.207 56.0098 235.344 56.1305 236.793ZM61.4079 247.238C60.7217 247.238 60.134 246.997 59.6448 246.514C59.1619 246.031 58.9237 245.447 58.93 244.76C58.9237 244.087 59.1619 243.512 59.6448 243.035C60.134 242.553 60.7217 242.311 61.4079 242.311C62.056 242.311 62.6278 242.553 63.1234 243.035C63.6253 243.512 63.8795 244.087 63.8858 244.76C63.8795 245.218 63.7587 245.634 63.5237 246.009C63.2949 246.384 62.9931 246.682 62.6183 246.905C62.2498 247.127 61.8463 247.238 61.4079 247.238ZM79.2845 247.229C78.2171 247.229 77.1942 247.057 76.2157 246.714C75.2373 246.365 74.3668 245.812 73.6044 245.056C72.842 244.293 72.2416 243.296 71.8032 242.063C71.3648 240.824 71.1487 239.315 71.1551 237.536C71.1615 235.929 71.3584 234.487 71.746 233.21C72.1335 231.926 72.6863 230.837 73.4043 229.941C74.1286 229.045 74.9927 228.362 75.9965 227.892C77.0067 227.415 78.1345 227.177 79.3798 227.177C80.7458 227.177 81.9498 227.444 82.9918 227.977C84.0401 228.505 84.8788 229.216 85.5078 230.112C86.1368 231.002 86.5085 231.993 86.6229 233.086H81.9816C81.8418 232.469 81.5337 232.002 81.0571 231.685C80.587 231.361 80.0279 231.199 79.3798 231.199C78.1853 231.199 77.2926 231.717 76.7018 232.752C76.1172 233.788 75.8186 235.173 75.8059 236.907H75.9298C76.1967 236.323 76.581 235.821 77.083 235.402C77.5849 234.982 78.1599 234.661 78.808 234.439C79.4624 234.21 80.1549 234.096 80.8856 234.096C82.0546 234.096 83.0871 234.366 83.983 234.906C84.8788 235.446 85.5809 236.186 86.0892 237.127C86.5975 238.061 86.8484 239.131 86.8421 240.338C86.8484 241.698 86.5307 242.899 85.889 243.941C85.2473 244.976 84.3578 245.783 83.2205 246.362C82.0896 246.94 80.7776 247.229 79.2845 247.229ZM79.2559 243.607C79.8341 243.607 80.3519 243.471 80.8093 243.197C81.2668 242.924 81.6258 242.553 81.8863 242.082C82.1468 241.612 82.2738 241.082 82.2675 240.491C82.2738 239.894 82.1468 239.363 81.8863 238.899C81.6321 238.435 81.2763 238.067 80.8189 237.794C80.3678 237.521 79.85 237.384 79.2654 237.384C78.8397 237.384 78.4426 237.463 78.0741 237.622C77.7056 237.781 77.3848 238.003 77.1116 238.289C76.8447 238.569 76.6351 238.899 76.4826 239.28C76.3301 239.655 76.2507 240.062 76.2443 240.5C76.2507 241.079 76.3841 241.603 76.6446 242.073C76.9051 242.543 77.2609 242.918 77.712 243.197C78.1631 243.471 78.6777 243.607 79.2559 243.607ZM93.5514 244.293L93.4657 245.351C93.3894 246.228 93.2338 247.083 92.9987 247.915C92.7699 248.754 92.5253 249.507 92.2648 250.174C92.0043 250.841 91.7978 251.359 91.6454 251.727H88.71C88.8117 251.359 88.9483 250.841 89.1198 250.174C89.2977 249.507 89.4629 248.754 89.6154 247.915C89.7679 247.076 89.8537 246.225 89.8727 245.361L89.8918 244.293H93.5514ZM104.325 247.438C102.623 247.438 101.155 247.035 99.9225 246.228C98.6899 245.415 97.74 244.249 97.0729 242.73C96.4058 241.206 96.0754 239.373 96.0817 237.231C96.0881 235.09 96.4217 233.273 97.0824 231.78C97.7496 230.281 98.6962 229.14 99.9225 228.359C101.155 227.571 102.623 227.177 104.325 227.177C106.028 227.177 107.496 227.571 108.729 228.359C109.967 229.14 110.921 230.281 111.588 231.78C112.255 233.279 112.585 235.097 112.579 237.231C112.579 239.379 112.245 241.215 111.578 242.74C110.911 244.265 109.961 245.431 108.729 246.238C107.502 247.038 106.035 247.438 104.325 247.438ZM104.325 243.579C105.342 243.579 106.165 243.061 106.794 242.025C107.423 240.983 107.734 239.385 107.728 237.231C107.728 235.821 107.585 234.658 107.299 233.743C107.013 232.822 106.616 232.136 106.108 231.685C105.599 231.234 105.005 231.008 104.325 231.008C103.315 231.008 102.499 231.52 101.876 232.542C101.254 233.559 100.939 235.122 100.933 237.231C100.926 238.661 101.063 239.846 101.342 240.786C101.628 241.727 102.029 242.429 102.543 242.892C103.058 243.35 103.652 243.579 104.325 243.579ZM123.353 247.438C121.65 247.438 120.182 247.035 118.95 246.228C117.717 245.415 116.767 244.249 116.1 242.73C115.433 241.206 115.103 239.373 115.109 237.231C115.115 235.09 115.449 233.273 116.11 231.78C116.777 230.281 117.724 229.14 118.95 228.359C120.182 227.571 121.65 227.177 123.353 227.177C125.056 227.177 126.523 227.571 127.756 228.359C128.995 229.14 129.948 230.281 130.615 231.78C131.282 233.279 131.612 235.097 131.606 237.231C131.606 239.379 131.273 241.215 130.605 242.74C129.938 244.265 128.988 245.431 127.756 246.238C126.53 247.038 125.062 247.438 123.353 247.438ZM123.353 243.579C124.369 243.579 125.192 243.061 125.821 242.025C126.45 240.983 126.762 239.385 126.755 237.231C126.755 235.821 126.612 234.658 126.326 233.743C126.04 232.822 125.643 232.136 125.135 231.685C124.627 231.234 124.033 231.008 123.353 231.008C122.343 231.008 121.526 231.52 120.904 232.542C120.281 233.559 119.966 235.122 119.96 237.231C119.954 238.661 120.09 239.846 120.37 240.786C120.656 241.727 121.056 242.429 121.571 242.892C122.085 243.35 122.679 243.579 123.353 243.579ZM142.38 247.438C140.677 247.438 139.21 247.035 137.977 246.228C136.745 245.415 135.795 244.249 135.128 242.73C134.46 241.206 134.13 239.373 134.136 237.231C134.143 235.09 134.476 233.273 135.137 231.78C135.804 230.281 136.751 229.14 137.977 228.359C139.21 227.571 140.677 227.177 142.38 227.177C144.083 227.177 145.551 227.571 146.783 228.359C148.022 229.14 148.975 230.281 149.642 231.78C150.309 233.279 150.64 235.097 150.633 237.231C150.633 239.379 150.3 241.215 149.633 242.74C148.966 244.265 148.016 245.431 146.783 246.238C145.557 247.038 144.089 247.438 142.38 247.438ZM142.38 243.579C143.397 243.579 144.22 243.061 144.849 242.025C145.478 240.983 145.789 239.385 145.783 237.231C145.783 235.821 145.64 234.658 145.354 233.743C145.068 232.822 144.671 232.136 144.162 231.685C143.654 231.234 143.06 231.008 142.38 231.008C141.37 231.008 140.554 231.52 139.931 232.542C139.308 233.559 138.994 235.122 138.987 237.231C138.981 238.661 139.118 239.846 139.397 240.786C139.683 241.727 140.083 242.429 140.598 242.892C141.113 243.35 141.707 243.579 142.38 243.579Z" fill="#FFB800"/>
</svg>
