<svg width="26" height="28" viewBox="0 0 26 28" fill="none" xmlns="http://www.w3.org/2000/svg">
<path d="M13 24.3824L11.5882 27.2059H4.52941L3.11765 20.853L1 20.1471L2.41176 15.2059V11.6765V10.2647L3.11765 8.85296L3.82353 7.4412L4.52941 6.42371L5.23529 5.32355L5.94118 4.61767L7.35294 3.2059L8.76471 2.50002L10.1765 1.79414L12.2941 1.08826H13.7059H16.1308L17.9412 1.79414L19.3529 2.50002L20.7647 3.91179L22.1765 5.32355L23.5882 6.73532L24.2941 8.85296L25 10.9706V13.0883V15.9118L24.2941 18.0294L22.1765 20.1471V22.2647V24.3824V26.5V27.9118M15.1176 20.1471V17.3236L13.7059 16.6177L10.8824 15.9118L10.1765 15.2059V14.1471M11.5882 12.3824L10.1765 13.0883V14.1471M10.1765 14.1471L8.05882 13.7941L6.64706 12.3824L5.94118 10.9706V9.55885L7.35294 8.14708H8.05882H8.76471L9.11765 7.4412M20.0588 11.6765V10.9706M20.0588 10.9706V10.2647V8.85296L19.3529 8.14708L17.9412 7.4412H16.5294L16.1308 6.02943L15.1176 5.32355L13.7059 4.61767H13H11.5882L10.1765 6.02943L9.47059 6.73532L9.11765 7.4412M20.0588 10.9706L21.4706 12.3824V13.7941L20.7647 15.2059L19.3529 15.9118L17.2353 15.2059L16.5294 13.7941L17.2353 13.0883L17.9412 10.9706L16.5294 13.0883L14.4118 12.3824M15.1176 10.2647L14.4118 8.85296L13 8.14708L11.5882 8.85296V9.55885M9.93025 9.55885L9.11765 7.4412" stroke="white" stroke-width="1.41176"/>
</svg>
