<svg width="40" height="41" viewBox="0 0 40 41" fill="none" xmlns="http://www.w3.org/2000/svg">
<g clip-path="url(#clip0_233_675)">
<path d="M0 3.365C0 1.7825 1.315 0.5 2.9375 0.5H37.0625C38.685 0.5 40 1.7825 40 3.365V37.635C40 39.2175 38.685 40.5 37.0625 40.5H2.9375C1.315 40.5 0 39.2175 0 37.635V3.365ZM12.3575 33.985V15.9225H6.355V33.985H12.3575ZM9.3575 13.455C11.45 13.455 12.7525 12.07 12.7525 10.335C12.715 8.5625 11.4525 7.215 9.3975 7.215C7.3425 7.215 6 8.565 6 10.335C6 12.07 7.3025 13.455 9.3175 13.455H9.3575ZM21.6275 33.985V23.8975C21.6275 23.3575 21.6675 22.8175 21.8275 22.4325C22.26 21.355 23.2475 20.2375 24.9075 20.2375C27.08 20.2375 27.9475 21.8925 27.9475 24.3225V33.985H33.95V23.625C33.95 18.075 30.99 15.495 27.04 15.495C23.855 15.495 22.4275 17.245 21.6275 18.4775V18.54H21.5875C21.6008 18.5191 21.6141 18.4983 21.6275 18.4775V15.9225H15.6275C15.7025 17.6175 15.6275 33.985 15.6275 33.985H21.6275Z" fill="white"/>
</g>
<defs>
<clipPath id="clip0_233_675">
<rect width="40" height="40" fill="white" transform="translate(0 0.5)"/>
</clipPath>
</defs>
</svg>
