<svg width="397" height="46" viewBox="0 0 397 46" fill="none" xmlns="http://www.w3.org/2000/svg">
<path d="M10.0602 45H0.737209V44.2472C0.737209 44.2472 4.44326 44.3051 4.44326 39.9621L4.50116 9.56093C4.50116 5.50744 1.49 5.2179 1.49 5.2179V4.46511H14.6349L15.793 8.11325L22.1049 27.6858L29.1116 8.28698L30.4435 4.46511H42.9514V5.2179C42.9514 5.2179 39.9402 6.0286 39.9402 10.7191L40.0561 38.746C40.0561 43.9577 43.9937 44.2472 43.9937 44.2472V45H26.6216V44.2472C26.6216 44.2472 29.7486 43.9577 29.7486 38.746L29.6328 12.8037L18.0514 45.2316L17.4144 45.1737L6.41209 12.8037L6.52791 39.9621C6.52791 44.5367 10.0602 43.8419 10.0602 44.2472V45ZM69.7822 36.0244L70.5929 36.6035C68.5662 39.9621 66.0183 42.2784 62.428 43.0891C61.3278 43.4365 59.6485 43.5523 58.4325 43.5523C53.1629 43.5523 49.3411 40.8307 47.4301 35.9665C43.7241 26.1802 49.2832 15.1779 59.7064 15.1779C67.0606 15.1779 70.0139 21.2581 70.0139 28.5544H55.7108C55.2476 32.8974 56.1162 41.236 61.6753 41.4677C65.2076 41.5835 67.9292 38.9198 69.7822 36.0244ZM58.4904 16.4519C55.8846 16.6835 55.8846 24.2693 55.7108 26.8751H61.5594C61.3857 22.1267 61.5594 16.2781 58.4904 16.4519ZM98.7357 36.0244L99.5464 36.6035C97.5197 39.9621 94.9718 42.2784 91.3815 43.0891C90.2813 43.4365 88.602 43.5523 87.386 43.5523C82.1164 43.5523 78.2946 40.8307 76.3836 35.9665C72.6776 26.1802 78.2367 15.1779 88.6599 15.1779C96.0141 15.1779 98.9674 21.2581 98.9674 28.5544H84.6643C84.2011 32.8974 85.0697 41.236 90.6287 41.4677C94.1611 41.5835 96.8827 38.9198 98.7357 36.0244ZM87.4439 16.4519C84.838 16.6835 84.838 24.2693 84.6643 26.8751H90.5129C90.3392 22.1267 90.5129 16.2781 87.4439 16.4519ZM122.767 37.9933L123.694 38.746C123.694 38.746 122.593 40.657 121.493 41.7572C119.177 44.0735 116.571 45 113.212 45C110.722 45 108.812 44.3051 107.422 42.8574C106.09 41.4098 105.395 39.6147 105.395 37.4721V15.9886H102.5V15.0621L114.371 5.56534H115.529V13.7881H122.999L122.709 15.9886H115.529V37.4721C115.529 38.9777 115.76 40.1358 116.224 40.8886C116.687 41.6414 117.324 42.0467 118.019 42.0467C118.829 42.0467 119.698 41.6414 120.567 40.8886C121.435 40.1358 122.188 39.1514 122.767 37.9933ZM165.632 37.9933L166.558 38.746C166.558 38.746 165.458 40.657 164.358 41.7572C162.042 44.0735 159.436 45 156.077 45C153.587 45 151.676 44.3051 150.287 42.8574C148.955 41.4098 148.26 39.6147 148.26 37.4721V15.9886H145.364V15.0621L157.235 5.56534H158.393V13.7881H165.863L165.574 15.9886H158.393V37.4721C158.393 38.9777 158.625 40.1358 159.088 40.8886C159.552 41.6414 160.189 42.0467 160.883 42.0467C161.694 42.0467 162.563 41.6414 163.431 40.8886C164.3 40.1358 165.053 39.1514 165.632 37.9933ZM198.174 40.1358C198.116 42.6258 199.564 44.1893 201.127 44.1314V45H186.13V44.1893C187.809 44.1893 188.388 41.5835 188.562 38.804C188.793 34.4609 188.677 27.8016 188.562 23.4007C188.504 20.9107 186.94 19.0577 184.798 19.0577C183.755 19.0577 182.713 19.463 181.671 20.2737V38.6302C181.671 41.0044 182.076 44.0156 184.277 44.1893V45H168.757V44.2472C170.495 44.4209 171.537 43.147 171.537 38.6302V10.1979C171.537 8.05535 171.132 6.66558 170.263 5.97069C169.452 5.27581 168.584 4.92837 167.715 4.92837L167.773 4.46511L180.86 0.353718L181.671 0.932787V18.4207C183.871 16.2781 188.098 13.7881 191.225 13.7881C195.453 13.7881 198.116 17.8995 198.174 21.8372C198.29 27.7437 198.29 34.1714 198.174 40.1358ZM226.878 36.0244L227.688 36.6035C225.661 39.9621 223.114 42.2784 219.523 43.0891C218.423 43.4365 216.744 43.5523 215.528 43.5523C210.258 43.5523 206.436 40.8307 204.525 35.9665C200.819 26.1802 206.378 15.1779 216.802 15.1779C224.156 15.1779 227.109 21.2581 227.109 28.5544H212.806C212.343 32.8974 213.211 41.236 218.771 41.4677C222.303 41.5835 225.025 38.9198 226.878 36.0244ZM215.586 16.4519C212.98 16.6835 212.98 24.2693 212.806 26.8751H218.655C218.481 22.1267 218.655 16.2781 215.586 16.4519ZM264.764 6.8393L260.363 6.78139C254.167 6.72349 253.935 15.2358 253.588 15.2358H252.893L253.703 4.46511H286.71L287.463 15.5253H286.768C286.768 15.5253 286.305 6.8393 280.514 6.8393H275.361V38.9198C275.361 44.2472 279.935 44.2472 279.935 44.2472V45H260.247V44.2472C260.247 44.2472 264.764 43.8998 264.764 38.9198V6.8393ZM311.476 36.0244L312.287 36.6035C310.26 39.9621 307.712 42.2784 304.122 43.0891C303.022 43.4365 301.342 43.5523 300.126 43.5523C294.857 43.5523 291.035 40.8307 289.124 35.9665C285.418 26.1802 290.977 15.1779 301.4 15.1779C308.754 15.1779 311.708 21.2581 311.708 28.5544H297.405C296.941 32.8974 297.81 41.236 303.369 41.4677C306.901 41.5835 309.623 38.9198 311.476 36.0244ZM300.184 16.4519C297.578 16.6835 297.578 24.2693 297.405 26.8751H303.253C303.079 22.1267 303.253 16.2781 300.184 16.4519ZM344.02 39.9042L344.136 40.4253C343.441 41.5256 342.34 42.4521 340.777 43.3207C337.187 45.3474 333.249 45 323.636 45C318.425 45 315.761 42.3942 315.819 37.2405C315.819 32.2026 317.498 29.8284 322.478 27.9753C323.173 27.6858 330.296 24.5009 331.049 24.2114V20.5053C331.049 18.1891 331.164 15.12 328.79 15.12C326.706 15.12 326.126 17.5521 326.126 19.8684C326.126 23.4007 323.926 25.3695 321.494 25.717C318.367 26.1802 316.109 22.59 319.525 18.4786C322.247 15.12 326.821 13.904 331.28 13.7881C335.16 13.7881 338.403 15.0621 339.966 18.3049C340.661 19.7526 341.009 21.4319 341.009 23.4007V38.2249C341.009 42.51 342.572 41.236 344.02 39.9042ZM331.049 42.3363V26.1223L330.991 26.0065C328.559 26.5856 327.343 28.2649 326.474 30.5233C325.605 33.0133 325.374 41.1202 326.474 42.5679C327.516 43.9577 330.238 43.9577 331.049 42.3363ZM393.518 21.2581V38.6881C393.518 41.5256 393.228 43.6102 396.24 44.1893V45H380.778V44.2472C383.616 43.784 383.384 41.6414 383.384 38.746V24.7326C383.384 23.0533 383.153 21.8372 382.689 21.0265C382.226 20.1579 381.589 19.7526 380.721 19.7526C379.678 19.7526 378.288 20.3895 376.493 21.6635V38.6881C376.493 41.5256 376.204 43.6102 379.215 44.1893V45H363.754V44.2472C366.591 43.784 366.36 41.6414 366.36 38.746V24.7326C366.36 23.0533 366.128 21.8372 365.665 21.0265C365.201 20.1579 364.564 19.7526 363.696 19.7526C362.654 19.7526 361.148 20.4474 359.237 21.8372V38.6302C359.237 41.1202 358.89 43.726 361.785 44.2472V45H345.513V44.3051C348.293 43.6681 349.103 42.0467 349.103 38.3986V23.5744C349.103 21.4898 348.698 20.0421 347.829 19.3472C347.019 18.6523 346.15 18.3049 345.281 18.3049L345.339 17.8416L358.426 13.7302L359.237 14.3093V19.5788C362.943 15.8728 366.07 13.6144 369.892 13.6144C373.251 13.6144 375.683 16.1623 376.32 19.5209C379.968 15.8728 383.095 13.6144 386.917 13.6144C390.854 13.6144 393.518 17.1467 393.518 21.2581Z" fill="white"/>
</svg>
