<svg width="1280" height="488" viewBox="0 0 1280 488" fill="none" xmlns="http://www.w3.org/2000/svg">
<path d="M-84.125 296.81V125.235L-38.9192 134.264L13.3124 109.064L133.701 90.7152L184.304 104.739L221.218 73.4962L309.117 114.291L354.721 87.3718L369.123 95.1872L413.529 67.4004L485.537 99.5292L534.741 79.5564V296.81H-84.125Z" fill="url(#paint0_linear_31_333)"/>
<path d="M297.117 296.809L521.541 18.9344L577.947 54.6118L622.352 67.3999L689.559 27.4543L705.161 37.8757L747.164 0.536133L814.371 67.3999L839.574 56.9784L885.179 75.2139L943.986 52.6378L985.991 67.3999L1005.19 56.9784L1127.61 85.6353L1175.61 124.711L1356.03 161.182V296.809H297.117Z" fill="url(#paint1_linear_31_333)"/>
<path d="M521.542 18.9351L464.17 276.877L319.662 268.895L521.542 18.9351Z" fill="url(#paint2_linear_31_333)"/>
<path d="M1175.61 124.711L1127.6 85.6354L1005.19 56.9785L1112.67 100.856L1120.62 159.587L1265.27 296.809H1356.03L1394.38 162.416L1294.16 148.676L1229.89 114.291L1175.61 124.711Z" fill="url(#paint3_linear_31_333)"/>
<path d="M747.164 0.536133L814.372 67.3999L853.057 76.2317L1147.32 276.876L947.244 258.994L826.939 121.376L794.062 138.705L747.164 0.536133Z" fill="url(#paint4_linear_31_333)"/>
<path d="M184.305 104.738L183.989 104.6L31.8418 231.716L156.091 265.7L212.867 128.216L191.913 138.705L221.219 73.4956L184.305 104.738Z" fill="url(#paint5_linear_31_333)"/>
<path d="M708.063 56.9784L747.162 0.536133L705.159 37.8757L689.557 27.4543L622.35 67.3999L689.132 44.0837L708.063 56.9784Z" fill="url(#paint6_linear_31_333)"/>
<path d="M1339.6 192.167L1334.21 175.721L1329.17 191.103C1326.23 190.813 1323.29 190.523 1320.36 190.248L1307.52 166.093L1295.38 188.099C1292.15 187.843 1288.93 187.59 1285.72 187.355L1280.82 172.4L1276.14 186.676C1271.86 186.385 1267.6 186.114 1263.35 185.854L1254.12 157.688L1245.22 184.832C1243.59 184.749 1241.97 184.675 1240.34 184.597L1227.42 145.155L1214.84 183.532C1211.54 183.417 1208.25 183.324 1204.95 183.227L1200.72 170.305L1196.56 182.998C1193.35 182.917 1190.14 182.836 1186.95 182.772L1174.02 143.312L1161.21 182.422C1157.73 182.396 1154.26 182.381 1150.79 182.372L1147.32 171.784L1143.86 182.355C1139.79 182.357 1135.73 182.374 1131.68 182.398L1120.62 148.643L1109.48 182.647C1109.2 182.651 1108.93 182.656 1108.65 182.661L1093.92 137.729L1078.99 183.309C1077.11 183.361 1075.23 183.413 1073.35 183.469L1067.23 164.778L1060.97 183.865C1058.65 183.944 1056.33 184.032 1054.02 184.118L1040.53 142.951L1026.67 185.238C1024.76 185.324 1022.84 185.408 1020.93 185.497L1013.83 163.83L1006.5 186.203C1003.12 186.374 999.736 186.55 996.361 186.729L987.13 158.555L977.558 187.77C974.21 187.962 970.861 188.155 967.522 188.352L960.431 166.707L953.053 189.226C950.571 189.379 948.092 189.534 945.613 189.688L933.731 153.42L921.339 191.241C918.479 191.427 915.622 191.615 912.765 191.802L907.031 174.298L901.043 192.578C897.456 192.816 893.87 193.055 890.287 193.294L880.332 162.91L869.934 194.653C866.51 194.881 863.086 195.108 859.666 195.334L853.634 176.924L847.337 196.145C802.293 204.907 752.701 217.275 702.633 215.895L693.442 187.842L684.091 216.384C681.136 216.448 678.177 216.5 675.216 216.553L666.742 190.688L658.187 216.799C656.188 216.819 654.186 216.827 652.186 216.842L640.042 179.774L627.893 216.86C624.911 216.843 621.929 216.825 618.942 216.794L613.344 199.704L607.797 216.634C603.246 216.557 598.687 216.463 594.12 216.349L586.646 193.534L579.312 215.918C576.676 215.829 574.031 215.721 571.39 215.619L559.948 180.691L548.844 214.583C547.11 214.492 545.372 214.392 543.637 214.293L533.25 182.588L523.284 213.006C520.261 212.793 517.234 212.567 514.201 212.334L506.549 188.98L499.297 211.115C497.941 210.998 496.58 210.872 495.223 210.75L479.851 163.83L466.036 206L453.153 166.677L440.272 205.995C438.786 205.888 437.3 205.784 435.812 205.68L426.453 177.116L417.484 204.492C416.038 204.404 414.593 204.319 413.147 204.234L399.753 163.354L386.802 202.883C384.114 202.762 381.425 202.646 378.739 202.535L373.053 185.182L367.51 202.102C288.582 199.259 230.665 186.352 142.899 191.465L132.765 160.532L122.302 192.47C118.233 192.68 114.2 192.896 110.213 193.117L106.067 180.463L101.763 193.597C98.6155 193.779 95.4959 193.965 92.4028 194.152L79.3666 154.363L65.7671 195.873C64.2734 195.976 62.7874 196.078 61.3107 196.182L52.6666 169.8L43.6028 197.465C41.1922 197.646 38.8099 197.828 36.4542 198.01L25.9685 166.004L14.9157 199.743C11.9606 199.991 9.0584 200.237 6.21294 200.483L-0.729576 179.292L-8.08806 201.75C-13.1891 202.214 -18.0727 202.669 -22.7256 203.114L-27.4296 188.757L-32.4436 204.059C-35.8695 204.399 -39.1441 204.728 -42.2619 205.047L-54.1277 168.826L-66.8594 207.687C-78.0427 208.953 -84.125 209.732 -84.125 209.732V488H1349V193.163C1345.85 192.816 1342.73 192.496 1339.6 192.167Z" fill="url(#paint7_linear_31_333)"/>
<path d="M1356.03 229.668C1269.03 229.668 1188.96 198.219 1101.96 198.219C1031.41 198.219 987.257 213.267 899.836 255.189V421.081H1356.03V229.668Z" fill="url(#paint8_linear_31_333)"/>
<path d="M789.364 252.005C700.104 234.001 604.279 220.556 514.106 220.556C230.169 220.556 -0.577316 280.837 -129.5 315.632L249.197 443.418H789.364V252.005Z" fill="url(#paint9_linear_31_333)"/>
<path d="M-76.9531 198.221C276.696 198.221 371.084 260.463 526.402 260.463C681.72 260.463 774.913 205.137 902.753 205.137C1005.5 205.137 1098.69 241.445 1171.58 241.445C1244.45 241.445 1324.51 217.24 1367.52 217.24V401.373H-76.9531V198.221Z" fill="url(#paint10_linear_31_333)"/>
<path d="M-77.8242 280.748C15.0605 280.748 141.493 324.105 260.214 324.105C320.178 324.105 369.56 314.747 424.821 314.747C503.24 314.747 601.186 346.65 697.599 346.65C794.011 346.65 910.412 299.435 1063.26 299.435C1216.11 299.435 1356.03 330.911 1356.03 330.911V543.86H-77.8242V280.748Z" fill="url(#paint11_linear_31_333)"/>
<path d="M354.72 87.3718L309.115 114.291L354.508 100.172L377.196 113.852L413.527 67.4004L369.121 95.1872L354.72 87.3718Z" fill="url(#paint12_linear_31_333)"/>
<path d="M-2.82716 151.814L31.8401 121.275L133.7 90.7148L13.3116 109.064L-38.9219 134.262L-2.82716 130.156V151.814Z" fill="url(#paint13_linear_31_333)"/>
<defs>
<linearGradient id="paint0_linear_31_333" x1="225.308" y1="373.544" x2="225.308" y2="42.3084" gradientUnits="userSpaceOnUse">
<stop stop-color="#00214D"/>
<stop offset="1" stop-color="#0062AD"/>
</linearGradient>
<linearGradient id="paint1_linear_31_333" x1="826.573" y1="381.752" x2="826.573" y2="-1.29726" gradientUnits="userSpaceOnUse">
<stop stop-color="#00214D"/>
<stop offset="1" stop-color="#0062AD"/>
</linearGradient>
<linearGradient id="paint2_linear_31_333" x1="420.602" y1="196.792" x2="420.602" y2="18.1054" gradientUnits="userSpaceOnUse">
<stop stop-color="#00518F"/>
<stop offset="1" stop-color="#00214D"/>
</linearGradient>
<linearGradient id="paint3_linear_31_333" x1="1199.78" y1="200.645" x2="1199.78" y2="-13.9181" gradientUnits="userSpaceOnUse">
<stop stop-color="#00518F"/>
<stop offset="1" stop-color="#00214D"/>
</linearGradient>
<linearGradient id="paint4_linear_31_333" x1="947.244" y1="166.073" x2="947.244" y2="-81.1544" gradientUnits="userSpaceOnUse">
<stop stop-color="#00518F"/>
<stop offset="1" stop-color="#00214D"/>
</linearGradient>
<linearGradient id="paint5_linear_31_333" x1="126.53" y1="188.632" x2="126.53" y2="16.6774" gradientUnits="userSpaceOnUse">
<stop stop-color="#00518F"/>
<stop offset="1" stop-color="#00214D"/>
</linearGradient>
<linearGradient id="paint6_linear_31_333" x1="684.756" y1="132.32" x2="684.756" y2="8.12319" gradientUnits="userSpaceOnUse">
<stop stop-color="#00214D"/>
<stop offset="1" stop-color="#00518F"/>
</linearGradient>
<linearGradient id="paint7_linear_31_333" x1="632.438" y1="503.048" x2="632.438" y2="152.777" gradientUnits="userSpaceOnUse">
<stop stop-color="#00518F"/>
<stop offset="0.2571" stop-color="#004A86"/>
<stop offset="0.6711" stop-color="#00366F"/>
<stop offset="1" stop-color="#002257"/>
</linearGradient>
<linearGradient id="paint8_linear_31_333" x1="1127.93" y1="298.961" x2="1127.93" y2="198.967" gradientUnits="userSpaceOnUse">
<stop stop-color="#00214D"/>
<stop offset="1" stop-color="#00518F"/>
</linearGradient>
<linearGradient id="paint9_linear_31_333" x1="329.932" y1="321.297" x2="329.932" y2="221.303" gradientUnits="userSpaceOnUse">
<stop stop-color="#00214D"/>
<stop offset="1" stop-color="#00518F"/>
</linearGradient>
<linearGradient id="paint10_linear_31_333" x1="645.281" y1="415.496" x2="645.281" y2="243.05" gradientUnits="userSpaceOnUse">
<stop stop-color="#00214D"/>
<stop offset="0.8817" stop-color="#004B87"/>
<stop offset="1" stop-color="#00518F"/>
</linearGradient>
<linearGradient id="paint11_linear_31_333" x1="639.102" y1="575.433" x2="639.102" y2="313.137" gradientUnits="userSpaceOnUse">
<stop offset="0.379313" stop-color="#080F17"/>
<stop offset="0.61416" stop-color="#002240"/>
<stop offset="0.953383" stop-color="#00518F"/>
</linearGradient>
<linearGradient id="paint12_linear_31_333" x1="361.321" y1="129.976" x2="361.321" y2="62.2709" gradientUnits="userSpaceOnUse">
<stop stop-color="#00214D"/>
<stop offset="1" stop-color="#00518F"/>
</linearGradient>
<linearGradient id="paint13_linear_31_333" x1="47.389" y1="172.251" x2="47.389" y2="84.0315" gradientUnits="userSpaceOnUse">
<stop stop-color="#00214D"/>
<stop offset="1" stop-color="#00518F"/>
</linearGradient>
</defs>
</svg>
