<svg width="732" height="95" viewBox="0 0 732 95" fill="none" xmlns="http://www.w3.org/2000/svg">
<rect x="0.5" y="0.5" width="731" height="94" rx="20.5" fill="#12233E" stroke="#E6E6E6"/>
<path d="M37.0043 29.9091V43H35.1889L28.5348 33.3991H28.4134V43H26.4382V29.9091H28.2663L34.9268 39.5227H35.0483V29.9091H37.0043ZM43.8677 43.1982C42.9473 43.1982 42.144 42.9872 41.4579 42.5653C40.7718 42.1435 40.2392 41.5533 39.8599 40.7947C39.4806 40.0362 39.291 39.1499 39.291 38.1357C39.291 37.1172 39.4806 36.2266 39.8599 35.4638C40.2392 34.701 40.7718 34.1087 41.4579 33.6868C42.144 33.2649 42.9473 33.054 43.8677 33.054C44.7882 33.054 45.5914 33.2649 46.2775 33.6868C46.9636 34.1087 47.4963 34.701 47.8755 35.4638C48.2548 36.2266 48.4444 37.1172 48.4444 38.1357C48.4444 39.1499 48.2548 40.0362 47.8755 40.7947C47.4963 41.5533 46.9636 42.1435 46.2775 42.5653C45.5914 42.9872 44.7882 43.1982 43.8677 43.1982ZM43.8741 41.5938C44.4707 41.5938 44.965 41.4361 45.3571 41.1207C45.7491 40.8054 46.0389 40.3857 46.2264 39.8615C46.4181 39.3374 46.514 38.7599 46.514 38.1293C46.514 37.5028 46.4181 36.9276 46.2264 36.4034C46.0389 35.875 45.7491 35.451 45.3571 35.1314C44.965 34.8118 44.4707 34.652 43.8741 34.652C43.2733 34.652 42.7747 34.8118 42.3784 35.1314C41.9863 35.451 41.6944 35.875 41.5027 36.4034C41.3152 36.9276 41.2214 37.5028 41.2214 38.1293C41.2214 38.7599 41.3152 39.3374 41.5027 39.8615C41.6944 40.3857 41.9863 40.8054 42.3784 41.1207C42.7747 41.4361 43.2733 41.5938 43.8741 41.5938ZM55.1609 33.1818V34.7159H49.7979V33.1818H55.1609ZM51.2362 30.8295H53.1474V40.1172C53.1474 40.4879 53.2028 40.767 53.3136 40.9545C53.4244 41.1378 53.5671 41.2635 53.7418 41.3317C53.9208 41.3956 54.1147 41.4276 54.3235 41.4276C54.4769 41.4276 54.6112 41.4169 54.7262 41.3956C54.8413 41.3743 54.9308 41.3572 54.9947 41.3445L55.3398 42.9233C55.229 42.9659 55.0714 43.0085 54.8668 43.0511C54.6623 43.098 54.4066 43.1236 54.0998 43.1278C53.5969 43.1364 53.1282 43.0469 52.6935 42.8594C52.2589 42.6719 51.9073 42.3821 51.6388 41.9901C51.3704 41.598 51.2362 41.1058 51.2362 40.5135V30.8295ZM61.4011 43.1982C60.4338 43.1982 59.6007 42.9915 58.9018 42.5781C58.2072 42.1605 57.6703 41.5746 57.291 40.8203C56.916 40.0618 56.7285 39.1733 56.7285 38.1548C56.7285 37.1491 56.916 36.2628 57.291 35.4957C57.6703 34.7287 58.1987 34.13 58.8762 33.6996C59.5581 33.2692 60.3549 33.054 61.2669 33.054C61.8208 33.054 62.3578 33.1456 62.8777 33.3288C63.3975 33.5121 63.8642 33.7997 64.2775 34.1918C64.6909 34.5838 65.0169 35.093 65.2555 35.7195C65.4941 36.3416 65.6135 37.098 65.6135 37.9886V38.6662H57.8088V37.2344H63.7406C63.7406 36.7315 63.6383 36.2862 63.4338 35.8984C63.2292 35.5064 62.9416 35.1974 62.5708 34.9716C62.2044 34.7457 61.774 34.6328 61.2797 34.6328C60.7427 34.6328 60.274 34.7649 59.8734 35.0291C59.4771 35.2891 59.1703 35.63 58.9529 36.0518C58.7399 36.4695 58.6333 36.9233 58.6333 37.4134V38.532C58.6333 39.1882 58.7484 39.7464 58.9785 40.2067C59.2129 40.6669 59.5389 41.0185 59.9565 41.2614C60.3741 41.5 60.862 41.6193 61.4203 41.6193C61.7825 41.6193 62.1127 41.5682 62.411 41.4659C62.7093 41.3594 62.9672 41.2017 63.1845 40.9929C63.4018 40.7841 63.568 40.5263 63.6831 40.2195L65.492 40.5455C65.3471 41.0781 65.0872 41.5447 64.7122 41.9453C64.3414 42.3416 63.8748 42.6506 63.3123 42.8722C62.7541 43.0895 62.117 43.1982 61.4011 43.1982ZM68.9933 43.1214C68.6438 43.1214 68.3434 42.9979 68.092 42.7507C67.8406 42.4993 67.7148 42.1967 67.7148 41.843C67.7148 41.4936 67.8406 41.1953 68.092 40.9482C68.3434 40.6967 68.6438 40.571 68.9933 40.571C69.3427 40.571 69.6431 40.6967 69.8945 40.9482C70.146 41.1953 70.2717 41.4936 70.2717 41.843C70.2717 42.0774 70.212 42.2926 70.0927 42.4886C69.9776 42.6804 69.8242 42.8338 69.6325 42.9489C69.4407 43.0639 69.2276 43.1214 68.9933 43.1214ZM68.9933 35.9751C68.6438 35.9751 68.3434 35.8494 68.092 35.598C67.8406 35.3466 67.7148 35.0462 67.7148 34.6967C67.7148 34.3473 67.8406 34.049 68.092 33.8018C68.3434 33.5504 68.6438 33.4247 68.9933 33.4247C69.3427 33.4247 69.6431 33.5504 69.8945 33.8018C70.146 34.049 70.2717 34.3473 70.2717 34.6967C70.2717 34.9311 70.212 35.1463 70.0927 35.3423C69.9776 35.5341 69.8242 35.6875 69.6325 35.8026C69.4407 35.9176 69.2276 35.9751 68.9933 35.9751ZM78.8546 43H76.758L81.4689 29.9091H83.7509L88.4618 43H86.3652L82.6642 32.2869H82.562L78.8546 43ZM79.2061 37.8736H86.0073V39.5355H79.2061V37.8736ZM94.8187 33.1818V34.7159H89.2704V33.1818H94.8187ZM90.7917 43V32.044C90.7917 31.4304 90.926 30.9212 91.1944 30.5163C91.4629 30.1072 91.8187 29.8026 92.2619 29.6023C92.7051 29.3977 93.1866 29.2955 93.7065 29.2955C94.09 29.2955 94.4181 29.3274 94.6909 29.3913C94.9636 29.451 95.166 29.5064 95.2981 29.5575L94.8507 31.1044C94.7612 31.0788 94.6461 31.049 94.5055 31.0149C94.3649 30.9766 94.1944 30.9574 93.9941 30.9574C93.5297 30.9574 93.1973 31.0724 92.997 31.3026C92.801 31.5327 92.7029 31.8651 92.7029 32.2997V43H90.7917ZM101.374 33.1818V34.7159H96.0108V33.1818H101.374ZM97.449 30.8295H99.3603V40.1172C99.3603 40.4879 99.4157 40.767 99.5265 40.9545C99.6373 41.1378 99.78 41.2635 99.9547 41.3317C100.134 41.3956 100.328 41.4276 100.536 41.4276C100.69 41.4276 100.824 41.4169 100.939 41.3956C101.054 41.3743 101.144 41.3572 101.208 41.3445L101.553 42.9233C101.442 42.9659 101.284 43.0085 101.08 43.0511C100.875 43.098 100.619 43.1236 100.313 43.1278C99.8098 43.1364 99.3411 43.0469 98.9064 42.8594C98.4718 42.6719 98.1202 42.3821 97.8517 41.9901C97.5833 41.598 97.449 41.1058 97.449 40.5135V30.8295ZM107.614 43.1982C106.647 43.1982 105.814 42.9915 105.115 42.5781C104.42 42.1605 103.883 41.5746 103.504 40.8203C103.129 40.0618 102.941 39.1733 102.941 38.1548C102.941 37.1491 103.129 36.2628 103.504 35.4957C103.883 34.7287 104.412 34.13 105.089 33.6996C105.771 33.2692 106.568 33.054 107.48 33.054C108.034 33.054 108.571 33.1456 109.091 33.3288C109.61 33.5121 110.077 33.7997 110.49 34.1918C110.904 34.5838 111.23 35.093 111.468 35.7195C111.707 36.3416 111.826 37.098 111.826 37.9886V38.6662H104.022V37.2344H109.953C109.953 36.7315 109.851 36.2862 109.647 35.8984C109.442 35.5064 109.154 35.1974 108.784 34.9716C108.417 34.7457 107.987 34.6328 107.493 34.6328C106.956 34.6328 106.487 34.7649 106.086 35.0291C105.69 35.2891 105.383 35.63 105.166 36.0518C104.953 36.4695 104.846 36.9233 104.846 37.4134V38.532C104.846 39.1882 104.961 39.7464 105.191 40.2067C105.426 40.6669 105.752 41.0185 106.169 41.2614C106.587 41.5 107.075 41.6193 107.633 41.6193C107.995 41.6193 108.326 41.5682 108.624 41.4659C108.922 41.3594 109.18 41.2017 109.397 40.9929C109.615 40.7841 109.781 40.5263 109.896 40.2195L111.705 40.5455C111.56 41.0781 111.3 41.5447 110.925 41.9453C110.554 42.3416 110.088 42.6506 109.525 42.8722C108.967 43.0895 108.33 43.1982 107.614 43.1982ZM113.947 43V33.1818H115.794V34.7415H115.896C116.075 34.2131 116.391 33.7976 116.843 33.495C117.298 33.1882 117.814 33.0348 118.389 33.0348C118.509 33.0348 118.649 33.0391 118.811 33.0476C118.977 33.0561 119.107 33.0668 119.201 33.0795V34.9077C119.124 34.8864 118.988 34.8629 118.792 34.8374C118.596 34.8075 118.4 34.7926 118.204 34.7926C117.752 34.7926 117.35 34.8885 116.996 35.0803C116.646 35.2678 116.369 35.5298 116.165 35.8665C115.96 36.1989 115.858 36.5781 115.858 37.0043V43H113.947ZM132.976 35.5788L131.244 35.8857C131.171 35.6641 131.056 35.4531 130.899 35.2528C130.745 35.0526 130.536 34.8885 130.272 34.7607C130.008 34.6328 129.678 34.5689 129.281 34.5689C128.74 34.5689 128.289 34.6903 127.926 34.9332C127.564 35.1719 127.383 35.4808 127.383 35.8601C127.383 36.1882 127.504 36.4524 127.747 36.6527C127.99 36.853 128.382 37.017 128.923 37.1449L130.483 37.5028C131.387 37.7116 132.06 38.0334 132.503 38.468C132.946 38.9027 133.168 39.4673 133.168 40.1619C133.168 40.75 132.997 41.2741 132.656 41.7344C132.32 42.1903 131.849 42.5483 131.244 42.8082C130.643 43.0682 129.946 43.1982 129.154 43.1982C128.054 43.1982 127.157 42.9638 126.463 42.495C125.768 42.022 125.342 41.3509 125.184 40.4815L127.031 40.2003C127.146 40.6818 127.383 41.0462 127.741 41.2933C128.099 41.5362 128.566 41.6577 129.141 41.6577C129.767 41.6577 130.268 41.5277 130.643 41.2678C131.018 41.0036 131.205 40.6818 131.205 40.3026C131.205 39.9957 131.09 39.7379 130.86 39.5291C130.634 39.3203 130.287 39.1626 129.818 39.0561L128.156 38.6918C127.24 38.483 126.563 38.1506 126.124 37.6946C125.689 37.2386 125.472 36.6612 125.472 35.9624C125.472 35.3828 125.634 34.8757 125.958 34.4411C126.281 34.0064 126.729 33.6676 127.3 33.4247C127.871 33.1776 128.525 33.054 129.262 33.054C130.323 33.054 131.159 33.2841 131.768 33.7443C132.377 34.2003 132.78 34.8118 132.976 35.5788ZM141.489 38.9283V33.1818H143.406V43H141.527V41.2997H141.425C141.199 41.8239 140.837 42.2607 140.338 42.6101C139.844 42.9553 139.228 43.1278 138.491 43.1278C137.86 43.1278 137.302 42.9893 136.816 42.7124C136.335 42.4311 135.955 42.0156 135.678 41.4659C135.406 40.9162 135.269 40.2365 135.269 39.4268V33.1818H137.18V39.1967C137.18 39.8658 137.366 40.3984 137.737 40.7947C138.107 41.1911 138.589 41.3892 139.181 41.3892C139.539 41.3892 139.895 41.2997 140.249 41.1207C140.607 40.9418 140.903 40.6712 141.137 40.3089C141.376 39.9467 141.493 39.4865 141.489 38.9283ZM150.11 43.1982C149.16 43.1982 148.341 42.983 147.655 42.5526C146.974 42.1179 146.449 41.5192 146.083 40.7564C145.716 39.9936 145.533 39.12 145.533 38.1357C145.533 37.1385 145.721 36.2585 146.096 35.4957C146.471 34.7287 146.999 34.13 147.681 33.6996C148.363 33.2692 149.166 33.054 150.091 33.054C150.836 33.054 151.501 33.1925 152.085 33.4695C152.669 33.7422 153.14 34.1257 153.498 34.62C153.86 35.1143 154.075 35.6918 154.143 36.3523H152.283C152.181 35.892 151.947 35.4957 151.58 35.1634C151.218 34.831 150.732 34.6648 150.123 34.6648C149.59 34.6648 149.123 34.8054 148.723 35.0866C148.327 35.3636 148.018 35.7599 147.796 36.2756C147.574 36.7869 147.464 37.392 147.464 38.0909C147.464 38.8068 147.572 39.4247 147.79 39.9446C148.007 40.4645 148.314 40.8672 148.71 41.1527C149.111 41.4382 149.581 41.581 150.123 41.581C150.485 41.581 150.813 41.5149 151.107 41.3828C151.405 41.2464 151.655 41.0526 151.855 40.8011C152.059 40.5497 152.202 40.2472 152.283 39.8935H154.143C154.075 40.5284 153.868 41.0952 153.523 41.5938C153.178 42.0923 152.716 42.4844 152.136 42.7699C151.561 43.0554 150.885 43.1982 150.11 43.1982ZM160.323 43.1982C159.373 43.1982 158.554 42.983 157.868 42.5526C157.186 42.1179 156.662 41.5192 156.296 40.7564C155.929 39.9936 155.746 39.12 155.746 38.1357C155.746 37.1385 155.934 36.2585 156.309 35.4957C156.684 34.7287 157.212 34.13 157.894 33.6996C158.576 33.2692 159.379 33.054 160.304 33.054C161.049 33.054 161.714 33.1925 162.298 33.4695C162.882 33.7422 163.353 34.1257 163.711 34.62C164.073 35.1143 164.288 35.6918 164.356 36.3523H162.496C162.394 35.892 162.159 35.4957 161.793 35.1634C161.431 34.831 160.945 34.6648 160.336 34.6648C159.803 34.6648 159.336 34.8054 158.936 35.0866C158.539 35.3636 158.23 35.7599 158.009 36.2756C157.787 36.7869 157.676 37.392 157.676 38.0909C157.676 38.8068 157.785 39.4247 158.002 39.9446C158.22 40.4645 158.527 40.8672 158.923 41.1527C159.324 41.4382 159.794 41.581 160.336 41.581C160.698 41.581 161.026 41.5149 161.32 41.3828C161.618 41.2464 161.868 41.0526 162.068 40.8011C162.272 40.5497 162.415 40.2472 162.496 39.8935H164.356C164.288 40.5284 164.081 41.0952 163.736 41.5938C163.391 42.0923 162.929 42.4844 162.349 42.7699C161.774 43.0554 161.098 43.1982 160.323 43.1982ZM170.632 43.1982C169.664 43.1982 168.831 42.9915 168.132 42.5781C167.438 42.1605 166.901 41.5746 166.521 40.8203C166.146 40.0618 165.959 39.1733 165.959 38.1548C165.959 37.1491 166.146 36.2628 166.521 35.4957C166.901 34.7287 167.429 34.13 168.107 33.6996C168.789 33.2692 169.585 33.054 170.497 33.054C171.051 33.054 171.588 33.1456 172.108 33.3288C172.628 33.5121 173.095 33.7997 173.508 34.1918C173.921 34.5838 174.247 35.093 174.486 35.7195C174.725 36.3416 174.844 37.098 174.844 37.9886V38.6662H167.039V37.2344H172.971C172.971 36.7315 172.869 36.2862 172.664 35.8984C172.46 35.5064 172.172 35.1974 171.801 34.9716C171.435 34.7457 171.004 34.6328 170.51 34.6328C169.973 34.6328 169.504 34.7649 169.104 35.0291C168.708 35.2891 168.401 35.63 168.183 36.0518C167.97 36.4695 167.864 36.9233 167.864 37.4134V38.532C167.864 39.1882 167.979 39.7464 168.209 40.2067C168.443 40.6669 168.769 41.0185 169.187 41.2614C169.605 41.5 170.093 41.6193 170.651 41.6193C171.013 41.6193 171.343 41.5682 171.642 41.4659C171.94 41.3594 172.198 41.2017 172.415 40.9929C172.632 40.7841 172.798 40.5263 172.914 40.2195L174.722 40.5455C174.578 41.0781 174.318 41.5447 173.943 41.9453C173.572 42.3416 173.105 42.6506 172.543 42.8722C171.985 43.0895 171.347 43.1982 170.632 43.1982ZM184.322 35.5788L182.589 35.8857C182.517 35.6641 182.402 35.4531 182.244 35.2528C182.091 35.0526 181.882 34.8885 181.618 34.7607C181.354 34.6328 181.023 34.5689 180.627 34.5689C180.086 34.5689 179.634 34.6903 179.272 34.9332C178.91 35.1719 178.729 35.4808 178.729 35.8601C178.729 36.1882 178.85 36.4524 179.093 36.6527C179.336 36.853 179.728 37.017 180.269 37.1449L181.829 37.5028C182.732 37.7116 183.406 38.0334 183.849 38.468C184.292 38.9027 184.513 39.4673 184.513 40.1619C184.513 40.75 184.343 41.2741 184.002 41.7344C183.665 42.1903 183.195 42.5483 182.589 42.8082C181.989 43.0682 181.292 43.1982 180.499 43.1982C179.4 43.1982 178.503 42.9638 177.808 42.495C177.114 42.022 176.688 41.3509 176.53 40.4815L178.377 40.2003C178.492 40.6818 178.729 41.0462 179.087 41.2933C179.445 41.5362 179.911 41.6577 180.487 41.6577C181.113 41.6577 181.614 41.5277 181.989 41.2678C182.364 41.0036 182.551 40.6818 182.551 40.3026C182.551 39.9957 182.436 39.7379 182.206 39.5291C181.98 39.3203 181.633 39.1626 181.164 39.0561L179.502 38.6918C178.586 38.483 177.908 38.1506 177.469 37.6946C177.035 37.2386 176.817 36.6612 176.817 35.9624C176.817 35.3828 176.979 34.8757 177.303 34.4411C177.627 34.0064 178.075 33.6676 178.646 33.4247C179.217 33.1776 179.871 33.054 180.608 33.054C181.669 33.054 182.504 33.2841 183.114 33.7443C183.723 34.2003 184.126 34.8118 184.322 35.5788ZM193.972 35.5788L192.24 35.8857C192.167 35.6641 192.052 35.4531 191.895 35.2528C191.741 35.0526 191.532 34.8885 191.268 34.7607C191.004 34.6328 190.674 34.5689 190.278 34.5689C189.736 34.5689 189.285 34.6903 188.922 34.9332C188.56 35.1719 188.379 35.4808 188.379 35.8601C188.379 36.1882 188.501 36.4524 188.743 36.6527C188.986 36.853 189.378 37.017 189.92 37.1449L191.479 37.5028C192.383 37.7116 193.056 38.0334 193.499 38.468C193.942 38.9027 194.164 39.4673 194.164 40.1619C194.164 40.75 193.993 41.2741 193.653 41.7344C193.316 42.1903 192.845 42.5483 192.24 42.8082C191.639 43.0682 190.942 43.1982 190.15 43.1982C189.05 43.1982 188.153 42.9638 187.459 42.495C186.764 42.022 186.338 41.3509 186.18 40.4815L188.028 40.2003C188.143 40.6818 188.379 41.0462 188.737 41.2933C189.095 41.5362 189.562 41.6577 190.137 41.6577C190.763 41.6577 191.264 41.5277 191.639 41.2678C192.014 41.0036 192.202 40.6818 192.202 40.3026C192.202 39.9957 192.086 39.7379 191.856 39.5291C191.631 39.3203 191.283 39.1626 190.814 39.0561L189.153 38.6918C188.236 38.483 187.559 38.1506 187.12 37.6946C186.685 37.2386 186.468 36.6612 186.468 35.9624C186.468 35.3828 186.63 34.8757 186.954 34.4411C187.278 34.0064 187.725 33.6676 188.296 33.4247C188.867 33.1776 189.521 33.054 190.258 33.054C191.319 33.054 192.155 33.2841 192.764 33.7443C193.373 34.2003 193.776 34.8118 193.972 35.5788ZM200.938 33.1818V34.7159H195.39V33.1818H200.938ZM196.911 43V32.044C196.911 31.4304 197.045 30.9212 197.314 30.5163C197.582 30.1072 197.938 29.8026 198.381 29.6023C198.824 29.3977 199.306 29.2955 199.826 29.2955C200.209 29.2955 200.537 29.3274 200.81 29.3913C201.083 29.451 201.285 29.5064 201.417 29.5575L200.97 31.1044C200.88 31.0788 200.765 31.049 200.625 31.0149C200.484 30.9766 200.314 30.9574 200.113 30.9574C199.649 30.9574 199.316 31.0724 199.116 31.3026C198.92 31.5327 198.822 31.8651 198.822 32.2997V43H196.911ZM209.129 38.9283V33.1818H211.047V43H209.168V41.2997H209.065C208.839 41.8239 208.477 42.2607 207.979 42.6101C207.484 42.9553 206.869 43.1278 206.131 43.1278C205.501 43.1278 204.942 42.9893 204.457 42.7124C203.975 42.4311 203.596 42.0156 203.319 41.4659C203.046 40.9162 202.91 40.2365 202.91 39.4268V33.1818H204.821V39.1967C204.821 39.8658 205.006 40.3984 205.377 40.7947C205.748 41.1911 206.229 41.3892 206.822 41.3892C207.18 41.3892 207.536 41.2997 207.889 41.1207C208.247 40.9418 208.543 40.6712 208.778 40.3089C209.016 39.9467 209.134 39.4865 209.129 38.9283ZM215.526 29.9091V43H213.615V29.9091H215.526ZM222.861 43V33.1818H224.708V34.7415H224.811C224.99 34.2131 225.305 33.7976 225.757 33.495C226.213 33.1882 226.728 33.0348 227.303 33.0348C227.423 33.0348 227.563 33.0391 227.725 33.0476C227.892 33.0561 228.021 33.0668 228.115 33.0795V34.9077C228.039 34.8864 227.902 34.8629 227.706 34.8374C227.51 34.8075 227.314 34.7926 227.118 34.7926C226.666 34.7926 226.264 34.8885 225.91 35.0803C225.561 35.2678 225.284 35.5298 225.079 35.8665C224.874 36.1989 224.772 36.5781 224.772 37.0043V43H222.861ZM233.649 43.1982C232.682 43.1982 231.849 42.9915 231.15 42.5781C230.455 42.1605 229.918 41.5746 229.539 40.8203C229.164 40.0618 228.977 39.1733 228.977 38.1548C228.977 37.1491 229.164 36.2628 229.539 35.4957C229.918 34.7287 230.447 34.13 231.124 33.6996C231.806 33.2692 232.603 33.054 233.515 33.054C234.069 33.054 234.606 33.1456 235.126 33.3288C235.646 33.5121 236.112 33.7997 236.526 34.1918C236.939 34.5838 237.265 35.093 237.504 35.7195C237.742 36.3416 237.862 37.098 237.862 37.9886V38.6662H230.057V37.2344H235.989C235.989 36.7315 235.886 36.2862 235.682 35.8984C235.477 35.5064 235.19 35.1974 234.819 34.9716C234.452 34.7457 234.022 34.6328 233.528 34.6328C232.991 34.6328 232.522 34.7649 232.121 35.0291C231.725 35.2891 231.418 35.63 231.201 36.0518C230.988 36.4695 230.881 36.9233 230.881 37.4134V38.532C230.881 39.1882 230.996 39.7464 231.227 40.2067C231.461 40.6669 231.787 41.0185 232.205 41.2614C232.622 41.5 233.11 41.6193 233.668 41.6193C234.031 41.6193 234.361 41.5682 234.659 41.4659C234.957 41.3594 235.215 41.2017 235.433 40.9929C235.65 40.7841 235.816 40.5263 235.931 40.2195L237.74 40.5455C237.595 41.0781 237.335 41.5447 236.96 41.9453C236.589 42.3416 236.123 42.6506 235.56 42.8722C235.002 43.0895 234.365 43.1982 233.649 43.1982ZM244.099 46.8864C243.319 46.8864 242.648 46.7841 242.085 46.5795C241.527 46.375 241.071 46.1044 240.717 45.7678C240.363 45.4311 240.099 45.0625 239.925 44.6619L241.567 43.9844C241.682 44.1719 241.836 44.37 242.028 44.5788C242.224 44.7919 242.488 44.973 242.82 45.1222C243.157 45.2713 243.589 45.3459 244.118 45.3459C244.842 45.3459 245.441 45.169 245.914 44.8153C246.387 44.4659 246.623 43.9077 246.623 43.1406V41.2102H246.502C246.387 41.419 246.221 41.6513 246.003 41.907C245.79 42.1626 245.496 42.3842 245.121 42.5717C244.746 42.7592 244.258 42.853 243.657 42.853C242.882 42.853 242.183 42.6719 241.561 42.3097C240.943 41.9432 240.453 41.4041 240.091 40.6925C239.733 39.9766 239.554 39.0966 239.554 38.0526C239.554 37.0085 239.731 36.1136 240.084 35.3679C240.442 34.6222 240.932 34.0511 241.555 33.6548C242.177 33.2543 242.882 33.054 243.67 33.054C244.28 33.054 244.772 33.1562 245.147 33.3608C245.522 33.5611 245.814 33.7955 246.023 34.0639C246.236 34.3324 246.4 34.5689 246.515 34.7734H246.655V33.1818H248.528V43.2173C248.528 44.0611 248.332 44.7536 247.94 45.2947C247.548 45.8359 247.018 46.2365 246.349 46.4964C245.684 46.7564 244.934 46.8864 244.099 46.8864ZM244.079 41.2678C244.629 41.2678 245.094 41.1399 245.473 40.8842C245.856 40.6243 246.146 40.2536 246.342 39.772C246.542 39.2862 246.643 38.7045 246.643 38.027C246.643 37.3665 246.545 36.7848 246.349 36.282C246.153 35.7791 245.865 35.3871 245.486 35.1058C245.106 34.8203 244.638 34.6776 244.079 34.6776C243.504 34.6776 243.025 34.8267 242.641 35.125C242.258 35.419 241.968 35.8196 241.772 36.3267C241.58 36.8338 241.484 37.4006 241.484 38.027C241.484 38.6705 241.582 39.2351 241.778 39.7209C241.974 40.2067 242.264 40.5859 242.648 40.8587C243.035 41.1314 243.513 41.2678 244.079 41.2678ZM251.091 43V33.1818H253.003V43H251.091ZM252.057 31.6669C251.724 31.6669 251.439 31.5561 251.2 31.3345C250.966 31.1087 250.849 30.8402 250.849 30.5291C250.849 30.2138 250.966 29.9453 251.2 29.7237C251.439 29.4979 251.724 29.3849 252.057 29.3849C252.389 29.3849 252.672 29.4979 252.907 29.7237C253.145 29.9453 253.265 30.2138 253.265 30.5291C253.265 30.8402 253.145 31.1087 252.907 31.3345C252.672 31.5561 252.389 31.6669 252.057 31.6669ZM262.931 35.5788L261.199 35.8857C261.126 35.6641 261.011 35.4531 260.854 35.2528C260.7 35.0526 260.491 34.8885 260.227 34.7607C259.963 34.6328 259.633 34.5689 259.237 34.5689C258.695 34.5689 258.244 34.6903 257.881 34.9332C257.519 35.1719 257.338 35.4808 257.338 35.8601C257.338 36.1882 257.46 36.4524 257.702 36.6527C257.945 36.853 258.337 37.017 258.879 37.1449L260.438 37.5028C261.342 37.7116 262.015 38.0334 262.458 38.468C262.901 38.9027 263.123 39.4673 263.123 40.1619C263.123 40.75 262.952 41.2741 262.612 41.7344C262.275 42.1903 261.804 42.5483 261.199 42.8082C260.598 43.0682 259.901 43.1982 259.109 43.1982C258.009 43.1982 257.112 42.9638 256.418 42.495C255.723 42.022 255.297 41.3509 255.139 40.4815L256.987 40.2003C257.102 40.6818 257.338 41.0462 257.696 41.2933C258.054 41.5362 258.521 41.6577 259.096 41.6577C259.722 41.6577 260.223 41.5277 260.598 41.2678C260.973 41.0036 261.161 40.6818 261.161 40.3026C261.161 39.9957 261.045 39.7379 260.815 39.5291C260.589 39.3203 260.242 39.1626 259.773 39.0561L258.112 38.6918C257.195 38.483 256.518 38.1506 256.079 37.6946C255.644 37.2386 255.427 36.6612 255.427 35.9624C255.427 35.3828 255.589 34.8757 255.913 34.4411C256.237 34.0064 256.684 33.6676 257.255 33.4247C257.826 33.1776 258.48 33.054 259.217 33.054C260.278 33.054 261.114 33.2841 261.723 33.7443C262.332 34.2003 262.735 34.8118 262.931 35.5788ZM269.807 33.1818V34.7159H264.444V33.1818H269.807ZM265.883 30.8295H267.794V40.1172C267.794 40.4879 267.849 40.767 267.96 40.9545C268.071 41.1378 268.214 41.2635 268.388 41.3317C268.567 41.3956 268.761 41.4276 268.97 41.4276C269.123 41.4276 269.258 41.4169 269.373 41.3956C269.488 41.3743 269.577 41.3572 269.641 41.3445L269.986 42.9233C269.876 42.9659 269.718 43.0085 269.513 43.0511C269.309 43.098 269.053 43.1236 268.746 43.1278C268.243 43.1364 267.775 43.0469 267.34 42.8594C266.905 42.6719 266.554 42.3821 266.285 41.9901C266.017 41.598 265.883 41.1058 265.883 40.5135V30.8295ZM271.922 43V33.1818H273.769V34.7415H273.871C274.05 34.2131 274.365 33.7976 274.817 33.495C275.273 33.1882 275.789 33.0348 276.364 33.0348C276.483 33.0348 276.624 33.0391 276.786 33.0476C276.952 33.0561 277.082 33.0668 277.176 33.0795V34.9077C277.099 34.8864 276.963 34.8629 276.767 34.8374C276.571 34.8075 276.375 34.7926 276.179 34.7926C275.727 34.7926 275.324 34.8885 274.971 35.0803C274.621 35.2678 274.344 35.5298 274.14 35.8665C273.935 36.1989 273.833 36.5781 273.833 37.0043V43H271.922ZM281.599 43.2173C280.977 43.2173 280.414 43.1023 279.912 42.8722C279.409 42.6378 279.01 42.299 278.716 41.8558C278.426 41.4126 278.282 40.8693 278.282 40.2259C278.282 39.6719 278.388 39.2159 278.601 38.858C278.814 38.5 279.102 38.2166 279.464 38.0078C279.826 37.799 280.231 37.6413 280.679 37.5348C281.126 37.4283 281.582 37.3473 282.047 37.2919C282.635 37.2237 283.112 37.1683 283.478 37.1257C283.845 37.0788 284.111 37.0043 284.277 36.902C284.444 36.7997 284.527 36.6335 284.527 36.4034V36.3587C284.527 35.8004 284.369 35.3679 284.054 35.0611C283.743 34.7543 283.278 34.6009 282.66 34.6009C282.017 34.6009 281.51 34.7436 281.139 35.0291C280.772 35.3104 280.519 35.6236 280.378 35.9688L278.582 35.5597C278.795 34.9631 279.106 34.4815 279.515 34.1151C279.929 33.7443 280.404 33.4759 280.941 33.3097C281.478 33.1392 282.042 33.054 282.635 33.054C283.027 33.054 283.442 33.1009 283.881 33.1946C284.324 33.2841 284.738 33.4503 285.121 33.6932C285.509 33.9361 285.826 34.2834 286.074 34.7351C286.321 35.1825 286.444 35.7642 286.444 36.4801V43H284.578V41.6577H284.501C284.377 41.9048 284.192 42.1477 283.945 42.3864C283.698 42.625 283.38 42.8232 282.993 42.9808C282.605 43.1385 282.14 43.2173 281.599 43.2173ZM282.015 41.6832C282.543 41.6832 282.995 41.5788 283.37 41.37C283.749 41.1612 284.037 40.8885 284.233 40.5518C284.433 40.2109 284.533 39.8466 284.533 39.4588V38.1932C284.465 38.2614 284.333 38.3253 284.137 38.3849C283.945 38.4403 283.725 38.4893 283.478 38.532C283.231 38.5703 282.99 38.6065 282.756 38.6406C282.522 38.6705 282.326 38.696 282.168 38.7173C281.797 38.7642 281.458 38.843 281.152 38.9538C280.849 39.0646 280.606 39.2244 280.423 39.4332C280.244 39.6378 280.154 39.9105 280.154 40.2514C280.154 40.7244 280.329 41.0824 280.679 41.3253C281.028 41.5639 281.473 41.6832 282.015 41.6832ZM293.573 33.1818V34.7159H288.21V33.1818H293.573ZM289.648 30.8295H291.559V40.1172C291.559 40.4879 291.615 40.767 291.726 40.9545C291.836 41.1378 291.979 41.2635 292.154 41.3317C292.333 41.3956 292.527 41.4276 292.736 41.4276C292.889 41.4276 293.023 41.4169 293.138 41.3956C293.253 41.3743 293.343 41.3572 293.407 41.3445L293.752 42.9233C293.641 42.9659 293.483 43.0085 293.279 43.0511C293.074 43.098 292.819 43.1236 292.512 43.1278C292.009 43.1364 291.54 43.0469 291.106 42.8594C290.671 42.6719 290.319 42.3821 290.051 41.9901C289.782 41.598 289.648 41.1058 289.648 40.5135V30.8295ZM295.687 43V33.1818H297.598V43H295.687ZM296.652 31.6669C296.32 31.6669 296.034 31.5561 295.796 31.3345C295.561 31.1087 295.444 30.8402 295.444 30.5291C295.444 30.2138 295.561 29.9453 295.796 29.7237C296.034 29.4979 296.32 29.3849 296.652 29.3849C296.985 29.3849 297.268 29.4979 297.502 29.7237C297.741 29.9453 297.86 30.2138 297.86 30.5291C297.86 30.8402 297.741 31.1087 297.502 31.3345C297.268 31.5561 296.985 31.6669 296.652 31.6669ZM304.305 43.1982C303.385 43.1982 302.581 42.9872 301.895 42.5653C301.209 42.1435 300.677 41.5533 300.297 40.7947C299.918 40.0362 299.729 39.1499 299.729 38.1357C299.729 37.1172 299.918 36.2266 300.297 35.4638C300.677 34.701 301.209 34.1087 301.895 33.6868C302.581 33.2649 303.385 33.054 304.305 33.054C305.226 33.054 306.029 33.2649 306.715 33.6868C307.401 34.1087 307.934 34.701 308.313 35.4638C308.692 36.2266 308.882 37.1172 308.882 38.1357C308.882 39.1499 308.692 40.0362 308.313 40.7947C307.934 41.5533 307.401 42.1435 306.715 42.5653C306.029 42.9872 305.226 43.1982 304.305 43.1982ZM304.312 41.5938C304.908 41.5938 305.403 41.4361 305.795 41.1207C306.187 40.8054 306.476 40.3857 306.664 39.8615C306.856 39.3374 306.952 38.7599 306.952 38.1293C306.952 37.5028 306.856 36.9276 306.664 36.4034C306.476 35.875 306.187 35.451 305.795 35.1314C305.403 34.8118 304.908 34.652 304.312 34.652C303.711 34.652 303.212 34.8118 302.816 35.1314C302.424 35.451 302.132 35.875 301.94 36.4034C301.753 36.9276 301.659 37.5028 301.659 38.1293C301.659 38.7599 301.753 39.3374 301.94 39.8615C302.132 40.3857 302.424 40.8054 302.816 41.1207C303.212 41.4361 303.711 41.5938 304.312 41.5938ZM312.926 37.1705V43H311.015V33.1818H312.85V34.7798H312.971C313.197 34.2599 313.551 33.8423 314.032 33.527C314.518 33.2116 315.13 33.054 315.867 33.054C316.536 33.054 317.122 33.1946 317.625 33.4759C318.127 33.7528 318.517 34.1662 318.794 34.7159C319.071 35.2656 319.21 35.9453 319.21 36.755V43H317.299V36.9851C317.299 36.2734 317.113 35.7173 316.743 35.3168C316.372 34.9119 315.863 34.7095 315.215 34.7095C314.772 34.7095 314.377 34.8054 314.032 34.9972C313.691 35.1889 313.421 35.4702 313.221 35.8409C313.025 36.2074 312.926 36.6506 312.926 37.1705ZM324.26 41.2102L324.164 41.907C324.1 42.4183 323.991 42.951 323.838 43.505C323.689 44.0632 323.533 44.581 323.371 45.0582C323.213 45.5355 323.083 45.9148 322.981 46.196H321.626C321.681 45.9318 321.758 45.5739 321.856 45.1222C321.954 44.6747 322.05 44.174 322.144 43.62C322.238 43.0661 322.308 42.5014 322.355 41.9261L322.419 41.2102H324.26ZM335.628 46.8864C334.848 46.8864 334.177 46.7841 333.614 46.5795C333.056 46.375 332.6 46.1044 332.246 45.7678C331.893 45.4311 331.629 45.0625 331.454 44.6619L333.097 43.9844C333.212 44.1719 333.365 44.37 333.557 44.5788C333.753 44.7919 334.017 44.973 334.349 45.1222C334.686 45.2713 335.119 45.3459 335.647 45.3459C336.371 45.3459 336.97 45.169 337.443 44.8153C337.916 44.4659 338.153 43.9077 338.153 43.1406V41.2102H338.031C337.916 41.419 337.75 41.6513 337.533 41.907C337.32 42.1626 337.026 42.3842 336.651 42.5717C336.276 42.7592 335.788 42.853 335.187 42.853C334.411 42.853 333.712 42.6719 333.09 42.3097C332.472 41.9432 331.982 41.4041 331.62 40.6925C331.262 39.9766 331.083 39.0966 331.083 38.0526C331.083 37.0085 331.26 36.1136 331.614 35.3679C331.972 34.6222 332.462 34.0511 333.084 33.6548C333.706 33.2543 334.411 33.054 335.2 33.054C335.809 33.054 336.301 33.1562 336.676 33.3608C337.051 33.5611 337.343 33.7955 337.552 34.0639C337.765 34.3324 337.929 34.5689 338.044 34.7734H338.185V33.1818H340.058V43.2173C340.058 44.0611 339.862 44.7536 339.469 45.2947C339.077 45.8359 338.547 46.2365 337.878 46.4964C337.213 46.7564 336.463 46.8864 335.628 46.8864ZM335.609 41.2678C336.158 41.2678 336.623 41.1399 337.002 40.8842C337.386 40.6243 337.675 40.2536 337.871 39.772C338.072 39.2862 338.172 38.7045 338.172 38.027C338.172 37.3665 338.074 36.7848 337.878 36.282C337.682 35.7791 337.394 35.3871 337.015 35.1058C336.636 34.8203 336.167 34.6776 335.609 34.6776C335.033 34.6776 334.554 34.8267 334.17 35.125C333.787 35.419 333.497 35.8196 333.301 36.3267C333.109 36.8338 333.013 37.4006 333.013 38.027C333.013 38.6705 333.112 39.2351 333.308 39.7209C333.504 40.2067 333.793 40.5859 334.177 40.8587C334.565 41.1314 335.042 41.2678 335.609 41.2678ZM346.756 43.1982C345.836 43.1982 345.033 42.9872 344.347 42.5653C343.661 42.1435 343.128 41.5533 342.749 40.7947C342.369 40.0362 342.18 39.1499 342.18 38.1357C342.18 37.1172 342.369 36.2266 342.749 35.4638C343.128 34.701 343.661 34.1087 344.347 33.6868C345.033 33.2649 345.836 33.054 346.756 33.054C347.677 33.054 348.48 33.2649 349.166 33.6868C349.852 34.1087 350.385 34.701 350.764 35.4638C351.143 36.2266 351.333 37.1172 351.333 38.1357C351.333 39.1499 351.143 40.0362 350.764 40.7947C350.385 41.5533 349.852 42.1435 349.166 42.5653C348.48 42.9872 347.677 43.1982 346.756 43.1982ZM346.763 41.5938C347.359 41.5938 347.854 41.4361 348.246 41.1207C348.638 40.8054 348.928 40.3857 349.115 39.8615C349.307 39.3374 349.403 38.7599 349.403 38.1293C349.403 37.5028 349.307 36.9276 349.115 36.4034C348.928 35.875 348.638 35.451 348.246 35.1314C347.854 34.8118 347.359 34.652 346.763 34.652C346.162 34.652 345.663 34.8118 345.267 35.1314C344.875 35.451 344.583 35.875 344.391 36.4034C344.204 36.9276 344.11 37.5028 344.11 38.1293C344.11 38.7599 344.204 39.3374 344.391 39.8615C344.583 40.3857 344.875 40.8054 345.267 41.1207C345.663 41.4361 346.162 41.5938 346.763 41.5938ZM362.813 33.1818V34.7159H357.45V33.1818H362.813ZM358.888 30.8295H360.8V40.1172C360.8 40.4879 360.855 40.767 360.966 40.9545C361.077 41.1378 361.219 41.2635 361.394 41.3317C361.573 41.3956 361.767 41.4276 361.976 41.4276C362.129 41.4276 362.263 41.4169 362.379 41.3956C362.494 41.3743 362.583 41.3572 362.647 41.3445L362.992 42.9233C362.881 42.9659 362.724 43.0085 362.519 43.0511C362.315 43.098 362.059 43.1236 361.752 43.1278C361.249 43.1364 360.781 43.0469 360.346 42.8594C359.911 42.6719 359.56 42.3821 359.291 41.9901C359.023 41.598 358.888 41.1058 358.888 40.5135V30.8295ZM368.958 43.1982C368.037 43.1982 367.234 42.9872 366.548 42.5653C365.862 42.1435 365.329 41.5533 364.95 40.7947C364.57 40.0362 364.381 39.1499 364.381 38.1357C364.381 37.1172 364.57 36.2266 364.95 35.4638C365.329 34.701 365.862 34.1087 366.548 33.6868C367.234 33.2649 368.037 33.054 368.958 33.054C369.878 33.054 370.681 33.2649 371.367 33.6868C372.053 34.1087 372.586 34.701 372.965 35.4638C373.345 36.2266 373.534 37.1172 373.534 38.1357C373.534 39.1499 373.345 40.0362 372.965 40.7947C372.586 41.5533 372.053 42.1435 371.367 42.5653C370.681 42.9872 369.878 43.1982 368.958 43.1982ZM368.964 41.5938C369.561 41.5938 370.055 41.4361 370.447 41.1207C370.839 40.8054 371.129 40.3857 371.316 39.8615C371.508 39.3374 371.604 38.7599 371.604 38.1293C371.604 37.5028 371.508 36.9276 371.316 36.4034C371.129 35.875 370.839 35.451 370.447 35.1314C370.055 34.8118 369.561 34.652 368.964 34.652C368.363 34.652 367.865 34.8118 367.468 35.1314C367.076 35.451 366.784 35.875 366.593 36.4034C366.405 36.9276 366.311 37.5028 366.311 38.1293C366.311 38.7599 366.405 39.3374 366.593 39.8615C366.784 40.3857 367.076 40.8054 367.468 41.1207C367.865 41.4361 368.363 41.5938 368.964 41.5938ZM380.054 34V32.7727C380.054 32.4105 380.122 32.0291 380.259 31.6286C380.395 31.228 380.585 30.8445 380.828 30.478C381.07 30.1115 381.356 29.7983 381.684 29.5384L382.63 30.2159C382.37 30.5952 382.149 30.9915 381.965 31.4048C381.782 31.8182 381.691 32.2678 381.691 32.7536V34H380.054ZM384.434 43V29.9091H392.642V31.6094H386.409V35.598H392.213V37.2919H386.409V41.2997H392.718V43H384.434ZM403.526 33.1818L399.965 43H397.92L394.353 33.1818H396.405L398.892 40.7372H398.994L401.474 33.1818H403.526ZM409.219 43.1982C408.252 43.1982 407.419 42.9915 406.72 42.5781C406.026 42.1605 405.489 41.5746 405.109 40.8203C404.734 40.0618 404.547 39.1733 404.547 38.1548C404.547 37.1491 404.734 36.2628 405.109 35.4957C405.489 34.7287 406.017 34.13 406.695 33.6996C407.376 33.2692 408.173 33.054 409.085 33.054C409.639 33.054 410.176 33.1456 410.696 33.3288C411.216 33.5121 411.683 33.7997 412.096 34.1918C412.509 34.5838 412.835 35.093 413.074 35.7195C413.313 36.3416 413.432 37.098 413.432 37.9886V38.6662H405.627V37.2344H411.559C411.559 36.7315 411.457 36.2862 411.252 35.8984C411.048 35.5064 410.76 35.1974 410.389 34.9716C410.023 34.7457 409.592 34.6328 409.098 34.6328C408.561 34.6328 408.092 34.7649 407.692 35.0291C407.295 35.2891 406.989 35.63 406.771 36.0518C406.558 36.4695 406.452 36.9233 406.452 37.4134V38.532C406.452 39.1882 406.567 39.7464 406.797 40.2067C407.031 40.6669 407.357 41.0185 407.775 41.2614C408.192 41.5 408.68 41.6193 409.239 41.6193C409.601 41.6193 409.931 41.5682 410.229 41.4659C410.528 41.3594 410.786 41.2017 411.003 40.9929C411.22 40.7841 411.386 40.5263 411.501 40.2195L413.31 40.5455C413.165 41.0781 412.906 41.5447 412.531 41.9453C412.16 42.3416 411.693 42.6506 411.131 42.8722C410.572 43.0895 409.935 43.1982 409.219 43.1982ZM417.464 37.1705V43H415.552V33.1818H417.387V34.7798H417.508C417.734 34.2599 418.088 33.8423 418.569 33.527C419.055 33.2116 419.667 33.054 420.404 33.054C421.073 33.054 421.659 33.1946 422.162 33.4759C422.665 33.7528 423.055 34.1662 423.331 34.7159C423.608 35.2656 423.747 35.9453 423.747 36.755V43H421.836V36.9851C421.836 36.2734 421.65 35.7173 421.28 35.3168C420.909 34.9119 420.4 34.7095 419.752 34.7095C419.309 34.7095 418.915 34.8054 418.569 34.9972C418.229 35.1889 417.958 35.4702 417.758 35.8409C417.562 36.2074 417.464 36.6506 417.464 37.1705ZM430.893 33.1818V34.7159H425.53V33.1818H430.893ZM426.969 30.8295H428.88V40.1172C428.88 40.4879 428.935 40.767 429.046 40.9545C429.157 41.1378 429.3 41.2635 429.474 41.3317C429.653 41.3956 429.847 41.4276 430.056 41.4276C430.209 41.4276 430.344 41.4169 430.459 41.3956C430.574 41.3743 430.663 41.3572 430.727 41.3445L431.072 42.9233C430.961 42.9659 430.804 43.0085 430.599 43.0511C430.395 43.098 430.139 43.1236 429.832 43.1278C429.329 43.1364 428.861 43.0469 428.426 42.8594C427.991 42.6719 427.64 42.3821 427.371 41.9901C427.103 41.598 426.969 41.1058 426.969 40.5135V30.8295ZM440.206 35.5788L438.474 35.8857C438.402 35.6641 438.287 35.4531 438.129 35.2528C437.976 35.0526 437.767 34.8885 437.503 34.7607C437.238 34.6328 436.908 34.5689 436.512 34.5689C435.971 34.5689 435.519 34.6903 435.157 34.9332C434.795 35.1719 434.613 35.4808 434.613 35.8601C434.613 36.1882 434.735 36.4524 434.978 36.6527C435.221 36.853 435.613 37.017 436.154 37.1449L437.714 37.5028C438.617 37.7116 439.29 38.0334 439.733 38.468C440.177 38.9027 440.398 39.4673 440.398 40.1619C440.398 40.75 440.228 41.2741 439.887 41.7344C439.55 42.1903 439.079 42.5483 438.474 42.8082C437.873 43.0682 437.177 43.1982 436.384 43.1982C435.285 43.1982 434.388 42.9638 433.693 42.495C432.998 42.022 432.572 41.3509 432.415 40.4815L434.262 40.2003C434.377 40.6818 434.613 41.0462 434.971 41.2933C435.329 41.5362 435.796 41.6577 436.371 41.6577C436.998 41.6577 437.498 41.5277 437.873 41.2678C438.248 41.0036 438.436 40.6818 438.436 40.3026C438.436 39.9957 438.321 39.7379 438.091 39.5291C437.865 39.3203 437.518 39.1626 437.049 39.0561L435.387 38.6918C434.471 38.483 433.793 38.1506 433.354 37.6946C432.92 37.2386 432.702 36.6612 432.702 35.9624C432.702 35.3828 432.864 34.8757 433.188 34.4411C433.512 34.0064 433.959 33.6676 434.53 33.4247C435.101 33.1776 435.756 33.054 436.493 33.054C437.554 33.054 438.389 33.2841 438.998 33.7443C439.608 34.2003 440.01 34.8118 440.206 35.5788ZM444.142 29.9091V31.1364C444.142 31.4986 444.074 31.88 443.938 32.2805C443.806 32.6768 443.618 33.0582 443.375 33.4247C443.132 33.7912 442.847 34.1065 442.519 34.3707L441.573 33.6932C441.824 33.3267 442.042 32.9368 442.225 32.5234C442.412 32.1101 442.506 31.6541 442.506 31.1555V29.9091H444.142ZM450.849 46.6818V33.1818H452.716V34.7734H452.876C452.986 34.5689 453.146 34.3324 453.355 34.0639C453.564 33.7955 453.854 33.5611 454.224 33.3608C454.595 33.1562 455.085 33.054 455.694 33.054C456.487 33.054 457.194 33.2543 457.817 33.6548C458.439 34.0554 458.927 34.6328 459.28 35.3871C459.638 36.1413 459.817 37.049 459.817 38.1101C459.817 39.1712 459.64 40.081 459.287 40.8395C458.933 41.5937 458.447 42.1754 457.829 42.5845C457.211 42.9893 456.506 43.1918 455.714 43.1918C455.117 43.1918 454.629 43.0916 454.25 42.8913C453.875 42.6911 453.581 42.4567 453.368 42.1882C453.155 41.9197 452.991 41.6811 452.876 41.4723H452.76V46.6818H450.849ZM452.722 38.0909C452.722 38.7812 452.822 39.3864 453.023 39.9062C453.223 40.4261 453.513 40.8331 453.892 41.1271C454.271 41.4169 454.736 41.5618 455.285 41.5618C455.856 41.5618 456.334 41.4105 456.717 41.108C457.101 40.8011 457.39 40.3857 457.586 39.8615C457.787 39.3374 457.887 38.7472 457.887 38.0909C457.887 37.4432 457.789 36.8615 457.593 36.3459C457.401 35.8303 457.111 35.4233 456.724 35.125C456.34 34.8267 455.861 34.6776 455.285 34.6776C454.731 34.6776 454.263 34.8203 453.879 35.1058C453.5 35.3913 453.212 35.7898 453.016 36.3011C452.82 36.8125 452.722 37.4091 452.722 38.0909ZM464.816 43.2173C464.194 43.2173 463.631 43.1023 463.128 42.8722C462.626 42.6378 462.227 42.299 461.933 41.8558C461.643 41.4126 461.498 40.8693 461.498 40.2259C461.498 39.6719 461.605 39.2159 461.818 38.858C462.031 38.5 462.319 38.2166 462.681 38.0078C463.043 37.799 463.448 37.6413 463.895 37.5348C464.343 37.4283 464.799 37.3473 465.263 37.2919C465.851 37.2237 466.329 37.1683 466.695 37.1257C467.062 37.0788 467.328 37.0043 467.494 36.902C467.66 36.7997 467.743 36.6335 467.743 36.4034V36.3587C467.743 35.8004 467.586 35.3679 467.27 35.0611C466.959 34.7543 466.495 34.6009 465.877 34.6009C465.233 34.6009 464.726 34.7436 464.356 35.0291C463.989 35.3104 463.736 35.6236 463.595 35.9688L461.799 35.5597C462.012 34.9631 462.323 34.4815 462.732 34.1151C463.145 33.7443 463.621 33.4759 464.157 33.3097C464.694 33.1392 465.259 33.054 465.851 33.054C466.243 33.054 466.659 33.1009 467.098 33.1946C467.541 33.2841 467.954 33.4503 468.338 33.6932C468.726 33.9361 469.043 34.2834 469.29 34.7351C469.537 35.1825 469.661 35.7642 469.661 36.4801V43H467.795V41.6577H467.718C467.594 41.9048 467.409 42.1477 467.162 42.3864C466.915 42.625 466.597 42.8232 466.209 42.9808C465.822 43.1385 465.357 43.2173 464.816 43.2173ZM465.231 41.6832C465.76 41.6832 466.211 41.5788 466.586 41.37C466.966 41.1612 467.253 40.8885 467.449 40.5518C467.65 40.2109 467.75 39.8466 467.75 39.4588V38.1932C467.682 38.2614 467.55 38.3253 467.354 38.3849C467.162 38.4403 466.942 38.4893 466.695 38.532C466.448 38.5703 466.207 38.6065 465.973 38.6406C465.738 38.6705 465.542 38.696 465.385 38.7173C465.014 38.7642 464.675 38.843 464.368 38.9538C464.066 39.0646 463.823 39.2244 463.64 39.4332C463.461 39.6378 463.371 39.9105 463.371 40.2514C463.371 40.7244 463.546 41.0824 463.895 41.3253C464.245 41.5639 464.69 41.6832 465.231 41.6832ZM476.323 46.8864C475.543 46.8864 474.872 46.7841 474.31 46.5795C473.751 46.375 473.295 46.1044 472.942 45.7678C472.588 45.4311 472.324 45.0625 472.149 44.6619L473.792 43.9844C473.907 44.1719 474.06 44.37 474.252 44.5788C474.448 44.7919 474.712 44.973 475.045 45.1222C475.381 45.2713 475.814 45.3459 476.342 45.3459C477.067 45.3459 477.665 45.169 478.138 44.8153C478.612 44.4659 478.848 43.9077 478.848 43.1406V41.2102H478.727C478.612 41.419 478.445 41.6513 478.228 41.907C478.015 42.1626 477.721 42.3842 477.346 42.5717C476.971 42.7592 476.483 42.853 475.882 42.853C475.107 42.853 474.408 42.6719 473.786 42.3097C473.168 41.9432 472.678 41.4041 472.315 40.6925C471.957 39.9766 471.778 39.0966 471.778 38.0526C471.778 37.0085 471.955 36.1136 472.309 35.3679C472.667 34.6222 473.157 34.0511 473.779 33.6548C474.401 33.2543 475.107 33.054 475.895 33.054C476.504 33.054 476.996 33.1562 477.371 33.3608C477.746 33.5611 478.038 33.7955 478.247 34.0639C478.46 34.3324 478.624 34.5689 478.739 34.7734H478.88V33.1818H480.753V43.2173C480.753 44.0611 480.557 44.7536 480.165 45.2947C479.773 45.8359 479.242 46.2365 478.573 46.4964C477.908 46.7564 477.158 46.8864 476.323 46.8864ZM476.304 41.2678C476.854 41.2678 477.318 41.1399 477.697 40.8842C478.081 40.6243 478.371 40.2536 478.567 39.772C478.767 39.2862 478.867 38.7045 478.867 38.027C478.867 37.3665 478.769 36.7848 478.573 36.282C478.377 35.7791 478.089 35.3871 477.71 35.1058C477.331 34.8203 476.862 34.6776 476.304 34.6776C475.729 34.6776 475.249 34.8267 474.866 35.125C474.482 35.419 474.192 35.8196 473.996 36.3267C473.805 36.8338 473.709 37.4006 473.709 38.027C473.709 38.6705 473.807 39.2351 474.003 39.7209C474.199 40.2067 474.489 40.5859 474.872 40.8587C475.26 41.1314 475.737 41.2678 476.304 41.2678ZM487.548 43.1982C486.58 43.1982 485.747 42.9915 485.048 42.5781C484.354 42.1605 483.817 41.5746 483.438 40.8203C483.062 40.0618 482.875 39.1733 482.875 38.1548C482.875 37.1491 483.062 36.2628 483.438 35.4957C483.817 34.7287 484.345 34.13 485.023 33.6996C485.705 33.2692 486.501 33.054 487.413 33.054C487.967 33.054 488.504 33.1456 489.024 33.3288C489.544 33.5121 490.011 33.7997 490.424 34.1918C490.837 34.5838 491.163 35.093 491.402 35.7195C491.641 36.3416 491.76 37.098 491.76 37.9886V38.6662H483.955V37.2344H489.887C489.887 36.7315 489.785 36.2862 489.58 35.8984C489.376 35.5064 489.088 35.1974 488.717 34.9716C488.351 34.7457 487.92 34.6328 487.426 34.6328C486.889 34.6328 486.42 34.7649 486.02 35.0291C485.624 35.2891 485.317 35.63 485.099 36.0518C484.886 36.4695 484.78 36.9233 484.78 37.4134V38.532C484.78 39.1882 484.895 39.7464 485.125 40.2067C485.359 40.6669 485.685 41.0185 486.103 41.2614C486.521 41.5 487.009 41.6193 487.567 41.6193C487.929 41.6193 488.259 41.5682 488.558 41.4659C488.856 41.3594 489.114 41.2017 489.331 40.9929C489.548 40.7841 489.714 40.5263 489.83 40.2195L491.638 40.5455C491.494 41.0781 491.234 41.5447 490.859 41.9453C490.488 42.3416 490.021 42.6506 489.459 42.8722C488.901 43.0895 488.263 43.1982 487.548 43.1982ZM506.8 42.4183L505.65 41.2805L509.645 37.2855H499.609V35.6236H509.645L505.65 31.6349L506.8 30.4908L512.764 36.4545L506.8 42.4183ZM527.875 33.348C527.807 32.7429 527.526 32.2741 527.031 31.9418C526.537 31.6051 525.915 31.4368 525.165 31.4368C524.628 31.4368 524.163 31.522 523.771 31.6925C523.379 31.8587 523.075 32.0888 522.857 32.3828C522.644 32.6726 522.538 33.0028 522.538 33.3736C522.538 33.6847 522.61 33.9531 522.755 34.179C522.904 34.4048 523.098 34.5945 523.337 34.7479C523.58 34.897 523.839 35.0227 524.116 35.125C524.393 35.223 524.66 35.304 524.915 35.3679L526.194 35.7003C526.612 35.8026 527.04 35.9411 527.479 36.1158C527.918 36.2905 528.325 36.5206 528.7 36.8061C529.075 37.0916 529.377 37.4453 529.607 37.8672C529.842 38.2891 529.959 38.794 529.959 39.3821C529.959 40.1236 529.767 40.782 529.384 41.3572C529.004 41.9325 528.452 42.3864 527.728 42.7188C527.008 43.0511 526.136 43.2173 525.114 43.2173C524.134 43.2173 523.286 43.0618 522.57 42.7507C521.854 42.4396 521.293 41.9986 520.888 41.4276C520.484 40.8523 520.26 40.1705 520.217 39.3821H522.199C522.237 39.8551 522.391 40.2493 522.659 40.5646C522.932 40.8757 523.279 41.108 523.701 41.2614C524.127 41.4105 524.594 41.4851 525.101 41.4851C525.659 41.4851 526.156 41.3977 526.59 41.223C527.029 41.044 527.374 40.7969 527.626 40.4815C527.877 40.1619 528.003 39.7891 528.003 39.3629C528.003 38.9751 527.892 38.6577 527.67 38.4105C527.453 38.1634 527.157 37.9588 526.782 37.7969C526.411 37.6349 525.991 37.4922 525.523 37.3686L523.976 36.9467C522.928 36.6612 522.097 36.2415 521.483 35.6875C520.874 35.1335 520.569 34.4006 520.569 33.4886C520.569 32.7344 520.773 32.076 521.183 31.5135C521.592 30.951 522.146 30.5142 522.844 30.2031C523.543 29.8878 524.332 29.7301 525.21 29.7301C526.096 29.7301 526.878 29.8857 527.555 30.1967C528.237 30.5078 528.774 30.9361 529.166 31.4815C529.558 32.0227 529.763 32.6449 529.78 33.348H527.875ZM536.397 43.1982C535.43 43.1982 534.597 42.9915 533.898 42.5781C533.203 42.1605 532.666 41.5746 532.287 40.8203C531.912 40.0618 531.725 39.1733 531.725 38.1548C531.725 37.1491 531.912 36.2628 532.287 35.4957C532.666 34.7287 533.195 34.13 533.872 33.6996C534.554 33.2692 535.351 33.054 536.263 33.054C536.817 33.054 537.354 33.1456 537.874 33.3288C538.394 33.5121 538.86 33.7997 539.274 34.1918C539.687 34.5838 540.013 35.093 540.252 35.7195C540.49 36.3416 540.61 37.098 540.61 37.9886V38.6662H532.805V37.2344H538.737C538.737 36.7315 538.634 36.2862 538.43 35.8984C538.225 35.5064 537.938 35.1974 537.567 34.9716C537.2 34.7457 536.77 34.6328 536.276 34.6328C535.739 34.6328 535.27 34.7649 534.869 35.0291C534.473 35.2891 534.166 35.63 533.949 36.0518C533.736 36.4695 533.629 36.9233 533.629 37.4134V38.532C533.629 39.1882 533.744 39.7464 533.975 40.2067C534.209 40.6669 534.535 41.0185 534.953 41.2614C535.37 41.5 535.858 41.6193 536.416 41.6193C536.779 41.6193 537.109 41.5682 537.407 41.4659C537.705 41.3594 537.963 41.2017 538.181 40.9929C538.398 40.7841 538.564 40.5263 538.679 40.2195L540.488 40.5455C540.343 41.0781 540.083 41.5447 539.708 41.9453C539.338 42.3416 538.871 42.6506 538.308 42.8722C537.75 43.0895 537.113 43.1982 536.397 43.1982ZM544.641 29.9091V43H542.73V29.9091H544.641ZM551.444 43.1982C550.477 43.1982 549.644 42.9915 548.945 42.5781C548.25 42.1605 547.713 41.5746 547.334 40.8203C546.959 40.0618 546.771 39.1733 546.771 38.1548C546.771 37.1491 546.959 36.2628 547.334 35.4957C547.713 34.7287 548.242 34.13 548.919 33.6996C549.601 33.2692 550.398 33.054 551.31 33.054C551.864 33.054 552.401 33.1456 552.921 33.3288C553.441 33.5121 553.907 33.7997 554.32 34.1918C554.734 34.5838 555.06 35.093 555.298 35.7195C555.537 36.3416 555.656 37.098 555.656 37.9886V38.6662H547.852V37.2344H553.784C553.784 36.7315 553.681 36.2862 553.477 35.8984C553.272 35.5064 552.985 35.1974 552.614 34.9716C552.247 34.7457 551.817 34.6328 551.323 34.6328C550.786 34.6328 550.317 34.7649 549.916 35.0291C549.52 35.2891 549.213 35.63 548.996 36.0518C548.783 36.4695 548.676 36.9233 548.676 37.4134V38.532C548.676 39.1882 548.791 39.7464 549.021 40.2067C549.256 40.6669 549.582 41.0185 549.999 41.2614C550.417 41.5 550.905 41.6193 551.463 41.6193C551.825 41.6193 552.156 41.5682 552.454 41.4659C552.752 41.3594 553.01 41.2017 553.227 40.9929C553.445 40.7841 553.611 40.5263 553.726 40.2195L555.535 40.5455C555.39 41.0781 555.13 41.5447 554.755 41.9453C554.384 42.3416 553.918 42.6506 553.355 42.8722C552.797 43.0895 552.16 43.1982 551.444 43.1982ZM561.913 43.1982C560.962 43.1982 560.144 42.983 559.458 42.5526C558.776 42.1179 558.252 41.5192 557.886 40.7564C557.519 39.9936 557.336 39.12 557.336 38.1357C557.336 37.1385 557.523 36.2585 557.898 35.4957C558.273 34.7287 558.802 34.13 559.484 33.6996C560.165 33.2692 560.969 33.054 561.893 33.054C562.639 33.054 563.304 33.1925 563.888 33.4695C564.472 33.7422 564.942 34.1257 565.3 34.62C565.663 35.1143 565.878 35.6918 565.946 36.3523H564.086C563.984 35.892 563.749 35.4957 563.383 35.1634C563.021 34.831 562.535 34.6648 561.925 34.6648C561.393 34.6648 560.926 34.8054 560.526 35.0866C560.129 35.3636 559.82 35.7599 559.599 36.2756C559.377 36.7869 559.266 37.392 559.266 38.0909C559.266 38.8068 559.375 39.4247 559.592 39.9446C559.81 40.4645 560.116 40.8672 560.513 41.1527C560.913 41.4382 561.384 41.581 561.925 41.581C562.288 41.581 562.616 41.5149 562.91 41.3828C563.208 41.2464 563.457 41.0526 563.658 40.8011C563.862 40.5497 564.005 40.2472 564.086 39.8935H565.946C565.878 40.5284 565.671 41.0952 565.326 41.5938C564.981 42.0923 564.518 42.4844 563.939 42.7699C563.364 43.0554 562.688 43.1982 561.913 43.1982ZM572.573 33.1818V34.7159H567.21V33.1818H572.573ZM568.648 30.8295H570.559V40.1172C570.559 40.4879 570.615 40.767 570.726 40.9545C570.836 41.1378 570.979 41.2635 571.154 41.3317C571.333 41.3956 571.527 41.4276 571.736 41.4276C571.889 41.4276 572.023 41.4169 572.138 41.3956C572.253 41.3743 572.343 41.3572 572.407 41.3445L572.752 42.9233C572.641 42.9659 572.483 43.0085 572.279 43.0511C572.074 43.098 571.819 43.1236 571.512 43.1278C571.009 43.1364 570.54 43.0469 570.106 42.8594C569.671 42.6719 569.319 42.3821 569.051 41.9901C568.782 41.598 568.648 41.1058 568.648 40.5135V30.8295ZM581.579 43L578.69 33.1818H580.665L582.589 40.392H582.685L584.616 33.1818H586.591L588.508 40.3601H588.604L590.515 33.1818H592.491L589.608 43H587.658L585.664 35.9112H585.517L583.523 43H581.579ZM598.141 43.1982C597.221 43.1982 596.417 42.9872 595.731 42.5653C595.045 42.1435 594.513 41.5533 594.133 40.7947C593.754 40.0362 593.564 39.1499 593.564 38.1357C593.564 37.1172 593.754 36.2266 594.133 35.4638C594.513 34.701 595.045 34.1087 595.731 33.6868C596.417 33.2649 597.221 33.054 598.141 33.054C599.062 33.054 599.865 33.2649 600.551 33.6868C601.237 34.1087 601.77 34.701 602.149 35.4638C602.528 36.2266 602.718 37.1172 602.718 38.1357C602.718 39.1499 602.528 40.0362 602.149 40.7947C601.77 41.5533 601.237 42.1435 600.551 42.5653C599.865 42.9872 599.062 43.1982 598.141 43.1982ZM598.148 41.5938C598.744 41.5938 599.238 41.4361 599.631 41.1207C600.023 40.8054 600.312 40.3857 600.5 39.8615C600.692 39.3374 600.787 38.7599 600.787 38.1293C600.787 37.5028 600.692 36.9276 600.5 36.4034C600.312 35.875 600.023 35.451 599.631 35.1314C599.238 34.8118 598.744 34.652 598.148 34.652C597.547 34.652 597.048 34.8118 596.652 35.1314C596.26 35.451 595.968 35.875 595.776 36.4034C595.589 36.9276 595.495 37.5028 595.495 38.1293C595.495 38.7599 595.589 39.3374 595.776 39.8615C595.968 40.3857 596.26 40.8054 596.652 41.1207C597.048 41.4361 597.547 41.5938 598.148 41.5938ZM604.851 43V33.1818H606.699V34.7415H606.801C606.98 34.2131 607.295 33.7976 607.747 33.495C608.203 33.1882 608.718 33.0348 609.294 33.0348C609.413 33.0348 609.554 33.0391 609.716 33.0476C609.882 33.0561 610.012 33.0668 610.105 33.0795V34.9077C610.029 34.8864 609.892 34.8629 609.696 34.8374C609.5 34.8075 609.304 34.7926 609.108 34.7926C608.657 34.7926 608.254 34.8885 607.9 35.0803C607.551 35.2678 607.274 35.5298 607.069 35.8665C606.865 36.1989 606.762 36.5781 606.762 37.0043V43H604.851ZM613.517 39.6697L613.504 37.3366H613.837L617.749 33.1818H620.037L615.575 37.9119H615.275L613.517 39.6697ZM611.759 43V29.9091H613.671V43H611.759ZM617.96 43L614.444 38.3338L615.761 36.9979L620.306 43H617.96ZM629.136 35.5788L627.404 35.8857C627.331 35.6641 627.216 35.4531 627.059 35.2528C626.905 35.0526 626.697 34.8885 626.432 34.7607C626.168 34.6328 625.838 34.5689 625.442 34.5689C624.9 34.5689 624.449 34.6903 624.086 34.9332C623.724 35.1719 623.543 35.4808 623.543 35.8601C623.543 36.1882 623.665 36.4524 623.907 36.6527C624.15 36.853 624.542 37.017 625.084 37.1449L626.643 37.5028C627.547 37.7116 628.22 38.0334 628.663 38.468C629.106 38.9027 629.328 39.4673 629.328 40.1619C629.328 40.75 629.157 41.2741 628.817 41.7344C628.48 42.1903 628.009 42.5483 627.404 42.8082C626.803 43.0682 626.106 43.1982 625.314 43.1982C624.214 43.1982 623.317 42.9638 622.623 42.495C621.928 42.022 621.502 41.3509 621.344 40.4815L623.192 40.2003C623.307 40.6818 623.543 41.0462 623.901 41.2933C624.259 41.5362 624.726 41.6577 625.301 41.6577C625.927 41.6577 626.428 41.5277 626.803 41.2678C627.178 41.0036 627.366 40.6818 627.366 40.3026C627.366 39.9957 627.251 39.7379 627.02 39.5291C626.795 39.3203 626.447 39.1626 625.979 39.0561L624.317 38.6918C623.4 38.483 622.723 38.1506 622.284 37.6946C621.849 37.2386 621.632 36.6612 621.632 35.9624C621.632 35.3828 621.794 34.8757 622.118 34.4411C622.442 34.0064 622.889 33.6676 623.46 33.4247C624.031 33.1776 624.685 33.054 625.422 33.054C626.483 33.054 627.319 33.2841 627.928 33.7443C628.537 34.2003 628.94 34.8118 629.136 35.5788ZM633.341 37.1705V43H631.429V29.9091H633.315V34.7798H633.436C633.667 34.2514 634.018 33.8317 634.491 33.5206C634.964 33.2095 635.582 33.054 636.345 33.054C637.018 33.054 637.606 33.1925 638.109 33.4695C638.616 33.7464 639.008 34.1598 639.285 34.7095C639.566 35.255 639.707 35.9368 639.707 36.755V43H637.796V36.9851C637.796 36.2649 637.61 35.7067 637.24 35.3104C636.869 34.9098 636.353 34.7095 635.693 34.7095C635.241 34.7095 634.836 34.8054 634.478 34.9972C634.125 35.1889 633.846 35.4702 633.641 35.8409C633.441 36.2074 633.341 36.6506 633.341 37.1705ZM646.393 43.1982C645.473 43.1982 644.669 42.9872 643.983 42.5653C643.297 42.1435 642.765 41.5533 642.385 40.7947C642.006 40.0362 641.816 39.1499 641.816 38.1357C641.816 37.1172 642.006 36.2266 642.385 35.4638C642.765 34.701 643.297 34.1087 643.983 33.6868C644.669 33.2649 645.473 33.054 646.393 33.054C647.314 33.054 648.117 33.2649 648.803 33.6868C649.489 34.1087 650.022 34.701 650.401 35.4638C650.78 36.2266 650.97 37.1172 650.97 38.1357C650.97 39.1499 650.78 40.0362 650.401 40.7947C650.022 41.5533 649.489 42.1435 648.803 42.5653C648.117 42.9872 647.314 43.1982 646.393 43.1982ZM646.4 41.5938C646.996 41.5938 647.49 41.4361 647.882 41.1207C648.275 40.8054 648.564 40.3857 648.752 39.8615C648.944 39.3374 649.039 38.7599 649.039 38.1293C649.039 37.5028 648.944 36.9276 648.752 36.4034C648.564 35.875 648.275 35.451 647.882 35.1314C647.49 34.8118 646.996 34.652 646.4 34.652C645.799 34.652 645.3 34.8118 644.904 35.1314C644.512 35.451 644.22 35.875 644.028 36.4034C643.841 36.9276 643.747 37.5028 643.747 38.1293C643.747 38.7599 643.841 39.3374 644.028 39.8615C644.22 40.3857 644.512 40.8054 644.904 41.1207C645.3 41.4361 645.799 41.5938 646.4 41.5938ZM653.103 46.6818V33.1818H654.97V34.7734H655.129C655.24 34.5689 655.4 34.3324 655.609 34.0639C655.818 33.7955 656.107 33.5611 656.478 33.3608C656.849 33.1562 657.339 33.054 657.948 33.054C658.741 33.054 659.448 33.2543 660.07 33.6548C660.693 34.0554 661.181 34.6328 661.534 35.3871C661.892 36.1413 662.071 37.049 662.071 38.1101C662.071 39.1712 661.894 40.081 661.541 40.8395C661.187 41.5937 660.701 42.1754 660.083 42.5845C659.465 42.9893 658.76 43.1918 657.968 43.1918C657.371 43.1918 656.883 43.0916 656.504 42.8913C656.129 42.6911 655.835 42.4567 655.622 42.1882C655.409 41.9197 655.244 41.6811 655.129 41.4723H655.014V46.6818H653.103ZM654.976 38.0909C654.976 38.7812 655.076 39.3864 655.276 39.9062C655.477 40.4261 655.767 40.8331 656.146 41.1271C656.525 41.4169 656.99 41.5618 657.539 41.5618C658.11 41.5618 658.588 41.4105 658.971 41.108C659.355 40.8011 659.644 40.3857 659.84 39.8615C660.041 39.3374 660.141 38.7472 660.141 38.0909C660.141 37.4432 660.043 36.8615 659.847 36.3459C659.655 35.8303 659.365 35.4233 658.977 35.125C658.594 34.8267 658.115 34.6776 657.539 34.6776C656.985 34.6776 656.517 34.8203 656.133 35.1058C655.754 35.3913 655.466 35.7898 655.27 36.3011C655.074 36.8125 654.976 37.4091 654.976 38.0909ZM671.57 35.5788L669.838 35.8857C669.765 35.6641 669.65 35.4531 669.492 35.2528C669.339 35.0526 669.13 34.8885 668.866 34.7607C668.602 34.6328 668.271 34.5689 667.875 34.5689C667.334 34.5689 666.882 34.6903 666.52 34.9332C666.158 35.1719 665.977 35.4808 665.977 35.8601C665.977 36.1882 666.098 36.4524 666.341 36.6527C666.584 36.853 666.976 37.017 667.517 37.1449L669.077 37.5028C669.98 37.7116 670.654 38.0334 671.097 38.468C671.54 38.9027 671.762 39.4673 671.762 40.1619C671.762 40.75 671.591 41.2741 671.25 41.7344C670.914 42.1903 670.443 42.5483 669.838 42.8082C669.237 43.0682 668.54 43.1982 667.747 43.1982C666.648 43.1982 665.751 42.9638 665.056 42.495C664.362 42.022 663.936 41.3509 663.778 40.4815L665.625 40.2003C665.74 40.6818 665.977 41.0462 666.335 41.2933C666.693 41.5362 667.159 41.6577 667.735 41.6577C668.361 41.6577 668.862 41.5277 669.237 41.2678C669.612 41.0036 669.799 40.6818 669.799 40.3026C669.799 39.9957 669.684 39.7379 669.454 39.5291C669.228 39.3203 668.881 39.1626 668.412 39.0561L666.75 38.6918C665.834 38.483 665.156 38.1506 664.718 37.6946C664.283 37.2386 664.066 36.6612 664.066 35.9624C664.066 35.3828 664.227 34.8757 664.551 34.4411C664.875 34.0064 665.323 33.6676 665.894 33.4247C666.465 33.1776 667.119 33.054 667.856 33.054C668.917 33.054 669.752 33.2841 670.362 33.7443C670.971 34.2003 671.374 34.8118 671.57 35.5788ZM683.21 33.1818V34.7159H677.847V33.1818H683.21ZM679.285 30.8295H681.196V40.1172C681.196 40.4879 681.252 40.767 681.362 40.9545C681.473 41.1378 681.616 41.2635 681.791 41.3317C681.97 41.3956 682.164 41.4276 682.372 41.4276C682.526 41.4276 682.66 41.4169 682.775 41.3956C682.89 41.3743 682.98 41.3572 683.044 41.3445L683.389 42.9233C683.278 42.9659 683.12 43.0085 682.916 43.0511C682.711 43.098 682.455 43.1236 682.149 43.1278C681.646 43.1364 681.177 43.0469 680.742 42.8594C680.308 42.6719 679.956 42.3821 679.688 41.9901C679.419 41.598 679.285 41.1058 679.285 40.5135V30.8295ZM689.354 43.1982C688.434 43.1982 687.63 42.9872 686.944 42.5653C686.258 42.1435 685.725 41.5533 685.346 40.7947C684.967 40.0362 684.777 39.1499 684.777 38.1357C684.777 37.1172 684.967 36.2266 685.346 35.4638C685.725 34.701 686.258 34.1087 686.944 33.6868C687.63 33.2649 688.434 33.054 689.354 33.054C690.275 33.054 691.078 33.2649 691.764 33.6868C692.45 34.1087 692.983 34.701 693.362 35.4638C693.741 36.2266 693.931 37.1172 693.931 38.1357C693.931 39.1499 693.741 40.0362 693.362 40.7947C692.983 41.5533 692.45 42.1435 691.764 42.5653C691.078 42.9872 690.275 43.1982 689.354 43.1982ZM689.36 41.5938C689.957 41.5938 690.451 41.4361 690.843 41.1207C691.235 40.8054 691.525 40.3857 691.713 39.8615C691.904 39.3374 692 38.7599 692 38.1293C692 37.5028 691.904 36.9276 691.713 36.4034C691.525 35.875 691.235 35.451 690.843 35.1314C690.451 34.8118 689.957 34.652 689.36 34.652C688.76 34.652 688.261 34.8118 687.865 35.1314C687.473 35.451 687.181 35.875 686.989 36.4034C686.801 36.9276 686.708 37.5028 686.708 38.1293C686.708 38.7599 686.801 39.3374 686.989 39.8615C687.181 40.3857 687.473 40.8054 687.865 41.1207C688.261 41.4361 688.76 41.5938 689.36 41.5938ZM29.142 67.2173C28.5199 67.2173 27.9574 67.1023 27.4545 66.8722C26.9517 66.6378 26.5533 66.299 26.2592 65.8558C25.9695 65.4126 25.8246 64.8693 25.8246 64.2259C25.8246 63.6719 25.9311 63.2159 26.1442 62.858C26.3572 62.5 26.6449 62.2166 27.0071 62.0078C27.3693 61.799 27.7741 61.6413 28.2216 61.5348C28.669 61.4283 29.125 61.3473 29.5895 61.2919C30.1776 61.2237 30.6548 61.1683 31.0213 61.1257C31.3878 61.0788 31.6541 61.0043 31.8203 60.902C31.9865 60.7997 32.0696 60.6335 32.0696 60.4034V60.3587C32.0696 59.8004 31.9119 59.3679 31.5966 59.0611C31.2855 58.7543 30.821 58.6009 30.2031 58.6009C29.5597 58.6009 29.0526 58.7436 28.6818 59.0291C28.3153 59.3104 28.0618 59.6236 27.9212 59.9688L26.125 59.5597C26.3381 58.9631 26.6491 58.4815 27.0582 58.1151C27.4716 57.7443 27.9467 57.4759 28.4837 57.3097C29.0206 57.1392 29.5852 57.054 30.1776 57.054C30.5696 57.054 30.9851 57.1009 31.424 57.1946C31.8672 57.2841 32.2805 57.4503 32.6641 57.6932C33.0518 57.9361 33.3693 58.2834 33.6165 58.7351C33.8636 59.1825 33.9872 59.7642 33.9872 60.4801V67H32.1207V65.6577H32.044C31.9205 65.9048 31.7351 66.1477 31.4879 66.3864C31.2408 66.625 30.9233 66.8232 30.5355 66.9808C30.1477 67.1385 29.6832 67.2173 29.142 67.2173ZM29.5575 65.6832C30.0859 65.6832 30.5376 65.5788 30.9126 65.37C31.2919 65.1612 31.5795 64.8885 31.7756 64.5518C31.9759 64.2109 32.076 63.8466 32.076 63.4588V62.1932C32.0078 62.2614 31.8757 62.3253 31.6797 62.3849C31.4879 62.4403 31.2685 62.4893 31.0213 62.532C30.7741 62.5703 30.5334 62.6065 30.299 62.6406C30.0646 62.6705 29.8686 62.696 29.7109 62.7173C29.3402 62.7642 29.0014 62.843 28.6946 62.9538C28.392 63.0646 28.1491 63.2244 27.9659 63.4332C27.7869 63.6378 27.6974 63.9105 27.6974 64.2514C27.6974 64.7244 27.8722 65.0824 28.2216 65.3253C28.571 65.5639 29.0163 65.6832 29.5575 65.6832ZM41.1159 57.1818V58.7159H35.753V57.1818H41.1159ZM37.1912 54.8295H39.1025V64.1172C39.1025 64.4879 39.1578 64.767 39.2686 64.9545C39.3794 65.1378 39.5222 65.2635 39.6969 65.3317C39.8759 65.3956 40.0698 65.4276 40.2786 65.4276C40.432 65.4276 40.5662 65.4169 40.6813 65.3956C40.7963 65.3743 40.8858 65.3572 40.9498 65.3445L41.2949 66.9233C41.1841 66.9659 41.0265 67.0085 40.8219 67.0511C40.6174 67.098 40.3617 67.1236 40.0549 67.1278C39.552 67.1364 39.0833 67.0469 38.6486 66.8594C38.214 66.6719 37.8624 66.3821 37.5939 65.9901C37.3255 65.598 37.1912 65.1058 37.1912 64.5135V54.8295ZM47.8132 57.1818V58.7159H42.4503V57.1818H47.8132ZM43.8885 54.8295H45.7997V64.1172C45.7997 64.4879 45.8551 64.767 45.9659 64.9545C46.0767 65.1378 46.2195 65.2635 46.3942 65.3317C46.5732 65.3956 46.767 65.4276 46.9759 65.4276C47.1293 65.4276 47.2635 65.4169 47.3786 65.3956C47.4936 65.3743 47.5831 65.3572 47.647 65.3445L47.9922 66.9233C47.8814 66.9659 47.7237 67.0085 47.5192 67.0511C47.3146 67.098 47.0589 67.1236 46.7521 67.1278C46.2493 67.1364 45.7805 67.0469 45.3459 66.8594C44.9112 66.6719 44.5597 66.3821 44.2912 65.9901C44.0227 65.598 43.8885 65.1058 43.8885 64.5135V54.8295ZM54.0534 67.1982C53.0861 67.1982 52.253 66.9915 51.5542 66.5781C50.8596 66.1605 50.3226 65.5746 49.9434 64.8203C49.5684 64.0618 49.3809 63.1733 49.3809 62.1548C49.3809 61.1491 49.5684 60.2628 49.9434 59.4957C50.3226 58.7287 50.851 58.13 51.5286 57.6996C52.2104 57.2692 53.0073 57.054 53.9192 57.054C54.4732 57.054 55.0101 57.1456 55.53 57.3288C56.0499 57.5121 56.5165 57.7997 56.9299 58.1918C57.3432 58.5838 57.6692 59.093 57.9078 59.7195C58.1465 60.3416 58.2658 61.098 58.2658 61.9886V62.6662H50.4611V61.2344H56.3929C56.3929 60.7315 56.2907 60.2862 56.0861 59.8984C55.8816 59.5064 55.5939 59.1974 55.2232 58.9716C54.8567 58.7457 54.4263 58.6328 53.932 58.6328C53.3951 58.6328 52.9263 58.7649 52.5257 59.0291C52.1294 59.2891 51.8226 59.63 51.6053 60.0518C51.3922 60.4695 51.2857 60.9233 51.2857 61.4134V62.532C51.2857 63.1882 51.4007 63.7464 51.6309 64.2067C51.8652 64.6669 52.1912 65.0185 52.6088 65.2614C53.0265 65.5 53.5144 65.6193 54.0726 65.6193C54.4348 65.6193 54.7651 65.5682 55.0634 65.4659C55.3617 65.3594 55.6195 65.2017 55.8368 64.9929C56.0542 64.7841 56.2203 64.5263 56.3354 64.2195L58.1444 64.5455C57.9995 65.0781 57.7395 65.5447 57.3645 65.9453C56.9938 66.3416 56.5272 66.6506 55.9647 66.8722C55.4064 67.0895 54.7694 67.1982 54.0534 67.1982ZM62.2976 61.1705V67H60.3864V57.1818H62.2209V58.7798H62.3423C62.5682 58.2599 62.9219 57.8423 63.4034 57.527C63.8892 57.2116 64.5007 57.054 65.2379 57.054C65.907 57.054 66.4929 57.1946 66.9957 57.4759C67.4986 57.7528 67.8885 58.1662 68.1655 58.7159C68.4425 59.2656 68.581 59.9453 68.581 60.755V67H66.6697V60.9851C66.6697 60.2734 66.4844 59.7173 66.1136 59.3168C65.7429 58.9119 65.2337 58.7095 64.5859 58.7095C64.1428 58.7095 63.7486 58.8054 63.4034 58.9972C63.0625 59.1889 62.7919 59.4702 62.5916 59.8409C62.3956 60.2074 62.2976 60.6506 62.2976 61.1705ZM74.8196 67.1918C74.027 67.1918 73.3196 66.9893 72.6974 66.5845C72.0795 66.1754 71.5938 65.5937 71.2401 64.8395C70.8906 64.081 70.7159 63.1712 70.7159 62.1101C70.7159 61.049 70.8928 60.1413 71.2464 59.3871C71.6044 58.6328 72.0945 58.0554 72.7166 57.6548C73.3388 57.2543 74.044 57.054 74.8324 57.054C75.4418 57.054 75.9318 57.1562 76.3026 57.3608C76.6776 57.5611 76.9673 57.7955 77.1719 58.0639C77.3807 58.3324 77.5426 58.5689 77.6577 58.7734H77.7727V53.9091H79.6839V67H77.8175V65.4723H77.6577C77.5426 65.6811 77.3764 65.9197 77.1591 66.1882C76.946 66.4567 76.652 66.6911 76.277 66.8913C75.902 67.0916 75.4162 67.1918 74.8196 67.1918ZM75.2415 65.5618C75.7912 65.5618 76.2557 65.4169 76.6349 65.1271C77.0185 64.8331 77.3082 64.4261 77.5043 63.9062C77.7045 63.3864 77.8047 62.7812 77.8047 62.0909C77.8047 61.4091 77.7067 60.8125 77.5107 60.3011C77.3146 59.7898 77.027 59.3913 76.6477 59.1058C76.2685 58.8203 75.7997 58.6776 75.2415 58.6776C74.6662 58.6776 74.1868 58.8267 73.8033 59.125C73.4197 59.4233 73.13 59.8303 72.9339 60.3459C72.7422 60.8615 72.6463 61.4432 72.6463 62.0909C72.6463 62.7472 72.7443 63.3374 72.9403 63.8615C73.1364 64.3857 73.4261 64.8011 73.8097 65.108C74.1974 65.4105 74.6747 65.5618 75.2415 65.5618ZM95.3317 66.4183L94.1811 65.2805L98.1761 61.2855H88.1406V59.6236H98.1761L94.1811 55.6349L95.3317 54.4908L101.295 60.4545L95.3317 66.4183ZM116.406 57.348C116.338 56.7429 116.057 56.2741 115.562 55.9418C115.068 55.6051 114.446 55.4368 113.696 55.4368C113.159 55.4368 112.695 55.522 112.303 55.6925C111.911 55.8587 111.606 56.0888 111.388 56.3828C111.175 56.6726 111.069 57.0028 111.069 57.3736C111.069 57.6847 111.141 57.9531 111.286 58.179C111.435 58.4048 111.629 58.5945 111.868 58.7479C112.111 58.897 112.371 59.0227 112.648 59.125C112.925 59.223 113.191 59.304 113.447 59.3679L114.725 59.7003C115.143 59.8026 115.571 59.9411 116.01 60.1158C116.449 60.2905 116.856 60.5206 117.231 60.8061C117.606 61.0916 117.908 61.4453 118.138 61.8672C118.373 62.2891 118.49 62.794 118.49 63.3821C118.49 64.1236 118.298 64.782 117.915 65.3572C117.536 65.9325 116.984 66.3864 116.259 66.7188C115.539 67.0511 114.668 67.2173 113.645 67.2173C112.665 67.2173 111.817 67.0618 111.101 66.7507C110.385 66.4396 109.825 65.9986 109.42 65.4276C109.015 64.8523 108.791 64.1705 108.749 63.3821H110.73C110.768 63.8551 110.922 64.2493 111.19 64.5646C111.463 64.8757 111.81 65.108 112.232 65.2614C112.658 65.4105 113.125 65.4851 113.632 65.4851C114.19 65.4851 114.687 65.3977 115.121 65.223C115.56 65.044 115.906 64.7969 116.157 64.4815C116.408 64.1619 116.534 63.7891 116.534 63.3629C116.534 62.9751 116.423 62.6577 116.202 62.4105C115.984 62.1634 115.688 61.9588 115.313 61.7969C114.942 61.6349 114.523 61.4922 114.054 61.3686L112.507 60.9467C111.459 60.6612 110.628 60.2415 110.014 59.6875C109.405 59.1335 109.1 58.4006 109.1 57.4886C109.1 56.7344 109.305 56.076 109.714 55.5135C110.123 54.951 110.677 54.5142 111.376 54.2031C112.075 53.8878 112.863 53.7301 113.741 53.7301C114.627 53.7301 115.409 53.8857 116.087 54.1967C116.768 54.5078 117.305 54.9361 117.697 55.4815C118.089 56.0227 118.294 56.6449 118.311 57.348H116.406ZM126.916 62.9283V57.1818H128.834V67H126.955V65.2997H126.852C126.627 65.8239 126.264 66.2607 125.766 66.6101C125.271 66.9553 124.656 67.1278 123.919 67.1278C123.288 67.1278 122.73 66.9893 122.244 66.7124C121.762 66.4311 121.383 66.0156 121.106 65.4659C120.833 64.9162 120.697 64.2365 120.697 63.4268V57.1818H122.608V63.1967C122.608 63.8658 122.794 64.3984 123.164 64.7947C123.535 65.1911 124.017 65.3892 124.609 65.3892C124.967 65.3892 125.323 65.2997 125.676 65.1207C126.034 64.9418 126.33 64.6712 126.565 64.3089C126.803 63.9467 126.921 63.4865 126.916 62.9283ZM131.555 67V53.9091H133.467V58.7734H133.582C133.692 58.5689 133.852 58.3324 134.061 58.0639C134.27 57.7955 134.56 57.5611 134.93 57.3608C135.301 57.1562 135.791 57.054 136.401 57.054C137.193 57.054 137.901 57.2543 138.523 57.6548C139.145 58.0554 139.633 58.6328 139.987 59.3871C140.344 60.1413 140.523 61.049 140.523 62.1101C140.523 63.1712 140.347 64.081 139.993 64.8395C139.639 65.5937 139.153 66.1754 138.536 66.5845C137.918 66.9893 137.212 67.1918 136.42 67.1918C135.823 67.1918 135.335 67.0916 134.956 66.8913C134.581 66.6911 134.287 66.4567 134.074 66.1882C133.861 65.9197 133.697 65.6811 133.582 65.4723H133.422V67H131.555ZM133.428 62.0909C133.428 62.7812 133.528 63.3864 133.729 63.9062C133.929 64.4261 134.219 64.8331 134.598 65.1271C134.977 65.4169 135.442 65.5618 135.991 65.5618C136.562 65.5618 137.04 65.4105 137.423 65.108C137.807 64.8011 138.097 64.3857 138.293 63.8615C138.493 63.3374 138.593 62.7472 138.593 62.0909C138.593 61.4432 138.495 60.8615 138.299 60.3459C138.107 59.8303 137.817 59.4233 137.43 59.125C137.046 58.8267 136.567 58.6776 135.991 58.6776C135.438 58.6776 134.969 58.8203 134.585 59.1058C134.206 59.3913 133.918 59.7898 133.722 60.3011C133.526 60.8125 133.428 61.4091 133.428 62.0909ZM142.67 67V57.1818H144.504V58.7798H144.626C144.83 58.2386 145.165 57.8168 145.629 57.5142C146.094 57.2074 146.65 57.054 147.297 57.054C147.954 57.054 148.503 57.2074 148.947 57.5142C149.394 57.821 149.724 58.2429 149.937 58.7798H150.04C150.274 58.2557 150.647 57.8381 151.158 57.527C151.67 57.2116 152.279 57.054 152.986 57.054C153.877 57.054 154.604 57.3331 155.166 57.8913C155.733 58.4496 156.016 59.2912 156.016 60.4162V67H154.105V60.5952C154.105 59.9304 153.924 59.4489 153.562 59.1506C153.199 58.8523 152.767 58.7031 152.264 58.7031C151.642 58.7031 151.158 58.8949 150.813 59.2784C150.468 59.6577 150.295 60.1456 150.295 60.7422V67H148.39V60.4737C148.39 59.9411 148.224 59.5128 147.892 59.1889C147.559 58.8651 147.127 58.7031 146.594 58.7031C146.232 58.7031 145.898 58.799 145.591 58.9908C145.288 59.1783 145.043 59.4403 144.856 59.777C144.672 60.1136 144.581 60.5036 144.581 60.9467V67H142.67ZM158.578 67V57.1818H160.489V67H158.578ZM159.543 55.6669C159.211 55.6669 158.925 55.5561 158.686 55.3345C158.452 55.1087 158.335 54.8402 158.335 54.5291C158.335 54.2138 158.452 53.9453 158.686 53.7237C158.925 53.4979 159.211 53.3849 159.543 53.3849C159.875 53.3849 160.159 53.4979 160.393 53.7237C160.632 53.9453 160.751 54.2138 160.751 54.5291C160.751 54.8402 160.632 55.1087 160.393 55.3345C160.159 55.5561 159.875 55.6669 159.543 55.6669ZM167.643 57.1818V58.7159H162.28V57.1818H167.643ZM163.719 54.8295H165.63V64.1172C165.63 64.4879 165.685 64.767 165.796 64.9545C165.907 65.1378 166.05 65.2635 166.224 65.3317C166.403 65.3956 166.597 65.4276 166.806 65.4276C166.959 65.4276 167.094 65.4169 167.209 65.3956C167.324 65.3743 167.413 65.3572 167.477 65.3445L167.822 66.9233C167.711 66.9659 167.554 67.0085 167.349 67.0511C167.145 67.098 166.889 67.1236 166.582 67.1278C166.079 67.1364 165.611 67.0469 165.176 66.8594C164.741 66.6719 164.39 66.3821 164.121 65.9901C163.853 65.598 163.719 65.1058 163.719 64.5135V54.8295ZM181.878 59.5788L180.146 59.8857C180.074 59.6641 179.959 59.4531 179.801 59.2528C179.648 59.0526 179.439 58.8885 179.175 58.7607C178.91 58.6328 178.58 58.5689 178.184 58.5689C177.643 58.5689 177.191 58.6903 176.829 58.9332C176.466 59.1719 176.285 59.4808 176.285 59.8601C176.285 60.1882 176.407 60.4524 176.65 60.6527C176.893 60.853 177.285 61.017 177.826 61.1449L179.385 61.5028C180.289 61.7116 180.962 62.0334 181.405 62.468C181.849 62.9027 182.07 63.4673 182.07 64.1619C182.07 64.75 181.9 65.2741 181.559 65.7344C181.222 66.1903 180.751 66.5483 180.146 66.8082C179.545 67.0682 178.849 67.1982 178.056 67.1982C176.956 67.1982 176.059 66.9638 175.365 66.495C174.67 66.022 174.244 65.3509 174.086 64.4815L175.934 64.2003C176.049 64.6818 176.285 65.0462 176.643 65.2933C177.001 65.5362 177.468 65.6577 178.043 65.6577C178.67 65.6577 179.17 65.5277 179.545 65.2678C179.92 65.0036 180.108 64.6818 180.108 64.3026C180.108 63.9957 179.993 63.7379 179.763 63.5291C179.537 63.3203 179.189 63.1626 178.721 63.0561L177.059 62.6918C176.143 62.483 175.465 62.1506 175.026 61.6946C174.591 61.2386 174.374 60.6612 174.374 59.9624C174.374 59.3828 174.536 58.8757 174.86 58.4411C175.184 58.0064 175.631 57.6676 176.202 57.4247C176.773 57.1776 177.427 57.054 178.165 57.054C179.226 57.054 180.061 57.2841 180.67 57.7443C181.28 58.2003 181.682 58.8118 181.878 59.5788ZM188.403 67.1982C187.436 67.1982 186.603 66.9915 185.904 66.5781C185.209 66.1605 184.672 65.5746 184.293 64.8203C183.918 64.0618 183.73 63.1733 183.73 62.1548C183.73 61.1491 183.918 60.2628 184.293 59.4957C184.672 58.7287 185.201 58.13 185.878 57.6996C186.56 57.2692 187.357 57.054 188.269 57.054C188.823 57.054 189.36 57.1456 189.88 57.3288C190.4 57.5121 190.866 57.7997 191.279 58.1918C191.693 58.5838 192.019 59.093 192.257 59.7195C192.496 60.3416 192.615 61.098 192.615 61.9886V62.6662H184.811V61.2344H190.743C190.743 60.7315 190.64 60.2862 190.436 59.8984C190.231 59.5064 189.944 59.1974 189.573 58.9716C189.206 58.7457 188.776 58.6328 188.282 58.6328C187.745 58.6328 187.276 58.7649 186.875 59.0291C186.479 59.2891 186.172 59.63 185.955 60.0518C185.742 60.4695 185.635 60.9233 185.635 61.4134V62.532C185.635 63.1882 185.75 63.7464 185.98 64.2067C186.215 64.6669 186.541 65.0185 186.958 65.2614C187.376 65.5 187.864 65.6193 188.422 65.6193C188.784 65.6193 189.115 65.5682 189.413 65.4659C189.711 65.3594 189.969 65.2017 190.186 64.9929C190.404 64.7841 190.57 64.5263 190.685 64.2195L192.494 64.5455C192.349 65.0781 192.089 65.5447 191.714 65.9453C191.343 66.3416 190.877 66.6506 190.314 66.8722C189.756 67.0895 189.119 67.1982 188.403 67.1982ZM196.647 53.9091V67H194.736V53.9091H196.647ZM203.45 67.1982C202.483 67.1982 201.65 66.9915 200.951 66.5781C200.256 66.1605 199.719 65.5746 199.34 64.8203C198.965 64.0618 198.777 63.1733 198.777 62.1548C198.777 61.1491 198.965 60.2628 199.34 59.4957C199.719 58.7287 200.248 58.13 200.925 57.6996C201.607 57.2692 202.404 57.054 203.316 57.054C203.87 57.054 204.407 57.1456 204.926 57.3288C205.446 57.5121 205.913 57.7997 206.326 58.1918C206.74 58.5838 207.066 59.093 207.304 59.7195C207.543 60.3416 207.662 61.098 207.662 61.9886V62.6662H199.858V61.2344H205.789C205.789 60.7315 205.687 60.2862 205.483 59.8984C205.278 59.5064 204.99 59.1974 204.62 58.9716C204.253 58.7457 203.823 58.6328 203.328 58.6328C202.792 58.6328 202.323 58.7649 201.922 59.0291C201.526 59.2891 201.219 59.63 201.002 60.0518C200.789 60.4695 200.682 60.9233 200.682 61.4134V62.532C200.682 63.1882 200.797 63.7464 201.027 64.2067C201.262 64.6669 201.588 65.0185 202.005 65.2614C202.423 65.5 202.911 65.6193 203.469 65.6193C203.831 65.6193 204.162 65.5682 204.46 65.4659C204.758 65.3594 205.016 65.2017 205.233 64.9929C205.451 64.7841 205.617 64.5263 205.732 64.2195L207.541 64.5455C207.396 65.0781 207.136 65.5447 206.761 65.9453C206.39 66.3416 205.924 66.6506 205.361 66.8722C204.803 67.0895 204.166 67.1982 203.45 67.1982ZM213.919 67.1982C212.968 67.1982 212.15 66.983 211.464 66.5526C210.782 66.1179 210.258 65.5192 209.892 64.7564C209.525 63.9936 209.342 63.12 209.342 62.1357C209.342 61.1385 209.529 60.2585 209.904 59.4957C210.279 58.7287 210.808 58.13 211.49 57.6996C212.171 57.2692 212.975 57.054 213.899 57.054C214.645 57.054 215.31 57.1925 215.894 57.4695C216.477 57.7422 216.948 58.1257 217.306 58.62C217.669 59.1143 217.884 59.6918 217.952 60.3523H216.092C215.99 59.892 215.755 59.4957 215.389 59.1634C215.026 58.831 214.541 58.6648 213.931 58.6648C213.399 58.6648 212.932 58.8054 212.531 59.0866C212.135 59.3636 211.826 59.7599 211.605 60.2756C211.383 60.7869 211.272 61.392 211.272 62.0909C211.272 62.8068 211.381 63.4247 211.598 63.9446C211.816 64.4645 212.122 64.8672 212.519 65.1527C212.919 65.4382 213.39 65.581 213.931 65.581C214.294 65.581 214.622 65.5149 214.916 65.3828C215.214 65.2464 215.463 65.0526 215.664 64.8011C215.868 64.5497 216.011 64.2472 216.092 63.8935H217.952C217.884 64.5284 217.677 65.0952 217.332 65.5938C216.987 66.0923 216.524 66.4844 215.945 66.7699C215.369 67.0554 214.694 67.1982 213.919 67.1982ZM224.579 57.1818V58.7159H219.216V57.1818H224.579ZM220.654 54.8295H222.565V64.1172C222.565 64.4879 222.621 64.767 222.732 64.9545C222.842 65.1378 222.985 65.2635 223.16 65.3317C223.339 65.3956 223.533 65.4276 223.741 65.4276C223.895 65.4276 224.029 65.4169 224.144 65.3956C224.259 65.3743 224.349 65.3572 224.413 65.3445L224.758 66.9233C224.647 66.9659 224.489 67.0085 224.285 67.0511C224.08 67.098 223.825 67.1236 223.518 67.1278C223.015 67.1364 222.546 67.0469 222.112 66.8594C221.677 66.6719 221.325 66.3821 221.057 65.9901C220.788 65.598 220.654 65.1058 220.654 64.5135V54.8295ZM226.693 67V57.1818H228.604V67H226.693ZM227.658 55.6669C227.326 55.6669 227.04 55.5561 226.802 55.3345C226.567 55.1087 226.45 54.8402 226.45 54.5291C226.45 54.2138 226.567 53.9453 226.802 53.7237C227.04 53.4979 227.326 53.3849 227.658 53.3849C227.991 53.3849 228.274 53.4979 228.508 53.7237C228.747 53.9453 228.866 54.2138 228.866 54.5291C228.866 54.8402 228.747 55.1087 228.508 55.3345C228.274 55.5561 227.991 55.6669 227.658 55.6669ZM235.311 67.1982C234.391 67.1982 233.587 66.9872 232.901 66.5653C232.215 66.1435 231.683 65.5533 231.303 64.7947C230.924 64.0362 230.734 63.1499 230.734 62.1357C230.734 61.1172 230.924 60.2266 231.303 59.4638C231.683 58.701 232.215 58.1087 232.901 57.6868C233.587 57.2649 234.391 57.054 235.311 57.054C236.232 57.054 237.035 57.2649 237.721 57.6868C238.407 58.1087 238.94 58.701 239.319 59.4638C239.698 60.2266 239.888 61.1172 239.888 62.1357C239.888 63.1499 239.698 64.0362 239.319 64.7947C238.94 65.5533 238.407 66.1435 237.721 66.5653C237.035 66.9872 236.232 67.1982 235.311 67.1982ZM235.317 65.5938C235.914 65.5938 236.408 65.4361 236.8 65.1207C237.192 64.8054 237.482 64.3857 237.67 63.8615C237.862 63.3374 237.957 62.7599 237.957 62.1293C237.957 61.5028 237.862 60.9276 237.67 60.4034C237.482 59.875 237.192 59.451 236.8 59.1314C236.408 58.8118 235.914 58.652 235.317 58.652C234.717 58.652 234.218 58.8118 233.822 59.1314C233.43 59.451 233.138 59.875 232.946 60.4034C232.759 60.9276 232.665 61.5028 232.665 62.1293C232.665 62.7599 232.759 63.3374 232.946 63.8615C233.138 64.3857 233.43 64.8054 233.822 65.1207C234.218 65.4361 234.717 65.5938 235.317 65.5938ZM243.932 61.1705V67H242.021V57.1818H243.856V58.7798H243.977C244.203 58.2599 244.557 57.8423 245.038 57.527C245.524 57.2116 246.135 57.054 246.873 57.054C247.542 57.054 248.128 57.1946 248.631 57.4759C249.133 57.7528 249.523 58.1662 249.8 58.7159C250.077 59.2656 250.216 59.9453 250.216 60.755V67H248.305V60.9851C248.305 60.2734 248.119 59.7173 247.748 59.3168C247.378 58.9119 246.868 58.7095 246.221 58.7095C245.778 58.7095 245.383 58.8054 245.038 58.9972C244.697 59.1889 244.427 59.4702 244.226 59.8409C244.03 60.2074 243.932 60.6506 243.932 61.1705ZM262.126 57.1818V58.7159H256.763V57.1818H262.126ZM258.201 54.8295H260.112V64.1172C260.112 64.4879 260.168 64.767 260.278 64.9545C260.389 65.1378 260.532 65.2635 260.707 65.3317C260.886 65.3956 261.08 65.4276 261.288 65.4276C261.442 65.4276 261.576 65.4169 261.691 65.3956C261.806 65.3743 261.896 65.3572 261.96 65.3445L262.305 66.9233C262.194 66.9659 262.036 67.0085 261.832 67.0511C261.627 67.098 261.371 67.1236 261.065 67.1278C260.562 67.1364 260.093 67.0469 259.658 66.8594C259.224 66.6719 258.872 66.3821 258.604 65.9901C258.335 65.598 258.201 65.1058 258.201 64.5135V54.8295ZM268.27 67.1982C267.35 67.1982 266.546 66.9872 265.86 66.5653C265.174 66.1435 264.642 65.5533 264.262 64.7947C263.883 64.0362 263.693 63.1499 263.693 62.1357C263.693 61.1172 263.883 60.2266 264.262 59.4638C264.642 58.701 265.174 58.1087 265.86 57.6868C266.546 57.2649 267.35 57.054 268.27 57.054C269.191 57.054 269.994 57.2649 270.68 57.6868C271.366 58.1087 271.899 58.701 272.278 59.4638C272.657 60.2266 272.847 61.1172 272.847 62.1357C272.847 63.1499 272.657 64.0362 272.278 64.7947C271.899 65.5533 271.366 66.1435 270.68 66.5653C269.994 66.9872 269.191 67.1982 268.27 67.1982ZM268.276 65.5938C268.873 65.5938 269.367 65.4361 269.759 65.1207C270.151 64.8054 270.441 64.3857 270.629 63.8615C270.82 63.3374 270.916 62.7599 270.916 62.1293C270.916 61.5028 270.82 60.9276 270.629 60.4034C270.441 59.875 270.151 59.451 269.759 59.1314C269.367 58.8118 268.873 58.652 268.276 58.652C267.676 58.652 267.177 58.8118 266.781 59.1314C266.389 59.451 266.097 59.875 265.905 60.4034C265.718 60.9276 265.624 61.5028 265.624 62.1293C265.624 62.7599 265.718 63.3374 265.905 63.8615C266.097 64.3857 266.389 64.8054 266.781 65.1207C267.177 65.4361 267.676 65.5938 268.276 65.5938ZM283.879 67.1982C282.929 67.1982 282.111 66.983 281.425 66.5526C280.743 66.1179 280.219 65.5192 279.852 64.7564C279.486 63.9936 279.303 63.12 279.303 62.1357C279.303 61.1385 279.49 60.2585 279.865 59.4957C280.24 58.7287 280.769 58.13 281.45 57.6996C282.132 57.2692 282.936 57.054 283.86 57.054C284.606 57.054 285.271 57.1925 285.855 57.4695C286.438 57.7422 286.909 58.1257 287.267 58.62C287.629 59.1143 287.845 59.6918 287.913 60.3523H286.053C285.95 59.892 285.716 59.4957 285.35 59.1634C284.987 58.831 284.502 58.6648 283.892 58.6648C283.36 58.6648 282.893 58.8054 282.492 59.0866C282.096 59.3636 281.787 59.7599 281.566 60.2756C281.344 60.7869 281.233 61.392 281.233 62.0909C281.233 62.8068 281.342 63.4247 281.559 63.9446C281.776 64.4645 282.083 64.8672 282.48 65.1527C282.88 65.4382 283.351 65.581 283.892 65.581C284.254 65.581 284.583 65.5149 284.877 65.3828C285.175 65.2464 285.424 65.0526 285.624 64.8011C285.829 64.5497 285.972 64.2472 286.053 63.8935H287.913C287.845 64.5284 287.638 65.0952 287.293 65.5938C286.948 66.0923 286.485 66.4844 285.906 66.7699C285.33 67.0554 284.655 67.1982 283.879 67.1982ZM294.092 67.1982C293.172 67.1982 292.369 66.9872 291.683 66.5653C290.996 66.1435 290.464 65.5533 290.085 64.7947C289.705 64.0362 289.516 63.1499 289.516 62.1357C289.516 61.1172 289.705 60.2266 290.085 59.4638C290.464 58.701 290.996 58.1087 291.683 57.6868C292.369 57.2649 293.172 57.054 294.092 57.054C295.013 57.054 295.816 57.2649 296.502 57.6868C297.188 58.1087 297.721 58.701 298.1 59.4638C298.479 60.2266 298.669 61.1172 298.669 62.1357C298.669 63.1499 298.479 64.0362 298.1 64.7947C297.721 65.5533 297.188 66.1435 296.502 66.5653C295.816 66.9872 295.013 67.1982 294.092 67.1982ZM294.099 65.5938C294.695 65.5938 295.19 65.4361 295.582 65.1207C295.974 64.8054 296.263 64.3857 296.451 63.8615C296.643 63.3374 296.739 62.7599 296.739 62.1293C296.739 61.5028 296.643 60.9276 296.451 60.4034C296.263 59.875 295.974 59.451 295.582 59.1314C295.19 58.8118 294.695 58.652 294.099 58.652C293.498 58.652 292.999 58.8118 292.603 59.1314C292.211 59.451 291.919 59.875 291.727 60.4034C291.54 60.9276 291.446 61.5028 291.446 62.1293C291.446 62.7599 291.54 63.3374 291.727 63.8615C291.919 64.3857 292.211 64.8054 292.603 65.1207C292.999 65.4361 293.498 65.5938 294.099 65.5938ZM300.802 67V57.1818H302.637V58.7798H302.758C302.963 58.2386 303.297 57.8168 303.762 57.5142C304.226 57.2074 304.782 57.054 305.43 57.054C306.086 57.054 306.636 57.2074 307.079 57.5142C307.527 57.821 307.857 58.2429 308.07 58.7798H308.172C308.407 58.2557 308.78 57.8381 309.291 57.527C309.802 57.2116 310.412 57.054 311.119 57.054C312.01 57.054 312.736 57.3331 313.299 57.8913C313.866 58.4496 314.149 59.2912 314.149 60.4162V67H312.238V60.5952C312.238 59.9304 312.057 59.4489 311.694 59.1506C311.332 58.8523 310.9 58.7031 310.397 58.7031C309.775 58.7031 309.291 58.8949 308.946 59.2784C308.601 59.6577 308.428 60.1456 308.428 60.7422V67H306.523V60.4737C306.523 59.9411 306.357 59.5128 306.025 59.1889C305.692 58.8651 305.26 58.7031 304.727 58.7031C304.365 58.7031 304.03 58.799 303.724 58.9908C303.421 59.1783 303.176 59.4403 302.988 59.777C302.805 60.1136 302.714 60.5036 302.714 60.9467V67H300.802ZM316.711 70.6818V57.1818H318.577V58.7734H318.737C318.848 58.5689 319.007 58.3324 319.216 58.0639C319.425 57.7955 319.715 57.5611 320.086 57.3608C320.456 57.1562 320.946 57.054 321.556 57.054C322.348 57.054 323.056 57.2543 323.678 57.6548C324.3 58.0554 324.788 58.6328 325.142 59.3871C325.5 60.1413 325.679 61.049 325.679 62.1101C325.679 63.1712 325.502 64.081 325.148 64.8395C324.794 65.5937 324.309 66.1754 323.691 66.5845C323.073 66.9893 322.368 67.1918 321.575 67.1918C320.978 67.1918 320.49 67.0916 320.111 66.8913C319.736 66.6911 319.442 66.4567 319.229 66.1882C319.016 65.9197 318.852 65.6811 318.737 65.4723H318.622V70.6818H316.711ZM318.583 62.0909C318.583 62.7812 318.684 63.3864 318.884 63.9062C319.084 64.4261 319.374 64.8331 319.753 65.1271C320.132 65.4169 320.597 65.5618 321.147 65.5618C321.718 65.5618 322.195 65.4105 322.578 65.108C322.962 64.8011 323.252 64.3857 323.448 63.8615C323.648 63.3374 323.748 62.7472 323.748 62.0909C323.748 61.4432 323.65 60.8615 323.454 60.3459C323.262 59.8303 322.973 59.4233 322.585 59.125C322.201 58.8267 321.722 58.6776 321.147 58.6776C320.593 58.6776 320.124 58.8203 319.74 59.1058C319.361 59.3913 319.074 59.7898 318.877 60.3011C318.681 60.8125 318.583 61.4091 318.583 62.0909ZM329.731 53.9091V67H327.82V53.9091H329.731ZM336.534 67.1982C335.567 67.1982 334.733 66.9915 334.035 66.5781C333.34 66.1605 332.803 65.5746 332.424 64.8203C332.049 64.0618 331.861 63.1733 331.861 62.1548C331.861 61.1491 332.049 60.2628 332.424 59.4957C332.803 58.7287 333.331 58.13 334.009 57.6996C334.691 57.2692 335.488 57.054 336.4 57.054C336.954 57.054 337.491 57.1456 338.01 57.3288C338.53 57.5121 338.997 57.7997 339.41 58.1918C339.824 58.5838 340.15 59.093 340.388 59.7195C340.627 60.3416 340.746 61.098 340.746 61.9886V62.6662H332.942V61.2344H338.873C338.873 60.7315 338.771 60.2862 338.567 59.8984C338.362 59.5064 338.074 59.1974 337.704 58.9716C337.337 58.7457 336.907 58.6328 336.412 58.6328C335.876 58.6328 335.407 58.7649 335.006 59.0291C334.61 59.2891 334.303 59.63 334.086 60.0518C333.873 60.4695 333.766 60.9233 333.766 61.4134V62.532C333.766 63.1882 333.881 63.7464 334.111 64.2067C334.346 64.6669 334.672 65.0185 335.089 65.2614C335.507 65.5 335.995 65.6193 336.553 65.6193C336.915 65.6193 337.246 65.5682 337.544 65.4659C337.842 65.3594 338.1 65.2017 338.317 64.9929C338.535 64.7841 338.701 64.5263 338.816 64.2195L340.625 64.5455C340.48 65.0781 340.22 65.5447 339.845 65.9453C339.474 66.3416 339.008 66.6506 338.445 66.8722C337.887 67.0895 337.25 67.1982 336.534 67.1982ZM347.45 57.1818V58.7159H342.087V57.1818H347.45ZM343.525 54.8295H345.436V64.1172C345.436 64.4879 345.492 64.767 345.603 64.9545C345.713 65.1378 345.856 65.2635 346.031 65.3317C346.21 65.3956 346.404 65.4276 346.613 65.4276C346.766 65.4276 346.9 65.4169 347.015 65.3956C347.13 65.3743 347.22 65.3572 347.284 65.3445L347.629 66.9233C347.518 66.9659 347.36 67.0085 347.156 67.0511C346.951 67.098 346.696 67.1236 346.389 67.1278C345.886 67.1364 345.417 67.0469 344.983 66.8594C344.548 66.6719 344.196 66.3821 343.928 65.9901C343.659 65.598 343.525 65.1058 343.525 64.5135V54.8295ZM353.69 67.1982C352.723 67.1982 351.89 66.9915 351.191 66.5781C350.496 66.1605 349.959 65.5746 349.58 64.8203C349.205 64.0618 349.018 63.1733 349.018 62.1548C349.018 61.1491 349.205 60.2628 349.58 59.4957C349.959 58.7287 350.488 58.13 351.165 57.6996C351.847 57.2692 352.644 57.054 353.556 57.054C354.11 57.054 354.647 57.1456 355.167 57.3288C355.687 57.5121 356.153 57.7997 356.567 58.1918C356.98 58.5838 357.306 59.093 357.545 59.7195C357.783 60.3416 357.903 61.098 357.903 61.9886V62.6662H350.098V61.2344H356.03C356.03 60.7315 355.927 60.2862 355.723 59.8984C355.518 59.5064 355.231 59.1974 354.86 58.9716C354.493 58.7457 354.063 58.6328 353.569 58.6328C353.032 58.6328 352.563 58.7649 352.162 59.0291C351.766 59.2891 351.459 59.63 351.242 60.0518C351.029 60.4695 350.922 60.9233 350.922 61.4134V62.532C350.922 63.1882 351.037 63.7464 351.268 64.2067C351.502 64.6669 351.828 65.0185 352.246 65.2614C352.663 65.5 353.151 65.6193 353.709 65.6193C354.072 65.6193 354.402 65.5682 354.7 65.4659C354.998 65.3594 355.256 65.2017 355.474 64.9929C355.691 64.7841 355.857 64.5263 355.972 64.2195L357.781 64.5455C357.636 65.0781 357.376 65.5447 357.001 65.9453C356.631 66.3416 356.164 66.6506 355.601 66.8722C355.043 67.0895 354.406 67.1982 353.69 67.1982ZM369.37 57.1818V58.7159H364.007V57.1818H369.37ZM365.445 54.8295H367.356V64.1172C367.356 64.4879 367.412 64.767 367.523 64.9545C367.633 65.1378 367.776 65.2635 367.951 65.3317C368.13 65.3956 368.324 65.4276 368.532 65.4276C368.686 65.4276 368.82 65.4169 368.935 65.3956C369.05 65.3743 369.14 65.3572 369.204 65.3445L369.549 66.9233C369.438 66.9659 369.28 67.0085 369.076 67.0511C368.871 67.098 368.616 67.1236 368.309 67.1278C367.806 67.1364 367.337 67.0469 366.903 66.8594C366.468 66.6719 366.116 66.3821 365.848 65.9901C365.579 65.598 365.445 65.1058 365.445 64.5135V54.8295ZM373.606 61.1705V67H371.695V53.9091H373.581V58.7798H373.702C373.932 58.2514 374.284 57.8317 374.757 57.5206C375.23 57.2095 375.848 57.054 376.61 57.054C377.284 57.054 377.872 57.1925 378.375 57.4695C378.882 57.7464 379.274 58.1598 379.551 58.7095C379.832 59.255 379.973 59.9368 379.973 60.755V67H378.061V60.9851C378.061 60.2649 377.876 59.7067 377.505 59.3104C377.135 58.9098 376.619 58.7095 375.958 58.7095C375.507 58.7095 375.102 58.8054 374.744 58.9972C374.39 59.1889 374.111 59.4702 373.907 59.8409C373.706 60.2074 373.606 60.6506 373.606 61.1705ZM386.755 67.1982C385.787 67.1982 384.954 66.9915 384.255 66.5781C383.561 66.1605 383.024 65.5746 382.645 64.8203C382.27 64.0618 382.082 63.1733 382.082 62.1548C382.082 61.1491 382.27 60.2628 382.645 59.4957C383.024 58.7287 383.552 58.13 384.23 57.6996C384.912 57.2692 385.708 57.054 386.62 57.054C387.174 57.054 387.711 57.1456 388.231 57.3288C388.751 57.5121 389.218 57.7997 389.631 58.1918C390.044 58.5838 390.37 59.093 390.609 59.7195C390.848 60.3416 390.967 61.098 390.967 61.9886V62.6662H383.162V61.2344H389.094C389.094 60.7315 388.992 60.2862 388.787 59.8984C388.583 59.5064 388.295 59.1974 387.924 58.9716C387.558 58.7457 387.127 58.6328 386.633 58.6328C386.096 58.6328 385.627 58.7649 385.227 59.0291C384.831 59.2891 384.524 59.63 384.306 60.0518C384.093 60.4695 383.987 60.9233 383.987 61.4134V62.532C383.987 63.1882 384.102 63.7464 384.332 64.2067C384.566 64.6669 384.892 65.0185 385.31 65.2614C385.728 65.5 386.216 65.6193 386.774 65.6193C387.136 65.6193 387.466 65.5682 387.765 65.4659C388.063 65.3594 388.321 65.2017 388.538 64.9929C388.755 64.7841 388.922 64.5263 389.037 64.2195L390.846 64.5455C390.701 65.0781 390.441 65.5447 390.066 65.9453C389.695 66.3416 389.228 66.6506 388.666 66.8722C388.108 67.0895 387.471 67.1982 386.755 67.1982ZM397.851 70.6818V57.1818H399.718V58.7734H399.877C399.988 58.5689 400.148 58.3324 400.357 58.0639C400.566 57.7955 400.855 57.5611 401.226 57.3608C401.597 57.1562 402.087 57.054 402.696 57.054C403.489 57.054 404.196 57.2543 404.819 57.6548C405.441 58.0554 405.929 58.6328 406.282 59.3871C406.64 60.1413 406.819 61.049 406.819 62.1101C406.819 63.1712 406.642 64.081 406.289 64.8395C405.935 65.5937 405.449 66.1754 404.831 66.5845C404.213 66.9893 403.508 67.1918 402.716 67.1918C402.119 67.1918 401.631 67.0916 401.252 66.8913C400.877 66.6911 400.583 66.4567 400.37 66.1882C400.157 65.9197 399.993 65.6811 399.877 65.4723H399.762V70.6818H397.851ZM399.724 62.0909C399.724 62.7812 399.824 63.3864 400.025 63.9062C400.225 64.4261 400.515 64.8331 400.894 65.1271C401.273 65.4169 401.738 65.5618 402.287 65.5618C402.858 65.5618 403.336 65.4105 403.719 65.108C404.103 64.8011 404.392 64.3857 404.588 63.8615C404.789 63.3374 404.889 62.7472 404.889 62.0909C404.889 61.4432 404.791 60.8615 404.595 60.3459C404.403 59.8303 404.113 59.4233 403.725 59.125C403.342 58.8267 402.863 58.6776 402.287 58.6776C401.733 58.6776 401.265 58.8203 400.881 59.1058C400.502 59.3913 400.214 59.7898 400.018 60.3011C399.822 60.8125 399.724 61.4091 399.724 62.0909ZM408.961 67V57.1818H410.808V58.7415H410.91C411.089 58.2131 411.404 57.7976 411.856 57.495C412.312 57.1882 412.828 57.0348 413.403 57.0348C413.522 57.0348 413.663 57.0391 413.825 57.0476C413.991 57.0561 414.121 57.0668 414.215 57.0795V58.9077C414.138 58.8864 414.002 58.8629 413.806 58.8374C413.61 58.8075 413.414 58.7926 413.218 58.7926C412.766 58.7926 412.363 58.8885 412.01 59.0803C411.66 59.2678 411.383 59.5298 411.179 59.8665C410.974 60.1989 410.872 60.5781 410.872 61.0043V67H408.961ZM419.653 67.1982C418.732 67.1982 417.929 66.9872 417.243 66.5653C416.557 66.1435 416.024 65.5533 415.645 64.7947C415.266 64.0362 415.076 63.1499 415.076 62.1357C415.076 61.1172 415.266 60.2266 415.645 59.4638C416.024 58.701 416.557 58.1087 417.243 57.6868C417.929 57.2649 418.732 57.054 419.653 57.054C420.573 57.054 421.377 57.2649 422.063 57.6868C422.749 58.1087 423.281 58.701 423.661 59.4638C424.04 60.2266 424.23 61.1172 424.23 62.1357C424.23 63.1499 424.04 64.0362 423.661 64.7947C423.281 65.5533 422.749 66.1435 422.063 66.5653C421.377 66.9872 420.573 67.1982 419.653 67.1982ZM419.659 65.5938C420.256 65.5938 420.75 65.4361 421.142 65.1207C421.534 64.8054 421.824 64.3857 422.012 63.8615C422.203 63.3374 422.299 62.7599 422.299 62.1293C422.299 61.5028 422.203 60.9276 422.012 60.4034C421.824 59.875 421.534 59.451 421.142 59.1314C420.75 58.8118 420.256 58.652 419.659 58.652C419.058 58.652 418.56 58.8118 418.164 59.1314C417.771 59.451 417.48 59.875 417.288 60.4034C417.1 60.9276 417.007 61.5028 417.007 62.1293C417.007 62.7599 417.1 63.3374 417.288 63.8615C417.48 64.3857 417.771 64.8054 418.164 65.1207C418.56 65.4361 419.058 65.5938 419.659 65.5938ZM430.499 67.1982C429.548 67.1982 428.73 66.983 428.044 66.5526C427.362 66.1179 426.838 65.5192 426.472 64.7564C426.105 63.9936 425.922 63.12 425.922 62.1357C425.922 61.1385 426.109 60.2585 426.484 59.4957C426.859 58.7287 427.388 58.13 428.07 57.6996C428.751 57.2692 429.555 57.054 430.479 57.054C431.225 57.054 431.89 57.1925 432.474 57.4695C433.058 57.7422 433.528 58.1257 433.886 58.62C434.249 59.1143 434.464 59.6918 434.532 60.3523H432.672C432.57 59.892 432.335 59.4957 431.969 59.1634C431.607 58.831 431.121 58.6648 430.511 58.6648C429.979 58.6648 429.512 58.8054 429.112 59.0866C428.715 59.3636 428.406 59.7599 428.185 60.2756C427.963 60.7869 427.852 61.392 427.852 62.0909C427.852 62.8068 427.961 63.4247 428.178 63.9446C428.396 64.4645 428.702 64.8672 429.099 65.1527C429.499 65.4382 429.97 65.581 430.511 65.581C430.874 65.581 431.202 65.5149 431.496 65.3828C431.794 65.2464 432.043 65.0526 432.244 64.8011C432.448 64.5497 432.591 64.2472 432.672 63.8935H434.532C434.464 64.5284 434.257 65.0952 433.912 65.5938C433.567 66.0923 433.104 66.4844 432.525 66.7699C431.95 67.0554 431.274 67.1982 430.499 67.1982ZM440.807 67.1982C439.84 67.1982 439.007 66.9915 438.308 66.5781C437.613 66.1605 437.077 65.5746 436.697 64.8203C436.322 64.0618 436.135 63.1733 436.135 62.1548C436.135 61.1491 436.322 60.2628 436.697 59.4957C437.077 58.7287 437.605 58.13 438.282 57.6996C438.964 57.2692 439.761 57.054 440.673 57.054C441.227 57.054 441.764 57.1456 442.284 57.3288C442.804 57.5121 443.27 57.7997 443.684 58.1918C444.097 58.5838 444.423 59.093 444.662 59.7195C444.9 60.3416 445.02 61.098 445.02 61.9886V62.6662H437.215V61.2344H443.147C443.147 60.7315 443.045 60.2862 442.84 59.8984C442.635 59.5064 442.348 59.1974 441.977 58.9716C441.611 58.7457 441.18 58.6328 440.686 58.6328C440.149 58.6328 439.68 58.7649 439.28 59.0291C438.883 59.2891 438.577 59.63 438.359 60.0518C438.146 60.4695 438.04 60.9233 438.04 61.4134V62.532C438.04 63.1882 438.155 63.7464 438.385 64.2067C438.619 64.6669 438.945 65.0185 439.363 65.2614C439.78 65.5 440.268 65.6193 440.827 65.6193C441.189 65.6193 441.519 65.5682 441.817 65.4659C442.116 65.3594 442.373 65.2017 442.591 64.9929C442.808 64.7841 442.974 64.5263 443.089 64.2195L444.898 64.5455C444.753 65.0781 444.493 65.5447 444.118 65.9453C443.748 66.3416 443.281 66.6506 442.719 66.8722C442.16 67.0895 441.523 67.1982 440.807 67.1982ZM454.498 59.5788L452.765 59.8857C452.693 59.6641 452.578 59.4531 452.42 59.2528C452.267 59.0526 452.058 58.8885 451.794 58.7607C451.529 58.6328 451.199 58.5689 450.803 58.5689C450.262 58.5689 449.81 58.6903 449.448 58.9332C449.086 59.1719 448.904 59.4808 448.904 59.8601C448.904 60.1882 449.026 60.4524 449.269 60.6527C449.512 60.853 449.904 61.017 450.445 61.1449L452.005 61.5028C452.908 61.7116 453.581 62.0334 454.025 62.468C454.468 62.9027 454.689 63.4673 454.689 64.1619C454.689 64.75 454.519 65.2741 454.178 65.7344C453.841 66.1903 453.37 66.5483 452.765 66.8082C452.164 67.0682 451.468 67.1982 450.675 67.1982C449.576 67.1982 448.679 66.9638 447.984 66.495C447.289 66.022 446.863 65.3509 446.706 64.4815L448.553 64.2003C448.668 64.6818 448.904 65.0462 449.262 65.2933C449.62 65.5362 450.087 65.6577 450.662 65.6577C451.289 65.6577 451.789 65.5277 452.164 65.2678C452.539 65.0036 452.727 64.6818 452.727 64.3026C452.727 63.9957 452.612 63.7379 452.382 63.5291C452.156 63.3203 451.809 63.1626 451.34 63.0561L449.678 62.6918C448.762 62.483 448.084 62.1506 447.645 61.6946C447.211 61.2386 446.993 60.6612 446.993 59.9624C446.993 59.3828 447.155 58.8757 447.479 58.4411C447.803 58.0064 448.25 57.6676 448.821 57.4247C449.392 57.1776 450.047 57.054 450.784 57.054C451.845 57.054 452.68 57.2841 453.289 57.7443C453.899 58.2003 454.301 58.8118 454.498 59.5788ZM464.148 59.5788L462.416 59.8857C462.343 59.6641 462.228 59.4531 462.07 59.2528C461.917 59.0526 461.708 58.8885 461.444 58.7607C461.18 58.6328 460.85 58.5689 460.453 58.5689C459.912 58.5689 459.46 58.6903 459.098 58.9332C458.736 59.1719 458.555 59.4808 458.555 59.8601C458.555 60.1882 458.676 60.4524 458.919 60.6527C459.162 60.853 459.554 61.017 460.095 61.1449L461.655 61.5028C462.558 61.7116 463.232 62.0334 463.675 62.468C464.118 62.9027 464.34 63.4673 464.34 64.1619C464.34 64.75 464.169 65.2741 463.828 65.7344C463.492 66.1903 463.021 66.5483 462.416 66.8082C461.815 67.0682 461.118 67.1982 460.325 67.1982C459.226 67.1982 458.329 66.9638 457.634 66.495C456.94 66.022 456.514 65.3509 456.356 64.4815L458.203 64.2003C458.318 64.6818 458.555 65.0462 458.913 65.2933C459.271 65.5362 459.737 65.6577 460.313 65.6577C460.939 65.6577 461.44 65.5277 461.815 65.2678C462.19 65.0036 462.377 64.6818 462.377 64.3026C462.377 63.9957 462.262 63.7379 462.032 63.5291C461.806 63.3203 461.459 63.1626 460.99 63.0561L459.328 62.6918C458.412 62.483 457.735 62.1506 457.296 61.6946C456.861 61.2386 456.644 60.6612 456.644 59.9624C456.644 59.3828 456.806 58.8757 457.129 58.4411C457.453 58.0064 457.901 57.6676 458.472 57.4247C459.043 57.1776 459.697 57.054 460.434 57.054C461.495 57.054 462.33 57.2841 462.94 57.7443C463.549 58.2003 463.952 58.8118 464.148 59.5788ZM467.7 67.1214C467.351 67.1214 467.05 66.9979 466.799 66.7507C466.548 66.4993 466.422 66.1967 466.422 65.843C466.422 65.4936 466.548 65.1953 466.799 64.9482C467.05 64.6967 467.351 64.571 467.7 64.571C468.05 64.571 468.35 64.6967 468.602 64.9482C468.853 65.1953 468.979 65.4936 468.979 65.843C468.979 66.0774 468.919 66.2926 468.8 66.4886C468.685 66.6804 468.531 66.8338 468.339 66.9489C468.148 67.0639 467.935 67.1214 467.7 67.1214Z" fill="white"/>
</svg>
