<svg width="660" height="88" viewBox="0 0 660 88" fill="none" xmlns="http://www.w3.org/2000/svg">
<g filter="url(#filter0_d_1144_1145)">
<path d="M34.3003 55.5248C31.5013 55.5248 29.0084 55.0437 26.8216 54.0816C24.6474 53.1069 22.9292 51.7699 21.6672 50.0704C20.4176 48.3585 19.7741 46.3842 19.7366 44.1475H27.9088C27.9587 45.0846 28.2649 45.9094 28.8272 46.6216C29.402 47.3214 30.1642 47.8649 31.1139 48.2523C32.0636 48.6397 33.132 48.8334 34.3191 48.8334C35.5561 48.8334 36.6495 48.6147 37.5992 48.1773C38.5489 47.74 39.2924 47.1339 39.8297 46.3592C40.367 45.5845 40.6357 44.691 40.6357 43.6789C40.6357 42.6542 40.3483 41.7483 39.7735 40.9611C39.2111 40.1613 38.3989 39.5365 37.3368 39.0867C36.2871 38.6369 35.0376 38.4119 33.5881 38.4119H30.008V32.4515H33.5881C34.8127 32.4515 35.8935 32.239 36.8307 31.8142C37.7804 31.3893 38.5176 30.802 39.0425 30.0523C39.5673 29.2901 39.8297 28.4029 39.8297 27.3907C39.8297 26.4285 39.5985 25.5851 39.1362 24.8603C38.6863 24.1231 38.049 23.5483 37.2243 23.1359C36.4121 22.7236 35.4624 22.5174 34.3753 22.5174C33.2757 22.5174 32.2698 22.7173 31.3576 23.1172C30.4454 23.5045 29.7144 24.0606 29.1646 24.7853C28.6148 25.5101 28.3211 26.3598 28.2836 27.3345H20.505C20.5425 25.1227 21.1736 23.1734 22.3982 21.4865C23.6227 19.7996 25.2722 18.4813 27.3465 17.5316C29.4332 16.5694 31.7887 16.0883 34.4128 16.0883C37.0619 16.0883 39.3798 16.5694 41.3667 17.5316C43.3535 18.4937 44.8967 19.7933 45.9963 21.4302C47.1084 23.0547 47.6583 24.8791 47.6458 26.9034C47.6583 29.0526 46.9897 30.8458 45.6402 32.2828C44.3032 33.7198 42.56 34.632 40.4107 35.0193V35.3192C43.2348 35.6816 45.384 36.6625 46.8585 38.262C48.3455 39.8489 49.0828 41.8358 49.0703 44.2224C49.0828 46.4092 48.4517 48.3523 47.1772 50.0517C45.9151 51.7511 44.1719 53.0882 41.9477 54.0628C39.7235 55.0375 37.1743 55.5248 34.3003 55.5248ZM54.9792 55V26.2099H62.7203V31.2331H63.0202C63.545 29.4462 64.4259 28.0967 65.663 27.1845C66.9001 26.2598 68.3246 25.7975 69.9366 25.7975C70.3364 25.7975 70.7675 25.8225 71.2299 25.8725C71.6922 25.9225 72.0983 25.9912 72.4482 26.0787V33.1637C72.0733 33.0513 71.5548 32.9513 70.8925 32.8638C70.2302 32.7764 69.6242 32.7326 69.0744 32.7326C67.8998 32.7326 66.8501 32.9888 65.9254 33.5011C65.0132 34.0009 64.2885 34.7007 63.7512 35.6004C63.2264 36.5001 62.9639 37.5372 62.9639 38.7118V55H54.9792ZM85.8452 55.4686C83.6584 55.4686 81.6779 54.9063 79.9035 53.7817C78.1416 52.6446 76.742 50.9764 75.7049 48.7771C74.6802 46.5654 74.1679 43.8538 74.1679 40.6424C74.1679 37.3435 74.699 34.6007 75.7611 32.414C76.8233 30.2147 78.2353 28.5716 79.9972 27.4844C81.7716 26.3848 83.7147 25.835 85.8264 25.835C87.4384 25.835 88.7817 26.1099 89.8563 26.6597C90.9434 27.197 91.8181 27.8718 92.4804 28.684C93.1552 29.4837 93.6675 30.271 94.0174 31.0457H94.261V16.6131H102.227V55H94.3548V50.3891H94.0174C93.6425 51.1888 93.1114 51.9823 92.4242 52.7695C91.7494 53.5442 90.8685 54.1878 89.7813 54.7001C88.7067 55.2124 87.3946 55.4686 85.8452 55.4686ZM88.3756 49.1145C89.6626 49.1145 90.7497 48.7646 91.6369 48.0649C92.5366 47.3526 93.2239 46.3592 93.6987 45.0846C94.1861 43.8101 94.4297 42.3168 94.4297 40.6049C94.4297 38.893 94.1923 37.406 93.7175 36.144C93.2426 34.8819 92.5554 33.9072 91.6557 33.22C90.756 32.5327 89.6626 32.1891 88.3756 32.1891C87.0635 32.1891 85.9576 32.5452 85.0579 33.2574C84.1583 33.9697 83.4772 34.9569 83.0149 36.2189C82.5526 37.481 82.3214 38.943 82.3214 40.6049C82.3214 42.2794 82.5526 43.7601 83.0149 45.0472C83.4897 46.3217 84.1707 47.3214 85.0579 48.0461C85.9576 48.7584 87.0635 49.1145 88.3756 49.1145ZM126.73 36.069V42.4043H109.223V36.069H126.73ZM150.159 16.6131V55H142.043V24.3168H141.818L133.027 29.8274V22.6298L142.53 16.6131H150.159ZM175.983 16.6131V55H167.867V24.3168H167.642L158.851 29.8274V22.6298L168.354 16.6131H175.983ZM200.495 26.2099V32.2078H183.157V26.2099H200.495ZM187.093 19.3122H195.078V46.153C195.078 46.8903 195.191 47.4651 195.415 47.8774C195.64 48.2773 195.953 48.5585 196.353 48.7209C196.765 48.8833 197.24 48.9646 197.777 48.9646C198.152 48.9646 198.527 48.9333 198.902 48.8708C199.277 48.7959 199.564 48.7396 199.764 48.7022L201.02 54.6439C200.62 54.7688 200.058 54.9125 199.333 55.075C198.608 55.2499 197.727 55.3561 196.69 55.3936C194.766 55.4686 193.079 55.2124 191.629 54.6251C190.192 54.0378 189.074 53.1256 188.274 51.8886C187.474 50.6515 187.081 49.0895 187.093 47.2027V19.3122ZM214.3 38.3557V55H206.315V16.6131H214.075V31.2894H214.412C215.062 29.59 216.112 28.2592 217.561 27.297C219.011 26.3223 220.829 25.835 223.015 25.835C225.015 25.835 226.758 26.2723 228.245 27.147C229.744 28.0092 230.906 29.2526 231.731 30.877C232.568 32.489 232.981 34.4195 232.968 36.6688V55H224.983V38.0933C224.996 36.3189 224.546 34.9381 223.634 33.951C222.734 32.9638 221.472 32.4702 219.848 32.4702C218.761 32.4702 217.798 32.7014 216.961 33.1637C216.136 33.6261 215.487 34.3008 215.012 35.188C214.55 36.0627 214.312 37.1186 214.3 38.3557ZM251.618 55V16.6131H277.034V23.3046H259.734V32.4515H275.347V39.1429H259.734V55H251.618ZM293.351 55.5623C290.389 55.5623 287.84 54.9625 285.703 53.7629C283.579 52.5508 281.942 50.8389 280.792 48.6272C279.643 46.4029 279.068 43.7726 279.068 40.7361C279.068 37.7746 279.643 35.1755 280.792 32.9388C281.942 30.7021 283.56 28.9589 285.647 27.7093C287.746 26.4598 290.208 25.835 293.032 25.835C294.931 25.835 296.7 26.1411 298.336 26.7534C299.986 27.3532 301.423 28.2592 302.647 29.4712C303.885 30.6833 304.847 32.2078 305.534 34.0447C306.221 35.8691 306.565 38.0058 306.565 40.455V42.648H282.254V37.6997H299.049C299.049 36.5501 298.799 35.5317 298.299 34.6445C297.799 33.7573 297.106 33.0638 296.218 32.5639C295.344 32.0516 294.325 31.7954 293.163 31.7954C291.951 31.7954 290.877 32.0766 289.939 32.6389C289.015 33.1887 288.29 33.9322 287.765 34.8694C287.24 35.7941 286.972 36.825 286.959 37.9621V42.6667C286.959 44.0912 287.222 45.3221 287.746 46.3592C288.284 47.3964 289.04 48.1961 290.014 48.7584C290.989 49.3207 292.145 49.6018 293.482 49.6018C294.369 49.6018 295.181 49.4769 295.919 49.227C296.656 48.9771 297.287 48.6022 297.812 48.1024C298.336 47.6025 298.736 46.9902 299.011 46.2655L306.396 46.7528C306.021 48.5272 305.253 50.0767 304.091 51.4012C302.941 52.7133 301.454 53.7379 299.63 54.4752C297.818 55.1999 295.725 55.5623 293.351 55.5623ZM311.926 55V16.6131H319.91V31.0457H320.154C320.504 30.271 321.01 29.4837 321.672 28.684C322.347 27.8718 323.222 27.197 324.296 26.6597C325.383 26.1099 326.733 25.835 328.345 25.835C330.444 25.835 332.381 26.3848 334.155 27.4844C335.93 28.5716 337.348 30.2147 338.41 32.414C339.472 34.6007 340.003 37.3435 340.003 40.6424C340.003 43.8538 339.485 46.5654 338.448 48.7771C337.423 50.9764 336.024 52.6446 334.249 53.7817C332.487 54.9063 330.513 55.4686 328.326 55.4686C326.777 55.4686 325.458 55.2124 324.371 54.7001C323.297 54.1878 322.416 53.5442 321.728 52.7695C321.041 51.9823 320.516 51.1888 320.154 50.3891H319.798V55H311.926ZM319.742 40.6049C319.742 42.3168 319.979 43.8101 320.454 45.0846C320.929 46.3592 321.616 47.3526 322.516 48.0649C323.415 48.7646 324.509 49.1145 325.796 49.1145C327.095 49.1145 328.195 48.7584 329.095 48.0461C329.994 47.3214 330.675 46.3217 331.138 45.0472C331.613 43.7601 331.85 42.2794 331.85 40.6049C331.85 38.943 331.619 37.481 331.156 36.2189C330.694 34.9569 330.013 33.9697 329.113 33.2574C328.214 32.5452 327.108 32.1891 325.796 32.1891C324.496 32.1891 323.397 32.5327 322.497 33.22C321.61 33.9072 320.929 34.8819 320.454 36.144C319.979 37.406 319.742 38.893 319.742 40.6049ZM345.331 55V26.2099H353.072V31.2331H353.372C353.897 29.4462 354.778 28.0967 356.015 27.1845C357.252 26.2598 358.677 25.7975 360.289 25.7975C360.689 25.7975 361.12 25.8225 361.582 25.8725C362.044 25.9225 362.45 25.9912 362.8 26.0787V33.1637C362.425 33.0513 361.907 32.9513 361.245 32.8638C360.582 32.7764 359.976 32.7326 359.426 32.7326C358.252 32.7326 357.202 32.9888 356.278 33.5011C355.365 34.0009 354.641 34.7007 354.103 35.6004C353.578 36.5001 353.316 37.5372 353.316 38.7118V55H345.331ZM385.391 42.7417V26.2099H393.376V55H385.71V49.7705H385.41C384.76 51.4575 383.679 52.8132 382.167 53.8379C380.668 54.8625 378.837 55.3749 376.675 55.3749C374.751 55.3749 373.058 54.9375 371.596 54.0628C370.134 53.1881 368.99 51.9448 368.166 50.3328C367.353 48.7209 366.941 46.7903 366.929 44.5411V26.2099H374.913V43.1166C374.926 44.816 375.382 46.1593 376.282 47.1464C377.181 48.1336 378.387 48.6272 379.899 48.6272C380.861 48.6272 381.761 48.4085 382.598 47.9712C383.435 47.5213 384.11 46.859 384.623 45.9843C385.147 45.1096 385.404 44.0288 385.391 42.7417ZM407.972 55.5436C406.135 55.5436 404.499 55.2249 403.062 54.5876C401.625 53.9379 400.487 52.9819 399.65 51.7199C398.825 50.4453 398.413 48.8584 398.413 46.959C398.413 45.3596 398.707 44.0163 399.294 42.9291C399.881 41.842 400.681 40.9673 401.693 40.305C402.705 39.6428 403.855 39.1429 405.142 38.8055C406.442 38.4682 407.804 38.2307 409.228 38.0933C410.903 37.9183 412.252 37.7559 413.277 37.606C414.301 37.4435 415.045 37.2061 415.507 36.8937C415.97 36.5813 416.201 36.119 416.201 35.5067V35.3942C416.201 34.2071 415.826 33.2887 415.076 32.6389C414.339 31.9891 413.289 31.6642 411.927 31.6642C410.49 31.6642 409.347 31.9829 408.497 32.6202C407.647 33.2449 407.085 34.0322 406.81 34.9819L399.425 34.3821C399.8 32.6327 400.537 31.1207 401.637 29.8461C402.737 28.5591 404.155 27.5719 405.892 26.8846C407.641 26.1849 409.666 25.835 411.965 25.835C413.564 25.835 415.095 26.0224 416.557 26.3973C418.031 26.7722 419.337 27.3532 420.474 28.1404C421.624 28.9277 422.53 29.9398 423.192 31.1769C423.854 32.4015 424.186 33.8697 424.186 35.5816V55H416.613V51.0076H416.388C415.926 51.9073 415.307 52.7008 414.533 53.3881C413.758 54.0628 412.827 54.5939 411.74 54.9813C410.653 55.3561 409.397 55.5436 407.972 55.5436ZM410.259 50.033C411.434 50.033 412.471 49.8018 413.371 49.3394C414.27 48.8646 414.976 48.2273 415.489 47.4276C416.001 46.6279 416.257 45.7219 416.257 44.7098V41.6546C416.007 41.817 415.663 41.967 415.226 42.1044C414.801 42.2294 414.32 42.3481 413.783 42.4605C413.246 42.5605 412.708 42.6542 412.171 42.7417C411.634 42.8167 411.146 42.8854 410.709 42.9479C409.772 43.0853 408.953 43.304 408.254 43.6039C407.554 43.9038 407.01 44.3099 406.623 44.8222C406.235 45.3221 406.042 45.9468 406.042 46.6966C406.042 47.7837 406.435 48.6147 407.223 49.1895C408.022 49.7518 409.034 50.033 410.259 50.033ZM430.38 55V26.2099H438.121V31.2331H438.421C438.946 29.4462 439.827 28.0967 441.064 27.1845C442.301 26.2598 443.726 25.7975 445.338 25.7975C445.738 25.7975 446.169 25.8225 446.631 25.8725C447.093 25.9225 447.499 25.9912 447.849 26.0787V33.1637C447.474 33.0513 446.956 32.9513 446.294 32.8638C445.631 32.7764 445.025 32.7326 444.475 32.7326C443.301 32.7326 442.251 32.9888 441.327 33.5011C440.414 34.0009 439.69 34.7007 439.152 35.6004C438.627 36.5001 438.365 37.5372 438.365 38.7118V55H430.38ZM457.783 65.7963C456.771 65.7963 455.822 65.7151 454.934 65.5526C454.06 65.4027 453.335 65.209 452.76 64.9716L454.56 59.0111C455.497 59.2985 456.34 59.4547 457.09 59.4797C457.852 59.5047 458.508 59.3298 459.058 58.9549C459.62 58.58 460.076 57.9427 460.426 57.0431L460.895 55.8247L450.567 26.2099H458.964L464.925 47.3526H465.225L471.241 26.2099H479.695L468.505 58.1114C467.967 59.6609 467.236 61.0104 466.312 62.16C465.4 63.3222 464.244 64.2156 462.844 64.8404C461.445 65.4777 459.758 65.7963 457.783 65.7963ZM490.655 49.7518L490.449 51.8136C490.286 53.463 489.974 55.1062 489.512 56.7432C489.062 58.3926 488.587 59.8858 488.087 61.2229C487.6 62.5599 487.206 63.6096 486.906 64.3718H481.733C481.92 63.6345 482.177 62.6036 482.502 61.2791C482.826 59.967 483.133 58.4926 483.42 56.8556C483.707 55.2187 483.889 53.5505 483.964 51.8511L484.057 49.7518H490.655ZM508.293 55V49.152L521.957 36.5001C523.119 35.3755 524.094 34.3633 524.881 33.4636C525.681 32.5639 526.287 31.683 526.699 30.8208C527.111 29.9461 527.317 29.0027 527.317 27.9905C527.317 26.8659 527.061 25.8975 526.549 25.0852C526.037 24.2605 525.337 23.6295 524.45 23.1921C523.562 22.7423 522.557 22.5174 521.432 22.5174C520.257 22.5174 519.233 22.7548 518.358 23.2296C517.483 23.7045 516.809 24.3855 516.334 25.2727C515.859 26.1599 515.621 27.2158 515.621 28.4403H507.918C507.918 25.9287 508.486 23.7482 509.624 21.8988C510.761 20.0495 512.354 18.6187 514.403 17.6066C516.452 16.5944 518.814 16.0883 521.488 16.0883C524.237 16.0883 526.63 16.5757 528.667 17.5503C530.716 18.5125 532.309 19.8495 533.447 21.5614C534.584 23.2734 535.152 25.2352 535.152 27.4469C535.152 28.8964 534.865 30.3272 534.29 31.7392C533.728 33.1512 532.722 34.7194 531.272 36.4439C529.823 38.1558 527.78 40.2113 525.143 42.6105L519.539 48.1024V48.3648H535.658V55H508.293ZM556.59 55.8435C553.366 55.831 550.592 55.0375 548.268 53.463C545.956 51.8886 544.176 49.6081 542.926 46.6216C541.689 43.6351 541.077 40.0426 541.089 35.8441C541.089 31.658 541.708 28.0905 542.945 25.1415C544.194 22.1925 545.975 19.9495 548.287 18.4125C550.611 16.8631 553.379 16.0883 556.59 16.0883C559.802 16.0883 562.563 16.8631 564.875 18.4125C567.199 19.962 568.986 22.2112 570.236 25.1602C571.485 28.0967 572.104 31.658 572.091 35.8441C572.091 40.0551 571.466 43.6539 570.217 46.6404C568.98 49.6268 567.205 51.9073 564.894 53.4818C562.582 55.0562 559.814 55.8435 556.59 55.8435ZM556.59 49.1145C558.789 49.1145 560.545 48.0086 561.857 45.7969C563.169 43.5852 563.819 40.2675 563.806 35.8441C563.806 32.9326 563.507 30.5084 562.907 28.5715C562.319 26.6347 561.482 25.179 560.395 24.2043C559.321 23.2296 558.052 22.7423 556.59 22.7423C554.403 22.7423 552.654 23.8357 551.342 26.0224C550.03 28.2092 549.368 31.4831 549.355 35.8441C549.355 38.793 549.649 41.2547 550.236 43.229C550.836 45.1909 551.679 46.6654 552.767 47.6525C553.854 48.6272 555.128 49.1145 556.59 49.1145ZM577.878 55V49.152L591.542 36.5001C592.704 35.3755 593.679 34.3633 594.466 33.4636C595.266 32.5639 595.872 31.683 596.284 30.8208C596.697 29.9461 596.903 29.0027 596.903 27.9905C596.903 26.8659 596.647 25.8975 596.134 25.0852C595.622 24.2605 594.922 23.6295 594.035 23.1921C593.148 22.7423 592.142 22.5174 591.017 22.5174C589.843 22.5174 588.818 22.7548 587.944 23.2296C587.069 23.7045 586.394 24.3855 585.919 25.2727C585.444 26.1599 585.207 27.2158 585.207 28.4403H577.503C577.503 25.9287 578.072 23.7482 579.209 21.8988C580.346 20.0495 581.939 18.6187 583.989 17.6066C586.038 16.5944 588.4 16.0883 591.074 16.0883C593.823 16.0883 596.216 16.5757 598.252 17.5503C600.302 18.5125 601.895 19.8495 603.032 21.5614C604.169 23.2734 604.738 25.2352 604.738 27.4469C604.738 28.8964 604.45 30.3272 603.876 31.7392C603.313 33.1512 602.307 34.7194 600.858 36.4439C599.408 38.1558 597.365 40.2113 594.729 42.6105L589.124 48.1024V48.3648H605.244V55H577.878ZM609.719 48.2523V41.8607L625.745 16.6131H631.255V25.4601H627.994L617.891 41.4484V41.7483H640.665V48.2523H609.719ZM628.144 55V46.303L628.294 43.4727V16.6131H635.904V55H628.144Z" fill="white"/>
</g>
<defs>
<filter id="filter0_d_1144_1145" x="0.787985" y="0.159203" width="658.824" height="87.6047" filterUnits="userSpaceOnUse" color-interpolation-filters="sRGB">
<feFlood flood-opacity="0" result="BackgroundImageFix"/>
<feColorMatrix in="SourceAlpha" type="matrix" values="0 0 0 0 0 0 0 0 0 0 0 0 0 0 0 0 0 0 127 0" result="hardAlpha"/>
<feOffset dy="3.01966"/>
<feGaussianBlur stdDeviation="9.47417"/>
<feComposite in2="hardAlpha" operator="out"/>
<feColorMatrix type="matrix" values="0 0 0 0 1 0 0 0 0 1 0 0 0 0 1 0 0 0 0.5 0"/>
<feBlend mode="normal" in2="BackgroundImageFix" result="effect1_dropShadow_1144_1145"/>
<feBlend mode="normal" in="SourceGraphic" in2="effect1_dropShadow_1144_1145" result="shape"/>
</filter>
</defs>
</svg>
