<svg width="48" height="55" viewBox="0 0 48 55" fill="none" xmlns="http://www.w3.org/2000/svg">
<g id="Vector" filter="url(#filter0_d_136_425)">
<path d="M35.6641 11.0027L29.0812 11.0027V9.00324C29.0812 8.44895 28.7133 8 28.2591 8C27.8049 8 27.437 8.44895 27.437 9.00324V11.0022H20.8599V9.00324C20.8599 8.44895 20.492 8 20.0377 8C19.5835 8 19.2156 8.44895 19.2156 9.00324V11.0022H12.6443C11.7362 11.0022 11 11.9006 11 13.0087V38.0897C11 39.1977 11.7362 40.0962 12.6443 40.0962H35.6641C36.5721 40.0962 37.3083 39.1977 37.3083 38.0897V13.0087C37.3083 11.9011 36.5721 11.0027 35.6641 11.0027ZM35.6641 38.0897H12.6443V13.0087H19.2156V14.0194C19.2156 14.5737 19.5835 15.0227 20.0377 15.0227C20.492 15.0227 20.8599 14.5737 20.8599 14.0194V13.0092H27.437V14.0199C27.437 14.5742 27.8049 15.0232 28.2591 15.0232C28.7133 15.0232 29.0812 14.5742 29.0812 14.0199V13.0092H35.6641V38.0897ZM29.9091 24.0448H31.5534C32.0072 24.0448 32.3755 23.5953 32.3755 23.0416V21.0351C32.3755 20.4813 32.0072 20.0318 31.5534 20.0318H29.9091C29.4553 20.0318 29.087 20.4813 29.087 21.0351V23.0416C29.087 23.5953 29.4553 24.0448 29.9091 24.0448ZM29.9091 32.0702H31.5534C32.0072 32.0702 32.3755 31.6213 32.3755 31.067V29.0605C32.3755 28.5067 32.0072 28.0573 31.5534 28.0573H29.9091C29.4553 28.0573 29.087 28.5067 29.087 29.0605V31.067C29.087 31.6218 29.4553 32.0702 29.9091 32.0702ZM24.9763 28.0573H23.332C22.8782 28.0573 22.5099 28.5067 22.5099 29.0605V31.067C22.5099 31.6213 22.8782 32.0702 23.332 32.0702H24.9763C25.4301 32.0702 25.7984 31.6213 25.7984 31.067V29.0605C25.7984 28.5072 25.4301 28.0573 24.9763 28.0573ZM24.9763 20.0318H23.332C22.8782 20.0318 22.5099 20.4813 22.5099 21.0351V23.0416C22.5099 23.5953 22.8782 24.0448 23.332 24.0448H24.9763C25.4301 24.0448 25.7984 23.5953 25.7984 23.0416V21.0351C25.7984 20.4808 25.4301 20.0318 24.9763 20.0318ZM18.3992 20.0318H16.755C16.3011 20.0318 15.9328 20.4813 15.9328 21.0351V23.0416C15.9328 23.5953 16.3011 24.0448 16.755 24.0448H18.3992C18.853 24.0448 19.2214 23.5953 19.2214 23.0416V21.0351C19.2214 20.4808 18.853 20.0318 18.3992 20.0318ZM18.3992 28.0573H16.755C16.3011 28.0573 15.9328 28.5067 15.9328 29.0605V31.067C15.9328 31.6213 16.3011 32.0702 16.755 32.0702H18.3992C18.853 32.0702 19.2214 31.6213 19.2214 31.067V29.0605C19.2214 28.5072 18.853 28.0573 18.3992 28.0573Z" fill="#006FEE"/>
</g>
<defs>
<filter id="filter0_d_136_425" x="0.344262" y="0.754098" width="47.6201" height="53.4077" filterUnits="userSpaceOnUse" color-interpolation-filters="sRGB">
<feFlood flood-opacity="0" result="BackgroundImageFix"/>
<feColorMatrix in="SourceAlpha" type="matrix" values="0 0 0 0 0 0 0 0 0 0 0 0 0 0 0 0 0 0 127 0" result="hardAlpha"/>
<feOffset dy="3.40984"/>
<feGaussianBlur stdDeviation="5.32787"/>
<feComposite in2="hardAlpha" operator="out"/>
<feColorMatrix type="matrix" values="0 0 0 0 0 0 0 0 0 0.439216 0 0 0 0 0.941176 0 0 0 1 0"/>
<feBlend mode="normal" in2="BackgroundImageFix" result="effect1_dropShadow_136_425"/>
<feBlend mode="normal" in="SourceGraphic" in2="effect1_dropShadow_136_425" result="shape"/>
</filter>
</defs>
</svg>