<svg width="360" height="165" viewBox="0 0 360 165" fill="none" xmlns="http://www.w3.org/2000/svg">
<g filter="url(#filter0_d_31_324)">
<path d="M65.6927 98.3417L54.8938 67.2454C53.9326 64.5316 52.0103 59.4431 49.4095 59.4431V58.7646H64.9011V59.4431C62.47 59.4431 64.3357 65.6058 65.1838 68.2066L70.3854 84.2635L74.0604 74.03C71.1769 63.7966 69.5938 59.2735 67.2758 59.4431V58.7646H83.672V59.4431C80.7885 59.8954 81.1277 63.3442 82.4847 67.9804L87.347 84.3201L93.0009 65.8885C94.0185 62.6092 94.5839 59.33 91.8701 59.4431V58.7646H99.0505V59.3865C96.902 59.7258 96.0539 63.2312 94.8666 67.0193L85.1985 98.3417H82.8239L75.2477 77.4789L68.0673 98.3417H65.6927ZM111.666 67.8673C119.864 67.8673 125.913 73.295 125.913 83.9809C125.913 94.6101 118.337 98.3417 110.931 98.3417C103.128 98.3417 95.7783 95.232 95.6652 84.4332C95.6087 75.2739 100.301 70.1289 106.973 68.4893C108.556 68.0935 110.139 67.8673 111.666 67.8673ZM113.192 96.5324C117.715 96.5324 115.963 83.9809 115.058 80.7581C113.136 73.8604 111.157 69.62 109.008 69.62C104.033 69.62 105.616 81.4366 106.408 85.0551C107.199 88.5039 109.97 96.5324 113.192 96.5324ZM154.194 72.56C154.307 76.4047 151.932 78.5531 150.858 80.0797C150.066 77.9878 149.162 75.0477 146.618 75.0477C145.656 75.0477 144.186 76.1785 143.508 77.3093L142.151 79.5708V90.087C142.151 95.4582 143.565 96.9847 145.939 97.4936V98.3417H128.186V97.4936C130.278 97.2674 132.313 94.8363 132.313 90.087L132.257 84.8289V77.4224C132.257 75.387 131.861 73.9735 131.013 73.295C130.221 72.6166 129.373 72.2774 128.525 72.2774L128.582 71.825L141.36 67.8108L142.151 68.3762V76.5743L144.865 71.0335C145.6 69.62 147.579 67.6977 149.445 67.6977C152.554 67.6977 154.137 70.9204 154.194 72.56ZM187.253 98.3417C192.738 108.688 198.957 107.84 203.084 105.409C203.084 105.409 202.01 111.459 192.964 111.459C183.918 111.459 179.451 105.579 175.55 98.3417C172.893 93.762 170.914 89.1824 168.37 83.8112V92.914C168.37 96.0801 169.161 97.0978 170.744 97.6067V98.3417H155.196V97.6632C157.005 97.6632 158.193 96.2497 158.419 93.649C158.419 81.7758 158.419 67.4716 158.475 64.4185C158.475 62.3265 158.023 60.9131 157.231 60.2346C156.383 59.6127 155.592 59.2735 154.687 59.2735L154.744 58.7646L159.267 57.3511C165.882 55.2592 168.087 50.2838 168.765 49.2661C170.009 47.4003 172.61 45.8738 174.758 45.8738C183.013 45.8738 188.723 56.6161 182.843 61.535C178.094 65.5492 170.97 61.9873 172.553 56.1638C172.553 56.1638 173.062 57.1815 175.324 57.1815C177.585 57.1815 179.847 54.6373 179.847 52.3192C179.847 49.3792 177.755 47.2307 174.758 47.2307C173.062 47.2307 170.914 48.5311 169.896 50.0011C168.935 51.5277 168.37 53.7327 168.37 56.6727V81.3801C168.765 81.0974 172.045 79.9666 175.098 77.4789C179.451 73.917 181.091 69.2243 177.698 68.7154V67.8673H187.536V68.6589C184.144 68.6589 182.222 72.447 180.243 75.3304C178.433 77.9312 177.076 78.8924 177.076 78.8924C184.37 92.8574 185.84 95.7974 187.253 98.3417ZM204.23 79.797C207.113 82.0585 209.544 84.6593 209.544 89.2955C209.544 95.6278 205.021 98.3417 200.385 98.3417H190.434L190.038 89.7478H190.66C191.056 94.6101 194.901 97.2674 197.841 97.0978C199.707 96.9847 201.177 95.7974 201.177 93.5924C201.177 91.1613 197.445 88.3343 196.032 87.147C193.092 84.6593 190.321 81.5497 190.321 76.7439C190.321 70.6377 194.222 67.8673 199.933 67.8673C201.572 67.8673 202.986 67.9239 204.625 68.4327C206.943 69.1677 207.452 69.3373 207.792 67.8673H208.131V77.4224H207.678C207.339 71.9947 204.286 69.0546 201.798 68.9981C200.046 68.9416 198.35 70.1854 198.576 72.6731C198.858 75.387 202.59 78.4966 204.23 79.797ZM241.519 93.5924C241.462 96.0236 242.876 97.5501 244.402 97.4936V98.3417H229.759V97.5501C231.398 97.5501 231.964 95.0059 232.133 92.292C232.359 88.0516 232.246 81.5497 232.133 77.2528C232.077 74.8216 230.55 73.0124 228.458 73.0124C227.441 73.0124 226.423 73.4081 225.405 74.1997V92.1224C225.405 94.4405 225.801 97.3805 227.949 97.5501V98.3417H212.797V97.6067C214.493 97.7763 215.511 96.5324 215.511 92.1224V64.3619C215.511 62.27 215.115 60.9131 214.267 60.2346C213.475 59.5561 212.627 59.2169 211.779 59.2169L211.836 58.7646L224.614 54.7504L225.405 55.3158V72.3904C227.554 70.2985 231.681 67.8673 234.734 67.8673C238.861 67.8673 241.462 71.8816 241.519 75.7262C241.632 81.4932 241.632 87.7689 241.519 93.5924ZM261.515 67.8673C269.713 67.8673 275.763 73.295 275.763 83.9809C275.763 94.6101 268.187 98.3417 260.78 98.3417C252.978 98.3417 245.628 95.232 245.515 84.4332C245.458 75.2739 250.151 70.1289 256.823 68.4893C258.406 68.0935 259.989 67.8673 261.515 67.8673ZM263.042 96.5324C267.565 96.5324 265.812 83.9809 264.908 80.7581C262.985 73.8604 261.006 69.62 258.858 69.62C253.882 69.62 255.466 81.4366 256.257 85.0551C257.049 88.5039 259.819 96.5324 263.042 96.5324ZM309.754 81.7758C309.641 89.352 306.588 96.1367 300.368 98.2286C297.202 99.3028 294.658 99.2463 291.435 98.1721V103.147C291.435 108.519 292.849 110.045 295.223 110.554V111.402H277.47V110.554C279.562 110.328 281.597 107.897 281.541 103.147V77.4224C281.541 75.387 281.089 73.9735 280.297 73.295C279.449 72.6166 278.601 72.2774 277.753 72.2774L277.809 71.825L290.587 67.8108L291.435 68.3762V73.8039C293.244 71.3727 297.315 67.8673 300.142 67.8673C306.588 67.8673 309.923 75.3304 309.754 81.7758ZM298.672 94.1013C299.464 92.0659 299.803 88.4474 299.803 85.2812C299.803 77.7051 298.333 72.9558 295.393 72.9558C293.753 72.9558 292.453 74.1997 291.435 75.7827V95.2886C291.435 95.9105 294.093 97.1544 295.054 97.1544C296.75 97.1544 297.937 96.1367 298.672 94.1013Z" fill="white"/>
</g>
<defs>
<filter id="filter0_d_31_324" x="0.291462" y="0.289484" width="358.75" height="163.821" filterUnits="userSpaceOnUse" color-interpolation-filters="sRGB">
<feFlood flood-opacity="0" result="BackgroundImageFix"/>
<feColorMatrix in="SourceAlpha" type="matrix" values="0 0 0 0 0 0 0 0 0 0 0 0 0 0 0 0 0 0 127 0" result="hardAlpha"/>
<feOffset dy="3.53367"/>
<feGaussianBlur stdDeviation="24.559"/>
<feComposite in2="hardAlpha" operator="out"/>
<feColorMatrix type="matrix" values="0 0 0 0 1 0 0 0 0 1 0 0 0 0 1 0 0 0 0.64 0"/>
<feBlend mode="normal" in2="BackgroundImageFix" result="effect1_dropShadow_31_324"/>
<feBlend mode="normal" in="SourceGraphic" in2="effect1_dropShadow_31_324" result="shape"/>
</filter>
</defs>
</svg>
