<svg width="788" height="155" viewBox="0 0 788 155" fill="none" xmlns="http://www.w3.org/2000/svg">
<g style="mix-blend-mode:hard-light" filter="url(#filter0_d_291_1222)">
<path d="M37.9996 114H16V112.36C16 112.36 22.8322 112.224 27.0681 99.7891L48.9311 35.9764C51.9373 27.0946 50.9808 24.0884 49.0678 18.3494H60.8191C72.2972 18.3494 74.7568 19.5792 78.4462 30.9206L101.266 99.6524C105.502 112.634 111.651 112.36 111.651 112.36V114H68.6078V112.36C68.6078 112.36 77.6263 111.54 72.9804 97.1928L66.9681 78.4726H39.776C37.863 84.2117 35.8133 90.0873 33.9003 95.6897C28.2979 112.087 37.9996 112.36 37.9996 112.36V114ZM53.4404 36.1131L41.9623 71.7771H64.6452L53.4404 36.1131ZM111.731 80.3856V33.2435C111.731 20.809 102.166 20.2624 102.166 20.2624V18.3494H146.848V20.1257C146.848 20.1257 136.736 21.7655 136.736 33.1069V81.4788C136.736 98.4226 141.382 108.124 156.14 108.124C170.351 108.124 174.177 97.1928 174.177 81.3421V33.1069C174.177 19.9891 164.339 20.1257 164.339 20.1257V18.3494H189.071V20.1257C189.071 20.1257 179.643 20.809 179.643 33.2435V80.249C179.643 103.752 168.984 114 150.674 114C129.494 114 111.731 107.441 111.731 80.3856ZM245.402 73.2802C279.7 79.0192 273.004 133.267 320.283 118.236C320.283 118.236 311.948 138.869 289.265 138.869C266.582 138.869 254.284 111.404 247.862 95.2798C245.129 88.311 242.396 79.0192 234.334 74.7832C229.825 75.1932 225.316 74.9199 225.316 74.9199V99.6524C225.316 110.994 234.608 112.634 234.608 112.634V114H191.838V112.224C191.838 112.224 200.31 111.814 200.31 99.2425V74.9199C190.198 75.3298 185.552 79.0192 185.552 85.1682C185.552 90.224 188.285 95.0065 193.888 95.8264C190.745 101.292 168.335 102.795 168.335 86.5346C168.335 70.4106 190.062 70.1374 200.31 70.1374H225.316C229.142 70.1374 232.148 69.8641 234.334 69.4541C244.446 67.4045 249.502 58.386 249.502 46.0881C249.502 29.4175 239.39 16.8463 225.316 22.4487V66.3113H200.31V33.2435C200.31 20.6723 191.838 20.2624 191.838 20.2624V18.3494H236.657C245.402 18.3494 252.645 19.1692 258.11 21.0823C269.042 24.9083 274.781 32.9703 274.781 45.1316C274.781 57.0196 268.495 66.448 257.154 70.4106C251.825 72.3237 247.042 73.0069 245.402 73.2802ZM332.246 113.863C308.197 114.41 285.514 101.702 285.514 67.1312C285.514 32.5603 305.874 18.0761 330.06 18.0761C354.109 18.0761 373.922 35.7031 374.196 66.038C374.332 96.373 356.295 113.317 332.246 113.863ZM347.55 66.1747C346.867 51.6905 344.407 22.8586 328.966 22.722C313.526 22.722 312.159 51.8271 312.569 66.448C312.843 80.9322 315.849 109.217 331.836 108.944C347.687 108.671 348.097 80.5223 347.55 66.1747ZM431.82 73.2802C466.117 79.0192 459.422 133.267 506.7 118.236C506.7 118.236 498.365 138.869 475.682 138.869C453 138.869 440.702 111.404 434.279 95.2798C431.546 88.311 428.814 79.0192 420.752 74.7832C416.242 75.1932 411.733 74.9199 411.733 74.9199V99.6524C411.733 110.994 421.025 112.634 421.025 112.634V114H378.255V112.224C378.255 112.224 386.727 111.814 386.727 99.2425V74.9199C376.616 75.3298 371.97 79.0192 371.97 85.1682C371.97 90.224 374.703 95.0065 380.305 95.8264C377.162 101.292 354.753 102.795 354.753 86.5346C354.753 70.4106 376.479 70.1374 386.727 70.1374H411.733C415.559 70.1374 418.565 69.8641 420.752 69.4541C430.863 67.4045 435.919 58.386 435.919 46.0881C435.919 29.4175 425.807 16.8463 411.733 22.4487V66.3113H386.727V33.2435C386.727 20.6723 378.255 20.2624 378.255 20.2624V18.3494H423.075C431.82 18.3494 439.062 19.1692 444.528 21.0823C455.459 24.9083 461.198 32.9703 461.198 45.1316C461.198 57.0196 454.913 66.448 443.571 70.4106C438.242 72.3237 433.459 73.0069 431.82 73.2802ZM496.637 114H474.637V112.36C474.637 112.36 481.469 112.224 485.705 99.7891L507.568 35.9764C510.575 27.0946 509.618 24.0884 507.705 18.3494H519.456C530.934 18.3494 533.394 19.5792 537.083 30.9206L559.903 99.6524C564.139 112.634 570.288 112.36 570.288 112.36V114H527.245V112.36C527.245 112.36 536.264 111.54 531.618 97.1928L525.605 78.4726H498.413C496.5 84.2117 494.451 90.0873 492.538 95.6897C486.935 112.087 496.637 112.36 496.637 112.36V114ZM512.078 36.1131L500.6 71.7771H523.282L512.078 36.1131ZM682.261 79.9757L679.255 114H624.461L622.821 103.888C635.529 90.3606 656.162 67.5411 656.162 45.1316C656.162 37.2062 652.063 29.6908 645.094 29.6908C635.665 29.6908 628.97 40.349 627.33 48.9576H625.827C626.647 41.9887 628.287 36.1131 630.883 31.6038C636.485 21.6288 645.231 18.2127 654.659 17.8028C667.094 17.8028 679.665 24.2251 679.665 41.9887C679.665 60.8456 656.572 82.8452 644.957 91.3171H671.193C677.205 91.3171 679.118 86.9445 680.895 79.9757H682.261ZM712.816 90.4973H688.767C689.04 90.4973 687.673 81.3421 687.673 80.3856L722.518 17.8028H736.865V76.423H747.25L743.561 90.6339H736.728V114H712.816V90.4973ZM712.952 44.8583L695.052 76.423H712.952V44.8583ZM772.199 17.9395C771.379 21.1278 770.332 24.5894 769.056 28.3244C767.781 32.0593 766.369 35.7942 764.82 39.5292C763.363 43.173 761.905 46.6346 760.448 49.9141H751.566C752.204 47.3634 752.841 44.6305 753.479 41.7155C754.208 38.8004 754.846 35.8853 755.392 32.9703C756.03 29.9641 756.576 27.049 757.032 24.2251C757.578 21.4011 758.034 18.8049 758.398 16.4364H771.243L772.199 17.9395Z" fill="#B1D3F9"/>
</g>
<defs>
<filter id="filter0_d_291_1222" x="0.303604" y="0.740005" width="787.592" height="153.826" filterUnits="userSpaceOnUse" color-interpolation-filters="sRGB">
<feFlood flood-opacity="0" result="BackgroundImageFix"/>
<feColorMatrix in="SourceAlpha" type="matrix" values="0 0 0 0 0 0 0 0 0 0 0 0 0 0 0 0 0 0 127 0" result="hardAlpha"/>
<feOffset/>
<feGaussianBlur stdDeviation="7.8482"/>
<feComposite in2="hardAlpha" operator="out"/>
<feColorMatrix type="matrix" values="0 0 0 0 0.694118 0 0 0 0 0.827451 0 0 0 0 0.976471 0 0 0 0.58 0"/>
<feBlend mode="normal" in2="BackgroundImageFix" result="effect1_dropShadow_291_1222"/>
<feBlend mode="normal" in="SourceGraphic" in2="effect1_dropShadow_291_1222" result="shape"/>
</filter>
</defs>
</svg>
