<svg width="232" height="120" viewBox="0 0 232 120" fill="none" xmlns="http://www.w3.org/2000/svg">
<g filter="url(#filter0_d_233_630)">
<rect x="48" y="41" width="152" height="40" rx="12" fill="#CCE3FD" shape-rendering="crispEdges"/>
<rect x="48" y="41" width="152" height="40" rx="12" fill="#000627" shape-rendering="crispEdges"/>
<path d="M75.25 67.25H73C71.9 67.25 71 68.15 71 69.25V69.5H70C69.59 69.5 69.25 69.84 69.25 70.25C69.25 70.66 69.59 71 70 71H82C82.41 71 82.75 70.66 82.75 70.25C82.75 69.84 82.41 69.5 82 69.5H81V69.25C81 68.15 80.1 67.25 79 67.25H76.75V64.96C76.5 64.99 76.25 65 76 65C75.75 65 75.5 64.99 75.25 64.96V67.25Z" fill="#006FEE"/>
<path d="M82.4793 60.64C83.1393 60.39 83.7193 59.98 84.1793 59.52C85.1093 58.49 85.7193 57.26 85.7193 55.82C85.7193 54.38 84.5893 53.25 83.1493 53.25H82.5893C81.9393 51.92 80.5793 51 78.9993 51H72.9993C71.4193 51 70.0593 51.92 69.4093 53.25H68.8493C67.4093 53.25 66.2793 54.38 66.2793 55.82C66.2793 57.26 66.8893 58.49 67.8193 59.52C68.2793 59.98 68.8593 60.39 69.5193 60.64C70.5593 63.2 73.0593 65 75.9993 65C78.9393 65 81.4393 63.2 82.4793 60.64ZM78.8393 57.45L78.2193 58.21C78.1193 58.32 78.0493 58.54 78.0593 58.69L78.1193 59.67C78.1593 60.27 77.7293 60.58 77.1693 60.36L76.2593 60C76.1193 59.95 75.8793 59.95 75.7393 60L74.8293 60.36C74.2693 60.58 73.8393 60.27 73.8793 59.67L73.9393 58.69C73.9493 58.54 73.8793 58.32 73.7793 58.21L73.1593 57.45C72.7693 56.99 72.9393 56.48 73.5193 56.33L74.4693 56.09C74.6193 56.05 74.7993 55.91 74.8793 55.78L75.4093 54.96C75.7393 54.45 76.2593 54.45 76.5893 54.96L77.1193 55.78C77.1993 55.91 77.3793 56.05 77.5293 56.09L78.4793 56.33C79.0593 56.48 79.2293 56.99 78.8393 57.45Z" fill="#006FEE"/>
<path d="M101.278 67V55.3636H103.034V60.4205H108.835V55.3636H110.597V67H108.835V61.9261H103.034V67H101.278ZM115.557 67.1932C115.004 67.1932 114.504 67.0909 114.057 66.8864C113.61 66.678 113.256 66.3769 112.994 65.983C112.737 65.589 112.608 65.1061 112.608 64.5341C112.608 64.0417 112.703 63.6364 112.892 63.3182C113.081 63 113.337 62.7481 113.659 62.5625C113.981 62.3769 114.341 62.2367 114.739 62.142C115.136 62.0473 115.542 61.9754 115.955 61.9261C116.477 61.8655 116.902 61.8163 117.227 61.7784C117.553 61.7367 117.79 61.6705 117.938 61.5795C118.085 61.4886 118.159 61.3409 118.159 61.1364V61.0966C118.159 60.6004 118.019 60.2159 117.739 59.9432C117.462 59.6705 117.049 59.5341 116.5 59.5341C115.928 59.5341 115.477 59.661 115.148 59.9148C114.822 60.1648 114.597 60.4432 114.472 60.75L112.875 60.3864C113.064 59.8561 113.341 59.428 113.705 59.1023C114.072 58.7727 114.494 58.5341 114.972 58.3864C115.449 58.2348 115.951 58.1591 116.477 58.1591C116.826 58.1591 117.195 58.2008 117.585 58.2841C117.979 58.3636 118.347 58.5114 118.688 58.7273C119.032 58.9432 119.314 59.2519 119.534 59.6534C119.754 60.0511 119.864 60.5682 119.864 61.2045V67H118.205V65.8068H118.136C118.027 66.0265 117.862 66.2424 117.642 66.4545C117.422 66.6667 117.14 66.8428 116.795 66.983C116.451 67.1231 116.038 67.1932 115.557 67.1932ZM115.926 65.8295C116.396 65.8295 116.797 65.7367 117.131 65.5511C117.468 65.3655 117.723 65.1231 117.898 64.8239C118.076 64.5208 118.165 64.197 118.165 63.8523V62.7273C118.104 62.7879 117.987 62.8447 117.812 62.8977C117.642 62.947 117.447 62.9905 117.227 63.0284C117.008 63.0625 116.794 63.0947 116.585 63.125C116.377 63.1515 116.203 63.1742 116.062 63.1932C115.733 63.2348 115.432 63.3049 115.159 63.4034C114.89 63.5019 114.674 63.6439 114.511 63.8295C114.352 64.0114 114.273 64.2538 114.273 64.5568C114.273 64.9773 114.428 65.2955 114.739 65.5114C115.049 65.7235 115.445 65.8295 115.926 65.8295ZM125.803 67.1761C124.958 67.1761 124.231 66.9848 123.621 66.6023C123.015 66.2159 122.549 65.6837 122.223 65.0057C121.897 64.3277 121.734 63.5511 121.734 62.6761C121.734 61.7898 121.901 61.0076 122.234 60.3295C122.568 59.6477 123.037 59.1155 123.643 58.733C124.25 58.3504 124.964 58.1591 125.786 58.1591C126.448 58.1591 127.039 58.2822 127.558 58.5284C128.077 58.7708 128.496 59.1117 128.814 59.5511C129.136 59.9905 129.327 60.5038 129.388 61.0909H127.734C127.643 60.6818 127.435 60.3295 127.109 60.0341C126.787 59.7386 126.356 59.5909 125.814 59.5909C125.34 59.5909 124.926 59.7159 124.57 59.9659C124.217 60.2121 123.943 60.5644 123.746 61.0227C123.549 61.4773 123.45 62.0152 123.45 62.6364C123.45 63.2727 123.547 63.822 123.74 64.2841C123.933 64.7462 124.206 65.1042 124.558 65.358C124.914 65.6117 125.333 65.7386 125.814 65.7386C126.136 65.7386 126.428 65.6799 126.689 65.5625C126.954 65.4413 127.176 65.2689 127.354 65.0455C127.536 64.822 127.662 64.553 127.734 64.2386H129.388C129.327 64.803 129.143 65.3068 128.837 65.75C128.53 66.1932 128.119 66.5417 127.604 66.7955C127.092 67.0492 126.492 67.1761 125.803 67.1761ZM132.767 64.0398L132.756 61.9659H133.051L136.528 58.2727H138.562L134.597 62.4773H134.33L132.767 64.0398ZM131.205 67V55.3636H132.903V67H131.205ZM136.716 67L133.591 62.8523L134.761 61.6648L138.801 67H136.716ZM142.651 67.1932C142.098 67.1932 141.598 67.0909 141.151 66.8864C140.704 66.678 140.349 66.3769 140.088 65.983C139.83 65.589 139.702 65.1061 139.702 64.5341C139.702 64.0417 139.796 63.6364 139.986 63.3182C140.175 63 140.431 62.7481 140.753 62.5625C141.075 62.3769 141.435 62.2367 141.832 62.142C142.23 62.0473 142.635 61.9754 143.048 61.9261C143.571 61.8655 143.995 61.8163 144.321 61.7784C144.647 61.7367 144.884 61.6705 145.031 61.5795C145.179 61.4886 145.253 61.3409 145.253 61.1364V61.0966C145.253 60.6004 145.113 60.2159 144.832 59.9432C144.556 59.6705 144.143 59.5341 143.594 59.5341C143.022 59.5341 142.571 59.661 142.241 59.9148C141.916 60.1648 141.69 60.4432 141.565 60.75L139.969 60.3864C140.158 59.8561 140.435 59.428 140.798 59.1023C141.166 58.7727 141.588 58.5341 142.065 58.3864C142.543 58.2348 143.045 58.1591 143.571 58.1591C143.92 58.1591 144.289 58.2008 144.679 58.2841C145.073 58.3636 145.44 58.5114 145.781 58.7273C146.126 58.9432 146.408 59.2519 146.628 59.6534C146.848 60.0511 146.957 60.5682 146.957 61.2045V67H145.298V65.8068H145.23C145.12 66.0265 144.955 66.2424 144.736 66.4545C144.516 66.6667 144.234 66.8428 143.889 66.983C143.545 67.1231 143.132 67.1932 142.651 67.1932ZM143.02 65.8295C143.49 65.8295 143.891 65.7367 144.224 65.5511C144.562 65.3655 144.817 65.1231 144.991 64.8239C145.17 64.5208 145.259 64.197 145.259 63.8523V62.7273C145.198 62.7879 145.08 62.8447 144.906 62.8977C144.736 62.947 144.541 62.9905 144.321 63.0284C144.101 63.0625 143.887 63.0947 143.679 63.125C143.471 63.1515 143.296 63.1742 143.156 63.1932C142.827 63.2348 142.526 63.3049 142.253 63.4034C141.984 63.5019 141.768 63.6439 141.605 63.8295C141.446 64.0114 141.366 64.2538 141.366 64.5568C141.366 64.9773 141.522 65.2955 141.832 65.5114C142.143 65.7235 142.539 65.8295 143.02 65.8295ZM153.294 58.2727V59.6364H148.527V58.2727H153.294ZM149.805 56.1818H151.504V64.4375C151.504 64.767 151.554 65.0152 151.652 65.1818C151.75 65.3447 151.877 65.4564 152.033 65.517C152.192 65.5739 152.364 65.6023 152.55 65.6023C152.686 65.6023 152.805 65.5928 152.908 65.5739C153.01 65.5549 153.089 65.5398 153.146 65.5284L153.453 66.9318C153.355 66.9697 153.214 67.0076 153.033 67.0455C152.851 67.0871 152.624 67.1098 152.351 67.1136C151.904 67.1212 151.487 67.0417 151.101 66.875C150.714 66.7083 150.402 66.4508 150.163 66.1023C149.925 65.7538 149.805 65.3163 149.805 64.7898V56.1818ZM157.06 61.8182V67H155.361V55.3636H157.037V59.6932H157.145C157.349 59.2235 157.662 58.8504 158.082 58.5739C158.503 58.2973 159.052 58.1591 159.73 58.1591C160.329 58.1591 160.851 58.2822 161.298 58.5284C161.749 58.7746 162.098 59.142 162.344 59.6307C162.594 60.1155 162.719 60.7216 162.719 61.4489V67H161.02V61.6534C161.02 61.0133 160.855 60.517 160.526 60.1648C160.196 59.8087 159.738 59.6307 159.151 59.6307C158.749 59.6307 158.389 59.7159 158.071 59.8864C157.757 60.0568 157.509 60.3068 157.327 60.6364C157.149 60.9621 157.06 61.3561 157.06 61.8182ZM168.662 67.1761C167.844 67.1761 167.13 66.9886 166.52 66.6136C165.91 66.2386 165.437 65.714 165.099 65.0398C164.762 64.3655 164.594 63.5777 164.594 62.6761C164.594 61.7708 164.762 60.9792 165.099 60.3011C165.437 59.6231 165.91 59.0966 166.52 58.7216C167.13 58.3466 167.844 58.1591 168.662 58.1591C169.48 58.1591 170.194 58.3466 170.804 58.7216C171.414 59.0966 171.887 59.6231 172.224 60.3011C172.562 60.9792 172.73 61.7708 172.73 62.6761C172.73 63.5777 172.562 64.3655 172.224 65.0398C171.887 65.714 171.414 66.2386 170.804 66.6136C170.194 66.9886 169.48 67.1761 168.662 67.1761ZM168.668 65.75C169.198 65.75 169.637 65.6098 169.986 65.3295C170.334 65.0492 170.592 64.6761 170.759 64.2102C170.929 63.7443 171.014 63.2311 171.014 62.6705C171.014 62.1136 170.929 61.6023 170.759 61.1364C170.592 60.6667 170.334 60.2898 169.986 60.0057C169.637 59.7216 169.198 59.5795 168.668 59.5795C168.134 59.5795 167.69 59.7216 167.338 60.0057C166.99 60.2898 166.73 60.6667 166.56 61.1364C166.393 61.6023 166.31 62.1136 166.31 62.6705C166.31 63.2311 166.393 63.7443 166.56 64.2102C166.73 64.6761 166.99 65.0492 167.338 65.3295C167.69 65.6098 168.134 65.75 168.668 65.75ZM176.325 61.8182V67H174.626V58.2727H176.257V59.6932H176.365C176.566 59.2311 176.88 58.8598 177.308 58.5795C177.74 58.2992 178.284 58.1591 178.939 58.1591C179.534 58.1591 180.054 58.2841 180.501 58.5341C180.948 58.7803 181.295 59.1477 181.541 59.6364C181.787 60.125 181.911 60.7292 181.911 61.4489V67H180.212V61.6534C180.212 61.0208 180.047 60.5265 179.717 60.1705C179.388 59.8106 178.935 59.6307 178.359 59.6307C177.965 59.6307 177.615 59.7159 177.308 59.8864C177.005 60.0568 176.765 60.3068 176.587 60.6364C176.412 60.9621 176.325 61.3561 176.325 61.8182Z" fill="#006FEE"/>
</g>
<defs>
<filter id="filter0_d_233_630" x="0" y="0" width="232" height="120" filterUnits="userSpaceOnUse" color-interpolation-filters="sRGB">
<feFlood flood-opacity="0" result="BackgroundImageFix"/>
<feColorMatrix in="SourceAlpha" type="matrix" values="0 0 0 0 0 0 0 0 0 0 0 0 0 0 0 0 0 0 127 0" result="hardAlpha"/>
<feOffset dx="-8" dy="-1"/>
<feGaussianBlur stdDeviation="20"/>
<feComposite in2="hardAlpha" operator="out"/>
<feColorMatrix type="matrix" values="0 0 0 0 1 0 0 0 0 1 0 0 0 0 1 0 0 0 0.25 0"/>
<feBlend mode="normal" in2="BackgroundImageFix" result="effect1_dropShadow_233_630"/>
<feBlend mode="normal" in="SourceGraphic" in2="effect1_dropShadow_233_630" result="shape"/>
</filter>
</defs>
</svg>
