<svg width="178" height="199" viewBox="0 0 178 199" fill="none" xmlns="http://www.w3.org/2000/svg">
<path d="M88.9971 198.831C126.305 198.831 156.549 197.977 156.549 196.924C156.549 195.871 126.305 195.017 88.9971 195.017C51.6893 195.017 21.4453 195.871 21.4453 196.924C21.4453 197.977 51.6893 198.831 88.9971 198.831Z" fill="#D8DFEA"/>
<path d="M177.046 19.6292V38.168C177.046 68.2771 152.642 92.6937 122.55 92.6937H114.92L123.389 83.9586C148.25 83.5114 168.326 63.1409 168.326 38.168V23.9916H135.629L136.719 15.2676H172.686C175.095 15.2668 177.046 17.219 177.046 19.6292Z" fill="#E8A615"/>
<path d="M117.098 145.223V154.852H60.4219V145.223C60.4219 144.438 60.8468 143.708 61.5335 143.326L65.8279 140.905C73.261 136.718 77.8606 128.855 77.8606 120.316V110.142H99.6591V120.316C99.6591 128.855 104.259 136.717 111.692 140.905L115.986 143.326C116.673 143.708 117.098 144.438 117.098 145.223Z" fill="#E8A615"/>
<path d="M117.099 145.223V154.852H111.65V145.223C111.65 144.438 111.225 143.708 110.538 143.326L106.244 140.905C98.8105 136.718 94.2109 128.855 94.2109 120.316V110.142H99.6607V120.316C99.6607 128.855 104.26 136.717 111.693 140.905L115.988 143.326C116.674 143.708 117.099 144.438 117.099 145.223Z" fill="#B7791D"/>
<path d="M106.198 101.636V107.961C106.198 110.97 103.757 113.413 100.748 113.413H76.7701C73.7619 113.413 71.3203 110.97 71.3203 107.961V101.636H106.198Z" fill="#E8A615"/>
<path d="M99.6598 113.413H77.8613V116.619H99.6598V113.413Z" fill="#B7791D"/>
<path d="M125.816 152.672V190.84H51.7012V152.672C51.7012 151.473 52.6823 150.491 53.881 150.491H123.636C124.835 150.491 125.816 151.473 125.816 152.672Z" fill="#343B49"/>
<path d="M125.817 152.672V190.84H121.457V152.672C121.457 151.473 120.476 150.491 119.277 150.491H123.637C124.836 150.491 125.817 151.473 125.817 152.672Z" fill="#262D38"/>
<path d="M132.358 189.749V194.111C132.358 195.311 131.377 196.292 130.178 196.292H47.3439C46.1452 196.292 45.1641 195.311 45.1641 194.111V189.749C45.1641 188.55 46.1452 187.568 47.3439 187.568H130.178C131.377 187.568 132.358 188.55 132.358 189.749Z" fill="#262D38"/>
<path d="M132.358 189.749V194.111C132.358 195.311 131.377 196.292 130.178 196.292H125.818C127.017 196.292 127.998 195.311 127.998 194.111V189.749C127.998 188.55 127.017 187.568 125.818 187.568H130.178C131.377 187.568 132.358 188.55 132.358 189.749Z" fill="#171C23"/>
<path d="M114.918 161.395V176.662C114.918 177.861 113.937 178.843 112.738 178.843H64.7814C63.5827 178.843 62.6016 177.861 62.6016 176.662V161.395C62.6016 160.195 63.5827 159.214 64.7814 159.214H112.738C113.937 159.214 114.918 160.195 114.918 161.395Z" fill="#E8A615"/>
<path d="M106.2 101.636V107.961C106.2 110.97 103.759 113.413 100.75 113.413H96.3906C99.3988 113.413 101.84 110.97 101.84 107.961V101.636H106.2Z" fill="#B7791D"/>
<path d="M65.8719 92.6933H54.9727C24.8802 92.6933 0.476562 68.2766 0.476562 38.1676V19.6291C0.476562 17.2189 2.42764 15.2671 4.83625 15.2671H40.8039V23.9911H9.19595V38.1676C9.19595 63.1404 29.2725 83.5109 54.1336 83.9581L65.8719 92.6933Z" fill="#E8A615"/>
<path d="M142.166 6.54297V10.905C142.166 63.9037 118.253 106.87 88.7599 106.87C59.2666 106.87 35.3535 63.9041 35.3535 10.905V6.54297H142.166Z" fill="#E8A615"/>
<path d="M35.8446 23.9911H31.4849C31.2669 21.123 31.1252 18.2116 31.0488 15.2671H35.4085C35.4849 18.2112 35.6265 21.123 35.8446 23.9911Z" fill="#B7791D"/>
<path d="M60.8126 92.693H56.4529C54.0224 90.0103 51.7117 86.9787 49.5645 83.6416C51.0687 83.827 52.5834 83.9253 54.1314 83.9579C56.2241 87.1749 58.4585 90.0975 60.8126 92.693Z" fill="#B7791D"/>
<path d="M106.2 101.636V103.817C100.728 107.208 94.8645 109.051 88.761 109.051C82.6575 109.051 76.7936 107.208 71.3223 103.817V101.636C76.7936 105.027 82.6575 106.87 88.761 106.87C94.8645 106.87 100.728 105.027 106.2 101.636Z" fill="#B7791D"/>
<path d="M142.167 6.54297V10.905C142.167 62.2463 119.726 104.177 91.5078 106.75C118.93 104.144 129.088 62.2248 129.088 10.905V6.54297H142.167Z" fill="#B7791D"/>
<path d="M147.616 5.45249C147.616 6.95754 147.006 8.32057 146.025 9.3128C145.033 10.2943 143.671 10.905 142.167 10.905H35.3541C32.3459 10.905 29.9043 8.46221 29.9043 5.45249C29.9043 3.94744 30.5146 2.58442 31.4957 1.59218C32.4876 0.610694 33.8498 0 35.3541 0H142.167C145.175 0 147.616 2.44278 147.616 5.45249Z" fill="#E8A615"/>
<path d="M142.166 10.9048C142.166 12.3661 142.144 13.8166 142.112 15.2668H35.408C35.3754 13.8162 35.3535 12.3661 35.3535 10.9048H142.166Z" fill="#B7791D"/>
<path d="M147.617 5.45249C147.617 6.95754 147.007 8.32057 146.025 9.3128C145.034 10.2943 143.671 10.905 142.167 10.905H130.178C131.682 10.905 133.044 10.2943 134.036 9.3128C135.017 8.32057 135.628 6.95716 135.628 5.45249C135.628 2.44278 133.186 0 130.178 0H142.167C145.176 0 147.617 2.44278 147.617 5.45249Z" fill="#B7791D"/>
<path d="M114.917 161.395V176.662C114.917 177.862 113.935 178.843 112.737 178.843H69.4668C78.2733 178.669 107.287 176.793 107.287 159.214H112.737C113.936 159.214 114.917 160.196 114.917 161.395Z" fill="#B7791D"/>
<path d="M64.7832 171.21V162.288C64.7832 161.795 65.1824 161.396 65.6749 161.396H85.2194C85.2194 161.396 69.688 163.031 64.7832 171.21Z" fill="#FFCC66"/>
<path d="M54.1543 162.486V153.564C54.1543 153.071 54.5535 152.672 55.046 152.672H74.5905C74.5905 152.672 59.0587 154.307 54.1543 162.486Z" fill="#4E5868"/>
<path d="M88.7585 103.598C76.922 103.598 44.0934 78.6149 40.1152 19.6289H53.0634C56.3222 91.7991 88.7585 103.598 88.7585 103.598Z" fill="#FFCC66"/>
<path d="M65.8711 146.129C65.8711 146.129 81.13 136.315 81.13 122.138V146.129H65.8711Z" fill="#FFCC66"/>
<path d="M37.5338 2.18115V5.45265H32.084C32.084 3.65319 33.5445 2.18115 35.3539 2.18115H37.5338Z" fill="#FFCC66"/>
<path d="M145.384 15.2671C145.307 18.2116 145.165 21.123 144.937 23.9911H135.629L136.719 15.2671H145.384Z" fill="#B7791D"/>
<path d="M126.789 83.7725C124.653 87.0547 122.375 90.0429 119.977 92.693H114.92L118.778 88.7237L123.389 83.9582C124.533 83.936 125.667 83.8707 126.789 83.7725Z" fill="#B7791D"/>
</svg>
