<svg width="177" height="199" viewBox="0 0 177 199" fill="none" xmlns="http://www.w3.org/2000/svg">
<path d="M88.5206 198.831C125.828 198.831 156.072 197.977 156.072 196.924C156.072 195.871 125.828 195.017 88.5206 195.017C51.2127 195.017 20.9688 195.871 20.9688 196.924C20.9688 197.977 51.2127 198.831 88.5206 198.831Z" fill="#D8DFEA"/>
<path d="M176.569 19.6292V38.168C176.569 68.2771 152.166 92.6937 122.073 92.6937H114.443L122.912 83.9586C147.773 83.5114 167.85 63.1409 167.85 38.168V23.9916H135.152L136.242 15.2676H172.21C174.618 15.2668 176.569 17.219 176.569 19.6292Z" fill="#865058"/>
<path d="M116.621 145.222V154.851H59.9453V145.222C59.9453 144.437 60.3702 143.707 61.0569 143.325L65.3514 140.904C72.7845 136.717 77.3841 128.854 77.3841 120.315V110.141H99.1825V120.315C99.1825 128.854 103.782 136.716 111.215 140.904L115.51 143.325C116.196 143.707 116.621 144.437 116.621 145.222Z" fill="#865058"/>
<path d="M116.623 145.222V154.851H111.173V145.222C111.173 144.437 110.748 143.707 110.062 143.325L105.767 140.904C98.334 136.717 93.7344 128.854 93.7344 120.315V110.141H99.1842V120.315C99.1842 128.854 103.784 136.716 111.217 140.904L115.511 143.325C116.198 143.707 116.623 144.437 116.623 145.222Z" fill="#501921"/>
<path d="M105.722 101.636V107.961C105.722 110.97 103.28 113.413 100.272 113.413H76.2936C73.2854 113.413 70.8438 110.97 70.8438 107.961V101.636H105.722Z" fill="#865058"/>
<path d="M99.1832 113.413H77.3848V116.619H99.1832V113.413Z" fill="#501921"/>
<path d="M125.339 152.671V190.839H51.2246V152.671C51.2246 151.472 52.2057 150.49 53.4045 150.49H123.16C124.359 150.49 125.339 151.472 125.339 152.671Z" fill="#343B49"/>
<path d="M125.34 152.671V190.839H120.981V152.671C120.981 151.472 120 150.49 118.801 150.49H123.16C124.36 150.49 125.34 151.472 125.34 152.671Z" fill="#262D38"/>
<path d="M131.881 189.748V194.11C131.881 195.31 130.9 196.291 129.701 196.291H46.8673C45.6686 196.291 44.6875 195.31 44.6875 194.11V189.748C44.6875 188.549 45.6686 187.567 46.8673 187.567H129.701C130.901 187.567 131.881 188.549 131.881 189.748Z" fill="#262D38"/>
<path d="M131.881 189.748V194.11C131.881 195.31 130.9 196.291 129.701 196.291H125.342C126.541 196.291 127.522 195.31 127.522 194.11V189.748C127.522 188.549 126.541 187.567 125.342 187.567H129.701C130.901 187.567 131.881 188.549 131.881 189.748Z" fill="#171C23"/>
<path d="M114.441 161.395V176.662C114.441 177.861 113.46 178.843 112.261 178.843H64.3048C63.1061 178.843 62.125 177.861 62.125 176.662V161.395C62.125 160.195 63.1061 159.214 64.3048 159.214H112.261C113.461 159.214 114.441 160.195 114.441 161.395Z" fill="#865058"/>
<path d="M105.724 101.636V107.961C105.724 110.97 103.282 113.413 100.274 113.413H95.9141C98.9222 113.413 101.364 110.97 101.364 107.961V101.636H105.724Z" fill="#501921"/>
<path d="M65.3954 92.6937H54.4961C24.4036 92.6937 0 68.2771 0 38.168V19.6296C0 17.2194 1.95108 15.2676 4.35969 15.2676H40.3273V23.9916H8.71938V38.168C8.71938 63.1409 28.7959 83.5114 53.6571 83.9586L65.3954 92.6937Z" fill="#865058"/>
<path d="M141.69 6.54297V10.905C141.69 63.9037 117.777 106.87 88.2834 106.87C58.79 106.87 34.877 63.9041 34.877 10.905V6.54297H141.69Z" fill="#865058"/>
<path d="M35.368 23.9916H31.0083C30.7903 21.1235 30.6487 18.212 30.5723 15.2676H34.932C35.0083 18.2117 35.15 21.1235 35.368 23.9916Z" fill="#501921"/>
<path d="M60.336 92.693H55.9763C53.5458 90.0103 51.2351 86.9787 49.0879 83.6416C50.5922 83.827 52.1068 83.9253 53.6549 83.9579C55.7476 87.1749 57.9819 90.0975 60.336 92.693Z" fill="#501921"/>
<path d="M105.723 101.636V103.817C100.252 107.208 94.388 109.051 88.2845 109.051C82.181 109.051 76.317 107.208 70.8457 103.817V101.636C76.317 105.027 82.181 106.87 88.2845 106.87C94.388 106.87 100.252 105.027 105.723 101.636Z" fill="#501921"/>
<path d="M141.691 6.54297V10.905C141.691 62.2463 119.249 104.177 91.0312 106.75C118.454 104.144 128.612 62.2248 128.612 10.905V6.54297H141.691Z" fill="#501921"/>
<path d="M147.142 5.45249C147.142 6.95754 146.531 8.32057 145.55 9.3128C144.558 10.2943 143.196 10.905 141.692 10.905H34.8795C31.8713 10.905 29.4297 8.46221 29.4297 5.45249C29.4297 3.94744 30.04 2.58442 31.0211 1.59218C32.013 0.610694 33.3752 0 34.8795 0H141.692C144.7 0 147.142 2.44278 147.142 5.45249Z" fill="#865058"/>
<path d="M141.69 10.9053C141.69 12.3666 141.668 13.8171 141.635 15.2673H34.9315C34.8988 13.8167 34.877 12.3666 34.877 10.9053H141.69Z" fill="#501921"/>
<path d="M147.14 5.45249C147.14 6.95754 146.53 8.32057 145.549 9.3128C144.557 10.2943 143.195 10.905 141.691 10.905H129.701C131.205 10.905 132.568 10.2943 133.56 9.3128C134.541 8.32057 135.151 6.95716 135.151 5.45249C135.151 2.44278 132.71 0 129.701 0H141.691C144.699 0 147.14 2.44278 147.14 5.45249Z" fill="#501921"/>
<path d="M114.442 161.395V176.662C114.442 177.862 113.461 178.843 112.262 178.843H68.9922C77.7987 178.669 106.813 176.793 106.813 159.214H112.262C113.461 159.214 114.442 160.196 114.442 161.395Z" fill="#501921"/>
<path d="M64.3066 171.21V162.288C64.3066 161.795 64.7058 161.396 65.1983 161.396H84.7428C84.7428 161.396 69.2114 163.031 64.3066 171.21Z" fill="#A0616A"/>
<path d="M53.6777 162.486V153.564C53.6777 153.071 54.0769 152.672 54.5694 152.672H74.1139C74.1139 152.672 58.5821 154.307 53.6777 162.486Z" fill="#4E5868"/>
<path d="M88.282 103.598C76.4454 103.598 43.6168 78.6149 39.6387 19.6289H52.5869C55.8457 91.7991 88.282 103.598 88.282 103.598Z" fill="#A0616A"/>
<path d="M65.3965 146.129C65.3965 146.129 80.6554 136.315 80.6554 122.138V146.129H65.3965Z" fill="#A0616A"/>
<path d="M37.0572 2.18066V5.45216H31.6074C31.6074 3.6527 33.0679 2.18066 34.8774 2.18066H37.0572Z" fill="#A0616A"/>
<path d="M144.907 15.2666C144.831 18.2111 144.689 21.1225 144.46 23.9906H135.152L136.242 15.2666H144.907Z" fill="#501921"/>
<path d="M126.313 83.7725C124.176 87.0547 121.898 90.0429 119.5 92.693H114.443L118.302 88.7237L122.912 83.9582C124.057 83.936 125.19 83.8707 126.313 83.7725Z" fill="#501921"/>
</svg>
