<svg width="64" height="62" viewBox="0 0 64 62" fill="none" xmlns="http://www.w3.org/2000/svg">
<path d="M32 59.5002C32 59.5002 22.7804 58.2502 16.9234 58.2502C14.1334 58.2502 10.6153 58.5338 7.69578 58.8308C4.67845 59.1378 2 56.7964 2 53.7635V15.2615C2 13.2794 3.16954 11.4677 5.07342 10.9167C6.11488 10.6152 7.32725 10.3301 8.55655 10.1824M32 59.5002C32 59.5002 40.9131 58.2502 46.7701 58.2502C49.6188 58.2502 53.2992 58.5458 56.3284 58.8495C59.3372 59.1512 62 56.813 62 53.789V15.1172C62 13.2093 60.9118 11.4511 59.0763 10.9302C58.1891 10.6784 57.1498 10.4443 56.0307 10.3098M32 59.5002V51.9899M32 51.9899C32 51.9899 24.1856 50.7502 19.5 50.7502C17.8635 50.7502 15.9978 50.9017 14.2626 51.0989C11.1337 51.4546 8.27149 49.0614 8.29458 45.9124L8.55655 10.1824M32 51.9899C32 51.9899 39.4064 50.7502 44.092 50.7502C45.8335 50.7502 47.891 50.9394 49.7889 51.1772C52.8992 51.5669 55.7695 49.2182 55.7905 46.0836L56.0307 10.3098M32 51.9899V3.25M8.55655 10.1824V7.44847C8.55655 5.02069 10.3007 2.94183 12.7074 2.62283C15.0596 2.31105 17.9818 2 20.2783 2C24.8818 2 32 3.25 32 3.25M56.0307 10.3098V7.46638C56.0307 5.03068 54.2761 2.948 51.8607 2.6339C49.4351 2.31846 46.3965 2 44.0153 2C39.2977 2 32 3.25 32 3.25" stroke="#616E7C" stroke-width="3.75" stroke-linecap="round" stroke-linejoin="round"/>
</svg>
