<svg width="240" height="93" viewBox="0 0 240 93" fill="none" xmlns="http://www.w3.org/2000/svg">
<g filter="url(#filter0_d_31_639)">
<path d="M51.8486 36.0246H48.3088C48.1727 35.2683 47.9193 34.6027 47.5487 34.0278C47.178 33.453 46.7242 32.9652 46.1872 32.5643C45.6502 32.1634 45.0489 31.8609 44.3833 31.6566C43.7252 31.4524 43.0256 31.3503 42.2844 31.3503C40.9456 31.3503 39.7468 31.6869 38.6878 32.3601C37.6365 33.0332 36.8045 34.0203 36.1918 35.3212C35.5867 36.6222 35.2842 38.2105 35.2842 40.0863C35.2842 41.9772 35.5867 43.5732 36.1918 44.8741C36.8045 46.1751 37.6403 47.1583 38.6992 47.8239C39.7581 48.4895 40.9494 48.8223 42.273 48.8223C43.0067 48.8223 43.7025 48.724 44.3606 48.5274C45.0262 48.3231 45.6275 48.0244 46.1645 47.6311C46.7015 47.2378 47.1554 46.7575 47.526 46.1902C47.9042 45.6154 48.1651 44.9573 48.3088 44.2161L51.8486 44.2274C51.6595 45.3695 51.2927 46.4209 50.7481 47.3815C50.2111 48.3345 49.519 49.1589 48.6719 49.8548C47.8323 50.5431 46.8717 51.0763 45.7901 51.4545C44.7085 51.8327 43.5286 52.0218 42.2503 52.0218C40.2384 52.0218 38.4458 51.5453 36.8726 50.5922C35.2993 49.6317 34.0589 48.2589 33.1513 46.4738C32.2512 44.6888 31.8011 42.5596 31.8011 40.0863C31.8011 37.6055 32.255 35.4763 33.1626 33.6988C34.0702 31.9138 35.3107 30.5448 36.8839 29.5918C38.4572 28.6312 40.246 28.1509 42.2503 28.1509C43.4832 28.1509 44.6329 28.3286 45.6994 28.6841C46.7734 29.0321 47.7378 29.5464 48.5924 30.2271C49.4471 30.9003 50.1543 31.7247 50.7141 32.7004C51.2738 33.6686 51.6519 34.7766 51.8486 36.0246ZM60.8427 52.0898C59.7384 52.0898 58.74 51.8856 57.8475 51.4772C56.955 51.0612 56.2478 50.4599 55.7259 49.6733C55.2116 48.8866 54.9544 47.9223 54.9544 46.7802C54.9544 45.7969 55.1435 44.9876 55.5217 44.3522C55.8999 43.7169 56.4104 43.2139 57.0533 42.8433C57.6962 42.4727 58.4148 42.1928 59.209 42.0037C60.0032 41.8146 60.8125 41.6709 61.6369 41.5726C62.6807 41.4516 63.5278 41.3532 64.1783 41.2776C64.8288 41.1944 65.3015 41.062 65.5965 40.8805C65.8915 40.699 66.039 40.404 66.039 39.9956V39.9161C66.039 38.9253 65.7591 38.1576 65.1994 37.613C64.6472 37.0684 63.8228 36.7961 62.7261 36.7961C61.584 36.7961 60.6839 37.0495 60.0259 37.5563C59.3754 38.0555 58.9253 38.6114 58.6757 39.2241L55.4877 38.498C55.8658 37.4391 56.418 36.5844 57.1441 35.9339C57.8778 35.2758 58.7211 34.7993 59.6741 34.5044C60.6272 34.2018 61.6293 34.0505 62.6807 34.0505C63.3766 34.0505 64.114 34.1337 64.8931 34.3001C65.6797 34.459 66.4134 34.754 67.0941 35.1851C67.7824 35.6162 68.3459 36.2327 68.7846 37.0344C69.2233 37.8286 69.4426 38.861 69.4426 40.1317V51.7041H66.1297V49.3216H65.9936C65.7742 49.7602 65.4452 50.1914 65.0065 50.6149C64.5678 51.0385 64.0043 51.3902 63.316 51.6701C62.6278 51.9499 61.8033 52.0898 60.8427 52.0898ZM61.5802 49.3669C62.5181 49.3669 63.3198 49.1816 63.9854 48.811C64.6586 48.4404 65.1691 47.9563 65.5171 47.3588C65.8726 46.7537 66.0503 46.107 66.0503 45.4187V43.1723C65.9293 43.2933 65.6948 43.4068 65.3469 43.5127C65.0065 43.611 64.617 43.698 64.1783 43.7736C63.7396 43.8417 63.3123 43.906 62.8963 43.9665C62.4803 44.0194 62.1323 44.0648 61.8525 44.1026C61.1944 44.1858 60.5931 44.3258 60.0485 44.5224C59.5115 44.7191 59.0804 45.0027 58.7552 45.3733C58.4375 45.7364 58.2787 46.2205 58.2787 46.8255C58.2787 47.6651 58.5888 48.3005 59.209 48.7316C59.8292 49.1552 60.6196 49.3669 61.5802 49.3669ZM87.0196 38.532L83.945 39.0766C83.8164 38.6833 83.6122 38.3089 83.3323 37.9534C83.06 37.5979 82.6894 37.3067 82.2204 37.0798C81.7515 36.8529 81.1653 36.7394 80.4619 36.7394C79.5013 36.7394 78.6996 36.955 78.0567 37.3861C77.4137 37.8097 77.0923 38.358 77.0923 39.0312C77.0923 39.6136 77.3079 40.0825 77.739 40.438C78.1701 40.7935 78.866 41.0847 79.8265 41.3116L82.5948 41.947C84.1983 42.3176 85.3934 42.8887 86.18 43.6602C86.9666 44.4316 87.3599 45.4338 87.3599 46.6667C87.3599 47.7105 87.0574 48.6408 86.4523 49.4577C85.8548 50.267 85.019 50.9024 83.945 51.3637C82.8785 51.8251 81.6418 52.0558 80.235 52.0558C78.2836 52.0558 76.6914 51.6398 75.4585 50.8078C74.2257 49.9682 73.4693 48.777 73.1894 47.234L76.4683 46.7348C76.6725 47.5895 77.0923 48.2362 77.7276 48.6749C78.363 49.106 79.1912 49.3216 80.2123 49.3216C81.3242 49.3216 82.2129 49.0909 82.8785 48.6295C83.5441 48.1605 83.8769 47.5895 83.8769 46.9163C83.8769 46.3717 83.6727 45.9141 83.2642 45.5435C82.8634 45.1729 82.2469 44.893 81.4149 44.7039L78.4651 44.0572C76.8389 43.6866 75.6363 43.0967 74.8572 42.2874C74.0857 41.478 73.7 40.4532 73.7 39.2127C73.7 38.1841 73.9874 37.284 74.5622 36.5125C75.1371 35.741 75.9313 35.1397 76.9448 34.7086C77.9583 34.2699 79.1193 34.0505 80.4279 34.0505C82.3112 34.0505 83.7937 34.459 84.8753 35.2758C85.9569 36.0852 86.6717 37.1705 87.0196 38.532ZM94.4821 41.357V51.7041H91.0898V28.4686H94.4367V37.1138H94.6523C95.0607 36.1759 95.6847 35.4309 96.5243 34.8788C97.3638 34.3266 98.4606 34.0505 99.8144 34.0505C101.01 34.0505 102.053 34.2964 102.946 34.788C103.846 35.2796 104.542 36.0133 105.033 36.989C105.533 37.9572 105.782 39.1673 105.782 40.6196V51.7041H102.39V41.028C102.39 39.7497 102.061 38.7589 101.403 38.0555C100.745 37.3445 99.8296 36.989 98.6572 36.989C97.8555 36.989 97.1369 37.1592 96.5016 37.4996C95.8738 37.8399 95.3784 38.3391 95.0153 38.9972C94.6598 39.6476 94.4821 40.4343 94.4821 41.357ZM118.764 58.2391V34.2774H122.077V37.1025H122.361C122.557 36.7394 122.841 36.3196 123.212 35.8431C123.582 35.3666 124.097 34.9506 124.755 34.5951C125.413 34.2321 126.282 34.0505 127.364 34.0505C128.771 34.0505 130.027 34.406 131.131 35.117C132.235 35.828 133.101 36.8529 133.729 38.1916C134.364 39.5304 134.682 41.1415 134.682 43.0248C134.682 44.9082 134.368 46.523 133.74 47.8693C133.112 49.2081 132.25 50.2405 131.153 50.9666C130.057 51.6852 128.805 52.0445 127.398 52.0445C126.339 52.0445 125.473 51.8667 124.8 51.5112C124.134 51.1557 123.613 50.7397 123.234 50.2632C122.856 49.7867 122.565 49.3632 122.361 48.9925H122.157V58.2391H118.764ZM122.088 42.9908C122.088 44.2161 122.266 45.2901 122.622 46.2129C122.977 47.1357 123.492 47.858 124.165 48.3799C124.838 48.8942 125.662 49.1514 126.638 49.1514C127.652 49.1514 128.499 48.8829 129.179 48.3458C129.86 47.8013 130.374 47.0638 130.722 46.1335C131.078 45.2031 131.256 44.1556 131.256 42.9908C131.256 41.8411 131.082 40.8087 130.734 39.8935C130.393 38.9783 129.879 38.2559 129.191 37.7265C128.51 37.197 127.659 36.9323 126.638 36.9323C125.655 36.9323 124.823 37.1857 124.142 37.6924C123.469 38.1992 122.958 38.9064 122.61 39.814C122.262 40.7217 122.088 41.7806 122.088 42.9908ZM138.483 51.7041V34.2774H141.762V37.0457H141.943C142.261 36.1078 142.82 35.3704 143.622 34.8334C144.431 34.2888 145.347 34.0165 146.368 34.0165C146.58 34.0165 146.829 34.0241 147.117 34.0392C147.412 34.0543 147.642 34.0732 147.809 34.0959V37.3407C147.673 37.3029 147.43 37.2613 147.083 37.2159C146.735 37.163 146.387 37.1365 146.039 37.1365C145.237 37.1365 144.522 37.3067 143.894 37.6471C143.274 37.9799 142.783 38.445 142.42 39.0425C142.056 39.6325 141.875 40.3057 141.875 41.062V51.7041H138.483ZM150.744 51.7041V34.2774H154.137V51.7041H150.744ZM152.457 31.5886C151.868 31.5886 151.361 31.3919 150.937 30.9986C150.521 30.5977 150.313 30.1212 150.313 29.5691C150.313 29.0094 150.521 28.5329 150.937 28.1395C151.361 27.7387 151.868 27.5382 152.457 27.5382C153.047 27.5382 153.55 27.7387 153.966 28.1395C154.39 28.5329 154.602 29.0094 154.602 29.5691C154.602 30.1212 154.39 30.5977 153.966 30.9986C153.55 31.3919 153.047 31.5886 152.457 31.5886ZM158.337 51.7041V49.3783L167.777 37.3861V37.2273H158.644V34.2774H172.009V36.7508L162.932 48.5954V48.7543H172.326V51.7041H158.337ZM183.34 52.0558C181.623 52.0558 180.144 51.689 178.904 50.9553C177.671 50.2141 176.718 49.1741 176.045 47.8353C175.379 46.489 175.046 44.9119 175.046 43.1042C175.046 41.3192 175.379 39.746 176.045 38.3845C176.718 37.0231 177.656 35.9604 178.858 35.1964C180.069 34.4325 181.483 34.0505 183.102 34.0505C184.085 34.0505 185.038 34.2132 185.961 34.5384C186.883 34.8636 187.712 35.3742 188.445 36.07C189.179 36.7659 189.758 37.6697 190.181 38.7816C190.605 39.8859 190.817 41.2284 190.817 42.8092V44.0119H176.964V41.4705H187.492C187.492 40.578 187.311 39.7876 186.948 39.0993C186.585 38.4034 186.074 37.8551 185.416 37.4542C184.766 37.0533 184.002 36.8529 183.124 36.8529C182.171 36.8529 181.339 37.0873 180.628 37.5563C179.925 38.0177 179.38 38.6228 178.995 39.3716C178.616 40.1128 178.427 40.9183 178.427 41.7882V43.7736C178.427 44.9384 178.631 45.9293 179.04 46.7461C179.456 47.563 180.035 48.187 180.776 48.6181C181.517 49.0417 182.383 49.2535 183.374 49.2535C184.017 49.2535 184.603 49.1627 185.132 48.9812C185.662 48.7921 186.119 48.5122 186.505 48.1416C186.891 47.771 187.186 47.3134 187.39 46.7688L190.601 47.3474C190.344 48.2929 189.882 49.1211 189.217 49.8321C188.559 50.5355 187.731 51.0839 186.732 51.4772C185.741 51.8629 184.611 52.0558 183.34 52.0558ZM207.639 38.532L204.564 39.0766C204.436 38.6833 204.232 38.3089 203.952 37.9534C203.679 37.5979 203.309 37.3067 202.84 37.0798C202.371 36.8529 201.785 36.7394 201.081 36.7394C200.121 36.7394 199.319 36.955 198.676 37.3861C198.033 37.8097 197.712 38.358 197.712 39.0312C197.712 39.6136 197.927 40.0825 198.358 40.438C198.79 40.7935 199.485 41.0847 200.446 41.3116L203.214 41.947C204.818 42.3176 206.013 42.8887 206.799 43.6602C207.586 44.4316 207.979 45.4338 207.979 46.6667C207.979 47.7105 207.677 48.6408 207.072 49.4577C206.474 50.267 205.638 50.9024 204.564 51.3637C203.498 51.8251 202.261 52.0558 200.854 52.0558C198.903 52.0558 197.311 51.6398 196.078 50.8078C194.845 49.9682 194.089 48.777 193.809 47.234L197.088 46.7348C197.292 47.5895 197.712 48.2362 198.347 48.6749C198.982 49.106 199.811 49.3216 200.832 49.3216C201.944 49.3216 202.832 49.0909 203.498 48.6295C204.164 48.1605 204.496 47.5895 204.496 46.9163C204.496 46.3717 204.292 45.9141 203.884 45.5435C203.483 45.1729 202.866 44.893 202.034 44.7039L199.085 44.0572C197.458 43.6866 196.256 43.0967 195.477 42.2874C194.705 41.478 194.319 40.4532 194.319 39.2127C194.319 38.1841 194.607 37.284 195.182 36.5125C195.757 35.741 196.551 35.1397 197.564 34.7086C198.578 34.2699 199.739 34.0505 201.047 34.0505C202.931 34.0505 204.413 34.459 205.495 35.2758C206.576 36.0852 207.291 37.1705 207.639 38.532Z" fill="#0070F3"/>
</g>
<defs>
<filter id="filter0_d_31_639" x="0.764982" y="0.153586" width="238.251" height="92.7728" filterUnits="userSpaceOnUse" color-interpolation-filters="sRGB">
<feFlood flood-opacity="0" result="BackgroundImageFix"/>
<feColorMatrix in="SourceAlpha" type="matrix" values="0 0 0 0 0 0 0 0 0 0 0 0 0 0 0 0 0 0 127 0" result="hardAlpha"/>
<feOffset dy="3.6513"/>
<feGaussianBlur stdDeviation="15.518"/>
<feComposite in2="hardAlpha" operator="out"/>
<feColorMatrix type="matrix" values="0 0 0 0 0 0 0 0 0 0.439216 0 0 0 0 0.952941 0 0 0 1 0"/>
<feBlend mode="normal" in2="BackgroundImageFix" result="effect1_dropShadow_31_639"/>
<feBlend mode="normal" in="SourceGraphic" in2="effect1_dropShadow_31_639" result="shape"/>
</filter>
</defs>
</svg>
