<svg width="200" height="359" viewBox="0 0 200 359" fill="none" xmlns="http://www.w3.org/2000/svg">
<path d="M100 331.667C92.6362 331.667 86.6667 337.636 86.6667 345C86.6667 352.364 92.6362 358.333 100 358.333C107.364 358.333 113.333 352.364 113.333 345C113.333 337.636 107.364 331.667 100 331.667ZM97.5 1.09278e-07L97.5 345L102.5 345L102.5 -1.09278e-07L97.5 1.09278e-07Z" fill="white"/>
<path d="M186 331.667C178.636 331.667 172.667 337.636 172.667 345C172.667 352.364 178.636 358.333 186 358.333C193.364 358.333 199.333 352.364 199.333 345C199.333 337.636 193.364 331.667 186 331.667ZM183.5 1.09278e-07L183.5 345L188.5 345L188.5 -1.09278e-07L183.5 1.09278e-07Z" fill="white"/>
<path d="M14 331.667C6.63622 331.667 0.666682 337.636 0.666682 345C0.666682 352.364 6.63622 358.333 14 358.333C21.3638 358.333 27.3333 352.364 27.3333 345C27.3333 337.636 21.3638 331.667 14 331.667ZM11.5 1.09278e-07L11.5 345L16.5 345L16.5 -1.09278e-07L11.5 1.09278e-07Z" fill="white"/>
</svg>
