<svg width="1418" height="684" viewBox="0 0 1418 684" fill="none" xmlns="http://www.w3.org/2000/svg">
<mask id="mask0_137_369" style="mask-type:luminance" maskUnits="userSpaceOnUse" x="0" y="0" width="1418" height="684">
<path d="M1418 0H0V684H1418V0Z" fill="white"/>
</mask>
<g mask="url(#mask0_137_369)">
<path d="M-15.125 492.81V321.235L30.0808 330.264L82.3124 305.064L202.701 286.715L253.304 300.739L290.218 269.496L378.117 310.291L423.721 283.372L438.123 291.187L482.529 263.4L554.537 295.529L603.741 275.556V492.81H-15.125Z" fill="url(#paint0_linear_137_369)"/>
<path d="M366.117 492.809L590.541 214.934L646.947 250.612L691.352 263.4L758.559 223.454L774.161 233.876L816.164 196.536L883.371 263.4L908.574 252.978L954.179 271.214L1012.99 248.638L1054.99 263.4L1074.19 252.978L1196.61 281.635L1244.61 320.711L1425.03 357.182V492.809H366.117Z" fill="url(#paint1_linear_137_369)"/>
<path d="M590.542 214.935L533.17 472.876L388.662 464.894L590.542 214.935Z" fill="url(#paint2_linear_137_369)"/>
<path d="M1244.61 320.711L1196.6 281.635L1074.19 252.979L1181.67 296.856L1189.62 355.587L1334.27 492.809H1425.03L1463.38 358.416L1363.16 344.676L1298.89 310.291L1244.61 320.711Z" fill="url(#paint3_linear_137_369)"/>
<path d="M816.164 196.536L883.372 263.4L922.057 272.232L1216.32 472.876L1016.24 454.994L895.939 317.376L863.062 334.705L816.164 196.536Z" fill="url(#paint4_linear_137_369)"/>
<path d="M253.305 300.738L252.989 300.6L100.842 427.716L225.091 461.7L281.867 324.216L260.913 334.706L290.219 269.496L253.305 300.738Z" fill="url(#paint5_linear_137_369)"/>
<path d="M777.063 252.978L816.162 196.536L774.159 233.876L758.557 223.454L691.35 263.4L758.132 240.084L777.063 252.978Z" fill="url(#paint6_linear_137_369)"/>
<path d="M1408.6 388.168L1403.21 371.722L1398.17 387.103C1395.23 386.813 1392.29 386.523 1389.36 386.248L1376.52 362.094L1364.38 384.099C1361.15 383.843 1357.93 383.59 1354.72 383.355L1349.82 368.4L1345.14 382.677C1340.86 382.385 1336.6 382.114 1332.35 381.854L1323.12 353.689L1314.22 380.832C1312.59 380.749 1310.97 380.675 1309.34 380.597L1296.42 341.155L1283.84 379.533C1280.54 379.418 1277.25 379.325 1273.95 379.228L1269.72 366.306L1265.56 378.998C1262.35 378.917 1259.14 378.837 1255.95 378.772L1243.02 339.312L1230.21 378.422C1226.73 378.396 1223.26 378.381 1219.79 378.373L1216.32 367.784L1212.86 378.355C1208.79 378.358 1204.73 378.374 1200.68 378.399L1189.62 344.643L1178.48 378.648C1178.2 378.652 1177.93 378.656 1177.65 378.661L1162.92 333.729L1147.99 379.31C1146.11 379.362 1144.23 379.414 1142.35 379.47L1136.23 360.779L1129.97 379.865C1127.65 379.945 1125.33 380.032 1123.02 380.118L1109.53 338.951L1095.67 381.239C1093.76 381.325 1091.84 381.408 1089.93 381.497L1082.83 359.831L1075.5 382.203C1072.12 382.374 1068.74 382.551 1065.36 382.73L1056.13 354.556L1046.56 383.771C1043.21 383.962 1039.86 384.155 1036.52 384.352L1029.43 362.708L1022.05 385.226C1019.57 385.38 1017.09 385.534 1014.61 385.689L1002.73 349.42L990.339 387.242C987.479 387.428 984.622 387.615 981.765 387.802L976.031 370.299L970.043 388.578C966.456 388.816 962.87 389.056 959.287 389.295L949.332 358.91L938.934 390.653C935.51 390.882 932.086 391.109 928.666 391.335L922.634 372.924L916.337 392.146C871.293 400.908 821.701 413.276 771.632 411.896L762.442 383.842L753.091 412.384C750.136 412.448 747.177 412.5 744.216 412.554L735.742 386.689L727.187 412.8C725.188 412.819 723.186 412.827 721.186 412.842L709.042 375.775L696.893 412.86C693.911 412.844 690.929 412.826 687.942 412.794L682.344 395.704L676.797 412.634C672.246 412.558 667.687 412.463 663.12 412.35L655.646 389.534L648.312 411.919C645.676 411.83 643.031 411.722 640.39 411.619L628.948 376.692L617.844 410.584C616.11 410.492 614.373 410.392 612.637 410.294L602.25 378.589L592.284 409.006C589.261 408.793 586.234 408.567 583.201 408.335L575.55 384.98L568.297 407.116C566.941 406.998 565.58 406.872 564.223 406.751L548.851 359.831L535.036 402.001L522.153 362.678L509.272 401.995C507.786 401.889 506.3 401.785 504.812 401.681L495.453 373.117L486.484 400.492C485.038 400.404 483.593 400.32 482.147 400.235L468.753 359.355L455.802 398.883C453.114 398.763 450.425 398.647 447.739 398.536L442.053 381.183L436.51 398.102C357.582 395.259 299.665 382.352 211.899 387.466L201.765 356.533L191.302 388.47C187.233 388.681 183.2 388.897 179.213 389.117L175.067 376.463L170.763 389.597C167.616 389.779 164.496 389.965 161.403 390.153L148.367 350.363L134.767 391.874C133.273 391.976 131.787 392.079 130.311 392.183L121.667 365.801L112.603 393.466C110.192 393.647 107.81 393.828 105.454 394.01L94.9685 362.005L83.9157 395.744C80.9606 395.991 78.0584 396.238 75.2129 396.484L68.2704 375.292L60.9119 397.751C55.8109 398.214 50.9273 398.67 46.2744 399.114L41.5704 384.757L36.5564 400.06C33.1305 400.399 29.8559 400.729 26.7381 401.047L14.8723 364.827L2.14057 403.688C-9.04273 404.953 -15.125 405.733 -15.125 405.733V684H1418V389.164C1414.85 388.816 1411.73 388.496 1408.6 388.168Z" fill="url(#paint7_linear_137_369)"/>
<path d="M1425.03 425.668C1338.03 425.668 1257.96 394.219 1170.96 394.219C1100.41 394.219 1056.26 409.267 968.836 451.189V617.081H1425.03V425.668Z" fill="url(#paint8_linear_137_369)"/>
<path d="M858.364 448.006C769.104 430.001 673.279 416.557 583.106 416.557C299.169 416.557 68.4227 476.838 -60.5 511.633L318.197 639.419H858.364V448.006Z" fill="url(#paint9_linear_137_369)"/>
<path d="M-7.95312 394.221C345.696 394.221 440.084 456.463 595.402 456.463C750.72 456.463 843.913 401.137 971.753 401.137C1074.5 401.137 1167.69 437.445 1240.58 437.445C1313.45 437.445 1393.51 413.24 1436.52 413.24V597.373H-7.95312V394.221Z" fill="url(#paint10_linear_137_369)"/>
<path d="M-8.82422 476.748C84.0605 476.748 210.493 520.105 329.214 520.105C389.178 520.105 438.56 510.747 493.821 510.747C572.24 510.747 670.186 542.65 766.599 542.65C863.011 542.65 979.412 495.435 1132.26 495.435C1285.11 495.435 1425.03 526.911 1425.03 526.911V739.86H-8.82422V476.748Z" fill="url(#paint11_linear_137_369)"/>
<path d="M423.72 283.372L378.115 310.291L423.508 296.172L446.196 309.852L482.527 263.4L438.121 291.187L423.72 283.372Z" fill="url(#paint12_linear_137_369)"/>
<path d="M66.1728 347.814L100.84 317.275L202.7 286.715L82.3116 305.064L30.0781 330.262L66.1728 326.156V347.814Z" fill="url(#paint13_linear_137_369)"/>
</g>
<defs>
<linearGradient id="paint0_linear_137_369" x1="294.308" y1="569.544" x2="294.308" y2="238.308" gradientUnits="userSpaceOnUse">
<stop stop-color="#00214D"/>
<stop offset="1" stop-color="#0062AD"/>
</linearGradient>
<linearGradient id="paint1_linear_137_369" x1="895.573" y1="577.752" x2="895.573" y2="194.703" gradientUnits="userSpaceOnUse">
<stop stop-color="#00214D"/>
<stop offset="1" stop-color="#0062AD"/>
</linearGradient>
<linearGradient id="paint2_linear_137_369" x1="489.602" y1="392.792" x2="489.602" y2="214.105" gradientUnits="userSpaceOnUse">
<stop stop-color="#00518F"/>
<stop offset="1" stop-color="#00214D"/>
</linearGradient>
<linearGradient id="paint3_linear_137_369" x1="1268.78" y1="396.645" x2="1268.78" y2="182.082" gradientUnits="userSpaceOnUse">
<stop stop-color="#00518F"/>
<stop offset="1" stop-color="#00214D"/>
</linearGradient>
<linearGradient id="paint4_linear_137_369" x1="1016.24" y1="362.073" x2="1016.24" y2="114.846" gradientUnits="userSpaceOnUse">
<stop stop-color="#00518F"/>
<stop offset="1" stop-color="#00214D"/>
</linearGradient>
<linearGradient id="paint5_linear_137_369" x1="195.53" y1="384.633" x2="195.53" y2="212.678" gradientUnits="userSpaceOnUse">
<stop stop-color="#00518F"/>
<stop offset="1" stop-color="#00214D"/>
</linearGradient>
<linearGradient id="paint6_linear_137_369" x1="753.756" y1="328.32" x2="753.756" y2="204.123" gradientUnits="userSpaceOnUse">
<stop stop-color="#00214D"/>
<stop offset="1" stop-color="#00518F"/>
</linearGradient>
<linearGradient id="paint7_linear_137_369" x1="701.438" y1="699.048" x2="701.438" y2="348.777" gradientUnits="userSpaceOnUse">
<stop stop-color="#00518F"/>
<stop offset="0.2571" stop-color="#004A86"/>
<stop offset="0.6711" stop-color="#00366F"/>
<stop offset="1" stop-color="#002257"/>
</linearGradient>
<linearGradient id="paint8_linear_137_369" x1="1196.93" y1="494.961" x2="1196.93" y2="394.967" gradientUnits="userSpaceOnUse">
<stop stop-color="#00214D"/>
<stop offset="1" stop-color="#00518F"/>
</linearGradient>
<linearGradient id="paint9_linear_137_369" x1="398.932" y1="517.297" x2="398.932" y2="417.303" gradientUnits="userSpaceOnUse">
<stop stop-color="#00214D"/>
<stop offset="1" stop-color="#00518F"/>
</linearGradient>
<linearGradient id="paint10_linear_137_369" x1="714.281" y1="611.496" x2="714.281" y2="439.05" gradientUnits="userSpaceOnUse">
<stop stop-color="#00214D"/>
<stop offset="0.8817" stop-color="#004B87"/>
<stop offset="1" stop-color="#00518F"/>
</linearGradient>
<linearGradient id="paint11_linear_137_369" x1="708.102" y1="771.433" x2="708.102" y2="509.137" gradientUnits="userSpaceOnUse">
<stop offset="0.379313" stop-color="#000F21"/>
<stop offset="0.61416" stop-color="#002240"/>
<stop offset="0.953383" stop-color="#00518F"/>
</linearGradient>
<linearGradient id="paint12_linear_137_369" x1="430.321" y1="325.976" x2="430.321" y2="258.271" gradientUnits="userSpaceOnUse">
<stop stop-color="#00214D"/>
<stop offset="1" stop-color="#00518F"/>
</linearGradient>
<linearGradient id="paint13_linear_137_369" x1="116.389" y1="368.251" x2="116.389" y2="280.031" gradientUnits="userSpaceOnUse">
<stop stop-color="#00214D"/>
<stop offset="1" stop-color="#00518F"/>
</linearGradient>
</defs>
</svg>
