<svg width="382" height="165" viewBox="0 0 382 165" fill="none" xmlns="http://www.w3.org/2000/svg">
<g filter="url(#filter0_d_37_1504)">
<path d="M49.8087 98.4203V97.6853C50.7699 97.6853 53.4837 97.0634 53.4837 93.5014V63.7621C53.4837 60.0871 50.9395 59.5782 49.8652 59.5782V58.8432H67.5053V59.5782C66.4876 59.5217 63.8303 60.2001 63.8303 63.7621V76.9356H75.4773V63.7621C75.4773 60.3132 72.7069 59.5782 71.8022 59.5782V58.8432H89.4423V59.5782C88.0854 59.5782 85.8804 60.4828 85.8804 63.7621V92.3141C85.8804 96.2153 87.6896 97.6853 89.4423 97.6853V98.4203H71.8588V97.6853C72.8199 97.6853 75.4773 97.0068 75.4773 93.5014V78.971H63.8303V93.5014C63.8303 97.233 66.4311 97.6853 67.5053 97.6853V98.4203H49.8087ZM118.133 93.4449L118.246 93.9537C117.567 95.028 116.493 95.9326 114.966 96.7807C111.461 98.7595 107.616 98.4203 98.231 98.4203C93.1425 98.4203 90.5417 95.876 90.5983 90.8441C90.5983 85.9252 92.2379 83.6072 97.1002 81.7979C97.7787 81.5152 104.733 78.4056 105.468 78.1229V74.5044C105.468 72.2429 105.581 69.2463 103.263 69.2463C101.228 69.2463 100.662 71.621 100.662 73.8825C100.662 77.3314 98.5137 79.2537 96.139 79.5929C93.086 80.0452 90.881 76.5398 94.2167 72.5256C96.8741 69.2463 101.341 68.059 105.694 67.9459C109.482 67.9459 112.648 69.1898 114.175 72.356C114.853 73.7694 115.193 75.4091 115.193 77.3314V91.8053C115.193 95.9891 116.719 94.7453 118.133 93.4449ZM105.468 95.8195V79.9887L105.411 79.8756C103.037 80.441 101.849 82.0806 101.001 84.2856C100.153 86.7168 99.9271 94.6322 101.001 96.0457C102.019 97.4026 104.676 97.4026 105.468 95.8195ZM145.372 90.2222L146.22 90.8441C145.146 92.936 142.998 95.3107 141.019 96.4414C135.082 99.7207 127.619 98.8726 123.209 94.6887C120.665 92.0314 119.365 88.3564 119.365 84.5683C119.365 74.7871 126.093 67.9459 135.252 67.8894C140.397 67.8894 145.485 70.7163 145.938 76.9356C146.22 80.5541 144.185 86.1514 138.418 86.1514C133.951 86.1514 130.785 82.646 132.934 77.7837C135.365 80.441 140.906 78.8014 140.906 74.4479C140.906 71.1687 138.701 69.2463 136.1 69.3029C132.651 69.3594 129.541 73.7694 129.541 82.3068C129.541 89.1479 131.068 95.876 136.665 96.1022C140.227 96.2153 143.111 93.7276 145.372 90.2222ZM180.475 98.4203C185.959 108.767 192.178 107.919 196.306 105.488C196.306 105.488 195.231 111.537 186.185 111.537C177.139 111.537 172.673 105.657 168.771 98.4203C166.114 93.8407 164.135 89.261 161.591 83.8899V92.9926C161.591 96.1587 162.382 97.1764 163.966 97.6853V98.4203H148.417V97.7418C150.227 97.7418 151.414 96.3284 151.64 93.7276C151.64 81.8545 151.64 67.5502 151.697 64.4971C151.697 62.4052 151.244 60.9917 150.453 60.3132C149.605 59.6913 148.813 59.3521 147.909 59.3521L147.965 58.8432L152.488 57.4298C159.103 55.3378 161.308 50.3624 161.987 49.3447C163.231 47.479 165.831 45.9524 167.98 45.9524C176.234 45.9524 181.945 56.6948 176.065 61.6136C171.316 65.6279 164.192 62.0659 165.775 56.2424C165.775 56.2424 166.284 57.2601 168.545 57.2601C170.807 57.2601 173.068 54.7159 173.068 52.3978C173.068 49.4578 170.976 47.3093 167.98 47.3093C166.284 47.3093 164.135 48.6097 163.117 50.0797C162.156 51.6063 161.591 53.8113 161.591 56.7513V81.4587C161.987 81.176 165.266 80.0452 168.319 77.5575C172.673 73.9956 174.312 69.3029 170.92 68.794V67.9459H180.758V68.7375C177.365 68.7375 175.443 72.5256 173.464 75.4091C171.655 78.0098 170.298 78.971 170.298 78.971C177.591 92.936 179.061 95.876 180.475 98.4203ZM210.229 93.4449L210.342 93.9537C209.663 95.028 208.589 95.9326 207.063 96.7807C203.557 98.7595 199.713 98.4203 190.327 98.4203C185.239 98.4203 182.638 95.876 182.694 90.8441C182.694 85.9252 184.334 83.6072 189.196 81.7979C189.875 81.5152 196.829 78.4056 197.564 78.1229V74.5044C197.564 72.2429 197.677 69.2463 195.359 69.2463C193.324 69.2463 192.758 71.621 192.758 73.8825C192.758 77.3314 190.61 79.2537 188.235 79.5929C185.182 80.0452 182.977 76.5398 186.313 72.5256C188.97 69.2463 193.437 68.059 197.79 67.9459C201.578 67.9459 204.745 69.1898 206.271 72.356C206.95 73.7694 207.289 75.4091 207.289 77.3314V91.8053C207.289 95.9891 208.815 94.7453 210.229 93.4449ZM197.564 95.8195V79.9887L197.508 79.8756C195.133 80.441 193.946 82.0806 193.098 84.2856C192.249 86.7168 192.023 94.6322 193.098 96.0457C194.115 97.4026 196.773 97.4026 197.564 95.8195ZM230.684 91.5791L231.588 92.3141C231.588 92.3141 230.514 94.1799 229.44 95.2541C227.178 97.5157 224.634 98.4203 221.355 98.4203C218.924 98.4203 217.058 97.7418 215.701 96.3284C214.401 94.9149 213.722 93.1622 213.722 91.0703V70.0944H210.895V69.1898L222.486 59.9175H223.617V67.9459H230.91L230.627 70.0944H223.617V91.0703C223.617 92.5403 223.843 93.671 224.295 94.406C224.747 95.141 225.369 95.5368 226.048 95.5368C226.839 95.5368 227.687 95.141 228.535 94.406C229.383 93.671 230.118 92.7099 230.684 91.5791ZM262.457 93.671C262.401 96.1022 263.814 97.6287 265.341 97.5722V98.4203H250.697V97.6287C252.337 97.6287 252.902 95.0845 253.072 92.3707C253.298 88.1303 253.185 81.6283 253.072 77.3314C253.015 74.9002 251.489 73.091 249.397 73.091C248.379 73.091 247.361 73.4867 246.344 74.2783V92.201C246.344 94.5191 246.739 97.4591 248.888 97.6287V98.4203H233.736V97.6853C235.432 97.8549 236.449 96.6111 236.449 92.201V64.4406C236.449 62.3486 236.054 60.9917 235.206 60.3132C234.414 59.6348 233.566 59.2955 232.718 59.2955L232.774 58.8432L245.552 54.829L246.344 55.3944V72.469C248.492 70.3771 252.62 67.9459 255.673 67.9459C259.8 67.9459 262.401 71.9602 262.457 75.8048C262.57 81.5718 262.57 87.8476 262.457 93.671ZM282.454 67.9459C290.652 67.9459 296.702 73.3737 296.702 84.0595C296.702 94.6887 289.125 98.4203 281.719 98.4203C273.916 98.4203 266.566 95.3107 266.453 84.5118C266.397 75.3525 271.09 70.2075 277.761 68.5679C279.344 68.1721 280.927 67.9459 282.454 67.9459ZM283.98 96.6111C288.503 96.6111 286.751 84.0595 285.846 80.8368C283.924 73.939 281.945 69.6986 279.796 69.6986C274.821 69.6986 276.404 81.5152 277.196 85.1337C277.987 88.5826 280.758 96.6111 283.98 96.6111ZM329.448 75.2394V92.2576C329.448 95.028 329.166 97.0634 332.106 97.6287V98.4203H317.01V97.6853C319.78 97.233 319.554 95.141 319.554 92.3141V78.6318C319.554 76.9921 319.328 75.8048 318.876 75.0133C318.423 74.1652 317.802 73.7694 316.953 73.7694C315.936 73.7694 314.466 74.4479 312.6 75.8048V92.201C312.6 94.6322 312.261 97.1764 315.088 97.6853V98.4203H299.2V97.7418C301.914 97.1199 302.706 95.5368 302.706 91.9749V77.501C302.706 75.4656 302.31 74.0521 301.462 73.3737C300.67 72.6952 299.822 72.356 298.974 72.356L299.031 71.9037L311.808 67.8894L312.6 68.4548V73.5998C316.218 69.9813 319.272 67.7763 323.003 67.7763C326.848 67.7763 329.448 71.2252 329.448 75.2394Z" fill="white"/>
</g>
<defs>
<filter id="filter0_d_37_1504" x="0.690754" y="0.368097" width="380.533" height="163.821" filterUnits="userSpaceOnUse" color-interpolation-filters="sRGB">
<feFlood flood-opacity="0" result="BackgroundImageFix"/>
<feColorMatrix in="SourceAlpha" type="matrix" values="0 0 0 0 0 0 0 0 0 0 0 0 0 0 0 0 0 0 127 0" result="hardAlpha"/>
<feOffset dy="3.53367"/>
<feGaussianBlur stdDeviation="24.559"/>
<feComposite in2="hardAlpha" operator="out"/>
<feColorMatrix type="matrix" values="0 0 0 0 1 0 0 0 0 1 0 0 0 0 1 0 0 0 0.64 0"/>
<feBlend mode="normal" in2="BackgroundImageFix" result="effect1_dropShadow_37_1504"/>
<feBlend mode="normal" in="SourceGraphic" in2="effect1_dropShadow_37_1504" result="shape"/>
</filter>
</defs>
</svg>
