<svg width="26" height="25" viewBox="0 0 26 25" fill="none" xmlns="http://www.w3.org/2000/svg">
<path d="M12.7392 23.5002C12.7392 23.5002 9.13148 23.011 6.8396 23.011C5.74789 23.011 4.37123 23.122 3.22879 23.2383C2.04809 23.3584 1 22.4422 1 21.2554V6.18929C1 5.41371 1.45765 4.70476 2.20265 4.48914C2.61018 4.37119 3.08459 4.25962 3.56562 4.20181M12.7392 23.5002C12.7392 23.5002 16.2269 23.011 18.5188 23.011C19.6335 23.011 21.0737 23.1267 22.259 23.2456C23.4364 23.3636 24.4784 22.4487 24.4784 21.2654V6.13284C24.4784 5.38626 24.0525 4.69829 23.3343 4.49444C22.9871 4.3959 22.5805 4.30431 22.1425 4.25168M12.7392 23.5002V20.5613M12.7392 20.5613C12.7392 20.5613 9.68136 20.0762 7.84786 20.0762C7.20748 20.0762 6.47742 20.1355 5.79844 20.2127C4.57408 20.3519 3.45407 19.4154 3.46311 18.1832L3.56562 4.20181M12.7392 20.5613C12.7392 20.5613 15.6373 20.0762 17.4708 20.0762C18.1523 20.0762 18.9574 20.1503 19.7001 20.2433C20.9172 20.3958 22.0403 19.4768 22.0486 18.2502L22.1425 4.25168M12.7392 20.5613V1.48913M3.56562 4.20181V3.13202C3.56562 2.18201 4.24812 1.36855 5.18989 1.24372C6.11031 1.12172 7.25378 1 8.1524 1C9.95381 1 12.7392 1.48913 12.7392 1.48913M22.1425 4.25168V3.13903C22.1425 2.18592 21.4559 1.37096 20.5108 1.24805C19.5616 1.12462 18.3726 1 17.4409 1C15.5948 1 12.7392 1.48913 12.7392 1.48913" stroke="white" stroke-width="1.4674" stroke-linecap="round" stroke-linejoin="round"/>
</svg>
