<svg width="48" height="49" viewBox="0 0 48 49" fill="none" xmlns="http://www.w3.org/2000/svg">
<g id="bi:instagram" clip-path="url(#clip0_233_672)" filter="url(#filter0_d_233_672)">
<path id="Vector" d="M24 0.5C18.5725 0.5 17.89 0.525 15.7575 0.62C13.625 0.72 12.1725 1.055 10.9 1.55C9.56523 2.05205 8.35623 2.83957 7.3575 3.8575C6.34019 4.85674 5.55277 6.0656 5.05 7.4C4.555 8.67 4.2175 10.125 4.12 12.25C4.025 14.3875 4 15.0675 4 20.5025C4 25.9325 4.025 26.6125 4.12 28.745C4.22 30.875 4.555 32.3275 5.05 33.6C5.5625 34.915 6.245 36.03 7.3575 37.1425C8.4675 38.255 9.5825 38.94 10.8975 39.45C12.1725 39.945 13.6225 40.2825 15.7525 40.38C17.8875 40.475 18.5675 40.5 24 40.5C29.4325 40.5 30.11 40.475 32.245 40.38C34.3725 40.28 35.83 39.945 37.1025 39.45C38.4364 38.9477 39.6445 38.1602 40.6425 37.1425C41.755 36.03 42.4375 34.915 42.95 33.6C43.4425 32.3275 43.78 30.875 43.88 28.745C43.975 26.6125 44 25.9325 44 20.5C44 15.0675 43.975 14.3875 43.88 12.2525C43.78 10.125 43.4425 8.67 42.95 7.4C42.4473 6.06556 41.6599 4.85669 40.6425 3.8575C39.6441 2.83919 38.435 2.05161 37.1 1.55C35.825 1.055 34.37 0.7175 32.2425 0.62C30.1075 0.525 29.43 0.5 23.995 0.5H24ZM22.2075 4.105H24.0025C29.3425 4.105 29.975 4.1225 32.0825 4.22C34.0325 4.3075 35.0925 4.635 35.7975 4.9075C36.73 5.27 37.3975 5.705 38.0975 6.405C38.7975 7.105 39.23 7.77 39.5925 8.705C39.8675 9.4075 40.1925 10.4675 40.28 12.4175C40.3775 14.525 40.3975 15.1575 40.3975 20.495C40.3975 25.8325 40.3775 26.4675 40.28 28.575C40.1925 30.525 39.865 31.5825 39.5925 32.2875C39.2719 33.1559 38.7601 33.9411 38.095 34.585C37.395 35.285 36.73 35.7175 35.795 36.08C35.095 36.355 34.035 36.68 32.0825 36.77C29.975 36.865 29.3425 36.8875 24.0025 36.8875C18.6625 36.8875 18.0275 36.865 15.92 36.77C13.97 36.68 12.9125 36.355 12.2075 36.08C11.3387 35.7598 10.5528 35.2489 9.9075 34.585C9.24188 33.9401 8.72931 33.1541 8.4075 32.285C8.135 31.5825 7.8075 30.5225 7.72 28.5725C7.625 26.465 7.605 25.8325 7.605 20.49C7.605 15.15 7.625 14.52 7.72 12.4125C7.81 10.4625 8.135 9.4025 8.41 8.6975C8.7725 7.765 9.2075 7.0975 9.9075 6.3975C10.6075 5.6975 11.2725 5.265 12.2075 4.9025C12.9125 4.6275 13.97 4.3025 15.92 4.2125C17.765 4.1275 18.48 4.1025 22.2075 4.1V4.105ZM34.6775 7.425C34.3623 7.425 34.0502 7.48708 33.7591 7.60769C33.4679 7.7283 33.2033 7.90508 32.9804 8.12794C32.7576 8.3508 32.5808 8.61538 32.4602 8.90656C32.3396 9.19774 32.2775 9.50983 32.2775 9.825C32.2775 10.1402 32.3396 10.4523 32.4602 10.7434C32.5808 11.0346 32.7576 11.2992 32.9804 11.5221C33.2033 11.7449 33.4679 11.9217 33.7591 12.0423C34.0502 12.1629 34.3623 12.225 34.6775 12.225C35.314 12.225 35.9245 11.9721 36.3746 11.5221C36.8246 11.072 37.0775 10.4615 37.0775 9.825C37.0775 9.18848 36.8246 8.57803 36.3746 8.12794C35.9245 7.67786 35.314 7.425 34.6775 7.425ZM24.0025 10.23C22.6402 10.2087 21.2872 10.4587 20.0224 10.9654C18.7577 11.472 17.6063 12.2252 16.6354 13.1811C15.6645 14.1369 14.8934 15.2764 14.3671 16.5331C13.8408 17.7899 13.5698 19.1388 13.5698 20.5012C13.5698 21.8637 13.8408 23.2126 14.3671 24.4693C14.8934 25.7261 15.6645 26.8656 16.6354 27.8214C17.6063 28.7773 18.7577 29.5305 20.0224 30.0371C21.2872 30.5438 22.6402 30.7938 24.0025 30.7725C26.6989 30.7304 29.2705 29.6298 31.1624 27.7081C33.0544 25.7865 34.1148 23.1979 34.1147 20.5012C34.1148 17.8046 33.0544 15.216 31.1624 13.2944C29.2705 11.3727 26.6989 10.2721 24.0025 10.23ZM24.0025 13.8325C24.8781 13.8325 25.7451 14.005 26.554 14.34C27.363 14.6751 28.098 15.1662 28.7171 15.7854C29.3363 16.4045 29.8274 17.1395 30.1625 17.9485C30.4975 18.7574 30.67 19.6244 30.67 20.5C30.67 21.3756 30.4975 22.2426 30.1625 23.0515C29.8274 23.8605 29.3363 24.5955 28.7171 25.2146C28.098 25.8338 27.363 26.3249 26.554 26.66C25.7451 26.995 24.8781 27.1675 24.0025 27.1675C22.2342 27.1675 20.5383 26.465 19.2879 25.2146C18.0375 23.9642 17.335 22.2683 17.335 20.5C17.335 18.7317 18.0375 17.0358 19.2879 15.7854C20.5383 14.535 22.2342 13.8325 24.0025 13.8325Z" fill="white"/>
</g>
<defs>
<filter id="filter0_d_233_672" x="0" y="0.5" width="48" height="48" filterUnits="userSpaceOnUse" color-interpolation-filters="sRGB">
<feFlood flood-opacity="0" result="BackgroundImageFix"/>
<feColorMatrix in="SourceAlpha" type="matrix" values="0 0 0 0 0 0 0 0 0 0 0 0 0 0 0 0 0 0 127 0" result="hardAlpha"/>
<feOffset dy="4"/>
<feGaussianBlur stdDeviation="2"/>
<feComposite in2="hardAlpha" operator="out"/>
<feColorMatrix type="matrix" values="0 0 0 0 0 0 0 0 0 0 0 0 0 0 0 0 0 0 0.25 0"/>
<feBlend mode="normal" in2="BackgroundImageFix" result="effect1_dropShadow_233_672"/>
<feBlend mode="normal" in="SourceGraphic" in2="effect1_dropShadow_233_672" result="shape"/>
</filter>
<clipPath id="clip0_233_672">
<rect width="40" height="40" fill="white" transform="translate(4 0.5)"/>
</clipPath>
</defs>
</svg>
