<svg width="666" height="344" viewBox="0 0 666 344" fill="none" xmlns="http://www.w3.org/2000/svg">
<g filter="url(#filter0_d_161_1176)">
<path d="M85.1196 47.553C83.0943 47.5445 81.3638 47.0104 79.9281 45.9507C78.4924 44.8911 77.3943 43.3486 76.6338 41.3233C75.8732 39.298 75.4929 36.8582 75.4929 34.0039C75.4929 31.1583 75.8732 28.727 76.6338 26.7103C77.4029 24.6935 78.5053 23.1553 79.9409 22.0956C81.3851 21.036 83.1113 20.5061 85.1196 20.5061C87.1278 20.5061 88.8497 21.0402 90.2854 22.1085C91.7211 23.1681 92.8192 24.7063 93.5797 26.7231C94.3488 28.7313 94.7334 31.1583 94.7334 34.0039C94.7334 36.8667 94.3531 39.3108 93.5925 41.3361C92.832 43.3528 91.7339 44.8953 90.2982 45.9635C88.8625 47.0232 87.1363 47.553 85.1196 47.553ZM85.1196 44.1305C86.8971 44.1305 88.2857 43.2631 89.2856 41.5284C90.2939 39.7936 90.7981 37.2855 90.7981 34.0039C90.7981 31.8248 90.5674 29.9832 90.1059 28.4792C89.653 26.9666 88.9993 25.8215 88.1447 25.0439C87.2987 24.2577 86.2903 23.8646 85.1196 23.8646C83.3506 23.8646 81.962 24.7362 80.9536 26.4795C79.9452 28.2228 79.4367 30.731 79.4282 34.0039C79.4282 36.1916 79.6546 38.0417 80.1076 39.5543C80.569 41.0583 81.2228 42.1992 82.0688 42.9768C82.9148 43.7459 83.9317 44.1305 85.1196 44.1305ZM99.2807 47.1172V44.2459L108.164 35.0422C109.112 34.0424 109.894 33.1665 110.51 32.4145C111.133 31.6539 111.599 30.9318 111.907 30.2481C112.214 29.5645 112.368 28.8381 112.368 28.069C112.368 27.1974 112.163 26.4453 111.753 25.813C111.343 25.1721 110.783 24.6807 110.074 24.3389C109.365 23.9885 108.566 23.8133 107.677 23.8133C106.737 23.8133 105.916 24.0056 105.216 24.3901C104.515 24.7747 103.977 25.3173 103.601 26.0181C103.225 26.7188 103.037 27.5392 103.037 28.4792H99.2551C99.2551 26.8812 99.6225 25.484 100.357 24.2876C101.092 23.0912 102.101 22.164 103.383 21.506C104.664 20.8394 106.121 20.5061 107.754 20.5061C109.403 20.5061 110.856 20.8352 112.112 21.4932C113.377 22.1426 114.364 23.0314 115.073 24.1594C115.782 25.2789 116.137 26.5436 116.137 27.9537C116.137 28.9279 115.953 29.8807 115.586 30.8122C115.227 31.7436 114.599 32.7819 113.701 33.927C112.804 35.0636 111.556 36.4437 109.958 38.0674L104.741 43.528V43.7203H116.56V47.1172H99.2807ZM131.33 47.1172V20.8651H147.609V24.2748H135.291V32.2735H146.443V35.6703H135.291V47.1172H131.33ZM159.213 47.5146C157.273 47.5146 155.603 47.1001 154.201 46.2712C152.808 45.4337 151.732 44.2587 150.971 42.7461C150.219 41.225 149.843 39.4432 149.843 37.4008C149.843 35.3841 150.219 33.6066 150.971 32.0684C151.732 30.5302 152.791 29.3295 154.15 28.4664C155.517 27.6033 157.115 27.1717 158.944 27.1717C160.055 27.1717 161.132 27.3555 162.174 27.7229C163.217 28.0904 164.153 28.6672 164.982 29.4534C165.81 30.2396 166.464 31.2608 166.943 32.517C167.421 33.7647 167.661 35.2815 167.661 37.0675V38.4263H152.009V35.555H163.905C163.905 34.5466 163.7 33.6536 163.289 32.8759C162.879 32.0897 162.302 31.4702 161.559 31.0173C160.824 30.5643 159.961 30.3379 158.97 30.3379C157.893 30.3379 156.953 30.6028 156.15 31.1326C155.355 31.6539 154.74 32.3375 154.304 33.1836C153.877 34.021 153.663 34.9311 153.663 35.9139V38.1571C153.663 39.4731 153.894 40.5926 154.355 41.5155C154.825 42.4385 155.479 43.1435 156.316 43.6306C157.154 44.1091 158.132 44.3484 159.252 44.3484C159.978 44.3484 160.64 44.2459 161.239 44.0408C161.837 43.8271 162.354 43.5109 162.79 43.0922C163.225 42.6735 163.559 42.1565 163.789 41.5412L167.417 42.1949C167.126 43.2631 166.605 44.1989 165.853 45.0021C165.11 45.7969 164.174 46.4164 163.046 46.8608C161.926 47.2966 160.649 47.5146 159.213 47.5146ZM172.221 47.1172V20.8651H176.053V30.6199H176.284C176.506 30.2097 176.827 29.7354 177.246 29.197C177.664 28.6587 178.245 28.1887 178.989 27.787C179.732 27.3768 180.715 27.1717 181.937 27.1717C183.527 27.1717 184.945 27.5734 186.193 28.3767C187.44 29.1799 188.419 30.3379 189.128 31.8505C189.846 33.363 190.205 35.1832 190.205 37.3111C190.205 39.439 189.85 41.2634 189.141 42.7846C188.432 44.2971 187.458 45.4636 186.218 46.284C184.979 47.0958 183.565 47.5017 181.976 47.5017C180.779 47.5017 179.801 47.3009 179.04 46.8993C178.288 46.4976 177.698 46.0276 177.271 45.4892C176.844 44.9509 176.515 44.4723 176.284 44.0536H175.964V47.1172H172.221ZM175.977 37.2726C175.977 38.657 176.177 39.8705 176.579 40.9131C176.981 41.9556 177.562 42.7717 178.322 43.3614C179.083 43.9425 180.014 44.233 181.117 44.233C182.262 44.233 183.219 43.9297 183.988 43.3229C184.757 42.7077 185.338 41.8745 185.731 40.8233C186.133 39.7722 186.334 38.5887 186.334 37.2726C186.334 35.9737 186.137 34.8072 185.744 33.7732C185.36 32.7392 184.779 31.9231 184.001 31.3249C183.232 30.7267 182.27 30.4276 181.117 30.4276C180.006 30.4276 179.066 30.7139 178.297 31.2864C177.536 31.859 176.959 32.658 176.566 33.6835C176.173 34.709 175.977 35.9053 175.977 37.2726ZM194.509 47.1172V27.4281H198.213V30.5558H198.418C198.777 29.4961 199.41 28.6629 200.315 28.0562C201.23 27.4409 202.264 27.1333 203.418 27.1333C203.657 27.1333 203.939 27.1418 204.264 27.1589C204.597 27.176 204.857 27.1974 205.045 27.223V30.8891C204.892 30.8463 204.618 30.7993 204.225 30.7481C203.832 30.6882 203.439 30.6583 203.046 30.6583C202.14 30.6583 201.332 30.8506 200.623 31.2352C199.922 31.6112 199.367 32.1367 198.957 32.8118C198.547 33.4784 198.341 34.2389 198.341 35.0935V47.1172H194.509ZM220.835 38.9519V27.4281H224.68V47.1172H220.911V43.7075H220.706C220.253 44.7586 219.527 45.6345 218.527 46.3353C217.536 47.0275 216.301 47.3736 214.823 47.3736C213.558 47.3736 212.439 47.0958 211.464 46.5404C210.499 45.9763 209.738 45.1432 209.183 44.0408C208.636 42.9384 208.362 41.5754 208.362 39.9517V27.4281H212.195V39.4902C212.195 40.8319 212.567 41.9001 213.31 42.6948C214.054 43.4896 215.019 43.8869 216.207 43.8869C216.925 43.8869 217.639 43.7075 218.348 43.3486C219.066 42.9897 219.66 42.447 220.13 41.7206C220.608 40.9943 220.843 40.0713 220.835 38.9519ZM235.56 47.553C234.312 47.553 233.184 47.3223 232.176 46.8608C231.167 46.3908 230.368 45.7114 229.779 44.8227C229.198 43.9339 228.907 42.8444 228.907 41.554C228.907 40.4431 229.121 39.5287 229.548 38.8109C229.975 38.093 230.552 37.5247 231.278 37.106C232.005 36.6873 232.817 36.3711 233.714 36.1574C234.611 35.9438 235.526 35.7814 236.457 35.6703C237.636 35.5336 238.593 35.4225 239.328 35.3371C240.063 35.2431 240.597 35.0935 240.931 34.8884C241.264 34.6833 241.431 34.35 241.431 33.8886V33.7988C241.431 32.6794 241.114 31.812 240.482 31.1967C239.858 30.5814 238.927 30.2738 237.688 30.2738C236.397 30.2738 235.38 30.5601 234.637 31.1326C233.902 31.6966 233.393 32.3247 233.111 33.0169L229.509 32.1965C229.937 31.0002 230.561 30.0345 231.381 29.2996C232.21 28.5561 233.163 28.0177 234.239 27.6845C235.316 27.3426 236.448 27.1717 237.636 27.1717C238.423 27.1717 239.256 27.2657 240.136 27.4537C241.025 27.6332 241.854 27.9665 242.623 28.4536C243.4 28.9407 244.037 29.6371 244.533 30.543C245.028 31.4403 245.276 32.6067 245.276 34.0424V47.1172H241.533V44.4253H241.379C241.131 44.921 240.76 45.4081 240.264 45.8866C239.768 46.3652 239.132 46.7625 238.354 47.0787C237.577 47.3949 236.645 47.553 235.56 47.553ZM236.393 44.4766C237.453 44.4766 238.358 44.2672 239.11 43.8485C239.871 43.4298 240.448 42.8828 240.841 42.2077C241.243 41.5241 241.443 40.7934 241.443 40.0158V37.4777C241.307 37.6145 241.042 37.7426 240.649 37.8623C240.264 37.9734 239.824 38.0717 239.328 38.1571C238.833 38.234 238.35 38.3067 237.88 38.375C237.41 38.4348 237.017 38.4861 236.701 38.5288C235.957 38.6228 235.278 38.7809 234.662 39.0031C234.056 39.2253 233.569 39.5458 233.201 39.9645C232.842 40.3747 232.663 40.9216 232.663 41.6053C232.663 42.5538 233.013 43.2717 233.714 43.7588C234.415 44.2373 235.308 44.4766 236.393 44.4766ZM250.381 47.1172V27.4281H254.086V30.5558H254.291C254.65 29.4961 255.282 28.6629 256.188 28.0562C257.102 27.4409 258.136 27.1333 259.29 27.1333C259.529 27.1333 259.811 27.1418 260.136 27.1589C260.469 27.176 260.73 27.1974 260.918 27.223V30.8891C260.764 30.8463 260.49 30.7993 260.097 30.7481C259.704 30.6882 259.311 30.6583 258.918 30.6583C258.012 30.6583 257.205 30.8506 256.495 31.2352C255.795 31.6112 255.239 32.1367 254.829 32.8118C254.419 33.4784 254.214 34.2389 254.214 35.0935V47.1172H250.381ZM267.256 54.5006C266.684 54.5006 266.163 54.4536 265.693 54.3596C265.223 54.2741 264.872 54.1801 264.642 54.0776L265.564 50.9371C266.265 51.1251 266.889 51.2063 267.436 51.1806C267.983 51.155 268.466 50.9499 268.884 50.5653C269.312 50.1808 269.688 49.5527 270.012 48.681L270.487 47.3736L263.283 27.4281H267.385L272.371 42.7077H272.576L277.562 27.4281H281.677L273.563 49.745C273.187 50.7704 272.709 51.6378 272.127 52.3471C271.546 53.0649 270.854 53.6033 270.051 53.9622C269.248 54.3211 268.316 54.5006 267.256 54.5006ZM294.781 47.1172V44.2459L303.664 35.0422C304.613 34.0424 305.394 33.1665 306.01 32.4145C306.634 31.6539 307.099 30.9318 307.407 30.2481C307.715 29.5645 307.868 28.8381 307.868 28.069C307.868 27.1974 307.663 26.4453 307.253 25.813C306.843 25.1721 306.283 24.6807 305.574 24.3389C304.865 23.9885 304.066 23.8133 303.177 23.8133C302.237 23.8133 301.416 24.0056 300.716 24.3901C300.015 24.7747 299.477 25.3173 299.101 26.0181C298.725 26.7188 298.537 27.5392 298.537 28.4792H294.755C294.755 26.8812 295.123 25.484 295.858 24.2876C296.592 23.0912 297.601 22.164 298.883 21.506C300.165 20.8394 301.622 20.5061 303.254 20.5061C304.903 20.5061 306.356 20.8352 307.612 21.4932C308.877 22.1426 309.864 23.0314 310.573 24.1594C311.282 25.2789 311.637 26.5436 311.637 27.9537C311.637 28.9279 311.453 29.8807 311.086 30.8122C310.727 31.7436 310.099 32.7819 309.202 33.927C308.304 35.0636 307.057 36.4437 305.459 38.0674L300.241 43.528V43.7203H312.06V47.1172H294.781ZM326.058 47.553C324.032 47.5445 322.302 47.0104 320.866 45.9507C319.431 44.8911 318.333 43.3486 317.572 41.3233C316.811 39.298 316.431 36.8582 316.431 34.0039C316.431 31.1583 316.811 28.727 317.572 26.7103C318.341 24.6935 319.443 23.1553 320.879 22.0956C322.323 21.036 324.05 20.5061 326.058 20.5061C328.066 20.5061 329.788 21.0402 331.224 22.1085C332.659 23.1681 333.757 24.7063 334.518 26.7231C335.287 28.7313 335.672 31.1583 335.672 34.0039C335.672 36.8667 335.291 39.3108 334.531 41.3361C333.77 43.3528 332.672 44.8953 331.236 45.9635C329.801 47.0232 328.075 47.553 326.058 47.553ZM326.058 44.1305C327.835 44.1305 329.224 43.2631 330.224 41.5284C331.232 39.7936 331.736 37.2855 331.736 34.0039C331.736 31.8248 331.506 29.9832 331.044 28.4792C330.591 26.9666 329.937 25.8215 329.083 25.0439C328.237 24.2577 327.229 23.8646 326.058 23.8646C324.289 23.8646 322.9 24.7362 321.892 26.4795C320.883 28.2228 320.375 30.731 320.366 34.0039C320.366 36.1916 320.593 38.0417 321.046 39.5543C321.507 41.0583 322.161 42.1992 323.007 42.9768C323.853 43.7459 324.87 44.1305 326.058 44.1305ZM340.219 47.1172V44.2459L349.102 35.0422C350.051 34.0424 350.833 33.1665 351.448 32.4145C352.072 31.6539 352.537 30.9318 352.845 30.2481C353.153 29.5645 353.307 28.8381 353.307 28.069C353.307 27.1974 353.101 26.4453 352.691 25.813C352.281 25.1721 351.721 24.6807 351.012 24.3389C350.303 23.9885 349.504 23.8133 348.615 23.8133C347.675 23.8133 346.855 24.0056 346.154 24.3901C345.453 24.7747 344.915 25.3173 344.539 26.0181C344.163 26.7188 343.975 27.5392 343.975 28.4792H340.193C340.193 26.8812 340.561 25.484 341.296 24.2876C342.031 23.0912 343.039 22.164 344.321 21.506C345.603 20.8394 347.06 20.5061 348.692 20.5061C350.341 20.5061 351.794 20.8352 353.05 21.4932C354.315 22.1426 355.302 23.0314 356.011 24.1594C356.721 25.2789 357.075 26.5436 357.075 27.9537C357.075 28.9279 356.891 29.8807 356.524 30.8122C356.165 31.7436 355.537 32.7819 354.64 33.927C353.742 35.0636 352.495 36.4437 350.897 38.0674L345.68 43.528V43.7203H357.498V47.1172H340.219ZM361.241 41.9898V38.7852L372.585 20.8651H375.111V25.5822H373.508L365.394 38.4263V38.6314H380.943V41.9898H361.241ZM373.688 47.1172V41.0156L373.713 39.5543V20.8651H377.469V47.1172H373.688Z" fill="white"/>
</g>
<g filter="url(#filter1_d_161_1176)">
<path d="M51.2507 15.7556L41.8423 15.7557V12.5889C41.8423 11.7111 41.3164 11 40.6672 11C40.018 11 39.4922 11.7111 39.4922 12.5889V15.7549H30.092V12.5889C30.092 11.7111 29.5662 11 28.917 11C28.2678 11 27.742 11.7111 27.742 12.5889V15.7549H18.35C17.0522 15.7549 16 17.1778 16 18.9328V58.6563C16 60.4112 17.0522 61.8341 18.35 61.8341H51.2507C52.5485 61.8341 53.6007 60.4112 53.6007 58.6563V18.9328C53.6007 17.1785 52.5485 15.7556 51.2507 15.7556ZM51.2507 58.6563H18.35V18.9328H27.742V20.5336C27.742 21.4115 28.2678 22.1226 28.917 22.1226C29.5662 22.1226 30.092 21.4115 30.092 20.5336V18.9336H39.4922V20.5344C39.4922 21.4123 40.018 22.1234 40.6672 22.1234C41.3164 22.1234 41.8423 21.4123 41.8423 20.5344V18.9336H51.2507V58.6563ZM43.0255 36.4119H45.3755C46.0242 36.4119 46.5506 35.7 46.5506 34.8229V31.645C46.5506 30.7679 46.0242 30.0561 45.3755 30.0561H43.0255C42.3769 30.0561 41.8505 30.7679 41.8505 31.645V34.8229C41.8505 35.7 42.3769 36.4119 43.0255 36.4119ZM43.0255 49.1226H45.3755C46.0242 49.1226 46.5506 48.4115 46.5506 47.5336V44.3558C46.5506 43.4787 46.0242 42.7668 45.3755 42.7668H43.0255C42.3769 42.7668 41.8505 43.4787 41.8505 44.3558V47.5336C41.8505 48.4123 42.3769 49.1226 43.0255 49.1226ZM35.9754 42.7668H33.6253C32.9767 42.7668 32.4503 43.4787 32.4503 44.3558V47.5336C32.4503 48.4115 32.9767 49.1226 33.6253 49.1226H35.9754C36.624 49.1226 37.1504 48.4115 37.1504 47.5336V44.3558C37.1504 43.4795 36.624 42.7668 35.9754 42.7668ZM35.9754 30.0561H33.6253C32.9767 30.0561 32.4503 30.7679 32.4503 31.645V34.8229C32.4503 35.7 32.9767 36.4119 33.6253 36.4119H35.9754C36.624 36.4119 37.1504 35.7 37.1504 34.8229V31.645C37.1504 30.7672 36.624 30.0561 35.9754 30.0561ZM26.5752 30.0561H24.2252C23.5765 30.0561 23.0501 30.7679 23.0501 31.645V34.8229C23.0501 35.7 23.5765 36.4119 24.2252 36.4119H26.5752C27.2238 36.4119 27.7502 35.7 27.7502 34.8229V31.645C27.7502 30.7672 27.2238 30.0561 26.5752 30.0561ZM26.5752 42.7668H24.2252C23.5765 42.7668 23.0501 43.4787 23.0501 44.3558V47.5336C23.0501 48.4115 23.5765 49.1226 24.2252 49.1226H26.5752C27.2238 49.1226 27.7502 48.4115 27.7502 47.5336V44.3558C27.7502 43.4795 27.2238 42.7668 26.5752 42.7668Z" fill="#006FEE"/>
</g>
<g filter="url(#filter2_d_161_1176)">
<path d="M90.9727 105.076V131.328H86.9989V109.05H86.8451L80.5641 113.152V109.357L87.1143 105.076H90.9727ZM98.0741 131.328V128.457L106.957 119.253C107.906 118.253 108.688 117.377 109.303 116.625C109.927 115.865 110.393 115.143 110.7 114.459C111.008 113.775 111.162 113.049 111.162 112.28C111.162 111.408 110.957 110.656 110.546 110.024C110.136 109.383 109.576 108.892 108.867 108.55C108.158 108.199 107.359 108.024 106.47 108.024C105.53 108.024 104.71 108.217 104.009 108.601C103.308 108.986 102.77 109.528 102.394 110.229C102.018 110.93 101.83 111.75 101.83 112.69H98.0484C98.0484 111.092 98.4159 109.695 99.1508 108.499C99.8857 107.302 100.894 106.375 102.176 105.717C103.458 105.05 104.915 104.717 106.547 104.717C108.196 104.717 109.649 105.046 110.905 105.704C112.17 106.354 113.157 107.242 113.866 108.37C114.576 109.49 114.93 110.755 114.93 112.165C114.93 113.139 114.747 114.092 114.379 115.023C114.02 115.955 113.392 116.993 112.495 118.138C111.597 119.275 110.35 120.655 108.752 122.278L103.535 127.739V127.931H115.353V131.328H98.0741ZM122.788 128.072C122.087 128.072 121.485 127.824 120.981 127.329C120.476 126.825 120.224 126.218 120.224 125.509C120.224 124.808 120.476 124.21 120.981 123.714C121.485 123.21 122.087 122.958 122.788 122.958C123.489 122.958 124.091 123.21 124.595 123.714C125.1 124.21 125.352 124.808 125.352 125.509C125.352 125.979 125.232 126.41 124.993 126.803C124.762 127.188 124.454 127.495 124.07 127.726C123.685 127.957 123.258 128.072 122.788 128.072ZM122.788 114.921C122.087 114.921 121.485 114.673 120.981 114.177C120.476 113.673 120.224 113.066 120.224 112.357C120.224 111.656 120.476 111.058 120.981 110.562C121.485 110.058 122.087 109.806 122.788 109.806C123.489 109.806 124.091 110.058 124.595 110.562C125.1 111.058 125.352 111.656 125.352 112.357C125.352 112.827 125.232 113.258 124.993 113.652C124.762 114.036 124.454 114.344 124.07 114.574C123.685 114.805 123.258 114.921 122.788 114.921ZM139.574 131.687C137.813 131.687 136.241 131.384 134.857 130.777C133.481 130.17 132.391 129.328 131.588 128.252C130.793 127.166 130.366 125.91 130.306 124.483H134.331C134.382 125.261 134.643 125.936 135.113 126.508C135.591 127.072 136.215 127.508 136.984 127.816C137.753 128.124 138.608 128.277 139.548 128.277C140.582 128.277 141.496 128.098 142.291 127.739C143.094 127.38 143.723 126.88 144.175 126.239C144.628 125.59 144.855 124.842 144.855 123.996C144.855 123.116 144.628 122.342 144.175 121.676C143.731 121.001 143.077 120.471 142.214 120.086C141.36 119.702 140.326 119.51 139.112 119.51H136.895V116.279H139.112C140.086 116.279 140.941 116.104 141.676 115.754C142.419 115.403 143 114.916 143.419 114.292C143.838 113.66 144.047 112.921 144.047 112.075C144.047 111.263 143.864 110.558 143.496 109.96C143.137 109.353 142.624 108.879 141.958 108.537C141.3 108.195 140.522 108.024 139.625 108.024C138.77 108.024 137.971 108.182 137.228 108.499C136.493 108.806 135.895 109.251 135.433 109.832C134.972 110.404 134.724 111.092 134.69 111.895H130.857C130.9 110.477 131.319 109.229 132.113 108.152C132.917 107.076 133.976 106.234 135.292 105.627C136.608 105.02 138.07 104.717 139.676 104.717C141.36 104.717 142.812 105.046 144.034 105.704C145.265 106.354 146.214 107.221 146.88 108.306C147.555 109.392 147.889 110.579 147.88 111.87C147.889 113.34 147.478 114.587 146.649 115.613C145.829 116.638 144.735 117.326 143.368 117.677V117.882C145.111 118.147 146.461 118.839 147.419 119.958C148.384 121.078 148.863 122.466 148.854 124.124C148.863 125.568 148.461 126.863 147.649 128.008C146.846 129.153 145.748 130.055 144.355 130.713C142.962 131.362 141.368 131.687 139.574 131.687ZM162.839 131.764C160.814 131.755 159.083 131.221 157.648 130.162C156.212 129.102 155.114 127.56 154.353 125.534C153.593 123.509 153.212 121.069 153.212 118.215C153.212 115.369 153.593 112.938 154.353 110.921C155.122 108.904 156.225 107.366 157.66 106.307C159.105 105.247 160.831 104.717 162.839 104.717C164.847 104.717 166.569 105.251 168.005 106.319C169.441 107.379 170.539 108.917 171.299 110.934C172.068 112.942 172.453 115.369 172.453 118.215C172.453 121.078 172.073 123.522 171.312 125.547C170.552 127.564 169.453 129.106 168.018 130.174C166.582 131.234 164.856 131.764 162.839 131.764ZM162.839 128.341C164.617 128.341 166.005 127.474 167.005 125.739C168.013 124.005 168.518 121.496 168.518 118.215C168.518 116.036 168.287 114.194 167.825 112.69C167.373 111.178 166.719 110.032 165.864 109.255C165.018 108.469 164.01 108.076 162.839 108.076C161.07 108.076 159.682 108.947 158.673 110.69C157.665 112.434 157.156 114.942 157.148 118.215C157.148 120.403 157.374 122.253 157.827 123.765C158.289 125.269 158.942 126.41 159.788 127.188C160.634 127.957 161.651 128.341 162.839 128.341ZM186.912 131.328V105.076H196.27C198.312 105.076 200.004 105.448 201.346 106.191C202.687 106.935 203.691 107.952 204.358 109.242C205.025 110.524 205.358 111.968 205.358 113.575C205.358 115.19 205.02 116.642 204.345 117.933C203.679 119.215 202.67 120.232 201.32 120.984C199.978 121.727 198.291 122.099 196.257 122.099H189.822V118.74H195.898C197.188 118.74 198.235 118.518 199.038 118.074C199.842 117.621 200.431 117.006 200.807 116.228C201.183 115.45 201.371 114.566 201.371 113.575C201.371 112.583 201.183 111.703 200.807 110.934C200.431 110.165 199.837 109.562 199.026 109.127C198.222 108.691 197.163 108.473 195.847 108.473H190.873V131.328H186.912ZM210.001 105.076H214.808L223.166 125.483H223.473L231.831 105.076H236.638V131.328H232.869V112.331H232.626L224.883 131.29H221.756L214.013 112.318H213.77V131.328H210.001V105.076Z" fill="white"/>
</g>
<g filter="url(#filter3_d_161_1176)">
<path d="M80.8841 211V184.748H84.845V207.59H96.7405V211H80.8841ZM100.951 211V191.311H104.784V211H100.951ZM102.887 188.273C102.22 188.273 101.648 188.051 101.169 187.606C100.699 187.153 100.464 186.615 100.464 185.991C100.464 185.359 100.699 184.821 101.169 184.376C101.648 183.923 102.22 183.697 102.887 183.697C103.554 183.697 104.122 183.923 104.592 184.376C105.07 184.821 105.31 185.359 105.31 185.991C105.31 186.615 105.07 187.153 104.592 187.606C104.122 188.051 103.554 188.273 102.887 188.273ZM110.248 211V184.748H114.081V194.503H114.311C114.534 194.093 114.854 193.618 115.273 193.08C115.691 192.541 116.273 192.071 117.016 191.67C117.76 191.26 118.742 191.055 119.964 191.055C121.554 191.055 122.972 191.456 124.22 192.259C125.468 193.063 126.446 194.221 127.155 195.733C127.873 197.246 128.232 199.066 128.232 201.194C128.232 203.322 127.878 205.146 127.168 206.667C126.459 208.18 125.485 209.346 124.246 210.167C123.007 210.979 121.592 211.385 120.003 211.385C118.806 211.385 117.828 211.184 117.067 210.782C116.315 210.38 115.726 209.91 115.298 209.372C114.871 208.834 114.542 208.355 114.311 207.936H113.991V211H110.248ZM114.004 201.155C114.004 202.54 114.205 203.753 114.606 204.796C115.008 205.838 115.589 206.655 116.35 207.244C117.11 207.825 118.042 208.116 119.144 208.116C120.289 208.116 121.246 207.812 122.015 207.206C122.784 206.59 123.365 205.757 123.759 204.706C124.16 203.655 124.361 202.471 124.361 201.155C124.361 199.857 124.164 198.69 123.771 197.656C123.387 196.622 122.806 195.806 122.028 195.208C121.259 194.61 120.298 194.31 119.144 194.31C118.033 194.31 117.093 194.597 116.324 195.169C115.563 195.742 114.986 196.541 114.593 197.566C114.2 198.592 114.004 199.788 114.004 201.155ZM132.536 211V191.311H136.24V194.439H136.446C136.805 193.379 137.437 192.546 138.343 191.939C139.257 191.324 140.291 191.016 141.445 191.016C141.684 191.016 141.966 191.025 142.291 191.042C142.624 191.059 142.885 191.08 143.073 191.106V194.772C142.919 194.729 142.645 194.682 142.252 194.631C141.859 194.571 141.466 194.541 141.073 194.541C140.167 194.541 139.36 194.733 138.65 195.118C137.95 195.494 137.394 196.02 136.984 196.695C136.574 197.361 136.369 198.122 136.369 198.976V211H132.536ZM151.943 211.436C150.695 211.436 149.567 211.205 148.559 210.744C147.551 210.274 146.752 209.594 146.162 208.706C145.581 207.817 145.29 206.727 145.29 205.437C145.29 204.326 145.504 203.411 145.931 202.694C146.358 201.976 146.935 201.408 147.662 200.989C148.388 200.57 149.2 200.254 150.097 200.04C150.994 199.827 151.909 199.664 152.84 199.553C154.02 199.416 154.977 199.305 155.712 199.22C156.447 199.126 156.981 198.976 157.314 198.771C157.647 198.566 157.814 198.233 157.814 197.771V197.682C157.814 196.562 157.498 195.695 156.865 195.08C156.241 194.464 155.31 194.157 154.071 194.157C152.781 194.157 151.764 194.443 151.02 195.015C150.285 195.579 149.777 196.208 149.495 196.9L145.893 196.079C146.32 194.883 146.944 193.917 147.764 193.182C148.593 192.439 149.546 191.901 150.623 191.567C151.7 191.225 152.832 191.055 154.02 191.055C154.806 191.055 155.639 191.149 156.519 191.337C157.408 191.516 158.237 191.849 159.006 192.336C159.784 192.823 160.42 193.52 160.916 194.426C161.412 195.323 161.659 196.49 161.659 197.925V211H157.916V208.308H157.763C157.515 208.804 157.143 209.291 156.647 209.769C156.152 210.248 155.515 210.645 154.737 210.962C153.96 211.278 153.028 211.436 151.943 211.436ZM152.776 208.359C153.836 208.359 154.742 208.15 155.494 207.731C156.254 207.313 156.831 206.766 157.224 206.091C157.626 205.407 157.827 204.676 157.827 203.899V201.361C157.69 201.497 157.425 201.625 157.032 201.745C156.647 201.856 156.207 201.954 155.712 202.04C155.216 202.117 154.733 202.189 154.263 202.258C153.793 202.318 153.4 202.369 153.084 202.412C152.34 202.506 151.661 202.664 151.046 202.886C150.439 203.108 149.952 203.429 149.584 203.847C149.226 204.258 149.046 204.804 149.046 205.488C149.046 206.437 149.396 207.154 150.097 207.642C150.798 208.12 151.691 208.359 152.776 208.359ZM166.764 211V191.311H170.469V194.439H170.674C171.033 193.379 171.665 192.546 172.571 191.939C173.485 191.324 174.519 191.016 175.673 191.016C175.912 191.016 176.194 191.025 176.519 191.042C176.852 191.059 177.113 191.08 177.301 191.106V194.772C177.147 194.729 176.874 194.682 176.481 194.631C176.088 194.571 175.695 194.541 175.301 194.541C174.396 194.541 173.588 194.733 172.879 195.118C172.178 195.494 171.623 196.02 171.212 196.695C170.802 197.361 170.597 198.122 170.597 198.976V211H166.764ZM183.64 218.383C183.067 218.383 182.546 218.336 182.076 218.242C181.606 218.157 181.256 218.063 181.025 217.96L181.948 214.82C182.649 215.008 183.272 215.089 183.819 215.063C184.366 215.038 184.849 214.833 185.268 214.448C185.695 214.064 186.071 213.435 186.396 212.564L186.87 211.256L179.666 191.311H183.768L188.754 206.59H188.959L193.946 191.311H198.061L189.946 213.628C189.57 214.653 189.092 215.521 188.511 216.23C187.93 216.948 187.237 217.486 186.434 217.845C185.631 218.204 184.699 218.383 183.64 218.383ZM213.741 211H209.536L218.983 184.748H223.56L233.007 211H228.802L221.38 189.516H221.175L213.741 211ZM214.446 200.72H228.084V204.052H214.446V200.72ZM248.962 202.835V191.311H252.808V211H249.039V207.59H248.834C248.381 208.641 247.655 209.517 246.655 210.218C245.664 210.91 244.429 211.256 242.951 211.256C241.686 211.256 240.566 210.979 239.592 210.423C238.627 209.859 237.866 209.026 237.311 207.924C236.764 206.821 236.49 205.458 236.49 203.835V191.311H240.323V203.373C240.323 204.715 240.695 205.783 241.438 206.578C242.182 207.372 243.147 207.77 244.335 207.77C245.053 207.77 245.766 207.59 246.476 207.231C247.194 206.872 247.787 206.33 248.257 205.603C248.736 204.877 248.971 203.954 248.962 202.835ZM265.328 211.385C263.739 211.385 262.32 210.979 261.073 210.167C259.834 209.346 258.859 208.18 258.15 206.667C257.449 205.146 257.099 203.322 257.099 201.194C257.099 199.066 257.454 197.246 258.163 195.733C258.881 194.221 259.863 193.063 261.111 192.259C262.359 191.456 263.773 191.055 265.354 191.055C266.576 191.055 267.559 191.26 268.302 191.67C269.054 192.071 269.635 192.541 270.046 193.08C270.464 193.618 270.789 194.093 271.02 194.503H271.25V184.748H275.083V211H271.34V207.936H271.02C270.789 208.355 270.456 208.834 270.02 209.372C269.593 209.91 269.003 210.38 268.251 210.782C267.499 211.184 266.525 211.385 265.328 211.385ZM266.174 208.116C267.277 208.116 268.208 207.825 268.969 207.244C269.738 206.655 270.319 205.838 270.712 204.796C271.114 203.753 271.315 202.54 271.315 201.155C271.315 199.788 271.118 198.592 270.725 197.566C270.332 196.541 269.755 195.742 268.994 195.169C268.234 194.597 267.294 194.31 266.174 194.31C265.021 194.31 264.059 194.61 263.29 195.208C262.521 195.806 261.94 196.622 261.547 197.656C261.162 198.69 260.97 199.857 260.97 201.155C260.97 202.471 261.167 203.655 261.56 204.706C261.953 205.757 262.534 206.59 263.303 207.206C264.081 207.812 265.038 208.116 266.174 208.116ZM280.553 211V191.311H284.386V211H280.553ZM282.489 188.273C281.822 188.273 281.25 188.051 280.771 187.606C280.301 187.153 280.066 186.615 280.066 185.991C280.066 185.359 280.301 184.821 280.771 184.376C281.25 183.923 281.822 183.697 282.489 183.697C283.156 183.697 283.724 183.923 284.194 184.376C284.672 184.821 284.912 185.359 284.912 185.991C284.912 186.615 284.672 187.153 284.194 187.606C283.724 188.051 283.156 188.273 282.489 188.273ZM298.733 191.311V194.387H287.979V191.311H298.733ZM290.863 186.594H294.695V205.219C294.695 205.962 294.806 206.522 295.029 206.898C295.251 207.266 295.537 207.518 295.887 207.654C296.246 207.783 296.635 207.847 297.054 207.847C297.362 207.847 297.631 207.825 297.862 207.783C298.092 207.74 298.272 207.706 298.4 207.68L299.092 210.846C298.87 210.932 298.554 211.017 298.144 211.103C297.733 211.197 297.221 211.248 296.605 211.256C295.597 211.273 294.657 211.094 293.785 210.718C292.914 210.342 292.209 209.761 291.67 208.975C291.132 208.188 290.863 207.201 290.863 206.014V186.594ZM311.055 211.397C309.209 211.397 307.598 210.974 306.222 210.128C304.846 209.282 303.778 208.099 303.018 206.578C302.257 205.057 301.877 203.279 301.877 201.245C301.877 199.203 302.257 197.417 303.018 195.887C303.778 194.357 304.846 193.17 306.222 192.324C307.598 191.478 309.209 191.055 311.055 191.055C312.901 191.055 314.512 191.478 315.887 192.324C317.263 193.17 318.331 194.357 319.092 195.887C319.853 197.417 320.233 199.203 320.233 201.245C320.233 203.279 319.853 205.057 319.092 206.578C318.331 208.099 317.263 209.282 315.887 210.128C314.512 210.974 312.901 211.397 311.055 211.397ZM311.068 208.18C312.264 208.18 313.255 207.864 314.042 207.231C314.828 206.599 315.409 205.757 315.785 204.706C316.169 203.655 316.362 202.497 316.362 201.232C316.362 199.976 316.169 198.823 315.785 197.771C315.409 196.712 314.828 195.861 314.042 195.221C313.255 194.58 312.264 194.259 311.068 194.259C309.863 194.259 308.863 194.58 308.068 195.221C307.282 195.861 306.697 196.712 306.312 197.771C305.936 198.823 305.748 199.976 305.748 201.232C305.748 202.497 305.936 203.655 306.312 204.706C306.697 205.757 307.282 206.599 308.068 207.231C308.863 207.864 309.863 208.18 311.068 208.18ZM324.511 211V191.311H328.216V194.439H328.421C328.78 193.379 329.412 192.546 330.318 191.939C331.232 191.324 332.266 191.016 333.42 191.016C333.659 191.016 333.941 191.025 334.266 191.042C334.599 191.059 334.86 191.08 335.048 191.106V194.772C334.894 194.729 334.62 194.682 334.227 194.631C333.834 194.571 333.441 194.541 333.048 194.541C332.142 194.541 331.335 194.733 330.625 195.118C329.925 195.494 329.369 196.02 328.959 196.695C328.549 197.361 328.344 198.122 328.344 198.976V211H324.511ZM338.365 211V191.311H342.197V211H338.365ZM340.3 188.273C339.634 188.273 339.061 188.051 338.582 187.606C338.112 187.153 337.877 186.615 337.877 185.991C337.877 185.359 338.112 184.821 338.582 184.376C339.061 183.923 339.634 183.697 340.3 183.697C340.967 183.697 341.535 183.923 342.005 184.376C342.484 184.821 342.723 185.359 342.723 185.991C342.723 186.615 342.484 187.153 342.005 187.606C341.535 188.051 340.967 188.273 340.3 188.273ZM359.826 202.835V191.311H363.671V211H359.903V207.59H359.698C359.245 208.641 358.518 209.517 357.518 210.218C356.527 210.91 355.292 211.256 353.814 211.256C352.549 211.256 351.43 210.979 350.456 210.423C349.49 209.859 348.729 209.026 348.174 207.924C347.627 206.821 347.353 205.458 347.353 203.835V191.311H351.186V203.373C351.186 204.715 351.558 205.783 352.301 206.578C353.045 207.372 354.01 207.77 355.198 207.77C355.916 207.77 356.63 207.59 357.339 207.231C358.057 206.872 358.651 206.33 359.121 205.603C359.599 204.877 359.834 203.954 359.826 202.835ZM368.821 211V191.311H372.5V194.516H372.744C373.154 193.43 373.825 192.584 374.756 191.977C375.688 191.362 376.803 191.055 378.102 191.055C379.418 191.055 380.52 191.362 381.409 191.977C382.306 192.593 382.968 193.439 383.396 194.516H383.601C384.071 193.464 384.818 192.627 385.844 192.003C386.869 191.371 388.091 191.055 389.51 191.055C391.296 191.055 392.753 191.614 393.881 192.734C395.018 193.853 395.586 195.541 395.586 197.797V211H391.753V198.156C391.753 196.823 391.39 195.857 390.664 195.259C389.937 194.661 389.07 194.362 388.062 194.362C386.814 194.362 385.844 194.746 385.152 195.515C384.46 196.276 384.113 197.254 384.113 198.451V211H380.294V197.912C380.294 196.844 379.96 195.985 379.294 195.336C378.627 194.686 377.76 194.362 376.692 194.362C375.965 194.362 375.294 194.554 374.679 194.939C374.072 195.315 373.581 195.84 373.205 196.515C372.838 197.19 372.654 197.972 372.654 198.861V211H368.821ZM405.709 207.411L405.517 208.808C405.389 209.834 405.171 210.902 404.863 212.013C404.564 213.132 404.252 214.17 403.928 215.128C403.611 216.085 403.351 216.845 403.146 217.409H400.428C400.539 216.879 400.693 216.162 400.89 215.256C401.086 214.358 401.278 213.354 401.466 212.243C401.654 211.132 401.795 210 401.889 208.847L402.018 207.411H405.709ZM420.559 184.748H425.366L433.724 205.155H434.032L442.389 184.748H447.196V211H443.427V192.003H443.184L435.442 210.962H432.314L424.572 191.99H424.328V211H420.559V184.748ZM456.916 184.748V211H452.955V184.748H456.916ZM461.389 188.158V184.748H481.707V188.158H473.516V211H469.567V188.158H461.389ZM495.749 184.748H500.556L508.914 205.155H509.221L517.579 184.748H522.386V211H518.617V192.003H518.374L510.631 210.962H507.504L499.761 191.99H499.518V211H495.749V184.748ZM533.567 211.436C532.319 211.436 531.191 211.205 530.183 210.744C529.174 210.274 528.375 209.594 527.786 208.706C527.204 207.817 526.914 206.727 526.914 205.437C526.914 204.326 527.128 203.411 527.555 202.694C527.982 201.976 528.559 201.408 529.285 200.989C530.012 200.57 530.823 200.254 531.721 200.04C532.618 199.827 533.532 199.664 534.464 199.553C535.643 199.416 536.6 199.305 537.335 199.22C538.07 199.126 538.604 198.976 538.938 198.771C539.271 198.566 539.437 198.233 539.437 197.771V197.682C539.437 196.562 539.121 195.695 538.489 195.08C537.865 194.464 536.934 194.157 535.694 194.157C534.404 194.157 533.387 194.443 532.644 195.015C531.909 195.579 531.4 196.208 531.118 196.9L527.516 196.079C527.944 194.883 528.567 193.917 529.388 193.182C530.217 192.439 531.17 191.901 532.246 191.567C533.323 191.225 534.455 191.055 535.643 191.055C536.429 191.055 537.263 191.149 538.143 191.337C539.032 191.516 539.86 191.849 540.63 192.336C541.407 192.823 542.044 193.52 542.54 194.426C543.035 195.323 543.283 196.49 543.283 197.925V211H539.54V208.308H539.386C539.138 208.804 538.767 209.291 538.271 209.769C537.775 210.248 537.139 210.645 536.361 210.962C535.583 211.278 534.652 211.436 533.567 211.436ZM534.4 208.359C535.459 208.359 536.365 208.15 537.117 207.731C537.878 207.313 538.455 206.766 538.848 206.091C539.249 205.407 539.45 204.676 539.45 203.899V201.361C539.314 201.497 539.049 201.625 538.656 201.745C538.271 201.856 537.831 201.954 537.335 202.04C536.84 202.117 536.357 202.189 535.887 202.258C535.417 202.318 535.024 202.369 534.707 202.412C533.964 202.506 533.285 202.664 532.669 202.886C532.063 203.108 531.575 203.429 531.208 203.847C530.849 204.258 530.67 204.804 530.67 205.488C530.67 206.437 531.02 207.154 531.721 207.642C532.422 208.12 533.315 208.359 534.4 208.359ZM552.221 199.31V211H548.388V191.311H552.067V194.516H552.31C552.763 193.473 553.473 192.635 554.438 192.003C555.412 191.371 556.639 191.055 558.117 191.055C559.459 191.055 560.634 191.337 561.642 191.901C562.651 192.456 563.432 193.285 563.988 194.387C564.543 195.49 564.821 196.853 564.821 198.476V211H560.988V198.938C560.988 197.511 560.617 196.396 559.873 195.592C559.13 194.78 558.109 194.375 556.81 194.375C555.921 194.375 555.13 194.567 554.438 194.951C553.755 195.336 553.212 195.9 552.81 196.643C552.417 197.378 552.221 198.267 552.221 199.31ZM569.961 211V191.311H573.794V211H569.961ZM571.897 188.273C571.23 188.273 570.658 188.051 570.179 187.606C569.709 187.153 569.474 186.615 569.474 185.991C569.474 185.359 569.709 184.821 570.179 184.376C570.658 183.923 571.23 183.697 571.897 183.697C572.563 183.697 573.132 183.923 573.602 184.376C574.08 184.821 574.32 185.359 574.32 185.991C574.32 186.615 574.08 187.153 573.602 187.606C573.132 188.051 572.563 188.273 571.897 188.273ZM578.95 218.383V191.311H582.693V194.503H583.014C583.236 194.093 583.556 193.618 583.975 193.08C584.394 192.541 584.975 192.071 585.718 191.67C586.462 191.26 587.445 191.055 588.667 191.055C590.256 191.055 591.675 191.456 592.922 192.259C594.17 193.063 595.148 194.221 595.858 195.733C596.576 197.246 596.934 199.066 596.934 201.194C596.934 203.322 596.58 205.146 595.871 206.667C595.161 208.18 594.187 209.346 592.948 210.167C591.709 210.979 590.295 211.385 588.705 211.385C587.509 211.385 586.53 211.184 585.77 210.782C585.018 210.38 584.428 209.91 584.001 209.372C583.573 208.834 583.244 208.355 583.014 207.936H582.783V218.383H578.95ZM582.706 201.155C582.706 202.54 582.907 203.753 583.308 204.796C583.71 205.838 584.291 206.655 585.052 207.244C585.812 207.825 586.744 208.116 587.846 208.116C588.991 208.116 589.948 207.812 590.718 207.206C591.487 206.59 592.068 205.757 592.461 204.706C592.862 203.655 593.063 202.471 593.063 201.155C593.063 199.857 592.867 198.69 592.474 197.656C592.089 196.622 591.508 195.806 590.73 195.208C589.961 194.61 589 194.31 587.846 194.31C586.735 194.31 585.795 194.597 585.026 195.169C584.266 195.742 583.689 196.541 583.296 197.566C582.903 198.592 582.706 199.788 582.706 201.155ZM606.958 211.436C605.711 211.436 604.583 211.205 603.574 210.744C602.566 210.274 601.767 209.594 601.177 208.706C600.596 207.817 600.306 206.727 600.306 205.437C600.306 204.326 600.519 203.411 600.947 202.694C601.374 201.976 601.951 201.408 602.677 200.989C603.404 200.57 604.215 200.254 605.113 200.04C606.01 199.827 606.924 199.664 607.856 199.553C609.035 199.416 609.992 199.305 610.727 199.22C611.462 199.126 611.996 198.976 612.329 198.771C612.663 198.566 612.829 198.233 612.829 197.771V197.682C612.829 196.562 612.513 195.695 611.881 195.08C611.257 194.464 610.325 194.157 609.086 194.157C607.796 194.157 606.779 194.443 606.036 195.015C605.301 195.579 604.792 196.208 604.51 196.9L600.908 196.079C601.335 194.883 601.959 193.917 602.78 193.182C603.609 192.439 604.561 191.901 605.638 191.567C606.715 191.225 607.847 191.055 609.035 191.055C609.821 191.055 610.654 191.149 611.535 191.337C612.423 191.516 613.252 191.849 614.021 192.336C614.799 192.823 615.436 193.52 615.931 194.426C616.427 195.323 616.675 196.49 616.675 197.925V211H612.932V208.308H612.778C612.53 208.804 612.159 209.291 611.663 209.769C611.167 210.248 610.531 210.645 609.753 210.962C608.975 211.278 608.044 211.436 606.958 211.436ZM607.792 208.359C608.851 208.359 609.757 208.15 610.509 207.731C611.27 207.313 611.847 206.766 612.24 206.091C612.641 205.407 612.842 204.676 612.842 203.899V201.361C612.705 201.497 612.441 201.625 612.047 201.745C611.663 201.856 611.223 201.954 610.727 202.04C610.231 202.117 609.749 202.189 609.279 202.258C608.809 202.318 608.416 202.369 608.099 202.412C607.356 202.506 606.676 202.664 606.061 202.886C605.454 203.108 604.967 203.429 604.6 203.847C604.241 204.258 604.062 204.804 604.062 205.488C604.062 206.437 604.412 207.154 605.113 207.642C605.813 208.12 606.706 208.359 607.792 208.359ZM625.612 184.748V211H621.78V184.748H625.612Z" fill="white"/>
</g>
<g filter="url(#filter4_d_161_1176)">
<path d="M79.5895 258.158V254.748H99.9067V258.158H91.7157V281H87.7676V258.158H79.5895ZM109.719 281.397C107.779 281.397 106.109 280.983 104.707 280.154C103.314 279.317 102.237 278.141 101.477 276.629C100.725 275.108 100.349 273.326 100.349 271.284C100.349 269.267 100.725 267.489 101.477 265.951C102.237 264.413 103.297 263.212 104.656 262.349C106.023 261.486 107.621 261.055 109.45 261.055C110.561 261.055 111.638 261.238 112.68 261.606C113.723 261.973 114.659 262.55 115.487 263.336C116.316 264.122 116.97 265.144 117.449 266.4C117.927 267.647 118.167 269.164 118.167 270.95V272.309H102.515V269.438H114.411C114.411 268.429 114.206 267.536 113.795 266.759C113.385 265.973 112.808 265.353 112.065 264.9C111.33 264.447 110.467 264.221 109.476 264.221C108.399 264.221 107.459 264.486 106.656 265.015C105.861 265.537 105.246 266.22 104.81 267.066C104.382 267.904 104.169 268.814 104.169 269.797V272.04C104.169 273.356 104.4 274.475 104.861 275.398C105.331 276.321 105.985 277.026 106.822 277.513C107.66 277.992 108.638 278.231 109.758 278.231C110.484 278.231 111.146 278.129 111.744 277.924C112.343 277.71 112.86 277.394 113.296 276.975C113.731 276.556 114.065 276.039 114.295 275.424L117.923 276.078C117.632 277.146 117.111 278.082 116.359 278.885C115.616 279.68 114.68 280.299 113.552 280.744C112.432 281.179 111.155 281.397 109.719 281.397ZM128.149 281.436C126.901 281.436 125.773 281.205 124.765 280.744C123.756 280.274 122.957 279.594 122.368 278.706C121.787 277.817 121.496 276.727 121.496 275.437C121.496 274.326 121.71 273.411 122.137 272.694C122.564 271.976 123.141 271.408 123.868 270.989C124.594 270.57 125.406 270.254 126.303 270.04C127.2 269.827 128.115 269.664 129.046 269.553C130.225 269.416 131.183 269.305 131.917 269.22C132.652 269.126 133.187 268.976 133.52 268.771C133.853 268.566 134.02 268.233 134.02 267.771V267.682C134.02 266.562 133.704 265.695 133.071 265.08C132.447 264.464 131.516 264.157 130.277 264.157C128.986 264.157 127.969 264.443 127.226 265.015C126.491 265.579 125.983 266.208 125.701 266.9L122.099 266.079C122.526 264.883 123.15 263.917 123.97 263.182C124.799 262.439 125.752 261.901 126.829 261.567C127.905 261.225 129.038 261.055 130.225 261.055C131.012 261.055 131.845 261.149 132.725 261.337C133.614 261.516 134.443 261.849 135.212 262.336C135.989 262.823 136.626 263.52 137.122 264.426C137.617 265.323 137.865 266.49 137.865 267.925V281H134.122V278.308H133.968C133.721 278.804 133.349 279.291 132.853 279.769C132.358 280.248 131.721 280.645 130.943 280.962C130.166 281.278 129.234 281.436 128.149 281.436ZM128.982 278.359C130.042 278.359 130.948 278.15 131.7 277.731C132.46 277.313 133.037 276.766 133.43 276.091C133.832 275.407 134.033 274.676 134.033 273.899V271.361C133.896 271.497 133.631 271.625 133.238 271.745C132.853 271.856 132.413 271.954 131.917 272.04C131.422 272.117 130.939 272.189 130.469 272.258C129.999 272.318 129.606 272.369 129.29 272.412C128.546 272.506 127.867 272.664 127.252 272.886C126.645 273.108 126.158 273.429 125.79 273.847C125.431 274.258 125.252 274.804 125.252 275.488C125.252 276.437 125.602 277.154 126.303 277.642C127.004 278.12 127.897 278.359 128.982 278.359ZM142.97 281V261.311H146.649V264.516H146.893C147.303 263.43 147.974 262.584 148.905 261.977C149.837 261.362 150.952 261.055 152.251 261.055C153.567 261.055 154.669 261.362 155.558 261.977C156.455 262.593 157.117 263.439 157.545 264.516H157.75C158.22 263.464 158.968 262.627 159.993 262.003C161.018 261.371 162.241 261.055 163.659 261.055C165.445 261.055 166.902 261.614 168.03 262.734C169.167 263.853 169.735 265.541 169.735 267.797V281H165.902V268.156C165.902 266.823 165.539 265.857 164.813 265.259C164.086 264.661 163.219 264.362 162.211 264.362C160.963 264.362 159.993 264.746 159.301 265.515C158.609 266.276 158.263 267.254 158.263 268.451V281H154.443V267.912C154.443 266.844 154.109 265.985 153.443 265.336C152.776 264.686 151.909 264.362 150.841 264.362C150.114 264.362 149.443 264.554 148.828 264.939C148.221 265.315 147.73 265.84 147.354 266.515C146.987 267.19 146.803 267.972 146.803 268.861V281H142.97ZM199.051 261.644C198.914 260.431 198.35 259.491 197.359 258.824C196.367 258.149 195.12 257.811 193.616 257.811C192.539 257.811 191.608 257.982 190.821 258.324C190.035 258.657 189.424 259.119 188.988 259.709C188.561 260.29 188.347 260.952 188.347 261.695C188.347 262.319 188.493 262.858 188.783 263.311C189.082 263.763 189.471 264.144 189.95 264.451C190.437 264.751 190.958 265.003 191.514 265.208C192.069 265.404 192.603 265.567 193.116 265.695L195.679 266.361C196.517 266.566 197.376 266.844 198.256 267.195C199.136 267.545 199.952 268.006 200.704 268.579C201.456 269.152 202.063 269.861 202.525 270.707C202.995 271.553 203.23 272.565 203.23 273.745C203.23 275.232 202.845 276.552 202.076 277.706C201.315 278.859 200.209 279.769 198.756 280.436C197.312 281.103 195.564 281.436 193.513 281.436C191.548 281.436 189.847 281.124 188.411 280.5C186.976 279.876 185.852 278.992 185.04 277.847C184.228 276.693 183.78 275.326 183.694 273.745H187.668C187.745 274.693 188.053 275.484 188.591 276.116C189.138 276.74 189.834 277.206 190.68 277.513C191.535 277.812 192.471 277.962 193.488 277.962C194.607 277.962 195.603 277.787 196.474 277.436C197.354 277.078 198.047 276.582 198.551 275.95C199.055 275.309 199.307 274.561 199.307 273.706C199.307 272.929 199.085 272.292 198.641 271.796C198.205 271.301 197.611 270.891 196.859 270.566C196.115 270.241 195.274 269.955 194.334 269.707L191.232 268.861C189.129 268.288 187.463 267.447 186.232 266.336C185.01 265.225 184.399 263.755 184.399 261.926C184.399 260.414 184.809 259.093 185.63 257.965C186.45 256.837 187.561 255.961 188.963 255.338C190.364 254.705 191.945 254.389 193.705 254.389C195.483 254.389 197.051 254.701 198.41 255.325C199.777 255.949 200.854 256.807 201.64 257.901C202.426 258.987 202.836 260.234 202.871 261.644H199.051ZM207.655 281V261.311H211.488V281H207.655ZM209.591 258.273C208.924 258.273 208.352 258.051 207.873 257.606C207.403 257.153 207.168 256.615 207.168 255.991C207.168 255.359 207.403 254.821 207.873 254.376C208.352 253.923 208.924 253.697 209.591 253.697C210.257 253.697 210.826 253.923 211.296 254.376C211.774 254.821 212.013 255.359 212.013 255.991C212.013 256.615 211.774 257.153 211.296 257.606C210.826 258.051 210.257 258.273 209.591 258.273ZM216.234 281V278.372L226.899 264.823V264.644H216.58V261.311H231.68V264.105L221.425 277.488V277.667H232.039V281H216.234ZM244.482 281.397C242.543 281.397 240.872 280.983 239.47 280.154C238.077 279.317 237.001 278.141 236.24 276.629C235.488 275.108 235.112 273.326 235.112 271.284C235.112 269.267 235.488 267.489 236.24 265.951C237.001 264.413 238.06 263.212 239.419 262.349C240.786 261.486 242.384 261.055 244.213 261.055C245.324 261.055 246.401 261.238 247.443 261.606C248.486 261.973 249.422 262.55 250.251 263.336C251.08 264.122 251.733 265.144 252.212 266.4C252.69 267.647 252.93 269.164 252.93 270.95V272.309H237.278V269.438H249.174C249.174 268.429 248.969 267.536 248.559 266.759C248.148 265.973 247.572 265.353 246.828 264.9C246.093 264.447 245.23 264.221 244.239 264.221C243.162 264.221 242.222 264.486 241.419 265.015C240.624 265.537 240.009 266.22 239.573 267.066C239.146 267.904 238.932 268.814 238.932 269.797V272.04C238.932 273.356 239.163 274.475 239.624 275.398C240.094 276.321 240.748 277.026 241.585 277.513C242.423 277.992 243.401 278.231 244.521 278.231C245.247 278.231 245.91 278.129 246.508 277.924C247.106 277.71 247.623 277.394 248.059 276.975C248.495 276.556 248.828 276.039 249.059 275.424L252.686 276.078C252.396 277.146 251.874 278.082 251.122 278.885C250.379 279.68 249.443 280.299 248.315 280.744C247.196 281.179 245.918 281.397 244.482 281.397ZM269.26 277.744C268.56 277.744 267.957 277.496 267.453 277.001C266.949 276.496 266.697 275.89 266.697 275.18C266.697 274.48 266.949 273.882 267.453 273.386C267.957 272.882 268.56 272.63 269.26 272.63C269.961 272.63 270.564 272.882 271.068 273.386C271.572 273.882 271.824 274.48 271.824 275.18C271.824 275.65 271.704 276.082 271.465 276.475C271.234 276.86 270.927 277.167 270.542 277.398C270.158 277.629 269.73 277.744 269.26 277.744ZM269.26 264.592C268.56 264.592 267.957 264.345 267.453 263.849C266.949 263.345 266.697 262.738 266.697 262.029C266.697 261.328 266.949 260.73 267.453 260.234C267.957 259.73 268.56 259.478 269.26 259.478C269.961 259.478 270.564 259.73 271.068 260.234C271.572 260.73 271.824 261.328 271.824 262.029C271.824 262.499 271.704 262.93 271.465 263.323C271.234 263.708 270.927 264.016 270.542 264.246C270.158 264.477 269.73 264.592 269.26 264.592ZM286.46 281V278.129L295.343 268.925C296.291 267.925 297.073 267.049 297.688 266.297C298.312 265.537 298.778 264.815 299.086 264.131C299.393 263.447 299.547 262.721 299.547 261.952C299.547 261.08 299.342 260.328 298.932 259.696C298.522 259.055 297.962 258.563 297.253 258.222C296.543 257.871 295.744 257.696 294.856 257.696C293.916 257.696 293.095 257.888 292.394 258.273C291.694 258.657 291.155 259.2 290.779 259.901C290.403 260.602 290.215 261.422 290.215 262.362H286.434C286.434 260.764 286.801 259.367 287.536 258.17C288.271 256.974 289.28 256.047 290.561 255.389C291.843 254.722 293.3 254.389 294.933 254.389C296.582 254.389 298.035 254.718 299.291 255.376C300.556 256.025 301.543 256.914 302.252 258.042C302.961 259.162 303.316 260.426 303.316 261.836C303.316 262.811 303.132 263.763 302.765 264.695C302.406 265.626 301.778 266.665 300.88 267.81C299.983 268.946 298.735 270.327 297.137 271.95L291.92 277.411V277.603H303.739V281H286.46ZM320.249 266.208V269.54H308.61V266.208H320.249ZM324.755 275.873V272.668L336.099 254.748H338.624V259.465H337.022L328.908 272.309V272.514H344.456V275.873H324.755ZM337.201 281V274.898L337.227 273.437V254.748H340.983V281H337.201Z" fill="white"/>
</g>
<g filter="url(#filter5_d_161_1176)">
<path d="M34.877 195.095C33.6305 195.095 32.435 194.558 31.5536 193.602C30.6721 192.645 30.177 191.348 30.177 189.996C30.177 188.643 30.6721 187.346 31.5536 186.389C32.435 185.433 33.6305 184.896 34.877 184.896C36.1236 184.896 37.3191 185.433 38.2005 186.389C39.0819 187.346 39.5771 188.643 39.5771 189.996C39.5771 190.665 39.4556 191.328 39.2194 191.947C38.9832 192.566 38.6369 193.128 38.2005 193.602C37.7641 194.075 37.2459 194.451 36.6757 194.707C36.1054 194.964 35.4943 195.095 34.877 195.095ZM34.877 175.716C31.3867 175.716 28.0394 177.22 25.5713 179.898C23.1033 182.576 21.7168 186.208 21.7168 189.996C21.7168 200.705 34.877 216.515 34.877 216.515C34.877 216.515 48.0373 200.705 48.0373 189.996C48.0373 186.208 46.6508 182.576 44.1827 179.898C41.7147 177.22 38.3674 175.716 34.877 175.716Z" fill="#0070F0"/>
</g>
<g filter="url(#filter6_d_161_1176)">
<path d="M35.0959 101.277C32.776 101.277 30.4787 101.784 28.3353 102.768C26.192 103.751 24.2445 105.193 22.604 107.011C19.2909 110.683 17.4297 115.662 17.4297 120.854C17.4297 126.046 19.2909 131.026 22.604 134.697C24.2445 136.515 26.192 137.957 28.3353 138.941C30.4787 139.925 32.776 140.431 35.0959 140.431C39.7813 140.431 44.2748 138.369 47.5878 134.697C50.9009 131.026 52.7621 126.046 52.7621 120.854C52.7621 118.283 52.3052 115.738 51.4174 113.362C50.5296 110.987 49.2283 108.829 47.5878 107.011C45.9474 105.193 43.9999 103.751 41.8565 102.768C39.7131 101.784 37.4159 101.277 35.0959 101.277ZM42.5157 129.077L33.3293 122.812V111.066H35.9792V121.246L43.929 126.532L42.5157 129.077Z" fill="#006FEE"/>
</g>
<g filter="url(#filter7_d_161_1176)">
<path d="M40.2659 262.893C41.7494 262.893 42.9534 264.097 42.9534 265.581V275.945C42.9534 278.186 42.0634 280.334 40.4791 281.919C38.8948 283.503 36.746 284.393 34.5054 284.393C32.2649 284.393 30.1161 283.503 28.5318 281.919C26.9475 280.334 26.0575 278.186 26.0575 275.945V265.581C26.0575 264.097 27.2599 262.893 28.745 262.893H40.2659ZM18.7598 262.893L25.4893 262.89C24.9359 263.557 24.6027 264.379 24.5356 265.243L24.5202 265.581V275.945C24.5202 277.685 24.9671 279.322 25.7488 280.747C24.6967 281.206 23.5469 281.396 22.403 281.3C21.2592 281.203 20.1575 280.823 19.1972 280.194C18.237 279.565 17.4485 278.707 16.9029 277.697C16.3573 276.687 16.0719 275.557 16.0723 274.409V265.581C16.0731 264.868 16.3567 264.185 16.8609 263.681C17.365 263.177 18.047 262.894 18.7598 262.893ZM43.5232 262.89L50.2419 262.893C51.7254 262.893 52.9294 264.097 52.9294 265.581V274.411C52.9299 275.558 52.6446 276.688 52.0994 277.698C51.5542 278.707 50.7661 279.565 49.8064 280.194C48.8467 280.823 47.7455 281.203 46.6021 281.3C45.4588 281.397 44.3093 281.207 43.2575 280.749L43.3435 280.592C44.0023 279.344 44.4031 277.937 44.4768 276.446L44.4891 275.945V265.581C44.4891 264.558 44.1267 263.621 43.5232 262.89ZM34.5008 250.607C35.2067 250.607 35.9056 250.746 36.5578 251.017C37.2099 251.287 37.8024 251.683 38.3015 252.182C38.8007 252.681 39.1966 253.273 39.4667 253.925C39.7368 254.578 39.8758 255.277 39.8758 255.982C39.8758 256.688 39.7368 257.387 39.4667 258.039C39.1966 258.691 38.8007 259.284 38.3015 259.783C37.8024 260.282 37.2099 260.678 36.5578 260.948C35.9056 261.218 35.2067 261.357 34.5008 261.357C33.0753 261.357 31.7081 260.791 30.7001 259.783C29.6921 258.775 29.1258 257.408 29.1258 255.982C29.1258 254.557 29.6921 253.19 30.7001 252.182C31.7081 251.174 33.0753 250.607 34.5008 250.607ZM46.7912 252.143C47.3962 252.143 47.9953 252.262 48.5542 252.494C49.1132 252.725 49.6211 253.065 50.0489 253.493C50.4767 253.92 50.8161 254.428 51.0476 254.987C51.2791 255.546 51.3983 256.145 51.3983 256.75C51.3983 257.355 51.2791 257.954 51.0476 258.513C50.8161 259.072 50.4767 259.58 50.0489 260.008C49.6211 260.436 49.1132 260.775 48.5542 261.007C47.9953 261.238 47.3962 261.357 46.7912 261.357C45.5693 261.357 44.3974 260.872 43.5334 260.008C42.6694 259.144 42.184 257.972 42.184 256.75C42.184 255.528 42.6694 254.357 43.5334 253.493C44.3974 252.629 45.5693 252.143 46.7912 252.143ZM22.2105 252.143C22.8155 252.143 23.4146 252.262 23.9736 252.494C24.5326 252.725 25.0404 253.065 25.4683 253.493C25.8961 253.92 26.2354 254.428 26.467 254.987C26.6985 255.546 26.8177 256.145 26.8177 256.75C26.8177 257.355 26.6985 257.954 26.467 258.513C26.2354 259.072 25.8961 259.58 25.4683 260.008C25.0404 260.436 24.5326 260.775 23.9736 261.007C23.4146 261.238 22.8155 261.357 22.2105 261.357C20.9886 261.357 19.8168 260.872 18.9528 260.008C18.0888 259.144 17.6034 257.972 17.6034 256.75C17.6034 255.528 18.0888 254.357 18.9528 253.493C19.8168 252.629 20.9886 252.143 22.2105 252.143Z" fill="#0C5CBA"/>
</g>
<defs>
<filter id="filter0_d_161_1176" x="56.6918" y="4.71357" width="343.052" height="71.5958" filterUnits="userSpaceOnUse" color-interpolation-filters="sRGB">
<feFlood flood-opacity="0" result="BackgroundImageFix"/>
<feColorMatrix in="SourceAlpha" type="matrix" values="0 0 0 0 0 0 0 0 0 0 0 0 0 0 0 0 0 0 127 0" result="hardAlpha"/>
<feOffset dy="3.00806"/>
<feGaussianBlur stdDeviation="9.40017"/>
<feComposite in2="hardAlpha" operator="out"/>
<feColorMatrix type="matrix" values="0 0 0 0 1 0 0 0 0 1 0 0 0 0 1 0 0 0 0.27 0"/>
<feBlend mode="normal" in2="BackgroundImageFix" result="effect1_dropShadow_161_1176"/>
<feBlend mode="normal" in="SourceGraphic" in2="effect1_dropShadow_161_1176" result="shape"/>
</filter>
<filter id="filter1_d_161_1176" x="0.770493" y="0.643935" width="68.0606" height="81.293" filterUnits="userSpaceOnUse" color-interpolation-filters="sRGB">
<feFlood flood-opacity="0" result="BackgroundImageFix"/>
<feColorMatrix in="SourceAlpha" type="matrix" values="0 0 0 0 0 0 0 0 0 0 0 0 0 0 0 0 0 0 127 0" result="hardAlpha"/>
<feOffset dy="4.87344"/>
<feGaussianBlur stdDeviation="7.61475"/>
<feComposite in2="hardAlpha" operator="out"/>
<feColorMatrix type="matrix" values="0 0 0 0 0 0 0 0 0 0.439216 0 0 0 0 0.941176 0 0 0 1 0"/>
<feBlend mode="normal" in2="BackgroundImageFix" result="effect1_dropShadow_161_1176"/>
<feBlend mode="normal" in="SourceGraphic" in2="effect1_dropShadow_161_1176" result="shape"/>
</filter>
<filter id="filter2_d_161_1176" x="44.5645" y="72.7168" width="228.074" height="99.0469" filterUnits="userSpaceOnUse" color-interpolation-filters="sRGB">
<feFlood flood-opacity="0" result="BackgroundImageFix"/>
<feColorMatrix in="SourceAlpha" type="matrix" values="0 0 0 0 0 0 0 0 0 0 0 0 0 0 0 0 0 0 127 0" result="hardAlpha"/>
<feOffset dy="4"/>
<feGaussianBlur stdDeviation="18"/>
<feComposite in2="hardAlpha" operator="out"/>
<feColorMatrix type="matrix" values="0 0 0 0 0.939297 0 0 0 0 0.860998 0 0 0 0 0.860998 0 0 0 0.57 0"/>
<feBlend mode="normal" in2="BackgroundImageFix" result="effect1_dropShadow_161_1176"/>
<feBlend mode="normal" in="SourceGraphic" in2="effect1_dropShadow_161_1176" result="shape"/>
</filter>
<filter id="filter3_d_161_1176" x="56.8848" y="163.696" width="592.729" height="82.6875" filterUnits="userSpaceOnUse" color-interpolation-filters="sRGB">
<feFlood flood-opacity="0" result="BackgroundImageFix"/>
<feColorMatrix in="SourceAlpha" type="matrix" values="0 0 0 0 0 0 0 0 0 0 0 0 0 0 0 0 0 0 127 0" result="hardAlpha"/>
<feOffset dy="4"/>
<feGaussianBlur stdDeviation="12"/>
<feComposite in2="hardAlpha" operator="out"/>
<feColorMatrix type="matrix" values="0 0 0 0 0.949297 0 0 0 0 0.912067 0 0 0 0 0.912067 0 0 0 0.35 0"/>
<feBlend mode="normal" in2="BackgroundImageFix" result="effect1_dropShadow_161_1176"/>
<feBlend mode="normal" in="SourceGraphic" in2="effect1_dropShadow_161_1176" result="shape"/>
</filter>
<filter id="filter4_d_161_1176" x="55.5898" y="233.696" width="312.867" height="75.7393" filterUnits="userSpaceOnUse" color-interpolation-filters="sRGB">
<feFlood flood-opacity="0" result="BackgroundImageFix"/>
<feColorMatrix in="SourceAlpha" type="matrix" values="0 0 0 0 0 0 0 0 0 0 0 0 0 0 0 0 0 0 127 0" result="hardAlpha"/>
<feOffset dy="4"/>
<feGaussianBlur stdDeviation="12"/>
<feComposite in2="hardAlpha" operator="out"/>
<feColorMatrix type="matrix" values="0 0 0 0 0.949297 0 0 0 0 0.912067 0 0 0 0 0.912067 0 0 0 0.35 0"/>
<feBlend mode="normal" in2="BackgroundImageFix" result="effect1_dropShadow_161_1176"/>
<feBlend mode="normal" in="SourceGraphic" in2="effect1_dropShadow_161_1176" result="shape"/>
</filter>
<filter id="filter5_d_161_1176" x="6.48729" y="165.36" width="56.7793" height="71.2578" filterUnits="userSpaceOnUse" color-interpolation-filters="sRGB">
<feFlood flood-opacity="0" result="BackgroundImageFix"/>
<feColorMatrix in="SourceAlpha" type="matrix" values="0 0 0 0 0 0 0 0 0 0 0 0 0 0 0 0 0 0 127 0" result="hardAlpha"/>
<feOffset dy="4.87344"/>
<feGaussianBlur stdDeviation="7.61475"/>
<feComposite in2="hardAlpha" operator="out"/>
<feColorMatrix type="matrix" values="0 0 0 0 0 0 0 0 0 0.439216 0 0 0 0 0.941176 0 0 0 0.62 0"/>
<feBlend mode="normal" in2="BackgroundImageFix" result="effect1_dropShadow_161_1176"/>
<feBlend mode="normal" in="SourceGraphic" in2="effect1_dropShadow_161_1176" result="shape"/>
</filter>
<filter id="filter6_d_161_1176" x="2.20018" y="90.9213" width="65.791" height="69.6123" filterUnits="userSpaceOnUse" color-interpolation-filters="sRGB">
<feFlood flood-opacity="0" result="BackgroundImageFix"/>
<feColorMatrix in="SourceAlpha" type="matrix" values="0 0 0 0 0 0 0 0 0 0 0 0 0 0 0 0 0 0 127 0" result="hardAlpha"/>
<feOffset dy="4.87344"/>
<feGaussianBlur stdDeviation="7.61475"/>
<feComposite in2="hardAlpha" operator="out"/>
<feColorMatrix type="matrix" values="0 0 0 0 0 0 0 0 0 0.439216 0 0 0 0 0.941176 0 0 0 0.62 0"/>
<feBlend mode="normal" in2="BackgroundImageFix" result="effect1_dropShadow_161_1176"/>
<feBlend mode="normal" in="SourceGraphic" in2="effect1_dropShadow_161_1176" result="shape"/>
</filter>
<filter id="filter7_d_161_1176" x="0.842266" y="240.247" width="67.3174" height="64.2461" filterUnits="userSpaceOnUse" color-interpolation-filters="sRGB">
<feFlood flood-opacity="0" result="BackgroundImageFix"/>
<feColorMatrix in="SourceAlpha" type="matrix" values="0 0 0 0 0 0 0 0 0 0 0 0 0 0 0 0 0 0 127 0" result="hardAlpha"/>
<feOffset dy="4.87"/>
<feGaussianBlur stdDeviation="7.615"/>
<feComposite in2="hardAlpha" operator="out"/>
<feColorMatrix type="matrix" values="0 0 0 0 0 0 0 0 0 0.439216 0 0 0 0 0.941176 0 0 0 0.67 0"/>
<feBlend mode="normal" in2="BackgroundImageFix" result="effect1_dropShadow_161_1176"/>
<feBlend mode="normal" in="SourceGraphic" in2="effect1_dropShadow_161_1176" result="shape"/>
</filter>
</defs>
</svg>
