<svg width="216" height="127" viewBox="0 0 216 127" fill="none" xmlns="http://www.w3.org/2000/svg">
<path d="M195.183 126.938H21.2352L0.576172 107.23V105.558C1.90395 105.558 3.01474 104.629 3.29385 103.385C3.33795 103.188 3.36123 102.983 3.36123 102.772C3.36123 101.236 2.11429 99.9886 0.576172 99.9886V98.9053V97.6812H0.576732C1.90395 97.6812 3.01474 96.7515 3.29357 95.5084C3.33795 95.3121 3.36123 95.1074 3.36123 94.897C3.36123 93.3588 2.11429 92.1122 0.576732 92.1122H0.576172V91.0262V89.802C1.90395 89.802 3.01473 88.8737 3.29413 87.6306C3.33823 87.4336 3.36151 87.2289 3.36151 87.0186C3.36151 85.4803 2.11429 84.233 0.576172 84.233V83.147V81.9228C1.90395 81.9228 3.01474 80.9952 3.29357 79.7508C3.33767 79.5537 3.36095 79.349 3.36095 79.138C3.36095 77.6004 2.11429 76.3545 0.576172 76.3545V75.2699V74.0458C1.90395 74.0458 3.01474 73.1168 3.29385 71.8737C3.33795 71.6767 3.36123 71.472 3.36123 71.2616C3.36123 69.7227 2.11429 68.4761 0.576172 68.4761V67.3921V66.168C1.90395 66.168 3.01502 65.239 3.29413 63.9952C3.33823 63.7982 3.36151 63.5935 3.36151 63.3831C3.36151 61.8456 2.11429 60.599 0.576172 60.599V59.5137V58.2895C1.90395 58.2895 3.01452 57.3605 3.29329 56.1174C3.33767 55.9204 3.36095 55.7157 3.36095 55.5054C3.36095 53.9671 2.11429 52.7205 0.576172 52.7205V51.6359V50.4117C1.90395 50.4117 3.01474 49.482 3.29385 48.2389C3.33795 48.0419 3.36123 47.8372 3.36123 47.6269C3.36123 46.0893 2.11429 44.8427 0.576172 44.8427V43.7574V42.5325C1.90395 42.5325 3.01474 41.6043 3.29385 40.3612C3.33795 40.1642 3.36123 39.9594 3.36123 39.7491C3.36123 38.2101 2.11429 36.965 0.576172 36.965V35.8796V34.6554C1.90395 34.6554 3.01474 33.7265 3.29385 32.4834C3.33795 32.2864 3.36123 32.0816 3.36123 31.8713C3.36123 30.333 2.11429 29.0865 0.576172 29.0865V28.0025V26.7784C1.90395 26.7784 3.01474 25.8494 3.29385 24.6049C3.33795 24.4079 3.36123 24.2032 3.36123 23.9928C3.36123 22.456 2.11429 21.208 0.576172 21.208V20.936V19.7118L21.2352 0.00261688H27.8853V7.38542L10.6712 23.8084V103.132L29.5351 121.129H186.882L205.746 103.132V23.8084L205.637 23.7047L188.947 7.78155H203.336L215.841 19.7118V21.208C214.303 21.2087 213.057 22.456 213.057 23.9928C213.057 24.2032 213.08 24.4079 213.125 24.6049C213.403 25.8487 214.514 26.777 215.841 26.7784V29.0865C214.303 29.0879 213.057 30.333 213.057 31.8713C213.057 32.0816 213.08 32.2864 213.125 32.4834C213.403 33.7265 214.514 34.6554 215.841 34.6554V36.965C214.303 36.965 213.057 38.2101 213.057 39.7491C213.057 39.9594 213.08 40.1642 213.125 40.3612C213.403 41.6043 214.514 42.5325 215.841 42.5325V44.8427C214.303 44.8434 213.057 46.0893 213.057 47.6269C213.057 47.8372 213.08 48.0419 213.125 48.2389C213.403 49.482 214.514 50.411 215.841 50.4117V52.7205C214.303 52.7219 213.057 53.9671 213.057 55.5054C213.057 55.7157 213.08 55.9204 213.125 56.1174C213.403 57.3605 214.514 58.2895 215.841 58.2895V60.599C214.303 60.599 213.057 61.8456 213.057 63.3831C213.057 63.5935 213.08 63.7982 213.125 63.9952C213.403 65.239 214.514 66.1666 215.841 66.168V68.4761C214.303 68.4775 213.057 69.7227 213.057 71.2616C213.057 71.472 213.08 71.6767 213.125 71.8737C213.403 73.1168 214.514 74.0458 215.841 74.0458V76.3545C214.302 76.3545 213.057 77.6004 213.057 79.138C213.057 79.349 213.08 79.5537 213.124 79.7508C213.403 80.9952 214.512 81.9228 215.841 81.9228V84.233C214.303 84.2344 213.057 85.4803 213.057 87.0186C213.057 87.2289 213.08 87.4336 213.125 87.6306C213.403 88.873 214.514 89.8013 215.841 89.802V92.1122C214.303 92.1122 213.057 93.3588 213.057 94.897C213.057 95.1074 213.08 95.3121 213.125 95.5084C213.403 96.7515 214.514 97.6812 215.841 97.6812V99.9886C214.303 99.9886 213.057 101.236 213.057 102.772C213.057 102.983 213.08 103.188 213.125 103.385C213.403 104.629 214.514 105.556 215.841 105.558V107.23L195.183 126.938ZM186.392 120.428H30.0259V7.78155H186.392V120.428ZM29.3247 119.959L11.3724 102.832V24.1085L28.4862 7.78155H29.3247V119.959ZM187.093 119.959V7.78155H187.931L205.045 24.1085V102.832L187.093 119.959Z" fill="url(#paint0_linear_983_1479)"/>
<defs>
<linearGradient id="paint0_linear_983_1479" x1="-6.88031" y1="2.38011" x2="215.014" y2="120.163" gradientUnits="userSpaceOnUse">
<stop stop-color="#E8A615"/>
<stop offset="1" stop-color="#CCAF5C"/>
</linearGradient>
</defs>
</svg> 