<svg width="216" height="128" viewBox="0 0 216 128" fill="none" xmlns="http://www.w3.org/2000/svg">
<mask id="mask0_983_1512" style="mask-type:luminance" maskUnits="userSpaceOnUse" x="0" y="0" width="216" height="128">
<path d="M194.607 127.283H20.659L0 107.575V105.903C1.32778 105.903 2.43857 104.975 2.71768 103.731C2.76178 103.533 2.78506 103.329 2.78506 103.118C2.78506 101.582 1.53812 100.334 0 100.334V99.251V98.0269H0.000560588C1.32778 98.0269 2.43856 97.0972 2.7174 95.8541C2.76178 95.6578 2.78506 95.4531 2.78506 95.2427C2.78506 93.7045 1.53812 92.4579 0.000560588 92.4579H0V91.3719V90.1477C1.32778 90.1477 2.43856 89.2194 2.71796 87.9763C2.76206 87.7793 2.78534 87.5746 2.78534 87.3643C2.78534 85.826 1.53812 84.5787 0 84.5787V83.4927V82.2685C1.32778 82.2685 2.43856 81.3409 2.7174 80.0965C2.7615 79.8994 2.78478 79.6947 2.78478 79.4837C2.78478 77.9461 1.53812 76.7002 0 76.7002V75.6156V74.3915C1.32778 74.3915 2.43857 73.4625 2.71768 72.2194C2.76178 72.0224 2.78506 71.8177 2.78506 71.6073C2.78506 70.0684 1.53812 68.8218 0 68.8218V67.7378V66.5137C1.32778 66.5137 2.43884 65.5847 2.71796 64.3409C2.76206 64.1439 2.78534 63.9392 2.78534 63.7288C2.78534 62.1913 1.53812 60.9447 0 60.9447V59.8594V58.6352C1.32778 58.6352 2.43835 57.7062 2.71712 56.4631C2.7615 56.2661 2.78478 56.0614 2.78478 55.8511C2.78478 54.3128 1.53812 53.0662 0 53.0662V51.9816V50.7574C1.32778 50.7574 2.43857 49.8277 2.71768 48.5846C2.76178 48.3876 2.78506 48.1829 2.78506 47.9726C2.78506 46.435 1.53812 45.1884 0 45.1884V44.1031V42.8782C1.32778 42.8782 2.43857 41.95 2.71768 40.7069C2.76178 40.5099 2.78506 40.3051 2.78506 40.0948C2.78506 38.5558 1.53812 37.3107 0 37.3107V36.2253V35.0011C1.32778 35.0011 2.43857 34.0722 2.71768 32.8291C2.76178 32.6321 2.78506 32.4273 2.78506 32.217C2.78506 30.6787 1.53812 29.4322 0 29.4322V28.3482V27.1241C1.32778 27.1241 2.43857 26.1951 2.71768 24.9506C2.76178 24.7536 2.78506 24.5489 2.78506 24.3385C2.78506 22.8017 1.53812 21.5537 0 21.5537V21.2817V20.0575L20.659 0.34832H27.3092V7.73112L10.0951 24.1541V103.478L28.9589 121.474H186.306L205.17 103.478V24.1541L205.061 24.0504L188.371 8.12725H202.76L215.265 20.0575V21.5537C213.727 21.5544 212.48 22.8017 212.48 24.3385C212.48 24.5489 212.504 24.7536 212.548 24.9506C212.827 26.1944 213.937 27.1227 215.265 27.1241V29.4322C213.727 29.4336 212.48 30.6787 212.48 32.217C212.48 32.4273 212.504 32.6321 212.548 32.8291C212.827 34.0722 213.937 35.0011 215.265 35.0011V37.3107C213.727 37.3107 212.48 38.5558 212.48 40.0948C212.48 40.3051 212.504 40.5099 212.548 40.7069C212.827 41.95 213.937 42.8782 215.265 42.8782V45.1884C213.727 45.1891 212.48 46.435 212.48 47.9726C212.48 48.1829 212.504 48.3876 212.548 48.5846C212.827 49.8277 213.937 50.7567 215.265 50.7574V53.0662C213.727 53.0676 212.48 54.3128 212.48 55.8511C212.48 56.0614 212.504 56.2661 212.548 56.4631C212.827 57.7062 213.937 58.6352 215.265 58.6352V60.9447C213.727 60.9447 212.48 62.1913 212.48 63.7288C212.48 63.9392 212.504 64.1439 212.548 64.3409C212.827 65.5847 213.937 66.5123 215.265 66.5137V68.8218C213.727 68.8232 212.48 70.0684 212.48 71.6073C212.48 71.8177 212.504 72.0224 212.548 72.2194C212.827 73.4625 213.937 74.3915 215.265 74.3915V76.7002C213.726 76.7002 212.48 77.9461 212.48 79.4837C212.48 79.6947 212.504 79.8994 212.548 80.0965C212.827 81.3409 213.936 82.2685 215.265 82.2685V84.5787C213.727 84.5801 212.48 85.826 212.48 87.3643C212.48 87.5746 212.504 87.7793 212.548 87.9763C212.827 89.2187 213.937 90.147 215.265 90.1477V92.4579C213.727 92.4579 212.48 93.7045 212.48 95.2427C212.48 95.4531 212.504 95.6578 212.548 95.8541C212.827 97.0972 213.937 98.0269 215.265 98.0269V100.334C213.727 100.334 212.48 101.582 212.48 103.118C212.48 103.329 212.504 103.533 212.548 103.731C212.827 104.974 213.937 105.902 215.265 105.903V107.575L194.607 127.283ZM185.815 120.773H29.4497V8.12725H185.815V120.773ZM28.7486 120.305L10.7962 103.178V24.4542L27.91 8.12725H28.7486V120.305ZM186.517 120.305V8.12725H187.355L204.469 24.4542V103.178L186.517 120.305Z" fill="white"/>
</mask>
<g mask="url(#mask0_983_1512)">
<path d="M194.607 127.283H20.659L0 107.575V105.903C1.32778 105.903 2.43857 104.975 2.71768 103.731C2.76178 103.533 2.78506 103.329 2.78506 103.118C2.78506 101.582 1.53812 100.334 0 100.334V99.251V98.0269H0.000560588C1.32778 98.0269 2.43856 97.0972 2.7174 95.8541C2.76178 95.6578 2.78506 95.4531 2.78506 95.2427C2.78506 93.7045 1.53812 92.4579 0.000560588 92.4579H0V91.3719V90.1477C1.32778 90.1477 2.43856 89.2194 2.71796 87.9763C2.76206 87.7793 2.78534 87.5746 2.78534 87.3643C2.78534 85.826 1.53812 84.5787 0 84.5787V83.4927V82.2685C1.32778 82.2685 2.43856 81.3409 2.7174 80.0965C2.7615 79.8994 2.78478 79.6947 2.78478 79.4837C2.78478 77.9461 1.53812 76.7002 0 76.7002V75.6156V74.3915C1.32778 74.3915 2.43857 73.4625 2.71768 72.2194C2.76178 72.0224 2.78506 71.8177 2.78506 71.6073C2.78506 70.0684 1.53812 68.8218 0 68.8218V67.7378V66.5137C1.32778 66.5137 2.43884 65.5847 2.71796 64.3409C2.76206 64.1439 2.78534 63.9392 2.78534 63.7288C2.78534 62.1913 1.53812 60.9447 0 60.9447V59.8594V58.6352C1.32778 58.6352 2.43835 57.7062 2.71712 56.4631C2.7615 56.2661 2.78478 56.0614 2.78478 55.8511C2.78478 54.3128 1.53812 53.0662 0 53.0662V51.9816V50.7574C1.32778 50.7574 2.43857 49.8277 2.71768 48.5846C2.76178 48.3876 2.78506 48.1829 2.78506 47.9726C2.78506 46.435 1.53812 45.1884 0 45.1884V44.1031V42.8782C1.32778 42.8782 2.43857 41.95 2.71768 40.7069C2.76178 40.5099 2.78506 40.3051 2.78506 40.0948C2.78506 38.5558 1.53812 37.3107 0 37.3107V36.2253V35.0011C1.32778 35.0011 2.43857 34.0722 2.71768 32.8291C2.76178 32.6321 2.78506 32.4273 2.78506 32.217C2.78506 30.6787 1.53812 29.4322 0 29.4322V28.3482V27.1241C1.32778 27.1241 2.43857 26.1951 2.71768 24.9506C2.76178 24.7536 2.78506 24.5489 2.78506 24.3385C2.78506 22.8017 1.53812 21.5537 0 21.5537V21.2817V20.0575L20.659 0.34832H27.3092V7.73112L10.0951 24.1541V103.478L28.9589 121.474H186.306L205.17 103.478V24.1541L205.061 24.0504L188.371 8.12725H202.76L215.265 20.0575V21.5537C213.727 21.5544 212.48 22.8017 212.48 24.3385C212.48 24.5489 212.504 24.7536 212.548 24.9506C212.827 26.1944 213.937 27.1227 215.265 27.1241V29.4322C213.727 29.4336 212.48 30.6787 212.48 32.217C212.48 32.4273 212.504 32.6321 212.548 32.8291C212.827 34.0722 213.937 35.0011 215.265 35.0011V37.3107C213.727 37.3107 212.48 38.5558 212.48 40.0948C212.48 40.3051 212.504 40.5099 212.548 40.7069C212.827 41.95 213.937 42.8782 215.265 42.8782V45.1884C213.727 45.1891 212.48 46.435 212.48 47.9726C212.48 48.1829 212.504 48.3876 212.548 48.5846C212.827 49.8277 213.937 50.7567 215.265 50.7574V53.0662C213.727 53.0676 212.48 54.3128 212.48 55.8511C212.48 56.0614 212.504 56.2661 212.548 56.4631C212.827 57.7062 213.937 58.6352 215.265 58.6352V60.9447C213.727 60.9447 212.48 62.1913 212.48 63.7288C212.48 63.9392 212.504 64.1439 212.548 64.3409C212.827 65.5847 213.937 66.5123 215.265 66.5137V68.8218C213.727 68.8232 212.48 70.0684 212.48 71.6073C212.48 71.8177 212.504 72.0224 212.548 72.2194C212.827 73.4625 213.937 74.3915 215.265 74.3915V76.7002C213.726 76.7002 212.48 77.9461 212.48 79.4837C212.48 79.6947 212.504 79.8994 212.548 80.0965C212.827 81.3409 213.936 82.2685 215.265 82.2685V84.5787C213.727 84.5801 212.48 85.826 212.48 87.3643C212.48 87.5746 212.504 87.7793 212.548 87.9763C212.827 89.2187 213.937 90.147 215.265 90.1477V92.4579C213.727 92.4579 212.48 93.7045 212.48 95.2427C212.48 95.4531 212.504 95.6578 212.548 95.8541C212.827 97.0972 213.937 98.0269 215.265 98.0269V100.334C213.727 100.334 212.48 101.582 212.48 103.118C212.48 103.329 212.504 103.533 212.548 103.731C212.827 104.974 213.937 105.902 215.265 105.903V107.575L194.607 127.283ZM185.815 120.773H29.4497V8.12725H185.815V120.773ZM28.7486 120.305L10.7962 103.178V24.4542L27.91 8.12725H28.7486V120.305ZM186.517 120.305V8.12725H187.355L204.469 24.4542V103.178L186.517 120.305Z" fill="url(#paint0_linear_983_1512)"/>
</g>
<defs>
<linearGradient id="paint0_linear_983_1512" x1="-7.45648" y1="2.72581" x2="214.438" y2="120.509" gradientUnits="userSpaceOnUse">
<stop stop-color="#A6A6A6"/>
<stop offset="1" stop-color="#EAEAEA"/>
</linearGradient>
</defs>
</svg> 