<svg width="216" height="128" viewBox="0 0 216 128" fill="none" xmlns="http://www.w3.org/2000/svg">
<mask id="mask0_983_1554" style="mask-type:luminance" maskUnits="userSpaceOnUse" x="0" y="0" width="216" height="128">
<path d="M195.183 127.628H21.2352L0.576172 107.92V106.248C1.90395 106.248 3.01474 105.32 3.29385 104.075C3.33795 103.878 3.36123 103.673 3.36123 103.462C3.36123 101.926 2.11429 100.679 0.576172 100.679V99.5958V98.3716H0.576732C1.90395 98.3716 3.01474 97.4419 3.29357 96.1988C3.33795 96.0025 3.36123 95.7978 3.36123 95.5875C3.36123 94.0492 2.11429 92.8026 0.576732 92.8026H0.576172V91.7166V90.4924C1.90395 90.4924 3.01473 89.5641 3.29413 88.3211C3.33823 88.124 3.36151 87.9193 3.36151 87.709C3.36151 86.1707 2.11429 84.9234 0.576172 84.9234V83.8374V82.6133C1.90395 82.6133 3.01474 81.6857 3.29357 80.4412C3.33767 80.2442 3.36095 80.0394 3.36095 79.8284C3.36095 78.2909 2.11429 77.045 0.576172 77.045V75.9603V74.7362C1.90395 74.7362 3.01474 73.8072 3.29385 72.5641C3.33795 72.3671 3.36123 72.1624 3.36123 71.952C3.36123 70.4131 2.11429 69.1665 0.576172 69.1665V68.0826V66.8584C1.90395 66.8584 3.01502 65.9294 3.29413 64.6856C3.33823 64.4886 3.36151 64.2839 3.36151 64.0736C3.36151 62.536 2.11429 61.2894 0.576172 61.2894V60.2041V58.9799C1.90395 58.9799 3.01452 58.0509 3.29329 56.8079C3.33767 56.6108 3.36095 56.4061 3.36095 56.1958C3.36095 54.6575 2.11429 53.4109 0.576172 53.4109V52.3263V51.1021C1.90395 51.1021 3.01474 50.1725 3.29385 48.9294C3.33795 48.7324 3.36123 48.5276 3.36123 48.3173C3.36123 46.7797 2.11429 45.5332 0.576172 45.5332V44.4478V43.223C1.90395 43.223 3.01474 42.2947 3.29385 41.0516C3.33795 40.8546 3.36123 40.6499 3.36123 40.4395C3.36123 38.9006 2.11429 37.6554 0.576172 37.6554V36.57V35.3459C1.90395 35.3459 3.01474 34.4169 3.29385 33.1738C3.33795 32.9768 3.36123 32.7721 3.36123 32.5617C3.36123 31.0235 2.11429 29.7769 0.576172 29.7769V28.693V27.4688C1.90395 27.4688 3.01474 26.5398 3.29385 25.2953C3.33795 25.0983 3.36123 24.8936 3.36123 24.6833C3.36123 23.1464 2.11429 21.8984 0.576172 21.8984V21.6264V20.4022L21.2352 0.693047H27.8853V8.07585L10.6712 24.4989V103.823L29.5351 121.819H186.882L205.746 103.823V24.4989L205.637 24.3951L188.947 8.47198H203.336L215.841 20.4022V21.8984C214.303 21.8991 213.057 23.1464 213.057 24.6833C213.057 24.8936 213.08 25.0983 213.125 25.2953C213.403 26.5391 214.514 27.4674 215.841 27.4688V29.7769C214.303 29.7783 213.057 31.0235 213.057 32.5617C213.057 32.7721 213.08 32.9768 213.125 33.1738C213.403 34.4169 214.514 35.3459 215.841 35.3459V37.6554C214.303 37.6554 213.057 38.9006 213.057 40.4395C213.057 40.6499 213.08 40.8546 213.125 41.0516C213.403 42.2947 214.514 43.223 215.841 43.223V45.5332C214.303 45.5339 213.057 46.7797 213.057 48.3173C213.057 48.5276 213.08 48.7324 213.125 48.9294C213.403 50.1725 214.514 51.1014 215.841 51.1021V53.4109C214.303 53.4123 213.057 54.6575 213.057 56.1958C213.057 56.4061 213.08 56.6108 213.125 56.8079C213.403 58.0509 214.514 58.9799 215.841 58.9799V61.2894C214.303 61.2894 213.057 62.536 213.057 64.0736C213.057 64.2839 213.08 64.4886 213.125 64.6856C213.403 65.9294 214.514 66.857 215.841 66.8584V69.1665C214.303 69.1679 213.057 70.4131 213.057 71.952C213.057 72.1624 213.08 72.3671 213.125 72.5641C213.403 73.8072 214.514 74.7362 215.841 74.7362V77.045C214.302 77.045 213.057 78.2909 213.057 79.8284C213.057 80.0394 213.08 80.2442 213.124 80.4412C213.403 81.6857 214.512 82.6133 215.841 82.6133V84.9234C214.303 84.9248 213.057 86.1707 213.057 87.709C213.057 87.9193 213.08 88.124 213.125 88.3211C213.403 89.5634 214.514 90.4917 215.841 90.4924V92.8026C214.303 92.8026 213.057 94.0492 213.057 95.5875C213.057 95.7978 213.08 96.0025 213.125 96.1988C213.403 97.4419 214.514 98.3716 215.841 98.3716V100.679C214.303 100.679 213.057 101.926 213.057 103.462C213.057 103.673 213.08 103.878 213.125 104.075C213.403 105.319 214.514 106.247 215.841 106.248V107.92L195.183 127.628ZM186.392 121.118H30.0259V8.47198H186.392V121.118ZM29.3247 120.65L11.3724 103.523V24.799L28.4862 8.47198H29.3247V120.65ZM187.093 120.65V8.47198H187.931L205.045 24.799V103.523L187.093 120.65Z" fill="white"/>
</mask>
<g mask="url(#mask0_983_1554)">
<path d="M195.183 127.628H21.2352L0.576172 107.92V106.248C1.90395 106.248 3.01474 105.32 3.29385 104.075C3.33795 103.878 3.36123 103.673 3.36123 103.462C3.36123 101.926 2.11429 100.679 0.576172 100.679V99.5958V98.3716H0.576732C1.90395 98.3716 3.01474 97.4419 3.29357 96.1988C3.33795 96.0025 3.36123 95.7978 3.36123 95.5875C3.36123 94.0492 2.11429 92.8026 0.576732 92.8026H0.576172V91.7166V90.4924C1.90395 90.4924 3.01473 89.5641 3.29413 88.3211C3.33823 88.124 3.36151 87.9193 3.36151 87.709C3.36151 86.1707 2.11429 84.9234 0.576172 84.9234V83.8374V82.6133C1.90395 82.6133 3.01474 81.6857 3.29357 80.4412C3.33767 80.2442 3.36095 80.0394 3.36095 79.8284C3.36095 78.2909 2.11429 77.045 0.576172 77.045V75.9603V74.7362C1.90395 74.7362 3.01474 73.8072 3.29385 72.5641C3.33795 72.3671 3.36123 72.1624 3.36123 71.952C3.36123 70.4131 2.11429 69.1665 0.576172 69.1665V68.0826V66.8584C1.90395 66.8584 3.01502 65.9294 3.29413 64.6856C3.33823 64.4886 3.36151 64.2839 3.36151 64.0736C3.36151 62.536 2.11429 61.2894 0.576172 61.2894V60.2041V58.9799C1.90395 58.9799 3.01452 58.0509 3.29329 56.8079C3.33767 56.6108 3.36095 56.4061 3.36095 56.1958C3.36095 54.6575 2.11429 53.4109 0.576172 53.4109V52.3263V51.1021C1.90395 51.1021 3.01474 50.1725 3.29385 48.9294C3.33795 48.7324 3.36123 48.5276 3.36123 48.3173C3.36123 46.7797 2.11429 45.5332 0.576172 45.5332V44.4478V43.223C1.90395 43.223 3.01474 42.2947 3.29385 41.0516C3.33795 40.8546 3.36123 40.6499 3.36123 40.4395C3.36123 38.9006 2.11429 37.6554 0.576172 37.6554V36.57V35.3459C1.90395 35.3459 3.01474 34.4169 3.29385 33.1738C3.33795 32.9768 3.36123 32.7721 3.36123 32.5617C3.36123 31.0235 2.11429 29.7769 0.576172 29.7769V28.693V27.4688C1.90395 27.4688 3.01474 26.5398 3.29385 25.2953C3.33795 25.0983 3.36123 24.8936 3.36123 24.6833C3.36123 23.1464 2.11429 21.8984 0.576172 21.8984V21.6264V20.4022L21.2352 0.693047H27.8853V8.07585L10.6712 24.4989V103.823L29.5351 121.819H186.882L205.746 103.823V24.4989L205.637 24.3951L188.947 8.47198H203.336L215.841 20.4022V21.8984C214.303 21.8991 213.057 23.1464 213.057 24.6833C213.057 24.8936 213.08 25.0983 213.125 25.2953C213.403 26.5391 214.514 27.4674 215.841 27.4688V29.7769C214.303 29.7783 213.057 31.0235 213.057 32.5617C213.057 32.7721 213.08 32.9768 213.125 33.1738C213.403 34.4169 214.514 35.3459 215.841 35.3459V37.6554C214.303 37.6554 213.057 38.9006 213.057 40.4395C213.057 40.6499 213.08 40.8546 213.125 41.0516C213.403 42.2947 214.514 43.223 215.841 43.223V45.5332C214.303 45.5339 213.057 46.7797 213.057 48.3173C213.057 48.5276 213.08 48.7324 213.125 48.9294C213.403 50.1725 214.514 51.1014 215.841 51.1021V53.4109C214.303 53.4123 213.057 54.6575 213.057 56.1958C213.057 56.4061 213.08 56.6108 213.125 56.8079C213.403 58.0509 214.514 58.9799 215.841 58.9799V61.2894C214.303 61.2894 213.057 62.536 213.057 64.0736C213.057 64.2839 213.08 64.4886 213.125 64.6856C213.403 65.9294 214.514 66.857 215.841 66.8584V69.1665C214.303 69.1679 213.057 70.4131 213.057 71.952C213.057 72.1624 213.08 72.3671 213.125 72.5641C213.403 73.8072 214.514 74.7362 215.841 74.7362V77.045C214.302 77.045 213.057 78.2909 213.057 79.8284C213.057 80.0394 213.08 80.2442 213.124 80.4412C213.403 81.6857 214.512 82.6133 215.841 82.6133V84.9234C214.303 84.9248 213.057 86.1707 213.057 87.709C213.057 87.9193 213.08 88.124 213.125 88.3211C213.403 89.5634 214.514 90.4917 215.841 90.4924V92.8026C214.303 92.8026 213.057 94.0492 213.057 95.5875C213.057 95.7978 213.08 96.0025 213.125 96.1988C213.403 97.4419 214.514 98.3716 215.841 98.3716V100.679C214.303 100.679 213.057 101.926 213.057 103.462C213.057 103.673 213.08 103.878 213.125 104.075C213.403 105.319 214.514 106.247 215.841 106.248V107.92L195.183 127.628ZM186.392 121.118H30.0259V8.47198H186.392V121.118ZM29.3247 120.65L11.3724 103.523V24.799L28.4862 8.47198H29.3247V120.65ZM187.093 120.65V8.47198H187.931L205.045 24.799V103.523L187.093 120.65Z" fill="url(#paint0_linear_983_1554)"/>
</g>
<defs>
<linearGradient id="paint0_linear_983_1554" x1="-6.88031" y1="3.07054" x2="215.014" y2="120.854" gradientUnits="userSpaceOnUse">
<stop stop-color="#865058"/>
<stop offset="1" stop-color="#6A3D43"/>
</linearGradient>
</defs>
</svg> 