<svg width="21" height="21" viewBox="0 0 21 21" fill="none" xmlns="http://www.w3.org/2000/svg">
<path fill-rule="evenodd" clip-rule="evenodd" d="M10.1931 0C4.55658 0 0 4.59017 0 10.2688C0 14.8081 2.91956 18.6505 6.96976 20.0104C7.47614 20.1127 7.66163 19.7895 7.66163 19.5176C7.66163 19.2796 7.64493 18.4636 7.64493 17.6133C4.80946 18.2255 4.219 16.3892 4.219 16.3892C3.76332 15.1991 3.08814 14.8932 3.08814 14.8932C2.16009 14.2642 3.15574 14.2642 3.15574 14.2642C4.1852 14.3322 4.72538 15.3182 4.72538 15.3182C5.63653 16.8822 7.10475 16.4403 7.69543 16.1683C7.77972 15.5052 8.04991 15.0462 8.3368 14.7912C6.0753 14.5531 3.69592 13.6691 3.69592 9.7247C3.69592 8.60261 4.10069 7.68458 4.74207 6.9706C4.64087 6.71563 4.28639 5.66135 4.84347 4.25029C4.84347 4.25029 5.70413 3.97822 7.64473 5.30436C8.47557 5.07958 9.3324 4.96524 10.1931 4.96427C11.0538 4.96427 11.9311 5.08341 12.7413 5.30436C14.6821 3.97822 15.5427 4.25029 15.5427 4.25029C16.0998 5.66135 15.7451 6.71563 15.6439 6.9706C16.3022 7.68458 16.6903 8.60261 16.6903 9.7247C16.6903 13.6691 14.3109 14.536 12.0325 14.7912C12.4039 15.1142 12.7244 15.7261 12.7244 16.6953C12.7244 18.0723 12.7077 19.1775 12.7077 19.5174C12.7077 19.7895 12.8934 20.1127 13.3996 20.0107C17.4498 18.6503 20.3693 14.8081 20.3693 10.2688C20.386 4.59017 15.8127 0 10.1931 0Z" fill="white"/>
</svg>
