<svg width="522" height="192" viewBox="0 0 522 192" fill="none" xmlns="http://www.w3.org/2000/svg">
<g filter="url(#filter0_b_1211_1742)">
<path d="M0 13C0 5.82029 5.8203 0 13 0H509C516.18 0 522 5.8203 522 13V179C522 186.18 516.18 192 509 192H13C5.82029 192 0 186.18 0 179V13Z" fill="url(#paint0_radial_1211_1742)" fill-opacity="0.6"/>
<path d="M0.5 13C0.5 6.09644 6.09644 0.5 13 0.5H509C515.904 0.5 521.5 6.09644 521.5 13V179C521.5 185.904 515.904 191.5 509 191.5H13C6.09643 191.5 0.5 185.904 0.5 179V13Z" stroke="url(#paint1_linear_1211_1742)"/>
</g>
<rect x="57" y="22" width="157" height="65" rx="12" fill="#363636"/>
<path d="M67.5581 66.574C68.3874 66.574 68.9925 66.7366 69.3734 67.0618C69.7573 67.3842 69.9492 67.8472 69.9492 68.4508C69.9492 68.7233 69.9038 68.9826 69.8129 69.2288C69.725 69.472 69.5814 69.6874 69.3822 69.8749C69.1829 70.0595 68.9207 70.206 68.5954 70.3144C68.2731 70.4199 67.8775 70.4727 67.4087 70.4727H66.6263V73H65.8791V66.574H67.5581ZM67.4878 67.2113H66.6263V69.8309H67.3252C67.7354 69.8309 68.0768 69.787 68.3493 69.6991C68.6247 69.6112 68.8313 69.469 68.969 69.2727C69.1067 69.0735 69.1756 68.8097 69.1756 68.4816C69.1756 68.0537 69.0393 67.7358 68.7668 67.5278C68.4943 67.3168 68.068 67.2113 67.4878 67.2113ZM73.3732 68.0948C73.4699 68.0948 73.571 68.1006 73.6765 68.1123C73.782 68.1211 73.8757 68.1343 73.9578 68.1519L73.8655 68.8288C73.7864 68.8083 73.6984 68.7922 73.6017 68.7804C73.505 68.7687 73.4142 68.7629 73.3292 68.7629C73.1358 68.7629 72.9527 68.8024 72.7798 68.8815C72.6099 68.9577 72.4604 69.0691 72.3315 69.2156C72.2026 69.3592 72.1015 69.5335 72.0282 69.7386C71.9549 69.9408 71.9183 70.1664 71.9183 70.4155V73H71.1843V68.1827H71.7909L71.87 69.0705H71.9007C72.0004 68.8918 72.1205 68.7292 72.2612 68.5826C72.4018 68.4332 72.5644 68.3145 72.749 68.2266C72.9366 68.1387 73.1446 68.0948 73.3732 68.0948ZM75.5972 68.1827V73H74.8676V68.1827H75.5972ZM75.2412 66.3806C75.3614 66.3806 75.4639 66.4201 75.5489 66.4992C75.6368 66.5754 75.6808 66.6956 75.6808 66.8597C75.6808 67.0208 75.6368 67.141 75.5489 67.2201C75.4639 67.2992 75.3614 67.3388 75.2412 67.3388C75.1152 67.3388 75.0097 67.2992 74.9248 67.2201C74.8427 67.141 74.8017 67.0208 74.8017 66.8597C74.8017 66.6956 74.8427 66.5754 74.9248 66.4992C75.0097 66.4201 75.1152 66.3806 75.2412 66.3806ZM80.2388 73H76.7269V72.5165L79.3685 68.7541H76.8939V68.1827H80.1816V68.7233L77.5752 72.433H80.2388V73ZM83.2188 68.0948C83.6291 68.0948 83.9807 68.1856 84.2737 68.3673C84.5667 68.549 84.7909 68.8039 84.9462 69.1321C85.1015 69.4573 85.1792 69.8383 85.1792 70.2749V70.7276H81.8519C81.8607 71.2931 82.0013 71.7239 82.2738 72.0198C82.5463 72.3158 82.9302 72.4638 83.4254 72.4638C83.7302 72.4638 83.9997 72.4359 84.2342 72.3803C84.4686 72.3246 84.7118 72.2425 84.9638 72.1341V72.7758C84.7206 72.8843 84.4788 72.9634 84.2386 73.0132C84.0012 73.063 83.7199 73.0879 83.3946 73.0879C82.9317 73.0879 82.5273 72.9941 82.1815 72.8066C81.8387 72.6161 81.572 72.3378 81.3816 71.9715C81.1911 71.6052 81.0959 71.1569 81.0959 70.6265C81.0959 70.1078 81.1823 69.6595 81.3552 69.2815C81.531 68.9006 81.7771 68.6076 82.0936 68.4024C82.413 68.1973 82.7881 68.0948 83.2188 68.0948ZM83.21 68.6925C82.8203 68.6925 82.5097 68.82 82.2782 69.0749C82.0467 69.3299 81.909 69.6859 81.8651 70.143H84.4144C84.4114 69.8558 84.366 69.6038 84.2781 69.387C84.1931 69.1672 84.0627 68.9973 83.8869 68.8771C83.7111 68.7541 83.4855 68.6925 83.21 68.6925ZM90.5459 66.574C91.3752 66.574 91.9803 66.7366 92.3612 67.0618C92.7451 67.3842 92.937 67.8472 92.937 68.4508C92.937 68.7233 92.8916 68.9826 92.8007 69.2288C92.7128 69.472 92.5693 69.6874 92.37 69.8749C92.1707 70.0595 91.9085 70.206 91.5832 70.3144C91.2609 70.4199 90.8653 70.4727 90.3965 70.4727H89.6141V73H88.8669V66.574H90.5459ZM90.4756 67.2113H89.6141V69.8309H90.313C90.7232 69.8309 91.0646 69.787 91.3371 69.6991C91.6125 69.6112 91.8191 69.469 91.9568 69.2727C92.0946 69.0735 92.1634 68.8097 92.1634 68.4816C92.1634 68.0537 92.0272 67.7358 91.7546 67.5278C91.4821 67.3168 91.0558 67.2113 90.4756 67.2113ZM98.3257 70.5825C98.3257 70.9781 98.2745 71.3312 98.1719 71.6418C98.0693 71.9524 97.9214 72.2147 97.728 72.4286C97.5346 72.6425 97.3001 72.8066 97.0247 72.9209C96.7522 73.0322 96.443 73.0879 96.0973 73.0879C95.7749 73.0879 95.479 73.0322 95.2094 72.9209C94.9428 72.8066 94.7113 72.6425 94.5149 72.4286C94.3215 72.2147 94.1706 71.9524 94.0622 71.6418C93.9567 71.3312 93.904 70.9781 93.904 70.5825C93.904 70.0551 93.9934 69.6068 94.1721 69.2376C94.3508 68.8654 94.6058 68.5826 94.9369 68.3893C95.2709 68.1929 95.668 68.0948 96.128 68.0948C96.5676 68.0948 96.9514 68.1929 97.2796 68.3893C97.6107 68.5856 97.8671 68.8698 98.0488 69.242C98.2334 69.6112 98.3257 70.058 98.3257 70.5825ZM94.66 70.5825C94.66 70.9693 94.7113 71.3049 94.8138 71.5891C94.9164 71.8733 95.0746 72.0931 95.2885 72.2484C95.5024 72.4037 95.7779 72.4813 96.1149 72.4813C96.4489 72.4813 96.7229 72.4037 96.9368 72.2484C97.1536 72.0931 97.3133 71.8733 97.4159 71.5891C97.5184 71.3049 97.5697 70.9693 97.5697 70.5825C97.5697 70.1987 97.5184 69.8676 97.4159 69.5892C97.3133 69.3079 97.1551 69.091 96.9412 68.9387C96.7273 68.7863 96.4504 68.7101 96.1105 68.7101C95.6094 68.7101 95.2416 68.8757 95.0072 69.2068C94.7757 69.5379 94.66 69.9965 94.66 70.5825ZM103.741 70.5825C103.741 70.9781 103.69 71.3312 103.587 71.6418C103.484 71.9524 103.336 72.2147 103.143 72.4286C102.95 72.6425 102.715 72.8066 102.44 72.9209C102.167 73.0322 101.858 73.0879 101.512 73.0879C101.19 73.0879 100.894 73.0322 100.625 72.9209C100.358 72.8066 100.126 72.6425 99.93 72.4286C99.7366 72.2147 99.5857 71.9524 99.4773 71.6418C99.3718 71.3312 99.3191 70.9781 99.3191 70.5825C99.3191 70.0551 99.4085 69.6068 99.5872 69.2376C99.7659 68.8654 100.021 68.5826 100.352 68.3893C100.686 68.1929 101.083 68.0948 101.543 68.0948C101.983 68.0948 102.367 68.1929 102.695 68.3893C103.026 68.5856 103.282 68.8698 103.464 69.242C103.649 69.6112 103.741 70.058 103.741 70.5825ZM100.075 70.5825C100.075 70.9693 100.126 71.3049 100.229 71.5891C100.331 71.8733 100.49 72.0931 100.704 72.2484C100.918 72.4037 101.193 72.4813 101.53 72.4813C101.864 72.4813 102.138 72.4037 102.352 72.2484C102.569 72.0931 102.728 71.8733 102.831 71.5891C102.934 71.3049 102.985 70.9693 102.985 70.5825C102.985 70.1987 102.934 69.8676 102.831 69.5892C102.728 69.3079 102.57 69.091 102.356 68.9387C102.142 68.7863 101.865 68.7101 101.526 68.7101C101.024 68.7101 100.657 68.8757 100.422 69.2068C100.191 69.5379 100.075 69.9965 100.075 70.5825ZM105.736 73H105.002V66.1608H105.736V73Z" fill="#B7B7B7"/>
<rect x="307" y="22" width="157" height="65" rx="12" fill="#363636"/>
<rect x="57" y="103" width="157" height="65" rx="12" fill="#363636"/>
<rect x="307" y="105" width="157" height="65" rx="12" fill="#363636"/>
<path d="M318.558 146.574C319.387 146.574 319.992 146.737 320.373 147.062C320.757 147.384 320.949 147.847 320.949 148.451C320.949 148.723 320.904 148.983 320.813 149.229C320.725 149.472 320.581 149.687 320.382 149.875C320.183 150.059 319.921 150.206 319.595 150.314C319.273 150.42 318.878 150.473 318.409 150.473H317.626V153H316.879V146.574H318.558ZM318.488 147.211H317.626V149.831H318.325C318.735 149.831 319.077 149.787 319.349 149.699C319.625 149.611 319.831 149.469 319.969 149.273C320.107 149.073 320.176 148.81 320.176 148.482C320.176 148.054 320.039 147.736 319.767 147.528C319.494 147.317 319.068 147.211 318.488 147.211ZM324.373 148.095C324.47 148.095 324.571 148.101 324.676 148.112C324.782 148.121 324.876 148.134 324.958 148.152L324.865 148.829C324.786 148.808 324.698 148.792 324.602 148.78C324.505 148.769 324.414 148.763 324.329 148.763C324.136 148.763 323.953 148.802 323.78 148.882C323.61 148.958 323.46 149.069 323.331 149.216C323.203 149.359 323.101 149.534 323.028 149.739C322.955 149.941 322.918 150.166 322.918 150.416V153H322.184V148.183H322.791L322.87 149.071H322.901C323 148.892 323.121 148.729 323.261 148.583C323.402 148.433 323.564 148.315 323.749 148.227C323.937 148.139 324.145 148.095 324.373 148.095ZM327.722 148.095C328.133 148.095 328.484 148.186 328.777 148.367C329.07 148.549 329.295 148.804 329.45 149.132C329.605 149.457 329.683 149.838 329.683 150.275V150.728H326.356C326.364 151.293 326.505 151.724 326.777 152.02C327.05 152.316 327.434 152.464 327.929 152.464C328.234 152.464 328.503 152.436 328.738 152.38C328.972 152.325 329.215 152.243 329.467 152.134V152.776C329.224 152.884 328.982 152.963 328.742 153.013C328.505 153.063 328.224 153.088 327.898 153.088C327.435 153.088 327.031 152.994 326.685 152.807C326.342 152.616 326.076 152.338 325.885 151.971C325.695 151.605 325.599 151.157 325.599 150.626C325.599 150.108 325.686 149.66 325.859 149.282C326.035 148.901 326.281 148.608 326.597 148.402C326.917 148.197 327.292 148.095 327.722 148.095ZM327.714 148.693C327.324 148.693 327.013 148.82 326.782 149.075C326.55 149.33 326.413 149.686 326.369 150.143H328.918C328.915 149.856 328.87 149.604 328.782 149.387C328.697 149.167 328.566 148.997 328.391 148.877C328.215 148.754 327.989 148.693 327.714 148.693ZM331.982 153L330.153 148.183H330.935L331.995 151.097C332.068 151.296 332.143 151.516 332.219 151.756C332.295 151.996 332.348 152.19 332.377 152.336H332.408C332.443 152.19 332.502 151.996 332.584 151.756C332.666 151.513 332.741 151.293 332.808 151.097L333.867 148.183H334.65L332.817 153H331.982ZM336.153 148.183V153H335.423V148.183H336.153ZM335.797 146.381C335.917 146.381 336.019 146.42 336.104 146.499C336.192 146.575 336.236 146.696 336.236 146.86C336.236 147.021 336.192 147.141 336.104 147.22C336.019 147.299 335.917 147.339 335.797 147.339C335.671 147.339 335.565 147.299 335.48 147.22C335.398 147.141 335.357 147.021 335.357 146.86C335.357 146.696 335.398 146.575 335.48 146.499C335.565 146.42 335.671 146.381 335.797 146.381ZM341.854 150.583C341.854 150.978 341.802 151.331 341.7 151.642C341.597 151.952 341.449 152.215 341.256 152.429C341.062 152.643 340.828 152.807 340.553 152.921C340.28 153.032 339.971 153.088 339.625 153.088C339.303 153.088 339.007 153.032 338.737 152.921C338.471 152.807 338.239 152.643 338.043 152.429C337.849 152.215 337.699 151.952 337.59 151.642C337.485 151.331 337.432 150.978 337.432 150.583C337.432 150.055 337.521 149.607 337.7 149.238C337.879 148.865 338.134 148.583 338.465 148.389C338.799 148.193 339.196 148.095 339.656 148.095C340.095 148.095 340.479 148.193 340.807 148.389C341.139 148.586 341.395 148.87 341.577 149.242C341.761 149.611 341.854 150.058 341.854 150.583ZM338.188 150.583C338.188 150.969 338.239 151.305 338.342 151.589C338.444 151.873 338.602 152.093 338.816 152.248C339.03 152.404 339.306 152.481 339.643 152.481C339.977 152.481 340.251 152.404 340.465 152.248C340.681 152.093 340.841 151.873 340.944 151.589C341.046 151.305 341.098 150.969 341.098 150.583C341.098 150.199 341.046 149.868 340.944 149.589C340.841 149.308 340.683 149.091 340.469 148.939C340.255 148.786 339.978 148.71 339.638 148.71C339.137 148.71 338.77 148.876 338.535 149.207C338.304 149.538 338.188 149.996 338.188 150.583ZM347.093 148.183V153H346.495L346.39 152.323H346.35C346.25 152.49 346.122 152.631 345.963 152.745C345.805 152.859 345.626 152.944 345.427 153C345.231 153.059 345.021 153.088 344.798 153.088C344.418 153.088 344.098 153.026 343.84 152.903C343.582 152.78 343.388 152.59 343.256 152.332C343.127 152.074 343.062 151.743 343.062 151.339V148.183H343.801V151.286C343.801 151.687 343.892 151.988 344.073 152.187C344.255 152.383 344.532 152.481 344.904 152.481C345.261 152.481 345.546 152.414 345.757 152.279C345.971 152.144 346.124 151.947 346.218 151.686C346.312 151.422 346.359 151.1 346.359 150.719V148.183H347.093ZM351.752 151.681C351.752 151.989 351.674 152.248 351.519 152.459C351.367 152.667 351.147 152.824 350.86 152.93C350.575 153.035 350.236 153.088 349.84 153.088C349.503 153.088 349.211 153.062 348.965 153.009C348.719 152.956 348.504 152.881 348.319 152.785V152.112C348.516 152.209 348.75 152.297 349.022 152.376C349.295 152.455 349.573 152.495 349.858 152.495C350.274 152.495 350.575 152.427 350.763 152.292C350.951 152.158 351.044 151.974 351.044 151.743C351.044 151.611 351.006 151.495 350.93 151.396C350.857 151.293 350.732 151.195 350.556 151.101C350.381 151.004 350.137 150.899 349.827 150.785C349.519 150.668 349.252 150.552 349.027 150.437C348.804 150.32 348.631 150.178 348.508 150.011C348.388 149.844 348.328 149.627 348.328 149.361C348.328 148.953 348.492 148.641 348.82 148.424C349.151 148.205 349.585 148.095 350.121 148.095C350.411 148.095 350.682 148.124 350.934 148.183C351.189 148.238 351.427 148.315 351.646 148.411L351.4 148.996C351.201 148.911 350.989 148.839 350.763 148.78C350.537 148.722 350.307 148.693 350.073 148.693C349.736 148.693 349.477 148.748 349.295 148.86C349.116 148.971 349.027 149.123 349.027 149.317C349.027 149.466 349.068 149.589 349.15 149.686C349.235 149.783 349.37 149.873 349.554 149.958C349.739 150.043 349.982 150.143 350.284 150.257C350.586 150.369 350.847 150.484 351.066 150.605C351.286 150.722 351.455 150.865 351.572 151.035C351.692 151.202 351.752 151.418 351.752 151.681ZM357.11 146.574C357.637 146.574 358.073 146.64 358.415 146.772C358.761 146.901 359.019 147.098 359.189 147.365C359.359 147.632 359.444 147.972 359.444 148.385C359.444 148.725 359.382 149.009 359.259 149.238C359.136 149.463 358.975 149.646 358.776 149.787C358.577 149.928 358.364 150.036 358.138 150.112L359.901 153H359.031L357.457 150.319H356.121V153H355.374V146.574H357.11ZM357.066 147.22H356.121V149.686H357.141C357.665 149.686 358.051 149.579 358.297 149.365C358.546 149.151 358.67 148.836 358.67 148.42C358.67 147.983 358.538 147.674 358.275 147.493C358.014 147.311 357.611 147.22 357.066 147.22ZM362.674 148.095C363.085 148.095 363.436 148.186 363.729 148.367C364.022 148.549 364.247 148.804 364.402 149.132C364.557 149.457 364.635 149.838 364.635 150.275V150.728H361.308C361.316 151.293 361.457 151.724 361.729 152.02C362.002 152.316 362.386 152.464 362.881 152.464C363.186 152.464 363.455 152.436 363.69 152.38C363.924 152.325 364.167 152.243 364.419 152.134V152.776C364.176 152.884 363.934 152.963 363.694 153.013C363.457 153.063 363.176 153.088 362.85 153.088C362.387 153.088 361.983 152.994 361.637 152.807C361.294 152.616 361.028 152.338 360.837 151.971C360.647 151.605 360.552 151.157 360.552 150.626C360.552 150.108 360.638 149.66 360.811 149.282C360.987 148.901 361.233 148.608 361.549 148.402C361.869 148.197 362.244 148.095 362.674 148.095ZM362.666 148.693C362.276 148.693 361.965 148.82 361.734 149.075C361.502 149.33 361.365 149.686 361.321 150.143H363.87C363.867 149.856 363.822 149.604 363.734 149.387C363.649 149.167 363.518 148.997 363.343 148.877C363.167 148.754 362.941 148.693 362.666 148.693ZM367.219 155.163C366.586 155.163 366.098 155.044 365.756 154.806C365.413 154.572 365.241 154.242 365.241 153.818C365.241 153.516 365.337 153.258 365.527 153.044C365.72 152.83 365.987 152.688 366.327 152.618C366.201 152.559 366.093 152.471 366.002 152.354C365.914 152.237 365.87 152.102 365.87 151.95C365.87 151.774 365.918 151.62 366.015 151.488C366.115 151.353 366.266 151.224 366.468 151.101C366.216 150.999 366.011 150.826 365.852 150.583C365.697 150.336 365.619 150.051 365.619 149.725C365.619 149.38 365.691 149.085 365.835 148.842C365.978 148.596 366.186 148.408 366.459 148.279C366.731 148.15 367.061 148.086 367.448 148.086C367.533 148.086 367.618 148.09 367.703 148.099C367.791 148.105 367.874 148.115 367.953 148.13C368.032 148.142 368.101 148.156 368.16 148.174H369.813V148.644L368.925 148.754C369.013 148.868 369.086 149.006 369.144 149.167C369.203 149.328 369.232 149.507 369.232 149.703C369.232 150.184 369.07 150.566 368.744 150.851C368.419 151.132 367.972 151.273 367.404 151.273C367.269 151.273 367.131 151.261 366.991 151.237C366.847 151.317 366.737 151.404 366.661 151.501C366.588 151.598 366.551 151.709 366.551 151.835C366.551 151.929 366.579 152.004 366.635 152.059C366.693 152.115 366.777 152.156 366.885 152.182C366.994 152.206 367.124 152.218 367.276 152.218H368.125C368.649 152.218 369.051 152.328 369.329 152.547C369.61 152.767 369.751 153.088 369.751 153.51C369.751 154.043 369.534 154.452 369.101 154.736C368.667 155.02 368.04 155.163 367.219 155.163ZM367.241 154.591C367.64 154.591 367.969 154.55 368.23 154.468C368.494 154.389 368.69 154.273 368.819 154.121C368.951 153.971 369.017 153.793 369.017 153.585C369.017 153.391 368.973 153.245 368.885 153.145C368.797 153.048 368.668 152.984 368.498 152.952C368.328 152.916 368.12 152.899 367.874 152.899H367.039C366.822 152.899 366.633 152.933 366.472 153C366.311 153.067 366.186 153.167 366.098 153.299C366.014 153.431 365.971 153.595 365.971 153.791C365.971 154.052 366.081 154.25 366.301 154.385C366.52 154.522 366.834 154.591 367.241 154.591ZM367.43 150.741C367.779 150.741 368.041 150.653 368.217 150.477C368.393 150.301 368.481 150.045 368.481 149.708C368.481 149.347 368.391 149.078 368.213 148.899C368.034 148.717 367.77 148.627 367.421 148.627C367.087 148.627 366.83 148.72 366.648 148.908C366.469 149.093 366.38 149.364 366.38 149.721C366.38 150.049 366.471 150.301 366.652 150.477C366.834 150.653 367.093 150.741 367.43 150.741ZM371.492 148.183V153H370.762V148.183H371.492ZM371.136 146.381C371.256 146.381 371.358 146.42 371.443 146.499C371.531 146.575 371.575 146.696 371.575 146.86C371.575 147.021 371.531 147.141 371.443 147.22C371.358 147.299 371.256 147.339 371.136 147.339C371.01 147.339 370.904 147.299 370.819 147.22C370.737 147.141 370.696 147.021 370.696 146.86C370.696 146.696 370.737 146.575 370.819 146.499C370.904 146.42 371.01 146.381 371.136 146.381ZM376.155 151.681C376.155 151.989 376.077 152.248 375.922 152.459C375.77 152.667 375.55 152.824 375.263 152.93C374.979 153.035 374.639 153.088 374.243 153.088C373.906 153.088 373.615 153.062 373.368 153.009C373.122 152.956 372.907 152.881 372.722 152.785V152.112C372.919 152.209 373.153 152.297 373.426 152.376C373.698 152.455 373.976 152.495 374.261 152.495C374.677 152.495 374.979 152.427 375.166 152.292C375.354 152.158 375.447 151.974 375.447 151.743C375.447 151.611 375.409 151.495 375.333 151.396C375.26 151.293 375.135 151.195 374.96 151.101C374.784 151.004 374.541 150.899 374.23 150.785C373.922 150.668 373.656 150.552 373.43 150.437C373.207 150.32 373.034 150.178 372.911 150.011C372.791 149.844 372.731 149.627 372.731 149.361C372.731 148.953 372.895 148.641 373.223 148.424C373.554 148.205 373.988 148.095 374.524 148.095C374.815 148.095 375.086 148.124 375.338 148.183C375.592 148.238 375.83 148.315 376.05 148.411L375.803 148.996C375.604 148.911 375.392 148.839 375.166 148.78C374.941 148.722 374.71 148.693 374.476 148.693C374.139 148.693 373.88 148.748 373.698 148.86C373.519 148.971 373.43 149.123 373.43 149.317C373.43 149.466 373.471 149.589 373.553 149.686C373.638 149.783 373.773 149.873 373.957 149.958C374.142 150.043 374.385 150.143 374.687 150.257C374.989 150.369 375.25 150.484 375.469 150.605C375.689 150.722 375.858 150.865 375.975 151.035C376.095 151.202 376.155 151.418 376.155 151.681ZM378.885 152.49C379.005 152.49 379.128 152.48 379.254 152.459C379.38 152.439 379.482 152.414 379.562 152.385V152.952C379.477 152.99 379.358 153.022 379.205 153.048C379.056 153.075 378.91 153.088 378.766 153.088C378.511 153.088 378.28 153.044 378.071 152.956C377.863 152.865 377.696 152.713 377.57 152.499C377.447 152.285 377.386 151.989 377.386 151.611V148.754H376.7V148.398L377.39 148.112L377.68 147.066H378.12V148.183H379.531V148.754H378.12V151.589C378.12 151.891 378.189 152.117 378.326 152.266C378.467 152.415 378.653 152.49 378.885 152.49ZM382.726 148.095C382.823 148.095 382.924 148.101 383.029 148.112C383.135 148.121 383.229 148.134 383.311 148.152L383.218 148.829C383.139 148.808 383.051 148.792 382.955 148.78C382.858 148.769 382.767 148.763 382.682 148.763C382.489 148.763 382.306 148.802 382.133 148.882C381.963 148.958 381.813 149.069 381.684 149.216C381.556 149.359 381.454 149.534 381.381 149.739C381.308 149.941 381.271 150.166 381.271 150.416V153H380.537V148.183H381.144L381.223 149.071H381.254C381.353 148.892 381.473 148.729 381.614 148.583C381.755 148.433 381.917 148.315 382.102 148.227C382.29 148.139 382.498 148.095 382.726 148.095ZM386.023 148.104C386.597 148.104 387.023 148.232 387.302 148.49C387.58 148.748 387.719 149.16 387.719 149.725V153H387.187L387.047 152.288H387.012C386.877 152.464 386.736 152.612 386.59 152.732C386.443 152.849 386.273 152.938 386.08 153C385.889 153.059 385.655 153.088 385.377 153.088C385.084 153.088 384.823 153.037 384.594 152.934C384.369 152.832 384.19 152.676 384.058 152.468C383.929 152.26 383.865 151.996 383.865 151.677C383.865 151.196 384.055 150.827 384.436 150.569C384.817 150.311 385.397 150.171 386.177 150.147L387.007 150.112V149.818C387.007 149.402 386.918 149.11 386.739 148.943C386.56 148.776 386.308 148.693 385.983 148.693C385.731 148.693 385.491 148.729 385.262 148.802C385.034 148.876 384.817 148.962 384.612 149.062L384.388 148.508C384.604 148.397 384.854 148.301 385.135 148.222C385.416 148.143 385.712 148.104 386.023 148.104ZM386.998 150.626L386.264 150.657C385.664 150.681 385.24 150.779 384.994 150.952C384.748 151.125 384.625 151.369 384.625 151.686C384.625 151.961 384.708 152.165 384.876 152.297C385.043 152.429 385.264 152.495 385.539 152.495C385.967 152.495 386.317 152.376 386.59 152.139C386.862 151.901 386.998 151.545 386.998 151.07V150.626ZM390.779 152.49C390.899 152.49 391.022 152.48 391.148 152.459C391.274 152.439 391.376 152.414 391.455 152.385V152.952C391.37 152.99 391.252 153.022 391.099 153.048C390.95 153.075 390.803 153.088 390.66 153.088C390.405 153.088 390.173 153.044 389.965 152.956C389.757 152.865 389.59 152.713 389.464 152.499C389.341 152.285 389.28 151.989 389.28 151.611V148.754H388.594V148.398L389.284 148.112L389.574 147.066H390.014V148.183H391.425V148.754H390.014V151.589C390.014 151.891 390.083 152.117 390.22 152.266C390.361 152.415 390.547 152.49 390.779 152.49ZM393.161 148.183V153H392.431V148.183H393.161ZM392.805 146.381C392.925 146.381 393.027 146.42 393.112 146.499C393.2 146.575 393.244 146.696 393.244 146.86C393.244 147.021 393.2 147.141 393.112 147.22C393.027 147.299 392.925 147.339 392.805 147.339C392.679 147.339 392.573 147.299 392.488 147.22C392.406 147.141 392.365 147.021 392.365 146.86C392.365 146.696 392.406 146.575 392.488 146.499C392.573 146.42 392.679 146.381 392.805 146.381ZM398.862 150.583C398.862 150.978 398.81 151.331 398.708 151.642C398.605 151.952 398.457 152.215 398.264 152.429C398.07 152.643 397.836 152.807 397.561 152.921C397.288 153.032 396.979 153.088 396.633 153.088C396.311 153.088 396.015 153.032 395.745 152.921C395.479 152.807 395.247 152.643 395.051 152.429C394.857 152.215 394.707 151.952 394.598 151.642C394.493 151.331 394.44 150.978 394.44 150.583C394.44 150.055 394.529 149.607 394.708 149.238C394.887 148.865 395.142 148.583 395.473 148.389C395.807 148.193 396.204 148.095 396.664 148.095C397.103 148.095 397.487 148.193 397.816 148.389C398.147 148.586 398.403 148.87 398.585 149.242C398.769 149.611 398.862 150.058 398.862 150.583ZM395.196 150.583C395.196 150.969 395.247 151.305 395.35 151.589C395.452 151.873 395.61 152.093 395.824 152.248C396.038 152.404 396.314 152.481 396.651 152.481C396.985 152.481 397.259 152.404 397.473 152.248C397.69 152.093 397.849 151.873 397.952 151.589C398.054 151.305 398.106 150.969 398.106 150.583C398.106 150.199 398.054 149.868 397.952 149.589C397.849 149.308 397.691 149.091 397.477 148.939C397.263 148.786 396.986 148.71 396.646 148.71C396.145 148.71 395.778 148.876 395.543 149.207C395.312 149.538 395.196 149.996 395.196 150.583ZM402.404 148.095C402.976 148.095 403.408 148.235 403.701 148.517C403.994 148.795 404.14 149.243 404.14 149.862V153H403.42V149.91C403.42 149.509 403.327 149.208 403.143 149.009C402.961 148.81 402.681 148.71 402.303 148.71C401.77 148.71 401.395 148.861 401.178 149.163C400.961 149.465 400.853 149.903 400.853 150.477V153H400.123V148.183H400.712L400.822 148.877H400.861C400.964 148.707 401.094 148.565 401.253 148.451C401.411 148.334 401.588 148.246 401.785 148.187C401.981 148.126 402.187 148.095 402.404 148.095ZM408.76 151.681C408.76 151.989 408.682 152.248 408.527 152.459C408.375 152.667 408.155 152.824 407.868 152.93C407.583 153.035 407.244 153.088 406.848 153.088C406.511 153.088 406.219 153.062 405.973 153.009C405.727 152.956 405.512 152.881 405.327 152.785V152.112C405.524 152.209 405.758 152.297 406.03 152.376C406.303 152.455 406.581 152.495 406.866 152.495C407.282 152.495 407.583 152.427 407.771 152.292C407.959 152.158 408.052 151.974 408.052 151.743C408.052 151.611 408.014 151.495 407.938 151.396C407.865 151.293 407.74 151.195 407.564 151.101C407.389 151.004 407.145 150.899 406.835 150.785C406.527 150.668 406.26 150.552 406.035 150.437C405.812 150.32 405.639 150.178 405.516 150.011C405.396 149.844 405.336 149.627 405.336 149.361C405.336 148.953 405.5 148.641 405.828 148.424C406.159 148.205 406.593 148.095 407.129 148.095C407.419 148.095 407.69 148.124 407.942 148.183C408.197 148.238 408.435 148.315 408.654 148.411L408.408 148.996C408.209 148.911 407.997 148.839 407.771 148.78C407.545 148.722 407.315 148.693 407.081 148.693C406.744 148.693 406.485 148.748 406.303 148.86C406.124 148.971 406.035 149.123 406.035 149.317C406.035 149.466 406.076 149.589 406.158 149.686C406.243 149.783 406.378 149.873 406.562 149.958C406.747 150.043 406.99 150.143 407.292 150.257C407.594 150.369 407.855 150.484 408.074 150.605C408.294 150.722 408.463 150.865 408.58 151.035C408.7 151.202 408.76 151.418 408.76 151.681Z" fill="#B7B7B7"/>
<path d="M330.403 136H317.104V133.202L321.88 128.375C322.843 127.386 323.615 126.561 324.196 125.902C324.786 125.234 325.211 124.627 325.471 124.08C325.74 123.534 325.874 122.948 325.874 122.324C325.874 121.569 325.662 121.005 325.237 120.632C324.82 120.25 324.261 120.059 323.558 120.059C322.821 120.059 322.105 120.229 321.411 120.567C320.717 120.905 319.993 121.387 319.238 122.011L317.052 119.422C317.598 118.953 318.175 118.511 318.783 118.095C319.398 117.678 320.11 117.344 320.917 117.093C321.732 116.832 322.708 116.702 323.844 116.702C325.094 116.702 326.165 116.928 327.059 117.379C327.961 117.83 328.655 118.446 329.141 119.227C329.626 119.999 329.869 120.875 329.869 121.855C329.869 122.905 329.661 123.863 329.245 124.731C328.828 125.599 328.221 126.457 327.423 127.308C326.634 128.158 325.679 129.099 324.56 130.131L322.114 132.435V132.617H330.403V136ZM339.278 123.846C340.44 123.846 341.472 124.067 342.375 124.51C343.285 124.952 344.001 125.603 344.522 126.462C345.042 127.321 345.302 128.379 345.302 129.637C345.302 131.007 345.016 132.192 344.444 133.189C343.88 134.178 343.034 134.937 341.906 135.466C340.787 135.996 339.39 136.26 337.716 136.26C336.718 136.26 335.777 136.174 334.892 136C334.016 135.835 333.248 135.579 332.589 135.232V131.758C333.248 132.105 334.038 132.4 334.957 132.643C335.886 132.877 336.757 132.994 337.573 132.994C338.371 132.994 339.043 132.89 339.59 132.682C340.136 132.465 340.548 132.135 340.826 131.693C341.112 131.242 341.255 130.669 341.255 129.975C341.255 129.047 340.943 128.336 340.319 127.841C339.694 127.347 338.735 127.099 337.443 127.099C336.948 127.099 336.432 127.147 335.894 127.242C335.365 127.338 334.923 127.433 334.567 127.529L332.966 126.67L333.682 116.975H344.001V120.385H337.209L336.857 124.119C337.152 124.059 337.473 123.998 337.82 123.937C338.167 123.877 338.653 123.846 339.278 123.846ZM360.801 126.488C360.801 128.023 360.679 129.394 360.436 130.6C360.202 131.806 359.82 132.829 359.291 133.671C358.771 134.512 358.085 135.154 357.235 135.597C356.385 136.039 355.353 136.26 354.138 136.26C352.611 136.26 351.358 135.874 350.377 135.102C349.397 134.321 348.673 133.202 348.204 131.745C347.736 130.279 347.502 128.526 347.502 126.488C347.502 124.432 347.714 122.675 348.139 121.218C348.573 119.751 349.276 118.628 350.247 117.847C351.219 117.067 352.516 116.676 354.138 116.676C355.656 116.676 356.905 117.067 357.886 117.847C358.875 118.619 359.608 119.738 360.085 121.205C360.562 122.662 360.801 124.423 360.801 126.488ZM351.496 126.488C351.496 127.936 351.575 129.147 351.731 130.118C351.896 131.081 352.169 131.806 352.55 132.291C352.932 132.777 353.461 133.02 354.138 133.02C354.806 133.02 355.331 132.782 355.713 132.304C356.103 131.819 356.381 131.094 356.545 130.131C356.71 129.16 356.793 127.945 356.793 126.488C356.793 125.039 356.71 123.829 356.545 122.857C356.381 121.886 356.103 121.157 355.713 120.671C355.331 120.177 354.806 119.929 354.138 119.929C353.461 119.929 352.932 120.177 352.55 120.671C352.169 121.157 351.896 121.886 351.731 122.857C351.575 123.829 351.496 125.039 351.496 126.488ZM377.743 125.186H382.779V128.036H377.743V133.046H374.893V128.036H369.857V125.186H374.893V120.111H377.743V125.186Z" fill="white"/>
<path d="M76.0089 56H71.9879V44.9911C71.9879 44.6875 71.9923 44.3144 72.0009 43.872C72.0096 43.4209 72.0226 42.9611 72.04 42.4926C72.0573 42.0155 72.0747 41.5861 72.092 41.2044C71.9966 41.3171 71.8014 41.5123 71.5064 41.7899C71.2202 42.0589 70.9512 42.3018 70.6996 42.5187L68.5135 44.2754L66.5746 41.855L72.7036 36.9752H76.0089V56ZM87.8766 36.7279C88.9697 36.7279 89.9761 36.8971 90.8956 37.2354C91.8239 37.5738 92.5656 38.0856 93.1208 38.7709C93.6761 39.4476 93.9537 40.2978 93.9537 41.3215C93.9537 42.0849 93.8018 42.7529 93.4982 43.3255C93.2032 43.898 92.7999 44.4012 92.288 44.8349C91.7762 45.26 91.1949 45.6331 90.5443 45.9541C91.221 46.3097 91.8629 46.7262 92.4702 47.2033C93.0775 47.6718 93.5719 48.2226 93.9537 48.8559C94.344 49.4892 94.5392 50.2266 94.5392 51.0681C94.5392 52.1265 94.2573 53.0461 93.6934 53.8268C93.1295 54.5989 92.3487 55.1975 91.3511 55.6226C90.3534 56.0477 89.1953 56.2603 87.8766 56.2603C86.4539 56.2603 85.2437 56.0564 84.2461 55.6487C83.2484 55.2409 82.4893 54.6597 81.9688 53.9049C81.4483 53.1415 81.188 52.2306 81.188 51.1722C81.188 50.3047 81.3485 49.5499 81.6695 48.908C81.9992 48.266 82.4416 47.7151 82.9968 47.2553C83.552 46.7869 84.1636 46.3878 84.8316 46.0582C84.2677 45.7025 83.7516 45.2991 83.2831 44.848C82.8233 44.3968 82.4546 43.8807 82.177 43.2994C81.9081 42.7182 81.7736 42.0502 81.7736 41.2954C81.7736 40.2891 82.0555 39.4476 82.6194 38.7709C83.192 38.0943 83.9424 37.5868 84.8707 37.2484C85.7989 36.9014 86.8009 36.7279 87.8766 36.7279ZM84.9097 50.938C84.9097 51.6233 85.1526 52.1916 85.6384 52.6427C86.1329 53.0851 86.8616 53.3063 87.8246 53.3063C88.8222 53.3063 89.5683 53.0938 90.0628 52.6687C90.5573 52.2349 90.8045 51.6667 90.8045 50.964C90.8045 50.4782 90.6614 50.0531 90.3751 49.6888C90.0975 49.3244 89.7462 48.9991 89.3211 48.7128C88.896 48.4178 88.4666 48.1446 88.0328 47.893L87.6815 47.7108C87.1262 47.9624 86.6404 48.2443 86.224 48.5566C85.8163 48.8689 85.4953 49.2203 85.2611 49.6107C85.0268 50.0011 84.9097 50.4435 84.9097 50.938ZM87.8506 39.6688C87.1913 39.6688 86.6448 39.838 86.211 40.1763C85.7772 40.5147 85.5604 40.9918 85.5604 41.6078C85.5604 42.0415 85.6645 42.4232 85.8727 42.7529C86.0895 43.0739 86.3715 43.3558 86.7185 43.5987C87.0742 43.8416 87.4602 44.0672 87.8766 44.2754C88.2757 44.0845 88.6487 43.872 88.9958 43.6378C89.3428 43.4035 89.6247 43.1216 89.8416 42.7919C90.0585 42.4623 90.1669 42.0675 90.1669 41.6078C90.1669 40.9918 89.9457 40.5147 89.5033 40.1763C89.0695 39.838 88.5186 39.6688 87.8506 39.6688ZM101.553 35.752V44.8089C101.553 45.3555 101.531 45.902 101.488 46.4485C101.445 46.9951 101.397 47.5416 101.345 48.0882H101.397C101.666 47.7065 101.939 47.3291 102.217 46.956C102.503 46.583 102.807 46.223 103.128 45.876L107.201 41.4516H111.677L105.899 47.7628L112.029 56H107.448L103.258 50.1052L101.553 51.4715V56H97.5843V35.752H101.553ZM127.982 45.1863H133.018V48.0361H127.982V53.0461H125.133V48.0361H120.097V45.1863H125.133V40.1113H127.982V45.1863Z" fill="white"/>
<path d="M72.9132 115.728C74.0063 115.728 75.0126 115.897 75.9321 116.236C76.8604 116.574 77.6021 117.086 78.1573 117.771C78.7125 118.448 78.9901 119.298 78.9901 120.322C78.9901 121.085 78.8383 121.753 78.5347 122.326C78.2397 122.898 77.8363 123.401 77.3245 123.835C76.8127 124.26 76.2314 124.633 75.5808 124.954C76.2574 125.31 76.8994 125.726 77.5067 126.203C78.1139 126.672 78.6084 127.223 78.9901 127.856C79.3805 128.489 79.5757 129.227 79.5757 130.068C79.5757 131.127 79.2937 132.046 78.7299 132.827C78.166 133.599 77.3852 134.198 76.3876 134.623C75.3899 135.048 74.2318 135.26 72.9132 135.26C71.4905 135.26 70.2803 135.056 69.2826 134.649C68.285 134.241 67.5259 133.66 67.0054 132.905C66.4849 132.142 66.2247 131.231 66.2247 130.172C66.2247 129.305 66.3851 128.55 66.7061 127.908C67.0358 127.266 67.4782 126.715 68.0334 126.255C68.5886 125.787 69.2002 125.388 69.8682 125.058C69.3043 124.703 68.7882 124.299 68.3197 123.848C67.8599 123.397 67.4912 122.881 67.2136 122.3C66.9447 121.718 66.8102 121.05 66.8102 120.296C66.8102 119.289 67.0922 118.448 67.6561 117.771C68.2286 117.095 68.979 116.587 69.9073 116.249C70.8355 115.902 71.8375 115.728 72.9132 115.728ZM69.9463 129.938C69.9463 130.623 70.1892 131.192 70.675 131.643C71.1695 132.085 71.8982 132.306 72.8611 132.306C73.8588 132.306 74.6048 132.094 75.0993 131.669C75.5938 131.235 75.841 130.667 75.841 129.964C75.841 129.478 75.6979 129.053 75.4116 128.689C75.134 128.324 74.7827 127.999 74.3576 127.713C73.9325 127.418 73.5031 127.145 73.0693 126.893L72.718 126.711C72.1628 126.962 71.677 127.244 71.2606 127.557C70.8528 127.869 70.5319 128.22 70.2976 128.611C70.0634 129.001 69.9463 129.444 69.9463 129.938ZM72.8872 118.669C72.2278 118.669 71.6813 118.838 71.2476 119.177C70.8138 119.515 70.5969 119.992 70.5969 120.608C70.5969 121.042 70.701 121.423 70.9092 121.753C71.1261 122.074 71.408 122.356 71.7551 122.599C72.1107 122.842 72.4968 123.067 72.9132 123.276C73.3122 123.085 73.6853 122.872 74.0323 122.638C74.3793 122.404 74.6612 122.122 74.8781 121.792C75.095 121.462 75.2034 121.068 75.2034 120.608C75.2034 119.992 74.9822 119.515 74.5398 119.177C74.106 118.838 73.5551 118.669 72.8872 118.669ZM96.4922 124.186H101.528V127.036H96.4922V132.046H93.6424V127.036H88.6065V124.186H93.6424V119.111H96.4922V124.186Z" fill="white"/>
<path d="M68.6262 147.141C68.2716 147.141 67.9522 147.203 67.668 147.326C67.3867 147.446 67.1464 147.622 66.9472 147.853C66.7508 148.082 66.5999 148.358 66.4944 148.684C66.3889 149.009 66.3362 149.375 66.3362 149.783C66.3362 150.322 66.4197 150.791 66.5867 151.189C66.7567 151.585 67.0087 151.891 67.3427 152.108C67.6797 152.325 68.1002 152.433 68.6042 152.433C68.8914 152.433 69.161 152.41 69.413 152.363C69.6679 152.313 69.9155 152.251 70.1558 152.178V152.829C69.9214 152.916 69.6752 152.981 69.4174 153.022C69.1595 153.066 68.8533 153.088 68.4987 153.088C67.8453 153.088 67.2988 152.953 66.8592 152.684C66.4226 152.411 66.0944 152.027 65.8747 151.532C65.6578 151.037 65.5494 150.452 65.5494 149.778C65.5494 149.292 65.6168 148.848 65.7516 148.446C65.8893 148.042 66.0886 147.693 66.3494 147.4C66.6131 147.107 66.9354 146.882 67.3164 146.723C67.7002 146.562 68.1398 146.482 68.635 146.482C68.9602 146.482 69.2738 146.514 69.5756 146.578C69.8774 146.643 70.1499 146.735 70.3931 146.855L70.0942 147.488C69.8891 147.394 69.6635 147.314 69.4174 147.246C69.1741 147.176 68.9104 147.141 68.6262 147.141ZM72.1733 153H71.4392V146.161H72.1733V153ZM77.6938 148.183V153H77.0961L76.9906 152.323H76.951C76.8514 152.49 76.7225 152.631 76.5642 152.745C76.406 152.859 76.2273 152.944 76.028 153C75.8317 153.059 75.6222 153.088 75.3995 153.088C75.0185 153.088 74.6991 153.026 74.4413 152.903C74.1834 152.78 73.9885 152.59 73.8567 152.332C73.7277 152.074 73.6633 151.743 73.6633 151.339V148.183H74.4017V151.286C74.4017 151.687 74.4925 151.988 74.6742 152.187C74.8559 152.383 75.1328 152.481 75.5049 152.481C75.8624 152.481 76.1467 152.414 76.3576 152.279C76.5716 152.144 76.7254 151.947 76.8192 151.686C76.9129 151.422 76.9598 151.1 76.9598 150.719V148.183H77.6938ZM79.9662 146.161V147.871C79.9662 148.067 79.9604 148.257 79.9487 148.442C79.9399 148.627 79.9326 148.77 79.9267 148.873H79.9662C80.0981 148.656 80.2886 148.473 80.5376 148.323C80.7867 148.174 81.1047 148.099 81.4914 148.099C82.0951 148.099 82.5756 148.309 82.9331 148.728C83.2935 149.144 83.4738 149.764 83.4738 150.587C83.4738 151.129 83.3917 151.586 83.2276 151.958C83.0635 152.33 82.832 152.612 82.5331 152.802C82.2343 152.993 81.8812 153.088 81.4739 153.088C81.0929 153.088 80.7794 153.018 80.5333 152.877C80.29 152.733 80.1025 152.559 79.9706 152.354H79.9135L79.7641 153H79.2366V146.161H79.9662ZM81.3728 148.71C81.0241 148.71 80.7472 148.779 80.542 148.917C80.3369 149.051 80.1889 149.257 80.0981 149.532C80.0102 149.805 79.9662 150.15 79.9662 150.569V150.609C79.9662 151.215 80.0673 151.68 80.2695 152.002C80.4717 152.322 80.8395 152.481 81.3728 152.481C81.8211 152.481 82.1566 152.317 82.3793 151.989C82.6049 151.661 82.7178 151.192 82.7178 150.583C82.7178 149.961 82.6064 149.494 82.3837 149.18C82.1639 148.867 81.827 148.71 81.3728 148.71ZM87.8647 151.681C87.8647 151.989 87.7871 152.248 87.6318 152.459C87.4794 152.667 87.2596 152.824 86.9725 152.93C86.6882 153.035 86.3483 153.088 85.9528 153.088C85.6158 153.088 85.3242 153.062 85.0781 153.009C84.8319 152.956 84.6166 152.881 84.432 152.785V152.112C84.6283 152.209 84.8627 152.297 85.1352 152.376C85.4077 152.455 85.6861 152.495 85.9703 152.495C86.3864 152.495 86.6882 152.427 86.8758 152.292C87.0633 152.158 87.1571 151.974 87.1571 151.743C87.1571 151.611 87.119 151.495 87.0428 151.396C86.9695 151.293 86.845 151.195 86.6692 151.101C86.4934 151.004 86.2502 150.899 85.9396 150.785C85.6319 150.668 85.3652 150.552 85.1396 150.437C84.9169 150.32 84.744 150.178 84.621 150.011C84.5008 149.844 84.4407 149.627 84.4407 149.361C84.4407 148.953 84.6048 148.641 84.933 148.424C85.2641 148.205 85.6978 148.095 86.2341 148.095C86.5241 148.095 86.7952 148.124 87.0472 148.183C87.3021 148.238 87.5395 148.315 87.7592 148.411L87.5131 148.996C87.3139 148.911 87.1014 148.839 86.8758 148.78C86.6501 148.722 86.4201 148.693 86.1857 148.693C85.8487 148.693 85.5894 148.748 85.4077 148.86C85.229 148.971 85.1396 149.123 85.1396 149.317C85.1396 149.466 85.1806 149.589 85.2627 149.686C85.3477 149.783 85.4824 149.873 85.6671 149.958C85.8517 150.043 86.0949 150.143 86.3967 150.257C86.6985 150.369 86.9593 150.484 87.1791 150.605C87.3988 150.722 87.5673 150.865 87.6845 151.035C87.8047 151.202 87.8647 151.418 87.8647 151.681ZM92.1063 148.183V153H91.3766V148.183H92.1063ZM91.7502 146.381C91.8704 146.381 91.9729 146.42 92.0579 146.499C92.1458 146.575 92.1898 146.696 92.1898 146.86C92.1898 147.021 92.1458 147.141 92.0579 147.22C91.9729 147.299 91.8704 147.339 91.7502 147.339C91.6242 147.339 91.5188 147.299 91.4338 147.22C91.3517 147.141 91.3107 147.021 91.3107 146.86C91.3107 146.696 91.3517 146.575 91.4338 146.499C91.5188 146.42 91.6242 146.381 91.7502 146.381ZM95.9346 148.095C96.506 148.095 96.9383 148.235 97.2313 148.517C97.5243 148.795 97.6708 149.243 97.6708 149.862V153H96.95V149.91C96.95 149.509 96.8577 149.208 96.6731 149.009C96.4914 148.81 96.2116 148.71 95.8336 148.71C95.3002 148.71 94.9252 148.861 94.7083 149.163C94.4915 149.465 94.3831 149.903 94.3831 150.477V153H93.6534V148.183H94.2424L94.3523 148.877H94.3919C94.4944 148.707 94.6248 148.565 94.7831 148.451C94.9413 148.334 95.1186 148.246 95.3149 148.187C95.5112 148.126 95.7178 148.095 95.9346 148.095ZM103.442 153.088C103.008 153.088 102.626 152.999 102.295 152.82C101.964 152.641 101.706 152.369 101.521 152.002C101.337 151.636 101.244 151.174 101.244 150.618C101.244 150.035 101.341 149.558 101.534 149.189C101.731 148.817 102 148.542 102.343 148.363C102.686 148.184 103.076 148.095 103.512 148.095C103.753 148.095 103.984 148.12 104.207 148.169C104.432 148.216 104.617 148.276 104.761 148.35L104.541 148.961C104.394 148.902 104.224 148.849 104.031 148.802C103.84 148.756 103.662 148.732 103.495 148.732C103.161 148.732 102.882 148.804 102.66 148.947C102.44 149.091 102.274 149.302 102.163 149.58C102.054 149.859 102 150.202 102 150.609C102 150.999 102.053 151.331 102.158 151.607C102.267 151.882 102.427 152.093 102.638 152.24C102.852 152.383 103.118 152.455 103.438 152.455C103.692 152.455 103.923 152.429 104.128 152.376C104.333 152.32 104.519 152.256 104.686 152.182V152.833C104.525 152.915 104.344 152.978 104.145 153.022C103.949 153.066 103.714 153.088 103.442 153.088ZM109.982 150.583C109.982 150.978 109.931 151.331 109.828 151.642C109.726 151.952 109.578 152.215 109.384 152.429C109.191 152.643 108.957 152.807 108.681 152.921C108.409 153.032 108.1 153.088 107.754 153.088C107.431 153.088 107.136 153.032 106.866 152.921C106.599 152.807 106.368 152.643 106.171 152.429C105.978 152.215 105.827 151.952 105.719 151.642C105.613 151.331 105.561 150.978 105.561 150.583C105.561 150.055 105.65 149.607 105.829 149.238C106.007 148.865 106.262 148.583 106.593 148.389C106.927 148.193 107.325 148.095 107.785 148.095C108.224 148.095 108.608 148.193 108.936 148.389C109.267 148.586 109.524 148.87 109.705 149.242C109.89 149.611 109.982 150.058 109.982 150.583ZM106.317 150.583C106.317 150.969 106.368 151.305 106.47 151.589C106.573 151.873 106.731 152.093 106.945 152.248C107.159 152.404 107.434 152.481 107.771 152.481C108.105 152.481 108.379 152.404 108.593 152.248C108.81 152.093 108.97 151.873 109.072 151.589C109.175 151.305 109.226 150.969 109.226 150.583C109.226 150.199 109.175 149.868 109.072 149.589C108.97 149.308 108.812 149.091 108.598 148.939C108.384 148.786 108.107 148.71 107.767 148.71C107.266 148.71 106.898 148.876 106.664 149.207C106.432 149.538 106.317 149.996 106.317 150.583ZM111.978 153H111.244V146.161H111.978V153ZM114.255 153H113.521V146.161H114.255V153ZM117.599 148.104C118.174 148.104 118.6 148.232 118.879 148.49C119.157 148.748 119.296 149.16 119.296 149.725V153H118.764L118.624 152.288H118.588C118.454 152.464 118.313 152.612 118.166 152.732C118.02 152.849 117.85 152.938 117.657 153C117.466 153.059 117.232 153.088 116.953 153.088C116.66 153.088 116.4 153.037 116.171 152.934C115.945 152.832 115.767 152.676 115.635 152.468C115.506 152.26 115.441 151.996 115.441 151.677C115.441 151.196 115.632 150.827 116.013 150.569C116.394 150.311 116.974 150.171 117.753 150.147L118.584 150.112V149.818C118.584 149.402 118.495 149.11 118.316 148.943C118.137 148.776 117.885 148.693 117.56 148.693C117.308 148.693 117.068 148.729 116.839 148.802C116.61 148.876 116.394 148.962 116.189 149.062L115.964 148.508C116.181 148.397 116.43 148.301 116.712 148.222C116.993 148.143 117.289 148.104 117.599 148.104ZM118.575 150.626L117.841 150.657C117.24 150.681 116.817 150.779 116.571 150.952C116.325 151.125 116.202 151.369 116.202 151.686C116.202 151.961 116.285 152.165 116.452 152.297C116.619 152.429 116.841 152.495 117.116 152.495C117.544 152.495 117.894 152.376 118.166 152.139C118.439 151.901 118.575 151.545 118.575 151.07V150.626ZM121.529 146.161V147.871C121.529 148.067 121.523 148.257 121.511 148.442C121.503 148.627 121.495 148.77 121.489 148.873H121.529C121.661 148.656 121.851 148.473 122.1 148.323C122.349 148.174 122.667 148.099 123.054 148.099C123.658 148.099 124.138 148.309 124.496 148.728C124.856 149.144 125.036 149.764 125.036 150.587C125.036 151.129 124.954 151.586 124.79 151.958C124.626 152.33 124.395 152.612 124.096 152.802C123.797 152.993 123.444 153.088 123.037 153.088C122.656 153.088 122.342 153.018 122.096 152.877C121.853 152.733 121.665 152.559 121.533 152.354H121.476L121.327 153H120.799V146.161H121.529ZM122.935 148.71C122.587 148.71 122.31 148.779 122.105 148.917C121.9 149.051 121.752 149.257 121.661 149.532C121.573 149.805 121.529 150.15 121.529 150.569V150.609C121.529 151.215 121.63 151.68 121.832 152.002C122.034 152.322 122.402 152.481 122.935 152.481C123.384 152.481 123.719 152.317 123.942 151.989C124.168 151.661 124.28 151.192 124.28 150.583C124.28 149.961 124.169 149.494 123.946 149.18C123.727 148.867 123.39 148.71 122.935 148.71ZM130.465 150.583C130.465 150.978 130.413 151.331 130.311 151.642C130.208 151.952 130.06 152.215 129.867 152.429C129.674 152.643 129.439 152.807 129.164 152.921C128.891 153.032 128.582 153.088 128.236 153.088C127.914 153.088 127.618 153.032 127.348 152.921C127.082 152.807 126.85 152.643 126.654 152.429C126.461 152.215 126.31 151.952 126.201 151.642C126.096 151.331 126.043 150.978 126.043 150.583C126.043 150.055 126.132 149.607 126.311 149.238C126.49 148.865 126.745 148.583 127.076 148.389C127.41 148.193 127.807 148.095 128.267 148.095C128.707 148.095 129.09 148.193 129.419 148.389C129.75 148.586 130.006 148.87 130.188 149.242C130.372 149.611 130.465 150.058 130.465 150.583ZM126.799 150.583C126.799 150.969 126.85 151.305 126.953 151.589C127.055 151.873 127.214 152.093 127.428 152.248C127.641 152.404 127.917 152.481 128.254 152.481C128.588 152.481 128.862 152.404 129.076 152.248C129.293 152.093 129.452 151.873 129.555 151.589C129.657 151.305 129.709 150.969 129.709 150.583C129.709 150.199 129.657 149.868 129.555 149.589C129.452 149.308 129.294 149.091 129.08 148.939C128.866 148.786 128.589 148.71 128.249 148.71C127.748 148.71 127.381 148.876 127.146 149.207C126.915 149.538 126.799 149.996 126.799 150.583ZM133.915 148.095C134.012 148.095 134.113 148.101 134.218 148.112C134.324 148.121 134.418 148.134 134.5 148.152L134.407 148.829C134.328 148.808 134.24 148.792 134.144 148.78C134.047 148.769 133.956 148.763 133.871 148.763C133.678 148.763 133.495 148.802 133.322 148.882C133.152 148.958 133.002 149.069 132.873 149.216C132.744 149.359 132.643 149.534 132.57 149.739C132.497 149.941 132.46 150.166 132.46 150.416V153H131.726V148.183H132.333L132.412 149.071H132.443C132.542 148.892 132.662 148.729 132.803 148.583C132.944 148.433 133.106 148.315 133.291 148.227C133.478 148.139 133.687 148.095 133.915 148.095ZM137.212 148.104C137.786 148.104 138.212 148.232 138.491 148.49C138.769 148.748 138.908 149.16 138.908 149.725V153H138.376L138.236 152.288H138.201C138.066 152.464 137.925 152.612 137.779 152.732C137.632 152.849 137.462 152.938 137.269 153C137.078 153.059 136.844 153.088 136.565 153.088C136.272 153.088 136.012 153.037 135.783 152.934C135.557 152.832 135.379 152.676 135.247 152.468C135.118 152.26 135.053 151.996 135.053 151.677C135.053 151.196 135.244 150.827 135.625 150.569C136.006 150.311 136.586 150.171 137.365 150.147L138.196 150.112V149.818C138.196 149.402 138.107 149.11 137.928 148.943C137.749 148.776 137.497 148.693 137.172 148.693C136.92 148.693 136.68 148.729 136.451 148.802C136.223 148.876 136.006 148.962 135.801 149.062L135.577 148.508C135.793 148.397 136.042 148.301 136.324 148.222C136.605 148.143 136.901 148.104 137.212 148.104ZM138.187 150.626L137.453 150.657C136.853 150.681 136.429 150.779 136.183 150.952C135.937 151.125 135.814 151.369 135.814 151.686C135.814 151.961 135.897 152.165 136.064 152.297C136.231 152.429 136.453 152.495 136.728 152.495C137.156 152.495 137.506 152.376 137.779 152.139C138.051 151.901 138.187 151.545 138.187 151.07V150.626ZM141.967 152.49C142.088 152.49 142.211 152.48 142.337 152.459C142.463 152.439 142.565 152.414 142.644 152.385V152.952C142.559 152.99 142.441 153.022 142.288 153.048C142.139 153.075 141.992 153.088 141.849 153.088C141.594 153.088 141.362 153.044 141.154 152.956C140.946 152.865 140.779 152.713 140.653 152.499C140.53 152.285 140.469 151.989 140.469 151.611V148.754H139.783V148.398L140.473 148.112L140.763 147.066H141.203V148.183H142.614V148.754H141.203V151.589C141.203 151.891 141.271 152.117 141.409 152.266C141.55 152.415 141.736 152.49 141.967 152.49ZM144.35 148.183V153H143.62V148.183H144.35ZM143.994 146.381C144.114 146.381 144.216 146.42 144.301 146.499C144.389 146.575 144.433 146.696 144.433 146.86C144.433 147.021 144.389 147.141 144.301 147.22C144.216 147.299 144.114 147.339 143.994 147.339C143.868 147.339 143.762 147.299 143.677 147.22C143.595 147.141 143.554 147.021 143.554 146.86C143.554 146.696 143.595 146.575 143.677 146.499C143.762 146.42 143.868 146.381 143.994 146.381ZM150.05 150.583C150.05 150.978 149.999 151.331 149.897 151.642C149.794 151.952 149.646 152.215 149.453 152.429C149.259 152.643 149.025 152.807 148.749 152.921C148.477 153.032 148.168 153.088 147.822 153.088C147.5 153.088 147.204 153.032 146.934 152.921C146.668 152.807 146.436 152.643 146.24 152.429C146.046 152.215 145.895 151.952 145.787 151.642C145.681 151.331 145.629 150.978 145.629 150.583C145.629 150.055 145.718 149.607 145.897 149.238C146.076 148.865 146.331 148.583 146.662 148.389C146.996 148.193 147.393 148.095 147.853 148.095C148.292 148.095 148.676 148.193 149.004 148.389C149.336 148.586 149.592 148.87 149.774 149.242C149.958 149.611 150.05 150.058 150.05 150.583ZM146.385 150.583C146.385 150.969 146.436 151.305 146.539 151.589C146.641 151.873 146.799 152.093 147.013 152.248C147.227 152.404 147.503 152.481 147.84 152.481C148.174 152.481 148.448 152.404 148.662 152.248C148.878 152.093 149.038 151.873 149.141 151.589C149.243 151.305 149.294 150.969 149.294 150.583C149.294 150.199 149.243 149.868 149.141 149.589C149.038 149.308 148.88 149.091 148.666 148.939C148.452 148.786 148.175 148.71 147.835 148.71C147.334 148.71 146.966 148.876 146.732 149.207C146.5 149.538 146.385 149.996 146.385 150.583ZM153.593 148.095C154.165 148.095 154.597 148.235 154.89 148.517C155.183 148.795 155.329 149.243 155.329 149.862V153H154.608V149.91C154.608 149.509 154.516 149.208 154.332 149.009C154.15 148.81 153.87 148.71 153.492 148.71C152.959 148.71 152.584 148.861 152.367 149.163C152.15 149.465 152.042 149.903 152.042 150.477V153H151.312V148.183H151.901L152.011 148.877H152.05C152.153 148.707 152.283 148.565 152.442 148.451C152.6 148.334 152.777 148.246 152.973 148.187C153.17 148.126 153.376 148.095 153.593 148.095ZM159.949 151.681C159.949 151.989 159.871 152.248 159.716 152.459C159.564 152.667 159.344 152.824 159.057 152.93C158.772 153.035 158.432 153.088 158.037 153.088C157.7 153.088 157.408 153.062 157.162 153.009C156.916 152.956 156.701 152.881 156.516 152.785V152.112C156.712 152.209 156.947 152.297 157.219 152.376C157.492 152.455 157.77 152.495 158.054 152.495C158.471 152.495 158.772 152.427 158.96 152.292C159.147 152.158 159.241 151.974 159.241 151.743C159.241 151.611 159.203 151.495 159.127 151.396C159.054 151.293 158.929 151.195 158.753 151.101C158.578 151.004 158.334 150.899 158.024 150.785C157.716 150.668 157.449 150.552 157.224 150.437C157.001 150.32 156.828 150.178 156.705 150.011C156.585 149.844 156.525 149.627 156.525 149.361C156.525 148.953 156.689 148.641 157.017 148.424C157.348 148.205 157.782 148.095 158.318 148.095C158.608 148.095 158.879 148.124 159.131 148.183C159.386 148.238 159.624 148.315 159.843 148.411L159.597 148.996C159.398 148.911 159.186 148.839 158.96 148.78C158.734 148.722 158.504 148.693 158.27 148.693C157.933 148.693 157.674 148.748 157.492 148.86C157.313 148.971 157.224 149.123 157.224 149.317C157.224 149.466 157.265 149.589 157.347 149.686C157.432 149.783 157.567 149.873 157.751 149.958C157.936 150.043 158.179 150.143 158.481 150.257C158.783 150.369 159.043 150.484 159.263 150.605C159.483 150.722 159.651 150.865 159.769 151.035C159.889 151.202 159.949 151.418 159.949 151.681Z" fill="#B7B7B7"/>
<path d="M329.958 52.0572H327.668V56H323.738V52.0572H315.618V49.2594L323.959 36.9754H327.668V48.9341H329.958V52.0572ZM323.738 48.9341V45.707C323.738 45.4033 323.742 45.0433 323.751 44.6269C323.768 44.2105 323.785 43.7941 323.803 43.3777C323.82 42.9613 323.837 42.5926 323.855 42.2716C323.881 41.942 323.898 41.7121 323.907 41.5819H323.803C323.638 41.9376 323.464 42.2846 323.282 42.6229C323.1 42.9526 322.888 43.2996 322.645 43.664L319.157 48.9341H323.738ZM338.403 43.8461C339.565 43.8461 340.598 44.0674 341.5 44.5098C342.411 44.9522 343.127 45.6029 343.647 46.4617C344.168 47.3205 344.428 48.3789 344.428 49.6368C344.428 51.0075 344.142 52.1916 343.569 53.1893C343.005 54.1782 342.159 54.9373 341.032 55.4665C339.912 55.9957 338.516 56.2603 336.841 56.2603C335.844 56.2603 334.903 56.1735 334.018 56C333.142 55.8352 332.374 55.5793 331.714 55.2323V51.7579C332.374 52.1049 333.163 52.3998 334.083 52.6427C335.011 52.877 335.883 52.9941 336.698 52.9941C337.496 52.9941 338.169 52.89 338.715 52.6818C339.262 52.4649 339.674 52.1352 339.951 51.6928C340.238 51.2417 340.381 50.6691 340.381 49.9751C340.381 49.0469 340.069 48.3355 339.444 47.841C338.819 47.3466 337.861 47.0993 336.568 47.0993C336.074 47.0993 335.558 47.147 335.02 47.2425C334.49 47.3379 334.048 47.4333 333.692 47.5287L332.092 46.6699L332.808 36.9754H343.127V40.3848H336.334L335.983 44.1194C336.278 44.0587 336.599 43.998 336.946 43.9372C337.293 43.8765 337.778 43.8461 338.403 43.8461ZM361.618 45.1865H366.654V48.0362H361.618V53.0461H358.768V48.0362H353.732V45.1865H358.768V40.1115H361.618V45.1865Z" fill="white"/>
<path d="M320.92 66.61V73H320.299V70.012H316.51V73H315.88V66.61H316.51V69.454H320.299V66.61H320.92ZM324.326 73.09C323.99 73.09 323.678 73.027 323.39 72.901C323.108 72.769 322.862 72.592 322.652 72.37C322.448 72.142 322.289 71.884 322.175 71.596C322.061 71.302 322.004 70.993 322.004 70.669C322.004 70.333 322.061 70.021 322.175 69.733C322.289 69.439 322.451 69.181 322.661 68.959C322.871 68.731 323.117 68.554 323.399 68.428C323.687 68.296 323.999 68.23 324.335 68.23C324.671 68.23 324.98 68.296 325.262 68.428C325.544 68.554 325.79 68.731 326 68.959C326.21 69.181 326.372 69.439 326.486 69.733C326.6 70.021 326.657 70.333 326.657 70.669C326.657 70.993 326.6 71.302 326.486 71.596C326.372 71.884 326.21 72.142 326 72.37C325.796 72.592 325.55 72.769 325.262 72.901C324.98 73.027 324.668 73.09 324.326 73.09ZM322.625 70.678C322.625 71.026 322.7 71.344 322.85 71.632C323.006 71.914 323.213 72.139 323.471 72.307C323.729 72.469 324.014 72.55 324.326 72.55C324.638 72.55 324.923 72.466 325.181 72.298C325.439 72.13 325.646 71.902 325.802 71.614C325.958 71.32 326.036 71.002 326.036 70.66C326.036 70.312 325.958 69.994 325.802 69.706C325.646 69.418 325.439 69.19 325.181 69.022C324.923 68.854 324.638 68.77 324.326 68.77C324.014 68.77 323.729 68.857 323.471 69.031C323.219 69.205 323.015 69.436 322.859 69.724C322.703 70.006 322.625 70.324 322.625 70.678ZM327.635 71.065V68.311H328.247V70.957C328.247 71.491 328.337 71.89 328.517 72.154C328.703 72.418 328.976 72.55 329.336 72.55C329.576 72.55 329.807 72.499 330.029 72.397C330.257 72.289 330.458 72.139 330.632 71.947C330.806 71.749 330.938 71.521 331.028 71.263V68.311H331.64V72.262C331.64 72.346 331.658 72.409 331.694 72.451C331.73 72.487 331.784 72.508 331.856 72.514V73C331.784 73.006 331.727 73.009 331.685 73.009C331.643 73.015 331.604 73.018 331.568 73.018C331.448 73.006 331.343 72.958 331.253 72.874C331.169 72.79 331.124 72.688 331.118 72.568L331.1 71.938C330.896 72.298 330.617 72.58 330.263 72.784C329.915 72.988 329.537 73.09 329.129 73.09C328.637 73.09 328.265 72.919 328.013 72.577C327.761 72.235 327.635 71.731 327.635 71.065ZM335.364 68.851C334.956 68.863 334.596 68.977 334.284 69.193C333.978 69.409 333.762 69.706 333.636 70.084V73H333.024V68.311H333.6V69.436C333.762 69.106 333.975 68.839 334.239 68.635C334.509 68.431 334.794 68.317 335.094 68.293C335.154 68.287 335.205 68.284 335.247 68.284C335.295 68.284 335.334 68.287 335.364 68.293V68.851ZM337.718 73.09C337.334 73.09 336.977 73.027 336.647 72.901C336.317 72.775 336.032 72.583 335.792 72.325L336.044 71.893C336.308 72.139 336.572 72.319 336.836 72.433C337.106 72.541 337.391 72.595 337.691 72.595C338.057 72.595 338.354 72.523 338.582 72.379C338.81 72.229 338.924 72.016 338.924 71.74C338.924 71.554 338.867 71.413 338.753 71.317C338.645 71.215 338.486 71.134 338.276 71.074C338.072 71.008 337.826 70.939 337.538 70.867C337.214 70.777 336.941 70.684 336.719 70.588C336.503 70.486 336.338 70.36 336.224 70.21C336.116 70.054 336.062 69.853 336.062 69.607C336.062 69.301 336.137 69.049 336.287 68.851C336.443 68.647 336.653 68.494 336.917 68.392C337.187 68.284 337.487 68.23 337.817 68.23C338.177 68.23 338.495 68.287 338.771 68.401C339.047 68.515 339.272 68.674 339.446 68.878L339.149 69.292C338.981 69.1 338.78 68.959 338.546 68.869C338.318 68.773 338.063 68.725 337.781 68.725C337.589 68.725 337.406 68.752 337.232 68.806C337.058 68.854 336.914 68.938 336.8 69.058C336.692 69.172 336.638 69.331 336.638 69.535C336.638 69.703 336.68 69.835 336.764 69.931C336.848 70.021 336.974 70.099 337.142 70.165C337.31 70.225 337.517 70.291 337.763 70.363C338.117 70.459 338.426 70.558 338.69 70.66C338.954 70.756 339.158 70.882 339.302 71.038C339.446 71.194 339.518 71.413 339.518 71.695C339.518 72.133 339.353 72.475 339.023 72.721C338.693 72.967 338.258 73.09 337.718 73.09ZM344.822 73.09C344.486 73.09 344.174 73.027 343.886 72.901C343.604 72.769 343.358 72.592 343.148 72.37C342.944 72.142 342.785 71.884 342.671 71.596C342.557 71.302 342.5 70.993 342.5 70.669C342.5 70.333 342.557 70.021 342.671 69.733C342.785 69.439 342.947 69.181 343.157 68.959C343.367 68.731 343.613 68.554 343.895 68.428C344.183 68.296 344.495 68.23 344.831 68.23C345.167 68.23 345.476 68.296 345.758 68.428C346.04 68.554 346.286 68.731 346.496 68.959C346.706 69.181 346.868 69.439 346.982 69.733C347.096 70.021 347.153 70.333 347.153 70.669C347.153 70.993 347.096 71.302 346.982 71.596C346.868 71.884 346.706 72.142 346.496 72.37C346.292 72.592 346.046 72.769 345.758 72.901C345.476 73.027 345.164 73.09 344.822 73.09ZM343.121 70.678C343.121 71.026 343.196 71.344 343.346 71.632C343.502 71.914 343.709 72.139 343.967 72.307C344.225 72.469 344.51 72.55 344.822 72.55C345.134 72.55 345.419 72.466 345.677 72.298C345.935 72.13 346.142 71.902 346.298 71.614C346.454 71.32 346.532 71.002 346.532 70.66C346.532 70.312 346.454 69.994 346.298 69.706C346.142 69.418 345.935 69.19 345.677 69.022C345.419 68.854 345.134 68.77 344.822 68.77C344.51 68.77 344.225 68.857 343.967 69.031C343.715 69.205 343.511 69.436 343.355 69.724C343.199 70.006 343.121 70.324 343.121 70.678ZM348.322 73V68.797H347.674V68.311H348.322V68.185C348.322 67.801 348.376 67.471 348.484 67.195C348.598 66.919 348.757 66.709 348.961 66.565C349.171 66.415 349.417 66.34 349.699 66.34C349.885 66.34 350.065 66.367 350.239 66.421C350.413 66.475 350.563 66.547 350.689 66.637L350.5 67.078C350.422 67.012 350.32 66.961 350.194 66.925C350.068 66.889 349.942 66.871 349.816 66.871C349.534 66.871 349.315 66.982 349.159 67.204C349.009 67.426 348.934 67.747 348.934 68.167V68.311H350.23V68.797H348.934V73H348.322ZM354.699 73.09C354.315 73.09 353.958 73.027 353.628 72.901C353.298 72.775 353.013 72.583 352.773 72.325L353.025 71.893C353.289 72.139 353.553 72.319 353.817 72.433C354.087 72.541 354.372 72.595 354.672 72.595C355.038 72.595 355.335 72.523 355.563 72.379C355.791 72.229 355.905 72.016 355.905 71.74C355.905 71.554 355.848 71.413 355.734 71.317C355.626 71.215 355.467 71.134 355.257 71.074C355.053 71.008 354.807 70.939 354.519 70.867C354.195 70.777 353.922 70.684 353.7 70.588C353.484 70.486 353.319 70.36 353.205 70.21C353.097 70.054 353.043 69.853 353.043 69.607C353.043 69.301 353.118 69.049 353.268 68.851C353.424 68.647 353.634 68.494 353.898 68.392C354.168 68.284 354.468 68.23 354.798 68.23C355.158 68.23 355.476 68.287 355.752 68.401C356.028 68.515 356.253 68.674 356.427 68.878L356.13 69.292C355.962 69.1 355.761 68.959 355.527 68.869C355.299 68.773 355.044 68.725 354.762 68.725C354.57 68.725 354.387 68.752 354.213 68.806C354.039 68.854 353.895 68.938 353.781 69.058C353.673 69.172 353.619 69.331 353.619 69.535C353.619 69.703 353.661 69.835 353.745 69.931C353.829 70.021 353.955 70.099 354.123 70.165C354.291 70.225 354.498 70.291 354.744 70.363C355.098 70.459 355.407 70.558 355.671 70.66C355.935 70.756 356.139 70.882 356.283 71.038C356.427 71.194 356.499 71.413 356.499 71.695C356.499 72.133 356.334 72.475 356.004 72.721C355.674 72.967 355.239 73.09 354.699 73.09ZM360.858 73L359.121 70.597L358.122 71.533V73H357.51V66.43H358.122V70.876L360.777 68.32H361.452L359.535 70.237L361.524 73H360.858ZM362.283 73V68.311H362.895V73H362.283ZM362.283 67.33V66.43H362.895V67.33H362.283ZM364.27 66.43H364.882V71.938C364.882 72.172 364.924 72.325 365.008 72.397C365.092 72.469 365.194 72.505 365.314 72.505C365.422 72.505 365.53 72.493 365.638 72.469C365.746 72.445 365.839 72.421 365.917 72.397L366.025 72.892C365.911 72.94 365.77 72.979 365.602 73.009C365.44 73.039 365.299 73.054 365.179 73.054C364.903 73.054 364.681 72.973 364.513 72.811C364.351 72.649 364.27 72.427 364.27 72.145V66.43ZM366.722 66.43H367.334V71.938C367.334 72.172 367.376 72.325 367.46 72.397C367.544 72.469 367.646 72.505 367.766 72.505C367.874 72.505 367.982 72.493 368.09 72.469C368.198 72.445 368.291 72.421 368.369 72.397L368.477 72.892C368.363 72.94 368.222 72.979 368.054 73.009C367.892 73.039 367.751 73.054 367.631 73.054C367.355 73.054 367.133 72.973 366.965 72.811C366.803 72.649 366.722 72.427 366.722 72.145V66.43ZM372.708 73.09C372.324 73.09 371.967 73.027 371.637 72.901C371.307 72.775 371.022 72.583 370.782 72.325L371.034 71.893C371.298 72.139 371.562 72.319 371.826 72.433C372.096 72.541 372.381 72.595 372.681 72.595C373.047 72.595 373.344 72.523 373.572 72.379C373.8 72.229 373.914 72.016 373.914 71.74C373.914 71.554 373.857 71.413 373.743 71.317C373.635 71.215 373.476 71.134 373.266 71.074C373.062 71.008 372.816 70.939 372.528 70.867C372.204 70.777 371.931 70.684 371.709 70.588C371.493 70.486 371.328 70.36 371.214 70.21C371.106 70.054 371.052 69.853 371.052 69.607C371.052 69.301 371.127 69.049 371.277 68.851C371.433 68.647 371.643 68.494 371.907 68.392C372.177 68.284 372.477 68.23 372.807 68.23C373.167 68.23 373.485 68.287 373.761 68.401C374.037 68.515 374.262 68.674 374.436 68.878L374.139 69.292C373.971 69.1 373.77 68.959 373.536 68.869C373.308 68.773 373.053 68.725 372.771 68.725C372.579 68.725 372.396 68.752 372.222 68.806C372.048 68.854 371.904 68.938 371.79 69.058C371.682 69.172 371.628 69.331 371.628 69.535C371.628 69.703 371.67 69.835 371.754 69.931C371.838 70.021 371.964 70.099 372.132 70.165C372.3 70.225 372.507 70.291 372.753 70.363C373.107 70.459 373.416 70.558 373.68 70.66C373.944 70.756 374.148 70.882 374.292 71.038C374.436 71.194 374.508 71.413 374.508 71.695C374.508 72.133 374.343 72.475 374.013 72.721C373.683 72.967 373.248 73.09 372.708 73.09ZM379.461 73H378.849V70.381C378.849 69.853 378.756 69.457 378.57 69.193C378.384 68.923 378.117 68.788 377.769 68.788C377.541 68.788 377.313 68.848 377.085 68.968C376.863 69.082 376.665 69.241 376.491 69.445C376.323 69.643 376.203 69.871 376.131 70.129V73H375.519V66.43H376.131V69.373C376.317 69.025 376.575 68.749 376.905 68.545C377.241 68.335 377.598 68.23 377.976 68.23C378.246 68.23 378.474 68.278 378.66 68.374C378.852 68.47 379.005 68.611 379.119 68.797C379.239 68.977 379.326 69.19 379.38 69.436C379.434 69.676 379.461 69.949 379.461 70.255V73ZM380.388 71.65C380.388 71.356 380.472 71.104 380.64 70.894C380.808 70.678 381.039 70.513 381.333 70.399C381.633 70.279 381.978 70.219 382.368 70.219C382.596 70.219 382.833 70.237 383.079 70.273C383.325 70.309 383.544 70.363 383.736 70.435V70.039C383.736 69.643 383.619 69.328 383.385 69.094C383.151 68.86 382.827 68.743 382.413 68.743C382.161 68.743 381.912 68.791 381.666 68.887C381.426 68.977 381.174 69.112 380.91 69.292L380.676 68.86C380.982 68.65 381.282 68.494 381.576 68.392C381.87 68.284 382.17 68.23 382.476 68.23C383.052 68.23 383.508 68.395 383.844 68.725C384.18 69.055 384.348 69.511 384.348 70.093V72.262C384.348 72.346 384.366 72.409 384.402 72.451C384.438 72.487 384.495 72.508 384.573 72.514V73C384.507 73.006 384.45 73.012 384.402 73.018C384.354 73.024 384.318 73.024 384.294 73.018C384.144 73.012 384.03 72.964 383.952 72.874C383.874 72.784 383.832 72.688 383.826 72.586L383.817 72.244C383.607 72.514 383.334 72.724 382.998 72.874C382.662 73.018 382.32 73.09 381.972 73.09C381.672 73.09 381.399 73.027 381.153 72.901C380.913 72.769 380.724 72.595 380.586 72.379C380.454 72.157 380.388 71.914 380.388 71.65ZM383.529 72.01C383.595 71.926 383.646 71.845 383.682 71.767C383.718 71.689 383.736 71.62 383.736 71.56V70.876C383.532 70.798 383.319 70.738 383.097 70.696C382.881 70.654 382.662 70.633 382.44 70.633C382.002 70.633 381.648 70.72 381.378 70.894C381.108 71.068 380.973 71.305 380.973 71.605C380.973 71.779 381.018 71.944 381.108 72.1C381.198 72.25 381.33 72.376 381.504 72.478C381.678 72.574 381.882 72.622 382.116 72.622C382.41 72.622 382.683 72.565 382.935 72.451C383.193 72.337 383.391 72.19 383.529 72.01ZM388.011 68.851C387.603 68.863 387.243 68.977 386.931 69.193C386.625 69.409 386.409 69.706 386.283 70.084V73H385.671V68.311H386.247V69.436C386.409 69.106 386.622 68.839 386.886 68.635C387.156 68.431 387.441 68.317 387.741 68.293C387.801 68.287 387.852 68.284 387.894 68.284C387.942 68.284 387.981 68.287 388.011 68.293V68.851ZM388.826 73V68.311H389.438V73H388.826ZM388.826 67.33V66.43H389.438V67.33H388.826ZM394.728 73H394.116V70.381C394.116 69.829 394.035 69.427 393.873 69.175C393.711 68.917 393.456 68.788 393.108 68.788C392.868 68.788 392.631 68.848 392.397 68.968C392.163 69.082 391.956 69.241 391.776 69.445C391.602 69.643 391.476 69.871 391.398 70.129V73H390.786V68.311H391.344V69.373C391.47 69.145 391.635 68.947 391.839 68.779C392.043 68.605 392.274 68.47 392.532 68.374C392.79 68.278 393.057 68.23 393.333 68.23C393.591 68.23 393.81 68.278 393.99 68.374C394.17 68.47 394.314 68.608 394.422 68.788C394.53 68.962 394.608 69.175 394.656 69.427C394.704 69.673 394.728 69.949 394.728 70.255V73ZM397.914 73.063C397.596 73.063 397.302 72.997 397.032 72.865C396.762 72.733 396.528 72.556 396.33 72.334C396.138 72.106 395.988 71.848 395.88 71.56C395.772 71.272 395.718 70.975 395.718 70.669C395.718 70.339 395.769 70.03 395.871 69.742C395.979 69.448 396.129 69.187 396.321 68.959C396.519 68.731 396.75 68.554 397.014 68.428C397.278 68.296 397.572 68.23 397.896 68.23C398.298 68.23 398.646 68.332 398.94 68.536C399.24 68.74 399.492 68.992 399.696 69.292V68.311H400.245V73.018C400.245 73.45 400.14 73.813 399.93 74.107C399.726 74.407 399.447 74.632 399.093 74.782C398.745 74.932 398.364 75.007 397.95 75.007C397.416 75.007 396.984 74.911 396.654 74.719C396.324 74.527 396.054 74.269 395.844 73.945L396.222 73.648C396.408 73.942 396.654 74.161 396.96 74.305C397.272 74.449 397.602 74.521 397.95 74.521C398.256 74.521 398.535 74.464 398.787 74.35C399.045 74.242 399.249 74.077 399.399 73.855C399.555 73.633 399.633 73.354 399.633 73.018V72.091C399.453 72.385 399.207 72.622 398.895 72.802C398.583 72.976 398.256 73.063 397.914 73.063ZM398.085 72.55C398.271 72.55 398.448 72.517 398.616 72.451C398.79 72.385 398.949 72.298 399.093 72.19C399.237 72.076 399.357 71.95 399.453 71.812C399.549 71.674 399.609 71.533 399.633 71.389V69.94C399.543 69.712 399.414 69.511 399.246 69.337C399.078 69.157 398.886 69.019 398.67 68.923C398.46 68.821 398.241 68.77 398.013 68.77C397.749 68.77 397.512 68.827 397.302 68.941C397.098 69.049 396.924 69.196 396.78 69.382C396.642 69.562 396.534 69.766 396.456 69.994C396.378 70.222 396.339 70.45 396.339 70.678C396.339 70.93 396.384 71.17 396.474 71.398C396.564 71.62 396.687 71.821 396.843 72.001C397.005 72.175 397.191 72.31 397.401 72.406C397.617 72.502 397.845 72.55 398.085 72.55Z" fill="white"/>
<defs>
<filter id="filter0_b_1211_1742" x="-38.3386" y="-38.3386" width="598.677" height="268.677" filterUnits="userSpaceOnUse" color-interpolation-filters="sRGB">
<feFlood flood-opacity="0" result="BackgroundImageFix"/>
<feGaussianBlur in="BackgroundImageFix" stdDeviation="19.1693"/>
<feComposite in2="SourceAlpha" operator="in" result="effect1_backgroundBlur_1211_1742"/>
<feBlend mode="normal" in="SourceGraphic" in2="effect1_backgroundBlur_1211_1742" result="shape"/>
</filter>
<radialGradient id="paint0_radial_1211_1742" cx="0" cy="0" r="1" gradientUnits="userSpaceOnUse" gradientTransform="translate(-6.40166 5.71238) rotate(19.6017) scale(540.626 546.811)">
<stop offset="0.168103" stop-color="white" stop-opacity="0.18"/>
<stop offset="0.993426" stop-color="white" stop-opacity="0.06"/>
</radialGradient>
<linearGradient id="paint1_linear_1211_1742" x1="654.537" y1="225.827" x2="150.565" y2="-342.091" gradientUnits="userSpaceOnUse">
<stop stop-color="white" stop-opacity="0.48"/>
<stop offset="1" stop-color="white" stop-opacity="0"/>
</linearGradient>
</defs>
</svg>
