<svg width="528" height="273" viewBox="0 0 528 273" fill="none" xmlns="http://www.w3.org/2000/svg">
<g filter="url(#filter0_d_37_1506)">
<path d="M67.7639 38.2301C66.1593 38.2233 64.7882 37.8001 63.6507 36.9606C62.5132 36.121 61.6432 34.8989 61.0406 33.2942C60.438 31.6895 60.1367 29.7565 60.1367 27.495C60.1367 25.2404 60.438 23.3141 61.0406 21.7162C61.65 20.1183 62.5234 18.8996 63.6609 18.06C64.8051 17.2204 66.1728 16.8006 67.7639 16.8006C69.3551 16.8006 70.7194 17.2238 71.8569 18.0702C72.9944 18.9097 73.8644 20.1285 74.467 21.7264C75.0764 23.3175 75.381 25.2404 75.381 27.495C75.381 29.7632 75.0797 31.6997 74.4771 33.3044C73.8746 34.9022 73.0045 36.1244 71.867 36.9707C70.7295 37.8103 69.3618 38.2301 67.7639 38.2301ZM67.7639 35.5184C69.1723 35.5184 70.2725 34.8312 71.0647 33.4567C71.8636 32.0822 72.2631 30.095 72.2631 27.495C72.2631 25.7685 72.0803 24.3094 71.7147 23.1177C71.3558 21.9193 70.8379 21.012 70.1608 20.3959C69.4905 19.773 68.6915 19.4615 67.7639 19.4615C66.3624 19.4615 65.2622 20.1522 64.4632 21.5334C63.6643 22.9146 63.2614 24.9018 63.2546 27.495C63.2546 29.2284 63.434 30.6942 63.7929 31.8926C64.1585 33.0843 64.6765 33.9882 65.3468 34.6043C66.0171 35.2137 66.8228 35.5184 67.7639 35.5184ZM78.9839 37.8848V35.6098L86.0221 28.3177C86.7737 27.5255 87.3932 26.8315 87.8807 26.2357C88.375 25.6331 88.744 25.061 88.9877 24.5193C89.2315 23.9776 89.3533 23.4021 89.3533 22.7928C89.3533 22.1021 89.1908 21.5063 88.8658 21.0053C88.5409 20.4975 88.0974 20.1082 87.5354 19.8373C86.9734 19.5597 86.3404 19.4209 85.6362 19.4209C84.8914 19.4209 84.2414 19.5733 83.6862 19.8779C83.131 20.1826 82.7045 20.6126 82.4065 21.1678C82.1086 21.723 81.9597 22.373 81.9597 23.1177H78.9636C78.9636 21.8516 79.2548 20.7446 79.837 19.7967C80.4193 18.8488 81.2183 18.1142 82.2339 17.5928C83.2495 17.0647 84.4039 16.8006 85.6971 16.8006C87.0039 16.8006 88.1549 17.0613 89.1502 17.5827C90.1523 18.0972 90.9343 18.8014 91.4963 19.6951C92.0583 20.5821 92.3392 21.5842 92.3392 22.7013C92.3392 23.4732 92.1937 24.2282 91.9025 24.9662C91.6182 25.7042 91.1205 26.5268 90.4096 27.4341C89.6987 28.3346 88.7101 29.4281 87.444 30.7145L83.3104 35.041V35.1934H92.6744V37.8848H78.9839ZM104.377 37.8848V17.085H117.275V19.7865H107.515V26.124H116.351V28.8153H107.515V37.8848H104.377ZM126.469 38.1996C124.932 38.1996 123.608 37.8712 122.498 37.2145C121.394 36.5509 120.541 35.6199 119.939 34.4215C119.343 33.2163 119.045 31.8046 119.045 30.1864C119.045 28.5885 119.343 27.1802 119.939 25.9615C120.541 24.7427 121.381 23.7914 122.457 23.1076C123.541 22.4237 124.807 22.0818 126.256 22.0818C127.136 22.0818 127.989 22.2274 128.815 22.5185C129.641 22.8097 130.382 23.2667 131.039 23.8896C131.696 24.5125 132.214 25.3216 132.593 26.3169C132.972 27.3055 133.162 28.5073 133.162 29.9224V30.9989H120.761V28.7239H130.186C130.186 27.925 130.024 27.2174 129.699 26.6013C129.374 25.9784 128.917 25.4875 128.327 25.1287C127.745 24.7698 127.061 24.5904 126.276 24.5904C125.423 24.5904 124.678 24.8003 124.042 25.2201C123.412 25.6331 122.924 26.1747 122.579 26.8451C122.241 27.5086 122.071 28.2297 122.071 29.0083V30.7856C122.071 31.8283 122.254 32.7153 122.62 33.4465C122.992 34.1778 123.51 34.7364 124.174 35.1223C124.837 35.5015 125.612 35.691 126.499 35.691C127.075 35.691 127.6 35.6098 128.074 35.4473C128.548 35.278 128.957 35.0275 129.302 34.6957C129.648 34.364 129.912 33.9543 130.095 33.4668L132.969 33.9848C132.739 34.8312 132.326 35.5726 131.73 36.209C131.141 36.8387 130.399 37.3296 129.506 37.6816C128.619 38.027 127.606 38.1996 126.469 38.1996ZM136.775 37.8848V17.085H139.812V24.8138H139.994C140.17 24.4888 140.424 24.1131 140.756 23.6865C141.088 23.2599 141.548 22.8875 142.137 22.5693C142.726 22.2443 143.505 22.0818 144.473 22.0818C145.733 22.0818 146.857 22.4001 147.845 23.0365C148.834 23.673 149.609 24.5904 150.171 25.7888C150.74 26.9872 151.024 28.4294 151.024 30.1153C151.024 31.8012 150.743 33.2468 150.181 34.452C149.619 35.6504 148.847 36.5746 147.865 37.2246C146.884 37.8678 145.763 38.1894 144.504 38.1894C143.556 38.1894 142.781 38.0303 142.178 37.7121C141.582 37.3939 141.115 37.0215 140.776 36.5949C140.438 36.1684 140.177 35.7892 139.994 35.4575H139.74V37.8848H136.775ZM139.751 30.0849C139.751 31.1817 139.91 32.1432 140.228 32.9692C140.546 33.7952 141.007 34.4418 141.609 34.909C142.212 35.3694 142.95 35.5996 143.823 35.5996C144.73 35.5996 145.489 35.3593 146.098 34.8786C146.708 34.3911 147.168 33.7309 147.479 32.8981C147.798 32.0653 147.957 31.1276 147.957 30.0849C147.957 29.0557 147.801 28.1315 147.49 27.3122C147.185 26.493 146.724 25.8464 146.108 25.3724C145.499 24.8985 144.737 24.6615 143.823 24.6615C142.943 24.6615 142.198 24.8883 141.589 25.3419C140.986 25.7956 140.529 26.4286 140.218 27.2411C139.906 28.0536 139.751 29.0015 139.751 30.0849ZM154.434 37.8848V22.2849H157.369V24.763H157.531C157.816 23.9235 158.317 23.2633 159.035 22.7826C159.759 22.2951 160.578 22.0514 161.492 22.0514C161.682 22.0514 161.905 22.0581 162.163 22.0717C162.427 22.0852 162.633 22.1021 162.782 22.1224V25.0271C162.66 24.9932 162.444 24.956 162.132 24.9154C161.821 24.868 161.509 24.8443 161.198 24.8443C160.48 24.8443 159.84 24.9966 159.278 25.3013C158.723 25.5992 158.283 26.0156 157.958 26.5505C157.633 27.0786 157.471 27.6812 157.471 28.3583V37.8848H154.434ZM175.292 31.4153V22.2849H178.339V37.8848H175.353V35.1832H175.19C174.832 36.016 174.256 36.71 173.464 37.2652C172.678 37.8137 171.7 38.0879 170.529 38.0879C169.527 38.0879 168.64 37.8678 167.868 37.4277C167.103 36.9809 166.5 36.3207 166.06 35.4473C165.627 34.5739 165.41 33.4939 165.41 32.2075V22.2849H168.447V31.8419C168.447 32.9049 168.741 33.7512 169.33 34.3809C169.919 35.0106 170.684 35.3254 171.626 35.3254C172.194 35.3254 172.76 35.1832 173.322 34.8989C173.89 34.6145 174.361 34.1845 174.733 33.609C175.113 33.0335 175.299 32.3023 175.292 31.4153ZM186.959 38.2301C185.97 38.2301 185.077 38.0473 184.278 37.6816C183.479 37.3093 182.846 36.771 182.378 36.0668C181.918 35.3627 181.688 34.4994 181.688 33.477C181.688 32.5968 181.857 31.8723 182.196 31.3036C182.534 30.7348 182.991 30.2846 183.567 29.9528C184.142 29.6211 184.785 29.3705 185.496 29.2013C186.207 29.032 186.932 28.9034 187.67 28.8153C188.604 28.707 189.362 28.619 189.945 28.5513C190.527 28.4768 190.95 28.3583 191.214 28.1958C191.478 28.0333 191.61 27.7693 191.61 27.4036V27.3325C191.61 26.4456 191.36 25.7583 190.859 25.2708C190.365 24.7834 189.627 24.5396 188.645 24.5396C187.622 24.5396 186.817 24.7664 186.228 25.2201C185.645 25.6669 185.242 26.1646 185.019 26.713L182.165 26.063C182.504 25.1151 182.998 24.35 183.648 23.7677C184.305 23.1787 185.06 22.7521 185.913 22.4881C186.766 22.2172 187.663 22.0818 188.604 22.0818C189.227 22.0818 189.887 22.1563 190.585 22.3053C191.289 22.4474 191.946 22.7115 192.555 23.0974C193.171 23.4834 193.675 24.0352 194.068 24.7529C194.461 25.4638 194.657 26.388 194.657 27.5255V37.8848H191.692V35.752H191.57C191.373 36.1447 191.079 36.5306 190.686 36.9098C190.293 37.2889 189.789 37.6038 189.173 37.8543C188.557 38.1048 187.819 38.2301 186.959 38.2301ZM187.619 35.7926C188.459 35.7926 189.176 35.6267 189.772 35.295C190.375 34.9632 190.832 34.5299 191.143 33.995C191.461 33.4533 191.621 32.8744 191.621 32.2583V30.2474C191.512 30.3557 191.302 30.4572 190.991 30.552C190.686 30.6401 190.337 30.7179 189.945 30.7856C189.552 30.8466 189.169 30.9041 188.797 30.9583C188.425 31.0057 188.113 31.0463 187.863 31.0802C187.274 31.1546 186.735 31.2799 186.248 31.4559C185.767 31.632 185.381 31.8859 185.09 32.2176C184.806 32.5426 184.664 32.976 184.664 33.5176C184.664 34.2692 184.941 34.8379 185.496 35.2239C186.052 35.603 186.759 35.7926 187.619 35.7926ZM198.702 37.8848V22.2849H201.637V24.763H201.799C202.084 23.9235 202.585 23.2633 203.303 22.7826C204.027 22.2951 204.846 22.0514 205.76 22.0514C205.95 22.0514 206.173 22.0581 206.431 22.0717C206.695 22.0852 206.901 22.1021 207.05 22.1224V25.0271C206.928 24.9932 206.712 24.956 206.4 24.9154C206.089 24.868 205.777 24.8443 205.466 24.8443C204.748 24.8443 204.108 24.9966 203.546 25.3013C202.991 25.5992 202.551 26.0156 202.226 26.5505C201.901 27.0786 201.739 27.6812 201.739 28.3583V37.8848H198.702ZM212.072 43.7347C211.619 43.7347 211.206 43.6975 210.833 43.623C210.461 43.5553 210.183 43.4808 210.001 43.3995L210.732 40.9113C211.287 41.0602 211.781 41.1246 212.215 41.1043C212.648 41.0839 213.03 40.9214 213.362 40.6168C213.701 40.3121 213.999 39.8144 214.256 39.1238L214.632 38.0879L208.924 22.2849H212.174L216.125 34.3911H216.287L220.238 22.2849H223.498L217.069 39.9668C216.771 40.7793 216.392 41.4665 215.932 42.0285C215.471 42.5972 214.923 43.0238 214.286 43.3081C213.65 43.5925 212.912 43.7347 212.072 43.7347ZM233.88 37.8848V35.6098L240.918 28.3177C241.67 27.5255 242.289 26.8315 242.777 26.2357C243.271 25.6331 243.64 25.061 243.884 24.5193C244.128 23.9776 244.25 23.4021 244.25 22.7928C244.25 22.1021 244.087 21.5063 243.762 21.0053C243.437 20.4975 242.994 20.1082 242.432 19.8373C241.87 19.5597 241.237 19.4209 240.532 19.4209C239.788 19.4209 239.138 19.5733 238.582 19.8779C238.027 20.1826 237.601 20.6126 237.303 21.1678C237.005 21.723 236.856 22.373 236.856 23.1177H233.86C233.86 21.8516 234.151 20.7446 234.733 19.7967C235.316 18.8488 236.115 18.1142 237.13 17.5928C238.146 17.0647 239.3 16.8006 240.593 16.8006C241.9 16.8006 243.051 17.0613 244.046 17.5827C245.049 18.0972 245.831 18.8014 246.393 19.6951C246.954 20.5821 247.235 21.5842 247.235 22.7013C247.235 23.4732 247.09 24.2282 246.799 24.9662C246.514 25.7042 246.017 26.5268 245.306 27.4341C244.595 28.3346 243.606 29.4281 242.34 30.7145L238.207 35.041V35.1934H247.571V37.8848H233.88ZM258.661 38.2301C257.056 38.2233 255.685 37.8001 254.548 36.9606C253.41 36.121 252.54 34.8989 251.938 33.2942C251.335 31.6895 251.034 29.7565 251.034 27.495C251.034 25.2404 251.335 23.3141 251.938 21.7162C252.547 20.1183 253.421 18.8996 254.558 18.06C255.702 17.2204 257.07 16.8006 258.661 16.8006C260.252 16.8006 261.617 17.2238 262.754 18.0702C263.892 18.9097 264.762 20.1285 265.364 21.7264C265.974 23.3175 266.278 25.2404 266.278 27.495C266.278 29.7632 265.977 31.6997 265.374 33.3044C264.772 34.9022 263.902 36.1244 262.764 36.9707C261.627 37.8103 260.259 38.2301 258.661 38.2301ZM258.661 35.5184C260.069 35.5184 261.17 34.8312 261.962 33.4567C262.761 32.0822 263.16 30.095 263.16 27.495C263.16 25.7685 262.977 24.3094 262.612 23.1177C262.253 21.9193 261.735 21.012 261.058 20.3959C260.388 19.773 259.589 19.4615 258.661 19.4615C257.26 19.4615 256.159 20.1522 255.36 21.5334C254.561 22.9146 254.159 24.9018 254.152 27.495C254.152 29.2284 254.331 30.6942 254.69 31.8926C255.056 33.0843 255.574 33.9882 256.244 34.6043C256.914 35.2137 257.72 35.5184 258.661 35.5184ZM269.881 37.8848V35.6098L276.919 28.3177C277.671 27.5255 278.29 26.8315 278.778 26.2357C279.272 25.6331 279.641 25.061 279.885 24.5193C280.129 23.9776 280.251 23.4021 280.251 22.7928C280.251 22.1021 280.088 21.5063 279.763 21.0053C279.438 20.4975 278.995 20.1082 278.433 19.8373C277.871 19.5597 277.238 19.4209 276.533 19.4209C275.789 19.4209 275.139 19.5733 274.583 19.8779C274.028 20.1826 273.602 20.6126 273.304 21.1678C273.006 21.723 272.857 22.373 272.857 23.1177H269.861C269.861 21.8516 270.152 20.7446 270.734 19.7967C271.317 18.8488 272.115 18.1142 273.131 17.5928C274.147 17.0647 275.301 16.8006 276.594 16.8006C277.901 16.8006 279.052 17.0613 280.047 17.5827C281.049 18.0972 281.831 18.8014 282.393 19.6951C282.955 20.5821 283.236 21.5842 283.236 22.7013C283.236 23.4732 283.091 24.2282 282.8 24.9662C282.515 25.7042 282.018 26.5268 281.307 27.4341C280.596 28.3346 279.607 29.4281 278.341 30.7145L274.208 35.041V35.1934H283.572V37.8848H269.881ZM286.537 33.8223V31.2833L295.525 17.085H297.526V20.8225H296.257L289.828 30.9989V31.1614H302.147V33.8223H286.537ZM296.399 37.8848V33.0504L296.419 31.8926V17.085H299.395V37.8848H296.399Z" fill="white"/>
</g>
<g filter="url(#filter1_d_37_1506)">
<path d="M40.9294 12.7679L33.475 12.768V10.2589C33.475 9.56337 33.0584 9 32.544 9C32.0297 9 31.6131 9.56337 31.6131 10.2589V12.7673H24.1652V10.2589C24.1652 9.56337 23.7486 9 23.2343 9C22.7199 9 22.3033 9.56337 22.3033 10.2589V12.7673H14.862C13.8337 12.7673 13 13.8947 13 15.2852V46.7584C13 48.1489 13.8337 49.2763 14.862 49.2763H40.9294C41.9576 49.2763 42.7913 48.1489 42.7913 46.7584V15.2852C42.7913 13.8953 41.9576 12.7679 40.9294 12.7679ZM40.9294 46.7584H14.862V15.2852H22.3033V16.5536C22.3033 17.2491 22.7199 17.8125 23.2343 17.8125C23.7486 17.8125 24.1652 17.2491 24.1652 16.5536V15.2858H31.6131V16.5542C31.6131 17.2498 32.0297 17.8131 32.544 17.8131C33.0584 17.8131 33.475 17.2498 33.475 16.5542V15.2858H40.9294V46.7584ZM34.4125 29.134H36.2745C36.7884 29.134 37.2054 28.57 37.2054 27.8751V25.3572C37.2054 24.6623 36.7884 24.0983 36.2745 24.0983H34.4125C33.8986 24.0983 33.4815 24.6623 33.4815 25.3572V27.8751C33.4815 28.57 33.8986 29.134 34.4125 29.134ZM34.4125 39.2048H36.2745C36.7884 39.2048 37.2054 38.6414 37.2054 37.9459V35.428C37.2054 34.7331 36.7884 34.1691 36.2745 34.1691H34.4125C33.8986 34.1691 33.4815 34.7331 33.4815 35.428V37.9459C33.4815 38.6421 33.8986 39.2048 34.4125 39.2048ZM28.8266 34.1691H26.9647C26.4508 34.1691 26.0337 34.7331 26.0337 35.428V37.9459C26.0337 38.6414 26.4508 39.2048 26.9647 39.2048H28.8266C29.3405 39.2048 29.7576 38.6414 29.7576 37.9459V35.428C29.7576 34.7337 29.3405 34.1691 28.8266 34.1691ZM28.8266 24.0983H26.9647C26.4508 24.0983 26.0337 24.6623 26.0337 25.3572V27.8751C26.0337 28.57 26.4508 29.134 26.9647 29.134H28.8266C29.3405 29.134 29.7576 28.57 29.7576 27.8751V25.3572C29.7576 24.6617 29.3405 24.0983 28.8266 24.0983ZM21.3788 24.0983H19.5169C19.003 24.0983 18.5859 24.6623 18.5859 25.3572V27.8751C18.5859 28.57 19.003 29.134 19.5169 29.134H21.3788C21.8927 29.134 22.3098 28.57 22.3098 27.8751V25.3572C22.3098 24.6617 21.8927 24.0983 21.3788 24.0983ZM21.3788 34.1691H19.5169C19.003 34.1691 18.5859 34.7331 18.5859 35.428V37.9459C18.5859 38.6414 19.003 39.2048 19.5169 39.2048H21.3788C21.8927 39.2048 22.3098 38.6414 22.3098 37.9459V35.428C22.3098 34.7337 21.8927 34.1691 21.3788 34.1691Z" fill="#D3DCE6"/>
</g>
<g filter="url(#filter2_d_37_1506)">
<path d="M72.4014 83.8057V104.605H69.253V86.9541H69.1311L64.1546 90.2041V87.1979L69.3444 83.8057H72.4014ZM78.0279 104.605V102.33L85.0661 95.0384C85.8176 94.2462 86.4372 93.5522 86.9247 92.9564C87.4189 92.3538 87.7879 91.7817 88.0317 91.24C88.2754 90.6983 88.3973 90.1228 88.3973 89.5135C88.3973 88.8228 88.2348 88.227 87.9098 87.726C87.5848 87.2182 87.1413 86.8289 86.5793 86.558C86.0174 86.2804 85.3843 86.1416 84.6801 86.1416C83.9354 86.1416 83.2854 86.294 82.7302 86.5986C82.175 86.9033 81.7484 87.3333 81.4505 87.8885C81.1526 88.4437 81.0036 89.0937 81.0036 89.8385H78.0076C78.0076 88.5723 78.2987 87.4653 78.881 86.5174C79.4633 85.5695 80.2622 84.8349 81.2778 84.3135C82.2935 83.7854 83.4479 83.5213 84.7411 83.5213C86.0478 83.5213 87.1989 83.782 88.1942 84.3034C89.1962 84.8179 89.9783 85.5221 90.5402 86.4158C91.1022 87.3028 91.3832 88.3049 91.3832 89.4221C91.3832 90.1939 91.2376 90.9489 90.9465 91.6869C90.6621 92.4249 90.1645 93.2475 89.4535 94.1548C88.7426 95.0553 87.7541 96.1488 86.4879 97.4352L82.3544 101.762V101.914H91.7183V104.605H78.0279ZM97.6089 102.026C97.0537 102.026 96.5764 101.829 96.1769 101.437C95.7774 101.037 95.5777 100.557 95.5777 99.9946C95.5777 99.4394 95.7774 98.9654 96.1769 98.5727C96.5764 98.1733 97.0537 97.9735 97.6089 97.9735C98.1641 97.9735 98.6414 98.1733 99.0409 98.5727C99.4404 98.9654 99.6401 99.4394 99.6401 99.9946C99.6401 100.367 99.5453 100.709 99.3558 101.02C99.1729 101.325 98.9292 101.569 98.6245 101.752C98.3198 101.934 97.9813 102.026 97.6089 102.026ZM97.6089 91.6056C97.0537 91.6056 96.5764 91.4093 96.1769 91.0166C95.7774 90.6171 95.5777 90.1364 95.5777 89.5744C95.5777 89.0192 95.7774 88.5452 96.1769 88.1525C96.5764 87.7531 97.0537 87.5533 97.6089 87.5533C98.1641 87.5533 98.6414 87.7531 99.0409 88.1525C99.4404 88.5452 99.6401 89.0192 99.6401 89.5744C99.6401 89.9468 99.5453 90.2887 99.3558 90.6002C99.1729 90.9048 98.9292 91.1486 98.6245 91.3314C98.3198 91.5142 97.9813 91.6056 97.6089 91.6056ZM110.908 104.89C109.514 104.89 108.268 104.649 107.171 104.169C106.081 103.688 105.218 103.021 104.581 102.168C103.951 101.308 103.613 100.313 103.565 99.1821H106.754C106.795 99.7982 107.002 100.333 107.374 100.787C107.753 101.234 108.247 101.579 108.857 101.823C109.466 102.066 110.143 102.188 110.888 102.188C111.707 102.188 112.432 102.046 113.061 101.762C113.698 101.477 114.196 101.081 114.554 100.573C114.913 100.059 115.093 99.4665 115.093 98.7962C115.093 98.0988 114.913 97.486 114.554 96.9579C114.202 96.423 113.684 96.0032 113.001 95.6985C112.323 95.3939 111.504 95.2415 110.543 95.2415H108.786V92.6822H110.543C111.315 92.6822 111.992 92.5434 112.574 92.2658C113.163 91.9882 113.623 91.6022 113.955 91.108C114.287 90.6069 114.453 90.0213 114.453 89.351C114.453 88.7077 114.307 88.1491 114.016 87.6752C113.732 87.1945 113.326 86.8187 112.797 86.5479C112.276 86.277 111.66 86.1416 110.949 86.1416C110.272 86.1416 109.639 86.2669 109.05 86.5174C108.467 86.7611 107.994 87.1132 107.628 87.5736C107.262 88.0273 107.066 88.5723 107.039 89.2088H104.002C104.036 88.0848 104.368 87.0963 104.997 86.2432C105.634 85.3901 106.474 84.7231 107.516 84.2424C108.559 83.7617 109.717 83.5213 110.99 83.5213C112.323 83.5213 113.474 83.782 114.443 84.3034C115.418 84.8179 116.169 85.5052 116.697 86.3651C117.232 87.2249 117.496 88.1661 117.49 89.1885C117.496 90.353 117.171 91.3416 116.515 92.1541C115.865 92.9665 114.998 93.5116 113.915 93.7892V93.9517C115.296 94.1616 116.366 94.71 117.124 95.597C117.889 96.4839 118.268 97.5842 118.261 98.8977C118.268 100.042 117.95 101.068 117.307 101.975C116.67 102.882 115.8 103.597 114.697 104.118C113.593 104.633 112.33 104.89 110.908 104.89ZM129.342 104.951C127.737 104.944 126.366 104.521 125.229 103.681C124.091 102.842 123.221 101.62 122.618 100.015C122.016 98.4102 121.714 96.4772 121.714 94.2157C121.714 91.9611 122.016 90.0348 122.618 88.4369C123.228 86.839 124.101 85.6203 125.239 84.7807C126.383 83.9411 127.751 83.5213 129.342 83.5213C130.933 83.5213 132.297 83.9445 133.435 84.7909C134.572 85.6304 135.442 86.8492 136.045 88.4471C136.654 90.0382 136.959 91.9611 136.959 94.2157C136.959 96.4839 136.658 98.4204 136.055 100.025C135.452 101.623 134.582 102.845 133.445 103.691C132.307 104.531 130.94 104.951 129.342 104.951ZM129.342 102.239C130.75 102.239 131.85 101.552 132.642 100.177C133.441 98.8029 133.841 96.8157 133.841 94.2157C133.841 92.4892 133.658 91.0301 133.292 89.8385C132.934 88.64 132.416 87.7327 131.739 87.1166C131.068 86.4937 130.269 86.1822 129.342 86.1822C127.94 86.1822 126.84 86.8729 126.041 88.2541C125.242 89.6353 124.839 91.6225 124.832 94.2157C124.832 95.9491 125.012 97.4149 125.371 98.6134C125.736 99.805 126.254 100.709 126.925 101.325C127.595 101.934 128.401 102.239 129.342 102.239ZM148.415 104.605V83.8057H155.829C157.447 83.8057 158.788 84.1002 159.851 84.6893C160.914 85.2783 161.709 86.0841 162.237 87.1065C162.766 88.1221 163.03 89.2663 163.03 90.5392C163.03 91.8189 162.762 92.9699 162.227 93.9923C161.699 95.0079 160.9 95.8136 159.83 96.4095C158.767 96.9985 157.43 97.2931 155.819 97.2931H150.72V94.6321H155.534C156.557 94.6321 157.386 94.4561 158.023 94.104C158.659 93.7452 159.126 93.2577 159.424 92.6415C159.722 92.0254 159.871 91.3246 159.871 90.5392C159.871 89.7538 159.722 89.0564 159.424 88.4471C159.126 87.8377 158.656 87.3604 158.012 87.015C157.376 86.6697 156.536 86.4971 155.494 86.4971H151.553V104.605H148.415ZM166.709 83.8057H170.517L177.139 99.9743H177.383L184.005 83.8057H187.813V104.605H184.827V89.5541H184.634L178.5 104.575H176.022L169.888 89.5439H169.695V104.605H166.709V83.8057Z" fill="white"/>
</g>
<g filter="url(#filter3_d_37_1506)">
<path d="M64.4082 167.73V146.931H67.5464V165.029H76.9713V167.73H64.4082ZM80.3076 167.73V152.131H83.3443V167.73H80.3076ZM81.8412 149.724C81.3131 149.724 80.8594 149.548 80.4803 149.196C80.1079 148.837 79.9217 148.41 79.9217 147.916C79.9217 147.415 80.1079 146.988 80.4803 146.636C80.8594 146.277 81.3131 146.098 81.8412 146.098C82.3693 146.098 82.8196 146.277 83.1919 146.636C83.5711 146.988 83.7607 147.415 83.7607 147.916C83.7607 148.41 83.5711 148.837 83.1919 149.196C82.8196 149.548 82.3693 149.724 81.8412 149.724ZM87.6733 167.73V146.931H90.71V154.66H90.8928C91.0689 154.335 91.3228 153.959 91.6545 153.532C91.9863 153.106 92.4467 152.733 93.0358 152.415C93.6248 152.09 94.4035 151.928 95.3717 151.928C96.631 151.928 97.755 152.246 98.7435 152.882C99.7321 153.519 100.507 154.436 101.069 155.635C101.638 156.833 101.922 158.275 101.922 159.961C101.922 161.647 101.641 163.093 101.079 164.298C100.517 165.496 99.7456 166.42 98.7638 167.07C97.7821 167.714 96.6615 168.035 95.4022 168.035C94.4542 168.035 93.679 167.876 93.0764 167.558C92.4806 167.24 92.0134 166.867 91.6749 166.441C91.3363 166.014 91.0756 165.635 90.8928 165.303H90.6389V167.73H87.6733ZM90.6491 159.931C90.6491 161.027 90.8082 161.989 91.1264 162.815C91.4446 163.641 91.9051 164.288 92.5077 164.755C93.1103 165.215 93.8483 165.445 94.7217 165.445C95.629 165.445 96.3873 165.205 96.9967 164.724C97.606 164.237 98.0664 163.577 98.3779 162.744C98.6961 161.911 98.8552 160.973 98.8552 159.931C98.8552 158.901 98.6995 157.977 98.3881 157.158C98.0834 156.339 97.623 155.692 97.0068 155.218C96.3975 154.744 95.6357 154.507 94.7217 154.507C93.8415 154.507 93.0967 154.734 92.4873 155.188C91.8847 155.641 91.4277 156.274 91.1163 157.087C90.8048 157.899 90.6491 158.847 90.6491 159.931ZM105.332 167.73V152.131H108.267V154.609H108.43C108.714 153.769 109.215 153.109 109.933 152.628C110.658 152.141 111.477 151.897 112.391 151.897C112.58 151.897 112.804 151.904 113.061 151.917C113.325 151.931 113.532 151.948 113.681 151.968V154.873C113.559 154.839 113.342 154.802 113.031 154.761C112.719 154.714 112.408 154.69 112.096 154.69C111.379 154.69 110.739 154.842 110.177 155.147C109.622 155.445 109.181 155.861 108.856 156.396C108.531 156.924 108.369 157.527 108.369 158.204V167.73H105.332ZM120.709 168.076C119.72 168.076 118.826 167.893 118.027 167.527C117.229 167.155 116.595 166.617 116.128 165.913C115.668 165.208 115.438 164.345 115.438 163.323C115.438 162.443 115.607 161.718 115.945 161.149C116.284 160.581 116.741 160.13 117.317 159.799C117.892 159.467 118.535 159.216 119.246 159.047C119.957 158.878 120.682 158.749 121.42 158.661C122.354 158.553 123.112 158.465 123.695 158.397C124.277 158.323 124.7 158.204 124.964 158.042C125.228 157.879 125.36 157.615 125.36 157.249V157.178C125.36 156.291 125.11 155.604 124.609 155.117C124.114 154.629 123.376 154.385 122.395 154.385C121.372 154.385 120.567 154.612 119.977 155.066C119.395 155.513 118.992 156.01 118.769 156.559L115.915 155.909C116.254 154.961 116.748 154.196 117.398 153.613C118.055 153.024 118.809 152.598 119.663 152.334C120.516 152.063 121.413 151.928 122.354 151.928C122.977 151.928 123.637 152.002 124.334 152.151C125.039 152.293 125.695 152.557 126.305 152.943C126.921 153.329 127.425 153.881 127.818 154.599C128.211 155.31 128.407 156.234 128.407 157.371V167.73H125.441V165.598H125.32C125.123 165.99 124.829 166.376 124.436 166.755C124.043 167.135 123.539 167.449 122.923 167.7C122.307 167.951 121.569 168.076 120.709 168.076ZM121.369 165.638C122.208 165.638 122.926 165.472 123.522 165.141C124.125 164.809 124.582 164.376 124.893 163.841C125.211 163.299 125.37 162.72 125.37 162.104V160.093C125.262 160.201 125.052 160.303 124.741 160.398C124.436 160.486 124.087 160.564 123.695 160.631C123.302 160.692 122.919 160.75 122.547 160.804C122.175 160.851 121.863 160.892 121.613 160.926C121.024 161 120.485 161.126 119.998 161.302C119.517 161.478 119.131 161.732 118.84 162.063C118.556 162.388 118.413 162.822 118.413 163.363C118.413 164.115 118.691 164.684 119.246 165.07C119.801 165.449 120.509 165.638 121.369 165.638ZM132.452 167.73V152.131H135.387V154.609H135.549C135.834 153.769 136.335 153.109 137.052 152.628C137.777 152.141 138.596 151.897 139.51 151.897C139.7 151.897 139.923 151.904 140.181 151.917C140.445 151.931 140.651 151.948 140.8 151.968V154.873C140.678 154.839 140.462 154.802 140.15 154.761C139.839 154.714 139.527 154.69 139.216 154.69C138.498 154.69 137.858 154.842 137.296 155.147C136.741 155.445 136.301 155.861 135.976 156.396C135.651 156.924 135.488 157.527 135.488 158.204V167.73H132.452ZM145.822 173.58C145.369 173.58 144.956 173.543 144.583 173.469C144.211 173.401 143.933 173.326 143.75 173.245L144.482 170.757C145.037 170.906 145.531 170.97 145.964 170.95C146.398 170.93 146.78 170.767 147.112 170.462C147.451 170.158 147.749 169.66 148.006 168.97L148.382 167.934L142.674 152.131H145.924L149.875 164.237H150.037L153.988 152.131H157.248L150.819 169.812C150.521 170.625 150.142 171.312 149.682 171.874C149.221 172.443 148.673 172.869 148.036 173.154C147.4 173.438 146.662 173.58 145.822 173.58ZM169.671 167.73H166.34L173.825 146.931H177.451L184.936 167.73H181.605L175.724 150.709H175.562L169.671 167.73ZM170.23 159.585H181.036V162.226H170.23V159.585ZM197.578 161.261V152.131H200.625V167.73H197.639V165.029H197.476C197.118 165.862 196.542 166.556 195.75 167.111C194.964 167.659 193.986 167.934 192.815 167.934C191.813 167.934 190.926 167.714 190.154 167.273C189.389 166.827 188.786 166.166 188.346 165.293C187.913 164.42 187.696 163.34 187.696 162.053V152.131H190.733V161.688C190.733 162.751 191.027 163.597 191.616 164.227C192.205 164.856 192.97 165.171 193.912 165.171C194.48 165.171 195.046 165.029 195.608 164.745C196.176 164.46 196.647 164.03 197.019 163.455C197.398 162.879 197.585 162.148 197.578 161.261ZM210.545 168.035C209.285 168.035 208.161 167.714 207.173 167.07C206.191 166.42 205.419 165.496 204.857 164.298C204.302 163.093 204.025 161.647 204.025 159.961C204.025 158.275 204.306 156.833 204.867 155.635C205.436 154.436 206.215 153.519 207.203 152.882C208.192 152.246 209.312 151.928 210.565 151.928C211.533 151.928 212.312 152.09 212.901 152.415C213.497 152.733 213.957 153.106 214.282 153.532C214.614 153.959 214.871 154.335 215.054 154.66H215.237V146.931H218.274V167.73H215.308V165.303H215.054C214.871 165.635 214.607 166.014 214.262 166.441C213.923 166.867 213.456 167.24 212.86 167.558C212.265 167.876 211.493 168.035 210.545 168.035ZM211.215 165.445C212.088 165.445 212.827 165.215 213.429 164.755C214.038 164.288 214.499 163.641 214.81 162.815C215.129 161.989 215.288 161.027 215.288 159.931C215.288 158.847 215.132 157.899 214.82 157.087C214.509 156.274 214.052 155.641 213.449 155.188C212.847 154.734 212.102 154.507 211.215 154.507C210.301 154.507 209.539 154.744 208.93 155.218C208.321 155.692 207.86 156.339 207.549 157.158C207.244 157.977 207.092 158.901 207.092 159.931C207.092 160.973 207.247 161.911 207.559 162.744C207.87 163.577 208.331 164.237 208.94 164.724C209.556 165.205 210.315 165.445 211.215 165.445ZM222.608 167.73V152.131H225.644V167.73H222.608ZM224.141 149.724C223.613 149.724 223.16 149.548 222.78 149.196C222.408 148.837 222.222 148.41 222.222 147.916C222.222 147.415 222.408 146.988 222.78 146.636C223.16 146.277 223.613 146.098 224.141 146.098C224.669 146.098 225.12 146.277 225.492 146.636C225.871 146.988 226.061 147.415 226.061 147.916C226.061 148.41 225.871 148.837 225.492 149.196C225.12 149.548 224.669 149.724 224.141 149.724ZM237.012 152.131V154.568H228.491V152.131H237.012ZM230.776 148.393H233.812V163.15C233.812 163.739 233.9 164.183 234.077 164.481C234.253 164.772 234.479 164.971 234.757 165.08C235.041 165.181 235.349 165.232 235.681 165.232C235.925 165.232 236.138 165.215 236.321 165.181C236.504 165.147 236.646 165.12 236.748 165.1L237.296 167.609C237.12 167.676 236.869 167.744 236.544 167.812C236.219 167.886 235.813 167.927 235.326 167.934C234.527 167.947 233.782 167.805 233.091 167.507C232.401 167.209 231.842 166.749 231.416 166.126C230.989 165.503 230.776 164.721 230.776 163.78V148.393ZM246.774 168.045C245.312 168.045 244.035 167.71 242.945 167.04C241.855 166.37 241.009 165.432 240.406 164.227C239.804 163.021 239.502 161.613 239.502 160.002C239.502 158.383 239.804 156.968 240.406 155.756C241.009 154.544 241.855 153.603 242.945 152.933C244.035 152.263 245.312 151.928 246.774 151.928C248.237 151.928 249.513 152.263 250.603 152.933C251.693 153.603 252.54 154.544 253.142 155.756C253.745 156.968 254.046 158.383 254.046 160.002C254.046 161.613 253.745 163.021 253.142 164.227C252.54 165.432 251.693 166.37 250.603 167.04C249.513 167.71 248.237 168.045 246.774 168.045ZM246.784 165.496C247.732 165.496 248.518 165.246 249.141 164.745C249.764 164.244 250.224 163.577 250.522 162.744C250.827 161.911 250.979 160.994 250.979 159.991C250.979 158.996 250.827 158.082 250.522 157.249C250.224 156.41 249.764 155.736 249.141 155.228C248.518 154.72 247.732 154.467 246.784 154.467C245.83 154.467 245.038 154.72 244.408 155.228C243.785 155.736 243.321 156.41 243.016 157.249C242.719 158.082 242.57 158.996 242.57 159.991C242.57 160.994 242.719 161.911 243.016 162.744C243.321 163.577 243.785 164.244 244.408 164.745C245.038 165.246 245.83 165.496 246.784 165.496ZM257.436 167.73V152.131H260.371V154.609H260.533C260.818 153.769 261.319 153.109 262.036 152.628C262.761 152.141 263.58 151.897 264.494 151.897C264.684 151.897 264.907 151.904 265.164 151.917C265.428 151.931 265.635 151.948 265.784 151.968V154.873C265.662 154.839 265.445 154.802 265.134 154.761C264.823 154.714 264.511 154.69 264.2 154.69C263.482 154.69 262.842 154.842 262.28 155.147C261.725 155.445 261.285 155.861 260.96 156.396C260.635 156.924 260.472 157.527 260.472 158.204V167.73H257.436ZM268.412 167.73V152.131H271.449V167.73H268.412ZM269.945 149.724C269.417 149.724 268.964 149.548 268.585 149.196C268.212 148.837 268.026 148.41 268.026 147.916C268.026 147.415 268.212 146.988 268.585 146.636C268.964 146.277 269.417 146.098 269.945 146.098C270.474 146.098 270.924 146.277 271.296 146.636C271.675 146.988 271.865 147.415 271.865 147.916C271.865 148.41 271.675 148.837 271.296 149.196C270.924 149.548 270.474 149.724 269.945 149.724ZM285.416 161.261V152.131H288.463V167.73H285.477V165.029H285.314C284.955 165.862 284.38 166.556 283.588 167.111C282.802 167.659 281.824 167.934 280.653 167.934C279.65 167.934 278.763 167.714 277.992 167.273C277.227 166.827 276.624 166.166 276.184 165.293C275.751 164.42 275.534 163.34 275.534 162.053V152.131H278.571V161.688C278.571 162.751 278.865 163.597 279.454 164.227C280.043 164.856 280.808 165.171 281.749 165.171C282.318 165.171 282.883 165.029 283.445 164.745C284.014 164.46 284.485 164.03 284.857 163.455C285.236 162.879 285.423 162.148 285.416 161.261ZM292.543 167.73V152.131H295.458V154.67H295.651C295.976 153.81 296.507 153.139 297.245 152.659C297.983 152.171 298.867 151.928 299.896 151.928C300.939 151.928 301.812 152.171 302.516 152.659C303.227 153.146 303.752 153.817 304.09 154.67H304.253C304.625 153.837 305.218 153.173 306.03 152.679C306.843 152.178 307.811 151.928 308.935 151.928C310.35 151.928 311.504 152.371 312.398 153.258C313.299 154.145 313.749 155.482 313.749 157.27V167.73H310.712V157.554C310.712 156.498 310.424 155.733 309.849 155.259C309.273 154.785 308.586 154.548 307.787 154.548C306.799 154.548 306.03 154.852 305.482 155.462C304.933 156.064 304.659 156.84 304.659 157.788V167.73H301.633V157.361C301.633 156.515 301.368 155.834 300.84 155.32C300.312 154.805 299.625 154.548 298.779 154.548C298.203 154.548 297.672 154.7 297.184 155.005C296.703 155.303 296.314 155.719 296.016 156.254C295.725 156.789 295.58 157.408 295.58 158.113V167.73H292.543ZM321.77 164.887L321.617 165.994C321.516 166.806 321.343 167.653 321.099 168.533C320.862 169.42 320.615 170.242 320.358 171.001C320.107 171.759 319.901 172.362 319.738 172.809H317.585C317.673 172.389 317.795 171.82 317.951 171.102C318.107 170.391 318.259 169.596 318.408 168.716C318.557 167.835 318.669 166.938 318.743 166.024L318.845 164.887H321.77ZM333.535 146.931H337.344L343.966 163.099H344.21L350.831 146.931H354.64V167.73H351.654V152.679H351.461L345.327 167.7H342.849L336.714 152.669H336.521V167.73H333.535V146.931ZM362.341 146.931V167.73H359.203V146.931H362.341ZM365.885 149.632V146.931H381.983V149.632H375.493V167.73H372.365V149.632H365.885ZM393.109 146.931H396.917L403.539 163.099H403.783L410.405 146.931H414.213V167.73H411.227V152.679H411.034L404.9 167.7H402.422L396.288 152.669H396.095V167.73H393.109V146.931ZM423.072 168.076C422.083 168.076 421.19 167.893 420.391 167.527C419.592 167.155 418.959 166.617 418.492 165.913C418.031 165.208 417.801 164.345 417.801 163.323C417.801 162.443 417.97 161.718 418.309 161.149C418.647 160.581 419.104 160.13 419.68 159.799C420.255 159.467 420.899 159.216 421.609 159.047C422.32 158.878 423.045 158.749 423.783 158.661C424.717 158.553 425.476 158.465 426.058 158.397C426.64 158.323 427.063 158.204 427.327 158.042C427.591 157.879 427.723 157.615 427.723 157.249V157.178C427.723 156.291 427.473 155.604 426.972 155.117C426.478 154.629 425.74 154.385 424.758 154.385C423.735 154.385 422.93 154.612 422.341 155.066C421.758 155.513 421.356 156.01 421.132 156.559L418.278 155.909C418.617 154.961 419.111 154.196 419.761 153.613C420.418 153.024 421.173 152.598 422.026 152.334C422.879 152.063 423.776 151.928 424.717 151.928C425.34 151.928 426 152.002 426.698 152.151C427.402 152.293 428.059 152.557 428.668 152.943C429.284 153.329 429.789 153.881 430.181 154.599C430.574 155.31 430.77 156.234 430.77 157.371V167.73H427.805V165.598H427.683C427.486 165.99 427.192 166.376 426.799 166.755C426.407 167.135 425.902 167.449 425.286 167.7C424.67 167.951 423.932 168.076 423.072 168.076ZM423.732 165.638C424.572 165.638 425.289 165.472 425.885 165.141C426.488 164.809 426.945 164.376 427.256 163.841C427.575 163.299 427.734 162.72 427.734 162.104V160.093C427.625 160.201 427.415 160.303 427.104 160.398C426.799 160.486 426.451 160.564 426.058 160.631C425.665 160.692 425.283 160.75 424.91 160.804C424.538 160.851 424.226 160.892 423.976 160.926C423.387 161 422.849 161.126 422.361 161.302C421.88 161.478 421.494 161.732 421.203 162.063C420.919 162.388 420.777 162.822 420.777 163.363C420.777 164.115 421.054 164.684 421.609 165.07C422.165 165.449 422.872 165.638 423.732 165.638ZM437.852 158.468V167.73H434.815V152.131H437.73V154.67H437.923C438.282 153.844 438.844 153.18 439.609 152.679C440.381 152.178 441.352 151.928 442.524 151.928C443.587 151.928 444.517 152.151 445.316 152.598C446.115 153.038 446.735 153.695 447.175 154.568C447.615 155.442 447.835 156.521 447.835 157.808V167.73H444.798V158.174C444.798 157.043 444.504 156.159 443.915 155.523C443.326 154.88 442.517 154.558 441.488 154.558C440.783 154.558 440.157 154.71 439.609 155.015C439.067 155.32 438.637 155.767 438.319 156.356C438.007 156.938 437.852 157.642 437.852 158.468ZM451.908 167.73V152.131H454.944V167.73H451.908ZM453.441 149.724C452.913 149.724 452.46 149.548 452.08 149.196C451.708 148.837 451.522 148.41 451.522 147.916C451.522 147.415 451.708 146.988 452.08 146.636C452.46 146.277 452.913 146.098 453.441 146.098C453.969 146.098 454.42 146.277 454.792 146.636C455.171 146.988 455.361 147.415 455.361 147.916C455.361 148.41 455.171 148.837 454.792 149.196C454.42 149.548 453.969 149.724 453.441 149.724ZM459.03 173.58V152.131H461.995V154.66H462.249C462.425 154.335 462.679 153.959 463.011 153.532C463.343 153.106 463.803 152.733 464.392 152.415C464.981 152.09 465.76 151.928 466.728 151.928C467.987 151.928 469.111 152.246 470.1 152.882C471.088 153.519 471.864 154.436 472.426 155.635C472.994 156.833 473.279 158.275 473.279 159.961C473.279 161.647 472.998 163.093 472.436 164.298C471.874 165.496 471.102 166.42 470.12 167.07C469.138 167.714 468.018 168.035 466.759 168.035C465.811 168.035 465.035 167.876 464.433 167.558C463.837 167.24 463.37 166.867 463.031 166.441C462.693 166.014 462.432 165.635 462.249 165.303H462.066V173.58H459.03ZM462.006 159.931C462.006 161.027 462.165 161.989 462.483 162.815C462.801 163.641 463.261 164.288 463.864 164.755C464.467 165.215 465.205 165.445 466.078 165.445C466.985 165.445 467.744 165.205 468.353 164.724C468.962 164.237 469.423 163.577 469.734 162.744C470.053 161.911 470.212 160.973 470.212 159.931C470.212 158.901 470.056 157.977 469.744 157.158C469.44 156.339 468.979 155.692 468.363 155.218C467.754 154.744 466.992 154.507 466.078 154.507C465.198 154.507 464.453 154.734 463.844 155.188C463.241 155.641 462.784 156.274 462.473 157.087C462.161 157.899 462.006 158.847 462.006 159.931ZM481.221 168.076C480.232 168.076 479.339 167.893 478.54 167.527C477.741 167.155 477.108 166.617 476.64 165.913C476.18 165.208 475.95 164.345 475.95 163.323C475.95 162.443 476.119 161.718 476.458 161.149C476.796 160.581 477.253 160.13 477.829 159.799C478.404 159.467 479.048 159.216 479.758 159.047C480.469 158.878 481.194 158.749 481.932 158.661C482.866 158.553 483.625 158.465 484.207 158.397C484.789 158.323 485.212 158.204 485.476 158.042C485.74 157.879 485.872 157.615 485.872 157.249V157.178C485.872 156.291 485.622 155.604 485.121 155.117C484.627 154.629 483.889 154.385 482.907 154.385C481.884 154.385 481.079 154.612 480.49 155.066C479.907 155.513 479.505 156.01 479.281 156.559L476.427 155.909C476.766 154.961 477.26 154.196 477.91 153.613C478.567 153.024 479.322 152.598 480.175 152.334C481.028 152.063 481.925 151.928 482.866 151.928C483.489 151.928 484.149 152.002 484.847 152.151C485.551 152.293 486.208 152.557 486.817 152.943C487.433 153.329 487.938 153.881 488.33 154.599C488.723 155.31 488.919 156.234 488.919 157.371V167.73H485.954V165.598H485.832C485.635 165.99 485.341 166.376 484.948 166.755C484.556 167.135 484.051 167.449 483.435 167.7C482.819 167.951 482.081 168.076 481.221 168.076ZM481.881 165.638C482.721 165.638 483.438 165.472 484.034 165.141C484.637 164.809 485.094 164.376 485.405 163.841C485.723 163.299 485.883 162.72 485.883 162.104V160.093C485.774 160.201 485.564 160.303 485.253 160.398C484.948 160.486 484.6 160.564 484.207 160.631C483.814 160.692 483.432 160.75 483.059 160.804C482.687 160.851 482.375 160.892 482.125 160.926C481.536 161 480.997 161.126 480.51 161.302C480.029 161.478 479.643 161.732 479.352 162.063C479.068 162.388 478.926 162.822 478.926 163.363C478.926 164.115 479.203 164.684 479.758 165.07C480.314 165.449 481.021 165.638 481.881 165.638ZM496.001 146.931V167.73H492.964V146.931H496.001Z" fill="white"/>
</g>
<g filter="url(#filter4_d_37_1506)">
<path d="M63.3824 205.094V202.393H79.4799V205.094H72.9901V223.192H69.862V205.094H63.3824ZM87.2544 223.507C85.7174 223.507 84.3938 223.179 83.2833 222.522C82.1797 221.859 81.3266 220.928 80.724 219.729C80.1282 218.524 79.8303 217.112 79.8303 215.494C79.8303 213.896 80.1282 212.488 80.724 211.269C81.3266 210.05 82.1662 209.099 83.2427 208.415C84.326 207.731 85.5922 207.389 87.0411 207.389C87.9213 207.389 88.7744 207.535 89.6005 207.826C90.4265 208.117 91.1679 208.574 91.8247 209.197C92.4814 209.82 92.9994 210.629 93.3785 211.625C93.7577 212.613 93.9473 213.815 93.9473 215.23V216.307H81.5466V214.032H90.9715C90.9715 213.233 90.809 212.525 90.484 211.909C90.159 211.286 89.702 210.795 89.113 210.436C88.5307 210.077 87.8468 209.898 87.0614 209.898C86.2083 209.898 85.4635 210.108 84.8271 210.528C84.1974 210.941 83.7099 211.482 83.3646 212.153C83.0261 212.816 82.8568 213.537 82.8568 214.316V216.093C82.8568 217.136 83.0396 218.023 83.4052 218.754C83.7776 219.485 84.2956 220.044 84.9591 220.43C85.6226 220.809 86.3979 220.999 87.2849 220.999C87.8604 220.999 88.3851 220.917 88.8591 220.755C89.333 220.586 89.7426 220.335 90.088 220.003C90.4333 219.672 90.6973 219.262 90.8801 218.774L93.7543 219.292C93.5241 220.139 93.1111 220.88 92.5153 221.517C91.9262 222.146 91.1848 222.637 90.2911 222.989C89.4041 223.335 88.3919 223.507 87.2544 223.507ZM101.856 223.538C100.868 223.538 99.9741 223.355 99.1752 222.989C98.3762 222.617 97.7431 222.079 97.276 221.374C96.8155 220.67 96.5853 219.807 96.5853 218.785C96.5853 217.904 96.7546 217.18 97.0931 216.611C97.4317 216.042 97.8887 215.592 98.4642 215.26C99.0397 214.929 99.683 214.678 100.394 214.509C101.105 214.34 101.829 214.211 102.567 214.123C103.502 214.015 104.26 213.927 104.842 213.859C105.425 213.784 105.848 213.666 106.112 213.503C106.376 213.341 106.508 213.077 106.508 212.711V212.64C106.508 211.753 106.257 211.066 105.756 210.578C105.262 210.091 104.524 209.847 103.542 209.847C102.52 209.847 101.714 210.074 101.125 210.528C100.543 210.975 100.14 211.472 99.9166 212.021L97.0627 211.371C97.4012 210.423 97.8955 209.658 98.5455 209.075C99.2022 208.486 99.9572 208.06 100.81 207.796C101.663 207.525 102.561 207.389 103.502 207.389C104.125 207.389 104.785 207.464 105.482 207.613C106.186 207.755 106.843 208.019 107.452 208.405C108.069 208.791 108.573 209.343 108.966 210.061C109.358 210.771 109.555 211.696 109.555 212.833V223.192H106.589V221.06H106.467C106.271 221.452 105.976 221.838 105.584 222.217C105.191 222.597 104.687 222.911 104.07 223.162C103.454 223.412 102.716 223.538 101.856 223.538ZM102.517 221.1C103.356 221.1 104.074 220.934 104.67 220.603C105.272 220.271 105.729 219.837 106.041 219.303C106.359 218.761 106.518 218.182 106.518 217.566V215.555C106.41 215.663 106.2 215.765 105.888 215.86C105.584 215.948 105.235 216.026 104.842 216.093C104.45 216.154 104.067 216.212 103.695 216.266C103.322 216.313 103.011 216.354 102.76 216.388C102.171 216.462 101.633 216.588 101.145 216.764C100.665 216.94 100.279 217.193 99.9876 217.525C99.7033 217.85 99.5611 218.284 99.5611 218.825C99.5611 219.577 99.8387 220.146 100.394 220.531C100.949 220.911 101.657 221.1 102.517 221.1ZM113.599 223.192V207.593H116.514V210.132H116.707C117.032 209.272 117.564 208.601 118.302 208.121C119.04 207.633 119.923 207.389 120.952 207.389C121.995 207.389 122.869 207.633 123.573 208.121C124.284 208.608 124.808 209.278 125.147 210.132H125.309C125.682 209.299 126.274 208.635 127.087 208.141C127.899 207.64 128.867 207.389 129.991 207.389C131.406 207.389 132.561 207.833 133.455 208.72C134.355 209.607 134.805 210.944 134.805 212.732V223.192H131.769V213.016C131.769 211.96 131.481 211.195 130.905 210.721C130.33 210.247 129.643 210.01 128.844 210.01C127.855 210.01 127.087 210.314 126.538 210.924C125.99 211.526 125.716 212.302 125.716 213.25V223.192H122.689V212.823C122.689 211.977 122.425 211.296 121.897 210.782C121.369 210.267 120.682 210.01 119.835 210.01C119.26 210.01 118.728 210.162 118.241 210.467C117.76 210.765 117.371 211.181 117.073 211.716C116.782 212.251 116.636 212.87 116.636 213.575V223.192H113.599ZM158.032 207.857C157.924 206.895 157.477 206.15 156.692 205.622C155.906 205.087 154.918 204.82 153.726 204.82C152.873 204.82 152.135 204.955 151.512 205.226C150.889 205.49 150.405 205.856 150.06 206.323C149.721 206.783 149.552 207.308 149.552 207.897C149.552 208.392 149.667 208.818 149.897 209.177C150.134 209.536 150.442 209.837 150.822 210.081C151.208 210.318 151.621 210.518 152.061 210.68C152.501 210.836 152.924 210.964 153.33 211.066L155.361 211.594C156.025 211.757 156.705 211.977 157.403 212.254C158.1 212.532 158.747 212.897 159.343 213.351C159.938 213.805 160.419 214.367 160.785 215.037C161.157 215.707 161.343 216.51 161.343 217.444C161.343 218.622 161.039 219.668 160.429 220.582C159.827 221.496 158.95 222.217 157.799 222.746C156.655 223.274 155.27 223.538 153.645 223.538C152.088 223.538 150.74 223.291 149.603 222.796C148.465 222.302 147.575 221.601 146.932 220.694C146.289 219.78 145.933 218.697 145.865 217.444H149.014C149.075 218.196 149.319 218.822 149.745 219.323C150.178 219.817 150.73 220.186 151.401 220.43C152.078 220.667 152.819 220.785 153.625 220.785C154.512 220.785 155.3 220.647 155.991 220.369C156.688 220.085 157.237 219.692 157.636 219.191C158.036 218.683 158.236 218.091 158.236 217.414C158.236 216.797 158.06 216.293 157.707 215.9C157.362 215.508 156.892 215.183 156.296 214.925C155.707 214.668 155.04 214.441 154.295 214.245L151.837 213.575C150.172 213.121 148.851 212.454 147.876 211.574C146.908 210.694 146.424 209.529 146.424 208.08C146.424 206.882 146.749 205.836 147.399 204.942C148.049 204.048 148.929 203.354 150.04 202.86C151.15 202.359 152.403 202.108 153.797 202.108C155.206 202.108 156.448 202.355 157.525 202.85C158.608 203.344 159.461 204.024 160.084 204.891C160.707 205.751 161.032 206.739 161.059 207.857H158.032ZM164.85 223.192V207.593H167.886V223.192H164.85ZM166.383 205.186C165.855 205.186 165.402 205.01 165.022 204.657C164.65 204.299 164.464 203.872 164.464 203.378C164.464 202.877 164.65 202.45 165.022 202.098C165.402 201.739 165.855 201.56 166.383 201.56C166.911 201.56 167.362 201.739 167.734 202.098C168.113 202.45 168.303 202.877 168.303 203.378C168.303 203.872 168.113 204.299 167.734 204.657C167.362 205.01 166.911 205.186 166.383 205.186ZM171.647 223.192V221.11L180.097 210.375V210.233H171.921V207.593H183.885V209.807L175.76 220.41V220.552H184.169V223.192H171.647ZM194.028 223.507C192.491 223.507 191.168 223.179 190.057 222.522C188.954 221.859 188.101 220.928 187.498 219.729C186.902 218.524 186.604 217.112 186.604 215.494C186.604 213.896 186.902 212.488 187.498 211.269C188.101 210.05 188.94 209.099 190.017 208.415C191.1 207.731 192.366 207.389 193.815 207.389C194.695 207.389 195.548 207.535 196.374 207.826C197.2 208.117 197.942 208.574 198.599 209.197C199.255 209.82 199.773 210.629 200.152 211.625C200.532 212.613 200.721 213.815 200.721 215.23V216.307H188.321V214.032H197.745C197.745 213.233 197.583 212.525 197.258 211.909C196.933 211.286 196.476 210.795 195.887 210.436C195.305 210.077 194.621 209.898 193.835 209.898C192.982 209.898 192.237 210.108 191.601 210.528C190.971 210.941 190.484 211.482 190.139 212.153C189.8 212.816 189.631 213.537 189.631 214.316V216.093C189.631 217.136 189.814 218.023 190.179 218.754C190.552 219.485 191.07 220.044 191.733 220.43C192.397 220.809 193.172 220.999 194.059 220.999C194.634 220.999 195.159 220.917 195.633 220.755C196.107 220.586 196.517 220.335 196.862 220.003C197.207 219.672 197.471 219.262 197.654 218.774L200.528 219.292C200.298 220.139 199.885 220.88 199.289 221.517C198.7 222.146 197.959 222.637 197.065 222.989C196.178 223.335 195.166 223.507 194.028 223.507ZM213.66 220.613C213.105 220.613 212.628 220.416 212.228 220.024C211.829 219.624 211.629 219.143 211.629 218.581C211.629 218.026 211.829 217.552 212.228 217.16C212.628 216.76 213.105 216.56 213.66 216.56C214.215 216.56 214.693 216.76 215.092 217.16C215.492 217.552 215.691 218.026 215.691 218.581C215.691 218.954 215.597 219.296 215.407 219.607C215.224 219.912 214.98 220.156 214.676 220.339C214.371 220.521 214.033 220.613 213.66 220.613ZM213.66 210.193C213.105 210.193 212.628 209.996 212.228 209.603C211.829 209.204 211.629 208.723 211.629 208.161C211.629 207.606 211.829 207.132 212.228 206.739C212.628 206.34 213.105 206.14 213.66 206.14C214.215 206.14 214.693 206.34 215.092 206.739C215.492 207.132 215.691 207.606 215.691 208.161C215.691 208.534 215.597 208.876 215.407 209.187C215.224 209.492 214.98 209.736 214.676 209.918C214.371 210.101 214.033 210.193 213.66 210.193ZM227.287 223.192V220.917L234.325 213.625C235.077 212.833 235.696 212.139 236.184 211.543C236.678 210.941 237.047 210.369 237.291 209.827C237.535 209.285 237.657 208.71 237.657 208.1C237.657 207.41 237.494 206.814 237.169 206.313C236.844 205.805 236.401 205.416 235.839 205.145C235.277 204.867 234.644 204.729 233.939 204.729C233.195 204.729 232.545 204.881 231.989 205.186C231.434 205.49 231.008 205.92 230.71 206.475C230.412 207.031 230.263 207.681 230.263 208.425H227.267C227.267 207.159 227.558 206.052 228.14 205.104C228.723 204.156 229.521 203.422 230.537 202.9C231.553 202.372 232.707 202.108 234 202.108C235.307 202.108 236.458 202.369 237.453 202.89C238.455 203.405 239.238 204.109 239.799 205.003C240.361 205.89 240.642 206.892 240.642 208.009C240.642 208.781 240.497 209.536 240.206 210.274C239.921 211.012 239.424 211.834 238.713 212.742C238.002 213.642 237.013 214.736 235.747 216.022L231.614 220.349V220.501H240.978V223.192H227.287ZM254.059 211.472V214.113H244.837V211.472H254.059ZM257.629 219.13V216.591L266.617 202.393H268.618V206.13H267.348L260.919 216.307V216.469H273.239V219.13H257.629ZM267.49 223.192V218.358L267.511 217.2V202.393H270.486V223.192H267.49Z" fill="white"/>
</g>
<g filter="url(#filter5_d_37_1506)">
<path d="M27.9565 154.86C26.9689 154.86 26.0217 154.434 25.3233 153.677C24.6249 152.919 24.2326 151.891 24.2326 150.819C24.2326 149.748 24.6249 148.72 25.3233 147.962C26.0217 147.204 26.9689 146.779 27.9565 146.779C28.9441 146.779 29.8913 147.204 30.5897 147.962C31.2881 148.72 31.6804 149.748 31.6804 150.819C31.6804 151.35 31.5841 151.875 31.397 152.366C31.2098 152.856 30.9355 153.301 30.5897 153.677C30.2439 154.052 29.8334 154.349 29.3816 154.552C28.9298 154.756 28.4455 154.86 27.9565 154.86ZM27.9565 139.505C25.1911 139.505 22.539 140.697 20.5835 142.819C18.6281 144.941 17.5295 147.819 17.5295 150.819C17.5295 159.305 27.9565 171.831 27.9565 171.831C27.9565 171.831 38.3835 159.305 38.3835 150.819C38.3835 147.819 37.2849 144.941 35.3295 142.819C33.374 140.697 30.7219 139.505 27.9565 139.505Z" fill="#D3DCE6"/>
</g>
<g filter="url(#filter6_d_37_1506)">
<path d="M28.1299 80.5278C26.2918 80.5278 24.4717 80.929 22.7734 81.7085C21.0752 82.488 19.5322 83.6306 18.2325 85.0709C15.6075 87.9797 14.1328 91.925 14.1328 96.0387C14.1328 100.152 15.6075 104.098 18.2325 107.007C19.5322 108.447 21.0752 109.589 22.7734 110.369C24.4717 111.148 26.2918 111.55 28.1299 111.55C31.8422 111.55 35.4024 109.915 38.0273 107.007C40.6523 104.098 42.127 100.152 42.127 96.0387C42.127 94.0018 41.7649 91.9848 41.0615 90.103C40.3581 88.2211 39.3271 86.5112 38.0273 85.0709C36.7276 83.6306 35.1846 82.488 33.4864 81.7085C31.7882 80.929 29.968 80.5278 28.1299 80.5278ZM34.0087 102.553L26.7302 97.5898V88.2833H28.8298V96.349L35.1284 100.537L34.0087 102.553Z" fill="#D3DCE6"/>
</g>
<g filter="url(#filter7_d_37_1506)">
<path d="M32.2262 208.577C33.4016 208.577 34.3555 209.531 34.3555 210.706V218.918C34.3555 220.693 33.6503 222.396 32.3951 223.651C31.1398 224.906 29.4373 225.611 27.6621 225.611C25.8869 225.611 24.1844 224.906 22.9292 223.651C21.6739 222.396 20.9687 220.693 20.9687 218.918V210.706C20.9687 209.531 21.9215 208.577 23.0981 208.577H32.2262ZM15.1867 208.577L20.5185 208.574C20.0801 209.103 19.8161 209.754 19.7629 210.438L19.7508 210.706V218.918C19.7508 220.297 20.1048 221.594 20.7242 222.723C19.8906 223.087 18.9795 223.237 18.0733 223.16C17.167 223.084 16.2941 222.783 15.5333 222.285C14.7725 221.786 14.1478 221.106 13.7155 220.306C13.2832 219.506 13.0571 218.611 13.0574 217.701V210.706C13.058 210.141 13.2827 209.6 13.6822 209.201C14.0816 208.802 14.622 208.577 15.1867 208.577ZM34.8069 208.574L40.1302 208.577C41.3056 208.577 42.2596 209.531 42.2596 210.706V217.703C42.2599 218.612 42.0339 219.507 41.602 220.306C41.17 221.106 40.5456 221.786 39.7852 222.284C39.0248 222.783 38.1523 223.084 37.2464 223.161C36.3406 223.237 35.4298 223.087 34.5964 222.724L34.6646 222.6C35.1866 221.611 35.5041 220.496 35.5625 219.315L35.5723 218.918V210.706C35.5723 209.896 35.2851 209.154 34.8069 208.574ZM27.6585 198.843C28.2177 198.843 28.7715 198.953 29.2882 199.167C29.8049 199.381 30.2743 199.695 30.6698 200.09C31.0653 200.486 31.3789 200.955 31.593 201.472C31.807 201.988 31.9171 202.542 31.9171 203.101C31.9171 203.661 31.807 204.214 31.593 204.731C31.3789 205.248 31.0653 205.717 30.6698 206.113C30.2743 206.508 29.8049 206.822 29.2882 207.036C28.7715 207.25 28.2177 207.36 27.6585 207.36C26.529 207.36 25.4458 206.911 24.6472 206.113C23.8485 205.314 23.3998 204.231 23.3998 203.101C23.3998 201.972 23.8485 200.889 24.6472 200.09C25.4458 199.291 26.529 198.843 27.6585 198.843ZM37.3962 200.06C37.8756 200.06 38.3502 200.154 38.7931 200.337C39.236 200.521 39.6384 200.79 39.9773 201.129C40.3163 201.468 40.5852 201.87 40.7686 202.313C40.9521 202.756 41.0465 203.23 41.0465 203.71C41.0465 204.189 40.9521 204.664 40.7686 205.107C40.5852 205.55 40.3163 205.952 39.9773 206.291C39.6384 206.63 39.236 206.899 38.7931 207.082C38.3502 207.266 37.8756 207.36 37.3962 207.36C36.4281 207.36 35.4996 206.976 34.8151 206.291C34.1305 205.606 33.7459 204.678 33.7459 203.71C33.7459 202.742 34.1305 201.813 34.8151 201.129C35.4996 200.444 36.4281 200.06 37.3962 200.06ZM17.9208 200.06C18.4001 200.06 18.8748 200.154 19.3177 200.337C19.7605 200.521 20.1629 200.79 20.5019 201.129C20.8409 201.468 21.1097 201.87 21.2932 202.313C21.4766 202.756 21.571 203.23 21.571 203.71C21.571 204.189 21.4766 204.664 21.2932 205.107C21.1097 205.55 20.8409 205.952 20.5019 206.291C20.1629 206.63 19.7605 206.899 19.3177 207.082C18.8748 207.266 18.4001 207.36 17.9208 207.36C16.9526 207.36 16.0242 206.976 15.3396 206.291C14.6551 205.606 14.2705 204.678 14.2705 203.71C14.2705 202.742 14.6551 201.813 15.3396 201.129C16.0242 200.444 16.9526 200.06 17.9208 200.06Z" fill="#D3DCE6"/>
</g>
<defs>
<filter id="filter0_d_37_1506" x="45.2411" y="4.28843" width="271.802" height="56.7254" filterUnits="userSpaceOnUse" color-interpolation-filters="sRGB">
<feFlood flood-opacity="0" result="BackgroundImageFix"/>
<feColorMatrix in="SourceAlpha" type="matrix" values="0 0 0 0 0 0 0 0 0 0 0 0 0 0 0 0 0 0 127 0" result="hardAlpha"/>
<feOffset dy="2.38331"/>
<feGaussianBlur stdDeviation="7.44783"/>
<feComposite in2="hardAlpha" operator="out"/>
<feColorMatrix type="matrix" values="0 0 0 0 1 0 0 0 0 1 0 0 0 0 1 0 0 0 0.27 0"/>
<feBlend mode="normal" in2="BackgroundImageFix" result="effect1_dropShadow_37_1506"/>
<feBlend mode="normal" in="SourceGraphic" in2="effect1_dropShadow_37_1506" result="shape"/>
</filter>
<filter id="filter1_d_37_1506" x="0.933544" y="0.79481" width="53.9242" height="64.4093" filterUnits="userSpaceOnUse" color-interpolation-filters="sRGB">
<feFlood flood-opacity="0" result="BackgroundImageFix"/>
<feColorMatrix in="SourceAlpha" type="matrix" values="0 0 0 0 0 0 0 0 0 0 0 0 0 0 0 0 0 0 127 0" result="hardAlpha"/>
<feOffset dy="3.86127"/>
<feGaussianBlur stdDeviation="6.03323"/>
<feComposite in2="hardAlpha" operator="out"/>
<feColorMatrix type="matrix" values="0 0 0 0 0 0 0 0 0 0.439216 0 0 0 0 0.941176 0 0 0 1 0"/>
<feBlend mode="normal" in2="BackgroundImageFix" result="effect1_dropShadow_37_1506"/>
<feBlend mode="normal" in="SourceGraphic" in2="effect1_dropShadow_37_1506" result="shape"/>
</filter>
<filter id="filter2_d_37_1506" x="35.6315" y="58.1676" width="180.705" height="78.4754" filterUnits="userSpaceOnUse" color-interpolation-filters="sRGB">
<feFlood flood-opacity="0" result="BackgroundImageFix"/>
<feColorMatrix in="SourceAlpha" type="matrix" values="0 0 0 0 0 0 0 0 0 0 0 0 0 0 0 0 0 0 127 0" result="hardAlpha"/>
<feOffset dy="3.16923"/>
<feGaussianBlur stdDeviation="14.2615"/>
<feComposite in2="hardAlpha" operator="out"/>
<feColorMatrix type="matrix" values="0 0 0 0 0.939297 0 0 0 0 0.860998 0 0 0 0 0.860998 0 0 0 0.57 0"/>
<feBlend mode="normal" in2="BackgroundImageFix" result="effect1_dropShadow_37_1506"/>
<feBlend mode="normal" in="SourceGraphic" in2="effect1_dropShadow_37_1506" result="shape"/>
</filter>
<filter id="filter3_d_37_1506" x="45.3928" y="130.252" width="469.623" height="65.5132" filterUnits="userSpaceOnUse" color-interpolation-filters="sRGB">
<feFlood flood-opacity="0" result="BackgroundImageFix"/>
<feColorMatrix in="SourceAlpha" type="matrix" values="0 0 0 0 0 0 0 0 0 0 0 0 0 0 0 0 0 0 127 0" result="hardAlpha"/>
<feOffset dy="3.16923"/>
<feGaussianBlur stdDeviation="9.50769"/>
<feComposite in2="hardAlpha" operator="out"/>
<feColorMatrix type="matrix" values="0 0 0 0 0.949297 0 0 0 0 0.912067 0 0 0 0 0.912067 0 0 0 0.35 0"/>
<feBlend mode="normal" in2="BackgroundImageFix" result="effect1_dropShadow_37_1506"/>
<feBlend mode="normal" in="SourceGraphic" in2="effect1_dropShadow_37_1506" result="shape"/>
</filter>
<filter id="filter4_d_37_1506" x="44.3669" y="185.714" width="247.887" height="60.0083" filterUnits="userSpaceOnUse" color-interpolation-filters="sRGB">
<feFlood flood-opacity="0" result="BackgroundImageFix"/>
<feColorMatrix in="SourceAlpha" type="matrix" values="0 0 0 0 0 0 0 0 0 0 0 0 0 0 0 0 0 0 127 0" result="hardAlpha"/>
<feOffset dy="3.16923"/>
<feGaussianBlur stdDeviation="9.50769"/>
<feComposite in2="hardAlpha" operator="out"/>
<feColorMatrix type="matrix" values="0 0 0 0 0.949297 0 0 0 0 0.912067 0 0 0 0 0.912067 0 0 0 0.35 0"/>
<feBlend mode="normal" in2="BackgroundImageFix" result="effect1_dropShadow_37_1506"/>
<feBlend mode="normal" in="SourceGraphic" in2="effect1_dropShadow_37_1506" result="shape"/>
</filter>
<filter id="filter5_d_37_1506" x="5.46309" y="131.3" width="44.9869" height="56.4586" filterUnits="userSpaceOnUse" color-interpolation-filters="sRGB">
<feFlood flood-opacity="0" result="BackgroundImageFix"/>
<feColorMatrix in="SourceAlpha" type="matrix" values="0 0 0 0 0 0 0 0 0 0 0 0 0 0 0 0 0 0 127 0" result="hardAlpha"/>
<feOffset dy="3.86127"/>
<feGaussianBlur stdDeviation="6.03323"/>
<feComposite in2="hardAlpha" operator="out"/>
<feColorMatrix type="matrix" values="0 0 0 0 0 0 0 0 0 0.439216 0 0 0 0 0.941176 0 0 0 0.62 0"/>
<feBlend mode="normal" in2="BackgroundImageFix" result="effect1_dropShadow_37_1506"/>
<feBlend mode="normal" in="SourceGraphic" in2="effect1_dropShadow_37_1506" result="shape"/>
</filter>
<filter id="filter6_d_37_1506" x="2.06636" y="72.3226" width="52.1271" height="55.1549" filterUnits="userSpaceOnUse" color-interpolation-filters="sRGB">
<feFlood flood-opacity="0" result="BackgroundImageFix"/>
<feColorMatrix in="SourceAlpha" type="matrix" values="0 0 0 0 0 0 0 0 0 0 0 0 0 0 0 0 0 0 127 0" result="hardAlpha"/>
<feOffset dy="3.86127"/>
<feGaussianBlur stdDeviation="6.03323"/>
<feComposite in2="hardAlpha" operator="out"/>
<feColorMatrix type="matrix" values="0 0 0 0 0 0 0 0 0 0.439216 0 0 0 0 0.941176 0 0 0 0.62 0"/>
<feBlend mode="normal" in2="BackgroundImageFix" result="effect1_dropShadow_37_1506"/>
<feBlend mode="normal" in="SourceGraphic" in2="effect1_dropShadow_37_1506" result="shape"/>
</filter>
<filter id="filter7_d_37_1506" x="0.990527" y="190.634" width="53.3358" height="50.9022" filterUnits="userSpaceOnUse" color-interpolation-filters="sRGB">
<feFlood flood-opacity="0" result="BackgroundImageFix"/>
<feColorMatrix in="SourceAlpha" type="matrix" values="0 0 0 0 0 0 0 0 0 0 0 0 0 0 0 0 0 0 127 0" result="hardAlpha"/>
<feOffset dy="3.85854"/>
<feGaussianBlur stdDeviation="6.03342"/>
<feComposite in2="hardAlpha" operator="out"/>
<feColorMatrix type="matrix" values="0 0 0 0 0 0 0 0 0 0.439216 0 0 0 0 0.941176 0 0 0 0.67 0"/>
<feBlend mode="normal" in2="BackgroundImageFix" result="effect1_dropShadow_37_1506"/>
<feBlend mode="normal" in="SourceGraphic" in2="effect1_dropShadow_37_1506" result="shape"/>
</filter>
</defs>
</svg>
