<svg width="533" height="128" viewBox="0 0 533 128" fill="none" xmlns="http://www.w3.org/2000/svg">
<g style="mix-blend-mode:hard-light" filter="url(#filter0_d_128_376)">
<path d="M94.3962 88.3606L92.6198 112H16.0993V110.36C16.0993 110.36 24.5712 110.77 24.5712 100.249V28.374C24.5712 18.399 16.0993 18.2624 16.0993 18.2624V16.3494H89.477L90.0236 38.349H88.2472C87.7006 27.1442 85.1044 21.9518 78.8188 20.8586C77.1791 20.5853 74.9928 20.4487 72.1232 20.4487H49.577V60.7586H69.8003C76.7691 60.7586 81.5517 58.5723 82.3715 48.324H83.8746C83.328 58.4357 83.328 68.5473 83.738 78.6589H82.2349C81.1417 68.274 77.3157 65.6778 69.8003 65.6778H49.577V95.876C49.577 99.7021 49.8503 102.435 50.2602 103.938C50.6702 105.578 51.6267 106.534 52.9931 107.081C54.4962 107.627 56.8191 107.901 60.2352 107.901H76.3592C85.7876 107.901 91.1167 100.522 92.3465 88.3606H94.3962ZM144.409 112L110.111 36.8459C106.012 27.6908 102.049 17.4425 95.7637 17.9891V16.3494H142.086V18.1257C133.341 19.2189 131.974 24.548 137.85 37.5292L156.434 79.6154C162.446 64.3113 168.322 51.6035 174.061 36.1627C178.296 25.0946 177.203 18.2624 169.415 17.9891V16.3494H193.874V17.9891C187.588 17.9891 183.079 27.4175 179.663 35.8894L149.055 112H144.409ZM276.276 88.3606L274.5 112H197.98V110.36C197.98 110.36 206.452 110.77 206.452 100.249V28.374C206.452 18.399 197.98 18.2624 197.98 18.2624V16.3494H271.357L271.904 38.349H270.127C269.581 27.1442 266.985 21.9518 260.699 20.8586C259.059 20.5853 256.873 20.4487 254.004 20.4487H231.457V60.7586H251.681C258.649 60.7586 263.432 58.5723 264.252 48.324H265.755C265.208 58.4357 265.208 68.5473 265.618 78.6589H264.115C263.022 68.274 259.196 65.6778 251.681 65.6778H231.457V95.876C231.457 99.7021 231.731 102.435 232.141 103.938C232.55 105.578 233.507 106.534 234.873 107.081C236.376 107.627 238.699 107.901 242.116 107.901H258.239C267.668 107.901 272.997 100.522 274.227 88.3606H276.276ZM304.464 110.224V112H281.781V110.36C281.781 110.36 290.253 108.857 290.253 101.069V31.1069C290.253 18.6723 281.781 18.1257 281.781 18.1257V16.3494H315.395L352.972 78.3856V31.1069C352.972 17.3059 344.773 18.1257 344.773 18.1257V16.3494H366.226V18.2624C364.997 18.2624 357.755 19.2189 357.755 31.1069V112H343.544L295.035 33.9764V98.4723C295.035 110.36 304.464 110.224 304.464 110.224ZM395.595 21.9518L385.21 21.8151C370.589 21.6785 370.043 41.7651 369.223 41.7651H367.583L369.496 16.3494H447.383L449.16 42.4483H447.52C447.52 42.4483 446.427 21.9518 432.762 21.9518H420.601V97.6524C420.601 110.224 431.396 110.224 431.396 110.224V112H384.937V110.224C384.937 110.224 395.595 109.404 395.595 97.6524V21.9518ZM485.846 112H459.611L456.468 83.5781H457.971C462.344 104.075 471.909 108.174 480.381 108.037C487.349 108.037 493.225 102.298 493.225 94.0997C493.225 85.3545 482.43 79.2055 477.374 75.1062C472.455 71.0069 468.766 67.8641 466.306 65.6778C459.337 59.2555 456.058 51.0569 455.921 43.1316C455.648 25.6412 468.766 16.0761 485.436 16.3494C492.542 16.486 496.231 17.8525 502.244 21.5418C505.933 23.8648 507.436 16.2127 507.436 16.2127H508.256L509.759 42.585H508.802C504.976 26.0511 495.821 20.0388 488.443 20.1754C482.294 20.4487 477.374 24.8213 477.374 31.1069C477.374 39.8521 488.443 45.7278 493.635 49.5538C497.734 52.4233 501.287 55.1562 504.293 57.7524C512.628 65.2678 516.728 74.423 516.864 82.8949C517.274 98.3356 505.66 112 485.846 112Z" fill="#B1D3F9"/>
</g>
<defs>
<filter id="filter0_d_128_376" x="0.402969" y="0.379715" width="532.568" height="127.317" filterUnits="userSpaceOnUse" color-interpolation-filters="sRGB">
<feFlood flood-opacity="0" result="BackgroundImageFix"/>
<feColorMatrix in="SourceAlpha" type="matrix" values="0 0 0 0 0 0 0 0 0 0 0 0 0 0 0 0 0 0 127 0" result="hardAlpha"/>
<feOffset/>
<feGaussianBlur stdDeviation="7.8482"/>
<feComposite in2="hardAlpha" operator="out"/>
<feColorMatrix type="matrix" values="0 0 0 0 0.694118 0 0 0 0 0.827451 0 0 0 0 0.976471 0 0 0 0.58 0"/>
<feBlend mode="normal" in2="BackgroundImageFix" result="effect1_dropShadow_128_376"/>
<feBlend mode="normal" in="SourceGraphic" in2="effect1_dropShadow_128_376" result="shape"/>
</filter>
</defs>
</svg>
