<svg width="384" height="46" viewBox="0 0 384 46" fill="none" xmlns="http://www.w3.org/2000/svg">
<path d="M10.0602 45H0.737209V44.2472C0.737209 44.2472 4.44326 44.3051 4.44326 39.9621L4.50116 9.56093C4.50116 5.50744 1.49 5.2179 1.49 5.2179V4.46511H14.6349L15.793 8.11325L22.1049 27.6858L29.1116 8.28698L30.4435 4.46511H42.9514V5.2179C42.9514 5.2179 39.9402 6.0286 39.9402 10.7191L40.0561 38.746C40.0561 43.9577 43.9937 44.2472 43.9937 44.2472V45H26.6216V44.2472C26.6216 44.2472 29.7486 43.9577 29.7486 38.746L29.6328 12.8037L18.0514 45.2316L17.4144 45.1737L6.41209 12.8037L6.52791 39.9621C6.52791 44.5367 10.0602 43.8419 10.0602 44.2472V45ZM69.7822 36.0244L70.5929 36.6035C68.5662 39.9621 66.0183 42.2784 62.428 43.0891C61.3278 43.4365 59.6485 43.5523 58.4325 43.5523C53.1629 43.5523 49.3411 40.8307 47.4301 35.9665C43.7241 26.1802 49.2832 15.1779 59.7064 15.1779C67.0606 15.1779 70.0139 21.2581 70.0139 28.5544H55.7108C55.2476 32.8974 56.1162 41.236 61.6753 41.4677C65.2076 41.5835 67.9292 38.9198 69.7822 36.0244ZM58.4904 16.4519C55.8846 16.6835 55.8846 24.2693 55.7108 26.8751H61.5594C61.3857 22.1267 61.5594 16.2781 58.4904 16.4519ZM98.7357 36.0244L99.5464 36.6035C97.5197 39.9621 94.9718 42.2784 91.3815 43.0891C90.2813 43.4365 88.602 43.5523 87.386 43.5523C82.1164 43.5523 78.2946 40.8307 76.3836 35.9665C72.6776 26.1802 78.2367 15.1779 88.6599 15.1779C96.0141 15.1779 98.9674 21.2581 98.9674 28.5544H84.6643C84.2011 32.8974 85.0697 41.236 90.6287 41.4677C94.1611 41.5835 96.8827 38.9198 98.7357 36.0244ZM87.4439 16.4519C84.838 16.6835 84.838 24.2693 84.6643 26.8751H90.5129C90.3392 22.1267 90.5129 16.2781 87.4439 16.4519ZM122.767 37.9933L123.694 38.746C123.694 38.746 122.593 40.657 121.493 41.7572C119.177 44.0735 116.571 45 113.212 45C110.722 45 108.812 44.3051 107.422 42.8574C106.09 41.4098 105.395 39.6147 105.395 37.4721V15.9886H102.5V15.0621L114.371 5.56534H115.529V13.7881H122.999L122.709 15.9886H115.529V37.4721C115.529 38.9777 115.76 40.1358 116.224 40.8886C116.687 41.6414 117.324 42.0467 118.019 42.0467C118.829 42.0467 119.698 41.6414 120.567 40.8886C121.435 40.1358 122.188 39.1514 122.767 37.9933ZM165.632 37.9933L166.558 38.746C166.558 38.746 165.458 40.657 164.358 41.7572C162.042 44.0735 159.436 45 156.077 45C153.587 45 151.676 44.3051 150.287 42.8574C148.955 41.4098 148.26 39.6147 148.26 37.4721V15.9886H145.364V15.0621L157.235 5.56534H158.393V13.7881H165.863L165.574 15.9886H158.393V37.4721C158.393 38.9777 158.625 40.1358 159.088 40.8886C159.552 41.6414 160.189 42.0467 160.883 42.0467C161.694 42.0467 162.563 41.6414 163.431 40.8886C164.3 40.1358 165.053 39.1514 165.632 37.9933ZM198.174 40.1358C198.116 42.6258 199.564 44.1893 201.127 44.1314V45H186.13V44.1893C187.809 44.1893 188.388 41.5835 188.562 38.804C188.793 34.4609 188.677 27.8016 188.562 23.4007C188.504 20.9107 186.94 19.0577 184.798 19.0577C183.755 19.0577 182.713 19.463 181.671 20.2737V38.6302C181.671 41.0044 182.076 44.0156 184.277 44.1893V45H168.757V44.2472C170.495 44.4209 171.537 43.147 171.537 38.6302V10.1979C171.537 8.05535 171.132 6.66558 170.263 5.97069C169.452 5.27581 168.584 4.92837 167.715 4.92837L167.773 4.46511L180.86 0.353718L181.671 0.932787V18.4207C183.871 16.2781 188.098 13.7881 191.225 13.7881C195.453 13.7881 198.116 17.8995 198.174 21.8372C198.29 27.7437 198.29 34.1714 198.174 40.1358ZM226.878 36.0244L227.688 36.6035C225.661 39.9621 223.114 42.2784 219.523 43.0891C218.423 43.4365 216.744 43.5523 215.528 43.5523C210.258 43.5523 206.436 40.8307 204.525 35.9665C200.819 26.1802 206.378 15.1779 216.802 15.1779C224.156 15.1779 227.109 21.2581 227.109 28.5544H212.806C212.343 32.8974 213.211 41.236 218.771 41.4677C222.303 41.5835 225.025 38.9198 226.878 36.0244ZM215.586 16.4519C212.98 16.6835 212.98 24.2693 212.806 26.8751H218.655C218.481 22.1267 218.655 16.2781 215.586 16.4519ZM266.269 0.932787V38.746C266.269 40.7149 266.385 43.4944 269.57 44.2472V45H252.777V44.2472C255.962 43.8419 256.135 40.5412 256.135 38.5144V10.1979C256.135 8.05535 255.73 6.66558 254.862 5.97069C254.051 5.27581 253.182 4.92837 252.314 4.92837L252.372 4.46511L265.459 0.353718L266.269 0.932787ZM295.359 36.0244L296.17 36.6035C294.143 39.9621 291.595 42.2784 288.005 43.0891C286.905 43.4365 285.226 43.5523 284.01 43.5523C278.74 43.5523 274.918 40.8307 273.007 35.9665C269.301 26.1802 274.86 15.1779 285.284 15.1779C292.638 15.1779 295.591 21.2581 295.591 28.5544H281.288C280.825 32.8974 281.693 41.236 287.252 41.4677C290.785 41.5835 293.506 38.9198 295.359 36.0244ZM284.067 16.4519C281.462 16.6835 281.462 24.2693 281.288 26.8751H287.137C286.963 22.1267 287.137 16.2781 284.067 16.4519ZM327.903 39.9042L328.019 40.4253C327.324 41.5256 326.224 42.4521 324.66 43.3207C321.07 45.3474 317.132 45 307.52 45C302.308 45 299.644 42.3942 299.702 37.2405C299.702 32.2026 301.382 29.8284 306.362 27.9753C307.057 27.6858 314.179 24.5009 314.932 24.2114V20.5053C314.932 18.1891 315.048 15.12 312.673 15.12C310.589 15.12 310.01 17.5521 310.01 19.8684C310.01 23.4007 307.809 25.3695 305.377 25.717C302.25 26.1802 299.992 22.59 303.408 18.4786C306.13 15.12 310.705 13.904 315.163 13.7881C319.043 13.7881 322.286 15.0621 323.85 18.3049C324.544 19.7526 324.892 21.4319 324.892 23.4007V38.2249C324.892 42.51 326.455 41.236 327.903 39.9042ZM314.932 42.3363V26.1223L314.874 26.0065C312.442 26.5856 311.226 28.2649 310.357 30.5233C309.489 33.0133 309.257 41.1202 310.357 42.5679C311.4 43.9577 314.121 43.9577 314.932 42.3363ZM361.245 39.9042L361.361 40.4253C360.666 41.5256 359.566 42.4521 358.002 43.3207C355.686 44.6526 352.385 45 349.895 45H340.109C337.793 45 335.824 44.4788 334.145 43.0891C330.844 40.2516 329.165 35.3874 329.165 31.334C329.165 24.5588 331.829 17.8416 337.503 15.0042C340.399 13.6144 343.062 13.4986 345.9 14.0777C346.884 14.3093 347.579 14.483 348.1 14.6567V10.1979C348.1 8.05535 347.695 6.66558 346.826 5.97069C346.016 5.27581 345.147 4.92837 344.279 4.92837V4.46511L357.365 0.353718L358.234 0.932787V38.2249C358.234 42.51 359.798 41.236 361.245 39.9042ZM348.1 41.6414V18.3049C347.695 17.4363 347.116 16.6835 346.421 16.1044C344.858 14.8305 342.541 15.0042 341.325 16.7414C339.472 19.3472 339.414 23.5744 339.414 27.8595C339.414 31.1602 339.53 39.0356 341.325 41.5256C342.889 43.784 345.031 44.0156 346.942 42.6837C347.695 42.1626 348.1 41.8151 348.1 41.6414ZM377.643 26.0065C380.596 28.3228 383.086 30.9865 383.086 35.7349C383.086 42.2205 378.454 45 373.705 45H363.514L363.108 36.1981H363.745C364.151 41.1781 368.088 43.8998 371.099 43.726C373.01 43.6102 374.516 42.3942 374.516 40.1358C374.516 37.6458 370.694 34.7505 369.246 33.5344C366.235 30.9865 363.398 27.8016 363.398 22.8795C363.398 16.6256 367.393 13.7881 373.242 13.7881C374.921 13.7881 376.369 13.846 378.048 14.3672C380.422 15.12 380.944 15.2937 381.291 13.7881H381.638V23.5744H381.175C380.828 18.0153 377.701 15.0042 375.153 14.9463C373.358 14.8884 371.621 16.1623 371.852 18.7102C372.142 21.4898 375.964 24.6746 377.643 26.0065Z" fill="white"/>
</svg>
