<svg width="224" height="224" viewBox="0 0 224 224" fill="none" xmlns="http://www.w3.org/2000/svg">
<path d="M112 223.426C173.58 223.426 223.5 173.506 223.5 111.926C223.5 50.346 173.58 0.425781 112 0.425781C50.4202 0.425781 0.5 50.346 0.5 111.926C0.5 173.506 50.4202 223.426 112 223.426Z" fill="url(#paint0_radial_176_1183)"/>
<path d="M112 196.426C158.668 196.426 196.5 158.594 196.5 111.926C196.5 65.2577 158.668 27.4258 112 27.4258C65.3319 27.4258 27.5 65.2577 27.5 111.926C27.5 158.594 65.3319 196.426 112 196.426Z" fill="url(#paint1_radial_176_1183)"/>
<path d="M112 158.926C137.957 158.926 159 137.883 159 111.926C159 85.9684 137.957 64.9258 112 64.9258C86.0426 64.9258 65 85.9684 65 111.926C65 137.883 86.0426 158.926 112 158.926Z" fill="url(#paint2_radial_176_1183)"/>
<defs>
<radialGradient id="paint0_radial_176_1183" cx="0" cy="0" r="1" gradientUnits="userSpaceOnUse" gradientTransform="translate(112 111.926) scale(111.5)">
<stop stop-color="#FF7C15"/>
<stop offset="1" stop-color="#FF9C15" stop-opacity="0"/>
</radialGradient>
<radialGradient id="paint1_radial_176_1183" cx="0" cy="0" r="1" gradientUnits="userSpaceOnUse" gradientTransform="translate(112 111.926) scale(84.5)">
<stop stop-color="#FF7C15"/>
<stop offset="1" stop-color="#FF9C15" stop-opacity="0"/>
</radialGradient>
<radialGradient id="paint2_radial_176_1183" cx="0" cy="0" r="1" gradientUnits="userSpaceOnUse" gradientTransform="translate(112 111.926) scale(47)">
<stop stop-color="#FF9C15"/>
<stop offset="0.2151" stop-color="#FFA119"/>
<stop offset="0.476" stop-color="#FFB026"/>
<stop offset="0.7594" stop-color="#FFC83A"/>
<stop offset="1" stop-color="#FFE350"/>
</radialGradient>
</defs>
</svg>
