<svg width="57" height="55" viewBox="0 0 57 55" fill="none" xmlns="http://www.w3.org/2000/svg">
  <g filter="url(#filter0_d_135_924)">
    <path d="M32.4104 19.3333C33.4167 19.3333 34.2333 20.15 34.2333 21.1563V28.1865C34.2333 29.7062 33.6296 31.1637 32.555 32.2383C31.4804 33.313 30.0229 33.9167 28.5031 33.9167C26.9834 33.9167 25.5259 33.313 24.4513 32.2383C23.3766 31.1637 22.7729 29.7062 22.7729 28.1865V21.1563C22.7729 20.15 23.5885 19.3333 24.5958 19.3333H32.4104ZM17.8229 19.3333L22.3875 19.3313C22.0121 19.7836 21.7861 20.3411 21.7406 20.9271L21.7302 21.1563V28.1865C21.7302 29.3667 22.0333 30.4771 22.5635 31.4438C21.8499 31.7551 21.07 31.8839 20.2941 31.8184C19.5183 31.7529 18.771 31.4952 18.1196 31.0686C17.4683 30.642 16.9335 30.0599 16.5634 29.3748C16.1934 28.6898 15.9997 27.9234 16 27.1448V21.1563C16.0006 20.6728 16.1929 20.2093 16.5349 19.8675C16.8769 19.5257 17.3394 19.3336 17.8229 19.3333ZM34.6198 19.3313L39.1771 19.3333C40.1833 19.3333 41 20.15 41 21.1563V27.1458C41.0003 27.9241 40.8068 28.6903 40.437 29.3751C40.0672 30.0599 39.5327 30.6418 38.8817 31.0684C38.2307 31.495 37.4838 31.7528 36.7082 31.8185C35.9327 31.8842 35.1531 31.7558 34.4396 31.4448L34.4979 31.3385C34.9448 30.4917 35.2167 29.5375 35.2667 28.526L35.275 28.1865V21.1563C35.275 20.4625 35.0292 19.8271 34.6198 19.3313ZM28.5 11C28.9788 11 29.4529 11.0943 29.8952 11.2775C30.3375 11.4607 30.7394 11.7293 31.078 12.0678C31.4165 12.4064 31.6851 12.8083 31.8683 13.2506C32.0515 13.693 32.1458 14.1671 32.1458 14.6458C32.1458 15.1246 32.0515 15.5987 31.8683 16.041C31.6851 16.4834 31.4165 16.8853 31.078 17.2238C30.7394 17.5624 30.3375 17.8309 29.8952 18.0141C29.4529 18.1974 28.9788 18.2917 28.5 18.2917C27.5331 18.2917 26.6057 17.9076 25.922 17.2238C25.2383 16.5401 24.8542 15.6128 24.8542 14.6458C24.8542 13.6789 25.2383 12.7516 25.922 12.0678C26.6057 11.3841 27.5331 11 28.5 11ZM36.8365 12.0417C37.2468 12.0417 37.6532 12.1225 38.0323 12.2795C38.4115 12.4366 38.756 12.6668 39.0462 12.957C39.3363 13.2471 39.5665 13.5916 39.7236 13.9708C39.8806 14.3499 39.9615 14.7563 39.9615 15.1667C39.9615 15.577 39.8806 15.9834 39.7236 16.3626C39.5665 16.7417 39.3363 17.0862 39.0462 17.3764C38.756 17.6666 38.4115 17.8967 38.0323 18.0538C37.6532 18.2108 37.2468 18.2917 36.8365 18.2917C36.0077 18.2917 35.2128 17.9624 34.6267 17.3764C34.0407 16.7903 33.7115 15.9955 33.7115 15.1667C33.7115 14.3379 34.0407 13.543 34.6267 12.957C35.2128 12.3709 36.0077 12.0417 36.8365 12.0417ZM20.1635 12.0417C20.5739 12.0417 20.9803 12.1225 21.3594 12.2795C21.7386 12.4366 22.0831 12.6668 22.3733 12.957C22.6634 13.2471 22.8936 13.5916 23.0507 13.9708C23.2077 14.3499 23.2885 14.7563 23.2885 15.1667C23.2885 15.577 23.2077 15.9834 23.0507 16.3626C22.8936 16.7417 22.6634 17.0862 22.3733 17.3764C22.0831 17.6666 21.7386 17.8967 21.3594 18.0538C20.9803 18.2108 20.5739 18.2917 20.1635 18.2917C19.3347 18.2917 18.5399 17.9624 17.9538 17.3764C17.3678 16.7903 17.0385 15.9955 17.0385 15.1667C17.0385 14.3379 17.3678 13.543 17.9538 12.957C18.5399 12.3709 19.3347 12.0417 20.1635 12.0417Z" fill="#64A6F1"/>
  </g>
  <defs>
    <filter id="filter0_d_135_924" x="0.77" y="0.64" width="55.46" height="53.3765" filterUnits="userSpaceOnUse" color-interpolation-filters="sRGB">
      <feFlood flood-opacity="0" result="BackgroundImageFix"/>
      <feColorMatrix in="SourceAlpha" type="matrix" values="0 0 0 0 0 0 0 0 0 0 0 0 0 0 0 0 0 0 127 0" result="hardAlpha"/>
      <feOffset dy="4.87"/>
      <feGaussianBlur stdDeviation="7.615"/>
      <feComposite in2="hardAlpha" operator="out"/>
      <feColorMatrix type="matrix" values="0 0 0 0 0 0 0 0 0 0.439216 0 0 0 0 0.941176 0 0 0 0.67 0"/>
      <feBlend mode="normal" in2="BackgroundImageFix" result="effect1_dropShadow_135_924"/>
      <feBlend mode="normal" in="SourceGraphic" in2="effect1_dropShadow_135_924" result="shape"/>
    </filter>
  </defs>
</svg>